<svg xmlns="http://www.w3.org/2000/svg" viewBox="0 0 557.31 284.69"><defs><style>.cls-1,.cls-4{fill:none;stroke:#c85f71;stroke-miterlimit:10;}.cls-1{stroke-width:0.61px;}.cls-2{fill:#f6f4ef;}.cls-3{fill:#4d78a7;}.cls-4{stroke-width:0.5px;}</style></defs><title>arrecife-inf</title><g id="Capa_2" data-name="Capa 2"><g id="Capa_1-2" data-name="Capa 1"><line class="cls-1" x1="443.88" y1="178.67" x2="557.31" y2="178.67"/><path class="cls-2" d="M458.59,168.17h-6.68L450,172.59h-1.92l7.21-16.43,7,16.43h-1.93Zm-.68-1.64-2.64-6.28-2.67,6.28Z"/><path class="cls-2" d="M463.5,162.84h1.69v1a2.83,2.83,0,0,1,2.42-1.27,2.92,2.92,0,0,1,2.66,1.58,3.27,3.27,0,0,1,2.94-1.58c2.89,0,3.17,2.42,3.17,3.81v6.18h-1.69v-5.92c0-1.11-.14-2.56-1.74-2.56-1.95,0-2.16,1.88-2.16,3v5.43h-1.7v-5.78c0-.68,0-2.7-1.76-2.7s-2.14,2-2.14,3.17v5.31H463.5Z"/><path class="cls-2" d="M487.62,170.1a6,6,0,0,1-1.2,1.57,4.75,4.75,0,0,1-3.25,1.2c-2.35,0-4.81-1.48-4.81-5.1,0-2.91,1.78-5.17,4.72-5.17a4.36,4.36,0,0,1,3.69,1.79,6.6,6.6,0,0,1,.92,3.66H480.1a3.12,3.12,0,0,0,3.1,3.32,3,3,0,0,0,2-.71,4,4,0,0,0,1-1.34ZM486,166.64a2.92,2.92,0,0,0-2.87-2.53,3,3,0,0,0-2.87,2.53Z"/><path class="cls-2" d="M489.64,162.84h1.69V164a3.46,3.46,0,0,1,2.8-1.37,3.29,3.29,0,0,1,2.79,1.34,4.31,4.31,0,0,1,.57,2.61v6H495.8v-6a2.88,2.88,0,0,0-.45-1.79,1.93,1.93,0,0,0-1.6-.7,2.1,2.1,0,0,0-1.71.75,4.1,4.1,0,0,0-.71,2.63v5.1h-1.69Z"/><path class="cls-2" d="M500.9,158a1.2,1.2,0,1,1-1.2,1.2A1.2,1.2,0,0,1,500.9,158Zm.84,4.89v9.75h-1.69v-9.75Z"/><path class="cls-2" d="M511.78,155.46h1.69v17.13h-1.69v-1.36a4.1,4.1,0,0,1-3.34,1.64c-2.46,0-4.74-1.74-4.74-5.17s2.25-5.1,4.74-5.1a4.07,4.07,0,0,1,3.34,1.62Zm-6.34,12.24c0,2.09,1.17,3.67,3.19,3.67s3.24-1.72,3.24-3.64a3.3,3.3,0,0,0-3.24-3.62C507,164.11,505.44,165.33,505.44,167.7Z"/><path class="cls-2" d="M523.51,162.84h1.69v9.75h-1.69v-1.36a4.12,4.12,0,0,1-3.34,1.64c-2.47,0-4.75-1.74-4.75-5.17s2.26-5.1,4.75-5.1a4.07,4.07,0,0,1,3.34,1.62Zm-6.35,4.86c0,2.09,1.18,3.67,3.2,3.67s3.24-1.72,3.24-3.64a3.3,3.3,0,0,0-3.24-3.62C518.69,164.11,517.16,165.33,517.16,167.7Z"/><path class="cls-2" d="M535.24,155.46h1.69v17.13h-1.69v-1.36a4.12,4.12,0,0,1-3.34,1.64c-2.47,0-4.75-1.74-4.75-5.17s2.26-5.1,4.75-5.1a4.07,4.07,0,0,1,3.34,1.62Zm-6.35,12.24c0,2.09,1.18,3.67,3.2,3.67s3.24-1.72,3.24-3.64a3.3,3.3,0,0,0-3.24-3.62C530.42,164.11,528.89,165.33,528.89,167.7Z"/><path class="cls-2" d="M548.14,170.1a5.57,5.57,0,0,1-1.2,1.57,4.73,4.73,0,0,1-3.24,1.2c-2.35,0-4.82-1.48-4.82-5.1,0-2.91,1.79-5.17,4.72-5.17a4.34,4.34,0,0,1,3.69,1.79,6.52,6.52,0,0,1,.92,3.66h-7.59a3.12,3.12,0,0,0,3.1,3.32,3,3,0,0,0,2-.71,3.77,3.77,0,0,0,1-1.34Zm-1.67-3.46a2.91,2.91,0,0,0-2.87-2.53,3,3,0,0,0-2.86,2.53Z"/><path class="cls-2" d="M554.18,165.09a1.49,1.49,0,0,0-1.36-1,1.08,1.08,0,0,0-1.18,1.1c0,.71.47.92,1.58,1.39a5.89,5.89,0,0,1,2.44,1.5,2.3,2.3,0,0,1,.52,1.58,3.1,3.1,0,0,1-3.36,3.19,3.48,3.48,0,0,1-3.41-2.49l1.46-.61a2.2,2.2,0,0,0,2,1.6,1.51,1.51,0,0,0,1.6-1.55c0-.92-.66-1.23-1.57-1.62a6.43,6.43,0,0,1-2.38-1.44,2.14,2.14,0,0,1-.44-1.43,2.62,2.62,0,0,1,2.84-2.73,2.82,2.82,0,0,1,2.68,1.77Z"/><path class="cls-2" d="M506.84,193.44v5.71h-.79v-12h2.32c2,0,3.51,1.08,3.51,3.13s-1.42,3.17-3.49,3.17Zm0-.72h1.59a2.38,2.38,0,0,0,2.63-2.43c0-1.5-1-2.43-2.76-2.43h-1.46Z"/><path class="cls-2" d="M519.16,191.8h.72v7.35h-.72v-1.32a3.35,3.35,0,0,1-2.87,1.51,3.6,3.6,0,0,1-3.58-3.87,3.52,3.52,0,0,1,3.58-3.83,3.38,3.38,0,0,1,2.87,1.44Zm-5.69,3.62a2.88,2.88,0,1,0,5.72,0,2.87,2.87,0,1,0-5.72,0Z"/><path class="cls-2" d="M523.92,186v13.13h-.72V186Z"/><path class="cls-2" d="M533.23,191.8H534v7.35h-.72v-1.32a3.34,3.34,0,0,1-2.86,1.51,3.6,3.6,0,0,1-3.58-3.87,3.52,3.52,0,0,1,3.58-3.83,3.35,3.35,0,0,1,2.86,1.44Zm-5.69,3.62a3,3,0,0,0,2.88,3.24,3,3,0,0,0,2.85-3.24,2.87,2.87,0,1,0-5.73,0Z"/><path class="cls-2" d="M538,203.29h-.72V191.8H538v1.28a3.43,3.43,0,0,1,2.88-1.44,3.51,3.51,0,0,1,3.57,3.78,3.62,3.62,0,0,1-3.6,3.92,3.21,3.21,0,0,1-2.85-1.51Zm5.69-7.87a2.87,2.87,0,1,0-5.73,0c0,1.84,1,3.28,2.87,3.28S543.69,197.22,543.69,195.42Z"/><path class="cls-2" d="M553.28,191.8H554v7.35h-.72v-1.32a3.32,3.32,0,0,1-2.86,1.51,3.6,3.6,0,0,1-3.58-3.87,3.52,3.52,0,0,1,3.58-3.83,3.35,3.35,0,0,1,2.86,1.44Zm-5.69,3.62a3,3,0,0,0,2.89,3.24,3,3,0,0,0,2.84-3.24,2.87,2.87,0,1,0-5.73,0Z"/><path class="cls-2" d="M504.94,216.2h-5.12l-1.6,4h-.86l5.06-12.37,5,12.37h-.86Zm-.29-.72-2.25-5.69-2.29,5.69Z"/><path class="cls-2" d="M510.41,207v13.13h-.72V207Z"/><path class="cls-2" d="M514.46,207v7.06a3.43,3.43,0,0,1,2.88-1.44,3.5,3.5,0,0,1,3.56,3.78,3.62,3.62,0,0,1-3.6,3.92,3.17,3.17,0,0,1-2.84-1.51v1.32h-.72V207Zm5.69,9.4a2.87,2.87,0,1,0-5.73,0c0,1.84,1,3.28,2.86,3.28S520.15,218.22,520.15,216.42Z"/><path class="cls-2" d="M524.05,216.56a3,3,0,0,0,2.92,3.1,2.79,2.79,0,0,0,2.55-1.67l.62.35a3.71,3.71,0,1,1-3.28-5.7c2,0,3.47,1.58,3.47,3.92Zm5.53-.68a2.76,2.76,0,0,0-2.72-2.56,2.81,2.81,0,0,0-2.76,2.56Z"/><path class="cls-2" d="M533.19,212.8h.72v.95a1.73,1.73,0,0,1,1.62-1.11,1.65,1.65,0,0,1,.78.18l-.36.65a.79.79,0,0,0-.54-.15c-1.48,0-1.5,2-1.5,2.88v4h-.72Z"/><path class="cls-2" d="M544.5,214.53a3.35,3.35,0,0,0-2.54-1.21,3,3,0,0,0-3.06,3.19,3,3,0,0,0,3,3.15,3.67,3.67,0,0,0,2.67-1.32v1a4,4,0,0,1-2.68,1,3.85,3.85,0,0,1,.05-7.7,3.89,3.89,0,0,1,2.54.93Z"/><path class="cls-2" d="M553.28,212.8H554v7.35h-.72v-1.32a3.33,3.33,0,0,1-2.86,1.51,3.6,3.6,0,0,1-3.58-3.87,3.52,3.52,0,0,1,3.58-3.83,3.35,3.35,0,0,1,2.86,1.44Zm-5.69,3.62a3,3,0,0,0,2.88,3.24,3,3,0,0,0,2.85-3.24,2.87,2.87,0,1,0-5.73,0Z"/><path class="cls-2" d="M446.91,231.58a5.42,5.42,0,1,0-4,9,5.57,5.57,0,0,0,4-1.82v1a6,6,0,0,1-4,1.49,6.19,6.19,0,1,1,0-12.37,5.87,5.87,0,0,1,4,1.57Z"/><path class="cls-2" d="M455.33,233.8h.72v7.35h-.72v-1.32a3.34,3.34,0,0,1-2.86,1.51,3.61,3.61,0,0,1-3.59-3.87,3.53,3.53,0,0,1,3.59-3.83,3.35,3.35,0,0,1,2.86,1.44Zm-5.69,3.62a3,3,0,0,0,2.88,3.24,3,3,0,0,0,2.85-3.24,2.87,2.87,0,1,0-5.73,0Z"/><path class="cls-2" d="M459.38,233.8h.72V235a2.45,2.45,0,0,1,2.25-1.31,2.28,2.28,0,0,1,2,1,3.51,3.51,0,0,1,.36,1.86v4.63H464v-4.63a2.73,2.73,0,0,0-.28-1.48,1.57,1.57,0,0,0-1.44-.72,2,2,0,0,0-1.81,1,4,4,0,0,0-.39,2v3.82h-.72Z"/><path class="cls-2" d="M474,235.53a3.35,3.35,0,0,0-2.54-1.21,3.17,3.17,0,0,0,0,6.34,3.66,3.66,0,0,0,2.66-1.32v1a4,4,0,0,1-2.68,1,3.85,3.85,0,0,1,.05-7.7,3.89,3.89,0,0,1,2.54.93Z"/><path class="cls-2" d="M476.77,228h.72V235a2.44,2.44,0,0,1,2.25-1.31,2.28,2.28,0,0,1,2,1,3.51,3.51,0,0,1,.36,1.86v4.63h-.72v-4.63a2.74,2.74,0,0,0-.29-1.48,1.56,1.56,0,0,0-1.44-.72,1.93,1.93,0,0,0-1.8,1,4,4,0,0,0-.39,2v3.82h-.72Z"/><path class="cls-2" d="M491.06,233.8h.72v7.35h-.72v-1.32a3.34,3.34,0,0,1-2.86,1.51,3.61,3.61,0,0,1-3.59-3.87,3.53,3.53,0,0,1,3.59-3.83,3.35,3.35,0,0,1,2.86,1.44Zm-5.69,3.62a3,3,0,0,0,2.88,3.24,3,3,0,0,0,2.85-3.24,2.87,2.87,0,1,0-5.73,0Z"/><path class="cls-2" d="M506,228h.72v13.13H506v-1.32a3.34,3.34,0,0,1-2.85,1.51,3.59,3.59,0,0,1-3.6-3.9,3.47,3.47,0,0,1,3.6-3.8,3.34,3.34,0,0,1,2.85,1.44Zm-5.69,9.4a2.88,2.88,0,1,0,5.72,0,2.86,2.86,0,0,0-2.88-3.1A2.81,2.81,0,0,0,500.33,237.42Z"/><path class="cls-2" d="M510.32,237.56a3,3,0,0,0,2.91,3.1,2.81,2.81,0,0,0,2.56-1.67l.61.35a3.71,3.71,0,1,1-3.27-5.7c2,0,3.47,1.58,3.47,3.92Zm5.52-.68a2.76,2.76,0,0,0-2.71-2.56,2.81,2.81,0,0,0-2.76,2.56Z"/><path class="cls-2" d="M525.09,234.48v6.67h-.72v-6.67h-.81v-.68h.81v-2.63h.72v2.63h1.28v.68Z"/><path class="cls-2" d="M528.8,237.56a3,3,0,0,0,2.92,3.1,2.81,2.81,0,0,0,2.56-1.67l.61.35a3.71,3.71,0,1,1-3.28-5.7c2,0,3.48,1.58,3.48,3.92Zm5.53-.68a2.76,2.76,0,0,0-2.72-2.56,2.81,2.81,0,0,0-2.75,2.56Z"/><path class="cls-2" d="M537.91,233.8h.72V235a2.45,2.45,0,0,1,2.25-1.31,2.28,2.28,0,0,1,2,1,3.51,3.51,0,0,1,.36,1.86v4.63h-.71v-4.63a2.74,2.74,0,0,0-.29-1.48,1.57,1.57,0,0,0-1.44-.72,1.93,1.93,0,0,0-1.8,1,3.91,3.91,0,0,0-.4,2v3.82h-.72Z"/><path class="cls-2" d="M546.28,231.35a.65.65,0,1,1,.65.67A.64.64,0,0,1,546.28,231.35Zm1,2.45v7.35h-.72V233.8Z"/><path class="cls-2" d="M553.71,235.15a1.33,1.33,0,0,0-1.27-.83,1.19,1.19,0,0,0-1.25,1.17c0,.72.58,1,1.3,1.24a4.08,4.08,0,0,1,1.89,1.08,1.76,1.76,0,0,1,.38,1.19,2.24,2.24,0,0,1-2.4,2.34,2.52,2.52,0,0,1-2.54-1.94l.71-.22a1.86,1.86,0,0,0,1.83,1.48A1.58,1.58,0,0,0,554,239c0-.83-.52-1.14-1.64-1.59a3.68,3.68,0,0,1-1.6-1,1.53,1.53,0,0,1-.32-.95,1.86,1.86,0,0,1,2-1.89,2,2,0,0,1,1.93,1.19Z"/><path class="cls-2" d="M494.44,258.2h-5.11l-1.6,3.95h-.87l5.06-12.37,5,12.37H496Zm-.29-.72-2.25-5.69-2.28,5.69Z"/><path class="cls-2" d="M502,256.15a1.33,1.33,0,0,0-1.27-.83,1.19,1.19,0,0,0-1.25,1.17c0,.72.58,1,1.3,1.24a4.08,4.08,0,0,1,1.89,1.08A1.76,1.76,0,0,1,503,260a2.24,2.24,0,0,1-2.4,2.34,2.5,2.5,0,0,1-2.53-1.94l.7-.22a1.86,1.86,0,0,0,1.83,1.48,1.58,1.58,0,0,0,1.64-1.62c0-.83-.52-1.14-1.64-1.59a3.68,3.68,0,0,1-1.6-1,1.53,1.53,0,0,1-.32-1,1.86,1.86,0,0,1,2-1.89,2,2,0,0,1,1.93,1.19Z"/><path class="cls-2" d="M511.56,254.8h.72v7.35h-.72v-1.32a3.34,3.34,0,0,1-2.86,1.51,3.61,3.61,0,0,1-3.59-3.87,3.53,3.53,0,0,1,3.59-3.83,3.35,3.35,0,0,1,2.86,1.44Zm-5.69,3.62a3,3,0,0,0,2.88,3.24,3,3,0,0,0,2.85-3.24,2.87,2.87,0,1,0-5.73,0Z"/><path class="cls-2" d="M521.59,249h.72v13.13h-.72v-1.32a3.34,3.34,0,0,1-2.85,1.51,3.59,3.59,0,0,1-3.6-3.9,3.47,3.47,0,0,1,3.6-3.8,3.34,3.34,0,0,1,2.85,1.44Zm-5.69,9.4a2.88,2.88,0,1,0,5.72,0,2.86,2.86,0,0,0-2.88-3.1A2.81,2.81,0,0,0,515.9,258.42Z"/><path class="cls-2" d="M532.87,258.49a3.85,3.85,0,1,1-3.85-3.85A3.78,3.78,0,0,1,532.87,258.49Zm-.75,0a3.1,3.1,0,1,0-3.1,3.17A3.09,3.09,0,0,0,532.12,258.49Z"/><path class="cls-2" d="M535.73,254.8h.72v.95a1.73,1.73,0,0,1,1.62-1.11,1.65,1.65,0,0,1,.78.18l-.36.65a.81.81,0,0,0-.54-.15c-1.48,0-1.5,2-1.5,2.88v3.95h-.72Z"/><path class="cls-2" d="M541.44,258.56a3,3,0,0,0,2.91,3.1,2.81,2.81,0,0,0,2.56-1.67l.61.35a3.61,3.61,0,0,1-6.84-1.83,3.58,3.58,0,0,1,3.57-3.87c2,0,3.47,1.58,3.47,3.92Zm5.53-.68a2.76,2.76,0,0,0-2.72-2.56,2.81,2.81,0,0,0-2.76,2.56Z"/><path class="cls-2" d="M553.71,256.15a1.33,1.33,0,0,0-1.27-.83,1.19,1.19,0,0,0-1.25,1.17c0,.72.58,1,1.3,1.24a4.08,4.08,0,0,1,1.89,1.08,1.76,1.76,0,0,1,.38,1.19,2.24,2.24,0,0,1-2.4,2.34,2.5,2.5,0,0,1-2.53-1.94l.7-.22a1.86,1.86,0,0,0,1.83,1.48A1.58,1.58,0,0,0,554,260c0-.83-.52-1.14-1.64-1.59a3.68,3.68,0,0,1-1.6-1,1.53,1.53,0,0,1-.32-1,1.86,1.86,0,0,1,2-1.89,2,2,0,0,1,1.93,1.19Z"/><path class="cls-3" d="M428.24,123.06c1.12-1.31,8.37-9.58,10.61-12.93,1.67-2.51,3.62-6.32,3.62-9.95a9,9,0,0,0-9.2-9.39c-6.33,0-9.67,5-9.86,10.32H411c.55-12.65,9.48-20.74,21.76-20.74,14.41,0,21.85,9.86,21.85,19.72,0,9.58-6.41,16.46-11.25,21.66l-10.69,11.63H455V143.8H410Z"/><path class="cls-3" d="M495.86,84.83l-15.07,19.63a16.25,16.25,0,0,1,6.79-1.49,19.1,19.1,0,0,1,19.53,20.18,21.36,21.36,0,0,1-5.67,15c-5.3,5.77-11.35,7.07-17.67,7.07-6.6,0-12.56-1.21-17.67-6.32a20.37,20.37,0,0,1-6.05-15.07c0-7.53,3.44-13.58,7.82-19.34l18.22-24.37Zm-4.19,47.53a12,12,0,0,0-.09-16.74,10.73,10.73,0,0,0-8-3,10.37,10.37,0,0,0-8.09,3.35,11.67,11.67,0,0,0,.09,16.46,11.59,11.59,0,0,0,8,3.07A11.09,11.09,0,0,0,491.67,132.36Z"/><path class="cls-3" d="M554.17,126.87c0,10.23-8.18,18.32-21.57,18.32S511,137.1,511,126.87a15.8,15.8,0,0,1,11.07-15.44c-4.75-2.32-8.93-6.88-8.93-13.76,0-9,6.51-17.3,19.44-17.3S552,88.65,552,97.67c0,6.88-4.18,11.44-8.92,13.76A15.79,15.79,0,0,1,554.17,126.87ZM542.08,126a9.49,9.49,0,1,0-9.48,9.68A9.28,9.28,0,0,0,542.08,126Zm-.83-28.27a8.65,8.65,0,1,0-8.65,8.65A8.26,8.26,0,0,0,541.25,97.76Z"/><path class="cls-2" d="M493.2,122.12v19.39h6v2.28h-8.39V122.12Z"/><path class="cls-2" d="M502.32,137.1a7.15,7.15,0,1,1,7.15,7.08A6.93,6.93,0,0,1,502.32,137.1Zm2.41,0a4.75,4.75,0,1,0,4.74-5A4.67,4.67,0,0,0,504.73,137.1Z"/><path class="cls-2" d="M523.92,132.45v11.34h-2.34V132.45h-1.43v-2.14h1.43v-4.88h2.34v4.88h2.34v2.14Z"/><path class="cls-2" d="M541.76,140.35a8.1,8.1,0,0,1-1.66,2.17,6.53,6.53,0,0,1-4.48,1.66c-3.25,0-6.66-2.05-6.66-7.05,0-4,2.47-7.15,6.53-7.15a6,6,0,0,1,5.1,2.47,9,9,0,0,1,1.26,5.07H531.36a4.32,4.32,0,0,0,4.29,4.58,4.1,4.1,0,0,0,2.76-1,5.47,5.47,0,0,0,1.4-1.86Zm-2.31-4.78a4,4,0,0,0-4-3.51,4.1,4.1,0,0,0-4,3.51Z"/><path class="cls-2" d="M552.31,133.43a2.08,2.08,0,0,0-1.88-1.37,1.49,1.49,0,0,0-1.63,1.53c0,1,.65,1.27,2.18,1.91a8.28,8.28,0,0,1,3.38,2.08,3.22,3.22,0,0,1,.71,2.18c0,2.83-2.05,4.42-4.64,4.42a4.83,4.83,0,0,1-4.72-3.44l2-.85a3,3,0,0,0,2.73,2.21,2.1,2.1,0,0,0,2.21-2.14c0-1.27-.91-1.69-2.18-2.25a8.75,8.75,0,0,1-3.28-2,2.93,2.93,0,0,1-.62-2,3.63,3.63,0,0,1,3.93-3.77,3.9,3.9,0,0,1,3.71,2.44Z"/><path class="cls-2" d="M236.78,72.76h-2.05l.72-1.27h2.68V83.67h-1.35Z"/><path class="cls-2" d="M248.87,72.73H242.2V71.49h9L243,84,242,83.25Z"/><path class="cls-2" d="M253.27,82.06a8.82,8.82,0,0,1,0-9,3.58,3.58,0,0,1,6.25,0,8.82,8.82,0,0,1,0,9,3.58,3.58,0,0,1-6.25,0Zm1-8.18a8.16,8.16,0,0,0,0,7.41,2.3,2.3,0,0,0,4.2,0,8.08,8.08,0,0,0,0-7.41,2.31,2.31,0,0,0-4.2,0Z"/><path class="cls-2" d="M268.57,76.09h1.32v.8a2.2,2.2,0,0,1,1.88-1,2.24,2.24,0,0,1,2.06,1.22,2.54,2.54,0,0,1,2.29-1.22c2.24,0,2.46,1.88,2.46,3v4.81h-1.31v-4.6c0-.86-.11-2-1.35-2-1.52,0-1.68,1.47-1.68,2.38v4.22h-1.32v-4.5c0-.52,0-2.1-1.37-2.1s-1.66,1.56-1.66,2.47v4.13h-1.32Z"/><path class="cls-2" d="M281.5,83.67l4.44-5.13c.31-.37,1.14-1.34,1.43-1.78A3.1,3.1,0,0,0,288,74.9a2.3,2.3,0,0,0-2.43-2.37,2.33,2.33,0,0,0-2,1.07,2.65,2.65,0,0,0-.4,1.45h-1.36a3.85,3.85,0,0,1,.92-2.52,3.82,3.82,0,0,1,6.64,2.39,4.28,4.28,0,0,1-1,2.61c-.51.71-1.17,1.46-1.66,2l-2.54,2.87h5.15v1.24Z"/><path class="cls-2" d="M234.47,98.51l3.72-4.09a13,13,0,0,0,1.06-1.31,3,3,0,0,0,.57-1.65,2.15,2.15,0,0,0-2.26-2.18,2.13,2.13,0,0,0-1.67.71,2.36,2.36,0,0,0-.56,1.58h-.64a2.89,2.89,0,0,1,.77-2,2.85,2.85,0,0,1,2.15-.84,2.74,2.74,0,0,1,2.87,2.76,3.4,3.4,0,0,1-.69,2,13.13,13.13,0,0,1-.86,1l-3.11,3.44h4.62v.58Z"/><path class="cls-2" d="M248.94,95.94a2.81,2.81,0,0,1-5.61,0,2.54,2.54,0,0,1,1.58-2.45,2.47,2.47,0,0,1-1.35-2.24,2.57,2.57,0,0,1,5.14,0,2.47,2.47,0,0,1-1.35,2.24A2.54,2.54,0,0,1,248.94,95.94Zm-.67,0a2.14,2.14,0,1,0-4.27,0,2.14,2.14,0,1,0,4.27,0ZM248,91.25a1.9,1.9,0,1,0-1.9,2A1.89,1.89,0,0,0,248,91.25Z"/><path class="cls-2" d="M256.31,87.92V98.51h-.58V87.92Z"/><path class="cls-2" d="M264.83,95.57a3.11,3.11,0,1,1-3.1-3.11A3.05,3.05,0,0,1,264.83,95.57Zm-.6,0a2.5,2.5,0,1,0-2.5,2.55A2.49,2.49,0,0,0,264.23,95.57Z"/><path class="cls-2" d="M267.77,93.14v5.37h-.58V93.14h-.66v-.55h.66V90.47h.58v2.12h1v.55Z"/><path class="cls-2" d="M270.79,95.62a2.38,2.38,0,0,0,2.35,2.5,2.25,2.25,0,0,0,2.06-1.35l.5.29a3.57,3.57,0,1,1,.16-1.44Zm4.46-.55a2.24,2.24,0,0,0-2.2-2.06,2.26,2.26,0,0,0-2.22,2.06Z"/><path class="cls-2" d="M280.69,93.68a1.07,1.07,0,0,0-1-.67,1,1,0,0,0-1,.94c0,.58.46.77,1,1a3.23,3.23,0,0,1,1.53.87,1.44,1.44,0,0,1,.3,1,1.8,1.8,0,0,1-1.93,1.88,2,2,0,0,1-2.05-1.56l.57-.18a1.5,1.5,0,0,0,1.48,1.19,1.27,1.27,0,0,0,1.32-1.3c0-.67-.42-.92-1.32-1.28a2.91,2.91,0,0,1-1.29-.79,1.24,1.24,0,0,1-.26-.77,1.5,1.5,0,0,1,1.58-1.52,1.58,1.58,0,0,1,1.55,1Z"/><path class="cls-2" d="M310.63,72.76h-2.05l.72-1.27H312V83.67h-1.35Z"/><path class="cls-2" d="M323.52,80.31a3.73,3.73,0,0,1-7.45,0,3.07,3.07,0,0,1,1.85-3,3,3,0,0,1-1.48-2.67,3.36,3.36,0,1,1,6.72,0,3,3,0,0,1-1.48,2.67A3.07,3.07,0,0,1,323.52,80.31Zm-1.35,0a2.38,2.38,0,0,0-4.75,0,2.38,2.38,0,1,0,4.75,0Zm-.29-5.59a2.08,2.08,0,1,0-2.08,2.1A2.05,2.05,0,0,0,321.88,74.68Z"/><path class="cls-2" d="M327.8,82.06a8.76,8.76,0,0,1,0-9,3.57,3.57,0,0,1,6.24,0,8.76,8.76,0,0,1,0,9,3.57,3.57,0,0,1-6.24,0Zm1-8.18a8.08,8.08,0,0,0,0,7.41,2.3,2.3,0,0,0,4.2,0,8.08,8.08,0,0,0,0-7.41,2.31,2.31,0,0,0-4.2,0Z"/><path class="cls-2" d="M343.1,76.09h1.32v.8a2.19,2.19,0,0,1,1.88-1,2.24,2.24,0,0,1,2.06,1.22,2.52,2.52,0,0,1,2.28-1.22c2.25,0,2.47,1.88,2.47,3v4.81H351.8v-4.6c0-.86-.11-2-1.36-2-1.51,0-1.68,1.47-1.68,2.38v4.22h-1.31v-4.5c0-.52,0-2.1-1.37-2.1s-1.66,1.56-1.66,2.47v4.13H343.1Z"/><path class="cls-2" d="M356,83.67l4.44-5.13c.31-.37,1.13-1.34,1.42-1.78a3.12,3.12,0,0,0,.68-1.86,2.31,2.31,0,0,0-2.43-2.37,2.35,2.35,0,0,0-2,1.07,2.83,2.83,0,0,0-.4,1.45h-1.35a3.85,3.85,0,0,1,.91-2.52,3.83,3.83,0,0,1,6.65,2.39,4.31,4.31,0,0,1-1,2.61c-.51.71-1.17,1.46-1.66,2l-2.54,2.87h5.15v1.24Z"/><path class="cls-2" d="M314.31,96.09h1.35v.58h-1.35v1.84h-.64V96.67h-5.21l5.85-8.16Zm-.64,0v-5.7l-4.08,5.7Z"/><path class="cls-2" d="M322.44,87.92V98.51h-.58V87.92Z"/><path class="cls-2" d="M331,95.57a3.11,3.11,0,1,1-3.11-3.11A3.06,3.06,0,0,1,331,95.57Zm-.62,0a2.5,2.5,0,1,0-2.49,2.55A2.48,2.48,0,0,0,330.35,95.57Z"/><path class="cls-2" d="M333.9,93.14v5.37h-.59V93.14h-.65v-.55h.65V90.47h.59v2.12h1v.55Z"/><path class="cls-2" d="M336.92,95.62a2.38,2.38,0,0,0,2.35,2.5,2.25,2.25,0,0,0,2.06-1.35l.5.29a3.57,3.57,0,1,1,.16-1.44Zm4.46-.55a2.24,2.24,0,0,0-2.2-2.06A2.26,2.26,0,0,0,337,95.07Z"/><path class="cls-2" d="M346.82,93.68a1.07,1.07,0,0,0-1-.67,1,1,0,0,0-1,.94c0,.58.46.77,1,1a3.23,3.23,0,0,1,1.53.87,1.44,1.44,0,0,1,.3,1,1.8,1.8,0,0,1-1.93,1.88,2,2,0,0,1-2.05-1.56l.57-.18a1.5,1.5,0,0,0,1.48,1.19,1.27,1.27,0,0,0,1.32-1.3c0-.67-.42-.92-1.32-1.28a3,3,0,0,1-1.29-.79,1.24,1.24,0,0,1-.26-.77,1.5,1.5,0,0,1,1.58-1.52,1.58,1.58,0,0,1,1.55,1Z"/><path class="cls-2" d="M12.14,71.67h-2l.71-1.27H13.5V82.58H12.14Z"/><path class="cls-2" d="M16.58,82.58,21,77.45c.31-.37,1.13-1.34,1.43-1.78a3.17,3.17,0,0,0,.67-1.86,2.43,2.43,0,0,0-4.45-1.3A2.74,2.74,0,0,0,18.26,74H16.91a3.85,3.85,0,0,1,.92-2.52,3.57,3.57,0,0,1,2.88-1.25,3.6,3.6,0,0,1,3.76,3.64,4.28,4.28,0,0,1-1,2.61c-.52.71-1.17,1.46-1.67,2l-2.53,2.87h5.15v1.24Z"/><path class="cls-2" d="M35,79.22a3.45,3.45,0,0,1-3.72,3.58,3.45,3.45,0,0,1-3.73-3.58,3.07,3.07,0,0,1,1.84-3,3,3,0,0,1-1.47-2.67,3.36,3.36,0,1,1,6.72,0,3,3,0,0,1-1.48,2.67A3.07,3.07,0,0,1,35,79.22Zm-1.35,0a2.38,2.38,0,0,0-4.75,0,2.38,2.38,0,1,0,4.75,0Zm-.29-5.59a2.09,2.09,0,1,0-2.08,2.1A2.05,2.05,0,0,0,33.37,73.59Z"/><path class="cls-2" d="M43.47,75h1.31v.8a2.2,2.2,0,0,1,1.88-1A2.28,2.28,0,0,1,48.73,76,2.52,2.52,0,0,1,51,74.82c2.25,0,2.47,1.88,2.47,3v4.81H52.16V78c0-.86-.11-2-1.35-2-1.52,0-1.68,1.47-1.68,2.38v4.22H47.81v-4.5c0-.52,0-2.1-1.37-2.1s-1.66,1.56-1.66,2.47v4.13H43.47Z"/><path class="cls-2" d="M56.4,82.58l4.44-5.13c.31-.37,1.13-1.34,1.42-1.78a3.12,3.12,0,0,0,.68-1.86,2.31,2.31,0,0,0-2.43-2.37,2.35,2.35,0,0,0-2,1.07,2.74,2.74,0,0,0-.4,1.45H56.73a3.8,3.8,0,0,1,.91-2.52,3.83,3.83,0,0,1,6.65,2.39,4.31,4.31,0,0,1-1,2.61c-.51.71-1.17,1.46-1.66,2l-2.54,2.87h5.15v1.24Z"/><path class="cls-2" d="M13.42,88.31H11.9l.3-.59h1.86v9.69h-.64Z"/><path class="cls-2" d="M18.93,97.2l2.15-3.07A3.39,3.39,0,0,1,16.39,91a3.34,3.34,0,0,1,3.46-3.42A3.33,3.33,0,0,1,23.28,91a3.42,3.42,0,0,1-.63,2l-3.22,4.57ZM17.06,91a2.78,2.78,0,1,0,5.55,0,2.78,2.78,0,1,0-5.55,0Z"/><path class="cls-2" d="M30,86.82V97.41h-.58V86.82Z"/><path class="cls-2" d="M38.52,94.46a3.11,3.11,0,1,1-3.11-3.1A3.06,3.06,0,0,1,38.52,94.46Zm-.61,0A2.5,2.5,0,1,0,35.41,97,2.48,2.48,0,0,0,37.91,94.46Z"/><path class="cls-2" d="M41.45,92v5.37h-.58V92h-.65v-.55h.65V89.37h.58v2.12h1V92Z"/><path class="cls-2" d="M44.47,94.52A2.39,2.39,0,0,0,46.83,97a2.25,2.25,0,0,0,2.06-1.35l.49.29a2.92,2.92,0,0,1-5.52-1.48,2.85,2.85,0,1,1,5.68,0ZM48.93,94a2.21,2.21,0,0,0-2.19-2.06A2.26,2.26,0,0,0,44.52,94Z"/><path class="cls-2" d="M54.38,92.58a1.08,1.08,0,0,0-1-.67,1,1,0,0,0-1,.94c0,.58.47.77,1,1a3.19,3.19,0,0,1,1.52.87,1.4,1.4,0,0,1,.31,1,1.8,1.8,0,0,1-1.93,1.88,2,2,0,0,1-2-1.57l.57-.17A1.5,1.5,0,0,0,53.29,97a1.27,1.27,0,0,0,1.32-1.31c0-.66-.42-.91-1.32-1.27A2.91,2.91,0,0,1,52,93.65a1.18,1.18,0,0,1-.27-.77,1.51,1.51,0,0,1,1.59-1.52,1.59,1.59,0,0,1,1.55,1Z"/><path class="cls-2" d="M81.37,72.32H79.32L80,71h2.69V83.23H81.37Z"/><path class="cls-2" d="M93.31,79.68h1.5v1.25h-1.5v2.3H92v-2.3H85.71l7.6-10.56Zm-1.35,0V74.3l-3.85,5.38Z"/><path class="cls-2" d="M98.53,81.62a8.82,8.82,0,0,1,0-9,3.58,3.58,0,0,1,6.25,0,8.82,8.82,0,0,1,0,9,3.58,3.58,0,0,1-6.25,0Zm1-8.18a8.08,8.08,0,0,0,0,7.41,2.3,2.3,0,0,0,4.2,0,8.16,8.16,0,0,0,0-7.41,2.31,2.31,0,0,0-4.2,0Z"/><path class="cls-2" d="M113.84,75.65h1.31v.8a2.21,2.21,0,0,1,1.88-1,2.28,2.28,0,0,1,2.07,1.23,2.54,2.54,0,0,1,2.28-1.23c2.25,0,2.47,1.89,2.47,3v4.81h-1.32v-4.6c0-.86-.11-2-1.35-2-1.52,0-1.68,1.46-1.68,2.38v4.22h-1.31v-4.5c0-.52,0-2.1-1.38-2.1s-1.66,1.56-1.66,2.47v4.13h-1.31Z"/><path class="cls-2" d="M126.77,83.23l4.44-5.14c.31-.36,1.13-1.33,1.42-1.77a3.12,3.12,0,0,0,.68-1.86,2.31,2.31,0,0,0-2.43-2.37,2.35,2.35,0,0,0-2,1.07,2.74,2.74,0,0,0-.4,1.45H127.1a3.85,3.85,0,0,1,.91-2.52,3.83,3.83,0,0,1,6.65,2.39,4.31,4.31,0,0,1-1,2.61c-.51.71-1.17,1.46-1.66,2L129.49,82h5.15v1.24Z"/><path class="cls-2" d="M79.15,98.09,82.87,94a11.8,11.8,0,0,0,1.06-1.3A3,3,0,0,0,84.5,91a2.28,2.28,0,0,0-3.93-1.47A2.39,2.39,0,0,0,80,91.15h-.64a2.92,2.92,0,0,1,.77-2,2.89,2.89,0,0,1,2.15-.84A2.75,2.75,0,0,1,85.17,91a3.29,3.29,0,0,1-.7,2,13.23,13.23,0,0,1-.86,1L80.5,97.51h4.62v.58Z"/><path class="cls-2" d="M93.09,89.45a6.46,6.46,0,0,1,0,7.61,2.78,2.78,0,0,1-4.56,0,6.5,6.5,0,0,1,0-7.61,2.79,2.79,0,0,1,4.56,0Zm-.48,7.23a5.27,5.27,0,0,0,1-3.43,5.2,5.2,0,0,0-1-3.42,2.14,2.14,0,0,0-3.6,0,5.26,5.26,0,0,0-1,3.42,5.33,5.33,0,0,0,1,3.43,2.13,2.13,0,0,0,3.6,0Z"/><path class="cls-2" d="M101,87.5V98.09h-.58V87.5Z"/><path class="cls-2" d="M109.52,95.14A3.11,3.11,0,1,1,106.41,92,3.06,3.06,0,0,1,109.52,95.14Zm-.61,0a2.5,2.5,0,1,0-2.5,2.56A2.49,2.49,0,0,0,108.91,95.14Z"/><path class="cls-2" d="M112.45,92.72v5.37h-.58V92.72h-.66v-.56h.66V90h.58v2.12h1v.56Z"/><path class="cls-2" d="M115.47,95.2a2.38,2.38,0,0,0,2.35,2.5,2.25,2.25,0,0,0,2.06-1.35l.5.29a3.58,3.58,0,1,1,.16-1.44Zm4.46-.55a2.24,2.24,0,0,0-2.2-2.07,2.27,2.27,0,0,0-2.22,2.07Z"/><path class="cls-2" d="M125.37,93.25a1.09,1.09,0,0,0-1-.67,1,1,0,0,0-1,1c0,.58.46.77,1,1a3.23,3.23,0,0,1,1.53.87,1.48,1.48,0,0,1,.3,1,1.81,1.81,0,0,1-1.93,1.89,2,2,0,0,1-2-1.57l.57-.17a1.51,1.51,0,0,0,1.48,1.19,1.27,1.27,0,0,0,1.32-1.31c0-.67-.42-.91-1.32-1.28a2.87,2.87,0,0,1-1.29-.78,1.26,1.26,0,0,1-.26-.77A1.51,1.51,0,0,1,124.31,92a1.58,1.58,0,0,1,1.55,1Z"/><path class="cls-2" d="M159.81,73h-2.05l.72-1.27h2.68V83.87h-1.35Z"/><path class="cls-2" d="M171.41,72.16l-2.8,3.89a3.53,3.53,0,0,1,1.08-.16,3.86,3.86,0,0,1,3.95,4,4.21,4.21,0,0,1-8.41,0,4.78,4.78,0,0,1,1-2.79l4.14-5.76Zm.87,7.78a2.85,2.85,0,0,0-5.7,0,2.85,2.85,0,1,0,5.7,0Z"/><path class="cls-2" d="M177.43,82.26a8.82,8.82,0,0,1,0-9,3.59,3.59,0,0,1,6.25,0,8.82,8.82,0,0,1,0,9,3.58,3.58,0,0,1-6.25,0Zm1-8.18a8.1,8.1,0,0,0,0,7.42,2.31,2.31,0,0,0,4.2,0,8.18,8.18,0,0,0,0-7.42,2.31,2.31,0,0,0-4.2,0Z"/><path class="cls-2" d="M192.74,76.29h1.31v.8a2.2,2.2,0,0,1,1.88-1A2.28,2.28,0,0,1,198,77.33a2.52,2.52,0,0,1,2.28-1.22c2.25,0,2.47,1.88,2.47,3v4.8h-1.32v-4.6c0-.86-.11-2-1.35-2-1.52,0-1.68,1.46-1.68,2.37v4.22h-1.32V79.38c0-.53,0-2.1-1.37-2.1s-1.66,1.55-1.66,2.46v4.13h-1.31Z"/><path class="cls-2" d="M205.67,83.87l4.44-5.13c.31-.37,1.13-1.34,1.42-1.78a3.12,3.12,0,0,0,.68-1.86,2.31,2.31,0,0,0-2.43-2.37,2.34,2.34,0,0,0-2,1.08,2.67,2.67,0,0,0-.4,1.44H206a3.82,3.82,0,0,1,.91-2.52,3.83,3.83,0,0,1,6.65,2.39,4.31,4.31,0,0,1-1,2.61c-.51.71-1.17,1.46-1.66,2l-2.54,2.87h5.15v1.24Z"/><path class="cls-2" d="M158.21,96.29a2,2,0,0,0,.32,1,2.22,2.22,0,0,0,1.71.9A2.25,2.25,0,0,0,162.42,96a2,2,0,0,0-.91-1.77,2.3,2.3,0,0,0-1.24-.29v-.59a2,2,0,0,0,1.31-.45,2.07,2.07,0,0,0,.71-1.58,1.78,1.78,0,0,0-1.86-1.89A1.75,1.75,0,0,0,159,90a2,2,0,0,0-.5,1.29h-.61a2.62,2.62,0,0,1,.71-1.74,2.51,2.51,0,1,1,2.79,4.06A2.4,2.4,0,0,1,163.09,96a2.81,2.81,0,0,1-2.85,2.85,2.74,2.74,0,0,1-2.32-1.26,2.37,2.37,0,0,1-.35-1.25Z"/><path class="cls-2" d="M170.89,89.53H165V89h7l-6.93,9.85-.48-.36Z"/><path class="cls-2" d="M178.45,88.05V98.64h-.58V88.05Z"/><path class="cls-2" d="M187,95.69a3.11,3.11,0,1,1-3.11-3.11A3.06,3.06,0,0,1,187,95.69Zm-.61,0a2.5,2.5,0,1,0-2.5,2.56A2.49,2.49,0,0,0,186.37,95.69Z"/><path class="cls-2" d="M189.91,93.27v5.37h-.58V93.27h-.66v-.56h.66V90.59h.58v2.12h1v.56Z"/><path class="cls-2" d="M192.93,95.75a2.38,2.38,0,0,0,2.35,2.5,2.25,2.25,0,0,0,2.06-1.35l.5.29a3.58,3.58,0,1,1,.16-1.44Zm4.46-.55a2.24,2.24,0,0,0-2.2-2.07A2.27,2.27,0,0,0,193,95.2Z"/><path class="cls-2" d="M202.83,93.8a1.09,1.09,0,0,0-1-.67,1,1,0,0,0-1,1c0,.58.46.77,1,1a3.23,3.23,0,0,1,1.53.87,1.42,1.42,0,0,1,.3,1,1.81,1.81,0,0,1-1.93,1.89,2,2,0,0,1-2.05-1.57l.57-.17a1.51,1.51,0,0,0,1.48,1.19,1.27,1.27,0,0,0,1.32-1.31c0-.67-.42-.91-1.32-1.28a2.87,2.87,0,0,1-1.29-.78,1.26,1.26,0,0,1-.26-.77,1.51,1.51,0,0,1,1.58-1.53,1.58,1.58,0,0,1,1.55,1Z"/><line class="cls-4" x1="2.11" y1="65.07" x2="368.09" y2="65.07"/><path class="cls-2" d="M10,174.78l4.43-5.13c.32-.37,1.14-1.34,1.43-1.78A3.12,3.12,0,0,0,16.5,166a2.31,2.31,0,0,0-2.43-2.37,2.35,2.35,0,0,0-2,1.07,2.65,2.65,0,0,0-.4,1.45H10.29a3.8,3.8,0,0,1,.91-2.52,3.59,3.59,0,0,1,2.88-1.25A3.6,3.6,0,0,1,17.85,166a4.31,4.31,0,0,1-1,2.61c-.51.71-1.17,1.46-1.66,2l-2.54,2.87h5.15v1.24Z"/><path class="cls-2" d="M21.77,173.17a8.82,8.82,0,0,1,0-8.95,3.86,3.86,0,0,1,3.13-1.83A3.86,3.86,0,0,1,28,164.22a8.82,8.82,0,0,1,0,8.95A3.86,3.86,0,0,1,24.9,175,3.86,3.86,0,0,1,21.77,173.17Zm1-8.18a8.08,8.08,0,0,0,0,7.41,2.54,2.54,0,0,0,2.1,1.36A2.54,2.54,0,0,0,27,172.4,8.16,8.16,0,0,0,27,165a2.55,2.55,0,0,0-2.1-1.35A2.55,2.55,0,0,0,22.8,165Z"/><path class="cls-2" d="M32.89,173.17a8.82,8.82,0,0,1,0-8.95,3.58,3.58,0,0,1,6.25,0,8.76,8.76,0,0,1,0,8.95,3.58,3.58,0,0,1-6.25,0Zm1-8.18a8.08,8.08,0,0,0,0,7.41,2.3,2.3,0,0,0,4.2,0,8.16,8.16,0,0,0,0-7.41,2.31,2.31,0,0,0-4.2,0Z"/><path class="cls-2" d="M48.2,167.2h1.31v.8a2.21,2.21,0,0,1,1.89-1,2.26,2.26,0,0,1,2.06,1.22A2.52,2.52,0,0,1,55.74,167c2.25,0,2.47,1.88,2.47,2.95v4.81H56.89v-4.6c0-.86-.11-2-1.35-2-1.51,0-1.68,1.47-1.68,2.38v4.22H52.55v-4.49c0-.53,0-2.11-1.37-2.11s-1.67,1.56-1.67,2.47v4.13H48.2Z"/><path class="cls-2" d="M61.13,174.78l4.44-5.13c.31-.37,1.13-1.34,1.42-1.78a3.12,3.12,0,0,0,.68-1.86,2.31,2.31,0,0,0-2.43-2.37,2.35,2.35,0,0,0-2,1.07,2.74,2.74,0,0,0-.4,1.45H61.46a3.85,3.85,0,0,1,.91-2.52A3.83,3.83,0,0,1,69,166a4.31,4.31,0,0,1-1,2.61c-.51.71-1.17,1.46-1.66,2l-2.54,2.87H69v1.24Z"/><path class="cls-2" d="M13.91,180.27l-2.15,3a3.35,3.35,0,0,1,1.32-.27,3.28,3.28,0,0,1,3.37,3.39A3.34,3.34,0,0,1,13,189.87a3.32,3.32,0,0,1-3.42-3.45,3.43,3.43,0,0,1,.62-2l3.23-4.56Zm1.87,6.18A2.69,2.69,0,0,0,13,183.64a2.71,2.71,0,0,0-2.78,2.81,2.78,2.78,0,1,0,5.55,0Z"/><path class="cls-2" d="M22.46,180.27l-2.15,3a3.35,3.35,0,0,1,1.32-.27A3.28,3.28,0,0,1,25,186.44a3.34,3.34,0,0,1-3.45,3.43,3.33,3.33,0,0,1-3.43-3.45,3.43,3.43,0,0,1,.62-2L22,179.89Zm1.88,6.18a2.78,2.78,0,1,0-5.55,0,2.78,2.78,0,1,0,5.55,0Z"/><path class="cls-2" d="M31.75,179.12v10.59h-.58V179.12Z"/><path class="cls-2" d="M40.28,186.76a3.11,3.11,0,1,1-3.11-3.11A3.06,3.06,0,0,1,40.28,186.76Zm-.61,0a2.5,2.5,0,1,0-2.5,2.56A2.49,2.49,0,0,0,39.67,186.76Z"/><path class="cls-2" d="M43.21,184.33v5.38h-.58v-5.38H42v-.55h.65v-2.12h.58v2.12h1v.55Z"/><path class="cls-2" d="M46.23,186.82a2.38,2.38,0,0,0,2.35,2.5A2.27,2.27,0,0,0,50.65,188l.49.3a3.59,3.59,0,1,1,.16-1.44Zm4.46-.55a2.23,2.23,0,0,0-2.19-2.07,2.27,2.27,0,0,0-2.23,2.07Z"/><path class="cls-2" d="M56.13,184.87a1.09,1.09,0,0,0-1-.67,1,1,0,0,0-1,1c0,.58.46.77,1,1a3.24,3.24,0,0,1,1.52.87,1.43,1.43,0,0,1,.31,1A1.82,1.82,0,0,1,55,189.87a2,2,0,0,1-2-1.57l.56-.17A1.52,1.52,0,0,0,55,189.32,1.28,1.28,0,0,0,56.37,188c0-.67-.42-.92-1.33-1.28a3.06,3.06,0,0,1-1.29-.78,1.28,1.28,0,0,1-.26-.77,1.51,1.51,0,0,1,1.58-1.53,1.6,1.6,0,0,1,1.56,1Z"/><path class="cls-2" d="M79.24,174.74l4.44-5.13c.31-.36,1.13-1.33,1.42-1.77a3.14,3.14,0,0,0,.68-1.86,2.31,2.31,0,0,0-2.43-2.38,2.36,2.36,0,0,0-2,1.08,2.76,2.76,0,0,0-.4,1.44H79.57a3.89,3.89,0,0,1,.91-2.52A3.83,3.83,0,0,1,87.13,166a4.31,4.31,0,0,1-1,2.62c-.51.71-1.17,1.46-1.66,2L82,173.5h5.15v1.24Z"/><path class="cls-2" d="M97.52,163.8H93.61l-.78,2.63a3.61,3.61,0,0,1,.77-.07,4,4,0,0,1,4,4.22A4.26,4.26,0,0,1,93.18,175a4.14,4.14,0,0,1-2.73-1,5.14,5.14,0,0,1-1-1.24l1.07-.77a2.72,2.72,0,0,0,.83,1,3,3,0,0,0,2,.73,3,3,0,0,0,3-3.12,2.89,2.89,0,0,0-3-3,4,4,0,0,0-2.36.84l1.77-5.88h4.84Z"/><path class="cls-2" d="M99.9,174.74l4.44-5.13c.31-.36,1.13-1.33,1.42-1.77a3.14,3.14,0,0,0,.68-1.86A2.31,2.31,0,0,0,104,163.6a2.36,2.36,0,0,0-2,1.08,2.67,2.67,0,0,0-.4,1.44h-1.35a3.84,3.84,0,0,1,.91-2.52,3.83,3.83,0,0,1,6.65,2.39,4.31,4.31,0,0,1-1,2.62c-.51.71-1.17,1.46-1.66,2l-2.54,2.87h5.15v1.24Z"/><path class="cls-2" d="M116.35,167.16h1.32V168a2.2,2.2,0,0,1,1.88-1,2.26,2.26,0,0,1,2.06,1.22,2.52,2.52,0,0,1,2.28-1.22c2.25,0,2.47,1.88,2.47,3v4.8h-1.31v-4.6c0-.86-.11-2-1.36-2-1.51,0-1.68,1.46-1.68,2.37v4.22H120.7v-4.49c0-.53,0-2.1-1.37-2.1s-1.66,1.55-1.66,2.47v4.12h-1.32Z"/><path class="cls-2" d="M129.28,174.74l4.44-5.13c.31-.36,1.13-1.33,1.42-1.77a3.14,3.14,0,0,0,.68-1.86,2.31,2.31,0,0,0-2.43-2.38,2.36,2.36,0,0,0-2,1.08,2.76,2.76,0,0,0-.4,1.44h-1.35a4,4,0,0,1,.91-2.52,3.64,3.64,0,0,1,2.89-1.24,3.59,3.59,0,0,1,3.76,3.63,4.25,4.25,0,0,1-1,2.62,26,26,0,0,1-1.66,2L132,173.5h5.15v1.24Z"/><path class="cls-2" d="M80.76,180.51H79.25l.29-.59H81.4v9.69h-.64Z"/><path class="cls-2" d="M84.93,187.26a2,2,0,0,0,.32,1,2.19,2.19,0,0,0,1.71.9,2.25,2.25,0,0,0,2.18-2.25,2.06,2.06,0,0,0-.91-1.77,2.4,2.4,0,0,0-1.24-.29v-.58a2,2,0,0,0,2-2,1.9,1.9,0,0,0-3.25-1.32,2.07,2.07,0,0,0-.5,1.29h-.61a2.64,2.64,0,0,1,.71-1.74,2.42,2.42,0,0,1,1.79-.7,2.37,2.37,0,0,1,2.53,2.43,2.44,2.44,0,0,1-1.53,2.34,2.38,2.38,0,0,1,1.66,2.37A2.8,2.8,0,0,1,87,189.77a2.72,2.72,0,0,1-2.32-1.26,2.34,2.34,0,0,1-.35-1.25Z"/><path class="cls-2" d="M97.34,179v10.59h-.58V179Z"/><path class="cls-2" d="M105.87,186.67a3.11,3.11,0,1,1-3.11-3.11A3.06,3.06,0,0,1,105.87,186.67Zm-.61,0a2.5,2.5,0,1,0-2.5,2.55A2.49,2.49,0,0,0,105.26,186.67Z"/><path class="cls-2" d="M108.8,184.24v5.37h-.58v-5.37h-.66v-.55h.66v-2.12h.58v2.12h1v.55Z"/><path class="cls-2" d="M111.82,186.72a2.38,2.38,0,0,0,2.35,2.5,2.26,2.26,0,0,0,2.07-1.35l.49.29a3.57,3.57,0,1,1,.16-1.44Zm4.46-.55a2.23,2.23,0,0,0-2.19-2.06,2.26,2.26,0,0,0-2.23,2.06Z"/><path class="cls-2" d="M121.73,184.78a1.1,1.1,0,0,0-1-.67,1,1,0,0,0-1,.94c0,.58.46.77,1,1a3.24,3.24,0,0,1,1.52.87,1.4,1.4,0,0,1,.31,1,1.8,1.8,0,0,1-1.93,1.88,2,2,0,0,1-2-1.56l.56-.18a1.51,1.51,0,0,0,1.49,1.19,1.27,1.27,0,0,0,1.32-1.3c0-.67-.42-.92-1.32-1.28a3,3,0,0,1-1.3-.79,1.24,1.24,0,0,1-.26-.77,1.5,1.5,0,0,1,1.58-1.52,1.6,1.6,0,0,1,1.56,1Z"/><path class="cls-2" d="M158,165.38a3.79,3.79,0,0,1,.57-1.79,3.47,3.47,0,0,1,6.26,1.86,2.9,2.9,0,0,1-1.57,2.71A2.9,2.9,0,0,1,165,171.1a3.77,3.77,0,0,1-7.15,1.57,3.67,3.67,0,0,1-.27-1.28h1.35a2.75,2.75,0,0,0,.44,1.22,2.25,2.25,0,0,0,1.88.92,2.42,2.42,0,0,0,2.39-2.47,2.17,2.17,0,0,0-1.2-2.05,3.14,3.14,0,0,0-1.39-.25v-1.21a2.66,2.66,0,0,0,1.39-.25,2,2,0,0,0,1-1.81,1.92,1.92,0,0,0-2.08-2.08,1.85,1.85,0,0,0-1.57.69,2.46,2.46,0,0,0-.48,1.28Z"/><path class="cls-2" d="M168.2,165.38a3.79,3.79,0,0,1,.57-1.79,3.47,3.47,0,0,1,6.26,1.86,2.92,2.92,0,0,1-1.57,2.71,2.9,2.9,0,0,1,1.76,2.94,3.77,3.77,0,0,1-7.15,1.57,3.67,3.67,0,0,1-.27-1.28h1.35a2.75,2.75,0,0,0,.44,1.22,2.24,2.24,0,0,0,1.88.92,2.42,2.42,0,0,0,2.39-2.47,2.17,2.17,0,0,0-1.2-2.05,3.14,3.14,0,0,0-1.39-.25v-1.21a2.66,2.66,0,0,0,1.39-.25,2,2,0,0,0,1-1.81,1.92,1.92,0,0,0-2.08-2.08,1.85,1.85,0,0,0-1.57.69,2.46,2.46,0,0,0-.48,1.28Z"/><path class="cls-2" d="M185.81,163.61H181.9l-.79,2.63a3.11,3.11,0,0,1,.77-.07,4,4,0,0,1,4,4.21,4.27,4.27,0,0,1-4.44,4.39,4.16,4.16,0,0,1-2.72-1,5.17,5.17,0,0,1-1.06-1.24l1.08-.77a2.85,2.85,0,0,0,.82,1,2.94,2.94,0,0,0,2,.74,3,3,0,0,0,3-3.13,2.89,2.89,0,0,0-3-3,3.93,3.93,0,0,0-2.35.84l1.77-5.88h4.84Z"/><path class="cls-2" d="M194.43,167h1.31v.8a2.2,2.2,0,0,1,1.88-1,2.28,2.28,0,0,1,2.07,1.22,2.52,2.52,0,0,1,2.28-1.22c2.25,0,2.47,1.88,2.47,3v4.8h-1.32V170c0-.86-.11-2-1.35-2-1.52,0-1.68,1.46-1.68,2.37v4.22h-1.32v-4.49c0-.53,0-2.1-1.37-2.1s-1.66,1.55-1.66,2.46v4.13h-1.31Z"/><path class="cls-2" d="M207.36,174.55l4.44-5.13c.31-.37,1.13-1.34,1.42-1.78a3.12,3.12,0,0,0,.68-1.86,2.31,2.31,0,0,0-2.43-2.37,2.34,2.34,0,0,0-2,1.08,2.67,2.67,0,0,0-.4,1.44h-1.35a3.87,3.87,0,0,1,.91-2.52,3.83,3.83,0,0,1,6.65,2.39,4.31,4.31,0,0,1-1,2.61c-.51.71-1.17,1.46-1.66,2l-2.54,2.87h5.15v1.24Z"/><path class="cls-2" d="M157.48,189.55l3.72-4.1a10.92,10.92,0,0,0,1.06-1.31,3,3,0,0,0,.57-1.65,2.15,2.15,0,0,0-2.25-2.18,2.13,2.13,0,0,0-1.67.71,2.37,2.37,0,0,0-.57,1.58h-.64a2.94,2.94,0,0,1,.77-2,2.87,2.87,0,0,1,2.15-.84,2.75,2.75,0,0,1,2.88,2.76,3.29,3.29,0,0,1-.7,2,13.13,13.13,0,0,1-.86,1l-3.1,3.45h4.61v.58Z"/><path class="cls-2" d="M171.43,180.9a6.52,6.52,0,0,1,0,7.62,2.79,2.79,0,0,1-4.57,0,6.52,6.52,0,0,1,0-7.62,2.82,2.82,0,0,1,4.57,0Zm-.48,7.24a6.18,6.18,0,0,0,0-6.86,2.16,2.16,0,0,0-3.61,0,6.18,6.18,0,0,0,0,6.86,2.14,2.14,0,0,0,3.61,0Z"/><path class="cls-2" d="M179.32,179v10.59h-.58V179Z"/><path class="cls-2" d="M187.85,186.6a3.11,3.11,0,1,1-3.11-3.11A3.06,3.06,0,0,1,187.85,186.6Zm-.61,0a2.5,2.5,0,1,0-2.5,2.56A2.49,2.49,0,0,0,187.24,186.6Z"/><path class="cls-2" d="M190.78,184.17v5.38h-.58v-5.38h-.66v-.55h.66V181.5h.58v2.12h1v.55Z"/><path class="cls-2" d="M193.8,186.66a2.38,2.38,0,0,0,2.35,2.5,2.27,2.27,0,0,0,2.07-1.36l.49.29a3.58,3.58,0,1,1,.16-1.43Zm4.46-.55a2.23,2.23,0,0,0-2.19-2.07,2.27,2.27,0,0,0-2.23,2.07Z"/><path class="cls-2" d="M203.7,184.71a1.09,1.09,0,0,0-1-.67,1,1,0,0,0-1,1c0,.58.46.77,1.05,1a3.24,3.24,0,0,1,1.52.87,1.43,1.43,0,0,1,.31,1,1.82,1.82,0,0,1-1.94,1.89,2,2,0,0,1-2-1.57l.56-.18a1.52,1.52,0,0,0,1.48,1.2,1.28,1.28,0,0,0,1.33-1.31c0-.67-.42-.92-1.33-1.28a3.06,3.06,0,0,1-1.29-.78,1.28,1.28,0,0,1-.26-.77,1.51,1.51,0,0,1,1.58-1.53,1.6,1.6,0,0,1,1.56,1Z"/><line class="cls-4" y1="157.4" x2="215.75" y2="157.4"/><path class="cls-2" d="M17.56,266.15h1.5v1.24h-1.5v2.3H16.21v-2.3H10l7.6-10.55Zm-1.35,0v-5.39l-3.85,5.39Z"/><path class="cls-2" d="M22.79,268.09a8.76,8.76,0,0,1,0-8.95,3.84,3.84,0,0,1,3.12-1.83A3.84,3.84,0,0,1,29,259.14a8.76,8.76,0,0,1,0,8.95,3.83,3.83,0,0,1-3.12,1.82A3.83,3.83,0,0,1,22.79,268.09Zm1-8.19a8.1,8.1,0,0,0,0,7.42,2.55,2.55,0,0,0,2.1,1.35,2.55,2.55,0,0,0,2.1-1.35,8.18,8.18,0,0,0,0-7.42,2.55,2.55,0,0,0-2.1-1.35A2.55,2.55,0,0,0,23.81,259.9Z"/><path class="cls-2" d="M40.76,266.33A3.45,3.45,0,0,1,37,269.91a3.46,3.46,0,0,1-3.73-3.58,3.07,3.07,0,0,1,1.85-3,3,3,0,0,1-1.48-2.67,3.36,3.36,0,1,1,6.72,0,3,3,0,0,1-1.48,2.67A3.07,3.07,0,0,1,40.76,266.33Zm-1.36,0A2.37,2.37,0,1,0,37,268.67,2.24,2.24,0,0,0,39.4,266.3Zm-.29-5.59a2.08,2.08,0,1,0-4.16,0,2.08,2.08,0,1,0,4.16,0Z"/><path class="cls-2" d="M49.21,262.11h1.32v.81a2.2,2.2,0,0,1,1.88-1,2.25,2.25,0,0,1,2.06,1.23,2.52,2.52,0,0,1,2.28-1.23c2.25,0,2.47,1.88,2.47,3v4.8H57.91v-4.6c0-.86-.11-2-1.36-2-1.51,0-1.68,1.46-1.68,2.38v4.21H53.56V265.2c0-.53,0-2.1-1.37-2.1s-1.66,1.55-1.66,2.47v4.12H49.21Z"/><path class="cls-2" d="M62.14,269.69l4.44-5.13c.31-.36,1.13-1.33,1.43-1.77a3.19,3.19,0,0,0,.67-1.86,2.31,2.31,0,0,0-2.43-2.38,2.36,2.36,0,0,0-2,1.08,2.79,2.79,0,0,0-.4,1.44H62.47a4,4,0,0,1,.91-2.52A3.83,3.83,0,0,1,70,261a4.24,4.24,0,0,1-1,2.61c-.51.71-1.17,1.46-1.66,2l-2.54,2.87H70v1.24Z"/><path class="cls-2" d="M15.56,282a2.68,2.68,0,0,1-2.81,2.73A2.68,2.68,0,0,1,10,282a2.56,2.56,0,0,1,1.58-2.46,2.45,2.45,0,0,1-1.35-2.23,2.57,2.57,0,0,1,5.14,0A2.43,2.43,0,0,1,14,279.5,2.57,2.57,0,0,1,15.56,282Zm-.67,0a2.07,2.07,0,0,0-2.14-2.18,2.17,2.17,0,0,0,0,4.33A2.07,2.07,0,0,0,14.89,282Zm-.23-4.69a1.91,1.91,0,1,0-1.91,2A1.91,1.91,0,0,0,14.66,277.27Z"/><path class="cls-2" d="M22.93,273.94v10.59h-.58V273.94Z"/><path class="cls-2" d="M31.46,281.58a3.11,3.11,0,1,1-3.11-3.11A3.06,3.06,0,0,1,31.46,281.58Zm-.61,0a2.5,2.5,0,1,0-2.5,2.56A2.49,2.49,0,0,0,30.85,281.58Z"/><path class="cls-2" d="M34.39,279.16v5.37h-.58v-5.37h-.66v-.56h.66v-2.12h.58v2.12h1v.56Z"/><path class="cls-2" d="M37.41,281.64a2.38,2.38,0,0,0,2.35,2.5,2.25,2.25,0,0,0,2.06-1.35l.5.29a3.58,3.58,0,1,1,.16-1.44Zm4.46-.55a2.24,2.24,0,0,0-2.2-2.07,2.27,2.27,0,0,0-2.22,2.07Z"/><path class="cls-2" d="M47.31,279.69a1.09,1.09,0,0,0-1-.67,1,1,0,0,0-1,1c0,.58.46.77,1,1a3.23,3.23,0,0,1,1.53.87,1.42,1.42,0,0,1,.3,1,1.81,1.81,0,0,1-1.93,1.89,2,2,0,0,1-2-1.57l.57-.17a1.51,1.51,0,0,0,1.48,1.19,1.27,1.27,0,0,0,1.32-1.31c0-.67-.42-.91-1.32-1.28a2.87,2.87,0,0,1-1.29-.78,1.26,1.26,0,0,1-.26-.77,1.51,1.51,0,0,1,1.58-1.53,1.6,1.6,0,0,1,1.56,1Z"/><path class="cls-2" d="M87,266.11h1.49v1.24H87v2.31H85.6v-2.31H79.35L87,256.8Zm-1.35,0v-5.39l-3.86,5.39Z"/><path class="cls-2" d="M90.11,269.66l4.44-5.14c.31-.36,1.13-1.33,1.42-1.77a3.1,3.1,0,0,0,.67-1.86,2.31,2.31,0,0,0-2.42-2.38,2.35,2.35,0,0,0-2,1.08,2.71,2.71,0,0,0-.4,1.45H90.44a3.85,3.85,0,0,1,.91-2.53,3.83,3.83,0,0,1,6.65,2.4,4.31,4.31,0,0,1-1,2.61c-.51.71-1.17,1.46-1.66,2l-2.54,2.86H98v1.25Z"/><path class="cls-2" d="M101.92,268.05a8.82,8.82,0,0,1,0-8.95,3.58,3.58,0,0,1,6.25,0,8.82,8.82,0,0,1,0,8.95,3.58,3.58,0,0,1-6.25,0Zm1-8.18a8.08,8.08,0,0,0,0,7.41,2.31,2.31,0,0,0,4.2,0,8.16,8.16,0,0,0,0-7.41,2.3,2.3,0,0,0-4.2,0Z"/><path class="cls-2" d="M117.23,262.08h1.31v.8a2.21,2.21,0,0,1,1.88-1,2.28,2.28,0,0,1,2.07,1.23,2.54,2.54,0,0,1,2.28-1.23c2.25,0,2.47,1.89,2.47,3v4.81h-1.32v-4.61c0-.85-.11-2-1.35-2-1.52,0-1.68,1.46-1.68,2.38v4.22h-1.32v-4.5c0-.53,0-2.1-1.37-2.1s-1.66,1.56-1.66,2.47v4.13h-1.31Z"/><path class="cls-2" d="M130.16,269.66l4.44-5.14c.31-.36,1.13-1.33,1.42-1.77a3.12,3.12,0,0,0,.68-1.86,2.31,2.31,0,0,0-2.43-2.38,2.36,2.36,0,0,0-2,1.08,2.71,2.71,0,0,0-.4,1.45h-1.35a3.85,3.85,0,0,1,.91-2.53,3.83,3.83,0,0,1,6.65,2.4,4.31,4.31,0,0,1-1,2.61c-.51.71-1.17,1.46-1.66,2l-2.54,2.86H138v1.25Z"/><path class="cls-2" d="M80.77,275.41H79.26l.29-.58h1.86v9.69h-.64Z"/><path class="cls-2" d="M90.15,275.41H84.27v-.58h7l-6.93,9.85-.48-.36Z"/><path class="cls-2" d="M97.72,273.93v10.59h-.58V273.93Z"/><path class="cls-2" d="M106.24,281.57a3.11,3.11,0,1,1-3.11-3.11A3.06,3.06,0,0,1,106.24,281.57Zm-.61,0a2.5,2.5,0,1,0-2.5,2.56A2.48,2.48,0,0,0,105.63,281.57Z"/><path class="cls-2" d="M109.17,279.14v5.38h-.58v-5.38h-.65v-.55h.65v-2.12h.58v2.12h1v.55Z"/><path class="cls-2" d="M112.19,281.63a2.39,2.39,0,0,0,2.36,2.5,2.27,2.27,0,0,0,2.06-1.35l.49.29a2.92,2.92,0,0,1-5.52-1.49,2.85,2.85,0,1,1,5.68.05Zm4.46-.55a2.22,2.22,0,0,0-2.19-2.07,2.26,2.26,0,0,0-2.22,2.07Z"/><path class="cls-2" d="M122.1,279.68a1.1,1.1,0,0,0-1-.67,1,1,0,0,0-1,.95c0,.58.47.77,1,1a3.19,3.19,0,0,1,1.52.87,1.43,1.43,0,0,1,.31,1,1.81,1.81,0,0,1-1.93,1.89,2,2,0,0,1-2.05-1.57l.57-.17a1.51,1.51,0,0,0,1.48,1.19,1.27,1.27,0,0,0,1.32-1.31c0-.67-.42-.91-1.32-1.28a3,3,0,0,1-1.3-.78,1.26,1.26,0,0,1-.26-.77,1.51,1.51,0,0,1,1.59-1.53,1.6,1.6,0,0,1,1.55,1Z"/><line class="cls-4" x1="2.58" y1="252.19" x2="140.34" y2="252.19"/><path class="cls-3" d="M505.41,17.58C506.53,6.32,515,0,525.59,0,537.5,0,545,6.7,545,17.11c0,3.26-.65,9.4-7.16,13,2.51,1,9.48,4.56,9.48,14.79,0,12.74-9.85,19.9-22.13,19.9-11.9,0-21.3-7.34-22.32-19.25H515c.74,5.12,4.37,8.84,10.32,8.84,7,0,10-5.12,10-9.86,0-4.56-2.78-9.67-10.32-9.67h-1.58V26.13H525c6,0,8.47-4.18,8.47-8.46,0-4.93-3.26-8.18-8.19-8.18a8.23,8.23,0,0,0-8.55,8.09Z"/><path class="cls-2" d="M395.18,47.89a10.52,10.52,0,0,0-2.82-2,9.24,9.24,0,0,0-3.74-.84,8.94,8.94,0,0,0,0,17.87,9.06,9.06,0,0,0,4-1,9.8,9.8,0,0,0,2.5-1.82v3a11.27,11.27,0,0,1-6.53,2.11,11.21,11.21,0,1,1,.13-22.42,10.24,10.24,0,0,1,6.4,2.15Z"/><path class="cls-2" d="M399.5,58.09a7.15,7.15,0,1,1,7.14,7.08A6.92,6.92,0,0,1,399.5,58.09Zm2.4,0a4.75,4.75,0,1,0,9.49,0,4.75,4.75,0,1,0-9.49,0Z"/><path class="cls-2" d="M418.69,51.3H421v1.56A4.74,4.74,0,0,1,424.9,51a4.57,4.57,0,0,1,3.86,1.85,6,6,0,0,1,.78,3.61v8.35H427.2V56.5a4,4,0,0,0-.61-2.47,2.64,2.64,0,0,0-2.21-1,3,3,0,0,0-2.37,1,5.68,5.68,0,0,0-1,3.64v7.05h-2.34Z"/><path class="cls-2" d="M445.62,41.1H448V64.78h-2.34V62.9A5.7,5.7,0,0,1,441,65.17c-3.41,0-6.57-2.4-6.57-7.15S437.56,51,441,51a5.58,5.58,0,0,1,4.61,2.24ZM436.85,58c0,2.89,1.62,5.07,4.42,5.07s4.48-2.37,4.48-5c0-3.47-2.4-5-4.48-5C439,53.05,436.85,54.74,436.85,58Z"/><path class="cls-2" d="M452.86,58.09A7.15,7.15,0,1,1,460,65.17,6.92,6.92,0,0,1,452.86,58.09Zm2.4,0a4.75,4.75,0,1,0,9.49,0,4.75,4.75,0,1,0-9.49,0Z"/><path class="cls-2" d="M472.06,51.3h2.33v1.43A3.92,3.92,0,0,1,477.74,51a4,4,0,0,1,3.67,2.18A4.5,4.5,0,0,1,485.47,51c4,0,4.39,3.35,4.39,5.27v8.54h-2.34V56.59c0-1.52-.2-3.54-2.41-3.54-2.69,0-3,2.6-3,4.23v7.5h-2.34v-8c0-.94,0-3.74-2.44-3.74-2.66,0-3,2.76-3,4.39v7.34h-2.33Z"/><path class="cls-2" d="M496.8,44.54a1.66,1.66,0,1,1,0,3.31,1.66,1.66,0,0,1,0-3.31ZM498,51.3V64.78h-2.34V51.3Z"/><path class="cls-2" d="M503.72,51.3h2.34v1.56A4.73,4.73,0,0,1,509.93,51a4.57,4.57,0,0,1,3.86,1.85,6.05,6.05,0,0,1,.78,3.61v8.35h-2.34V56.5a4,4,0,0,0-.61-2.47,2.64,2.64,0,0,0-2.21-1,3,3,0,0,0-2.38,1,5.73,5.73,0,0,0-1,3.64v7.05h-2.34Z"/><path class="cls-2" d="M521.49,44.54a1.66,1.66,0,1,1-1.66,1.66A1.66,1.66,0,0,1,521.49,44.54Zm1.17,6.76V64.78h-2.34V51.3Z"/><path class="cls-2" d="M527.56,58.09a7.15,7.15,0,1,1,7.15,7.08A6.92,6.92,0,0,1,527.56,58.09Zm2.4,0a4.75,4.75,0,1,0,9.49,0,4.75,4.75,0,1,0-9.49,0Z"/><path class="cls-2" d="M552.31,54.42a2.08,2.08,0,0,0-1.88-1.37,1.49,1.49,0,0,0-1.63,1.53c0,1,.65,1.27,2.18,1.92a8.19,8.19,0,0,1,3.38,2.07,3.22,3.22,0,0,1,.71,2.18c0,2.83-2.05,4.42-4.64,4.42a4.82,4.82,0,0,1-4.71-3.44l2-.85a3,3,0,0,0,2.73,2.21A2.1,2.1,0,0,0,552.67,61c0-1.27-.91-1.69-2.18-2.25a8.75,8.75,0,0,1-3.28-2,2.93,2.93,0,0,1-.62-2A3.63,3.63,0,0,1,550.52,51a3.9,3.9,0,0,1,3.71,2.44Z"/><path class="cls-3" d="M18.1,18.4H11.93V11.19H26.47V54.11H18.1Z"/><path class="cls-2" d="M11.47,41.58H14A6.72,6.72,0,0,1,18.53,43a6,6,0,0,1,2.11,4.74,5.9,5.9,0,0,1-2.16,4.73A6.19,6.19,0,0,1,14,53.91H11.47Zm1.37,11H14a5.26,5.26,0,0,0,3.53-1.11,4.71,4.71,0,0,0,1.67-3.75c0-3-2.08-4.89-5.2-4.89h-1.2Z"/><path class="cls-2" d="M30.38,52a4.42,4.42,0,0,1-.94,1.24,3.72,3.72,0,0,1-2.55,1,3.68,3.68,0,0,1-3.79-4c0-2.29,1.4-4.07,3.71-4.07a3.43,3.43,0,0,1,2.91,1.41,5.12,5.12,0,0,1,.72,2.88h-6A2.44,2.44,0,0,0,26.91,53a2.33,2.33,0,0,0,1.57-.55,3,3,0,0,0,.79-1.06Zm-1.31-2.71a2.29,2.29,0,0,0-2.26-2,2.33,2.33,0,0,0-2.25,2Z"/><path class="cls-2" d="M36.39,48a1.17,1.17,0,0,0-1.07-.77.85.85,0,0,0-.93.87c0,.55.37.72,1.24,1.09a4.71,4.71,0,0,1,1.93,1.18,1.84,1.84,0,0,1,.4,1.24,2.44,2.44,0,0,1-2.64,2.52,2.74,2.74,0,0,1-2.68-2l1.14-.49A1.75,1.75,0,0,0,35.34,53a1.19,1.19,0,0,0,1.25-1.22c0-.72-.51-1-1.24-1.27a5.1,5.1,0,0,1-1.86-1.13,1.65,1.65,0,0,1-.35-1.13,2.06,2.06,0,0,1,2.23-2.15,2.22,2.22,0,0,1,2.11,1.39Z"/><path class="cls-2" d="M41.16,42.39a.95.95,0,1,1-.94,1A.95.95,0,0,1,41.16,42.39Zm.67,3.85v7.67H40.49V46.24Z"/><path class="cls-2" d="M51.9,52A4.42,4.42,0,0,1,51,53.19a3.72,3.72,0,0,1-2.55,1,3.68,3.68,0,0,1-3.79-4c0-2.29,1.4-4.07,3.71-4.07a3.45,3.45,0,0,1,2.91,1.41A5.12,5.12,0,0,1,52,50.34H46A2.46,2.46,0,0,0,48.43,53,2.33,2.33,0,0,0,50,52.4a3,3,0,0,0,.79-1.06Zm-1.31-2.71a2.29,2.29,0,0,0-2.26-2,2.33,2.33,0,0,0-2.25,2Z"/><path class="cls-2" d="M54.75,46.24h1.33v.83a2.14,2.14,0,0,1,1.74-1,2.73,2.73,0,0,1,1.18.32l-.63,1.2a1.38,1.38,0,0,0-.77-.26,1.31,1.31,0,0,0-1.08.48,3.36,3.36,0,0,0-.44,2.07v4H54.75Z"/><path class="cls-2" d="M62.72,47.46v6.45H61.39V47.46h-.82V46.24h.82V43.46h1.33v2.78h1.33v1.22Z"/><path class="cls-2" d="M65.58,50.1a4.07,4.07,0,1,1,4.07,4A3.94,3.94,0,0,1,65.58,50.1Zm1.37,0a2.7,2.7,0,1,0,2.7-2.86A2.66,2.66,0,0,0,67,50.1Z"/><path class="cls-3" d="M7.41,211.78c.77-7.79,6.63-12.17,14-12.17,8.24,0,13.45,4.64,13.45,11.84a9.69,9.69,0,0,1-4.95,9c1.73.71,6.56,3.16,6.56,10.23,0,8.82-6.82,13.77-15.32,13.77-8.23,0-14.73-5.08-15.44-13.32H14a6.79,6.79,0,0,0,7.14,6.12,6.51,6.51,0,0,0,6.88-6.82c0-3.16-1.93-6.7-7.14-6.7H19.83v-6H21c4.11,0,5.85-2.9,5.85-5.86a5.33,5.33,0,0,0-5.66-5.66,5.69,5.69,0,0,0-5.92,5.6Z"/><path class="cls-2" d="M10.08,231.85h2.51a6.72,6.72,0,0,1,4.55,1.44A6,6,0,0,1,19.25,238a5.86,5.86,0,0,1-2.16,4.73,6.19,6.19,0,0,1-4.52,1.43H10.08Zm1.37,11h1.2a5.26,5.26,0,0,0,3.53-1.11A4.68,4.68,0,0,0,17.85,238c0-3-2.08-4.88-5.2-4.88h-1.2Z"/><path class="cls-2" d="M29,242.23a4.53,4.53,0,0,1-.94,1.23,3.72,3.72,0,0,1-2.55.95,3.67,3.67,0,0,1-3.79-4c0-2.3,1.4-4.07,3.71-4.07a3.45,3.45,0,0,1,2.91,1.4,5.16,5.16,0,0,1,.72,2.89h-6a2.45,2.45,0,0,0,2.44,2.6,2.33,2.33,0,0,0,1.57-.55,3,3,0,0,0,.79-1Zm-1.31-2.72a2.3,2.3,0,0,0-2.26-2,2.33,2.33,0,0,0-2.25,2Z"/><path class="cls-2" d="M35,238.29a1.16,1.16,0,0,0-1.07-.78.85.85,0,0,0-.93.87c0,.55.37.72,1.24,1.09a4.71,4.71,0,0,1,1.93,1.18,1.84,1.84,0,0,1,.4,1.24,2.44,2.44,0,0,1-2.64,2.52,2.74,2.74,0,0,1-2.68-2l1.14-.48A1.75,1.75,0,0,0,34,243.22,1.19,1.19,0,0,0,35.21,242c0-.72-.52-1-1.24-1.27a4.94,4.94,0,0,1-1.87-1.13,1.65,1.65,0,0,1-.35-1.13A2.06,2.06,0,0,1,34,236.33a2.21,2.21,0,0,1,2.11,1.38Z"/><path class="cls-2" d="M39.77,232.67a.94.94,0,1,1-.94.94A.94.94,0,0,1,39.77,232.67Zm.67,3.84v7.68H39.1v-7.68Z"/><path class="cls-2" d="M50.51,242.23a4.53,4.53,0,0,1-.94,1.23,3.72,3.72,0,0,1-2.55.95,3.67,3.67,0,0,1-3.79-4c0-2.3,1.4-4.07,3.71-4.07a3.45,3.45,0,0,1,2.91,1.4,5.16,5.16,0,0,1,.72,2.89h-6a2.45,2.45,0,0,0,2.44,2.6,2.33,2.33,0,0,0,1.57-.55,3,3,0,0,0,.79-1Zm-1.31-2.72a2.3,2.3,0,0,0-2.26-2,2.33,2.33,0,0,0-2.25,2Z"/><path class="cls-2" d="M53.36,236.51h1.33v.83a2.14,2.14,0,0,1,1.74-1,2.72,2.72,0,0,1,1.18.31l-.63,1.2a1.38,1.38,0,0,0-.77-.26,1.31,1.31,0,0,0-1.08.49,3.31,3.31,0,0,0-.44,2.07v4.05H53.36Z"/><path class="cls-2" d="M61.33,237.73v6.46H60v-6.46h-.82v-1.22H60v-2.77h1.33v2.77h1.33v1.22Z"/><path class="cls-2" d="M64.19,240.38a4.07,4.07,0,1,1,4.07,4A3.94,3.94,0,0,1,64.19,240.38Zm1.37,0a2.71,2.71,0,1,0,2.7-2.87A2.66,2.66,0,0,0,65.56,240.38Z"/><path class="cls-3" d="M17.74,132.09c.77-.9,5.79-6.63,7.33-9a13.41,13.41,0,0,0,2.51-6.88,6.22,6.22,0,0,0-6.37-6.5c-4.37,0-6.69,3.47-6.82,7.14H5.77c.39-8.75,6.56-14.35,15.06-14.35,10,0,15.12,6.82,15.12,13.64,0,6.63-4.44,11.39-7.79,15l-7.4,8H36.27v7.21H5.13Z"/><path class="cls-2" d="M10,134h2.52a6.73,6.73,0,0,1,4.55,1.44,6.06,6.06,0,0,1,2.1,4.74A5.86,5.86,0,0,1,17,144.94a6.14,6.14,0,0,1-4.51,1.43H10Zm1.37,11h1.2A5.26,5.26,0,0,0,16.12,144a4.68,4.68,0,0,0,1.67-3.75c0-3-2.07-4.88-5.2-4.88h-1.2Z"/><path class="cls-2" d="M28.94,144.41a5,5,0,0,1-1,1.24,3.75,3.75,0,0,1-2.55.94,3.67,3.67,0,0,1-3.79-4c0-2.3,1.41-4.07,3.72-4.07a3.43,3.43,0,0,1,2.9,1.4A5.16,5.16,0,0,1,29,142.8H23a2.46,2.46,0,0,0,2.44,2.61,2.32,2.32,0,0,0,1.57-.56,3.16,3.16,0,0,0,.8-1Zm-1.32-2.72a2.29,2.29,0,0,0-2.25-2,2.33,2.33,0,0,0-2.26,2Z"/><path class="cls-2" d="M34.94,140.47a1.16,1.16,0,0,0-1.07-.78.85.85,0,0,0-.92.87c0,.55.37.72,1.24,1.09a4.65,4.65,0,0,1,1.92,1.18,1.85,1.85,0,0,1,.41,1.24,2.45,2.45,0,0,1-2.65,2.52,2.75,2.75,0,0,1-2.68-2l1.15-.48a1.73,1.73,0,0,0,1.55,1.26,1.2,1.2,0,0,0,1.26-1.23c0-.72-.52-1-1.24-1.27A4.94,4.94,0,0,1,32,141.78a1.65,1.65,0,0,1-.35-1.13,2.06,2.06,0,0,1,2.24-2.14A2.22,2.22,0,0,1,36,139.89Z"/><path class="cls-2" d="M39.71,134.84a.95.95,0,1,1,0,1.89.95.95,0,0,1,0-1.89Zm.67,3.85v7.68H39.05v-7.68Z"/><path class="cls-2" d="M50.46,144.41a5,5,0,0,1-1,1.24,3.75,3.75,0,0,1-2.55.94,3.67,3.67,0,0,1-3.79-4c0-2.3,1.41-4.07,3.72-4.07a3.43,3.43,0,0,1,2.9,1.4,5.16,5.16,0,0,1,.72,2.89h-6A2.46,2.46,0,0,0,47,145.41a2.32,2.32,0,0,0,1.57-.56,3.16,3.16,0,0,0,.8-1Zm-1.32-2.72a2.29,2.29,0,0,0-2.25-2,2.33,2.33,0,0,0-2.26,2Z"/><path class="cls-2" d="M53.3,138.69h1.33v.83a2.15,2.15,0,0,1,1.74-1,3,3,0,0,1,1.19.31l-.63,1.2a1.43,1.43,0,0,0-.78-.26,1.27,1.27,0,0,0-1.07.49,3.22,3.22,0,0,0-.45,2.07v4.05H53.3Z"/><path class="cls-2" d="M61.27,139.91v6.46H59.94v-6.46h-.82v-1.22h.82v-2.77h1.33v2.77H62.6v1.22Z"/><path class="cls-2" d="M64.13,142.56a4.07,4.07,0,1,1,4.07,4A3.94,3.94,0,0,1,64.13,142.56Zm1.37,0a2.71,2.71,0,1,0,2.7-2.87A2.66,2.66,0,0,0,65.5,142.56Z"/></g></g></svg>