<svg xmlns="http://www.w3.org/2000/svg" viewBox="0 0 499.96 319.34"><defs><style>.cls-1,.cls-4{fill:none;stroke:#c85f71;stroke-miterlimit:10;}.cls-1{stroke-width:0.61px;}.cls-2{fill:#f6f4ef;}.cls-3{fill:#4d78a7;}.cls-4{stroke-width:0.5px;}</style></defs><title>inf-desierto</title><g id="Capa_2" data-name="Capa 2"><g id="Capa_1-2" data-name="Capa 1"><line class="cls-1" x1="386.53" y1="235.67" x2="499.96" y2="235.67"/><path class="cls-2" d="M401.24,225.17h-6.67l-1.88,4.42h-1.93L398,213.16l7,16.43h-1.93Zm-.68-1.64-2.63-6.28-2.68,6.28Z"/><path class="cls-2" d="M406.15,219.84h1.7v1a2.82,2.82,0,0,1,2.42-1.27,2.92,2.92,0,0,1,2.65,1.58,3.27,3.27,0,0,1,2.94-1.58c2.89,0,3.17,2.42,3.17,3.81v6.18h-1.69v-5.92c0-1.11-.14-2.56-1.74-2.56-2,0-2.16,1.88-2.16,3v5.43h-1.69v-5.78c0-.68,0-2.7-1.76-2.7-1.93,0-2.14,2-2.14,3.17v5.31h-1.7Z"/><path class="cls-2" d="M430.27,227.1a5.76,5.76,0,0,1-1.2,1.57,4.73,4.73,0,0,1-3.24,1.2c-2.35,0-4.82-1.48-4.82-5.1,0-2.91,1.79-5.17,4.72-5.17a4.34,4.34,0,0,1,3.69,1.79,6.52,6.52,0,0,1,.92,3.66h-7.59a3.12,3.12,0,0,0,3.1,3.32,3,3,0,0,0,2-.71,3.89,3.89,0,0,0,1-1.34Zm-1.67-3.46a2.91,2.91,0,0,0-2.87-2.53,3,3,0,0,0-2.86,2.53Z"/><path class="cls-2" d="M432.29,219.84H434V221a3.46,3.46,0,0,1,2.8-1.37,3.32,3.32,0,0,1,2.8,1.34,4.38,4.38,0,0,1,.56,2.61v6h-1.69v-6a2.88,2.88,0,0,0-.45-1.79,1.91,1.91,0,0,0-1.6-.7,2.12,2.12,0,0,0-1.71.75,4.1,4.1,0,0,0-.71,2.63v5.1h-1.69Z"/><path class="cls-2" d="M443.55,215a1.2,1.2,0,1,1-1.2,1.2A1.2,1.2,0,0,1,443.55,215Zm.85,4.89v9.75h-1.7v-9.75Z"/><path class="cls-2" d="M454.43,212.46h1.69v17.13h-1.69v-1.36a4.09,4.09,0,0,1-3.33,1.64c-2.47,0-4.75-1.74-4.75-5.17s2.25-5.1,4.75-5.1a4,4,0,0,1,3.33,1.62Zm-6.34,12.24c0,2.09,1.17,3.67,3.19,3.67s3.25-1.72,3.25-3.64a3.3,3.3,0,0,0-3.25-3.62C449.61,221.11,448.09,222.33,448.09,224.7Z"/><path class="cls-2" d="M466.16,219.84h1.69v9.75h-1.69v-1.36a4.1,4.1,0,0,1-3.34,1.64c-2.46,0-4.74-1.74-4.74-5.17s2.25-5.1,4.74-5.1a4.07,4.07,0,0,1,3.34,1.62Zm-6.34,4.86c0,2.09,1.17,3.67,3.19,3.67s3.24-1.72,3.24-3.64a3.3,3.3,0,0,0-3.24-3.62C461.34,221.11,459.82,222.33,459.82,224.7Z"/><path class="cls-2" d="M477.89,212.46h1.69v17.13h-1.69v-1.36a4.1,4.1,0,0,1-3.34,1.64c-2.46,0-4.74-1.74-4.74-5.17s2.25-5.1,4.74-5.1a4.07,4.07,0,0,1,3.34,1.62Zm-6.35,12.24c0,2.09,1.18,3.67,3.2,3.67s3.24-1.72,3.24-3.64a3.3,3.3,0,0,0-3.24-3.62C473.07,221.11,471.54,222.33,471.54,224.7Z"/><path class="cls-2" d="M490.79,227.1a5.57,5.57,0,0,1-1.2,1.57,4.71,4.71,0,0,1-3.24,1.2c-2.35,0-4.82-1.48-4.82-5.1,0-2.91,1.79-5.17,4.73-5.17a4.36,4.36,0,0,1,3.69,1.79,6.52,6.52,0,0,1,.91,3.66h-7.59a3.13,3.13,0,0,0,3.11,3.32,3,3,0,0,0,2-.71,3.77,3.77,0,0,0,1-1.34Zm-1.67-3.46a2.91,2.91,0,0,0-2.86-2.53,3,3,0,0,0-2.87,2.53Z"/><path class="cls-2" d="M496.83,222.09a1.48,1.48,0,0,0-1.36-1,1.07,1.07,0,0,0-1.17,1.1c0,.71.47.92,1.57,1.39a6,6,0,0,1,2.45,1.5,2.33,2.33,0,0,1,.51,1.58,3.1,3.1,0,0,1-3.36,3.19,3.48,3.48,0,0,1-3.41-2.49l1.46-.61a2.21,2.21,0,0,0,2,1.6,1.51,1.51,0,0,0,1.59-1.55c0-.92-.65-1.23-1.57-1.62a6.29,6.29,0,0,1-2.37-1.44,2.1,2.1,0,0,1-.45-1.43,2.62,2.62,0,0,1,2.84-2.73,2.82,2.82,0,0,1,2.68,1.77Z"/><path class="cls-2" d="M449.49,250.44v5.71h-.79v-12H451c2,0,3.51,1.08,3.51,3.13s-1.43,3.17-3.5,3.17Zm0-.72h1.59a2.37,2.37,0,0,0,2.63-2.43c0-1.5-1-2.43-2.76-2.43h-1.46Z"/><path class="cls-2" d="M461.81,248.8h.72v7.35h-.72v-1.32a3.35,3.35,0,0,1-2.87,1.51,3.6,3.6,0,0,1-3.58-3.87,3.52,3.52,0,0,1,3.58-3.83,3.35,3.35,0,0,1,2.87,1.44Zm-5.69,3.62a3,3,0,0,0,2.88,3.24c1.84,0,2.84-1.55,2.84-3.24a2.87,2.87,0,1,0-5.72,0Z"/><path class="cls-2" d="M466.58,243v13.13h-.72V243Z"/><path class="cls-2" d="M475.88,248.8h.72v7.35h-.72v-1.32a3.32,3.32,0,0,1-2.86,1.51,3.6,3.6,0,0,1-3.58-3.87,3.52,3.52,0,0,1,3.58-3.83,3.35,3.35,0,0,1,2.86,1.44Zm-5.69,3.62a3,3,0,0,0,2.89,3.24,3,3,0,0,0,2.84-3.24,2.87,2.87,0,1,0-5.73,0Z"/><path class="cls-2" d="M480.65,260.29h-.72V248.8h.72v1.28a3.45,3.45,0,0,1,2.88-1.44,3.51,3.51,0,0,1,3.57,3.78,3.62,3.62,0,0,1-3.6,3.92,3.21,3.21,0,0,1-2.85-1.51Zm5.69-7.87a2.87,2.87,0,1,0-5.72,0c0,1.84,1,3.28,2.86,3.28S486.34,254.22,486.34,252.42Z"/><path class="cls-2" d="M495.94,248.8h.72v7.35h-.72v-1.32a3.35,3.35,0,0,1-2.87,1.51,3.6,3.6,0,0,1-3.58-3.87,3.52,3.52,0,0,1,3.58-3.83,3.37,3.37,0,0,1,2.87,1.44Zm-5.69,3.62a2.88,2.88,0,1,0,5.72,0,2.87,2.87,0,1,0-5.72,0Z"/><path class="cls-2" d="M447.59,273.2h-5.11l-1.61,3.95H440l5.06-12.37,5,12.37h-.87Zm-.29-.72-2.25-5.69-2.29,5.69Z"/><path class="cls-2" d="M453.06,264v13.13h-.72V264Z"/><path class="cls-2" d="M457.11,264v7.06a3.43,3.43,0,0,1,2.88-1.44,3.51,3.51,0,0,1,3.57,3.78,3.63,3.63,0,0,1-3.61,3.92,3.19,3.19,0,0,1-2.84-1.51v1.32h-.72V264Zm5.69,9.4a2.87,2.87,0,1,0-5.73,0c0,1.84,1,3.28,2.87,3.28S462.8,275.22,462.8,273.42Z"/><path class="cls-2" d="M466.7,273.56a3,3,0,0,0,2.92,3.1,2.81,2.81,0,0,0,2.56-1.67l.61.35a3.71,3.71,0,1,1-3.28-5.7c2,0,3.48,1.58,3.48,3.92Zm5.53-.68a2.76,2.76,0,0,0-2.72-2.56,2.81,2.81,0,0,0-2.75,2.56Z"/><path class="cls-2" d="M475.85,269.8h.72v.95a1.73,1.73,0,0,1,1.62-1.11,1.61,1.61,0,0,1,.77.18l-.36.65a.77.77,0,0,0-.54-.15c-1.48,0-1.49,2-1.49,2.88v3.95h-.72Z"/><path class="cls-2" d="M487.15,271.53a3.34,3.34,0,0,0-2.54-1.21,3.17,3.17,0,0,0,0,6.34,3.64,3.64,0,0,0,2.66-1.32v1a4,4,0,0,1-2.68,1,3.85,3.85,0,0,1,.05-7.7,3.87,3.87,0,0,1,2.54.93Z"/><path class="cls-2" d="M495.94,269.8h.72v7.35h-.72v-1.32a3.35,3.35,0,0,1-2.87,1.51,3.6,3.6,0,0,1-3.58-3.87,3.52,3.52,0,0,1,3.58-3.83,3.37,3.37,0,0,1,2.87,1.44Zm-5.69,3.62a2.88,2.88,0,1,0,5.72,0,2.87,2.87,0,1,0-5.72,0Z"/><path class="cls-2" d="M389.56,288.58a5.42,5.42,0,1,0-4,9,5.55,5.55,0,0,0,4-1.82v1.05a6,6,0,0,1-4,1.49,6.19,6.19,0,1,1,0-12.37,5.86,5.86,0,0,1,4,1.57Z"/><path class="cls-2" d="M398,290.8h.72v7.35H398v-1.32a3.34,3.34,0,0,1-2.86,1.51,3.6,3.6,0,0,1-3.58-3.87,3.52,3.52,0,0,1,3.58-3.83,3.35,3.35,0,0,1,2.86,1.44Zm-5.69,3.62a3,3,0,0,0,2.88,3.24,3,3,0,0,0,2.85-3.24,2.87,2.87,0,1,0-5.73,0Z"/><path class="cls-2" d="M402,290.8h.72V292a2.45,2.45,0,0,1,2.25-1.31,2.3,2.3,0,0,1,2,1,3.61,3.61,0,0,1,.36,1.86v4.63h-.72v-4.63a2.74,2.74,0,0,0-.29-1.48,1.56,1.56,0,0,0-1.44-.72,1.93,1.93,0,0,0-1.8,1,3.91,3.91,0,0,0-.4,2v3.82H402Z"/><path class="cls-2" d="M416.61,292.53a3.34,3.34,0,0,0-2.54-1.21,3.17,3.17,0,0,0,0,6.34,3.64,3.64,0,0,0,2.66-1.32v1a4,4,0,0,1-2.68,1,3.85,3.85,0,0,1,.05-7.7,3.87,3.87,0,0,1,2.54.93Z"/><path class="cls-2" d="M419.42,285h.72V292a2.45,2.45,0,0,1,2.25-1.31,2.28,2.28,0,0,1,2,1,3.51,3.51,0,0,1,.36,1.86v4.63h-.72v-4.63a2.73,2.73,0,0,0-.28-1.48,1.57,1.57,0,0,0-1.44-.72,1.94,1.94,0,0,0-1.81,1,4,4,0,0,0-.39,2v3.82h-.72Z"/><path class="cls-2" d="M433.71,290.8h.72v7.35h-.72v-1.32a3.34,3.34,0,0,1-2.86,1.51,3.6,3.6,0,0,1-3.58-3.87,3.52,3.52,0,0,1,3.58-3.83,3.35,3.35,0,0,1,2.86,1.44ZM428,294.42a3,3,0,0,0,2.88,3.24,3,3,0,0,0,2.85-3.24,2.87,2.87,0,1,0-5.73,0Z"/><path class="cls-2" d="M448.67,285h.72v13.13h-.72v-1.32a3.34,3.34,0,0,1-2.85,1.51,3.59,3.59,0,0,1-3.6-3.9,3.47,3.47,0,0,1,3.6-3.8,3.33,3.33,0,0,1,2.85,1.44Zm-5.69,9.4a2.88,2.88,0,1,0,5.72,0,2.86,2.86,0,0,0-2.88-3.1A2.81,2.81,0,0,0,443,294.42Z"/><path class="cls-2" d="M453,294.56a3,3,0,0,0,2.92,3.1,2.8,2.8,0,0,0,2.55-1.67l.62.35a3.71,3.71,0,1,1-3.28-5.7c2,0,3.47,1.58,3.47,3.92Zm5.53-.68a2.76,2.76,0,0,0-2.72-2.56,2.81,2.81,0,0,0-2.76,2.56Z"/><path class="cls-2" d="M467.75,291.48v6.67H467v-6.67h-.81v-.68H467v-2.63h.72v2.63H469v.68Z"/><path class="cls-2" d="M471.45,294.56a3,3,0,0,0,2.92,3.1,2.81,2.81,0,0,0,2.56-1.67l.61.35a3.71,3.71,0,1,1-3.28-5.7c2,0,3.48,1.58,3.48,3.92Zm5.53-.68a2.76,2.76,0,0,0-2.72-2.56,2.81,2.81,0,0,0-2.75,2.56Z"/><path class="cls-2" d="M480.56,290.8h.72V292a2.45,2.45,0,0,1,2.25-1.31,2.3,2.3,0,0,1,2,1,3.61,3.61,0,0,1,.36,1.86v4.63h-.72v-4.63a2.74,2.74,0,0,0-.29-1.48,1.56,1.56,0,0,0-1.44-.72,1.93,1.93,0,0,0-1.8,1,3.91,3.91,0,0,0-.4,2v3.82h-.72Z"/><path class="cls-2" d="M488.93,288.35a.65.65,0,1,1,.65.67A.64.64,0,0,1,488.93,288.35Zm1,2.45v7.35h-.72V290.8Z"/><path class="cls-2" d="M496.37,292.15a1.35,1.35,0,0,0-1.28-.83,1.18,1.18,0,0,0-1.24,1.17c0,.72.57,1,1.29,1.24a4,4,0,0,1,1.89,1.08,1.76,1.76,0,0,1,.38,1.19,2.24,2.24,0,0,1-2.39,2.34,2.51,2.51,0,0,1-2.54-1.94l.7-.22a1.87,1.87,0,0,0,1.84,1.48,1.57,1.57,0,0,0,1.63-1.62c0-.83-.52-1.14-1.63-1.59a3.66,3.66,0,0,1-1.61-1,1.53,1.53,0,0,1-.32-1,1.86,1.86,0,0,1,2-1.89,2,2,0,0,1,1.93,1.19Z"/><path class="cls-2" d="M437.09,315.2H432l-1.6,3.95h-.87l5.06-12.37,5,12.37h-.86Zm-.28-.72-2.25-5.69-2.29,5.69Z"/><path class="cls-2" d="M444.62,313.15a1.35,1.35,0,0,0-1.28-.83,1.18,1.18,0,0,0-1.24,1.17c0,.72.57,1,1.29,1.24a4,4,0,0,1,1.89,1.08,1.76,1.76,0,0,1,.38,1.19,2.24,2.24,0,0,1-2.39,2.34,2.51,2.51,0,0,1-2.54-1.94l.7-.22a1.87,1.87,0,0,0,1.84,1.48A1.57,1.57,0,0,0,444.9,317c0-.83-.52-1.14-1.63-1.59a3.66,3.66,0,0,1-1.61-1,1.53,1.53,0,0,1-.32-1,1.86,1.86,0,0,1,2-1.89,2,2,0,0,1,1.93,1.19Z"/><path class="cls-2" d="M454.21,311.8h.72v7.35h-.72v-1.32a3.34,3.34,0,0,1-2.86,1.51,3.6,3.6,0,0,1-3.58-3.87,3.52,3.52,0,0,1,3.58-3.83,3.35,3.35,0,0,1,2.86,1.44Zm-5.69,3.62a3,3,0,0,0,2.88,3.24,3,3,0,0,0,2.85-3.24,2.87,2.87,0,1,0-5.73,0Z"/><path class="cls-2" d="M464.24,306H465v13.13h-.72v-1.32a3.34,3.34,0,0,1-2.85,1.51,3.59,3.59,0,0,1-3.6-3.9,3.47,3.47,0,0,1,3.6-3.8,3.33,3.33,0,0,1,2.85,1.44Zm-5.69,9.4a2.88,2.88,0,1,0,5.72,0,2.86,2.86,0,0,0-2.88-3.1A2.81,2.81,0,0,0,458.55,315.42Z"/><path class="cls-2" d="M475.53,315.49a3.86,3.86,0,1,1-3.86-3.85A3.79,3.79,0,0,1,475.53,315.49Zm-.76,0a3.1,3.1,0,1,0-3.1,3.17A3.08,3.08,0,0,0,474.77,315.49Z"/><path class="cls-2" d="M478.38,311.8h.73v.95a1.71,1.71,0,0,1,1.62-1.11,1.64,1.64,0,0,1,.77.18l-.36.65a.79.79,0,0,0-.54-.15c-1.48,0-1.49,2-1.49,2.88v3.95h-.73Z"/><path class="cls-2" d="M484.09,315.56a3,3,0,0,0,2.92,3.1,2.78,2.78,0,0,0,2.55-1.67l.62.35a3.71,3.71,0,1,1-3.28-5.7c2,0,3.47,1.58,3.47,3.92Zm5.53-.68a2.76,2.76,0,0,0-2.72-2.56,2.8,2.8,0,0,0-2.75,2.56Z"/><path class="cls-2" d="M496.37,313.15a1.35,1.35,0,0,0-1.28-.83,1.18,1.18,0,0,0-1.24,1.17c0,.72.57,1,1.29,1.24a4,4,0,0,1,1.89,1.08,1.76,1.76,0,0,1,.38,1.19,2.24,2.24,0,0,1-2.39,2.34,2.51,2.51,0,0,1-2.54-1.94l.7-.22a1.87,1.87,0,0,0,1.84,1.48,1.57,1.57,0,0,0,1.63-1.62c0-.83-.52-1.14-1.63-1.59a3.66,3.66,0,0,1-1.61-1,1.53,1.53,0,0,1-.32-1,1.86,1.86,0,0,1,2-1.89,2,2,0,0,1,1.93,1.19Z"/><path class="cls-3" d="M370.9,147.06c1.11-1.31,8.37-9.58,10.6-12.93,1.67-2.51,3.63-6.32,3.63-9.95a9,9,0,0,0-9.21-9.39c-6.32,0-9.67,5-9.86,10.32H353.6c.56-12.65,9.49-20.74,21.76-20.74,14.42,0,21.86,9.86,21.86,19.72,0,9.58-6.42,16.46-11.26,21.66l-10.69,11.63h22.41V167.8h-45Z"/><path class="cls-3" d="M441.49,146.41h7.25v9.67h-7.25V167.8H430.14V156.08H399.82v-5.4l30.79-44.92h10.88Zm-11.35,0V122.78l-16,23.63Z"/><path class="cls-3" d="M494.69,150.87c0,10.23-8.19,18.32-21.58,18.32s-21.58-8.09-21.58-18.32a15.8,15.8,0,0,1,11.07-15.44c-4.74-2.32-8.93-6.88-8.93-13.76,0-9,6.51-17.3,19.44-17.3s19.44,8.28,19.44,17.3c0,6.88-4.19,11.44-8.93,13.76A15.8,15.8,0,0,1,494.69,150.87ZM482.6,150a9.49,9.49,0,1,0-9.49,9.68A9.29,9.29,0,0,0,482.6,150Zm-.84-28.27a8.65,8.65,0,1,0-8.65,8.65A8.25,8.25,0,0,0,481.76,121.76Z"/><path class="cls-2" d="M435.85,146.12v19.39h6v2.28h-8.38V146.12Z"/><path class="cls-2" d="M445,161.1a7.15,7.15,0,1,1,7.14,7.08A6.92,6.92,0,0,1,445,161.1Zm2.4,0a4.75,4.75,0,1,0,4.74-5A4.67,4.67,0,0,0,447.38,161.1Z"/><path class="cls-2" d="M466.57,156.45v11.34h-2.33V156.45h-1.43v-2.14h1.43v-4.88h2.33v4.88h2.34v2.14Z"/><path class="cls-2" d="M484.41,164.35a8.1,8.1,0,0,1-1.66,2.17,6.51,6.51,0,0,1-4.48,1.66c-3.25,0-6.66-2.05-6.66-7.05,0-4,2.47-7.15,6.53-7.15a6,6,0,0,1,5.1,2.47,9.13,9.13,0,0,1,1.27,5.07H474a4.33,4.33,0,0,0,4.29,4.58,4.08,4.08,0,0,0,2.76-1,5.34,5.34,0,0,0,1.4-1.86Zm-2.31-4.78a4,4,0,0,0-4-3.51,4.11,4.11,0,0,0-4,3.51Z"/><path class="cls-2" d="M495,157.43a2.06,2.06,0,0,0-1.88-1.37,1.49,1.49,0,0,0-1.63,1.53c0,1,.65,1.27,2.18,1.91a8.28,8.28,0,0,1,3.38,2.08,3.22,3.22,0,0,1,.71,2.18c0,2.83-2,4.42-4.64,4.42a4.83,4.83,0,0,1-4.71-3.44l2-.85a3,3,0,0,0,2.73,2.21,2.09,2.09,0,0,0,2.21-2.14c0-1.27-.91-1.69-2.18-2.25a8.75,8.75,0,0,1-3.28-2,2.93,2.93,0,0,1-.62-2,3.63,3.63,0,0,1,3.94-3.77,3.89,3.89,0,0,1,3.7,2.44Z"/><path class="cls-2" d="M13.47,71.67h-2l.71-1.27h2.68V82.58H13.47Z"/><path class="cls-2" d="M17.91,82.58l4.44-5.13c.31-.37,1.13-1.34,1.42-1.78a3.12,3.12,0,0,0,.68-1.86A2.31,2.31,0,0,0,22,71.44a2.35,2.35,0,0,0-2,1.07,2.74,2.74,0,0,0-.4,1.45H18.24a3.85,3.85,0,0,1,.91-2.52A3.6,3.6,0,0,1,22,70.19a3.6,3.6,0,0,1,3.76,3.64,4.31,4.31,0,0,1-1,2.61c-.51.71-1.17,1.46-1.66,2l-2.54,2.87h5.15v1.24Z"/><path class="cls-2" d="M36.34,79.22a3.45,3.45,0,0,1-3.73,3.58,3.45,3.45,0,0,1-3.72-3.58,3.07,3.07,0,0,1,1.84-3,3,3,0,0,1-1.48-2.67,3.36,3.36,0,1,1,6.72,0,3,3,0,0,1-1.48,2.67A3.07,3.07,0,0,1,36.34,79.22Zm-1.35,0a2.38,2.38,0,0,0-4.75,0,2.38,2.38,0,1,0,4.75,0Zm-.3-5.59a2.08,2.08,0,1,0-2.08,2.1A2,2,0,0,0,34.69,73.59Z"/><path class="cls-2" d="M44.79,75h1.32v.8a2.2,2.2,0,0,1,1.88-1A2.24,2.24,0,0,1,50.05,76a2.53,2.53,0,0,1,2.29-1.22c2.24,0,2.46,1.88,2.46,3v4.81H53.49V78c0-.86-.11-2-1.35-2-1.52,0-1.68,1.47-1.68,2.38v4.22H49.14v-4.5c0-.52,0-2.1-1.37-2.1s-1.66,1.56-1.66,2.47v4.13H44.79Z"/><path class="cls-2" d="M57.72,82.58l4.44-5.13c.31-.37,1.13-1.34,1.43-1.78a3.17,3.17,0,0,0,.67-1.86,2.43,2.43,0,0,0-4.45-1.3A2.74,2.74,0,0,0,59.4,74H58.05A3.85,3.85,0,0,1,59,71.44a3.82,3.82,0,0,1,6.64,2.39,4.28,4.28,0,0,1-1,2.61c-.52.71-1.17,1.46-1.67,2l-2.54,2.87H65.6v1.24Z"/><path class="cls-2" d="M12,95.06a2.19,2.19,0,0,0,.32,1,2.22,2.22,0,0,0,1.72.9,2.25,2.25,0,0,0,2.18-2.25A2,2,0,0,0,15.31,93a2.38,2.38,0,0,0-1.23-.29V92.1a2.06,2.06,0,0,0,1.3-.45,2.08,2.08,0,0,0,.72-1.59,1.77,1.77,0,0,0-1.86-1.88,1.79,1.79,0,0,0-1.4.56,2.07,2.07,0,0,0-.49,1.3h-.61a2.6,2.6,0,0,1,.71-1.75,2.4,2.4,0,0,1,1.79-.7A2.37,2.37,0,0,1,16.76,90a2.43,2.43,0,0,1-1.52,2.34,2.39,2.39,0,0,1,1.66,2.37,2.81,2.81,0,0,1-2.85,2.84,2.75,2.75,0,0,1-2.33-1.26,2.37,2.37,0,0,1-.35-1.25Z"/><path class="cls-2" d="M21.92,97.2l2.15-3.07a3.34,3.34,0,0,1-1.32.26A3.28,3.28,0,0,1,19.38,91a3.44,3.44,0,0,1,6.88,0,3.44,3.44,0,0,1-.62,2l-3.23,4.57ZM20,91a2.78,2.78,0,1,0,2.78-2.81A2.71,2.71,0,0,0,20,91Z"/><path class="cls-2" d="M33,86.82V97.41H32.4V86.82Z"/><path class="cls-2" d="M41.51,94.46a3.11,3.11,0,1,1-3.11-3.1A3.06,3.06,0,0,1,41.51,94.46Zm-.61,0A2.5,2.5,0,1,0,38.4,97,2.49,2.49,0,0,0,40.9,94.46Z"/><path class="cls-2" d="M44.44,92v5.37h-.58V92H43.2v-.55h.66V89.37h.58v2.12h1V92Z"/><path class="cls-2" d="M47.46,94.52A2.38,2.38,0,0,0,49.81,97a2.24,2.24,0,0,0,2.06-1.35l.5.29a3.57,3.57,0,1,1,.16-1.44ZM51.92,94a2.23,2.23,0,0,0-2.2-2.06A2.26,2.26,0,0,0,47.5,94Z"/><path class="cls-2" d="M57.36,92.58a1.07,1.07,0,0,0-1-.67,1,1,0,0,0-1,.94c0,.58.46.77,1,1a3.23,3.23,0,0,1,1.53.87,1.39,1.39,0,0,1,.3,1,1.8,1.8,0,0,1-1.93,1.88A2,2,0,0,1,54.22,96l.57-.17A1.5,1.5,0,0,0,56.27,97a1.27,1.27,0,0,0,1.32-1.31c0-.66-.42-.91-1.32-1.27A3,3,0,0,1,55,93.65a1.24,1.24,0,0,1-.26-.77,1.5,1.5,0,0,1,1.58-1.52,1.6,1.6,0,0,1,1.56,1Z"/><path class="cls-2" d="M82.63,72.32h-2L81.3,71H84V83.23H82.63Z"/><path class="cls-2" d="M94.57,79.68h1.5v1.25h-1.5v2.3H93.22v-2.3H87l7.59-10.56Zm-1.35,0V74.3l-3.85,5.38Z"/><path class="cls-2" d="M99.8,81.62a8.76,8.76,0,0,1,0-9,3.57,3.57,0,0,1,6.24,0,8.76,8.76,0,0,1,0,9,3.57,3.57,0,0,1-6.24,0Zm1-8.18a8.08,8.08,0,0,0,0,7.41,2.3,2.3,0,0,0,4.2,0,8.08,8.08,0,0,0,0-7.41,2.31,2.31,0,0,0-4.2,0Z"/><path class="cls-2" d="M115.1,75.65h1.32v.8a2.2,2.2,0,0,1,1.88-1,2.25,2.25,0,0,1,2.06,1.23,2.54,2.54,0,0,1,2.28-1.23c2.25,0,2.47,1.89,2.47,3v4.81H123.8v-4.6c0-.86-.11-2-1.36-2-1.51,0-1.68,1.46-1.68,2.38v4.22h-1.31v-4.5c0-.52,0-2.1-1.37-2.1s-1.66,1.56-1.66,2.47v4.13H115.1Z"/><path class="cls-2" d="M128,83.23l4.44-5.14c.31-.36,1.13-1.33,1.42-1.77a3.12,3.12,0,0,0,.68-1.86,2.31,2.31,0,0,0-2.43-2.37,2.35,2.35,0,0,0-2,1.07,2.83,2.83,0,0,0-.4,1.45h-1.35a3.9,3.9,0,0,1,.91-2.52,3.83,3.83,0,0,1,6.65,2.39,4.31,4.31,0,0,1-1,2.61c-.51.71-1.17,1.46-1.66,2L130.75,82h5.15v1.24Z"/><path class="cls-2" d="M82.15,89H80.64l.29-.58h1.86v9.69h-.64Z"/><path class="cls-2" d="M91.72,95.52a2.81,2.81,0,0,1-5.61,0,2.57,2.57,0,0,1,1.59-2.46,2.45,2.45,0,0,1-1.35-2.23,2.57,2.57,0,0,1,5.14,0,2.45,2.45,0,0,1-1.35,2.23A2.56,2.56,0,0,1,91.72,95.52Zm-.67,0a2.14,2.14,0,1,0-2.13,2.15A2.07,2.07,0,0,0,91.05,95.52Zm-.23-4.69a1.91,1.91,0,1,0-1.9,2A1.9,1.9,0,0,0,90.82,90.83Z"/><path class="cls-2" d="M99.1,87.5V98.09h-.59V87.5Z"/><path class="cls-2" d="M107.62,95.14A3.11,3.11,0,1,1,104.51,92,3.06,3.06,0,0,1,107.62,95.14Zm-.61,0a2.5,2.5,0,1,0-2.5,2.56A2.48,2.48,0,0,0,107,95.14Z"/><path class="cls-2" d="M110.55,92.72v5.37H110V92.72h-.65v-.56H110V90h.58v2.12h1v.56Z"/><path class="cls-2" d="M113.57,95.2a2.39,2.39,0,0,0,2.36,2.5A2.28,2.28,0,0,0,118,96.35l.49.29A2.92,2.92,0,0,1,113,95.16a2.86,2.86,0,1,1,5.68,0Zm4.46-.55a2.22,2.22,0,0,0-2.19-2.07,2.26,2.26,0,0,0-2.22,2.07Z"/><path class="cls-2" d="M123.48,93.25a1.1,1.1,0,0,0-1-.67,1,1,0,0,0-1,1c0,.58.47.77,1,1a3.19,3.19,0,0,1,1.52.87,1.43,1.43,0,0,1,.31,1,1.81,1.81,0,0,1-1.93,1.89,2,2,0,0,1-2-1.57l.56-.17a1.53,1.53,0,0,0,1.49,1.19,1.27,1.27,0,0,0,1.32-1.31c0-.67-.42-.91-1.32-1.28a2.92,2.92,0,0,1-1.3-.78,1.26,1.26,0,0,1-.26-.77A1.51,1.51,0,0,1,122.42,92,1.6,1.6,0,0,1,124,93Z"/><path class="cls-2" d="M160.88,73h-2l.71-1.27h2.68V83.87h-1.35Z"/><path class="cls-2" d="M172.48,72.16l-2.79,3.89a3.42,3.42,0,0,1,1.07-.16,3.86,3.86,0,0,1,4,4,4.2,4.2,0,0,1-8.4,0,4.82,4.82,0,0,1,1-2.79l4.15-5.76Zm.88,7.78a2.85,2.85,0,0,0-5.7,0,2.85,2.85,0,1,0,5.7,0Z"/><path class="cls-2" d="M178.51,82.26a8.76,8.76,0,0,1,0-9,3.58,3.58,0,0,1,6.24,0,8.76,8.76,0,0,1,0,9,3.57,3.57,0,0,1-6.24,0Zm1-8.18a8.1,8.1,0,0,0,0,7.42,2.31,2.31,0,0,0,4.2,0,8.1,8.1,0,0,0,0-7.42,2.31,2.31,0,0,0-4.2,0Z"/><path class="cls-2" d="M193.81,76.29h1.32v.8a2.19,2.19,0,0,1,1.88-1,2.26,2.26,0,0,1,2.06,1.22,2.52,2.52,0,0,1,2.28-1.22c2.25,0,2.47,1.88,2.47,3v4.8H202.5v-4.6c0-.86-.1-2-1.35-2-1.51,0-1.68,1.46-1.68,2.37v4.22h-1.31V79.38c0-.53,0-2.1-1.37-2.1s-1.66,1.55-1.66,2.46v4.13h-1.32Z"/><path class="cls-2" d="M206.74,83.87l4.44-5.13c.31-.37,1.13-1.34,1.42-1.78a3.12,3.12,0,0,0,.68-1.86,2.31,2.31,0,0,0-2.43-2.37,2.34,2.34,0,0,0-2,1.08,2.76,2.76,0,0,0-.4,1.44h-1.35a3.87,3.87,0,0,1,.91-2.52,3.83,3.83,0,0,1,6.65,2.39,4.31,4.31,0,0,1-1,2.61c-.51.71-1.17,1.46-1.66,2l-2.54,2.87h5.15v1.24Z"/><path class="cls-2" d="M160.42,89.53H158.9l.3-.58h1.85v9.69h-.63Z"/><path class="cls-2" d="M165.88,89.53h-1.52l.29-.58h1.86v9.69h-.63Z"/><path class="cls-2" d="M176.08,88.05V98.64h-.58V88.05Z"/><path class="cls-2" d="M184.61,95.69a3.11,3.11,0,1,1-3.11-3.11A3.06,3.06,0,0,1,184.61,95.69Zm-.61,0a2.5,2.5,0,1,0-2.5,2.56A2.49,2.49,0,0,0,184,95.69Z"/><path class="cls-2" d="M187.54,93.27v5.37H187V93.27h-.66v-.56H187V90.59h.58v2.12h1v.56Z"/><path class="cls-2" d="M190.56,95.75a2.38,2.38,0,0,0,2.35,2.5A2.28,2.28,0,0,0,195,96.9l.49.29a3,3,0,1,1-2.64-4.61,2.89,2.89,0,0,1,2.8,3.17ZM195,95.2a2.23,2.23,0,0,0-2.19-2.07,2.27,2.27,0,0,0-2.23,2.07Z"/><path class="cls-2" d="M200.46,93.8a1.09,1.09,0,0,0-1-.67,1,1,0,0,0-1,1c0,.58.46.77,1,1A3.24,3.24,0,0,1,201,96a1.43,1.43,0,0,1,.31,1,1.82,1.82,0,0,1-1.94,1.89,2,2,0,0,1-2.05-1.57l.57-.17a1.51,1.51,0,0,0,1.48,1.19,1.27,1.27,0,0,0,1.32-1.31c0-.67-.42-.91-1.32-1.28a2.87,2.87,0,0,1-1.29-.78,1.26,1.26,0,0,1-.26-.77,1.51,1.51,0,0,1,1.58-1.53,1.6,1.6,0,0,1,1.56,1Z"/><line class="cls-4" x1="2.11" y1="65.07" x2="217.14" y2="65.07"/><path class="cls-2" d="M11.28,185.78l4.44-5.13c.31-.37,1.13-1.34,1.43-1.78a3.17,3.17,0,0,0,.67-1.86,2.3,2.3,0,0,0-2.43-2.37,2.32,2.32,0,0,0-2,1.07,2.74,2.74,0,0,0-.41,1.45H11.61a3.85,3.85,0,0,1,.92-2.52,3.57,3.57,0,0,1,2.88-1.25A3.6,3.6,0,0,1,19.17,177a4.28,4.28,0,0,1-1,2.61c-.52.71-1.17,1.46-1.67,2L14,184.54h5.15v1.24Z"/><path class="cls-2" d="M23.1,184.17a8.82,8.82,0,0,1,0-8.95,3.86,3.86,0,0,1,3.12-1.83,3.87,3.87,0,0,1,3.13,1.83,8.82,8.82,0,0,1,0,8.95A3.87,3.87,0,0,1,26.22,186,3.86,3.86,0,0,1,23.1,184.17Zm1-8.18a8.16,8.16,0,0,0,0,7.41,2.54,2.54,0,0,0,2.1,1.36,2.54,2.54,0,0,0,2.1-1.36,8.08,8.08,0,0,0,0-7.41,2.55,2.55,0,0,0-2.1-1.35A2.55,2.55,0,0,0,24.12,176Z"/><path class="cls-2" d="M34.22,184.17a8.82,8.82,0,0,1,0-8.95,3.58,3.58,0,0,1,6.25,0,8.82,8.82,0,0,1,0,8.95,3.58,3.58,0,0,1-6.25,0Zm1-8.18a8.16,8.16,0,0,0,0,7.41,2.31,2.31,0,0,0,4.21,0,8.16,8.16,0,0,0,0-7.41,2.32,2.32,0,0,0-4.21,0Z"/><path class="cls-2" d="M49.53,178.2h1.31v.8a2.2,2.2,0,0,1,1.88-1,2.28,2.28,0,0,1,2.07,1.22A2.52,2.52,0,0,1,57.07,178c2.25,0,2.46,1.88,2.46,2.95v4.81H58.22v-4.6c0-.86-.11-2-1.35-2-1.52,0-1.68,1.47-1.68,2.38v4.22H53.87v-4.49c0-.53,0-2.11-1.37-2.11s-1.66,1.56-1.66,2.47v4.13H49.53Z"/><path class="cls-2" d="M62.46,185.78l4.43-5.13c.32-.37,1.14-1.34,1.43-1.78A3.12,3.12,0,0,0,69,177a2.31,2.31,0,0,0-2.43-2.37,2.35,2.35,0,0,0-2,1.07,2.65,2.65,0,0,0-.4,1.45H62.79a3.8,3.8,0,0,1,.91-2.52A3.83,3.83,0,0,1,70.35,177a4.31,4.31,0,0,1-1,2.61c-.51.71-1.17,1.46-1.66,2l-2.54,2.87h5.15v1.24Z"/><path class="cls-2" d="M12.11,198.35a2.12,2.12,0,0,0,.32,1,2.25,2.25,0,0,0,1.72.9A2.25,2.25,0,0,0,16.33,198a2.06,2.06,0,0,0-.92-1.78,2.38,2.38,0,0,0-1.23-.29v-.58a2,2,0,0,0,1.3-.45,2.08,2.08,0,0,0,.71-1.58,1.77,1.77,0,0,0-1.85-1.89,1.76,1.76,0,0,0-1.4.57,2,2,0,0,0-.49,1.29h-.61a2.55,2.55,0,0,1,.71-1.74,2.36,2.36,0,0,1,1.79-.7,2.36,2.36,0,0,1,2.52,2.42,2.42,2.42,0,0,1-1.52,2.34A2.4,2.4,0,0,1,17,198a2.8,2.8,0,0,1-2.84,2.85,2.76,2.76,0,0,1-2.33-1.27,2.32,2.32,0,0,1-.35-1.25Z"/><path class="cls-2" d="M23.79,191.27l-2.15,3a3.32,3.32,0,0,1,1.32-.27,3.28,3.28,0,0,1,3.37,3.39,3.45,3.45,0,0,1-6.89,0,3.41,3.41,0,0,1,.63-2l3.22-4.56Zm1.87,6.18a2.78,2.78,0,1,0-5.55,0,2.78,2.78,0,1,0,5.55,0Z"/><path class="cls-2" d="M33.08,190.12v10.59H32.5V190.12Z"/><path class="cls-2" d="M41.61,197.76a3.11,3.11,0,1,1-3.11-3.11A3.06,3.06,0,0,1,41.61,197.76Zm-.61,0a2.5,2.5,0,1,0-2.5,2.56A2.49,2.49,0,0,0,41,197.76Z"/><path class="cls-2" d="M44.54,195.33v5.38H44v-5.38H43.3v-.55H44v-2.12h.58v2.12h1v.55Z"/><path class="cls-2" d="M47.56,197.82a2.38,2.38,0,0,0,2.35,2.5A2.25,2.25,0,0,0,52,199l.5.3a3.58,3.58,0,1,1,.16-1.44Zm4.46-.55a2.24,2.24,0,0,0-2.2-2.07,2.27,2.27,0,0,0-2.22,2.07Z"/><path class="cls-2" d="M57.46,195.87a1.09,1.09,0,0,0-1-.67,1,1,0,0,0-1,1c0,.58.46.77,1,1A3.23,3.23,0,0,1,58,198a1.42,1.42,0,0,1,.3,1,1.81,1.81,0,0,1-1.93,1.89,2,2,0,0,1-2-1.57l.57-.17a1.51,1.51,0,0,0,1.48,1.19A1.27,1.27,0,0,0,57.69,199c0-.67-.42-.92-1.32-1.28a3.06,3.06,0,0,1-1.29-.78,1.28,1.28,0,0,1-.26-.77,1.51,1.51,0,0,1,1.58-1.53,1.58,1.58,0,0,1,1.55,1Z"/><path class="cls-2" d="M80.5,183.74l4.44-5.13c.31-.36,1.13-1.33,1.43-1.77A3.19,3.19,0,0,0,87,175a2.31,2.31,0,0,0-2.43-2.38,2.34,2.34,0,0,0-2,1.08,2.67,2.67,0,0,0-.41,1.44H80.83a3.89,3.89,0,0,1,.92-2.52A3.83,3.83,0,0,1,88.39,175a4.29,4.29,0,0,1-1,2.62c-.52.71-1.17,1.46-1.67,2l-2.53,2.87h5.15v1.24Z"/><path class="cls-2" d="M98.79,172.8H94.88l-.79,2.63a3.67,3.67,0,0,1,.77-.07,4,4,0,0,1,4,4.22A4.26,4.26,0,0,1,94.44,184a4.09,4.09,0,0,1-2.72-1,5,5,0,0,1-1.06-1.24l1.08-.77a2.69,2.69,0,0,0,.82,1,3,3,0,0,0,2,.73,3,3,0,0,0,3-3.12,2.89,2.89,0,0,0-3-3,4,4,0,0,0-2.36.84L94,171.56h4.84Z"/><path class="cls-2" d="M101.16,183.74l4.44-5.13c.31-.36,1.13-1.33,1.42-1.77a3.14,3.14,0,0,0,.68-1.86,2.31,2.31,0,0,0-2.43-2.38,2.36,2.36,0,0,0-2,1.08,2.67,2.67,0,0,0-.4,1.44h-1.35a3.89,3.89,0,0,1,.91-2.52,3.83,3.83,0,0,1,6.65,2.39,4.31,4.31,0,0,1-1,2.62c-.51.71-1.17,1.46-1.66,2l-2.54,2.87H109v1.24Z"/><path class="cls-2" d="M117.61,176.16h1.32V177a2.21,2.21,0,0,1,1.88-1,2.3,2.3,0,0,1,2.07,1.22,2.52,2.52,0,0,1,2.28-1.22c2.24,0,2.46,1.88,2.46,3v4.8h-1.31v-4.6c0-.86-.11-2-1.35-2-1.52,0-1.68,1.46-1.68,2.37v4.22H122v-4.49c0-.53,0-2.1-1.37-2.1s-1.66,1.55-1.66,2.47v4.12h-1.32Z"/><path class="cls-2" d="M130.55,183.74l4.43-5.13c.31-.36,1.14-1.33,1.43-1.77a3.12,3.12,0,0,0,.67-1.86,2.31,2.31,0,0,0-2.43-2.38,2.34,2.34,0,0,0-2,1.08,2.59,2.59,0,0,0-.4,1.44h-1.36a3.89,3.89,0,0,1,.92-2.52,3.83,3.83,0,0,1,6.65,2.39,4.31,4.31,0,0,1-1,2.62c-.51.71-1.17,1.46-1.66,2l-2.54,2.87h5.15v1.24Z"/><path class="cls-2" d="M80.46,198.61l3.72-4.09a13,13,0,0,0,1.06-1.31,3,3,0,0,0,.57-1.66,2.14,2.14,0,0,0-2.25-2.17,2.1,2.1,0,0,0-1.67.71,2.37,2.37,0,0,0-.57,1.58h-.64a2.89,2.89,0,0,1,.77-2,2.85,2.85,0,0,1,2.15-.85,2.75,2.75,0,0,1,2.88,2.76,3.29,3.29,0,0,1-.7,2,11.65,11.65,0,0,1-.86,1.05L81.81,198h4.62v.58Z"/><path class="cls-2" d="M94.24,189.51H91l-.81,2.61a2.43,2.43,0,0,1,.65-.09,3.2,3.2,0,0,1,3.37,3.36,3.45,3.45,0,0,1-6.35,1.79l.57-.24a2.77,2.77,0,0,0,2.35,1.25,2.68,2.68,0,0,0,2.76-2.79,2.63,2.63,0,0,0-2.73-2.78,2.68,2.68,0,0,0-1.51.42l1.25-4.12h3.7Z"/><path class="cls-2" d="M101.57,188v10.59H101V188Z"/><path class="cls-2" d="M110.1,195.67a3.11,3.11,0,1,1-3.11-3.11A3.06,3.06,0,0,1,110.1,195.67Zm-.61,0a2.5,2.5,0,1,0-2.5,2.55A2.48,2.48,0,0,0,109.49,195.67Z"/><path class="cls-2" d="M113,193.24v5.37h-.58v-5.37h-.65v-.55h.65v-2.12H113v2.12h1v.55Z"/><path class="cls-2" d="M116.05,195.72a2.38,2.38,0,0,0,2.35,2.5,2.26,2.26,0,0,0,2.07-1.35l.49.29a2.92,2.92,0,0,1-5.52-1.48,2.85,2.85,0,1,1,5.68,0Zm4.46-.55a2.23,2.23,0,0,0-2.19-2.06,2.26,2.26,0,0,0-2.22,2.06Z"/><path class="cls-2" d="M126,193.78a1.09,1.09,0,0,0-1-.67,1,1,0,0,0-1,.94c0,.58.47.77,1,1a3.19,3.19,0,0,1,1.52.87,1.4,1.4,0,0,1,.31,1,1.8,1.8,0,0,1-1.93,1.88,2,2,0,0,1-2.05-1.56l.56-.18a1.51,1.51,0,0,0,1.49,1.19,1.27,1.27,0,0,0,1.32-1.3c0-.67-.42-.92-1.32-1.28a3,3,0,0,1-1.3-.79,1.24,1.24,0,0,1-.26-.77,1.5,1.5,0,0,1,1.59-1.52,1.6,1.6,0,0,1,1.55,1Z"/><path class="cls-2" d="M159.38,174.38a3.79,3.79,0,0,1,.57-1.79,3.47,3.47,0,0,1,6.26,1.86,2.92,2.92,0,0,1-1.57,2.71,2.9,2.9,0,0,1,1.76,2.94,3.77,3.77,0,0,1-7.15,1.57,3.67,3.67,0,0,1-.27-1.28h1.35a2.75,2.75,0,0,0,.44,1.22,2.24,2.24,0,0,0,1.88.92,2.42,2.42,0,0,0,2.39-2.47,2.17,2.17,0,0,0-1.2-2.05,3.14,3.14,0,0,0-1.39-.25v-1.21a2.66,2.66,0,0,0,1.39-.25,2,2,0,0,0,1-1.81,1.92,1.92,0,0,0-2.08-2.08,1.85,1.85,0,0,0-1.57.69,2.46,2.46,0,0,0-.48,1.28Z"/><path class="cls-2" d="M169.59,174.38a3.79,3.79,0,0,1,.57-1.79,3.47,3.47,0,0,1,6.26,1.86,2.92,2.92,0,0,1-1.57,2.71,2.9,2.9,0,0,1,1.76,2.94,3.77,3.77,0,0,1-7.15,1.57,3.67,3.67,0,0,1-.27-1.28h1.35a2.75,2.75,0,0,0,.44,1.22,2.24,2.24,0,0,0,1.88.92,2.42,2.42,0,0,0,2.39-2.47,2.17,2.17,0,0,0-1.2-2.05,3.14,3.14,0,0,0-1.39-.25v-1.21a2.66,2.66,0,0,0,1.39-.25,2,2,0,0,0,1-1.81,1.92,1.92,0,0,0-2.08-2.08,1.85,1.85,0,0,0-1.57.69,2.46,2.46,0,0,0-.48,1.28Z"/><path class="cls-2" d="M187.2,172.61h-3.91l-.79,2.63a3.11,3.11,0,0,1,.77-.07,4,4,0,0,1,4,4.21,4.27,4.27,0,0,1-4.44,4.39,4.15,4.15,0,0,1-2.72-1,5.17,5.17,0,0,1-1.06-1.24l1.08-.77a2.75,2.75,0,0,0,.82,1,2.94,2.94,0,0,0,2,.74,3,3,0,0,0,3-3.13,2.89,2.89,0,0,0-3-3,3.93,3.93,0,0,0-2.35.84l1.77-5.88h4.84Z"/><path class="cls-2" d="M195.82,176h1.31v.8a2.2,2.2,0,0,1,1.88-1,2.28,2.28,0,0,1,2.07,1.22,2.52,2.52,0,0,1,2.28-1.22c2.25,0,2.47,1.88,2.47,3v4.8h-1.32V179c0-.86-.11-2-1.35-2-1.52,0-1.68,1.46-1.68,2.37v4.22h-1.32v-4.49c0-.53,0-2.1-1.37-2.1s-1.66,1.55-1.66,2.46v4.13h-1.31Z"/><path class="cls-2" d="M208.75,183.55l4.44-5.13c.31-.37,1.13-1.34,1.42-1.78a3.12,3.12,0,0,0,.68-1.86,2.31,2.31,0,0,0-2.43-2.37,2.34,2.34,0,0,0-2,1.08,2.67,2.67,0,0,0-.4,1.44h-1.35a3.82,3.82,0,0,1,.91-2.52,3.83,3.83,0,0,1,6.65,2.39,4.31,4.31,0,0,1-1,2.61c-.51.71-1.17,1.46-1.66,2l-2.54,2.87h5.15v1.24Z"/><path class="cls-2" d="M160.44,189.44h-1.51l.29-.58h1.86v9.69h-.64Z"/><path class="cls-2" d="M166,198.33l2.15-3.07a3.32,3.32,0,0,1-1.32.27,3.28,3.28,0,0,1-3.37-3.39,3.45,3.45,0,0,1,6.89,0,3.41,3.41,0,0,1-.63,2l-3.22,4.58Zm-1.87-6.2a2.78,2.78,0,1,0,2.77-2.82A2.74,2.74,0,0,0,164.08,192.13Z"/><path class="cls-2" d="M177,188v10.59h-.58V188Z"/><path class="cls-2" d="M185.54,195.6a3.11,3.11,0,1,1-3.11-3.11A3.06,3.06,0,0,1,185.54,195.6Zm-.61,0a2.5,2.5,0,1,0-2.5,2.56A2.48,2.48,0,0,0,184.93,195.6Z"/><path class="cls-2" d="M188.47,193.17v5.38h-.58v-5.38h-.65v-.55h.65V190.5h.58v2.12h1v.55Z"/><path class="cls-2" d="M191.49,195.66a2.39,2.39,0,0,0,2.36,2.5,2.26,2.26,0,0,0,2.06-1.36l.49.29a2.91,2.91,0,0,1-5.52-1.48,2.85,2.85,0,1,1,5.68,0Zm4.46-.55a2.22,2.22,0,0,0-2.19-2.07,2.27,2.27,0,0,0-2.22,2.07Z"/><path class="cls-2" d="M201.4,193.71a1.1,1.1,0,0,0-1-.67,1,1,0,0,0-1,1c0,.58.47.77,1,1a3.23,3.23,0,0,1,1.53.87,1.48,1.48,0,0,1,.3,1,1.81,1.81,0,0,1-1.93,1.89,2,2,0,0,1-2.05-1.57l.57-.18a1.51,1.51,0,0,0,1.48,1.2,1.27,1.27,0,0,0,1.32-1.31c0-.67-.42-.92-1.32-1.28a3,3,0,0,1-1.29-.78,1.28,1.28,0,0,1-.27-.77,1.51,1.51,0,0,1,1.59-1.53,1.58,1.58,0,0,1,1.55,1Z"/><line class="cls-4" y1="168.4" x2="219.79" y2="168.4"/><path class="cls-2" d="M235.81,285.39l4.44-5.13c.31-.36,1.13-1.33,1.42-1.77a3.12,3.12,0,0,0,.68-1.86,2.31,2.31,0,0,0-2.43-2.38,2.36,2.36,0,0,0-2,1.08,2.79,2.79,0,0,0-.4,1.44h-1.35a3.89,3.89,0,0,1,.91-2.52,3.83,3.83,0,0,1,6.65,2.4,4.31,4.31,0,0,1-1,2.61c-.51.71-1.17,1.46-1.66,2l-2.54,2.86h5.15v1.24Z"/><path class="cls-2" d="M254.24,282a3.73,3.73,0,0,1-7.45,0,3.06,3.06,0,0,1,1.84-3,3,3,0,0,1-1.48-2.67,3.36,3.36,0,1,1,6.72,0,3,3,0,0,1-1.47,2.67A3.06,3.06,0,0,1,254.24,282Zm-1.35,0a2.38,2.38,0,1,0-2.38,2.37A2.25,2.25,0,0,0,252.89,282Zm-.29-5.59a2.09,2.09,0,1,0-2.09,2.1A2.06,2.06,0,0,0,252.6,276.41Z"/><path class="cls-2" d="M258.51,283.79a8.82,8.82,0,0,1,0-9,3.58,3.58,0,0,1,6.25,0,8.82,8.82,0,0,1,0,9,3.59,3.59,0,0,1-6.25,0Zm1-8.19a8.1,8.1,0,0,0,0,7.42,2.31,2.31,0,0,0,4.2,0,8.18,8.18,0,0,0,0-7.42,2.31,2.31,0,0,0-4.2,0Z"/><path class="cls-2" d="M273.82,277.81h1.31v.81a2.21,2.21,0,0,1,1.88-1,2.28,2.28,0,0,1,2.07,1.23,2.54,2.54,0,0,1,2.28-1.23c2.25,0,2.47,1.88,2.47,3v4.8h-1.32v-4.6c0-.86-.11-2-1.35-2-1.52,0-1.68,1.46-1.68,2.38v4.21h-1.32V280.9c0-.53,0-2.1-1.37-2.1s-1.66,1.55-1.66,2.47v4.12h-1.31Z"/><path class="cls-2" d="M286.75,285.39l4.44-5.13c.31-.36,1.13-1.33,1.42-1.77a3.12,3.12,0,0,0,.68-1.86,2.31,2.31,0,0,0-2.43-2.38,2.36,2.36,0,0,0-2,1.08,2.7,2.7,0,0,0-.4,1.44h-1.35a3.84,3.84,0,0,1,.91-2.52,3.83,3.83,0,0,1,6.65,2.4,4.31,4.31,0,0,1-1,2.61c-.51.71-1.17,1.46-1.66,2l-2.54,2.86h5.15v1.24Z"/><path class="cls-2" d="M241.69,297.82h1.36v.58h-1.36v1.84h-.64V298.4h-5.21l5.85-8.17Zm-.64,0v-5.7l-4.08,5.7Z"/><path class="cls-2" d="M249.82,289.65v10.59h-.58V289.65Z"/><path class="cls-2" d="M258.35,297.29a3.11,3.11,0,1,1-3.11-3.11A3.06,3.06,0,0,1,258.35,297.29Zm-.61,0a2.5,2.5,0,1,0-2.5,2.56A2.48,2.48,0,0,0,257.74,297.29Z"/><path class="cls-2" d="M261.28,294.87v5.37h-.58v-5.37h-.65v-.56h.65v-2.12h.58v2.12h1v.56Z"/><path class="cls-2" d="M264.3,297.35a2.38,2.38,0,0,0,2.35,2.5,2.28,2.28,0,0,0,2.07-1.35l.49.29a3,3,0,1,1-2.64-4.61,2.89,2.89,0,0,1,2.8,3.17Zm4.46-.55a2.23,2.23,0,0,0-2.19-2.06,2.26,2.26,0,0,0-2.23,2.06Z"/><path class="cls-2" d="M274.2,295.4a1.08,1.08,0,0,0-1-.66,1,1,0,0,0-1,.94c0,.58.47.77,1.05,1a3.33,3.33,0,0,1,1.52.87,1.43,1.43,0,0,1,.31,1,1.82,1.82,0,0,1-1.94,1.89,2,2,0,0,1-2-1.57l.56-.17a1.52,1.52,0,0,0,1.48,1.19,1.28,1.28,0,0,0,1.33-1.31c0-.67-.42-.91-1.33-1.28a2.87,2.87,0,0,1-1.29-.78,1.26,1.26,0,0,1-.26-.77,1.51,1.51,0,0,1,1.58-1.53,1.6,1.6,0,0,1,1.56,1Z"/><path class="cls-2" d="M18.92,282.15h1.5v1.24h-1.5v2.3H17.57v-2.3H11.32l7.6-10.55Zm-1.35,0v-5.39l-3.86,5.39Z"/><path class="cls-2" d="M24.14,284.09a8.82,8.82,0,0,1,0-8.95,3.86,3.86,0,0,1,3.13-1.83,3.86,3.86,0,0,1,3.12,1.83,8.82,8.82,0,0,1,0,8.95,3.84,3.84,0,0,1-3.12,1.82A3.85,3.85,0,0,1,24.14,284.09Zm1-8.19a8.1,8.1,0,0,0,0,7.42,2.55,2.55,0,0,0,2.1,1.35,2.55,2.55,0,0,0,2.1-1.35,8.18,8.18,0,0,0,0-7.42,2.55,2.55,0,0,0-2.1-1.35A2.55,2.55,0,0,0,25.17,275.9Z"/><path class="cls-2" d="M42.11,282.33a3.45,3.45,0,0,1-3.72,3.58,3.45,3.45,0,0,1-3.73-3.58,3.07,3.07,0,0,1,1.85-3A3,3,0,0,1,35,276.69a3.36,3.36,0,1,1,6.72,0,3,3,0,0,1-1.48,2.67A3.06,3.06,0,0,1,42.11,282.33Zm-1.35,0a2.38,2.38,0,0,0-4.75,0,2.38,2.38,0,0,0,4.75,0Zm-.29-5.59a2.08,2.08,0,1,0-4.16,0,2.08,2.08,0,1,0,4.16,0Z"/><path class="cls-2" d="M50.57,278.11h1.31v.81a2.21,2.21,0,0,1,1.89-1,2.26,2.26,0,0,1,2.06,1.23,2.52,2.52,0,0,1,2.28-1.23c2.25,0,2.47,1.88,2.47,3v4.8H59.26v-4.6c0-.86-.11-2-1.35-2-1.51,0-1.68,1.46-1.68,2.38v4.21H54.92V281.2c0-.53,0-2.1-1.37-2.1s-1.67,1.55-1.67,2.47v4.12H50.57Z"/><path class="cls-2" d="M63.5,285.69l4.44-5.13c.31-.36,1.13-1.33,1.42-1.77a3.14,3.14,0,0,0,.68-1.86,2.31,2.31,0,0,0-2.43-2.38,2.36,2.36,0,0,0-2,1.08,2.7,2.7,0,0,0-.4,1.44H63.83a3.89,3.89,0,0,1,.91-2.52,3.83,3.83,0,0,1,6.65,2.4,4.31,4.31,0,0,1-1,2.61c-.51.71-1.17,1.46-1.66,2l-2.54,2.87h5.15v1.24Z"/><path class="cls-2" d="M11.2,300.53l3.72-4.1a11.8,11.8,0,0,0,1.06-1.3,3.07,3.07,0,0,0,.56-1.66,2.15,2.15,0,0,0-2.25-2.18,2.13,2.13,0,0,0-1.67.71,2.39,2.39,0,0,0-.57,1.59h-.64a2.76,2.76,0,0,1,2.92-2.88,2.74,2.74,0,0,1,2.88,2.76,3.29,3.29,0,0,1-.7,2,13,13,0,0,1-.85,1.05L12.55,300h4.62v.58Z"/><path class="cls-2" d="M22,300.31l2.15-3.06a3.38,3.38,0,1,1,2.2-3.11,3.41,3.41,0,0,1-.63,2l-3.22,4.58Zm-1.87-6.2a2.78,2.78,0,1,0,5.55,0,2.78,2.78,0,1,0-5.55,0Z"/><path class="cls-2" d="M33,289.94v10.59h-.59V289.94Z"/><path class="cls-2" d="M41.56,297.58a3.11,3.11,0,1,1-3.11-3.11A3.06,3.06,0,0,1,41.56,297.58Zm-.61,0a2.5,2.5,0,1,0-2.5,2.56A2.48,2.48,0,0,0,41,297.58Z"/><path class="cls-2" d="M44.49,295.16v5.37h-.58v-5.37h-.65v-.56h.65v-2.12h.58v2.12h1v.56Z"/><path class="cls-2" d="M47.51,297.64a2.39,2.39,0,0,0,2.36,2.5,2.28,2.28,0,0,0,2.06-1.35l.49.29a2.92,2.92,0,0,1-5.52-1.48,2.86,2.86,0,1,1,5.68,0Zm4.46-.55A2.22,2.22,0,0,0,49.78,295a2.26,2.26,0,0,0-2.22,2.07Z"/><path class="cls-2" d="M57.42,295.69a1.1,1.1,0,0,0-1-.67,1,1,0,0,0-1,1c0,.58.47.77,1,1a3.19,3.19,0,0,1,1.52.87,1.43,1.43,0,0,1,.31,1,1.81,1.81,0,0,1-1.93,1.89,2,2,0,0,1-2-1.57l.57-.17a1.51,1.51,0,0,0,1.48,1.19,1.27,1.27,0,0,0,1.32-1.31c0-.67-.42-.91-1.32-1.28a2.92,2.92,0,0,1-1.3-.78,1.26,1.26,0,0,1-.26-.77,1.51,1.51,0,0,1,1.59-1.53,1.6,1.6,0,0,1,1.55,1Z"/><path class="cls-2" d="M88.08,282.11h1.5v1.24h-1.5v2.31H86.73v-2.31H80.49l7.59-10.55Zm-1.35,0v-5.39l-3.85,5.39Z"/><path class="cls-2" d="M91.24,285.66l4.44-5.14c.31-.36,1.13-1.33,1.43-1.77a3.17,3.17,0,0,0,.67-1.86,2.31,2.31,0,0,0-2.43-2.38,2.33,2.33,0,0,0-2,1.08,2.71,2.71,0,0,0-.41,1.45H91.57a3.9,3.9,0,0,1,.92-2.53,3.82,3.82,0,0,1,6.64,2.4,4.28,4.28,0,0,1-1,2.61c-.52.71-1.17,1.46-1.67,2L94,284.41h5.15v1.25Z"/><path class="cls-2" d="M103.06,284.05a8.82,8.82,0,0,1,0-8.95,3.58,3.58,0,0,1,6.25,0,8.82,8.82,0,0,1,0,8.95,3.58,3.58,0,0,1-6.25,0Zm1-8.18a8.16,8.16,0,0,0,0,7.41,2.31,2.31,0,0,0,4.2,0,8.08,8.08,0,0,0,0-7.41,2.3,2.3,0,0,0-4.2,0Z"/><path class="cls-2" d="M118.36,278.08h1.32v.8a2.21,2.21,0,0,1,1.88-1,2.25,2.25,0,0,1,2.06,1.23,2.56,2.56,0,0,1,2.29-1.23c2.24,0,2.46,1.89,2.46,3v4.81h-1.31v-4.61c0-.85-.11-2-1.35-2-1.52,0-1.68,1.46-1.68,2.38v4.22h-1.32v-4.5c0-.53,0-2.1-1.37-2.1s-1.66,1.56-1.66,2.47v4.13h-1.32Z"/><path class="cls-2" d="M131.29,285.66l4.44-5.14c.31-.36,1.14-1.33,1.43-1.77a3.1,3.1,0,0,0,.67-1.86,2.31,2.31,0,0,0-2.43-2.38,2.34,2.34,0,0,0-2,1.08A2.63,2.63,0,0,0,133,277h-1.36a3.9,3.9,0,0,1,.92-2.53,3.83,3.83,0,0,1,6.65,2.4,4.31,4.31,0,0,1-1,2.61c-.51.71-1.17,1.46-1.67,2L134,284.41h5.15v1.25Z"/><path class="cls-2" d="M82.11,291.41H80.6l.29-.58h1.86v9.69h-.64Z"/><path class="cls-2" d="M86.28,298.17a2,2,0,0,0,.32,1,2.22,2.22,0,0,0,1.71.9,2.25,2.25,0,0,0,2.18-2.25,2.06,2.06,0,0,0-.91-1.78,2.4,2.4,0,0,0-1.24-.29v-.58a2,2,0,0,0,1.31-.45,2.08,2.08,0,0,0,.71-1.58,1.78,1.78,0,0,0-1.86-1.89,1.75,1.75,0,0,0-1.39.57,2,2,0,0,0-.5,1.29H86a2.56,2.56,0,0,1,.72-1.74A2.56,2.56,0,0,1,91,293.13a2.41,2.41,0,0,1-1.53,2.33,2.4,2.4,0,0,1,1.66,2.37,2.81,2.81,0,0,1-2.85,2.85A2.74,2.74,0,0,1,86,299.42a2.37,2.37,0,0,1-.35-1.25Z"/><path class="cls-2" d="M98.69,289.93v10.59h-.58V289.93Z"/><path class="cls-2" d="M107.22,297.57a3.11,3.11,0,1,1-3.11-3.11A3.06,3.06,0,0,1,107.22,297.57Zm-.61,0a2.5,2.5,0,1,0-2.5,2.56A2.48,2.48,0,0,0,106.61,297.57Z"/><path class="cls-2" d="M110.15,295.14v5.38h-.58v-5.38h-.65v-.55h.65v-2.12h.58v2.12h1v.55Z"/><path class="cls-2" d="M113.17,297.63a2.39,2.39,0,0,0,2.36,2.5,2.28,2.28,0,0,0,2.06-1.35l.49.29a2.92,2.92,0,0,1-5.52-1.49,2.85,2.85,0,1,1,5.68.05Zm4.46-.55a2.23,2.23,0,0,0-2.19-2.07,2.26,2.26,0,0,0-2.22,2.07Z"/><path class="cls-2" d="M123.08,295.68a1.1,1.1,0,0,0-1-.67,1,1,0,0,0-1,.95c0,.58.47.77,1,1a3.19,3.19,0,0,1,1.52.87,1.43,1.43,0,0,1,.31,1,1.81,1.81,0,0,1-1.93,1.89,2,2,0,0,1-2-1.57l.56-.17a1.53,1.53,0,0,0,1.49,1.19,1.27,1.27,0,0,0,1.32-1.31c0-.67-.42-.91-1.32-1.28a3,3,0,0,1-1.3-.78,1.26,1.26,0,0,1-.26-.77,1.51,1.51,0,0,1,1.59-1.53,1.6,1.6,0,0,1,1.55,1Z"/><path class="cls-2" d="M167.12,274.73h-3.91l-.79,2.63a3.67,3.67,0,0,1,.77-.07,4,4,0,0,1,4,4.22,4.26,4.26,0,0,1-4.44,4.38,4.09,4.09,0,0,1-2.72-.95A4.63,4.63,0,0,1,159,283.7l1.08-.76a2.75,2.75,0,0,0,.82,1,3,3,0,0,0,2,.73,3,3,0,0,0,3-3.12,2.89,2.89,0,0,0-3-3,4,4,0,0,0-2.35.84l1.77-5.88h4.84Z"/><path class="cls-2" d="M171.55,284.07a8.82,8.82,0,0,1,0-8.95,3.58,3.58,0,0,1,6.25,0,8.82,8.82,0,0,1,0,8.95,3.59,3.59,0,0,1-6.25,0Zm1-8.19a8.1,8.1,0,0,0,0,7.42,2.31,2.31,0,0,0,4.2,0,8.18,8.18,0,0,0,0-7.42,2.31,2.31,0,0,0-4.2,0Z"/><path class="cls-2" d="M188.12,282.13h1.5v1.24h-1.5v2.3h-1.35v-2.3h-6.25l7.6-10.55Zm-1.35,0v-5.39l-3.86,5.39Z"/><path class="cls-2" d="M197.52,278.09h1.32v.81a2.21,2.21,0,0,1,1.88-1,2.25,2.25,0,0,1,2.06,1.23,2.55,2.55,0,0,1,2.29-1.23c2.24,0,2.46,1.88,2.46,3v4.8h-1.31v-4.6c0-.86-.11-2-1.35-2-1.52,0-1.68,1.46-1.68,2.38v4.21h-1.32v-4.49c0-.53,0-2.1-1.37-2.1s-1.66,1.55-1.66,2.47v4.12h-1.32Z"/><path class="cls-2" d="M210.45,285.67l4.44-5.13c.31-.36,1.14-1.33,1.43-1.77a3.1,3.1,0,0,0,.67-1.86,2.31,2.31,0,0,0-2.43-2.38,2.34,2.34,0,0,0-2,1.08,2.7,2.7,0,0,0-.41,1.44h-1.35a3.89,3.89,0,0,1,.92-2.52,3.82,3.82,0,0,1,6.64,2.4,4.28,4.28,0,0,1-1,2.61c-.51.71-1.17,1.46-1.67,2l-2.53,2.86h5.15v1.24Z"/><path class="cls-2" d="M160.36,291.24h-1.51l.29-.58H161v9.69h-.64Z"/><path class="cls-2" d="M169,297.92h1.35v.58H169v1.85h-.64V298.5h-5.21l5.85-8.16Zm-.64,0v-5.69l-4.08,5.69Z"/><path class="cls-2" d="M177.13,289.76v10.59h-.58V289.76Z"/><path class="cls-2" d="M185.66,297.4a3.11,3.11,0,1,1-3.11-3.11A3.06,3.06,0,0,1,185.66,297.4Zm-.61,0a2.5,2.5,0,1,0-2.5,2.56A2.49,2.49,0,0,0,185.05,297.4Z"/><path class="cls-2" d="M188.59,295v5.38H188V295h-.66v-.55H188V292.3h.58v2.12h1V295Z"/><path class="cls-2" d="M191.61,297.46A2.38,2.38,0,0,0,194,300a2.25,2.25,0,0,0,2.06-1.35l.5.29a3.58,3.58,0,1,1,.16-1.44Zm4.46-.55a2.24,2.24,0,0,0-2.2-2.07,2.27,2.27,0,0,0-2.22,2.07Z"/><path class="cls-2" d="M201.51,295.51a1.09,1.09,0,0,0-1-.67,1,1,0,0,0-1,1c0,.58.46.77,1,1a3.23,3.23,0,0,1,1.53.87,1.42,1.42,0,0,1,.3,1,1.81,1.81,0,0,1-1.93,1.89,2,2,0,0,1-2-1.57l.57-.17a1.51,1.51,0,0,0,1.48,1.19,1.27,1.27,0,0,0,1.32-1.31c0-.67-.42-.92-1.32-1.28a2.87,2.87,0,0,1-1.29-.78,1.26,1.26,0,0,1-.26-.77,1.51,1.51,0,0,1,1.58-1.53,1.6,1.6,0,0,1,1.56,1Z"/><line class="cls-4" x1="2.58" y1="268.19" x2="295.01" y2="268.19"/><path class="cls-3" d="M448.06,17.58C449.18,6.32,457.64,0,468.25,0c11.9,0,19.43,6.7,19.43,17.11,0,3.26-.65,9.4-7.16,13,2.51,1,9.49,4.56,9.49,14.79,0,12.74-9.86,19.9-22.14,19.9-11.9,0-21.29-7.34-22.32-19.25h12.09c.75,5.12,4.37,8.84,10.33,8.84,7,0,9.95-5.12,9.95-9.86,0-4.56-2.79-9.67-10.33-9.67H466V26.13h1.68c5.95,0,8.46-4.18,8.46-8.46,0-4.93-3.25-8.18-8.18-8.18a8.23,8.23,0,0,0-8.56,8.09Z"/><path class="cls-2" d="M337.84,47.89a10.74,10.74,0,0,0-2.83-2,9.24,9.24,0,0,0-3.74-.84,8.94,8.94,0,0,0,0,17.87,9,9,0,0,0,4-1,9.9,9.9,0,0,0,2.51-1.82v3a11.31,11.31,0,0,1-6.53,2.11,11.21,11.21,0,1,1,.13-22.42,10.24,10.24,0,0,1,6.4,2.15Z"/><path class="cls-2" d="M342.15,58.09a7.15,7.15,0,1,1,7.15,7.08A6.92,6.92,0,0,1,342.15,58.09Zm2.4,0a4.75,4.75,0,1,0,9.49,0,4.75,4.75,0,1,0-9.49,0Z"/><path class="cls-2" d="M361.35,51.3h2.33v1.56A4.76,4.76,0,0,1,367.55,51a4.6,4.6,0,0,1,3.87,1.85,6.05,6.05,0,0,1,.78,3.61v8.35h-2.34V56.5a4,4,0,0,0-.62-2.47,2.64,2.64,0,0,0-2.21-1,3,3,0,0,0-2.37,1,5.68,5.68,0,0,0-1,3.64v7.05h-2.33Z"/><path class="cls-2" d="M388.27,41.1h2.34V64.78h-2.34V62.9a5.7,5.7,0,0,1-4.61,2.27c-3.41,0-6.56-2.4-6.56-7.15S380.22,51,383.66,51a5.56,5.56,0,0,1,4.61,2.24ZM379.5,58c0,2.89,1.63,5.07,4.42,5.07s4.48-2.37,4.48-5c0-3.47-2.4-5-4.48-5C381.61,53.05,379.5,54.74,379.5,58Z"/><path class="cls-2" d="M395.51,58.09a7.15,7.15,0,1,1,7.15,7.08A6.92,6.92,0,0,1,395.51,58.09Zm2.41,0a4.75,4.75,0,1,0,9.48,0,4.75,4.75,0,1,0-9.48,0Z"/><path class="cls-2" d="M414.71,51.3h2.34v1.43A3.89,3.89,0,0,1,420.39,51a4,4,0,0,1,3.67,2.18A4.5,4.5,0,0,1,428.12,51c4,0,4.39,3.35,4.39,5.27v8.54h-2.34V56.59c0-1.52-.19-3.54-2.4-3.54-2.7,0-3,2.6-3,4.23v7.5h-2.34v-8c0-.94,0-3.74-2.44-3.74-2.66,0-2.95,2.76-2.95,4.39v7.34h-2.34Z"/><path class="cls-2" d="M439.46,44.54a1.66,1.66,0,1,1-1.66,1.66A1.66,1.66,0,0,1,439.46,44.54Zm1.17,6.76V64.78h-2.34V51.3Z"/><path class="cls-2" d="M446.37,51.3h2.34v1.56A4.74,4.74,0,0,1,452.58,51a4.57,4.57,0,0,1,3.86,1.85,6,6,0,0,1,.78,3.61v8.35h-2.34V56.5a4,4,0,0,0-.61-2.47,2.64,2.64,0,0,0-2.21-1,3,3,0,0,0-2.37,1,5.68,5.68,0,0,0-1,3.64v7.05h-2.34Z"/><path class="cls-2" d="M464.14,44.54a1.66,1.66,0,1,1-1.66,1.66A1.67,1.67,0,0,1,464.14,44.54Zm1.17,6.76V64.78H463V51.3Z"/><path class="cls-2" d="M470.21,58.09a7.15,7.15,0,1,1,7.15,7.08A6.92,6.92,0,0,1,470.21,58.09Zm2.41,0a4.75,4.75,0,1,0,9.48,0,4.75,4.75,0,1,0-9.48,0Z"/><path class="cls-2" d="M495,54.42a2.06,2.06,0,0,0-1.88-1.37,1.49,1.49,0,0,0-1.63,1.53c0,1,.65,1.27,2.18,1.92A8.19,8.19,0,0,1,497,58.57a3.22,3.22,0,0,1,.71,2.18c0,2.83-2,4.42-4.64,4.42a4.83,4.83,0,0,1-4.71-3.44l2-.85a3,3,0,0,0,2.73,2.21A2.09,2.09,0,0,0,495.32,61c0-1.27-.91-1.69-2.18-2.25a8.75,8.75,0,0,1-3.28-2,2.93,2.93,0,0,1-.62-2A3.63,3.63,0,0,1,493.18,51a3.89,3.89,0,0,1,3.7,2.44Z"/><path class="cls-3" d="M18.1,18.4H11.93V11.19H26.47V54.11H18.1Z"/><path class="cls-2" d="M11.47,41.58H14A6.72,6.72,0,0,1,18.53,43a6,6,0,0,1,2.11,4.74,5.9,5.9,0,0,1-2.16,4.73A6.19,6.19,0,0,1,14,53.91H11.47Zm1.37,11H14a5.26,5.26,0,0,0,3.53-1.11,4.71,4.71,0,0,0,1.67-3.75c0-3-2.08-4.89-5.2-4.89h-1.2Z"/><path class="cls-2" d="M30.38,52a4.42,4.42,0,0,1-.94,1.24,3.72,3.72,0,0,1-2.55,1,3.68,3.68,0,0,1-3.79-4c0-2.29,1.4-4.07,3.71-4.07a3.43,3.43,0,0,1,2.91,1.41,5.12,5.12,0,0,1,.72,2.88h-6A2.44,2.44,0,0,0,26.91,53a2.33,2.33,0,0,0,1.57-.55,3,3,0,0,0,.79-1.06Zm-1.31-2.71a2.29,2.29,0,0,0-2.26-2,2.33,2.33,0,0,0-2.25,2Z"/><path class="cls-2" d="M36.39,48a1.17,1.17,0,0,0-1.07-.77.85.85,0,0,0-.93.87c0,.55.37.72,1.24,1.09a4.71,4.71,0,0,1,1.93,1.18,1.84,1.84,0,0,1,.4,1.24,2.44,2.44,0,0,1-2.64,2.52,2.74,2.74,0,0,1-2.68-2l1.14-.49A1.75,1.75,0,0,0,35.34,53a1.19,1.19,0,0,0,1.25-1.22c0-.72-.51-1-1.23-1.27a5.07,5.07,0,0,1-1.87-1.13,1.65,1.65,0,0,1-.35-1.13,2.06,2.06,0,0,1,2.23-2.15,2.22,2.22,0,0,1,2.11,1.39Z"/><path class="cls-2" d="M41.16,42.39a.95.95,0,1,1-.94,1A.95.95,0,0,1,41.16,42.39Zm.67,3.85v7.67H40.49V46.24Z"/><path class="cls-2" d="M51.9,52A4.42,4.42,0,0,1,51,53.19a3.72,3.72,0,0,1-2.55,1,3.68,3.68,0,0,1-3.79-4c0-2.29,1.4-4.07,3.71-4.07a3.43,3.43,0,0,1,2.91,1.41A5.12,5.12,0,0,1,52,50.34H46A2.45,2.45,0,0,0,48.43,53,2.33,2.33,0,0,0,50,52.4a3,3,0,0,0,.79-1.06Zm-1.31-2.71a2.29,2.29,0,0,0-2.26-2,2.33,2.33,0,0,0-2.25,2Z"/><path class="cls-2" d="M54.75,46.24h1.33v.83a2.14,2.14,0,0,1,1.74-1,2.73,2.73,0,0,1,1.18.32l-.63,1.2a1.38,1.38,0,0,0-.77-.26,1.31,1.31,0,0,0-1.08.48,3.36,3.36,0,0,0-.44,2.07v4H54.75Z"/><path class="cls-2" d="M62.72,47.46v6.45H61.39V47.46h-.82V46.24h.82V43.46h1.33v2.78h1.33v1.22Z"/><path class="cls-2" d="M65.58,50.1a4.07,4.07,0,1,1,4.07,4A3.94,3.94,0,0,1,65.58,50.1Zm1.37,0a2.7,2.7,0,1,0,2.7-2.86A2.66,2.66,0,0,0,67,50.1Z"/><path class="cls-3" d="M8.69,227.77c.77-7.78,6.63-12.16,14-12.16,8.24,0,13.45,4.64,13.45,11.84a9.69,9.69,0,0,1-5,9c1.73.71,6.56,3.15,6.56,10.23,0,8.82-6.82,13.77-15.32,13.77-8.23,0-14.73-5.08-15.44-13.32h8.37a6.79,6.79,0,0,0,7.14,6.12,6.51,6.51,0,0,0,6.88-6.83c0-3.15-1.93-6.69-7.14-6.69H21.11v-6.05h1.16c4.11,0,5.85-2.89,5.85-5.85a5.33,5.33,0,0,0-5.66-5.66,5.69,5.69,0,0,0-5.92,5.59Z"/><path class="cls-2" d="M11.36,247.85h2.51a6.72,6.72,0,0,1,4.55,1.44A6,6,0,0,1,20.53,254a5.89,5.89,0,0,1-2.16,4.73,6.19,6.19,0,0,1-4.52,1.43H11.36Zm1.37,11h1.2a5.26,5.26,0,0,0,3.53-1.11A4.68,4.68,0,0,0,19.13,254c0-3-2.08-4.88-5.2-4.88h-1.2Z"/><path class="cls-2" d="M30.27,258.23a4.53,4.53,0,0,1-.94,1.23,3.72,3.72,0,0,1-2.55,1,3.67,3.67,0,0,1-3.79-4c0-2.3,1.4-4.07,3.71-4.07a3.47,3.47,0,0,1,2.91,1.4,5.16,5.16,0,0,1,.72,2.89h-6a2.44,2.44,0,0,0,2.44,2.6,2.35,2.35,0,0,0,1.57-.55,3,3,0,0,0,.79-1.05ZM29,255.51a2.3,2.3,0,0,0-2.26-2,2.33,2.33,0,0,0-2.25,2Z"/><path class="cls-2" d="M36.28,254.29a1.16,1.16,0,0,0-1.07-.78.85.85,0,0,0-.93.87c0,.55.37.72,1.24,1.09a4.71,4.71,0,0,1,1.93,1.18,1.84,1.84,0,0,1,.4,1.24,2.44,2.44,0,0,1-2.64,2.52,2.74,2.74,0,0,1-2.68-2l1.14-.48a1.74,1.74,0,0,0,1.56,1.25A1.18,1.18,0,0,0,36.48,258c0-.72-.51-1-1.24-1.27a5,5,0,0,1-1.86-1.13,1.65,1.65,0,0,1-.35-1.13,2.06,2.06,0,0,1,2.23-2.14,2.21,2.21,0,0,1,2.11,1.38Z"/><path class="cls-2" d="M41.05,248.67a.94.94,0,1,1-.94.94A.94.94,0,0,1,41.05,248.67Zm.67,3.84v7.68H40.38v-7.68Z"/><path class="cls-2" d="M51.79,258.23a4.53,4.53,0,0,1-.94,1.23,3.72,3.72,0,0,1-2.55,1,3.67,3.67,0,0,1-3.79-4c0-2.3,1.4-4.07,3.71-4.07a3.47,3.47,0,0,1,2.91,1.4,5.16,5.16,0,0,1,.72,2.89h-6a2.45,2.45,0,0,0,2.45,2.6,2.35,2.35,0,0,0,1.57-.55,3,3,0,0,0,.79-1.05Zm-1.31-2.72a2.3,2.3,0,0,0-2.26-2,2.33,2.33,0,0,0-2.25,2Z"/><path class="cls-2" d="M54.64,252.51H56v.83a2.14,2.14,0,0,1,1.74-1,2.76,2.76,0,0,1,1.18.31l-.63,1.2a1.38,1.38,0,0,0-.77-.26,1.31,1.31,0,0,0-1.08.49,3.31,3.31,0,0,0-.44,2.07v4.05H54.64Z"/><path class="cls-2" d="M62.61,253.73v6.46H61.27v-6.46h-.81v-1.22h.81v-2.77h1.34v2.77h1.33v1.22Z"/><path class="cls-2" d="M65.47,256.38a4.07,4.07,0,1,1,4.07,4A3.94,3.94,0,0,1,65.47,256.38Zm1.37,0a2.71,2.71,0,1,0,2.7-2.87A2.66,2.66,0,0,0,66.84,256.38Z"/><path class="cls-3" d="M19.13,143.09c.77-.9,5.79-6.63,7.33-9A13.41,13.41,0,0,0,29,127.26a6.22,6.22,0,0,0-6.37-6.5c-4.37,0-6.69,3.47-6.82,7.14H7.16c.39-8.75,6.56-14.35,15.06-14.35,10,0,15.12,6.82,15.12,13.64,0,6.63-4.44,11.39-7.79,15l-7.4,8H37.66v7.21H6.52Z"/><path class="cls-2" d="M11.41,145h2.52a6.73,6.73,0,0,1,4.55,1.44,6.06,6.06,0,0,1,2.1,4.74,5.86,5.86,0,0,1-2.16,4.73,6.14,6.14,0,0,1-4.51,1.43h-2.5Zm1.37,11H14A5.26,5.26,0,0,0,17.51,155a4.68,4.68,0,0,0,1.67-3.75c0-3-2.07-4.88-5.2-4.88h-1.2Z"/><path class="cls-2" d="M30.33,155.41a5,5,0,0,1-.95,1.24,3.75,3.75,0,0,1-2.55.94,3.67,3.67,0,0,1-3.79-4c0-2.3,1.4-4.07,3.72-4.07a3.43,3.43,0,0,1,2.9,1.4,5.16,5.16,0,0,1,.72,2.89h-6a2.46,2.46,0,0,0,2.44,2.61,2.32,2.32,0,0,0,1.57-.56,3.16,3.16,0,0,0,.8-1ZM29,152.69a2.3,2.3,0,0,0-2.25-2,2.33,2.33,0,0,0-2.26,2Z"/><path class="cls-2" d="M36.33,151.47a1.16,1.16,0,0,0-1.07-.78.85.85,0,0,0-.92.87c0,.55.37.72,1.24,1.09a4.65,4.65,0,0,1,1.92,1.18,1.85,1.85,0,0,1,.41,1.24,2.45,2.45,0,0,1-2.65,2.52,2.75,2.75,0,0,1-2.68-2l1.15-.48a1.73,1.73,0,0,0,1.55,1.26,1.2,1.2,0,0,0,1.26-1.23c0-.72-.52-1-1.24-1.27a4.94,4.94,0,0,1-1.87-1.13,1.65,1.65,0,0,1-.35-1.13,2.06,2.06,0,0,1,2.24-2.14,2.2,2.2,0,0,1,2.1,1.38Z"/><path class="cls-2" d="M41.1,145.84a.95.95,0,1,1,0,1.89.95.95,0,0,1,0-1.89Zm.67,3.85v7.68H40.44v-7.68Z"/><path class="cls-2" d="M51.85,155.41a5,5,0,0,1-1,1.24,3.75,3.75,0,0,1-2.55.94,3.67,3.67,0,0,1-3.79-4c0-2.3,1.41-4.07,3.72-4.07a3.45,3.45,0,0,1,2.9,1.4,5.16,5.16,0,0,1,.72,2.89h-6a2.46,2.46,0,0,0,2.44,2.61,2.32,2.32,0,0,0,1.57-.56,3.16,3.16,0,0,0,.8-1Zm-1.32-2.72a2.3,2.3,0,0,0-2.25-2,2.33,2.33,0,0,0-2.26,2Z"/><path class="cls-2" d="M54.69,149.69H56v.83a2.15,2.15,0,0,1,1.74-1,2.87,2.87,0,0,1,1.18.31l-.62,1.2a1.43,1.43,0,0,0-.78-.26,1.27,1.27,0,0,0-1.07.49,3.22,3.22,0,0,0-.45,2.07v4.05H54.69Z"/><path class="cls-2" d="M62.66,150.91v6.46H61.33v-6.46h-.82v-1.22h.82v-2.77h1.33v2.77H64v1.22Z"/><path class="cls-2" d="M65.52,153.56a4.07,4.07,0,1,1,4.07,4A3.94,3.94,0,0,1,65.52,153.56Zm1.37,0a2.71,2.71,0,1,0,2.7-2.87A2.66,2.66,0,0,0,66.89,153.56Z"/></g></g></svg>