<svg xmlns="http://www.w3.org/2000/svg" viewBox="0 0 499.96 319.34"><defs><style>.cls-1,.cls-4{fill:none;stroke:#c85f71;stroke-miterlimit:10;}.cls-1{stroke-width:0.61px;}.cls-2{fill:#f6f4ef;}.cls-3{fill:#4d78a7;}.cls-4{stroke-width:0.5px;}</style></defs><title>inf-estepa</title><g id="Capa_2" data-name="Capa 2"><g id="Capa_1-2" data-name="Capa 1"><line class="cls-1" x1="386.53" y1="235.67" x2="499.96" y2="235.67"/><path class="cls-2" d="M401.24,225.17h-6.67l-1.88,4.42h-1.93L398,213.16l7,16.43h-1.93Zm-.68-1.64-2.63-6.28-2.68,6.28Z"/><path class="cls-2" d="M406.16,219.84h1.69v1a2.82,2.82,0,0,1,2.42-1.27,2.92,2.92,0,0,1,2.65,1.58,3.27,3.27,0,0,1,2.94-1.58c2.89,0,3.17,2.42,3.17,3.81v6.18h-1.69v-5.92c0-1.11-.14-2.56-1.74-2.56-2,0-2.16,1.88-2.16,3v5.43h-1.69v-5.78c0-.68,0-2.7-1.76-2.7-1.93,0-2.14,2-2.14,3.17v5.31h-1.69Z"/><path class="cls-2" d="M430.27,227.1a5.76,5.76,0,0,1-1.2,1.57,4.73,4.73,0,0,1-3.24,1.2c-2.35,0-4.82-1.48-4.82-5.1,0-2.91,1.79-5.17,4.72-5.17a4.34,4.34,0,0,1,3.69,1.79,6.52,6.52,0,0,1,.92,3.66h-7.59a3.12,3.12,0,0,0,3.1,3.32,3,3,0,0,0,2-.71,3.89,3.89,0,0,0,1-1.34Zm-1.67-3.46a2.91,2.91,0,0,0-2.87-2.53,3,3,0,0,0-2.86,2.53Z"/><path class="cls-2" d="M432.29,219.84H434V221a3.46,3.46,0,0,1,2.8-1.37,3.32,3.32,0,0,1,2.8,1.34,4.38,4.38,0,0,1,.56,2.61v6h-1.69v-6a2.88,2.88,0,0,0-.45-1.79,1.91,1.91,0,0,0-1.6-.7,2.12,2.12,0,0,0-1.71.75,4.1,4.1,0,0,0-.71,2.63v5.1h-1.69Z"/><path class="cls-2" d="M443.55,215a1.2,1.2,0,1,1-1.2,1.2A1.2,1.2,0,0,1,443.55,215Zm.85,4.89v9.75h-1.69v-9.75Z"/><path class="cls-2" d="M454.43,212.46h1.69v17.13h-1.69v-1.36a4.09,4.09,0,0,1-3.33,1.64c-2.47,0-4.75-1.74-4.75-5.17s2.25-5.1,4.75-5.1a4,4,0,0,1,3.33,1.62Zm-6.34,12.24c0,2.09,1.17,3.67,3.19,3.67s3.25-1.72,3.25-3.64a3.3,3.3,0,0,0-3.25-3.62C449.62,221.11,448.09,222.33,448.09,224.7Z"/><path class="cls-2" d="M466.16,219.84h1.69v9.75h-1.69v-1.36a4.1,4.1,0,0,1-3.34,1.64c-2.46,0-4.74-1.74-4.74-5.17s2.25-5.1,4.74-5.1a4.07,4.07,0,0,1,3.34,1.62Zm-6.34,4.86c0,2.09,1.17,3.67,3.19,3.67s3.24-1.72,3.24-3.64a3.3,3.3,0,0,0-3.24-3.62C461.34,221.11,459.82,222.33,459.82,224.7Z"/><path class="cls-2" d="M477.89,212.46h1.69v17.13h-1.69v-1.36a4.1,4.1,0,0,1-3.34,1.64c-2.46,0-4.74-1.74-4.74-5.17s2.25-5.1,4.74-5.1a4.07,4.07,0,0,1,3.34,1.62Zm-6.35,12.24c0,2.09,1.18,3.67,3.2,3.67s3.24-1.72,3.24-3.64a3.3,3.3,0,0,0-3.24-3.62C473.07,221.11,471.54,222.33,471.54,224.7Z"/><path class="cls-2" d="M490.79,227.1a5.57,5.57,0,0,1-1.2,1.57,4.71,4.71,0,0,1-3.24,1.2c-2.35,0-4.82-1.48-4.82-5.1,0-2.91,1.79-5.17,4.73-5.17a4.36,4.36,0,0,1,3.69,1.79,6.52,6.52,0,0,1,.91,3.66h-7.59a3.13,3.13,0,0,0,3.11,3.32,3,3,0,0,0,2-.71,3.77,3.77,0,0,0,1-1.34Zm-1.66-3.46a2.93,2.93,0,0,0-2.87-2.53,3,3,0,0,0-2.87,2.53Z"/><path class="cls-2" d="M496.83,222.09a1.48,1.48,0,0,0-1.36-1,1.07,1.07,0,0,0-1.17,1.1c0,.71.47.92,1.57,1.39a6,6,0,0,1,2.45,1.5,2.33,2.33,0,0,1,.51,1.58,3.1,3.1,0,0,1-3.36,3.19,3.48,3.48,0,0,1-3.41-2.49l1.46-.61a2.21,2.21,0,0,0,2,1.6,1.51,1.51,0,0,0,1.59-1.55c0-.92-.65-1.23-1.57-1.62a6.29,6.29,0,0,1-2.37-1.44,2.1,2.1,0,0,1-.45-1.43,2.62,2.62,0,0,1,2.84-2.73,2.82,2.82,0,0,1,2.68,1.77Z"/><path class="cls-2" d="M449.5,250.44v5.71h-.8v-12H451c2,0,3.51,1.08,3.51,3.13s-1.43,3.17-3.5,3.17Zm0-.72h1.58a2.37,2.37,0,0,0,2.63-2.43c0-1.5-1-2.43-2.76-2.43H449.5Z"/><path class="cls-2" d="M461.81,248.8h.72v7.35h-.72v-1.32a3.34,3.34,0,0,1-2.86,1.51,3.61,3.61,0,0,1-3.59-3.87,3.53,3.53,0,0,1,3.59-3.83,3.35,3.35,0,0,1,2.86,1.44Zm-5.69,3.62a3,3,0,0,0,2.88,3.24c1.84,0,2.84-1.55,2.84-3.24a2.87,2.87,0,1,0-5.72,0Z"/><path class="cls-2" d="M466.58,243v13.13h-.72V243Z"/><path class="cls-2" d="M475.88,248.8h.72v7.35h-.72v-1.32a3.32,3.32,0,0,1-2.86,1.51,3.6,3.6,0,0,1-3.58-3.87,3.52,3.52,0,0,1,3.58-3.83,3.35,3.35,0,0,1,2.86,1.44Zm-5.69,3.62a3,3,0,0,0,2.89,3.24,3,3,0,0,0,2.84-3.24,2.87,2.87,0,1,0-5.73,0Z"/><path class="cls-2" d="M480.65,260.29h-.72V248.8h.72v1.28a3.45,3.45,0,0,1,2.88-1.44,3.51,3.51,0,0,1,3.57,3.78,3.62,3.62,0,0,1-3.6,3.92,3.21,3.21,0,0,1-2.85-1.51Zm5.69-7.87a2.87,2.87,0,1,0-5.72,0c0,1.84,1,3.28,2.86,3.28S486.34,254.22,486.34,252.42Z"/><path class="cls-2" d="M495.94,248.8h.72v7.35h-.72v-1.32a3.35,3.35,0,0,1-2.87,1.51,3.6,3.6,0,0,1-3.58-3.87,3.52,3.52,0,0,1,3.58-3.83,3.37,3.37,0,0,1,2.87,1.44Zm-5.69,3.62a2.88,2.88,0,1,0,5.72,0,2.87,2.87,0,1,0-5.72,0Z"/><path class="cls-2" d="M447.59,273.2h-5.11l-1.61,3.95H440l5.06-12.37,5,12.37h-.87Zm-.29-.72-2.25-5.69-2.29,5.69Z"/><path class="cls-2" d="M453.06,264v13.13h-.72V264Z"/><path class="cls-2" d="M457.11,264v7.06a3.43,3.43,0,0,1,2.88-1.44,3.51,3.51,0,0,1,3.57,3.78,3.63,3.63,0,0,1-3.61,3.92,3.2,3.2,0,0,1-2.84-1.51v1.32h-.72V264Zm5.69,9.4a2.87,2.87,0,1,0-5.73,0c0,1.84,1,3.28,2.87,3.28S462.8,275.22,462.8,273.42Z"/><path class="cls-2" d="M466.7,273.56a3,3,0,0,0,2.92,3.1,2.81,2.81,0,0,0,2.56-1.67l.61.35a3.71,3.71,0,1,1-3.28-5.7c2,0,3.48,1.58,3.48,3.92Zm5.53-.68a2.76,2.76,0,0,0-2.72-2.56,2.81,2.81,0,0,0-2.75,2.56Z"/><path class="cls-2" d="M475.85,269.8h.72v.95a1.73,1.73,0,0,1,1.62-1.11,1.61,1.61,0,0,1,.77.18l-.36.65a.77.77,0,0,0-.54-.15c-1.48,0-1.49,2-1.49,2.88v3.95h-.72Z"/><path class="cls-2" d="M487.15,271.53a3.34,3.34,0,0,0-2.54-1.21,3.17,3.17,0,0,0,0,6.34,3.64,3.64,0,0,0,2.66-1.32v1a4,4,0,0,1-2.68,1,3.85,3.85,0,0,1,.05-7.7,3.87,3.87,0,0,1,2.54.93Z"/><path class="cls-2" d="M495.94,269.8h.72v7.35h-.72v-1.32a3.35,3.35,0,0,1-2.87,1.51,3.6,3.6,0,0,1-3.58-3.87,3.52,3.52,0,0,1,3.58-3.83,3.37,3.37,0,0,1,2.87,1.44Zm-5.69,3.62a2.88,2.88,0,1,0,5.72,0,2.87,2.87,0,1,0-5.72,0Z"/><path class="cls-2" d="M389.56,288.58a5.41,5.41,0,1,0-4,9,5.55,5.55,0,0,0,4-1.82v1.05a6,6,0,0,1-4,1.49,6.19,6.19,0,1,1,0-12.37,5.86,5.86,0,0,1,4,1.57Z"/><path class="cls-2" d="M398,290.8h.72v7.35H398v-1.32a3.33,3.33,0,0,1-2.86,1.51,3.6,3.6,0,0,1-3.58-3.87,3.52,3.52,0,0,1,3.58-3.83,3.35,3.35,0,0,1,2.86,1.44Zm-5.69,3.62a3,3,0,0,0,2.88,3.24,3,3,0,0,0,2.85-3.24,2.87,2.87,0,1,0-5.73,0Z"/><path class="cls-2" d="M402,290.8h.72V292a2.45,2.45,0,0,1,2.25-1.31,2.3,2.3,0,0,1,2,1,3.61,3.61,0,0,1,.36,1.86v4.63h-.72v-4.63a2.74,2.74,0,0,0-.29-1.48,1.56,1.56,0,0,0-1.44-.72,1.93,1.93,0,0,0-1.8,1,3.91,3.91,0,0,0-.4,2v3.82H402Z"/><path class="cls-2" d="M416.61,292.53a3.34,3.34,0,0,0-2.54-1.21,3.17,3.17,0,0,0,0,6.34,3.64,3.64,0,0,0,2.66-1.32v1a4,4,0,0,1-2.68,1,3.85,3.85,0,0,1,.05-7.7,3.87,3.87,0,0,1,2.54.93Z"/><path class="cls-2" d="M419.42,285h.72V292a2.45,2.45,0,0,1,2.25-1.31,2.28,2.28,0,0,1,2,1,3.51,3.51,0,0,1,.36,1.86v4.63h-.72v-4.63a2.73,2.73,0,0,0-.28-1.48,1.57,1.57,0,0,0-1.44-.72,1.94,1.94,0,0,0-1.81,1,4,4,0,0,0-.39,2v3.82h-.72Z"/><path class="cls-2" d="M433.71,290.8h.72v7.35h-.72v-1.32a3.34,3.34,0,0,1-2.86,1.51,3.6,3.6,0,0,1-3.58-3.87,3.52,3.52,0,0,1,3.58-3.83,3.35,3.35,0,0,1,2.86,1.44ZM428,294.42a3,3,0,0,0,2.88,3.24,3,3,0,0,0,2.85-3.24,2.87,2.87,0,1,0-5.73,0Z"/><path class="cls-2" d="M448.67,285h.72v13.13h-.72v-1.32a3.34,3.34,0,0,1-2.85,1.51,3.59,3.59,0,0,1-3.6-3.9,3.47,3.47,0,0,1,3.6-3.8,3.33,3.33,0,0,1,2.85,1.44Zm-5.69,9.4a2.89,2.89,0,1,0,5.73,0,2.87,2.87,0,0,0-2.89-3.1A2.81,2.81,0,0,0,443,294.42Z"/><path class="cls-2" d="M453,294.56a3,3,0,0,0,2.92,3.1,2.8,2.8,0,0,0,2.55-1.67l.62.35a3.71,3.71,0,1,1-3.28-5.7c2,0,3.47,1.58,3.47,3.92Zm5.53-.68a2.76,2.76,0,0,0-2.72-2.56,2.81,2.81,0,0,0-2.76,2.56Z"/><path class="cls-2" d="M467.75,291.48v6.67H467v-6.67h-.81v-.68H467v-2.63h.72v2.63H469v.68Z"/><path class="cls-2" d="M471.45,294.56a3,3,0,0,0,2.92,3.1,2.81,2.81,0,0,0,2.56-1.67l.61.35a3.71,3.71,0,1,1-3.28-5.7c2,0,3.48,1.58,3.48,3.92Zm5.53-.68a2.76,2.76,0,0,0-2.72-2.56,2.81,2.81,0,0,0-2.75,2.56Z"/><path class="cls-2" d="M480.56,290.8h.72V292a2.45,2.45,0,0,1,2.25-1.31,2.29,2.29,0,0,1,2,1,3.61,3.61,0,0,1,.36,1.86v4.63h-.72v-4.63a2.74,2.74,0,0,0-.29-1.48,1.56,1.56,0,0,0-1.44-.72,1.93,1.93,0,0,0-1.8,1,3.91,3.91,0,0,0-.4,2v3.82h-.72Z"/><path class="cls-2" d="M488.93,288.35a.65.65,0,1,1,.65.67A.64.64,0,0,1,488.93,288.35Zm1,2.45v7.35h-.72V290.8Z"/><path class="cls-2" d="M496.37,292.15a1.35,1.35,0,0,0-1.28-.83,1.18,1.18,0,0,0-1.24,1.17c0,.72.57,1,1.29,1.24a4.08,4.08,0,0,1,1.89,1.08,1.76,1.76,0,0,1,.38,1.19,2.24,2.24,0,0,1-2.39,2.34,2.51,2.51,0,0,1-2.54-1.94l.7-.22a1.87,1.87,0,0,0,1.84,1.48,1.57,1.57,0,0,0,1.63-1.62c0-.83-.52-1.14-1.63-1.59a3.66,3.66,0,0,1-1.61-1,1.53,1.53,0,0,1-.32-1,1.86,1.86,0,0,1,2-1.89,2,2,0,0,1,1.93,1.19Z"/><path class="cls-2" d="M437.09,315.2H432l-1.6,3.95h-.87l5.06-12.37,5,12.37h-.86Zm-.28-.72-2.25-5.69-2.29,5.69Z"/><path class="cls-2" d="M444.62,313.15a1.34,1.34,0,0,0-1.28-.83,1.18,1.18,0,0,0-1.24,1.17c0,.72.57,1,1.29,1.24a4,4,0,0,1,1.89,1.08,1.76,1.76,0,0,1,.38,1.19,2.24,2.24,0,0,1-2.39,2.34,2.51,2.51,0,0,1-2.54-1.94l.7-.22a1.87,1.87,0,0,0,1.84,1.48,1.58,1.58,0,0,0,1.64-1.62c0-.83-.53-1.14-1.64-1.59a3.66,3.66,0,0,1-1.61-1,1.53,1.53,0,0,1-.32-1,1.86,1.86,0,0,1,2-1.89,2,2,0,0,1,1.93,1.19Z"/><path class="cls-2" d="M454.21,311.8h.72v7.35h-.72v-1.32a3.34,3.34,0,0,1-2.86,1.51,3.6,3.6,0,0,1-3.58-3.87,3.52,3.52,0,0,1,3.58-3.83,3.35,3.35,0,0,1,2.86,1.44Zm-5.69,3.62a3,3,0,0,0,2.88,3.24,3,3,0,0,0,2.85-3.24,2.87,2.87,0,1,0-5.73,0Z"/><path class="cls-2" d="M464.24,306H465v13.13h-.72v-1.32a3.34,3.34,0,0,1-2.85,1.51,3.59,3.59,0,0,1-3.6-3.9,3.47,3.47,0,0,1,3.6-3.8,3.33,3.33,0,0,1,2.85,1.44Zm-5.69,9.4a2.88,2.88,0,1,0,5.72,0,2.86,2.86,0,0,0-2.88-3.1A2.81,2.81,0,0,0,458.55,315.42Z"/><path class="cls-2" d="M475.53,315.49a3.86,3.86,0,1,1-3.86-3.85A3.79,3.79,0,0,1,475.53,315.49Zm-.76,0a3.1,3.1,0,1,0-3.1,3.17A3.08,3.08,0,0,0,474.77,315.49Z"/><path class="cls-2" d="M478.38,311.8h.73v.95a1.72,1.72,0,0,1,1.62-1.11,1.64,1.64,0,0,1,.77.18l-.36.65a.79.79,0,0,0-.54-.15c-1.48,0-1.49,2-1.49,2.88v3.95h-.73Z"/><path class="cls-2" d="M484.09,315.56a3,3,0,0,0,2.92,3.1,2.78,2.78,0,0,0,2.55-1.67l.62.35a3.71,3.71,0,1,1-3.28-5.7c2,0,3.47,1.58,3.47,3.92Zm5.53-.68a2.76,2.76,0,0,0-2.72-2.56,2.81,2.81,0,0,0-2.75,2.56Z"/><path class="cls-2" d="M496.37,313.15a1.34,1.34,0,0,0-1.28-.83,1.18,1.18,0,0,0-1.24,1.17c0,.72.57,1,1.29,1.24a4,4,0,0,1,1.89,1.08,1.76,1.76,0,0,1,.38,1.19,2.24,2.24,0,0,1-2.39,2.34,2.51,2.51,0,0,1-2.54-1.94l.7-.22a1.87,1.87,0,0,0,1.84,1.48,1.58,1.58,0,0,0,1.64-1.62c0-.83-.53-1.14-1.64-1.59a3.66,3.66,0,0,1-1.61-1,1.53,1.53,0,0,1-.32-1,1.86,1.86,0,0,1,2-1.89,2,2,0,0,1,1.93,1.19Z"/><path class="cls-3" d="M370.9,147.06c1.11-1.31,8.37-9.58,10.6-12.93,1.67-2.51,3.63-6.32,3.63-9.95a9,9,0,0,0-9.21-9.39c-6.32,0-9.67,5-9.86,10.32H353.6c.56-12.65,9.49-20.74,21.76-20.74,14.42,0,21.86,9.86,21.86,19.72,0,9.58-6.42,16.46-11.26,21.66l-10.69,11.63h22.41V167.8h-45Z"/><path class="cls-3" d="M419.82,147.06c1.11-1.31,8.37-9.58,10.6-12.93,1.67-2.51,3.63-6.32,3.63-9.95a9,9,0,0,0-9.21-9.39c-6.32,0-9.67,5-9.86,10.32H402.52c.56-12.65,9.49-20.74,21.76-20.74,14.42,0,21.86,9.86,21.86,19.72,0,9.58-6.42,16.46-11.26,21.66l-10.69,11.63H446.6V167.8h-45Z"/><path class="cls-3" d="M452.46,122c1.12-11.26,9.58-17.58,20.19-17.58,11.9,0,19.43,6.7,19.43,17.11,0,3.26-.65,9.4-7.16,13,2.51,1,9.49,4.56,9.49,14.79,0,12.74-9.86,19.9-22.14,19.9-11.9,0-21.29-7.35-22.32-19.25H462c.75,5.12,4.38,8.84,10.33,8.84,7,0,9.95-5.12,9.95-9.86,0-4.56-2.79-9.67-10.32-9.67h-1.59V130.5h1.68c6,0,8.46-4.18,8.46-8.46,0-4.93-3.25-8.18-8.18-8.18a8.23,8.23,0,0,0-8.56,8.09Z"/><path class="cls-2" d="M435.85,146.12v19.39h6v2.28h-8.38V146.12Z"/><path class="cls-2" d="M445,161.1a7.15,7.15,0,1,1,7.14,7.08A6.92,6.92,0,0,1,445,161.1Zm2.4,0a4.75,4.75,0,1,0,4.74-5A4.67,4.67,0,0,0,447.38,161.1Z"/><path class="cls-2" d="M466.57,156.45v11.34h-2.33V156.45h-1.43v-2.14h1.43v-4.88h2.33v4.88h2.34v2.14Z"/><path class="cls-2" d="M484.41,164.35a8.1,8.1,0,0,1-1.66,2.17,6.51,6.51,0,0,1-4.48,1.66c-3.25,0-6.66-2.05-6.66-7.05,0-4,2.47-7.15,6.53-7.15a6,6,0,0,1,5.1,2.47,9.13,9.13,0,0,1,1.27,5.07H474a4.32,4.32,0,0,0,4.29,4.58,4.08,4.08,0,0,0,2.76-1,5.34,5.34,0,0,0,1.4-1.86Zm-2.31-4.78a4,4,0,0,0-4-3.51,4.11,4.11,0,0,0-4,3.51Z"/><path class="cls-2" d="M495,157.43a2.06,2.06,0,0,0-1.88-1.37,1.49,1.49,0,0,0-1.63,1.53c0,1,.65,1.27,2.18,1.91a8.28,8.28,0,0,1,3.38,2.08,3.22,3.22,0,0,1,.71,2.18c0,2.83-2,4.42-4.64,4.42a4.83,4.83,0,0,1-4.71-3.44l2-.85a3,3,0,0,0,2.73,2.21,2.09,2.09,0,0,0,2.21-2.14c0-1.27-.91-1.69-2.18-2.25a8.75,8.75,0,0,1-3.28-2,2.93,2.93,0,0,1-.62-2,3.63,3.63,0,0,1,3.94-3.77,3.89,3.89,0,0,1,3.7,2.44Z"/><path class="cls-2" d="M19.79,71.67H17.74l.71-1.27h2.69V82.58H19.79Z"/><path class="cls-2" d="M24.23,82.58l4.43-5.13c.31-.37,1.14-1.34,1.43-1.78a3.1,3.1,0,0,0,.67-1.86,2.3,2.3,0,0,0-2.42-2.37,2.34,2.34,0,0,0-2,1.07,2.65,2.65,0,0,0-.4,1.45H24.55a3.85,3.85,0,0,1,.92-2.52,3.59,3.59,0,0,1,2.88-1.25,3.6,3.6,0,0,1,3.77,3.64,4.31,4.31,0,0,1-1,2.61c-.51.71-1.17,1.46-1.66,2L27,81.34H32.1v1.24Z"/><path class="cls-2" d="M42.65,79.22a3.45,3.45,0,0,1-3.72,3.58,3.45,3.45,0,0,1-3.73-3.58,3.07,3.07,0,0,1,1.85-3,3,3,0,0,1-1.48-2.67,3.36,3.36,0,1,1,6.72,0,3,3,0,0,1-1.48,2.67A3.07,3.07,0,0,1,42.65,79.22Zm-1.35,0a2.38,2.38,0,0,0-4.75,0,2.38,2.38,0,1,0,4.75,0ZM41,73.59a2.08,2.08,0,1,0-2.08,2.1A2.05,2.05,0,0,0,41,73.59Z"/><path class="cls-2" d="M51.11,75h1.31v.8a2.21,2.21,0,0,1,1.89-1A2.27,2.27,0,0,1,56.37,76a2.52,2.52,0,0,1,2.28-1.22c2.25,0,2.47,1.88,2.47,3v4.81H59.8V78c0-.86-.11-2-1.35-2-1.51,0-1.68,1.47-1.68,2.38v4.22H55.46v-4.5c0-.52,0-2.1-1.37-2.1s-1.67,1.56-1.67,2.47v4.13H51.11Z"/><path class="cls-2" d="M64,82.58l4.44-5.13c.31-.37,1.13-1.34,1.42-1.78a3.12,3.12,0,0,0,.68-1.86,2.31,2.31,0,0,0-2.43-2.37,2.35,2.35,0,0,0-2,1.07,2.74,2.74,0,0,0-.4,1.45H64.37a3.85,3.85,0,0,1,.91-2.52,3.83,3.83,0,0,1,6.65,2.39,4.31,4.31,0,0,1-1,2.61c-.51.71-1.17,1.46-1.66,2l-2.54,2.87h5.15v1.24Z"/><path class="cls-2" d="M18.38,95.06a2,2,0,0,0,.32,1,2.19,2.19,0,0,0,1.71.9,2.25,2.25,0,0,0,2.18-2.25A2,2,0,0,0,21.67,93a2.33,2.33,0,0,0-1.23-.29V92.1a2,2,0,0,0,2-2,1.9,1.9,0,0,0-3.25-1.32,2.07,2.07,0,0,0-.5,1.3H18.1a2.64,2.64,0,0,1,.71-1.75,2.41,2.41,0,0,1,1.79-.7A2.37,2.37,0,0,1,23.13,90a2.44,2.44,0,0,1-1.53,2.34,2.38,2.38,0,0,1,1.66,2.37,2.81,2.81,0,0,1-2.85,2.84,2.72,2.72,0,0,1-2.32-1.26,2.37,2.37,0,0,1-.35-1.25Z"/><path class="cls-2" d="M25.7,97.41l3.71-4.09A10.74,10.74,0,0,0,30.47,92,3,3,0,0,0,31,90.35a2.27,2.27,0,0,0-3.92-1.46,2.37,2.37,0,0,0-.57,1.58h-.64a2.94,2.94,0,0,1,.77-2,2.87,2.87,0,0,1,2.15-.85,2.75,2.75,0,0,1,2.88,2.76,3.29,3.29,0,0,1-.7,2,13.23,13.23,0,0,1-.86,1l-3.1,3.44h4.62v.58Z"/><path class="cls-2" d="M39,86.82V97.41H38.4V86.82Z"/><path class="cls-2" d="M47.51,94.46a3.11,3.11,0,1,1-3.11-3.1A3.06,3.06,0,0,1,47.51,94.46Zm-.61,0A2.5,2.5,0,1,0,44.4,97,2.49,2.49,0,0,0,46.9,94.46Z"/><path class="cls-2" d="M50.44,92v5.37h-.58V92H49.2v-.55h.66V89.37h.58v2.12h1V92Z"/><path class="cls-2" d="M53.46,94.52A2.38,2.38,0,0,0,55.81,97a2.26,2.26,0,0,0,2.07-1.35l.49.29a3.57,3.57,0,1,1,.16-1.44ZM57.92,94a2.23,2.23,0,0,0-2.19-2.06A2.26,2.26,0,0,0,53.5,94Z"/><path class="cls-2" d="M63.36,92.58a1.07,1.07,0,0,0-1-.67,1,1,0,0,0-1,.94c0,.58.46.77,1.05,1a3.24,3.24,0,0,1,1.52.87,1.4,1.4,0,0,1,.31,1,1.81,1.81,0,0,1-1.94,1.88A2,2,0,0,1,60.22,96l.57-.17A1.5,1.5,0,0,0,62.27,97a1.27,1.27,0,0,0,1.32-1.31c0-.66-.42-.91-1.32-1.27A3,3,0,0,1,61,93.65a1.24,1.24,0,0,1-.26-.77,1.5,1.5,0,0,1,1.58-1.52,1.6,1.6,0,0,1,1.56,1Z"/><path class="cls-2" d="M89.07,72.32H87L87.74,71h2.68V83.23H89.07Z"/><path class="cls-2" d="M101,79.68h1.49v1.25H101v2.3H99.67v-2.3H93.42L101,70.37Zm-1.35,0V74.3l-3.86,5.38Z"/><path class="cls-2" d="M106.24,81.62a8.82,8.82,0,0,1,0-9,3.58,3.58,0,0,1,6.25,0,8.82,8.82,0,0,1,0,9,3.58,3.58,0,0,1-6.25,0Zm1-8.18a8.16,8.16,0,0,0,0,7.41,2.3,2.3,0,0,0,4.2,0,8.08,8.08,0,0,0,0-7.41,2.31,2.31,0,0,0-4.2,0Z"/><path class="cls-2" d="M121.54,75.65h1.32v.8a2.21,2.21,0,0,1,1.88-1,2.25,2.25,0,0,1,2.06,1.23,2.55,2.55,0,0,1,2.29-1.23c2.24,0,2.46,1.89,2.46,3v4.81h-1.31v-4.6c0-.86-.11-2-1.35-2-1.52,0-1.68,1.46-1.68,2.38v4.22h-1.32v-4.5c0-.52,0-2.1-1.37-2.1s-1.66,1.56-1.66,2.47v4.13h-1.32Z"/><path class="cls-2" d="M134.47,83.23l4.44-5.14c.31-.36,1.13-1.33,1.43-1.77a3.17,3.17,0,0,0,.67-1.86,2.3,2.3,0,0,0-2.43-2.37,2.33,2.33,0,0,0-2,1.07,2.74,2.74,0,0,0-.41,1.45H134.8a3.85,3.85,0,0,1,.92-2.52,3.82,3.82,0,0,1,6.64,2.39,4.28,4.28,0,0,1-1,2.61c-.52.71-1.17,1.46-1.67,2L137.2,82h5.15v1.24Z"/><path class="cls-2" d="M86.89,98.09,90.6,94a9.89,9.89,0,0,0,1.06-1.3A3,3,0,0,0,92.23,91a2.27,2.27,0,0,0-3.92-1.47,2.39,2.39,0,0,0-.57,1.59H87.1a3,3,0,0,1,.77-2A2.91,2.91,0,0,1,90,88.27,2.75,2.75,0,0,1,92.9,91a3.29,3.29,0,0,1-.7,2,13.23,13.23,0,0,1-.86,1l-3.1,3.44h4.62v.58Z"/><path class="cls-2" d="M95.55,95.74a2.19,2.19,0,0,0,.32,1,2.15,2.15,0,0,0,3.9-1.35,2,2,0,0,0-.92-1.77,2.29,2.29,0,0,0-1.23-.29v-.59a2,2,0,0,0,1.3-.45,2,2,0,0,0,.72-1.58,1.9,1.9,0,0,0-3.26-1.32,2,2,0,0,0-.49,1.29h-.61A2.59,2.59,0,0,1,96,89a2.56,2.56,0,0,1,4.31,1.73A2.43,2.43,0,0,1,98.78,93a2.38,2.38,0,0,1,1.66,2.36,2.81,2.81,0,0,1-2.85,2.85A2.77,2.77,0,0,1,95.26,97a2.37,2.37,0,0,1-.34-1.25Z"/><path class="cls-2" d="M108,87.5V98.09h-.58V87.5Z"/><path class="cls-2" d="M116.5,95.14A3.11,3.11,0,1,1,113.39,92,3.06,3.06,0,0,1,116.5,95.14Zm-.62,0a2.5,2.5,0,1,0-2.49,2.56A2.48,2.48,0,0,0,115.88,95.14Z"/><path class="cls-2" d="M119.43,92.72v5.37h-.59V92.72h-.65v-.56h.65V90h.59v2.12h1v.56Z"/><path class="cls-2" d="M122.45,95.2a2.38,2.38,0,0,0,2.35,2.5,2.27,2.27,0,0,0,2.06-1.35l.5.29a3.58,3.58,0,1,1,.16-1.44Zm4.46-.55a2.24,2.24,0,0,0-2.2-2.07,2.27,2.27,0,0,0-2.22,2.07Z"/><path class="cls-2" d="M132.35,93.25a1.09,1.09,0,0,0-1-.67,1,1,0,0,0-1,1c0,.58.46.77,1,1a3.23,3.23,0,0,1,1.53.87,1.48,1.48,0,0,1,.3,1,1.81,1.81,0,0,1-1.93,1.89,2,2,0,0,1-2-1.57l.57-.17a1.51,1.51,0,0,0,1.48,1.19,1.27,1.27,0,0,0,1.32-1.31c0-.67-.42-.91-1.32-1.28a2.87,2.87,0,0,1-1.29-.78,1.26,1.26,0,0,1-.26-.77A1.51,1.51,0,0,1,131.29,92a1.58,1.58,0,0,1,1.55,1Z"/><path class="cls-2" d="M167.45,73h-2l.71-1.27h2.68V83.87h-1.35Z"/><path class="cls-2" d="M179.05,72.16l-2.8,3.89a3.53,3.53,0,0,1,1.08-.16,3.86,3.86,0,0,1,3.95,4,4.2,4.2,0,0,1-8.4,0,4.82,4.82,0,0,1,1-2.79L178,71.39Zm.88,7.78a2.85,2.85,0,0,0-5.7,0,2.85,2.85,0,1,0,5.7,0Z"/><path class="cls-2" d="M185.07,82.26a8.82,8.82,0,0,1,0-9,3.59,3.59,0,0,1,6.25,0,8.82,8.82,0,0,1,0,9,3.58,3.58,0,0,1-6.25,0Zm1-8.18a8.1,8.1,0,0,0,0,7.42,2.31,2.31,0,0,0,4.2,0,8.18,8.18,0,0,0,0-7.42,2.31,2.31,0,0,0-4.2,0Z"/><path class="cls-2" d="M200.38,76.29h1.31v.8a2.21,2.21,0,0,1,1.89-1,2.27,2.27,0,0,1,2.06,1.22,2.52,2.52,0,0,1,2.28-1.22c2.25,0,2.47,1.88,2.47,3v4.8h-1.32v-4.6c0-.86-.11-2-1.35-2-1.51,0-1.68,1.46-1.68,2.37v4.22h-1.31V79.38c0-.53,0-2.1-1.37-2.1s-1.67,1.55-1.67,2.46v4.13h-1.31Z"/><path class="cls-2" d="M213.31,83.87l4.44-5.13c.31-.37,1.13-1.34,1.42-1.78a3.12,3.12,0,0,0,.68-1.86,2.31,2.31,0,0,0-2.43-2.37,2.34,2.34,0,0,0-2,1.08,2.67,2.67,0,0,0-.4,1.44h-1.35a3.87,3.87,0,0,1,.91-2.52,3.83,3.83,0,0,1,6.65,2.39,4.31,4.31,0,0,1-1,2.61c-.51.71-1.17,1.46-1.66,2L216,82.63h5.15v1.24Z"/><path class="cls-2" d="M165.26,98.64l3.72-4.1a10.76,10.76,0,0,0,1.06-1.3,3,3,0,0,0,.57-1.66,2.15,2.15,0,0,0-2.25-2.18,2.13,2.13,0,0,0-1.67.71,2.39,2.39,0,0,0-.57,1.59h-.64a3,3,0,0,1,.77-2,2.91,2.91,0,0,1,2.15-.84,2.75,2.75,0,0,1,2.88,2.76,3.29,3.29,0,0,1-.7,2,13.23,13.23,0,0,1-.86,1.05l-3.1,3.44h4.61v.58Z"/><path class="cls-2" d="M178.25,96.21h1.35v.59h-1.35v1.84h-.64V96.8h-5.22l5.86-8.17Zm-.64,0V90.52l-4.08,5.69Z"/><path class="cls-2" d="M186.38,88.05V98.64h-.58V88.05Z"/><path class="cls-2" d="M194.9,95.69a3.11,3.11,0,1,1-3.11-3.11A3.06,3.06,0,0,1,194.9,95.69Zm-.61,0a2.5,2.5,0,1,0-2.5,2.56A2.48,2.48,0,0,0,194.29,95.69Z"/><path class="cls-2" d="M197.83,93.27v5.37h-.58V93.27h-.65v-.56h.65V90.59h.58v2.12h1v.56Z"/><path class="cls-2" d="M200.85,95.75a2.39,2.39,0,0,0,2.36,2.5,2.27,2.27,0,0,0,2.06-1.35l.49.29a2.92,2.92,0,0,1-5.52-1.48,2.86,2.86,0,1,1,5.68,0Zm4.46-.55a2.22,2.22,0,0,0-2.19-2.07,2.26,2.26,0,0,0-2.22,2.07Z"/><path class="cls-2" d="M210.76,93.8a1.1,1.1,0,0,0-1-.67,1,1,0,0,0-1,1c0,.58.47.77,1.05,1a3.15,3.15,0,0,1,1.52.87,1.43,1.43,0,0,1,.31,1,1.81,1.81,0,0,1-1.93,1.89,2,2,0,0,1-2-1.57l.57-.17a1.51,1.51,0,0,0,1.48,1.19A1.27,1.27,0,0,0,211,96.94c0-.67-.42-.91-1.32-1.28a2.82,2.82,0,0,1-1.29-.78,1.2,1.2,0,0,1-.27-.77,1.51,1.51,0,0,1,1.59-1.53,1.59,1.59,0,0,1,1.55,1Z"/><path class="cls-2" d="M244.41,73.46h-2l.71-1.28h2.69V84.36h-1.35Z"/><path class="cls-2" d="M257.3,81a3.73,3.73,0,0,1-7.45,0,3.06,3.06,0,0,1,1.85-3,3,3,0,0,1-1.48-2.67,3.36,3.36,0,1,1,6.72,0A3,3,0,0,1,255.46,78,3.06,3.06,0,0,1,257.3,81ZM256,81a2.38,2.38,0,0,0-4.75,0A2.38,2.38,0,0,0,256,81Zm-.29-5.59a2.09,2.09,0,1,0-2.08,2.1A2.05,2.05,0,0,0,255.66,75.38Z"/><path class="cls-2" d="M261.58,82.76a8.76,8.76,0,0,1,0-9,3.57,3.57,0,0,1,6.24,0,8.76,8.76,0,0,1,0,9,3.58,3.58,0,0,1-6.24,0Zm1-8.19a8.1,8.1,0,0,0,0,7.42,2.31,2.31,0,0,0,4.2,0,8.18,8.18,0,0,0,0-7.42,2.31,2.31,0,0,0-4.2,0Z"/><path class="cls-2" d="M276.88,76.78h1.31v.81a2.21,2.21,0,0,1,1.89-1,2.28,2.28,0,0,1,2.06,1.22,2.52,2.52,0,0,1,2.28-1.22c2.25,0,2.47,1.88,2.47,3v4.8h-1.32v-4.6c0-.86-.11-2-1.35-2-1.51,0-1.68,1.46-1.68,2.37v4.22h-1.31V79.87c0-.53,0-2.1-1.37-2.1s-1.67,1.55-1.67,2.47v4.12h-1.31Z"/><path class="cls-2" d="M289.81,84.36l4.44-5.13c.31-.36,1.13-1.33,1.42-1.77a3.14,3.14,0,0,0,.68-1.86,2.31,2.31,0,0,0-2.43-2.38,2.36,2.36,0,0,0-2,1.08,2.7,2.7,0,0,0-.4,1.44h-1.35a3.89,3.89,0,0,1,.91-2.52,3.83,3.83,0,0,1,6.65,2.39,4.31,4.31,0,0,1-1,2.62c-.51.71-1.17,1.46-1.66,2l-2.54,2.87h5.15v1.24Z"/><path class="cls-2" d="M248.23,96.78h1.35v.59h-1.35v1.84h-.64V97.37h-5.21l5.85-8.17Zm-.64,0V91.09l-4.08,5.69Z"/><path class="cls-2" d="M256.36,88.62V99.21h-.58V88.62Z"/><path class="cls-2" d="M264.89,96.26a3.11,3.11,0,1,1-3.11-3.11A3.06,3.06,0,0,1,264.89,96.26Zm-.61,0a2.5,2.5,0,1,0-2.5,2.56A2.49,2.49,0,0,0,264.28,96.26Z"/><path class="cls-2" d="M267.82,93.83v5.38h-.58V93.83h-.66v-.55h.66V91.16h.58v2.12h1v.55Z"/><path class="cls-2" d="M270.84,96.32a2.38,2.38,0,0,0,2.35,2.5,2.25,2.25,0,0,0,2.06-1.35l.5.29a3.58,3.58,0,1,1,.16-1.44Zm4.46-.55a2.24,2.24,0,0,0-2.2-2.07,2.27,2.27,0,0,0-2.22,2.07Z"/><path class="cls-2" d="M280.74,94.37a1.09,1.09,0,0,0-1-.67,1,1,0,0,0-1,1c0,.58.46.77,1,1a3.23,3.23,0,0,1,1.53.87,1.42,1.42,0,0,1,.3,1,1.81,1.81,0,0,1-1.93,1.89,2,2,0,0,1-2-1.57l.57-.17a1.51,1.51,0,0,0,1.48,1.19A1.27,1.27,0,0,0,281,97.51c0-.67-.42-.91-1.32-1.28a2.87,2.87,0,0,1-1.29-.78,1.26,1.26,0,0,1-.26-.77,1.51,1.51,0,0,1,1.58-1.53,1.6,1.6,0,0,1,1.56,1Z"/><line class="cls-4" x1="2.11" y1="65.07" x2="300.51" y2="65.07"/><path class="cls-2" d="M17.66,185.78l4.44-5.13c.31-.37,1.13-1.34,1.42-1.78A3.12,3.12,0,0,0,24.2,177a2.31,2.31,0,0,0-2.43-2.37,2.35,2.35,0,0,0-2,1.07,2.83,2.83,0,0,0-.4,1.45H18a3.9,3.9,0,0,1,.91-2.52,3.61,3.61,0,0,1,2.89-1.25A3.6,3.6,0,0,1,25.55,177a4.31,4.31,0,0,1-1,2.61c-.51.71-1.16,1.46-1.66,2l-2.54,2.87h5.15v1.24Z"/><path class="cls-2" d="M29.48,184.17a8.76,8.76,0,0,1,0-8.95,3.58,3.58,0,0,1,6.25,0,8.82,8.82,0,0,1,0,8.95,3.58,3.58,0,0,1-6.25,0Zm1-8.18a8.16,8.16,0,0,0,0,7.41,2.3,2.3,0,0,0,4.2,0,8.08,8.08,0,0,0,0-7.41,2.31,2.31,0,0,0-4.2,0Z"/><path class="cls-2" d="M40.6,184.17a8.82,8.82,0,0,1,0-8.95,3.58,3.58,0,0,1,6.25,0,8.82,8.82,0,0,1,0,8.95,3.58,3.58,0,0,1-6.25,0Zm1-8.18a8.16,8.16,0,0,0,0,7.41,2.3,2.3,0,0,0,4.2,0,8.08,8.08,0,0,0,0-7.41,2.31,2.31,0,0,0-4.2,0Z"/><path class="cls-2" d="M55.9,178.2h1.32v.8a2.2,2.2,0,0,1,1.88-1,2.28,2.28,0,0,1,2.07,1.22A2.52,2.52,0,0,1,63.45,178c2.24,0,2.46,1.88,2.46,2.95v4.81H64.6v-4.6c0-.86-.11-2-1.35-2-1.52,0-1.68,1.47-1.68,2.38v4.22H60.25v-4.49c0-.53,0-2.11-1.37-2.11s-1.66,1.56-1.66,2.47v4.13H55.9Z"/><path class="cls-2" d="M68.83,185.78l4.44-5.13c.31-.37,1.14-1.34,1.43-1.78a3.1,3.1,0,0,0,.67-1.86,2.3,2.3,0,0,0-2.43-2.37,2.33,2.33,0,0,0-2,1.07,2.65,2.65,0,0,0-.4,1.45H69.16a3.85,3.85,0,0,1,.92-2.52A3.83,3.83,0,0,1,76.73,177a4.31,4.31,0,0,1-1,2.61c-.51.71-1.17,1.46-1.66,2l-2.54,2.87h5.15v1.24Z"/><path class="cls-2" d="M24.14,191.6H20.89l-.81,2.61a2.89,2.89,0,0,1,.65-.08,3.2,3.2,0,0,1,3.37,3.35,3.28,3.28,0,0,1-3.44,3.39,3.24,3.24,0,0,1-2.91-1.6l.57-.23a2.77,2.77,0,0,0,2.35,1.25,2.68,2.68,0,0,0,2.76-2.79,2.64,2.64,0,0,0-2.73-2.79,2.77,2.77,0,0,0-1.51.42L20.44,191h3.7Z"/><path class="cls-2" d="M32.7,191.6H29.44l-.81,2.61a2.89,2.89,0,0,1,.65-.08,3.19,3.19,0,0,1,3.37,3.35,3.28,3.28,0,0,1-3.44,3.39,3.24,3.24,0,0,1-2.91-1.6l.57-.23a2.77,2.77,0,0,0,2.35,1.25A2.68,2.68,0,0,0,32,197.5a2.64,2.64,0,0,0-2.73-2.79,2.77,2.77,0,0,0-1.51.42L29,191H32.7Z"/><path class="cls-2" d="M40,190.12v10.59h-.58V190.12Z"/><path class="cls-2" d="M48.55,197.76a3.11,3.11,0,1,1-3.11-3.11A3.06,3.06,0,0,1,48.55,197.76Zm-.61,0a2.5,2.5,0,1,0-2.5,2.56A2.48,2.48,0,0,0,47.94,197.76Z"/><path class="cls-2" d="M51.48,195.33v5.38H50.9v-5.38h-.65v-.55h.65v-2.12h.58v2.12h1v.55Z"/><path class="cls-2" d="M54.5,197.82a2.39,2.39,0,0,0,2.36,2.5A2.26,2.26,0,0,0,58.92,199l.49.3a3.59,3.59,0,1,1,.16-1.44Zm4.46-.55a2.22,2.22,0,0,0-2.19-2.07,2.26,2.26,0,0,0-2.22,2.07Z"/><path class="cls-2" d="M64.41,195.87a1.1,1.1,0,0,0-1-.67,1,1,0,0,0-1,1c0,.58.47.77,1.05,1A3.23,3.23,0,0,1,65,198a1.48,1.48,0,0,1,.3,1,1.81,1.81,0,0,1-1.93,1.89,2,2,0,0,1-2-1.57l.57-.17a1.51,1.51,0,0,0,1.48,1.19A1.27,1.27,0,0,0,64.64,199c0-.67-.42-.92-1.32-1.28A3,3,0,0,1,62,197a1.28,1.28,0,0,1-.27-.77,1.51,1.51,0,0,1,1.59-1.53,1.59,1.59,0,0,1,1.55,1Z"/><path class="cls-2" d="M87.07,183.74l4.44-5.13c.31-.36,1.13-1.33,1.43-1.77a3.19,3.19,0,0,0,.67-1.86,2.31,2.31,0,0,0-2.43-2.38,2.36,2.36,0,0,0-2,1.08,2.76,2.76,0,0,0-.4,1.44H87.4a4,4,0,0,1,.91-2.52,3.64,3.64,0,0,1,2.89-1.24A3.59,3.59,0,0,1,95,175a4.25,4.25,0,0,1-1,2.62,26,26,0,0,1-1.66,2l-2.54,2.87h5.15v1.24Z"/><path class="cls-2" d="M105.36,172.8h-3.91l-.79,2.63a3.67,3.67,0,0,1,.77-.07,4,4,0,0,1,4,4.22A4.26,4.26,0,0,1,101,184a4.09,4.09,0,0,1-2.72-1,5,5,0,0,1-1.06-1.24l1.08-.77a2.69,2.69,0,0,0,.82,1,3,3,0,0,0,2,.73,3,3,0,0,0,3-3.12,2.89,2.89,0,0,0-3-3,4,4,0,0,0-2.36.84l1.78-5.88h4.84Z"/><path class="cls-2" d="M107.73,183.74l4.44-5.13c.31-.36,1.13-1.33,1.42-1.77a3.14,3.14,0,0,0,.68-1.86,2.31,2.31,0,0,0-2.43-2.38,2.36,2.36,0,0,0-2,1.08,2.67,2.67,0,0,0-.4,1.44h-1.35a3.89,3.89,0,0,1,.91-2.52,3.83,3.83,0,0,1,6.65,2.39,4.31,4.31,0,0,1-1,2.62c-.51.71-1.17,1.46-1.66,2l-2.54,2.87h5.15v1.24Z"/><path class="cls-2" d="M124.18,176.16h1.32V177a2.21,2.21,0,0,1,1.88-1,2.26,2.26,0,0,1,2.06,1.22,2.54,2.54,0,0,1,2.29-1.22c2.24,0,2.46,1.88,2.46,3v4.8h-1.31v-4.6c0-.86-.11-2-1.35-2-1.52,0-1.68,1.46-1.68,2.37v4.22h-1.32v-4.49c0-.53,0-2.1-1.37-2.1s-1.66,1.55-1.66,2.47v4.12h-1.32Z"/><path class="cls-2" d="M137.11,183.74l4.44-5.13c.31-.36,1.13-1.33,1.43-1.77a3.19,3.19,0,0,0,.67-1.86,2.31,2.31,0,0,0-2.43-2.38,2.34,2.34,0,0,0-2,1.08,2.67,2.67,0,0,0-.41,1.44h-1.35a3.89,3.89,0,0,1,.92-2.52A3.83,3.83,0,0,1,145,175a4.29,4.29,0,0,1-1,2.62c-.52.71-1.17,1.46-1.67,2l-2.53,2.87H145v1.24Z"/><path class="cls-2" d="M93.37,189.51H90.11l-.81,2.61A2.43,2.43,0,0,1,90,192a3.2,3.2,0,0,1,3.37,3.36A3.45,3.45,0,0,1,87,197.18l.57-.24a2.77,2.77,0,0,0,2.35,1.25,2.68,2.68,0,0,0,2.76-2.79,2.63,2.63,0,0,0-2.73-2.78,2.68,2.68,0,0,0-1.51.42l1.25-4.12h3.71Z"/><path class="cls-2" d="M100.7,188v10.59h-.58V188Z"/><path class="cls-2" d="M109.22,195.67a3.11,3.11,0,1,1-3.11-3.11A3.06,3.06,0,0,1,109.22,195.67Zm-.61,0a2.5,2.5,0,1,0-2.5,2.55A2.48,2.48,0,0,0,108.61,195.67Z"/><path class="cls-2" d="M112.15,193.24v5.37h-.58v-5.37h-.65v-.55h.65v-2.12h.58v2.12h1v.55Z"/><path class="cls-2" d="M115.17,195.72a2.39,2.39,0,0,0,2.36,2.5,2.26,2.26,0,0,0,2.06-1.35l.49.29a2.92,2.92,0,0,1-5.52-1.48,2.85,2.85,0,1,1,5.68,0Zm4.46-.55a2.22,2.22,0,0,0-2.19-2.06,2.26,2.26,0,0,0-2.22,2.06Z"/><path class="cls-2" d="M125.08,193.78a1.08,1.08,0,0,0-1-.67,1,1,0,0,0-1,.94c0,.58.47.77,1,1a3.19,3.19,0,0,1,1.52.87,1.4,1.4,0,0,1,.31,1,1.8,1.8,0,0,1-1.93,1.88,2,2,0,0,1-2-1.56l.57-.18a1.5,1.5,0,0,0,1.48,1.19,1.27,1.27,0,0,0,1.32-1.3c0-.67-.42-.92-1.32-1.28a3,3,0,0,1-1.3-.79,1.24,1.24,0,0,1-.26-.77,1.51,1.51,0,0,1,1.59-1.52,1.6,1.6,0,0,1,1.55,1Z"/><path class="cls-2" d="M165.67,174.38a3.67,3.67,0,0,1,.56-1.79,3.47,3.47,0,0,1,6.27,1.86,2.92,2.92,0,0,1-1.57,2.71,2.9,2.9,0,0,1,1.75,2.94,3.76,3.76,0,0,1-7.14,1.57,3.46,3.46,0,0,1-.27-1.28h1.35a2.63,2.63,0,0,0,.44,1.22,2.24,2.24,0,0,0,1.88.92,2.42,2.42,0,0,0,2.39-2.47,2.16,2.16,0,0,0-1.21-2.05,3.14,3.14,0,0,0-1.39-.25v-1.21a2.66,2.66,0,0,0,1.39-.25,2.09,2.09,0,0,0-1.06-3.89,1.86,1.86,0,0,0-1.57.69,2.54,2.54,0,0,0-.47,1.28Z"/><path class="cls-2" d="M175.88,174.38a3.67,3.67,0,0,1,.56-1.79,3.47,3.47,0,0,1,6.27,1.86,2.92,2.92,0,0,1-1.57,2.71,2.9,2.9,0,0,1,1.75,2.94,3.76,3.76,0,0,1-7.14,1.57,3.69,3.69,0,0,1-.28-1.28h1.36a2.74,2.74,0,0,0,.43,1.22,2.27,2.27,0,0,0,1.89.92,2.42,2.42,0,0,0,2.39-2.47,2.18,2.18,0,0,0-1.21-2.05,3.14,3.14,0,0,0-1.39-.25v-1.21a2.66,2.66,0,0,0,1.39-.25,2.09,2.09,0,0,0-1.06-3.89,1.86,1.86,0,0,0-1.57.69,2.45,2.45,0,0,0-.47,1.28Z"/><path class="cls-2" d="M193.48,172.61h-3.91l-.78,2.63a3.06,3.06,0,0,1,.77-.07,4,4,0,0,1,4,4.21,4.26,4.26,0,0,1-4.43,4.39,4.19,4.19,0,0,1-2.73-1,5.14,5.14,0,0,1-1-1.24l1.07-.77a2.85,2.85,0,0,0,.82,1,3,3,0,0,0,2,.74,3,3,0,0,0,3-3.13,2.88,2.88,0,0,0-3-3,4,4,0,0,0-2.36.84l1.77-5.88h4.84Z"/><path class="cls-2" d="M202.1,176h1.32v.8a2.19,2.19,0,0,1,1.88-1,2.24,2.24,0,0,1,2.06,1.22,2.53,2.53,0,0,1,2.29-1.22c2.24,0,2.46,1.88,2.46,3v4.8H210.8V179c0-.86-.11-2-1.36-2-1.51,0-1.68,1.46-1.68,2.37v4.22h-1.31v-4.49c0-.53,0-2.1-1.37-2.1s-1.66,1.55-1.66,2.46v4.13H202.1Z"/><path class="cls-2" d="M215,183.55l4.44-5.13c.31-.37,1.13-1.34,1.43-1.78a3.17,3.17,0,0,0,.67-1.86,2.31,2.31,0,0,0-2.43-2.37,2.34,2.34,0,0,0-2,1.08,2.76,2.76,0,0,0-.4,1.44h-1.35a3.92,3.92,0,0,1,.91-2.52,3.83,3.83,0,0,1,6.65,2.39,4.24,4.24,0,0,1-1,2.61c-.51.71-1.16,1.46-1.66,2l-2.54,2.87h5.15v1.24Z"/><path class="cls-2" d="M171.51,189.44h-5.88v-.58h7l-6.93,9.85-.48-.37Z"/><path class="cls-2" d="M179.08,188v10.59h-.59V188Z"/><path class="cls-2" d="M187.6,195.6a3.11,3.11,0,1,1-3.11-3.11A3.06,3.06,0,0,1,187.6,195.6Zm-.61,0a2.5,2.5,0,1,0-2.5,2.56A2.48,2.48,0,0,0,187,195.6Z"/><path class="cls-2" d="M190.53,193.17v5.38H190v-5.38h-.65v-.55H190V190.5h.58v2.12h1v.55Z"/><path class="cls-2" d="M193.55,195.66a2.39,2.39,0,0,0,2.36,2.5A2.27,2.27,0,0,0,198,196.8l.49.29a3.58,3.58,0,1,1,.16-1.43Zm4.46-.55a2.22,2.22,0,0,0-2.19-2.07,2.26,2.26,0,0,0-2.22,2.07Z"/><path class="cls-2" d="M203.46,193.71a1.1,1.1,0,0,0-1-.67,1,1,0,0,0-1,1c0,.58.47.77,1.05,1a3.19,3.19,0,0,1,1.52.87,1.43,1.43,0,0,1,.31,1,1.81,1.81,0,0,1-1.93,1.89,2,2,0,0,1-2.05-1.57l.57-.18a1.51,1.51,0,0,0,1.48,1.2,1.27,1.27,0,0,0,1.32-1.31c0-.67-.42-.92-1.32-1.28a3.11,3.11,0,0,1-1.3-.78,1.28,1.28,0,0,1-.26-.77,1.51,1.51,0,0,1,1.59-1.53,1.6,1.6,0,0,1,1.55,1Z"/><line class="cls-4" y1="168.4" x2="225.48" y2="168.4"/><path class="cls-2" d="M25.35,282.15h1.49v1.24H25.35v2.3H24v-2.3H17.75l7.6-10.55Zm-1.35,0v-5.39l-3.86,5.39Z"/><path class="cls-2" d="M30.57,284.09a8.82,8.82,0,0,1,0-8.95,3.58,3.58,0,0,1,6.25,0,8.82,8.82,0,0,1,0,8.95,3.59,3.59,0,0,1-6.25,0Zm1-8.19a8.18,8.18,0,0,0,0,7.42,2.31,2.31,0,0,0,4.2,0,8.1,8.1,0,0,0,0-7.42,2.31,2.31,0,0,0-4.2,0Z"/><path class="cls-2" d="M48.54,282.33a3.45,3.45,0,0,1-3.73,3.58,3.45,3.45,0,0,1-3.72-3.58,3.06,3.06,0,0,1,1.84-3,3,3,0,0,1-1.48-2.67,3.37,3.37,0,1,1,6.73,0,3,3,0,0,1-1.48,2.67A3.06,3.06,0,0,1,48.54,282.33Zm-1.35,0a2.38,2.38,0,1,0-2.38,2.37A2.25,2.25,0,0,0,47.19,282.3Zm-.29-5.59a2.09,2.09,0,1,0-2.09,2.1A2.06,2.06,0,0,0,46.9,276.71Z"/><path class="cls-2" d="M57,278.11h1.31v.81a2.21,2.21,0,0,1,1.88-1,2.28,2.28,0,0,1,2.07,1.23,2.52,2.52,0,0,1,2.28-1.23c2.25,0,2.46,1.88,2.46,3v4.8H65.69v-4.6c0-.86-.11-2-1.35-2-1.52,0-1.68,1.46-1.68,2.38v4.21H61.34V281.2c0-.53,0-2.1-1.37-2.1s-1.66,1.55-1.66,2.47v4.12H57Z"/><path class="cls-2" d="M69.93,285.69l4.43-5.13c.32-.36,1.14-1.33,1.43-1.77a3.14,3.14,0,0,0,.68-1.86A2.31,2.31,0,0,0,74,274.55a2.36,2.36,0,0,0-2,1.08,2.7,2.7,0,0,0-.4,1.44H70.26a3.84,3.84,0,0,1,.91-2.52,3.83,3.83,0,0,1,6.65,2.4,4.31,4.31,0,0,1-1,2.61c-.51.71-1.17,1.46-1.66,2l-2.54,2.87H77.8v1.24Z"/><path class="cls-2" d="M23.41,298a2.68,2.68,0,0,1-2.8,2.73A2.68,2.68,0,0,1,17.8,298a2.55,2.55,0,0,1,1.59-2.46A2.44,2.44,0,0,1,18,293.27a2.58,2.58,0,0,1,5.15,0,2.45,2.45,0,0,1-1.35,2.23A2.56,2.56,0,0,1,23.41,298Zm-.67,0a2.14,2.14,0,1,0-2.13,2.15A2.07,2.07,0,0,0,22.74,298Zm-.23-4.69a1.91,1.91,0,1,0-1.9,2A1.9,1.9,0,0,0,22.51,293.27Z"/><path class="cls-2" d="M30.78,289.94v10.59H30.2V289.94Z"/><path class="cls-2" d="M39.31,297.58a3.11,3.11,0,1,1-3.11-3.11A3.06,3.06,0,0,1,39.31,297.58Zm-.61,0a2.5,2.5,0,1,0-2.5,2.56A2.49,2.49,0,0,0,38.7,297.58Z"/><path class="cls-2" d="M42.24,295.16v5.37h-.58v-5.37H41v-.56h.65v-2.12h.58v2.12h1v.56Z"/><path class="cls-2" d="M45.26,297.64a2.38,2.38,0,0,0,2.35,2.5,2.28,2.28,0,0,0,2.07-1.35l.49.29a3,3,0,1,1-2.64-4.61,2.89,2.89,0,0,1,2.8,3.17Zm4.46-.55A2.23,2.23,0,0,0,47.53,295a2.27,2.27,0,0,0-2.23,2.07Z"/><path class="cls-2" d="M55.16,295.69a1.09,1.09,0,0,0-1-.67,1,1,0,0,0-1,1c0,.58.47.77,1,1a3.24,3.24,0,0,1,1.52.87,1.43,1.43,0,0,1,.31,1,1.82,1.82,0,0,1-1.94,1.89,2,2,0,0,1-2-1.57l.56-.17a1.52,1.52,0,0,0,1.48,1.19,1.28,1.28,0,0,0,1.33-1.31c0-.67-.42-.91-1.33-1.28a2.87,2.87,0,0,1-1.29-.78,1.26,1.26,0,0,1-.26-.77,1.51,1.51,0,0,1,1.58-1.53,1.6,1.6,0,0,1,1.56,1Z"/><path class="cls-2" d="M94.65,282.11h1.49v1.24H94.65v2.31H93.29v-2.31H87.05l7.6-10.55Zm-1.36,0v-5.39l-3.85,5.39Z"/><path class="cls-2" d="M97.81,285.66l4.43-5.14c.31-.36,1.14-1.33,1.43-1.77a3.1,3.1,0,0,0,.67-1.86,2.31,2.31,0,0,0-2.42-2.38,2.35,2.35,0,0,0-2,1.08,2.63,2.63,0,0,0-.4,1.45H98.13a3.9,3.9,0,0,1,.92-2.53,3.83,3.83,0,0,1,6.65,2.4,4.31,4.31,0,0,1-1,2.61c-.51.71-1.17,1.46-1.66,2l-2.54,2.86h5.15v1.25Z"/><path class="cls-2" d="M109.62,284.05a8.82,8.82,0,0,1,0-8.95,3.58,3.58,0,0,1,6.25,0,8.82,8.82,0,0,1,0,8.95,3.58,3.58,0,0,1-6.25,0Zm1-8.18a8.08,8.08,0,0,0,0,7.41,2.31,2.31,0,0,0,4.2,0,8.16,8.16,0,0,0,0-7.41,2.3,2.3,0,0,0-4.2,0Z"/><path class="cls-2" d="M124.93,278.08h1.31v.8a2.21,2.21,0,0,1,1.88-1,2.28,2.28,0,0,1,2.07,1.23,2.54,2.54,0,0,1,2.28-1.23c2.25,0,2.47,1.89,2.47,3v4.81h-1.32v-4.61c0-.85-.11-2-1.35-2-1.52,0-1.68,1.46-1.68,2.38v4.22h-1.32v-4.5c0-.53,0-2.1-1.37-2.1s-1.66,1.56-1.66,2.47v4.13h-1.31Z"/><path class="cls-2" d="M137.86,285.66l4.44-5.14c.31-.36,1.13-1.33,1.42-1.77a3.12,3.12,0,0,0,.68-1.86,2.31,2.31,0,0,0-2.43-2.38,2.36,2.36,0,0,0-2,1.08,2.71,2.71,0,0,0-.4,1.45h-1.35a3.85,3.85,0,0,1,.91-2.53,3.83,3.83,0,0,1,6.65,2.4,4.31,4.31,0,0,1-1,2.61c-.51.71-1.17,1.46-1.66,2l-2.54,2.86h5.15v1.25Z"/><path class="cls-2" d="M88.46,291.41H86.94l.3-.58h1.85v9.69h-.63Z"/><path class="cls-2" d="M91.5,300.52l3.72-4.1a10.76,10.76,0,0,0,1.06-1.3,3,3,0,0,0,.57-1.66,2.15,2.15,0,0,0-2.25-2.18,2.11,2.11,0,0,0-1.67.71,2.37,2.37,0,0,0-.57,1.59h-.64a2.94,2.94,0,0,1,.77-2,2.91,2.91,0,0,1,2.15-.84,2.75,2.75,0,0,1,2.88,2.76,3.29,3.29,0,0,1-.7,2c-.22.3-.58.74-.86,1.05l-3.11,3.44h4.62v.58Z"/><path class="cls-2" d="M104.79,289.93v10.59h-.58V289.93Z"/><path class="cls-2" d="M113.32,297.57a3.11,3.11,0,1,1-3.11-3.11A3.06,3.06,0,0,1,113.32,297.57Zm-.61,0a2.5,2.5,0,1,0-2.5,2.56A2.49,2.49,0,0,0,112.71,297.57Z"/><path class="cls-2" d="M116.25,295.14v5.38h-.58v-5.38H115v-.55h.66v-2.12h.58v2.12h1v.55Z"/><path class="cls-2" d="M119.27,297.63a2.38,2.38,0,0,0,2.35,2.5,2.25,2.25,0,0,0,2.06-1.35l.5.29a3.58,3.58,0,1,1,.16-1.44Zm4.46-.55a2.24,2.24,0,0,0-2.2-2.07,2.27,2.27,0,0,0-2.22,2.07Z"/><path class="cls-2" d="M129.17,295.68a1.09,1.09,0,0,0-1-.67,1,1,0,0,0-1,.95c0,.58.46.77,1,1a3.23,3.23,0,0,1,1.53.87,1.42,1.42,0,0,1,.3,1,1.81,1.81,0,0,1-1.93,1.89,2,2,0,0,1-2.05-1.57l.57-.17a1.51,1.51,0,0,0,1.48,1.19,1.27,1.27,0,0,0,1.32-1.31c0-.67-.42-.91-1.32-1.28a3,3,0,0,1-1.29-.78,1.26,1.26,0,0,1-.26-.77,1.51,1.51,0,0,1,1.58-1.53,1.58,1.58,0,0,1,1.55,1Z"/><path class="cls-2" d="M173.4,274.73h-3.91l-.78,2.63a3.51,3.51,0,0,1,.76-.07,4,4,0,0,1,4,4.22,4.26,4.26,0,0,1-4.44,4.38,4.11,4.11,0,0,1-2.72-.95,4.81,4.81,0,0,1-1.06-1.24l1.08-.76a2.85,2.85,0,0,0,.82,1,3,3,0,0,0,2,.73,3,3,0,0,0,3-3.12,2.89,2.89,0,0,0-3-3,4,4,0,0,0-2.36.84l1.77-5.88h4.84Z"/><path class="cls-2" d="M177.84,284.07a8.76,8.76,0,0,1,0-8.95,3.57,3.57,0,0,1,6.24,0,8.76,8.76,0,0,1,0,8.95,3.58,3.58,0,0,1-6.24,0Zm1-8.19a8.18,8.18,0,0,0,0,7.42,2.31,2.31,0,0,0,4.2,0,8.1,8.1,0,0,0,0-7.42,2.31,2.31,0,0,0-4.2,0Z"/><path class="cls-2" d="M194.4,282.13h1.5v1.24h-1.5v2.3h-1.35v-2.3h-6.24l7.59-10.55Zm-1.35,0v-5.39l-3.85,5.39Z"/><path class="cls-2" d="M203.81,278.09h1.31v.81a2.21,2.21,0,0,1,1.88-1,2.28,2.28,0,0,1,2.07,1.23,2.54,2.54,0,0,1,2.28-1.23c2.25,0,2.47,1.88,2.47,3v4.8H212.5v-4.6c0-.86-.11-2-1.35-2-1.52,0-1.68,1.46-1.68,2.38v4.21h-1.32v-4.49c0-.53,0-2.1-1.36-2.1s-1.67,1.55-1.67,2.47v4.12h-1.31Z"/><path class="cls-2" d="M216.74,285.67l4.44-5.13c.31-.36,1.13-1.33,1.42-1.77a3.12,3.12,0,0,0,.68-1.86,2.31,2.31,0,0,0-2.43-2.38,2.36,2.36,0,0,0-2,1.08,2.7,2.7,0,0,0-.4,1.44h-1.35a3.89,3.89,0,0,1,.91-2.52,3.83,3.83,0,0,1,6.65,2.4,4.31,4.31,0,0,1-1,2.61c-.51.71-1.17,1.46-1.66,2l-2.54,2.86h5.15v1.24Z"/><path class="cls-2" d="M171.62,291.43h-3.25l-.82,2.62a2.56,2.56,0,0,1,.66-.09,3.2,3.2,0,0,1,3.37,3.35,3.29,3.29,0,0,1-3.44,3.39,3.24,3.24,0,0,1-2.91-1.6l.57-.23a2.76,2.76,0,0,0,2.35,1.25,2.68,2.68,0,0,0,2.76-2.79,2.64,2.64,0,0,0-2.73-2.79,2.77,2.77,0,0,0-1.51.42l1.25-4.11h3.7Z"/><path class="cls-2" d="M179,290v10.59h-.58V290Z"/><path class="cls-2" d="M187.48,297.59a3.11,3.11,0,1,1-3.11-3.11A3.06,3.06,0,0,1,187.48,297.59Zm-.61,0a2.5,2.5,0,1,0-2.5,2.56A2.49,2.49,0,0,0,186.87,297.59Z"/><path class="cls-2" d="M190.41,295.16v5.38h-.58v-5.38h-.66v-.55h.66v-2.12h.58v2.12h1v.55Z"/><path class="cls-2" d="M193.43,297.65a2.38,2.38,0,0,0,2.35,2.5,2.25,2.25,0,0,0,2.06-1.35l.5.29a3.58,3.58,0,1,1,.16-1.44Zm4.46-.55a2.24,2.24,0,0,0-2.2-2.07,2.27,2.27,0,0,0-2.22,2.07Z"/><path class="cls-2" d="M203.33,295.7a1.09,1.09,0,0,0-1-.67,1,1,0,0,0-1,1c0,.58.46.77,1,1a3.24,3.24,0,0,1,1.52.87,1.43,1.43,0,0,1,.31,1,1.82,1.82,0,0,1-1.94,1.89,2,2,0,0,1-2.05-1.57l.57-.17a1.51,1.51,0,0,0,1.48,1.19,1.27,1.27,0,0,0,1.32-1.31c0-.67-.42-.92-1.32-1.28a3,3,0,0,1-1.29-.78,1.26,1.26,0,0,1-.26-.77,1.51,1.51,0,0,1,1.58-1.53,1.6,1.6,0,0,1,1.56,1Z"/><line class="cls-4" x1="2.58" y1="268.19" x2="226.74" y2="268.19"/><path class="cls-3" d="M448.06,17.58C449.18,6.32,457.64,0,468.25,0c11.9,0,19.43,6.7,19.43,17.11,0,3.26-.65,9.4-7.16,13,2.51,1,9.49,4.56,9.49,14.79,0,12.74-9.86,19.9-22.14,19.9-11.9,0-21.29-7.34-22.32-19.25h12.09c.75,5.12,4.37,8.84,10.33,8.84,7,0,9.95-5.12,9.95-9.86,0-4.56-2.79-9.67-10.33-9.67H466V26.13h1.68c5.95,0,8.46-4.18,8.46-8.46,0-4.93-3.25-8.18-8.18-8.18a8.23,8.23,0,0,0-8.56,8.09Z"/><path class="cls-2" d="M337.84,47.89a10.74,10.74,0,0,0-2.83-2,9.24,9.24,0,0,0-3.74-.84,8.94,8.94,0,0,0,0,17.87,9,9,0,0,0,4-1,9.9,9.9,0,0,0,2.51-1.82v3a11.31,11.31,0,0,1-6.53,2.11,11.21,11.21,0,1,1,.13-22.42,10.24,10.24,0,0,1,6.4,2.15Z"/><path class="cls-2" d="M342.15,58.09a7.15,7.15,0,1,1,7.15,7.08A6.92,6.92,0,0,1,342.15,58.09Zm2.41,0a4.75,4.75,0,1,0,9.48,0,4.75,4.75,0,1,0-9.48,0Z"/><path class="cls-2" d="M361.35,51.3h2.33v1.56A4.76,4.76,0,0,1,367.55,51a4.6,4.6,0,0,1,3.87,1.85,6.05,6.05,0,0,1,.78,3.61v8.35h-2.34V56.5a4,4,0,0,0-.62-2.47,2.63,2.63,0,0,0-2.21-1,3,3,0,0,0-2.37,1,5.68,5.68,0,0,0-1,3.64v7.05h-2.33Z"/><path class="cls-2" d="M388.27,41.1h2.34V64.78h-2.34V62.9a5.7,5.7,0,0,1-4.61,2.27c-3.41,0-6.56-2.4-6.56-7.15S380.22,51,383.66,51a5.56,5.56,0,0,1,4.61,2.24ZM379.5,58c0,2.89,1.63,5.07,4.42,5.07s4.48-2.37,4.48-5c0-3.47-2.4-5-4.48-5C381.61,53.05,379.5,54.74,379.5,58Z"/><path class="cls-2" d="M395.51,58.09a7.15,7.15,0,1,1,7.15,7.08A6.92,6.92,0,0,1,395.51,58.09Zm2.41,0a4.75,4.75,0,1,0,9.48,0,4.75,4.75,0,1,0-9.48,0Z"/><path class="cls-2" d="M414.71,51.3h2.34v1.43A3.89,3.89,0,0,1,420.39,51a4,4,0,0,1,3.67,2.18A4.5,4.5,0,0,1,428.12,51c4,0,4.39,3.35,4.39,5.27v8.54h-2.34V56.59c0-1.52-.19-3.54-2.4-3.54-2.7,0-3,2.6-3,4.23v7.5h-2.34v-8c0-.94,0-3.74-2.44-3.74-2.66,0-2.95,2.76-2.95,4.39v7.34h-2.34Z"/><path class="cls-2" d="M439.46,44.54a1.66,1.66,0,1,1-1.66,1.66A1.66,1.66,0,0,1,439.46,44.54Zm1.17,6.76V64.78h-2.34V51.3Z"/><path class="cls-2" d="M446.37,51.3h2.34v1.56A4.76,4.76,0,0,1,452.58,51a4.57,4.57,0,0,1,3.86,1.85,6,6,0,0,1,.78,3.61v8.35h-2.33V56.5a4,4,0,0,0-.62-2.47,2.64,2.64,0,0,0-2.21-1,3,3,0,0,0-2.37,1,5.68,5.68,0,0,0-1,3.64v7.05h-2.34Z"/><path class="cls-2" d="M464.14,44.54a1.66,1.66,0,1,1-1.66,1.66A1.67,1.67,0,0,1,464.14,44.54Zm1.17,6.76V64.78H463V51.3Z"/><path class="cls-2" d="M470.21,58.09a7.15,7.15,0,1,1,7.15,7.08A6.92,6.92,0,0,1,470.21,58.09Zm2.41,0a4.75,4.75,0,1,0,9.48,0,4.75,4.75,0,1,0-9.48,0Z"/><path class="cls-2" d="M495,54.42a2.06,2.06,0,0,0-1.88-1.37,1.49,1.49,0,0,0-1.63,1.53c0,1,.65,1.27,2.18,1.92A8.19,8.19,0,0,1,497,58.57a3.22,3.22,0,0,1,.71,2.18c0,2.83-2,4.42-4.64,4.42a4.83,4.83,0,0,1-4.71-3.44l2-.85a3,3,0,0,0,2.73,2.21A2.09,2.09,0,0,0,495.32,61c0-1.27-.91-1.69-2.18-2.25a8.75,8.75,0,0,1-3.28-2,2.92,2.92,0,0,1-.61-2A3.62,3.62,0,0,1,493.18,51a3.89,3.89,0,0,1,3.7,2.44Z"/><path class="cls-3" d="M17.88,18.4H11.71V11.19H26.25V54.11H17.88Z"/><path class="cls-2" d="M24.2,43.06h-5v3.66h4.88V48H19.17v4.79h5V54.1H17.8V41.77h6.4Z"/><path class="cls-2" d="M30.3,48.2a1.18,1.18,0,0,0-1.07-.77.85.85,0,0,0-.93.87c0,.55.37.72,1.24,1.09a4.58,4.58,0,0,1,1.92,1.18,1.79,1.79,0,0,1,.41,1.24,2.44,2.44,0,0,1-2.64,2.52,2.74,2.74,0,0,1-2.68-2l1.14-.49a1.74,1.74,0,0,0,1.56,1.26,1.19,1.19,0,0,0,1.25-1.22c0-.72-.51-1-1.24-1.27a5.1,5.1,0,0,1-1.86-1.13A1.66,1.66,0,0,1,27,48.39a2.07,2.07,0,0,1,2.24-2.15,2.22,2.22,0,0,1,2.11,1.39Z"/><path class="cls-2" d="M35.77,47.65V54.1H34.44V47.65h-.81V46.43h.81V43.65h1.33v2.78H37.1v1.22Z"/><path class="cls-2" d="M45.92,52.14A4.42,4.42,0,0,1,45,53.38a3.72,3.72,0,0,1-2.55.95,3.68,3.68,0,0,1-3.79-4c0-2.29,1.4-4.07,3.71-4.07a3.43,3.43,0,0,1,2.91,1.41A5.12,5.12,0,0,1,46,50.53H40a2.45,2.45,0,0,0,2.44,2.61A2.33,2.33,0,0,0,44,52.59a3,3,0,0,0,.79-1.06Zm-1.31-2.72a2.29,2.29,0,0,0-2.26-2,2.33,2.33,0,0,0-2.25,2Z"/><path class="cls-2" d="M50.1,58.36H48.77V46.43H50.1V47.5a3.3,3.3,0,0,1,2.63-1.26,3.8,3.8,0,0,1,3.73,4.07,3.74,3.74,0,0,1-3.68,4A3.25,3.25,0,0,1,50.1,53Zm5-8a2.63,2.63,0,0,0-2.51-2.88A2.65,2.65,0,0,0,50,50.29a2.62,2.62,0,0,0,2.57,2.85A2.58,2.58,0,0,0,55.09,50.31Z"/><path class="cls-2" d="M65.13,46.43h1.33V54.1H65.13V53a3.23,3.23,0,0,1-2.62,1.3,3.72,3.72,0,0,1-3.74-4.07,3.69,3.69,0,0,1,3.74-4,3.17,3.17,0,0,1,2.62,1.28Zm-5,3.83c0,1.64.92,2.88,2.51,2.88a2.87,2.87,0,0,0,0-5.71A2.55,2.55,0,0,0,60.14,50.26Z"/><path class="cls-3" d="M9.87,227.77c.77-7.78,6.63-12.16,14-12.16,8.23,0,13.44,4.64,13.44,11.84a9.69,9.69,0,0,1-5,9c1.74.71,6.56,3.15,6.56,10.23,0,8.82-6.82,13.77-15.31,13.77-8.24,0-14.74-5.08-15.44-13.32H16.5a6.8,6.8,0,0,0,7.14,6.12,6.52,6.52,0,0,0,6.89-6.83c0-3.15-1.93-6.69-7.14-6.69h-1.1v-6.05h1.16c4.12,0,5.86-2.89,5.86-5.85a5.34,5.34,0,0,0-5.67-5.66,5.7,5.7,0,0,0-5.92,5.59Z"/><path class="cls-2" d="M25.5,249.15h-5v3.66h4.89v1.29H20.46v4.79h5v1.3H19.1V247.85h6.4Z"/><path class="cls-2" d="M31.59,254.29a1.16,1.16,0,0,0-1.07-.78.85.85,0,0,0-.92.87c0,.55.37.72,1.24,1.09a4.65,4.65,0,0,1,1.92,1.18,1.85,1.85,0,0,1,.41,1.24,2.45,2.45,0,0,1-2.65,2.52,2.75,2.75,0,0,1-2.68-2L29,258a1.74,1.74,0,0,0,1.55,1.25A1.19,1.19,0,0,0,31.8,258c0-.72-.52-1-1.24-1.27a4.94,4.94,0,0,1-1.87-1.13,1.7,1.7,0,0,1-.35-1.13,2.06,2.06,0,0,1,2.24-2.14,2.22,2.22,0,0,1,2.11,1.38Z"/><path class="cls-2" d="M37.07,253.73v6.46H35.74v-6.46h-.82v-1.22h.82v-2.77h1.33v2.77H38.4v1.22Z"/><path class="cls-2" d="M47.22,258.23a4.74,4.74,0,0,1-.94,1.23,3.76,3.76,0,0,1-2.56,1,3.67,3.67,0,0,1-3.79-4c0-2.3,1.41-4.07,3.72-4.07a3.43,3.43,0,0,1,2.9,1.4,5.16,5.16,0,0,1,.72,2.89h-6a2.45,2.45,0,0,0,2.44,2.6,2.31,2.31,0,0,0,1.57-.55,3,3,0,0,0,.8-1.05Zm-1.31-2.72a2.31,2.31,0,0,0-2.26-2,2.34,2.34,0,0,0-2.26,2Z"/><path class="cls-2" d="M51.4,264.44H50.06V252.51H51.4v1.07A3.3,3.3,0,0,1,54,252.33a3.8,3.8,0,0,1,3.74,4.07,3.74,3.74,0,0,1-3.68,4,3.25,3.25,0,0,1-2.68-1.3Zm5-8a2.64,2.64,0,0,0-2.52-2.89,2.66,2.66,0,0,0-2.55,2.87,2.62,2.62,0,0,0,2.57,2.84A2.58,2.58,0,0,0,56.39,256.4Z"/><path class="cls-2" d="M66.43,252.51h1.33v7.68H66.43v-1.08a3.24,3.24,0,0,1-2.63,1.3,4.05,4.05,0,0,1,0-8.08,3.19,3.19,0,0,1,2.63,1.27Zm-5,3.83c0,1.65.93,2.88,2.52,2.88a2.87,2.87,0,0,0,0-5.71A2.56,2.56,0,0,0,61.43,256.34Z"/><path class="cls-3" d="M19,143.09c.77-.9,5.79-6.63,7.33-9a13.41,13.41,0,0,0,2.51-6.88,6.22,6.22,0,0,0-6.37-6.5c-4.37,0-6.69,3.47-6.82,7.14H7.05c.39-8.75,6.56-14.35,15.06-14.35,10,0,15.12,6.82,15.12,13.64,0,6.63-4.44,11.39-7.79,15l-7.4,8H37.55v7.21H6.41Z"/><path class="cls-2" d="M24.25,146.39h-5v3.66h4.89v1.3H19.22v4.78h5v1.3h-6.4V145.09h6.4Z"/><path class="cls-2" d="M30.35,151.53a1.18,1.18,0,0,0-1.07-.78.85.85,0,0,0-.92.87c0,.56.37.72,1.23,1.09a4.81,4.81,0,0,1,1.93,1.19,1.81,1.81,0,0,1,.4,1.24,2.43,2.43,0,0,1-2.64,2.51,2.75,2.75,0,0,1-2.68-2l1.15-.48a1.72,1.72,0,0,0,1.55,1.26,1.19,1.19,0,0,0,1.26-1.22c0-.72-.52-1-1.24-1.28a4.94,4.94,0,0,1-1.87-1.13,1.65,1.65,0,0,1-.35-1.13,2.06,2.06,0,0,1,2.24-2.14,2.2,2.2,0,0,1,2.1,1.39Z"/><path class="cls-2" d="M35.83,151v6.45H34.49V151h-.81v-1.23h.81V147h1.34v2.77h1.33V151Z"/><path class="cls-2" d="M46,155.47a4.83,4.83,0,0,1-.95,1.24,3.71,3.71,0,0,1-2.55.94,3.67,3.67,0,0,1-3.79-4c0-2.29,1.41-4.07,3.72-4.07a3.41,3.41,0,0,1,2.9,1.41,5.1,5.1,0,0,1,.72,2.88h-6a2.46,2.46,0,0,0,2.44,2.61,2.32,2.32,0,0,0,1.57-.56,3.06,3.06,0,0,0,.8-1Zm-1.32-2.72a2.29,2.29,0,0,0-2.25-2,2.33,2.33,0,0,0-2.26,2Z"/><path class="cls-2" d="M50.15,161.68H48.82V149.75h1.33v1.08a3.3,3.3,0,0,1,2.63-1.26,3.81,3.81,0,0,1,3.74,4.07,3.73,3.73,0,0,1-3.69,4,3.27,3.27,0,0,1-2.68-1.29Zm5-8a2.64,2.64,0,0,0-2.52-2.89,2.66,2.66,0,0,0-2.55,2.87,2.63,2.63,0,0,0,2.57,2.85A2.59,2.59,0,0,0,55.15,153.64Z"/><path class="cls-2" d="M65.19,149.75h1.33v7.68H65.19v-1.07a3.26,3.26,0,0,1-2.63,1.29,4.05,4.05,0,0,1,0-8.08,3.18,3.18,0,0,1,2.63,1.28Zm-5,3.83c0,1.65.93,2.89,2.52,2.89a2.63,2.63,0,0,0,2.55-2.87,2.6,2.6,0,0,0-2.55-2.85A2.55,2.55,0,0,0,60.19,153.58Z"/></g></g></svg>