<svg xmlns="http://www.w3.org/2000/svg" viewBox="0 0 487.63 512"><title>identification</title><g id="Capa_2" data-name="Capa 2"><g id="Capa_1-2" data-name="Capa 1"><path d="M272.29,57.63H243.53a9.27,9.27,0,0,0-9.26,9.27v34.5a9.27,9.27,0,0,0,9.26,9.26h28.76a9.27,9.27,0,0,0,9.26-9.26V66.9A9.28,9.28,0,0,0,272.29,57.63ZM266.92,96h-18V72.26h18Z"/><path d="M329.46,57.63H300.7a9.28,9.28,0,0,0-9.26,9.27v34.5a9.27,9.27,0,0,0,9.26,9.26h28.76a9.27,9.27,0,0,0,9.26-9.26V66.9A9.27,9.27,0,0,0,329.46,57.63ZM324.09,96h-18V72.26h18Z"/><path d="M386.63,57.63H357.88a9.28,9.28,0,0,0-9.27,9.27v34.5a9.27,9.27,0,0,0,9.27,9.26h28.75a9.27,9.27,0,0,0,9.26-9.26V66.9A9.27,9.27,0,0,0,386.63,57.63ZM381.26,96h-18V72.26h18Z"/><path d="M272.29,143.32H243.53a9.27,9.27,0,0,0-9.26,9.26v34.51a9.27,9.27,0,0,0,9.26,9.26h28.76a9.28,9.28,0,0,0,9.26-9.26V152.58A9.27,9.27,0,0,0,272.29,143.32Zm-5.37,38.4h-18V158h18Z"/><path d="M329.46,143.32H300.7a9.27,9.27,0,0,0-9.26,9.26v34.51a9.28,9.28,0,0,0,9.26,9.26h28.76a9.27,9.27,0,0,0,9.26-9.26V152.58A9.27,9.27,0,0,0,329.46,143.32Zm-5.37,38.4h-18V158h18Z"/><path d="M386.63,143.32H357.88a9.27,9.27,0,0,0-9.27,9.26v34.51a9.28,9.28,0,0,0,9.27,9.26h28.75a9.27,9.27,0,0,0,9.26-9.26V152.58A9.27,9.27,0,0,0,386.63,143.32Zm-5.37,38.4h-18V158h18Z"/><path d="M272.29,229H243.53a9.27,9.27,0,0,0-9.26,9.26v34.5a9.27,9.27,0,0,0,9.26,9.27h28.76a9.28,9.28,0,0,0,9.26-9.27v-34.5A9.27,9.27,0,0,0,272.29,229Zm-5.37,38.4h-18V243.64h18Z"/><path d="M329.46,229H300.7a9.27,9.27,0,0,0-9.26,9.26v34.5A9.28,9.28,0,0,0,300.7,282h28.76a9.27,9.27,0,0,0,9.26-9.27v-34.5A9.27,9.27,0,0,0,329.46,229Zm-5.37,38.4h-18V243.64h18Z"/><path d="M386.63,229H357.88a9.27,9.27,0,0,0-9.27,9.26v34.5a9.28,9.28,0,0,0,9.27,9.27h28.75a9.27,9.27,0,0,0,9.26-9.27v-34.5A9.27,9.27,0,0,0,386.63,229Zm-5.37,38.4h-18V243.64h18Z"/><path d="M386.63,314.69H357.88a9.28,9.28,0,0,0-9.27,9.26v34.51a9.27,9.27,0,0,0,9.27,9.26h28.75a9.27,9.27,0,0,0,9.26-9.26V324A9.27,9.27,0,0,0,386.63,314.69Zm-5.37,38.4h-18V329.32h18Z"/><path d="M482.38,347.29a30.45,30.45,0,0,0-42.06-8.14L420.2,352.61V38h1.46a9.61,9.61,0,0,0,9.61-9.6V9.6A9.62,9.62,0,0,0,421.66,0H375a7.32,7.32,0,0,0,0,14.63h41.69v8.7H211.27v-8.7H329.15a7.32,7.32,0,1,0,0-14.63H206.24a9.62,9.62,0,0,0-9.6,9.6V28.36a9.62,9.62,0,0,0,9.6,9.6H210v93.95h-15v-18a11.41,11.41,0,0,0-11.4-11.4H128.31a11.41,11.41,0,0,0-11.4,11.4v18H106.4a11.87,11.87,0,0,0-11.85,11.85V311.5c-3.09-.19-6.2-.3-9.31-.3H73.71v-3.8A25.76,25.76,0,0,0,48,281.66H25.74A25.77,25.77,0,0,0,0,307.4V411.85a7.32,7.32,0,0,0,14.63,0V307.4a11.12,11.12,0,0,1,11.11-11.11H48A11.12,11.12,0,0,1,59.08,307.4V472A11.12,11.12,0,0,1,48,483.08H25.74A11.12,11.12,0,0,1,14.63,472V457.62a7.32,7.32,0,0,0-14.63,0V472a25.76,25.76,0,0,0,25.74,25.73H48A25.76,25.76,0,0,0,73.71,472v-.42L175,509.91a6,6,0,0,0,.6.2A48.74,48.74,0,0,0,188.91,512a46.13,46.13,0,0,0,7.14-.56h0l149.5-21.55.11,0a73.56,73.56,0,0,0,34.86-15.62l.27-.23,96.63-86.91A30.47,30.47,0,0,0,482.38,347.29ZM224.58,38h181V362.4l-60.86,40.73L324.31,402l-.52-5.23a44.68,44.68,0,0,0-2.52-11c-.42-1.16-.9-2.3-1.41-3.41a45,45,0,0,0-2.63-4.83,44.39,44.39,0,0,0-8.33-9.79h20.56a9.27,9.27,0,0,0,9.26-9.26V324a9.27,9.27,0,0,0-9.26-9.26H300.7a9.28,9.28,0,0,0-9.26,9.26V358.3a46.13,46.13,0,0,0-5.68-1.19l-.19,0-4-.47V324a9.28,9.28,0,0,0-9.26-9.26H243.53a9.27,9.27,0,0,0-9.26,9.26v27.23l-9.68-1.11V38Zm81.49,315.13V329.32h18v23.77Zm-39.15-23.77v23.77H250.86l-2-.22V329.32ZM131.54,117.09h48.77v14.82H131.54Zm-22.36,29.45H210v22.88H127.35a8.58,8.58,0,0,0-8.58,8.57v22.09a8.58,8.58,0,0,0,8.58,8.57H210v20.58H127.35a8.59,8.59,0,0,0-8.58,8.58v22.08a8.59,8.59,0,0,0,8.58,8.58H210v20.58H127.35a8.58,8.58,0,0,0-8.58,8.57v17.46c-1.24-.28-2.49-.55-3.74-.81l-1.77-.36-2.08-.38c-.67-.12-1.33-.25-2-.36ZM210,184v10H133.4V184Zm0,59.82v10H133.4v-10ZM133.4,313.65v-10H210v10ZM210,328.28v20.1l-2.26-.26a133,133,0,0,1-14-2.76A130.62,130.62,0,0,1,168,335.9c-1.1-.54-2.19-1.09-3.27-1.66-1.77-.94-3.52-1.9-5.25-2.92q-1.92-1.11-3.86-2.17l-.84-.45-.77-.42ZM467.69,376.2,371.16,463a59,59,0,0,1-27.74,12.4L193.92,497l-.2,0a32.79,32.79,0,0,1-13.85-.89L73.71,455.92V325.83H85.24a132.68,132.68,0,0,1,15.83,1q1.59.19,3.18.42l.46.07q4,.6,8,1.43l2.45.53,1.21.29q1.59.39,3.18.81l.57.15a132.29,132.29,0,0,1,24,9.13l.69.35c1,.49,1.95,1,2.92,1.51l.89.48c1.16.63,2.32,1.28,3.47,1.95l0,0q4.67,2.73,9.48,5.09a145.84,145.84,0,0,0,44.16,13.58l.19,0,10.5,1.2,8.56,1,19.72,2.27,4.89.56h0l34.18,3.94a29.8,29.8,0,0,1,25.45,26.6l.25,2.55L172.39,387.4A7.31,7.31,0,0,0,171,402l145.34,14.17a7.37,7.37,0,0,0,.93.11l29.1,1.64h.41c.15,0,.29,0,.43,0l.5,0c.21,0,.41-.07.62-.12a3.72,3.72,0,0,0,.48-.11c.22-.06.44-.15.65-.23l.4-.16a8,8,0,0,0,1-.55L417,372.39h0l31.5-21.09a15.76,15.76,0,0,1,19.23,24.9Z"/></g></g></svg>