<svg xmlns="http://www.w3.org/2000/svg" viewBox="0 0 474.52 480"><title>identification</title><g id="Capa_2" data-name="Capa 2"><g id="Capa_1-2" data-name="Capa 1"><g id="Capa_1-2-2" data-name="Capa 1-2"><path d="M474.42,103.5a7.69,7.69,0,0,0-.41-2.06c-.09-.26-.16-.5-.27-.75a8,8,0,0,0-1.6-2.35l-96-96a7.9,7.9,0,0,0-2.35-1.6c-.24-.11-.48-.17-.72-.26A8.33,8.33,0,0,0,371,.06c-.14,0-.28-.06-.45-.06h-240a40.05,40.05,0,0,0-40,40V98.88a151.7,151.7,0,0,0,0,277.6V440a40.05,40.05,0,0,0,40,40h304a40.05,40.05,0,0,0,40-40V104C474.52,103.82,474.43,103.67,474.42,103.5ZM447.21,96H386.52a8,8,0,0,1-8-8V27.31Zm-431,141.68a135.82,135.82,0,0,1,135.64-136h.36c4.54,0,9.06.22,13.51.66a135.63,135.63,0,0,1,120.81,115,137.62,137.62,0,0,1,1.67,20.37,136,136,0,0,1-272,0Zm228.9,120.18c1.1-.85,2.18-1.69,3.25-2.56a135.49,135.49,0,0,0,21.46-21.45c.87-1.07,1.71-2.16,2.55-3.26,1-1.26,2-2.46,3-3.75l68.2,68.28a23.83,23.83,0,0,1,.17,33.69l-.17.16a24.37,24.37,0,0,1-33.87,0L241.36,360.8C242.65,359.86,243.85,358.82,245.11,357.86ZM434.52,464h-304a24,24,0,0,1-24-24h0V382.73c.49.16,1,.26,1.52.41,1.28.4,2.58.71,3.87,1.07,3,.8,6,1.6,9.06,2.2,1.49.31,3,.6,4.5.86,3.05.54,6.12,1,9.21,1.32,1.38.15,2.74.35,4.12.46,4.43.38,8.89.63,13.4.63a150.93,150.93,0,0,0,75.35-20.08l70.74,70.67a40,40,0,0,0,59.1-53.92c-.81-.89-1.67-1.75-2.57-2.57L284.12,313a150.93,150.93,0,0,0,20.08-75.35q0-7.6-.74-15.08A152,152,0,0,0,152.2,85.68c-4.51,0-9,.25-13.4.62-1.38.13-2.75.32-4.13.48q-4.62.51-9.18,1.31c-1.52.27-3,.55-4.55.87q-4.5.95-9,2.18c-1.33.36-2.66.68-4,1.07-.5.16-1,.26-1.5.42V40a24,24,0,0,1,24-24h232V88a24,24,0,0,0,24,24h72V440A24,24,0,0,1,434.52,464Z"/><path d="M330.52,56a8,8,0,0,0-8-8h-176a8,8,0,0,0,0,16h176A8,8,0,0,0,330.52,56Z"/><path d="M418.52,192h-96a8,8,0,0,0,0,16h96a8,8,0,0,0,0-16Z"/><path d="M418.52,240h-96a8,8,0,0,0,0,16h96a8,8,0,0,0,0-16Z"/><path d="M426.52,296a8,8,0,0,0-8-8h-104a8,8,0,0,0,0,16h104A8,8,0,0,0,426.52,296Z"/><path d="M426.52,344a8,8,0,0,0-8-8h-72a8,8,0,0,0,0,16h72A8,8,0,0,0,426.52,344Z"/><path d="M330.52,104a8,8,0,0,0-8-8h-64a8,8,0,1,0,0,16h64A8,8,0,0,0,330.52,104Z"/><path d="M426.52,152a8,8,0,0,0-8-8h-120a8,8,0,0,0,0,16h120A8,8,0,0,0,426.52,152Z"/><path d="M122.52,200h56a8,8,0,0,0,0-16h-56a8,8,0,1,0,0,16Z"/><path d="M218.52,240a8,8,0,0,0-8-8h-120a8,8,0,1,0,0,16h120A8,8,0,0,0,218.52,240Z"/><path d="M178.52,280h-56a8,8,0,1,0,0,16h56a8,8,0,0,0,0-16Z"/><path d="M209.14,343.2a117.3,117.3,0,0,0,46.68-45.27c.63-1.11,1.32-2.18,1.91-3.3.31-.58.55-1.17.85-1.75,1.21-2.34,2.4-4.67,3.44-7.06s1.88-4.67,2.73-7c.25-.68.56-1.34.8-2a120.07,120.07,0,1,0-56.41,66.48ZM102.34,329a103.68,103.68,0,0,1-23.68-17.8A105.27,105.27,0,0,1,65.6,295.32q-2.82-4.24-5.23-8.71a104,104,0,1,1,183.27.46v.07a102.21,102.21,0,0,1-42,42,103.73,103.73,0,0,1-99.28-.15Z"/><path d="M434.52,384a8,8,0,0,0-8,8v32a8,8,0,0,1-8,8h-32a8,8,0,0,0,0,16h32a24,24,0,0,0,24-24V392A8,8,0,0,0,434.52,384Z"/></g></g></g></svg>