<svg xmlns="http://www.w3.org/2000/svg" viewBox="0 0 525.17 203.71"><defs><style>.cls-1{fill:#fff;}.cls-2{fill:#3a4f7c;}.cls-3{fill:none;stroke:#f5f2ed;stroke-miterlimit:10;stroke-width:1.33px;}.cls-4{fill:#002c55;}.cls-4,.cls-5{opacity:0.85;}.cls-5{fill:#567bc6;}</style></defs><title>elige-plan</title><g id="Capa_2" data-name="Capa 2"><g id="Capa_1-2" data-name="Capa 1"><path class="cls-1" d="M201.44,12.75a3.92,3.92,0,0,1,1-2.72,3.33,3.33,0,0,1,2.48-1,3.29,3.29,0,0,1,3.45,3.43,3,3,0,0,1-2,3,17.91,17.91,0,0,1-2,.67,2,2,0,0,0-1.54,2.12,2.21,2.21,0,0,0,.63,1.68,2.08,2.08,0,0,0,1.46.5,2.21,2.21,0,0,0,1.51-.5,2.28,2.28,0,0,0,.63-1.61,3.53,3.53,0,0,0-.15-1h1.78a5.09,5.09,0,0,1,.1,1.06,3.68,3.68,0,0,1-.92,2.59A3.9,3.9,0,0,1,201,18.22a3.36,3.36,0,0,1,.81-2.35,4.31,4.31,0,0,1,1.85-1.2c.55-.2,1.15-.34,1.73-.6a1.77,1.77,0,0,0,1.18-1.68,1.67,1.67,0,0,0-.48-1.25,1.62,1.62,0,0,0-1.18-.43,1.64,1.64,0,0,0-1.18.43,2.43,2.43,0,0,0-.57,1.61Zm3.43-4.81a1.2,1.2,0,1,1,1.2-1.2A1.22,1.22,0,0,1,204.87,7.94Z"/><path class="cls-1" d="M224.46,15.1a8.41,8.41,0,0,1-4.83,1.46,8.19,8.19,0,0,1-8.33-8.28,8.33,8.33,0,0,1,16.66,0A8.06,8.06,0,0,1,225.7,14l2.36,2.42h-2.31Zm0-2.38a6.38,6.38,0,0,0,1.71-4.44,6.51,6.51,0,1,0-13,0,6.51,6.51,0,0,0,10.05,5.55l-3.86-4h2.3Z"/><path class="cls-1" d="M232.52,12.12a3.41,3.41,0,0,0,.48,2.14,2.37,2.37,0,0,0,3.5,0,3.41,3.41,0,0,0,.48-2.14V6.31h1.73v6a4,4,0,0,1-.91,3,4.35,4.35,0,0,1-6.1,0,4,4,0,0,1-.91-3v-6h1.73Z"/><path class="cls-1" d="M242.84,1.32a1.23,1.23,0,1,1-1.22,1.22A1.22,1.22,0,0,1,242.84,1.32Zm.86,5v10H242v-10Z"/><path class="cls-1" d="M255.8,13.73a6.17,6.17,0,0,1-1.22,1.61,4.9,4.9,0,0,1-3.32,1.22c-2.4,0-4.92-1.51-4.92-5.21,0-3,1.83-5.28,4.83-5.28a4.45,4.45,0,0,1,3.77,1.83,6.67,6.67,0,0,1,.93,3.74h-7.75A3.19,3.19,0,0,0,251.29,15a3,3,0,0,0,2-.72,4.16,4.16,0,0,0,1-1.37Zm-1.7-3.53a3,3,0,0,0-2.93-2.59,3,3,0,0,0-2.93,2.59Z"/><path class="cls-1" d="M258.51,6.31h1.73V7.39a2.77,2.77,0,0,1,2.25-1.32,3.6,3.6,0,0,1,1.54.41L263.21,8a1.8,1.8,0,0,0-1-.34,1.65,1.65,0,0,0-1.39.63,4.26,4.26,0,0,0-.58,2.69v5.25h-1.73Z"/><path class="cls-1" d="M273.87,13.73a6.17,6.17,0,0,1-1.22,1.61,4.86,4.86,0,0,1-3.32,1.22c-2.4,0-4.92-1.51-4.92-5.21,0-3,1.83-5.28,4.83-5.28A4.45,4.45,0,0,1,273,7.9a6.67,6.67,0,0,1,.93,3.74h-7.75A3.19,3.19,0,0,0,269.36,15a3,3,0,0,0,2-.72,4,4,0,0,0,1-1.37Zm-1.7-3.53a3,3,0,0,0-2.93-2.59,3,3,0,0,0-2.93,2.59Z"/><path class="cls-1" d="M280.69,8.62a1.53,1.53,0,0,0-1.4-1,1.1,1.1,0,0,0-1.2,1.13c0,.72.49.93,1.61,1.41a6,6,0,0,1,2.5,1.54,2.38,2.38,0,0,1,.53,1.61,3.17,3.17,0,0,1-3.44,3.26A3.57,3.57,0,0,1,275.81,14l1.49-.63a2.26,2.26,0,0,0,2,1.64A1.54,1.54,0,0,0,281,13.44c0-.94-.67-1.25-1.61-1.65a6.47,6.47,0,0,1-2.42-1.47,2.13,2.13,0,0,1-.46-1.46,2.68,2.68,0,0,1,2.91-2.79,2.88,2.88,0,0,1,2.73,1.8Z"/><path class="cls-1" d="M292.35,12.12a3.41,3.41,0,0,0,.48,2.14,2.37,2.37,0,0,0,3.5,0,3.41,3.41,0,0,0,.48-2.14V6.31h1.73v6a4,4,0,0,1-.91,3,4.35,4.35,0,0,1-6.1,0,4,4,0,0,1-.91-3v-6h1.73Z"/><path class="cls-1" d="M301.81,6.31h1.72V7.46a3.55,3.55,0,0,1,2.86-1.39,3.38,3.38,0,0,1,2.86,1.37,4.46,4.46,0,0,1,.57,2.66v6.17h-1.73V10.15a2.9,2.9,0,0,0-.45-1.82A2,2,0,0,0,306,7.61a2.2,2.2,0,0,0-1.76.77,4.18,4.18,0,0,0-.72,2.68v5.21h-1.72Z"/><path class="cls-1" d="M320.72,6.31h1.73v10h-1.73V14.88a4.2,4.2,0,0,1-3.41,1.68c-2.52,0-4.85-1.77-4.85-5.28s2.31-5.21,4.85-5.21a4.13,4.13,0,0,1,3.41,1.66Zm-6.48,5c0,2.14,1.2,3.75,3.26,3.75s3.31-1.76,3.31-3.72a3.37,3.37,0,0,0-3.31-3.7C315.8,7.61,314.24,8.86,314.24,11.28Z"/><path class="cls-1" d="M189,30.12a1.23,1.23,0,1,1-1.22,1.22A1.23,1.23,0,0,1,189,30.12Zm.87,5v10h-1.73v-10Z"/><path class="cls-1" d="M193.11,35.11h1.73v1.16a3.51,3.51,0,0,1,2.86-1.4,3.37,3.37,0,0,1,2.85,1.37,4.4,4.4,0,0,1,.58,2.67v6.16H199.4V39a2.91,2.91,0,0,0-.46-1.82,2,2,0,0,0-1.63-.72,2.17,2.17,0,0,0-1.75.77,4.21,4.21,0,0,0-.72,2.69v5.2h-1.73Z"/><path class="cls-1" d="M204.87,35.11l3,6.72,3-6.72h1.92l-4.89,10.61L203,35.11Z"/><path class="cls-1" d="M223.4,42.53a6.17,6.17,0,0,1-1.22,1.61,4.88,4.88,0,0,1-3.32,1.22c-2.4,0-4.92-1.51-4.92-5.21,0-3,1.83-5.28,4.83-5.28a4.45,4.45,0,0,1,3.77,1.83,6.67,6.67,0,0,1,.93,3.74h-7.75a3.19,3.19,0,0,0,3.17,3.39,3,3,0,0,0,2-.72,4.16,4.16,0,0,0,1-1.37ZM221.7,39a3,3,0,0,0-2.93-2.59A3,3,0,0,0,215.84,39Z"/><path class="cls-1" d="M226.11,35.11h1.73v1.08a2.78,2.78,0,0,1,2.26-1.32,3.59,3.59,0,0,1,1.53.41l-.81,1.56a1.85,1.85,0,0,0-1-.34,1.65,1.65,0,0,0-1.39.63,4.28,4.28,0,0,0-.58,2.69v5.25h-1.73Z"/><path class="cls-1" d="M237.06,37.42a1.53,1.53,0,0,0-1.4-1,1.1,1.1,0,0,0-1.2,1.13c0,.72.48.93,1.61,1.41a6.12,6.12,0,0,1,2.5,1.54,2.38,2.38,0,0,1,.53,1.61,3.17,3.17,0,0,1-3.44,3.26,3.57,3.57,0,0,1-3.48-2.54l1.49-.63a2.26,2.26,0,0,0,2,1.64,1.54,1.54,0,0,0,1.63-1.59c0-.93-.67-1.25-1.61-1.65a6.47,6.47,0,0,1-2.42-1.47,2.13,2.13,0,0,1-.46-1.46,2.68,2.68,0,0,1,2.91-2.79,2.88,2.88,0,0,1,2.73,1.8Z"/><path class="cls-1" d="M242.26,30.12A1.23,1.23,0,1,1,241,31.34,1.23,1.23,0,0,1,242.26,30.12Zm.87,5v10H241.4v-10Z"/><path class="cls-1" d="M245.77,40.13a5.28,5.28,0,1,1,5.28,5.23A5.11,5.11,0,0,1,245.77,40.13Zm1.77,0a3.51,3.51,0,1,0,7,0,3.51,3.51,0,1,0-7,0Zm6.77-10.23-3.22,3.24L250,32.57l2.52-3.48Z"/><path class="cls-1" d="M259,35.11h1.72v1.16a3.53,3.53,0,0,1,2.86-1.4,3.38,3.38,0,0,1,2.86,1.37,4.47,4.47,0,0,1,.57,2.67v6.16h-1.73V39a2.9,2.9,0,0,0-.45-1.82,2,2,0,0,0-1.63-.72,2.2,2.2,0,0,0-1.76.77,4.21,4.21,0,0,0-.72,2.69v5.2H259Z"/><path class="cls-1" d="M279.94,37.42a1.52,1.52,0,0,0-1.39-1,1.1,1.1,0,0,0-1.2,1.13c0,.72.48.93,1.61,1.41a6,6,0,0,1,2.49,1.54A2.33,2.33,0,0,1,282,42.1a3.16,3.16,0,0,1-3.43,3.26,3.56,3.56,0,0,1-3.48-2.54l1.49-.63a2.26,2.26,0,0,0,2,1.64,1.55,1.55,0,0,0,1.64-1.59c0-.93-.68-1.25-1.61-1.65a6.62,6.62,0,0,1-2.43-1.47,2.17,2.17,0,0,1-.45-1.46,2.67,2.67,0,0,1,2.9-2.79,2.88,2.88,0,0,1,2.74,1.8Z"/><path class="cls-1" d="M293.12,42.53a6,6,0,0,1-1.23,1.61,4.85,4.85,0,0,1-3.31,1.22c-2.4,0-4.92-1.51-4.92-5.21,0-3,1.83-5.28,4.83-5.28a4.43,4.43,0,0,1,3.76,1.83,6.59,6.59,0,0,1,.94,3.74h-7.75a3.19,3.19,0,0,0,3.17,3.39,3,3,0,0,0,2-.72,4.16,4.16,0,0,0,1-1.37ZM291.41,39a3,3,0,0,0-2.92-2.59A3,3,0,0,0,285.56,39Z"/><path class="cls-1" d="M303.46,35.11h1.73v9.72a6.29,6.29,0,0,1-1,3.92,4.86,4.86,0,0,1-4,1.84,5,5,0,0,1-3.55-1.34A4.49,4.49,0,0,1,295.4,46h1.7a3.16,3.16,0,0,0,.77,2.07,3.09,3.09,0,0,0,2.4,1,2.8,2.8,0,0,0,2.64-1.39,4.69,4.69,0,0,0,.55-2.55V43.68a4.17,4.17,0,0,1-3.41,1.68,4.73,4.73,0,0,1-3.4-1.34,5.36,5.36,0,0,1-1.45-3.94,5.18,5.18,0,0,1,1.45-3.86,4.88,4.88,0,0,1,3.4-1.35,4.14,4.14,0,0,1,3.41,1.66ZM298,37.35a3.78,3.78,0,0,0-1,2.73A3.84,3.84,0,0,0,298.11,43a3,3,0,0,0,2.13.82,3,3,0,0,0,2.19-.84,4.06,4.06,0,0,0,1.13-2.88,3.91,3.91,0,0,0-1.06-2.81,3.21,3.21,0,0,0-2.26-.89A3.09,3.09,0,0,0,298,37.35Z"/><path class="cls-1" d="M310.18,40.92a3.41,3.41,0,0,0,.48,2.14,2.37,2.37,0,0,0,3.5,0,3.35,3.35,0,0,0,.49-2.14V35.11h1.72v6a4,4,0,0,1-.91,3,4.33,4.33,0,0,1-6.09,0,3.92,3.92,0,0,1-.92-3v-6h1.73Z"/><path class="cls-1" d="M319.64,35.11h1.72v1.08a2.8,2.8,0,0,1,2.26-1.32,3.63,3.63,0,0,1,1.54.41l-.82,1.56a1.8,1.8,0,0,0-1-.34,1.66,1.66,0,0,0-1.39.63,4.28,4.28,0,0,0-.58,2.69v5.25h-1.72Z"/><path class="cls-1" d="M333.87,35.11h1.73v10h-1.73V43.68a4.2,4.2,0,0,1-3.41,1.68c-2.52,0-4.85-1.77-4.85-5.28s2.31-5.21,4.85-5.21a4.13,4.13,0,0,1,3.41,1.66Zm-6.48,5c0,2.14,1.2,3.75,3.26,3.75S334,42.07,334,40.11a3.37,3.37,0,0,0-3.31-3.7C329,36.41,327.39,37.66,327.39,40.08Z"/><path class="cls-1" d="M216.78,72.94l-4.59-9h2L217.69,71l3.24-7.13h1.92l-7.32,15.48h-1.92Z"/><path class="cls-1" d="M238.06,66.7a4,4,0,0,0-3.12-1.49,3.72,3.72,0,0,0,0,7.42,4.28,4.28,0,0,0,3.22-1.56v2.06a5.35,5.35,0,0,1-3.17,1,5.25,5.25,0,1,1,0-10.49,5.31,5.31,0,0,1,3.09,1Z"/><path class="cls-1" d="M240.15,68.93a5.28,5.28,0,1,1,5.28,5.23A5.11,5.11,0,0,1,240.15,68.93Zm1.78,0a3.51,3.51,0,1,0,3.5-3.72A3.46,3.46,0,0,0,241.93,68.93Z"/><path class="cls-1" d="M253.35,63.91h1.73v1.15a3.53,3.53,0,0,1,2.86-1.39A3.37,3.37,0,0,1,260.79,65a4.4,4.4,0,0,1,.58,2.67v6.16h-1.73V67.75a2.91,2.91,0,0,0-.46-1.82,2,2,0,0,0-1.63-.72,2.17,2.17,0,0,0-1.75.77,4.2,4.2,0,0,0-.72,2.69v5.2h-1.73Z"/><path class="cls-1" d="M277.86,63.91h1.72v9.72a6.29,6.29,0,0,1-1,3.92,4.85,4.85,0,0,1-4,1.84,4.92,4.92,0,0,1-3.55-1.34,4.45,4.45,0,0,1-1.3-3.22h1.7a3.16,3.16,0,0,0,.77,2.07,3.1,3.1,0,0,0,2.4,1,2.78,2.78,0,0,0,2.64-1.39,4.61,4.61,0,0,0,.56-2.55V72.48a4.2,4.2,0,0,1-3.41,1.68A4.76,4.76,0,0,1,271,72.82a5.4,5.4,0,0,1-1.44-3.94A5.22,5.22,0,0,1,271,65a4.89,4.89,0,0,1,3.41-1.35,4.17,4.17,0,0,1,3.41,1.66Zm-5.48,2.24a3.77,3.77,0,0,0-1,2.73,3.84,3.84,0,0,0,1.13,2.93,3,3,0,0,0,2.14.82,3,3,0,0,0,2.18-.84A4.06,4.06,0,0,0,278,68.91a4,4,0,0,0-1.05-2.81,3.18,3.18,0,0,0-2.26-.89A3.09,3.09,0,0,0,272.38,66.15Z"/><path class="cls-1" d="M282.85,63.91h1.72V65a2.8,2.8,0,0,1,2.26-1.32,3.63,3.63,0,0,1,1.54.41l-.82,1.56a1.8,1.8,0,0,0-1-.34,1.66,1.66,0,0,0-1.39.63,4.26,4.26,0,0,0-.58,2.69v5.25h-1.72Z"/><path class="cls-1" d="M297.08,63.91h1.73v10h-1.73V72.48a4.2,4.2,0,0,1-3.41,1.68c-2.52,0-4.85-1.77-4.85-5.28s2.31-5.21,4.85-5.21a4.13,4.13,0,0,1,3.41,1.66Zm-6.48,5c0,2.14,1.2,3.75,3.26,3.75s3.31-1.76,3.31-3.72a3.37,3.37,0,0,0-3.31-3.7C292.16,65.21,290.6,66.46,290.6,68.88Zm6.48-10.18-3.22,3.24-1.08-.57,2.52-3.48Z"/><path class="cls-1" d="M302.07,63.91h1.73v1.15a3.53,3.53,0,0,1,2.85-1.39A3.38,3.38,0,0,1,309.51,65a4.47,4.47,0,0,1,.58,2.67v6.16h-1.73V67.75a2.91,2.91,0,0,0-.46-1.82,2,2,0,0,0-1.63-.72,2.17,2.17,0,0,0-1.75.77,4.2,4.2,0,0,0-.72,2.69v5.2h-1.73Z"/><path class="cls-1" d="M203.91,92.71h1.73v1.08a2.78,2.78,0,0,1,2.26-1.32,3.59,3.59,0,0,1,1.53.41l-.81,1.56a1.85,1.85,0,0,0-1-.34,1.65,1.65,0,0,0-1.39.63,4.26,4.26,0,0,0-.58,2.69v5.25h-1.73Z"/><path class="cls-1" d="M219.27,100.13a6.17,6.17,0,0,1-1.22,1.61,4.85,4.85,0,0,1-3.31,1.22c-2.4,0-4.92-1.51-4.92-5.21,0-3,1.82-5.28,4.82-5.28a4.45,4.45,0,0,1,3.77,1.83,6.67,6.67,0,0,1,.93,3.74h-7.75a3.2,3.2,0,0,0,3.17,3.39,3,3,0,0,0,2-.72,3.9,3.9,0,0,0,1-1.37Zm-1.7-3.53A3,3,0,0,0,214.64,94a3,3,0,0,0-2.93,2.59Z"/><path class="cls-1" d="M222,92.71h1.73v1.15a3.53,3.53,0,0,1,2.86-1.39,3.37,3.37,0,0,1,2.85,1.37A4.39,4.39,0,0,1,230,96.5v6.17h-1.73V96.55a3,3,0,0,0-.45-1.82,2,2,0,0,0-1.64-.72,2.18,2.18,0,0,0-1.75.77,4.18,4.18,0,0,0-.72,2.68v5.21H222Z"/><path class="cls-1" d="M240.9,85.18h1.72v17.49H240.9v-1.39a4.2,4.2,0,0,1-3.41,1.68c-2.52,0-4.85-1.77-4.85-5.28s2.3-5.21,4.85-5.21a4.13,4.13,0,0,1,3.41,1.66Zm-6.48,12.5c0,2.14,1.2,3.75,3.26,3.75S241,99.67,241,97.71a3.37,3.37,0,0,0-3.31-3.7C236,94,234.42,95.26,234.42,97.68Z"/><path class="cls-1" d="M246.51,87.72a1.23,1.23,0,1,1-1.22,1.22A1.23,1.23,0,0,1,246.51,87.72Zm.87,5v10h-1.73v-10Z"/><path class="cls-1" d="M250.64,92.71h1.73v1.06a2.88,2.88,0,0,1,2.47-1.3,3,3,0,0,1,2.71,1.61,3.33,3.33,0,0,1,3-1.61c2.95,0,3.24,2.47,3.24,3.89v6.31h-1.73v-6c0-1.13-.14-2.62-1.77-2.62-2,0-2.21,1.92-2.21,3.12v5.54h-1.73v-5.9c0-.7,0-2.76-1.8-2.76s-2.18,2-2.18,3.24v5.42h-1.73Z"/><path class="cls-1" d="M267.94,87.72a1.23,1.23,0,1,1-1.22,1.22A1.23,1.23,0,0,1,267.94,87.72Zm.87,5v10h-1.73v-10Z"/><path class="cls-1" d="M280.9,100.13a6,6,0,0,1-1.22,1.61,4.85,4.85,0,0,1-3.31,1.22c-2.4,0-4.92-1.51-4.92-5.21,0-3,1.82-5.28,4.82-5.28A4.44,4.44,0,0,1,280,94.3,6.76,6.76,0,0,1,281,98h-7.76a3.2,3.2,0,0,0,3.17,3.39,3,3,0,0,0,2-.72,3.9,3.9,0,0,0,1-1.37Zm-1.7-3.53A3,3,0,0,0,276.27,94a3,3,0,0,0-2.93,2.59Z"/><path class="cls-1" d="M283.61,92.71h1.73v1.15a3.53,3.53,0,0,1,2.86-1.39,3.37,3.37,0,0,1,2.85,1.37,4.39,4.39,0,0,1,.58,2.66v6.17H289.9V96.55a3,3,0,0,0-.45-1.82,2,2,0,0,0-1.64-.72,2.18,2.18,0,0,0-1.75.77,4.18,4.18,0,0,0-.72,2.68v5.21h-1.73Z"/><path class="cls-1" d="M296.67,94.3v8.37h-1.73V94.3h-1.05V92.71h1.05v-3.6h1.73v3.6h1.73V94.3Z"/><path class="cls-1" d="M299.41,97.73a5.28,5.28,0,1,1,5.28,5.23A5.11,5.11,0,0,1,299.41,97.73Zm1.77,0A3.51,3.51,0,1,0,304.69,94,3.46,3.46,0,0,0,301.18,97.73Z"/><path class="cls-1" d="M319.64,95.74a3.91,3.91,0,0,1-1,2.71,3.25,3.25,0,0,1-2.47,1A3.29,3.29,0,0,1,312.73,96a3,3,0,0,1,2-3,19.42,19.42,0,0,1,2-.67,2,2,0,0,0,1.53-2.11,2.18,2.18,0,0,0-.62-1.68,2.08,2.08,0,0,0-1.46-.51,2.24,2.24,0,0,0-1.52.51,2.29,2.29,0,0,0-.62,1.6,3.85,3.85,0,0,0,.14,1h-1.77a5,5,0,0,1-.1-1.05,3.72,3.72,0,0,1,.91-2.6,3.85,3.85,0,0,1,2.93-1.1,3.61,3.61,0,0,1,3.89,3.86,3.35,3.35,0,0,1-.82,2.36,4.4,4.4,0,0,1-1.84,1.2,15.47,15.47,0,0,0-1.73.6,1.75,1.75,0,0,0-1.18,1.68,1.67,1.67,0,0,0,.48,1.24,1.62,1.62,0,0,0,1.18.44,1.6,1.6,0,0,0,1.17-.44,2.43,2.43,0,0,0,.58-1.6Zm-3.43,4.82a1.2,1.2,0,1,1-1.2,1.2A1.22,1.22,0,0,1,316.21,100.56Z"/><path class="cls-2" d="M0,92.92v34.75a76,76,0,0,0,76.05,76h0a76,76,0,0,0,76-76V92.92Z"/><path class="cls-1" d="M56.1,115.92,61,129.16l4.89-13.24H68l-7,18.39-7-18.39Z"/><path class="cls-1" d="M78.75,130.51a6.41,6.41,0,0,1-1.32,1.74,5.22,5.22,0,0,1-3.59,1.33c-2.6,0-5.33-1.64-5.33-5.64,0-3.23,2-5.72,5.22-5.72a4.85,4.85,0,0,1,4.09,2,7.34,7.34,0,0,1,1,4.06h-8.4a3.46,3.46,0,0,0,3.43,3.67,3.26,3.26,0,0,0,2.21-.78,4.24,4.24,0,0,0,1.12-1.49Zm-1.84-3.82a3.24,3.24,0,0,0-3.18-2.81,3.29,3.29,0,0,0-3.17,2.81Z"/><path class="cls-1" d="M81.69,122.48h1.87v1.25a3.79,3.79,0,0,1,3.1-1.51,3.66,3.66,0,0,1,3.09,1.48,4.8,4.8,0,0,1,.62,2.89v6.68H88.5v-6.63a3.19,3.19,0,0,0-.49-2,2.13,2.13,0,0,0-1.77-.78,2.37,2.37,0,0,0-1.9.83,4.56,4.56,0,0,0-.78,2.92v5.64H81.69Z"/><path class="cls-1" d="M95.83,124.19v9.08H94v-9.08H92.82v-1.71H94v-3.9h1.87v3.9h1.88v1.71Z"/><path class="cls-1" d="M107.74,122.48h1.87v10.79h-1.87v-1.51a4.53,4.53,0,0,1-3.69,1.82c-2.73,0-5.25-1.92-5.25-5.72s2.49-5.64,5.25-5.64a4.45,4.45,0,0,1,3.69,1.79Zm-7,5.38c0,2.31,1.3,4.06,3.54,4.06s3.58-1.9,3.58-4a3.65,3.65,0,0,0-3.58-4C102.41,123.88,100.72,125.23,100.72,127.86Z"/><ellipse class="cls-3" cx="45.01" cy="125.62" rx="4.29" ry="4.24"/><ellipse class="cls-3" cx="45.6" cy="162.02" rx="4.29" ry="4.24"/><path class="cls-1" d="M59.3,152.33a7.66,7.66,0,0,1,4.22,1,4.82,4.82,0,0,1-2.47,8.63l5.51,7.75H64.22l-5.28-7.59h-.49v7.59H56.52V152.33Zm-.85,8h1.22c2.39,0,3.82-1.14,3.82-3.17a2.71,2.71,0,0,0-1.38-2.55,5,5,0,0,0-2.49-.49H58.45Z"/><path class="cls-1" d="M78.15,166.91a6.61,6.61,0,0,1-1.32,1.75A5.26,5.26,0,0,1,73.24,170c-2.6,0-5.33-1.64-5.33-5.64,0-3.22,2-5.72,5.23-5.72a4.82,4.82,0,0,1,4.08,2,7.28,7.28,0,0,1,1,4.05h-8.4a3.46,3.46,0,0,0,3.44,3.67,3.3,3.3,0,0,0,2.21-.78,4.3,4.3,0,0,0,1.11-1.48Zm-1.84-3.82a3.24,3.24,0,0,0-3.17-2.81A3.29,3.29,0,0,0,70,163.09Z"/><path class="cls-1" d="M81.09,158.88H83v1.25a3.82,3.82,0,0,1,3.1-1.51,3.66,3.66,0,0,1,3.09,1.48,4.8,4.8,0,0,1,.63,2.89v6.68H87.9V163a3.21,3.21,0,0,0-.49-2,2.14,2.14,0,0,0-1.77-.78,2.38,2.38,0,0,0-1.9.84A4.52,4.52,0,0,0,83,164v5.64H81.09Z"/><path class="cls-1" d="M95.24,160.6v9.07H93.36V160.6H92.22v-1.72h1.14V155h1.88v3.9h1.87v1.72Z"/><path class="cls-1" d="M107.14,158.88H109v10.79h-1.87v-1.51a4.53,4.53,0,0,1-3.69,1.82c-2.73,0-5.25-1.92-5.25-5.72s2.49-5.64,5.25-5.64a4.45,4.45,0,0,1,3.69,1.79Zm-7,5.38c0,2.32,1.3,4.06,3.54,4.06s3.59-1.9,3.59-4a3.66,3.66,0,0,0-3.59-4C101.81,160.28,100.12,161.64,100.12,164.26Z"/><path class="cls-2" d="M525.17,127.67V92.92H373.08v30.71c0,46,34.05,80.08,76.05,80.08h0A76,76,0,0,0,525.17,127.67Z"/><path class="cls-1" d="M395.77,105.07h-4.83v4.13h4.66v1.47h-4.66v6.93h-1.56v-14h6.39Z"/><path class="cls-1" d="M398.88,104.52a1.07,1.07,0,1,1-1.08,1.07A1.08,1.08,0,0,1,398.88,104.52Zm.75,4.37v8.71h-1.51v-8.71Z"/><path class="cls-1" d="M402.49,108.89H404v1a3.06,3.06,0,0,1,2.5-1.22,3,3,0,0,1,2.5,1.19,3.9,3.9,0,0,1,.5,2.33v5.4H408v-5.35a2.54,2.54,0,0,0-.4-1.6,1.71,1.71,0,0,0-1.43-.63,1.92,1.92,0,0,0-1.53.67A3.66,3.66,0,0,0,404,113v4.56h-1.51Z"/><path class="cls-1" d="M419,108.89h1.52v8.71H419v-1.22a3.67,3.67,0,0,1-3,1.47c-2.2,0-4.24-1.55-4.24-4.62a4.19,4.19,0,0,1,4.24-4.55,3.59,3.59,0,0,1,3,1.45Zm-5.66,4.34c0,1.87,1,3.28,2.85,3.28a3.27,3.27,0,0,0,0-6.49A2.89,2.89,0,0,0,413.37,113.23Z"/><path class="cls-1" d="M423.4,108.89h1.51v1a3.08,3.08,0,0,1,2.5-1.22,3,3,0,0,1,2.5,1.19,3.9,3.9,0,0,1,.51,2.33v5.4H428.9v-5.35a2.54,2.54,0,0,0-.4-1.6,1.69,1.69,0,0,0-1.42-.63,1.94,1.94,0,0,0-1.54.67,3.73,3.73,0,0,0-.63,2.35v4.56H423.4Z"/><path class="cls-1" d="M440.1,111.32a3.52,3.52,0,0,0-2.73-1.3,3.25,3.25,0,0,0,0,6.49,3.71,3.71,0,0,0,2.81-1.37V117a4.67,4.67,0,0,1-2.77.9,4.59,4.59,0,1,1,0-9.17,4.59,4.59,0,0,1,2.71.84Z"/><path class="cls-1" d="M443.23,104.52a1.07,1.07,0,1,1-1.07,1.07A1.08,1.08,0,0,1,443.23,104.52Zm.75,4.37v8.71h-1.51v-8.71Z"/><path class="cls-1" d="M453.51,108.89H455v8.71h-1.52v-1.22a3.66,3.66,0,0,1-3,1.47c-2.2,0-4.24-1.55-4.24-4.62a4.19,4.19,0,0,1,4.24-4.55,3.57,3.57,0,0,1,3,1.45Zm-5.66,4.34c0,1.87,1,3.28,2.85,3.28a3.27,3.27,0,0,0,0-6.49A2.89,2.89,0,0,0,447.85,113.23Z"/><path class="cls-1" d="M457.88,108.89h1.52v.92a2.52,2.52,0,0,1,2.16-1.13,2.62,2.62,0,0,1,2.37,1.4,2.91,2.91,0,0,1,2.63-1.4c2.58,0,2.83,2.16,2.83,3.4v5.52h-1.51v-5.29c0-1-.13-2.29-1.56-2.29-1.74,0-1.93,1.68-1.93,2.73v4.85h-1.51v-5.16c0-.61,0-2.42-1.57-2.42s-1.91,1.79-1.91,2.84v4.74h-1.52Z"/><path class="cls-1" d="M473,104.52a1.07,1.07,0,1,1-1.07,1.07A1.08,1.08,0,0,1,473,104.52Zm.76,4.37v8.71h-1.51v-8.71Z"/><path class="cls-1" d="M484.36,115.38a5.22,5.22,0,0,1-1.07,1.4,4.35,4.35,0,0,1-7.2-3.48c0-2.61,1.6-4.62,4.22-4.62a3.93,3.93,0,0,1,3.3,1.59,5.93,5.93,0,0,1,.82,3.28h-6.79a2.8,2.8,0,0,0,2.78,3,2.64,2.64,0,0,0,1.78-.63,3.51,3.51,0,0,0,.9-1.2Zm-1.49-3.09a2.6,2.6,0,0,0-2.56-2.27,2.65,2.65,0,0,0-2.56,2.27Z"/><path class="cls-1" d="M486.74,108.89h1.51v1a3.06,3.06,0,0,1,2.5-1.22,3,3,0,0,1,2.5,1.19,3.9,3.9,0,0,1,.5,2.33v5.4h-1.51v-5.35a2.54,2.54,0,0,0-.4-1.6,1.72,1.72,0,0,0-1.43-.63,1.92,1.92,0,0,0-1.53.67,3.66,3.66,0,0,0-.63,2.35v4.56h-1.51Z"/><path class="cls-1" d="M498.16,110.27v7.33h-1.51v-7.33h-.93v-1.38h.93v-3.15h1.51v3.15h1.51v1.38Z"/><path class="cls-1" d="M500.55,113.28a4.62,4.62,0,1,1,4.62,4.57A4.48,4.48,0,0,1,500.55,113.28Zm1.56,0a3.07,3.07,0,1,0,3.06-3.26A3,3,0,0,0,502.11,113.28Z"/><path class="cls-1" d="M399.76,130.29l-3.41,4.43a3.69,3.69,0,0,1,1.54-.34,4.33,4.33,0,0,1,4.41,4.56,4.84,4.84,0,0,1-1.28,3.38,5,5,0,0,1-4,1.6,5.23,5.23,0,0,1-4-1.43,4.6,4.6,0,0,1-1.37-3.4,7.14,7.14,0,0,1,1.77-4.37l4.11-5.5ZM398.81,141a2.7,2.7,0,0,0,0-3.78,2.4,2.4,0,0,0-1.81-.67,2.34,2.34,0,0,0-1.82.75,2.63,2.63,0,0,0,0,3.72,2.59,2.59,0,0,0,1.8.69A2.49,2.49,0,0,0,398.81,141Z"/><path class="cls-1" d="M405.28,140.7l2.35.28-3,5.56-1.62-.19Z"/><path class="cls-1" d="M419.54,132h-2V129.6h4.75v14h-2.73Z"/><path class="cls-1" d="M428.76,138.92c.25-.3,1.89-2.16,2.39-2.92a4.4,4.4,0,0,0,.82-2.25,2,2,0,0,0-2.08-2.12,2.25,2.25,0,0,0-2.23,2.33h-2.81a4.68,4.68,0,0,1,4.91-4.68c3.26,0,4.94,2.23,4.94,4.45s-1.45,3.72-2.54,4.89l-2.42,2.63h5.06v2.35H424.64Z"/><path class="cls-1" d="M450.72,135.5a4.9,4.9,0,0,1,0,7.11,5.92,5.92,0,0,1-7.35,0,4.9,4.9,0,0,1,0-7.11,5.92,5.92,0,0,1,7.35,0Zm-1.11,3.57a2.56,2.56,0,1,0-2.56,2.56A2.54,2.54,0,0,0,449.61,139.07Z"/><path class="cls-1" d="M459.12,128.29h2.56v7.4a3.34,3.34,0,0,1,2.82-1.47,3.47,3.47,0,0,1,2.68,1.11,3.82,3.82,0,0,1,.72,2.56v5.71h-2.56v-4.95a2.57,2.57,0,0,0-.49-1.79,1.63,1.63,0,0,0-1.19-.46,1.75,1.75,0,0,0-1.58.8,3.1,3.1,0,0,0-.4,1.76v4.64h-2.56Z"/><path class="cls-1" d="M477.31,134.51h2.56v9.09h-2.56v-1.18a3.26,3.26,0,0,1-2.8,1.47,4.61,4.61,0,0,1-4.64-4.85,4.55,4.55,0,0,1,4.52-4.82,3.28,3.28,0,0,1,2.92,1.47ZM472.52,139a2.52,2.52,0,1,0,2.52-2.56A2.5,2.5,0,0,0,472.52,139Z"/><path class="cls-1" d="M487.26,136.67a2.12,2.12,0,0,0-1.49-.61c-.61,0-1,.3-1,.74,0,.23.11.59.82.82l.61.19a4.64,4.64,0,0,1,2.31,1.3,2.65,2.65,0,0,1,.46,1.51,3,3,0,0,1-1,2.31,3.8,3.8,0,0,1-2.73,1,4.58,4.58,0,0,1-3.52-1.51l1.34-1.55a2.82,2.82,0,0,0,2,1c.71,0,1.26-.36,1.26-1a1,1,0,0,0-.8-.92l-.59-.21a4.93,4.93,0,0,1-1.95-1.09,2.44,2.44,0,0,1-.69-1.75,2.7,2.7,0,0,1,.94-2,3.73,3.73,0,0,1,2.37-.65,4.53,4.53,0,0,1,2.9,1Z"/><path class="cls-1" d="M493.35,136.69v6.91h-2.56v-6.91h-1v-2.18h1V131.4h2.56v3.11h1.77v2.18Z"/><path class="cls-1" d="M503.43,134.51H506v9.09h-2.56v-1.18a3.24,3.24,0,0,1-2.79,1.47A4.61,4.61,0,0,1,496,139a4.54,4.54,0,0,1,4.51-4.82,3.28,3.28,0,0,1,2.92,1.47ZM498.64,139a2.52,2.52,0,1,0,2.52-2.56A2.5,2.5,0,0,0,498.64,139Z"/><path class="cls-1" d="M406.2,158h-2V155.6h4.74v14H406.2Z"/><path class="cls-1" d="M415.42,164.92c.25-.3,1.89-2.16,2.4-2.92a4.48,4.48,0,0,0,.81-2.25,2,2,0,0,0-2.07-2.12,2.24,2.24,0,0,0-2.23,2.33h-2.81a4.67,4.67,0,0,1,4.91-4.68c3.25,0,4.93,2.23,4.93,4.45s-1.44,3.72-2.54,4.89l-2.41,2.63h5.06v2.35H411.31Z"/><path class="cls-1" d="M423.4,162.59c0-4.81,2.63-7.31,5.42-7.31s5.42,2.5,5.42,7.33-2.63,7.31-5.42,7.31S423.4,167.42,423.4,162.59Zm2.73,0c0,3.65,1.49,5,2.69,5s2.69-1.32,2.69-5-1.51-5-2.69-5S426.13,159,426.13,162.59Z"/><path class="cls-1" d="M443.16,155.6h2l3.71,8.9,3.89-8.9h2l2.35,14h-2.77L453,161l-3.76,8.63h-.92L444.76,161l-1.43,8.63h-2.77Z"/><path class="cls-1" d="M468.09,167.06a4.49,4.49,0,0,1-4.47,2.83,4.77,4.77,0,0,1-3.49-1.28,4.56,4.56,0,0,1-1.43-3.54,4.84,4.84,0,0,1,1.39-3.57,4.65,4.65,0,0,1,3.42-1.28,4.33,4.33,0,0,1,3.55,1.49,5.4,5.4,0,0,1,1.09,3.57v.21h-6.8a2.64,2.64,0,0,0,.44,1.53,2.16,2.16,0,0,0,1.83.86,2.34,2.34,0,0,0,2.12-1.2Zm-2.35-3.21a2.18,2.18,0,0,0-4.31,0Z"/><path class="cls-1" d="M475.08,162.67a2.12,2.12,0,0,0-1.49-.61c-.61,0-1,.3-1,.74,0,.23.11.59.82.82l.61.19a4.56,4.56,0,0,1,2.31,1.3,2.65,2.65,0,0,1,.46,1.51,3,3,0,0,1-1,2.31,3.84,3.84,0,0,1-2.73,1,4.6,4.6,0,0,1-3.53-1.51l1.34-1.55a2.82,2.82,0,0,0,2,1c.71,0,1.26-.36,1.26-1a1,1,0,0,0-.8-.92l-.59-.21a5,5,0,0,1-1.95-1.09,2.44,2.44,0,0,1-.69-1.75,2.7,2.7,0,0,1,.94-2,3.73,3.73,0,0,1,2.37-.65,4.52,4.52,0,0,1,2.9,1Z"/><path class="cls-1" d="M487.53,167.06a4.49,4.49,0,0,1-4.47,2.83,4.74,4.74,0,0,1-3.48-1.28,4.56,4.56,0,0,1-1.43-3.54,4.84,4.84,0,0,1,1.38-3.57,4.69,4.69,0,0,1,3.43-1.28,4.35,4.35,0,0,1,3.55,1.49,5.45,5.45,0,0,1,1.09,3.57v.21h-6.81a2.65,2.65,0,0,0,.45,1.53,2.15,2.15,0,0,0,1.82.86,2.33,2.33,0,0,0,2.12-1.2Zm-2.35-3.21a2.18,2.18,0,0,0-4.3,0Z"/><path class="cls-1" d="M494.53,162.67a2.12,2.12,0,0,0-1.49-.61c-.61,0-1,.3-1,.74,0,.23.11.59.82.82l.61.19a4.64,4.64,0,0,1,2.31,1.3,2.65,2.65,0,0,1,.46,1.51,3,3,0,0,1-1,2.31,3.82,3.82,0,0,1-2.73,1,4.56,4.56,0,0,1-3.52-1.51l1.34-1.55a2.8,2.8,0,0,0,2,1c.72,0,1.26-.36,1.26-1a1,1,0,0,0-.79-.92l-.59-.21a4.93,4.93,0,0,1-2-1.09,2.45,2.45,0,0,1-.7-1.75,2.67,2.67,0,0,1,.95-2,3.73,3.73,0,0,1,2.37-.65,4.55,4.55,0,0,1,2.9,1Z"/><rect class="cls-4" x="373.08" y="19.3" width="152.09" height="55.71" rx="7.93"/><rect class="cls-4" y="19.3" width="152.09" height="55.71" rx="7.93"/><path class="cls-1" d="M61.35,41.34a5.22,5.22,0,0,1-2.47.58,5.12,5.12,0,0,1-5.27-5.22,5.2,5.2,0,0,1,1.61-3.91,5.56,5.56,0,0,1,6.13-.71v2.28a3.19,3.19,0,0,0-2.41-1.12,3.35,3.35,0,0,0-3.32,3.49A3.31,3.31,0,0,0,59,40.15a3,3,0,0,0,2.34-1.09Z"/><path class="cls-1" d="M68.49,35.91a3.48,3.48,0,0,1,0,5.08,3.72,3.72,0,0,1-2.62.92A3.76,3.76,0,0,1,63.24,41a3.5,3.5,0,0,1,0-5.08A3.76,3.76,0,0,1,65.87,35,3.72,3.72,0,0,1,68.49,35.91Zm-.79,2.55a1.83,1.83,0,1,0-1.83,1.83A1.82,1.82,0,0,0,67.7,38.46Z"/><path class="cls-1" d="M70.59,35.2h1.83V36a2.39,2.39,0,0,1,2-1,2.49,2.49,0,0,1,1.92.8,2.73,2.73,0,0,1,.51,1.83V41.7H75V38.16a1.88,1.88,0,0,0-.34-1.28,1.19,1.19,0,0,0-.86-.33,1.25,1.25,0,0,0-1.12.57,2.25,2.25,0,0,0-.29,1.26V41.7H70.59Z"/><path class="cls-1" d="M84.21,35.91a3.48,3.48,0,0,1,0,5.08,3.72,3.72,0,0,1-2.62.92A3.76,3.76,0,0,1,79,41a3.5,3.5,0,0,1,0-5.08A3.76,3.76,0,0,1,81.59,35,3.72,3.72,0,0,1,84.21,35.91Zm-.79,2.55a1.83,1.83,0,1,0-1.83,1.83A1.82,1.82,0,0,0,83.42,38.46Z"/><path class="cls-1" d="M91.2,37.18a2.11,2.11,0,0,0-1.5-.57,1.75,1.75,0,0,0-1.83,1.83,1.81,1.81,0,0,0,1.89,1.85,2.1,2.1,0,0,0,1.44-.57V41.5a3.7,3.7,0,0,1-1.68.41A3.62,3.62,0,0,1,87,41a3.3,3.3,0,0,1-1-2.49A3.36,3.36,0,0,1,89.45,35a3.92,3.92,0,0,1,1.75.39Z"/><path class="cls-1" d="M98.55,39.88a3.2,3.2,0,0,1-3.19,2A3.37,3.37,0,0,1,92.87,41a3.25,3.25,0,0,1-1-2.53,3.43,3.43,0,0,1,1-2.55A3.32,3.32,0,0,1,95.28,35a3.12,3.12,0,0,1,2.54,1.07,3.87,3.87,0,0,1,.78,2.55v.15H93.74a1.89,1.89,0,0,0,.31,1.09,1.56,1.56,0,0,0,1.31.62,1.66,1.66,0,0,0,1.51-.86Zm-1.68-2.29a1.55,1.55,0,0,0-3.07,0Z"/><path class="cls-1" d="M32,53.2h1.83V54a2.38,2.38,0,0,1,2-1,2.49,2.49,0,0,1,1.92.8,2.73,2.73,0,0,1,.51,1.83V59.7H36.39V56.16A1.89,1.89,0,0,0,36,54.88a1.16,1.16,0,0,0-.85-.33,1.27,1.27,0,0,0-1.13.57,2.24,2.24,0,0,0-.28,1.26V59.7H32Z"/><path class="cls-1" d="M41.38,53.2v3.68A1.47,1.47,0,0,0,41.77,58a1.54,1.54,0,0,0,.93.33,1.5,1.5,0,0,0,.93-.33A1.47,1.47,0,0,0,44,56.88V53.2h1.83v4a2.44,2.44,0,0,1-.79,2,4.12,4.12,0,0,1-4.71,0,2.46,2.46,0,0,1-.8-2v-4Z"/><path class="cls-1" d="M53.56,57.88a3.2,3.2,0,0,1-3.19,2A3.37,3.37,0,0,1,47.88,59a3.25,3.25,0,0,1-1-2.53,3.43,3.43,0,0,1,1-2.55A3.32,3.32,0,0,1,50.29,53a3.12,3.12,0,0,1,2.54,1.07,3.87,3.87,0,0,1,.78,2.55v.15H48.75a1.89,1.89,0,0,0,.31,1.09,1.56,1.56,0,0,0,1.31.62,1.66,1.66,0,0,0,1.51-.86Zm-1.68-2.29a1.55,1.55,0,0,0-3.07,0Z"/><path class="cls-1" d="M58.15,54.75a1.5,1.5,0,0,0-1.06-.44c-.44,0-.71.21-.71.53,0,.16.08.42.59.58l.43.14a3.27,3.27,0,0,1,1.65.93,1.85,1.85,0,0,1,.33,1.08,2.15,2.15,0,0,1-.72,1.65,2.71,2.71,0,0,1-1.95.69,3.31,3.31,0,0,1-2.52-1.08l1-1.11a2,2,0,0,0,1.44.75c.51,0,.9-.26.9-.71a.73.73,0,0,0-.57-.66L56.5,57a3.4,3.4,0,0,1-1.39-.78,1.73,1.73,0,0,1-.5-1.24,1.91,1.91,0,0,1,.68-1.47A2.65,2.65,0,0,1,57,53a3.23,3.23,0,0,1,2.07.69Z"/><path class="cls-1" d="M62.1,54.76V59.7H60.27V54.76h-.72V53.2h.72V51H62.1V53.2h1.26v1.56Z"/><path class="cls-1" d="M63.91,53.2h1.83v1a2.19,2.19,0,0,1,.81-.9A2,2,0,0,1,67.63,53a2.35,2.35,0,0,1,.78.15l-.24,1.71a1.4,1.4,0,0,0-.85-.24,1.5,1.5,0,0,0-1.22.53,2.25,2.25,0,0,0-.36,1.44V59.7H63.91Z"/><path class="cls-1" d="M73.74,53.2h1.83v6.5H73.74v-.84a2.34,2.34,0,0,1-2,1,3.3,3.3,0,0,1-3.31-3.47A3.24,3.24,0,0,1,71.65,53a2.36,2.36,0,0,1,2.09,1Zm-3.42,3.24a1.8,1.8,0,1,0,1.8-1.83A1.78,1.78,0,0,0,70.32,56.44Z"/><path class="cls-1" d="M80.44,54.75a1.5,1.5,0,0,0-1.06-.44c-.44,0-.71.21-.71.53,0,.16.08.42.59.58l.43.14a3.27,3.27,0,0,1,1.65.93,1.85,1.85,0,0,1,.33,1.08A2.15,2.15,0,0,1,81,59.22a2.71,2.71,0,0,1-2,.69,3.31,3.31,0,0,1-2.52-1.08l1-1.11a2,2,0,0,0,1.44.75c.51,0,.9-.26.9-.71a.73.73,0,0,0-.57-.66L78.79,57a3.4,3.4,0,0,1-1.39-.78,1.73,1.73,0,0,1-.5-1.24,1.91,1.91,0,0,1,.68-1.47A2.65,2.65,0,0,1,79.27,53a3.23,3.23,0,0,1,2.07.69Z"/><path class="cls-1" d="M85.65,53.2h1.83V54a2.38,2.38,0,0,1,2-1,2.49,2.49,0,0,1,1.92.8,2.73,2.73,0,0,1,.51,1.83V59.7H90.09V56.16a1.89,1.89,0,0,0-.35-1.28,1.16,1.16,0,0,0-.85-.33,1.27,1.27,0,0,0-1.13.57,2.24,2.24,0,0,0-.28,1.26V59.7H85.65Z"/><path class="cls-1" d="M98.23,53.2h1.83v6.5H98.23v-.84a2.34,2.34,0,0,1-2,1,3.3,3.3,0,0,1-3.32-3.47A3.25,3.25,0,0,1,96.15,53a2.35,2.35,0,0,1,2.08,1Zm-3.42,3.24a1.8,1.8,0,1,0,1.8-1.83A1.78,1.78,0,0,0,94.81,56.44Z"/><path class="cls-1" d="M102.6,53.2l1.71,3.66L106,53.2h2l-3.27,6.5h-1l-3.27-6.5Z"/><path class="cls-1" d="M114.78,57.88a3.22,3.22,0,0,1-3.2,2,3.39,3.39,0,0,1-2.49-.92,3.25,3.25,0,0,1-1-2.53,3.47,3.47,0,0,1,1-2.55,3.35,3.35,0,0,1,2.45-.92A3.09,3.09,0,0,1,114,54.06a3.87,3.87,0,0,1,.78,2.55v.15H110a1.89,1.89,0,0,0,.32,1.09,1.54,1.54,0,0,0,1.3.62,1.68,1.68,0,0,0,1.52-.86Zm-1.68-2.29a1.56,1.56,0,0,0-3.08,0Z"/><path class="cls-1" d="M119.37,54.75a1.53,1.53,0,0,0-1.07-.44c-.43,0-.7.21-.7.53,0,.16.07.42.58.58l.44.14a3.24,3.24,0,0,1,1.64.93,1.85,1.85,0,0,1,.33,1.08,2.17,2.17,0,0,1-.71,1.65,2.75,2.75,0,0,1-2,.69,3.28,3.28,0,0,1-2.51-1.08l1-1.11a2,2,0,0,0,1.44.75c.51,0,.9-.26.9-.71a.73.73,0,0,0-.57-.66l-.42-.15a3.37,3.37,0,0,1-1.4-.78,1.73,1.73,0,0,1-.49-1.24,1.93,1.93,0,0,1,.67-1.47,2.66,2.66,0,0,1,1.7-.47,3.22,3.22,0,0,1,2.06.69Z"/><path class="cls-1" d="M404.75,34.91a5.22,5.22,0,0,1-2.47.58A5.12,5.12,0,0,1,397,30.27a5.2,5.2,0,0,1,1.61-3.91,5.56,5.56,0,0,1,6.13-.71v2.28a3.19,3.19,0,0,0-2.41-1.12A3.35,3.35,0,0,0,399,30.3a3.31,3.31,0,0,0,3.39,3.42,3,3,0,0,0,2.34-1.09Z"/><path class="cls-1" d="M412.3,29.48a3.5,3.5,0,0,1,0,5.08,3.76,3.76,0,0,1-2.63.92,3.72,3.72,0,0,1-2.62-.92,3.48,3.48,0,0,1,0-5.08,3.72,3.72,0,0,1,2.62-.92A3.76,3.76,0,0,1,412.3,29.48ZM411.5,32a1.83,1.83,0,1,0-1.83,1.83A1.82,1.82,0,0,0,411.5,32Z"/><path class="cls-1" d="M414.8,28.77h1.83v.84a2.39,2.39,0,0,1,2-1.05,2.49,2.49,0,0,1,1.92.8,2.73,2.73,0,0,1,.51,1.83v4.08h-1.83V31.73a1.88,1.88,0,0,0-.34-1.28,1.19,1.19,0,0,0-.86-.33,1.25,1.25,0,0,0-1.12.57,2.25,2.25,0,0,0-.29,1.26v3.32H414.8Z"/><path class="cls-1" d="M428.83,29.48a3.5,3.5,0,0,1,0,5.08,3.76,3.76,0,0,1-2.63.92,3.72,3.72,0,0,1-2.62-.92,3.48,3.48,0,0,1,0-5.08,3.72,3.72,0,0,1,2.62-.92A3.76,3.76,0,0,1,428.83,29.48ZM428,32a1.83,1.83,0,1,0-1.83,1.83A1.82,1.82,0,0,0,428,32Z"/><path class="cls-1" d="M436.22,30.75a2.11,2.11,0,0,0-1.5-.57A1.74,1.74,0,0,0,432.89,32a1.81,1.81,0,0,0,1.89,1.85,2.14,2.14,0,0,0,1.44-.57v1.78a3.73,3.73,0,0,1-4.19-.54A3.33,3.33,0,0,1,431,32a3.34,3.34,0,0,1,3.46-3.48,4,4,0,0,1,1.76.39Z"/><path class="cls-1" d="M444,33.45a3.2,3.2,0,0,1-3.19,2,3.37,3.37,0,0,1-2.49-.92,3.25,3.25,0,0,1-1-2.53,3.43,3.43,0,0,1,1-2.55,3.32,3.32,0,0,1,2.44-.92,3.12,3.12,0,0,1,2.54,1.07,3.87,3.87,0,0,1,.78,2.55v.15h-4.86a1.89,1.89,0,0,0,.31,1.09,1.56,1.56,0,0,0,1.31.62,1.66,1.66,0,0,0,1.51-.86Zm-1.68-2.29a1.55,1.55,0,0,0-3.07,0Z"/><path class="cls-1" d="M448.92,28.77h1.83v.84a2.39,2.39,0,0,1,2-1.05,2.49,2.49,0,0,1,1.92.8,2.73,2.73,0,0,1,.51,1.83v4.08h-1.83V31.73a1.88,1.88,0,0,0-.34-1.28,1.19,1.19,0,0,0-.86-.33,1.25,1.25,0,0,0-1.12.57,2.25,2.25,0,0,0-.29,1.26v3.32h-1.83Z"/><path class="cls-1" d="M458.76,28.77v3.68a1.47,1.47,0,0,0,.39,1.14,1.54,1.54,0,0,0,.93.33,1.5,1.5,0,0,0,.93-.33,1.47,1.47,0,0,0,.39-1.14V28.77h1.83v4a2.44,2.44,0,0,1-.79,2,4.12,4.12,0,0,1-4.71,0,2.46,2.46,0,0,1-.8-2v-4Z"/><path class="cls-1" d="M471.35,33.45a3.22,3.22,0,0,1-3.2,2,3.39,3.39,0,0,1-2.49-.92,3.25,3.25,0,0,1-1-2.53,3.47,3.47,0,0,1,1-2.55,3.35,3.35,0,0,1,2.45-.92,3.09,3.09,0,0,1,2.53,1.07,3.87,3.87,0,0,1,.78,2.55v.15h-4.86a1.89,1.89,0,0,0,.32,1.09,1.54,1.54,0,0,0,1.3.62,1.68,1.68,0,0,0,1.52-.86Zm-1.68-2.29a1.56,1.56,0,0,0-3.08,0Z"/><path class="cls-1" d="M476.34,30.32a1.5,1.5,0,0,0-1.06-.44c-.44,0-.71.21-.71.53,0,.16.08.42.59.58l.43.14a3.27,3.27,0,0,1,1.65.93,1.85,1.85,0,0,1,.33,1.08,2.15,2.15,0,0,1-.72,1.65,2.71,2.71,0,0,1-2,.69,3.31,3.31,0,0,1-2.52-1.08l1-1.11a2,2,0,0,0,1.44.75c.51,0,.9-.26.9-.71a.73.73,0,0,0-.57-.66l-.42-.15a3.4,3.4,0,0,1-1.39-.78,1.73,1.73,0,0,1-.5-1.24,1.91,1.91,0,0,1,.68-1.47,2.65,2.65,0,0,1,1.69-.47,3.23,3.23,0,0,1,2.07.69Z"/><path class="cls-1" d="M480.69,30.33v4.94h-1.83V30.33h-.72V28.77h.72V26.55h1.83v2.22H482v1.56Z"/><path class="cls-1" d="M482.91,28.77h1.83v1a2.19,2.19,0,0,1,.81-.9,2,2,0,0,1,1.08-.29,2.35,2.35,0,0,1,.78.15l-.24,1.71a1.4,1.4,0,0,0-.85-.24,1.5,1.5,0,0,0-1.22.53,2.25,2.25,0,0,0-.36,1.44v3.12h-1.83Z"/><path class="cls-1" d="M493.14,28.77H495v6.5h-1.83v-.84a2.34,2.34,0,0,1-2,1A3.3,3.3,0,0,1,487.83,32a3.25,3.25,0,0,1,3.23-3.45,2.35,2.35,0,0,1,2.08,1.05ZM489.72,32a1.8,1.8,0,1,0,1.8-1.83A1.78,1.78,0,0,0,489.72,32Z"/><path class="cls-1" d="M500.25,30.32a1.5,1.5,0,0,0-1.06-.44c-.44,0-.71.21-.71.53,0,.16.08.42.59.58l.43.14a3.27,3.27,0,0,1,1.65.93,1.85,1.85,0,0,1,.33,1.08,2.15,2.15,0,0,1-.72,1.65,2.71,2.71,0,0,1-1.95.69,3.31,3.31,0,0,1-2.52-1.08l1-1.11a2,2,0,0,0,1.44.75c.51,0,.9-.26.9-.71a.73.73,0,0,0-.57-.66l-.42-.15a3.4,3.4,0,0,1-1.39-.78,1.73,1.73,0,0,1-.5-1.24,1.91,1.91,0,0,1,.68-1.47,2.65,2.65,0,0,1,1.69-.47,3.23,3.23,0,0,1,2.07.69Z"/><path class="cls-1" d="M408,52.27v-10h1.35l6.09,6.68V42.26h1.95v10H416l-6.09-6.69v6.69Z"/><path class="cls-1" d="M424,45.77h1.83v6.5H424v-.84a2.34,2.34,0,0,1-2,1A3.3,3.3,0,0,1,418.65,49a3.24,3.24,0,0,1,3.22-3.45,2.36,2.36,0,0,1,2.09,1ZM420.54,49a1.8,1.8,0,1,0,1.8-1.83A1.78,1.78,0,0,0,420.54,49Z"/><path class="cls-1" d="M428.32,45.77,430,49.43l1.71-3.66h2l-3.27,6.5h-1l-3.27-6.5Z"/><path class="cls-1" d="M440.5,50.45a3.2,3.2,0,0,1-3.19,2,3.37,3.37,0,0,1-2.49-.92,3.25,3.25,0,0,1-1-2.53,3.43,3.43,0,0,1,1-2.55,3.32,3.32,0,0,1,2.44-.92,3.12,3.12,0,0,1,2.54,1.07,3.87,3.87,0,0,1,.78,2.55v.15h-4.86a1.89,1.89,0,0,0,.31,1.09,1.56,1.56,0,0,0,1.31.62,1.66,1.66,0,0,0,1.51-.86Zm-1.68-2.29a1.55,1.55,0,0,0-3.07,0Z"/><path class="cls-1" d="M445.09,47.32a1.5,1.5,0,0,0-1.06-.44c-.44,0-.71.21-.71.53,0,.16.08.42.59.58l.43.14a3.27,3.27,0,0,1,1.65.93,1.85,1.85,0,0,1,.33,1.08,2.15,2.15,0,0,1-.72,1.65,2.71,2.71,0,0,1-2,.69,3.31,3.31,0,0,1-2.52-1.08l1-1.11a2,2,0,0,0,1.44.75c.51,0,.9-.26.9-.71a.73.73,0,0,0-.57-.66l-.42-.15a3.4,3.4,0,0,1-1.39-.78,1.73,1.73,0,0,1-.5-1.24,1.91,1.91,0,0,1,.68-1.47,2.65,2.65,0,0,1,1.69-.47,3.23,3.23,0,0,1,2.07.69Z"/><path class="cls-1" d="M452.55,51.29l-3.09-5.52h2.13l2,3.69,1.8-3.69h2.07l-5.24,9.93h-2.07Z"/><path class="cls-1" d="M463.27,42.26v8.33h3.09v1.68h-5v-10Z"/><path class="cls-1" d="M473.05,46.48a3.48,3.48,0,0,1,0,5.08,3.72,3.72,0,0,1-2.62.92,3.76,3.76,0,0,1-2.63-.92,3.5,3.5,0,0,1,0-5.08,3.76,3.76,0,0,1,2.63-.92A3.72,3.72,0,0,1,473.05,46.48ZM472.26,49a1.83,1.83,0,1,0-1.83,1.83A1.82,1.82,0,0,0,472.26,49Z"/><path class="cls-1" d="M477,47.33v4.94h-1.83V47.33h-.72V45.77h.72V43.55H477v2.22h1.26v1.56Z"/><path class="cls-1" d="M485.17,50.45a3.2,3.2,0,0,1-3.19,2,3.37,3.37,0,0,1-2.49-.92,3.25,3.25,0,0,1-1-2.53,3.43,3.43,0,0,1,1-2.55,3.32,3.32,0,0,1,2.44-.92,3.12,3.12,0,0,1,2.54,1.07,3.87,3.87,0,0,1,.78,2.55v.15h-4.86a1.89,1.89,0,0,0,.31,1.09A1.56,1.56,0,0,0,482,51a1.66,1.66,0,0,0,1.51-.86Zm-1.68-2.29a1.55,1.55,0,0,0-3.07,0Z"/><path class="cls-1" d="M489.76,47.32a1.5,1.5,0,0,0-1.06-.44c-.44,0-.71.21-.71.53,0,.16.08.42.59.58l.43.14a3.27,3.27,0,0,1,1.65.93,1.85,1.85,0,0,1,.33,1.08,2.15,2.15,0,0,1-.72,1.65,2.71,2.71,0,0,1-1.95.69,3.31,3.31,0,0,1-2.52-1.08l1-1.11a2,2,0,0,0,1.44.75c.51,0,.9-.26.9-.71a.73.73,0,0,0-.57-.66l-.42-.15a3.4,3.4,0,0,1-1.39-.78,1.73,1.73,0,0,1-.5-1.24A1.91,1.91,0,0,1,486.9,46a2.65,2.65,0,0,1,1.69-.47,3.23,3.23,0,0,1,2.07.69Z"/><path class="cls-1" d="M417.46,67.45a3.22,3.22,0,0,1-3.2,2,3.39,3.39,0,0,1-2.49-.92,3.25,3.25,0,0,1-1-2.53,3.47,3.47,0,0,1,1-2.55,3.35,3.35,0,0,1,2.45-.92,3.09,3.09,0,0,1,2.53,1.07,3.87,3.87,0,0,1,.78,2.55v.15h-4.86a1.89,1.89,0,0,0,.32,1.09,1.54,1.54,0,0,0,1.3.62,1.68,1.68,0,0,0,1.52-.86Zm-1.68-2.29a1.56,1.56,0,0,0-3.08,0Z"/><path class="cls-1" d="M418.51,62.77h1.83v.84a2.38,2.38,0,0,1,2-1,2.49,2.49,0,0,1,1.92.8,2.73,2.73,0,0,1,.51,1.83v4.08H423V65.73a1.89,1.89,0,0,0-.35-1.28,1.16,1.16,0,0,0-.86-.33,1.26,1.26,0,0,0-1.12.57,2.24,2.24,0,0,0-.28,1.26v3.32h-1.83Z"/><path class="cls-1" d="M432.38,59.26A3.55,3.55,0,0,1,435,60a3.18,3.18,0,0,1,1,2.41,3.25,3.25,0,0,1-.82,2.24,3.46,3.46,0,0,1-2.54.88h-1.26v3.71h-1.95v-10Zm-1,4.62h.8a2,2,0,0,0,1.27-.31A1.51,1.51,0,0,0,434,62.4a1.38,1.38,0,0,0-.55-1.14,2.33,2.33,0,0,0-1.38-.32h-.68Z"/><path class="cls-1" d="M436.81,62.77h1.83v1a2.06,2.06,0,0,1,.81-.9,2,2,0,0,1,1.08-.29,2.4,2.4,0,0,1,.78.15l-.24,1.71a1.43,1.43,0,0,0-.86-.24,1.53,1.53,0,0,0-1.22.53,2.25,2.25,0,0,0-.35,1.44v3.12h-1.83Z"/><path class="cls-1" d="M447.86,67.45a3.22,3.22,0,0,1-3.2,2,3.41,3.41,0,0,1-2.49-.92,3.25,3.25,0,0,1-1-2.53,3.43,3.43,0,0,1,1-2.55,3.32,3.32,0,0,1,2.44-.92,3.09,3.09,0,0,1,2.53,1.07,3.88,3.88,0,0,1,.79,2.55v.15H443a1.89,1.89,0,0,0,.32,1.09,1.54,1.54,0,0,0,1.3.62,1.67,1.67,0,0,0,1.52-.86Zm-1.68-2.29a1.55,1.55,0,0,0-3.07,0Z"/><path class="cls-1" d="M449.57,65h3.9v1.68h-3.9Z"/><path class="cls-1" d="M455.88,62.77l1.71,3.66,1.71-3.66h2l-3.27,6.5h-1l-3.27-6.5Z"/><path class="cls-1" d="M468.06,67.45a3.2,3.2,0,0,1-3.19,2,3.37,3.37,0,0,1-2.49-.92,3.25,3.25,0,0,1-1-2.53,3.43,3.43,0,0,1,1-2.55,3.32,3.32,0,0,1,2.44-.92,3.12,3.12,0,0,1,2.54,1.07,3.87,3.87,0,0,1,.78,2.55v.15h-4.86a1.89,1.89,0,0,0,.31,1.09,1.56,1.56,0,0,0,1.31.62,1.66,1.66,0,0,0,1.51-.86Zm-1.68-2.29a1.55,1.55,0,0,0-3.07,0Z"/><path class="cls-1" d="M469.11,62.77h1.83v.84a2.39,2.39,0,0,1,2-1,2.49,2.49,0,0,1,1.92.8,2.73,2.73,0,0,1,.51,1.83v4.08h-1.83V65.73a1.88,1.88,0,0,0-.34-1.28,1.19,1.19,0,0,0-.86-.33,1.25,1.25,0,0,0-1.12.57,2.25,2.25,0,0,0-.29,1.26v3.32h-1.83Z"/><path class="cls-1" d="M478.55,64.33v4.94h-1.83V64.33H476V62.77h.72V60.55h1.83v2.22h1.26v1.56Z"/><path class="cls-1" d="M485.34,62.77h1.83v6.5h-1.83v-.84a2.34,2.34,0,0,1-2,1A3.3,3.3,0,0,1,480,66a3.25,3.25,0,0,1,3.23-3.45,2.35,2.35,0,0,1,2.08,1ZM481.92,66a1.8,1.8,0,1,0,1.8-1.83A1.78,1.78,0,0,0,481.92,66Z"/><path class="cls-5" d="M354.22,181.41l-28.78-12.74v6.87h0a54.38,54.38,0,0,1-54.21-50.26c.09-1.36.14-2.73.14-4.12,0-.36,0-.7,0-1.06H259.64c0,.36,0,.7,0,1.06,0,1.39.05,2.76.14,4.12a54.37,54.37,0,0,1-53.84,50.25v-6.86l-28.78,12.74,28.78,12.75V187a65.79,65.79,0,0,0,59.57-38.63A65.82,65.82,0,0,0,325.44,187h0v7.18Z"/></g></g></svg>