<svg xmlns="http://www.w3.org/2000/svg" viewBox="0 0 313.07 229.22"><defs><style>.cls-1{font-size:9.22px;font-family:MyriadPro-Regular, Myriad Pro;}.cls-1,.cls-5{fill:#fff;}.cls-2{letter-spacing:-0.04em;}.cls-3{letter-spacing:-0.02em;}.cls-4{fill:none;stroke:#fff;stroke-miterlimit:10;stroke-width:0.92px;}.cls-5{font-size:28.35px;font-family:FuturaBT-Medium, Futura Md BT;font-weight:500;letter-spacing:0.23em;}</style></defs><title>lotes-tipo</title><g id="Capa_2" data-name="Capa 2"><g id="Capa_1-2" data-name="Capa 1"><text class="cls-1" transform="translate(255.68 71.6) rotate(-90)">B</text><text class="cls-1" transform="translate(277.66 130.12)">A</text><text class="cls-1" transform="translate(271.03 41)"><tspan class="cls-2">L</tspan><tspan class="cls-3" x="3.99" y="0">O</tspan><tspan x="10.11" y="0">TE</tspan></text><rect class="cls-4" x="248.69" y="0.73" width="63.92" height="132.4"/><line class="cls-4" x1="253.6" y1="73.33" x2="253.6" y2="128.77"/><line class="cls-4" x1="253.6" y1="5.92" x2="253.6" y2="63.73"/><line class="cls-4" x1="251.47" y1="5.92" x2="255.74" y2="5.92"/><line class="cls-4" x1="251.47" y1="128.77" x2="255.74" y2="128.77"/><line class="cls-4" x1="275.07" y1="128.77" x2="253.6" y2="128.77"/><line class="cls-4" x1="309.83" y1="128.77" x2="285.31" y2="128.77"/><line class="cls-4" x1="309.83" y1="126.64" x2="309.83" y2="130.91"/><line class="cls-4" x1="253.6" y1="126.64" x2="253.6" y2="130.91"/><text class="cls-5" transform="translate(271.6 87.75)">A</text><text class="cls-1" transform="translate(173.98 81.25) rotate(-90)">B</text><text class="cls-1" transform="translate(197.34 161.92)">A</text><text class="cls-1" transform="translate(190.01 41)"><tspan class="cls-2">L</tspan><tspan class="cls-3" x="3.99" y="0">O</tspan><tspan x="10.11" y="0">TE</tspan></text><rect class="cls-4" x="167.67" y="0.73" width="63.92" height="164.38"/><line class="cls-4" x1="172.05" y1="82.76" x2="172.05" y2="160.81"/><line class="cls-4" x1="172.05" y1="5.13" x2="172.05" y2="72.91"/><line class="cls-4" x1="169.91" y1="5.13" x2="174.19" y2="5.13"/><line class="cls-4" x1="169.91" y1="160.81" x2="174.19" y2="160.81"/><line class="cls-4" x1="195.76" y1="160.81" x2="172.05" y2="160.81"/><line class="cls-4" x1="228.28" y1="160.81" x2="204.63" y2="160.81"/><line class="cls-4" x1="228.28" y1="158.68" x2="228.28" y2="162.95"/><line class="cls-4" x1="172.05" y1="158.68" x2="172.05" y2="162.95"/><text class="cls-5" transform="translate(192.51 87.75)">B</text><text class="cls-1" transform="translate(92.05 93.06) rotate(-90)">B</text><text class="cls-1" transform="translate(115.05 193.61)">A</text><text class="cls-1" transform="translate(107.66 41)"><tspan class="cls-2">L</tspan><tspan class="cls-3" x="3.99" y="0">O</tspan><tspan x="10.11" y="0">TE</tspan></text><rect class="cls-4" x="85.32" y="0.73" width="63.92" height="196.34"/><line class="cls-4" x1="90.23" y1="94.16" x2="90.23" y2="192.07"/><line class="cls-4" x1="90.23" y1="4.89" x2="90.23" y2="85.29"/><line class="cls-4" x1="88.09" y1="4.89" x2="92.37" y2="4.89"/><line class="cls-4" x1="88.09" y1="192.07" x2="92.37" y2="192.07"/><line class="cls-4" x1="113.52" y1="192.07" x2="90.23" y2="192.07"/><line class="cls-4" x1="146.46" y1="192.07" x2="121.27" y2="192.07"/><line class="cls-4" x1="146.46" y1="189.93" x2="146.46" y2="194.21"/><line class="cls-4" x1="90.23" y1="189.93" x2="90.23" y2="194.21"/><text class="cls-5" transform="translate(106.16 87.75)">C</text><text class="cls-1" transform="translate(22.24 41)"><tspan class="cls-2">L</tspan><tspan class="cls-3" x="3.99" y="0">O</tspan><tspan x="10.11" y="0">TE </tspan></text><rect class="cls-4" x="0.87" y="0.46" width="63.92" height="228.3"/><text class="cls-1" transform="translate(7.72 116.08) rotate(-90)">B</text><text class="cls-1" transform="translate(30.01 225.89)">A</text><line class="cls-4" x1="5.78" y1="119.23" x2="5.78" y2="224.58"/><line class="cls-4" x1="5.78" y1="3.61" x2="5.78" y2="107.07"/><line class="cls-4" x1="3.65" y1="3.61" x2="7.92" y2="3.61"/><line class="cls-4" x1="3.65" y1="224.58" x2="7.92" y2="224.58"/><line class="cls-4" x1="28.75" y1="224.58" x2="5.78" y2="224.58"/><line class="cls-4" x1="62.01" y1="224.58" x2="36.14" y2="224.58"/><line class="cls-4" x1="62.01" y1="222.45" x2="62.01" y2="226.72"/><line class="cls-4" x1="5.78" y1="222.45" x2="5.78" y2="226.72"/><text class="cls-5" transform="translate(20.76 87.75)">D</text></g></g></svg>