<svg xmlns="http://www.w3.org/2000/svg" viewBox="0 0 724.91 260.43"><defs><style>.cls-1,.cls-3{fill:#567bc6;}.cls-2{fill:#3a4f7c;}.cls-3{opacity:0.46;}.cls-4{fill:#f5f2ed;}.cls-5{opacity:0.4;}.cls-6{fill:#002c55;}.cls-7{fill:#fff;}</style></defs><title>understand-you</title><g id="Capa_2" data-name="Capa 2"><g id="Capa_1-2" data-name="Capa 1"><rect class="cls-1" x="132.98" y="121.42" width="15.92" height="75.3" transform="translate(-68.46 195.39) rotate(-58.3)"/><rect class="cls-2" x="66.06" y="76.74" width="15.92" height="82.01" transform="translate(-65.05 118.84) rotate(-58.3)"/><rect class="cls-1" x="188.7" y="121.42" width="15.92" height="75.3" transform="translate(164.68 409.99) rotate(-121.7)"/><rect class="cls-2" x="222.58" y="109.78" width="82.01" height="15.92" transform="translate(-22.54 156.09) rotate(-31.7)"/><rect class="cls-2" x="319.8" y="78.33" width="15.92" height="75.3" transform="translate(56.84 333.88) rotate(-58.3)"/><rect class="cls-1" x="386.72" y="116.31" width="15.92" height="82.01" transform="matrix(-0.53, 0.85, -0.85, -0.53, 735.93, -95.8)"/><rect class="cls-2" x="485.37" y="108.02" width="75.3" height="15.92" transform="translate(17.1 292.17) rotate(-31.7)"/><rect class="cls-1" x="448.14" y="116.31" width="15.92" height="82.01" transform="translate(350.25 -313.4) rotate(58.3)"/><path class="cls-3" d="M489.39,95.71a28,28,0,0,1-28,28H301.52v-56H461.37a28,28,0,0,1,28,28Z"/><path class="cls-4" d="M345.28,91a2.19,2.19,0,0,1,.25-1,1.47,1.47,0,0,1,1.34-.68,1.78,1.78,0,0,1,1.18.42,1.65,1.65,0,0,1,.47,1.18A1.49,1.49,0,0,1,348,92a2.58,2.58,0,0,1-1.08.45,2,2,0,0,0-1.07.49,1.71,1.71,0,0,0,.06,2,1.24,1.24,0,0,0,1,.4,1.3,1.3,0,0,0,1-.4,1.5,1.5,0,0,0,.33-1,1.26,1.26,0,0,0-.08-.47h.51a1.61,1.61,0,0,1,.09.54,1.74,1.74,0,0,1-.52,1.36,2,2,0,0,1-1.36.49A1.76,1.76,0,0,1,345,94a1.75,1.75,0,0,1,.43-1.24,2,2,0,0,1,1-.6,3.52,3.52,0,0,0,1.12-.4,1.09,1.09,0,0,0,.4-.87,1.17,1.17,0,0,0-.3-.8,1.21,1.21,0,0,0-1.76.08,1.73,1.73,0,0,0-.2.85Zm1.6-2.3a.44.44,0,1,1,0-.87.44.44,0,0,1,0,.87Z"/><path class="cls-4" d="M354.3,89.36a2.19,2.19,0,0,0-1.65-.79,2.07,2.07,0,0,0,0,4.13,2.39,2.39,0,0,0,1.73-.85v.63a2.6,2.6,0,0,1-1.75.67,2.51,2.51,0,0,1,0-5,2.5,2.5,0,0,1,1.65.61Z"/><path class="cls-4" d="M360.37,90.64a2.52,2.52,0,1,1-2.52-2.51A2.48,2.48,0,0,1,360.37,90.64Zm-.5,0a2,2,0,1,0-2,2.06A2,2,0,0,0,359.87,90.64Z"/><path class="cls-4" d="M361.75,88.23h.47V89a1.58,1.58,0,0,1,1.46-.85,1.48,1.48,0,0,1,1.33.67,2.29,2.29,0,0,1,.23,1.2v3h-.47V90a1.84,1.84,0,0,0-.18-1,1,1,0,0,0-.94-.47,1.28,1.28,0,0,0-1.18.67,2.62,2.62,0,0,0-.25,1.29V93h-.47Z"/><path class="cls-4" d="M370.13,88.23v2.89a1.84,1.84,0,0,0,.31,1.2,1.19,1.19,0,0,0,.95.38,1.21,1.21,0,0,0,.95-.38,1.89,1.89,0,0,0,.3-1.2V88.23h.47v3a2,2,0,0,1-.36,1.31,1.7,1.7,0,0,1-1.36.59,1.68,1.68,0,0,1-1.36-.59,2,2,0,0,1-.37-1.31v-3Z"/><path class="cls-4" d="M374.8,88.23h.47V89a1.58,1.58,0,0,1,1.46-.85,1.48,1.48,0,0,1,1.33.67,2.29,2.29,0,0,1,.23,1.2v3h-.47V90a1.84,1.84,0,0,0-.18-1,1,1,0,0,0-.94-.47,1.28,1.28,0,0,0-1.18.67,2.62,2.62,0,0,0-.25,1.29V93h-.47Z"/><path class="cls-4" d="M383.88,88.23h.46V93h-.46v-.86a2.21,2.21,0,0,1-1.87,1,2.34,2.34,0,0,1-2.33-2.52,2.29,2.29,0,0,1,2.33-2.5,2.19,2.19,0,0,1,1.87.94Zm-3.71,2.36a2,2,0,0,0,1.88,2.11,1.92,1.92,0,0,0,1.85-2.11,1.87,1.87,0,1,0-3.73,0Z"/><path class="cls-4" d="M389.23,88.23v2.89a1.84,1.84,0,0,0,.31,1.2,1.19,1.19,0,0,0,.95.38,1.21,1.21,0,0,0,.95-.38,1.89,1.89,0,0,0,.3-1.2V88.23h.47v3a2,2,0,0,1-.36,1.31,1.86,1.86,0,0,1-2.72,0,2,2,0,0,1-.37-1.31v-3Z"/><path class="cls-4" d="M394.37,84.47v4.6a2.23,2.23,0,0,1,1.88-.94,2.28,2.28,0,0,1,2.32,2.46,2.36,2.36,0,0,1-2.35,2.56,2.07,2.07,0,0,1-1.85-1V93h-.47V84.47Zm3.71,6.12a1.87,1.87,0,1,0-3.74,0,1.88,1.88,0,1,0,3.74,0Z"/><path class="cls-4" d="M399.76,86.64a.43.43,0,1,1,.85,0,.43.43,0,1,1-.85,0Zm.66,1.59V93H400V88.23Z"/><path class="cls-4" d="M405.94,89.36a2.17,2.17,0,0,0-1.65-.79,2,2,0,0,0-2,2.08,2,2,0,0,0,2,2,2.39,2.39,0,0,0,1.73-.85v.63a2.6,2.6,0,0,1-1.75.67,2.51,2.51,0,0,1,0-5,2.5,2.5,0,0,1,1.65.61Z"/><path class="cls-4" d="M411.18,88.23h.47V93h-.47v-.86a2.18,2.18,0,0,1-1.86,1A2.35,2.35,0,0,1,407,90.63a2.3,2.3,0,0,1,2.34-2.5,2.16,2.16,0,0,1,1.86.94Zm-3.7,2.36a1.88,1.88,0,1,0,3.73,0,1.87,1.87,0,1,0-3.73,0Z"/><path class="cls-4" d="M417.18,89.36a2.21,2.21,0,0,0-1.66-.79,2,2,0,0,0-2,2.08,2,2,0,0,0,2,2,2.43,2.43,0,0,0,1.74-.85v.63a2.64,2.64,0,0,1-1.75.67,2.51,2.51,0,0,1,0-5,2.54,2.54,0,0,1,1.66.61Z"/><path class="cls-4" d="M418.34,86.64a.42.42,0,0,1,.42-.44.42.42,0,0,1,.42.44.41.41,0,0,1-.42.43A.41.41,0,0,1,418.34,86.64Zm.65,1.59V93h-.47V88.23Z"/><path class="cls-4" d="M425.4,90.64a2.51,2.51,0,1,1-2.51-2.51A2.47,2.47,0,0,1,425.4,90.64Zm-.5,0a2,2,0,1,0-2,2.06A2,2,0,0,0,424.9,90.64Zm-1-4.6-1.23,1.5-.36-.19,1.08-1.6Z"/><path class="cls-4" d="M426.78,88.23h.47V89a1.58,1.58,0,0,1,1.46-.85,1.48,1.48,0,0,1,1.33.67,2.29,2.29,0,0,1,.23,1.2v3h-.47V90a1.84,1.84,0,0,0-.18-1,1,1,0,0,0-.94-.47,1.26,1.26,0,0,0-1.17.67,2.51,2.51,0,0,0-.26,1.29V93h-.47Z"/><path class="cls-4" d="M434.88,90.69a1.91,1.91,0,0,0,1.9,2,1.82,1.82,0,0,0,1.67-1.09l.4.24a2.89,2.89,0,1,1,.13-1.16Zm3.6-.45a1.79,1.79,0,0,0-1.77-1.67,1.83,1.83,0,0,0-1.79,1.67Z"/><path class="cls-4" d="M442.4,89.11a.89.89,0,0,0-.83-.54.77.77,0,0,0-.81.77c0,.47.37.62.84.81a2.51,2.51,0,0,1,1.23.7,1.15,1.15,0,0,1,.25.77,1.46,1.46,0,0,1-1.56,1.53,1.64,1.64,0,0,1-1.66-1.27l.46-.14a1.22,1.22,0,0,0,1.2,1,1,1,0,0,0,1.07-1c0-.54-.34-.74-1.07-1a2.48,2.48,0,0,1-1-.64,1,1,0,0,1-.21-.62,1.21,1.21,0,0,1,1.28-1.23,1.31,1.31,0,0,1,1.26.77Z"/><path class="cls-4" d="M444.78,88.68V93h-.47V88.68h-.53v-.45h.53V86.52h.47v1.71h.83v.45Z"/><path class="cls-4" d="M446.55,88.23H447v.62a1.12,1.12,0,0,1,1.05-.72,1.18,1.18,0,0,1,.51.11l-.24.43a.49.49,0,0,0-.35-.1c-1,0-1,1.28-1,1.88V93h-.47Z"/><path class="cls-4" d="M453.36,88.23h.47V93h-.47v-.86a2.18,2.18,0,0,1-1.86,1,2.35,2.35,0,0,1-2.34-2.52,2.3,2.3,0,0,1,2.34-2.5,2.16,2.16,0,0,1,1.86.94Zm-3.7,2.36a1.88,1.88,0,1,0,3.73,0,1.87,1.87,0,1,0-3.73,0Z"/><path class="cls-4" d="M456,88.68V93h-.47V88.68H455v-.45h.52V86.52H456v1.71h.84v.45Z"/><path class="cls-4" d="M458,90.69a1.91,1.91,0,0,0,1.9,2,1.82,1.82,0,0,0,1.67-1.09l.4.24a2.89,2.89,0,1,1,.13-1.16Zm3.6-.45a1.79,1.79,0,0,0-1.77-1.67A1.83,1.83,0,0,0,458,90.24ZM461,86l-1.23,1.5-.35-.19,1.08-1.6Z"/><path class="cls-4" d="M467.87,88.23v4.65c0,1.81-.9,2.84-2.41,2.84a2.15,2.15,0,0,1-2.34-2h.49a1.72,1.72,0,0,0,1.85,1.6c1.89,0,1.94-1.9,1.94-2.39V92.2a2.29,2.29,0,0,1-1.89,1,2.51,2.51,0,0,1,.06-5,2.15,2.15,0,0,1,1.83.94v-.84Zm-4.23,2.42a1.89,1.89,0,0,0,1.86,2,1.93,1.93,0,0,0,1.92-2.1,1.89,1.89,0,0,0-1.9-2A1.93,1.93,0,0,0,463.64,90.65Z"/><path class="cls-4" d="M469.37,86.64a.42.42,0,0,1,.42-.44.42.42,0,0,1,.42.44.41.41,0,0,1-.42.43A.41.41,0,0,1,469.37,86.64Zm.65,1.59V93h-.47V88.23Z"/><path class="cls-4" d="M475.55,89.36a2.21,2.21,0,0,0-1.66-.79,2,2,0,0,0-2,2.08,2,2,0,0,0,2,2,2.43,2.43,0,0,0,1.74-.85v.63a2.64,2.64,0,0,1-1.75.67,2.51,2.51,0,0,1,0-5,2.54,2.54,0,0,1,1.66.61Z"/><path class="cls-4" d="M480.79,88.23h.47V93h-.47v-.86a2.18,2.18,0,0,1-1.86,1,2.35,2.35,0,0,1-2.34-2.52,2.3,2.3,0,0,1,2.34-2.5,2.17,2.17,0,0,1,1.86.94Zm-3.71,2.36A2,2,0,0,0,479,92.7a1.92,1.92,0,0,0,1.85-2.11,1.87,1.87,0,1,0-3.73,0Z"/><path class="cls-4" d="M345.47,111.52H345V104h.47v.83a2.33,2.33,0,0,1,4.2,1.53,2.36,2.36,0,0,1-2.35,2.56,2.09,2.09,0,0,1-1.85-1Zm3.71-5.12a1.87,1.87,0,1,0-3.73,0,1.88,1.88,0,1,0,3.73,0Z"/><path class="cls-4" d="M351.24,106.49a1.92,1.92,0,0,0,1.9,2,1.84,1.84,0,0,0,1.67-1.09l.4.23a2.89,2.89,0,1,1,.13-1.16Zm3.6-.44a1.79,1.79,0,0,0-1.77-1.67,1.84,1.84,0,0,0-1.8,1.67Z"/><path class="cls-4" d="M356.72,104h.47v.62a1.12,1.12,0,0,1,1.05-.73,1.2,1.2,0,0,1,.51.12l-.24.42a.59.59,0,0,0-.35-.09c-1,0-1,1.28-1,1.88v2.57h-.47Z"/><path class="cls-4" d="M360.23,104.48v4.35h-.47v-4.35h-.54V104h.54v-2.28c0-1.35.7-1.63,1.26-1.63a1.39,1.39,0,0,1,.41.07v.44a.85.85,0,0,0-.36-.06c-.41,0-.84.17-.84,1.28V104h1.2v.44Z"/><path class="cls-4" d="M362.46,106.49a1.92,1.92,0,0,0,1.9,2,1.84,1.84,0,0,0,1.67-1.09l.4.23a2.89,2.89,0,1,1,.13-1.16Zm3.6-.44a1.79,1.79,0,0,0-1.77-1.67,1.83,1.83,0,0,0-1.79,1.67Z"/><path class="cls-4" d="M371.78,105.17a2.18,2.18,0,0,0-1.66-.79,2.07,2.07,0,0,0,0,4.13,2.39,2.39,0,0,0,1.73-.86v.64a2.59,2.59,0,0,1-1.74.67,2.52,2.52,0,0,1,0-5,2.54,2.54,0,0,1,1.66.61Z"/><path class="cls-4" d="M373.63,104.48v4.35h-.47v-4.35h-.53V104h.53v-1.71h.47V104h.83v.44Z"/><path class="cls-4" d="M379.29,104h.47v4.79h-.47V108a2.18,2.18,0,0,1-1.86,1,2.36,2.36,0,0,1-2.34-2.53,2.3,2.3,0,0,1,2.34-2.5,2.19,2.19,0,0,1,1.86.94Zm-3.71,2.36a2,2,0,0,0,1.88,2.11,1.92,1.92,0,0,0,1.85-2.11,1.87,1.87,0,1,0-3.73,0Z"/><path class="cls-4" d="M384.65,111.52h-.47V104h.47v.83a2.25,2.25,0,0,1,1.88-.94,2.29,2.29,0,0,1,2.32,2.47A2.36,2.36,0,0,1,386.5,109a2.09,2.09,0,0,1-1.85-1Zm3.71-5.12a1.87,1.87,0,1,0-3.73,0,1.88,1.88,0,1,0,3.73,0Z"/><path class="cls-4" d="M394.13,104h.46v4.79h-.46V108a2.21,2.21,0,0,1-1.87,1,2.35,2.35,0,0,1-2.33-2.53,2.29,2.29,0,0,1,2.33-2.5,2.21,2.21,0,0,1,1.87.94Zm-3.71,2.36a2,2,0,0,0,1.88,2.11,1.92,1.92,0,0,0,1.85-2.11,1.87,1.87,0,1,0-3.73,0Z"/><path class="cls-4" d="M396.28,104h.47v.62a1.14,1.14,0,0,1,1.06-.73,1.2,1.2,0,0,1,.5.12l-.23.42a.63.63,0,0,0-.36-.09c-1,0-1,1.28-1,1.88v2.57h-.47Z"/><path class="cls-4" d="M403.1,104h.47v4.79h-.47V108a2.2,2.2,0,0,1-1.87,1,2.35,2.35,0,0,1-2.33-2.53,2.29,2.29,0,0,1,2.33-2.5,2.21,2.21,0,0,1,1.87.94Zm-3.71,2.36a2,2,0,0,0,1.88,2.11,1.92,1.92,0,0,0,1.85-2.11,1.87,1.87,0,1,0-3.73,0Z"/><path class="cls-4" d="M408.49,104.48v4.35H408v-4.35h-.53V104H408v-1.71h.47V104h.83v.44Z"/><path class="cls-4" d="M410.73,104v2.89a1.85,1.85,0,0,0,.3,1.19,1.23,1.23,0,0,0,1,.39,1.2,1.2,0,0,0,.95-.39,1.8,1.8,0,0,0,.31-1.19V104h.47v3a2.07,2.07,0,0,1-.37,1.32A1.68,1.68,0,0,1,412,109a1.7,1.7,0,0,1-1.36-.59,2.06,2.06,0,0,1-.36-1.32v-3Z"/><path class="cls-4" d="M418.13,104h.47v.75a1.58,1.58,0,0,1,1.46-.86,1.51,1.51,0,0,1,1.33.67,2.33,2.33,0,0,1,.23,1.21v3h-.47v-3a1.82,1.82,0,0,0-.18-1,1,1,0,0,0-.94-.47,1.27,1.27,0,0,0-1.18.67,2.6,2.6,0,0,0-.25,1.29v2.49h-.47Z"/><path class="cls-4" d="M423.5,106.49a1.92,1.92,0,0,0,1.9,2,1.82,1.82,0,0,0,1.66-1.09l.4.23a2.35,2.35,0,0,1-4.46-1.19,2.31,2.31,0,1,1,4.59,0Zm3.6-.44a1.79,1.79,0,0,0-1.77-1.67,1.83,1.83,0,0,0-1.8,1.67Z"/><path class="cls-4" d="M433.38,104v4.65c0,1.8-.9,2.83-2.4,2.83a2.16,2.16,0,0,1-2.35-2h.5a1.72,1.72,0,0,0,1.85,1.61c1.89,0,1.94-1.9,1.94-2.39V108a2.32,2.32,0,0,1-1.89,1,2.52,2.52,0,0,1,.06-5,2.19,2.19,0,0,1,1.83.94V104Zm-4.22,2.42a1.89,1.89,0,0,0,1.85,2.05,1.94,1.94,0,0,0,1.93-2.1,1.89,1.89,0,0,0-1.9-2A1.92,1.92,0,0,0,429.16,106.46Z"/><path class="cls-4" d="M439.79,106.44a2.51,2.51,0,1,1-2.51-2.51A2.48,2.48,0,0,1,439.79,106.44Zm-.49,0a2,2,0,1,0-2,2.07A2,2,0,0,0,439.3,106.44Z"/><path class="cls-4" d="M445,105.17a2.18,2.18,0,0,0-1.66-.79,2.07,2.07,0,0,0,0,4.13,2.39,2.39,0,0,0,1.73-.86v.64a2.59,2.59,0,0,1-1.74.67,2.52,2.52,0,0,1,0-5,2.54,2.54,0,0,1,1.66.61Z"/><path class="cls-4" d="M446.16,102.44a.43.43,0,1,1,.85,0,.43.43,0,1,1-.85,0Zm.66,1.6v4.79h-.47V104Z"/><path class="cls-4" d="M453.22,106.44a2.51,2.51,0,1,1-2.51-2.51A2.48,2.48,0,0,1,453.22,106.44Zm-.49,0a2,2,0,1,0-2,2.07A2,2,0,0,0,452.73,106.44Z"/><path class="cls-4" d="M458.1,105.78a2.35,2.35,0,0,1-.24,1,1.51,1.51,0,0,1-1.34.68,1.86,1.86,0,0,1-1.19-.42,1.68,1.68,0,0,1-.47-1.19,1.53,1.53,0,0,1,.52-1.16,3,3,0,0,1,1.08-.45,2.2,2.2,0,0,0,1.07-.49,1.76,1.76,0,0,0-.06-2,1.29,1.29,0,0,0-1-.4,1.37,1.37,0,0,0-1,.4,1.54,1.54,0,0,0-.32,1.06,1.33,1.33,0,0,0,.08.47h-.52a1.64,1.64,0,0,1-.08-.54,1.7,1.7,0,0,1,.52-1.36,1.94,1.94,0,0,1,1.36-.5,1.74,1.74,0,0,1,1.85,1.9,1.78,1.78,0,0,1-.42,1.25,2.08,2.08,0,0,1-1.05.6,3,3,0,0,0-1.11.4,1.05,1.05,0,0,0-.4.86,1.22,1.22,0,0,0,.29.8,1.21,1.21,0,0,0,1.76-.08,1.57,1.57,0,0,0,.2-.84Zm-1.59,2.31a.42.42,0,0,1,.43.43.44.44,0,1,1-.87,0A.42.42,0,0,1,456.51,108.09Z"/><path class="cls-4" d="M287.51,10a10.85,10.85,0,0,1,3.13-7.15,11.12,11.12,0,0,1,8-2.8,10.15,10.15,0,0,1,7.92,3,9.51,9.51,0,0,1,2.64,7A8.91,8.91,0,0,1,308,14.85a8.6,8.6,0,0,1-3.3,3.08,7.56,7.56,0,0,1,3.63,2.91,10.23,10.23,0,0,1,1.54,5.67,11.43,11.43,0,0,1-3.14,8.19c-2.64,2.64-6.1,3.19-9,3.19s-5.83-.55-8.19-3.08a13.36,13.36,0,0,1-3.14-7.48h5.39a7.07,7.07,0,0,0,2,4,6.23,6.23,0,0,0,4.45,1.65,6.64,6.64,0,0,0,4.29-1.54,6.91,6.91,0,0,0,1.93-5.17,5.8,5.8,0,0,0-1.65-4.34,6.54,6.54,0,0,0-4.73-1.65H297V15.51h.77a6.38,6.38,0,0,0,4.67-1.6,5.45,5.45,0,0,0,1.43-3.9,5,5,0,0,0-1.43-3.69A5.39,5.39,0,0,0,298.51,5a5.33,5.33,0,0,0-4.07,1.48A6.37,6.37,0,0,0,292.9,10Z"/><g class="cls-5"><path class="cls-2" d="M259.61,96.44a28,28,0,0,1-28,28H36.9v-56H231.59a28,28,0,0,1,28,28Z"/></g><path class="cls-4" d="M81.75,87.88a2.25,2.25,0,0,1,.25-1,1.49,1.49,0,0,1,1.34-.68,1.83,1.83,0,0,1,1.18.42A1.68,1.68,0,0,1,85,87.77a1.5,1.5,0,0,1-.52,1.16,2.47,2.47,0,0,1-1.07.45,2,2,0,0,0-1.07.49,1.44,1.44,0,0,0-.3,1,1.47,1.47,0,0,0,.36,1.06,1.27,1.27,0,0,0,1,.4,1.34,1.34,0,0,0,1-.4,1.51,1.51,0,0,0,.33-1.06,1.33,1.33,0,0,0-.08-.47h.51a1.65,1.65,0,0,1,.09.54,1.72,1.72,0,0,1-.52,1.36,2,2,0,0,1-1.36.5A1.88,1.88,0,0,1,82,92.23a1.84,1.84,0,0,1-.49-1.37,1.79,1.79,0,0,1,.43-1.25,2,2,0,0,1,1-.6,3.29,3.29,0,0,0,1.12-.39,1.12,1.12,0,0,0,.39-.87,1.17,1.17,0,0,0-.29-.8,1.06,1.06,0,0,0-.83-.34,1.1,1.1,0,0,0-.93.42,1.71,1.71,0,0,0-.2.85Zm1.6-2.3a.44.44,0,1,1,0-.87.44.44,0,0,1,0,.87Z"/><path class="cls-4" d="M90.77,86.26a2.16,2.16,0,0,0-1.65-.79,2.07,2.07,0,0,0,0,4.13,2.4,2.4,0,0,0,1.74-.86v.64a2.62,2.62,0,0,1-1.75.67,2.52,2.52,0,0,1,0-5,2.5,2.5,0,0,1,1.65.61Z"/><path class="cls-4" d="M92.59,85.13V88a1.85,1.85,0,0,0,.3,1.19,1.19,1.19,0,0,0,1,.39,1.17,1.17,0,0,0,1-.39A1.8,1.8,0,0,0,95.1,88V85.13h.47v3a2.06,2.06,0,0,1-.37,1.31,1.68,1.68,0,0,1-1.36.59,1.7,1.7,0,0,1-1.36-.59,2,2,0,0,1-.36-1.31v-3Z"/><path class="cls-4" d="M101.15,85.13h.47v4.79h-.47v-.86a2.19,2.19,0,0,1-1.87,1A2.35,2.35,0,0,1,97,87.52,2.31,2.31,0,0,1,99.28,85a2.2,2.2,0,0,1,1.87.94Zm-3.71,2.36a2,2,0,0,0,1.88,2.11,1.92,1.92,0,0,0,1.85-2.11,1.87,1.87,0,1,0-3.73,0Zm3.15-4.55-1.24,1.5L99,84.25l1.08-1.61Z"/><path class="cls-4" d="M103.3,85.13h.47v.75a1.61,1.61,0,0,1,1.47-.86,1.51,1.51,0,0,1,1.33.67,2.33,2.33,0,0,1,.23,1.21v3h-.47v-3a1.73,1.73,0,0,0-.19-1,1,1,0,0,0-.93-.47,1.27,1.27,0,0,0-1.18.67,2.6,2.6,0,0,0-.26,1.29v2.49h-.47Z"/><path class="cls-4" d="M109,85.58v4.34h-.47V85.58H108v-.45h.53V83.42H109v1.71h.84v.45Z"/><path class="cls-4" d="M115.48,87.54A2.51,2.51,0,1,1,113,85,2.47,2.47,0,0,1,115.48,87.54Zm-.49,0a2,2,0,1,0-2,2.06A2,2,0,0,0,115,87.54Z"/><path class="cls-4" d="M120.1,85.58v4.34h-.47V85.58h-.53v-.45h.53V83.42h.47v1.71h.83v.45Z"/><path class="cls-4" d="M121.68,83.53a.42.42,0,0,1,.42-.43.44.44,0,0,1,0,.87A.42.42,0,0,1,121.68,83.53Zm.66,1.6v4.79h-.47V85.13Z"/><path class="cls-4" d="M124.21,87.58a1.92,1.92,0,0,0,1.9,2,1.84,1.84,0,0,0,1.67-1.09l.4.23a2.89,2.89,0,1,1,.13-1.16Zm3.6-.44A1.79,1.79,0,0,0,126,85.47a1.83,1.83,0,0,0-1.79,1.67Z"/><path class="cls-4" d="M129.69,85.13h.47v.6A1.36,1.36,0,0,1,131.4,85a1.34,1.34,0,0,1,1.34.87,1.49,1.49,0,0,1,1.42-.87,1.46,1.46,0,0,1,1.08.4,1.75,1.75,0,0,1,.41,1.31v3.19h-.47V86.73a1.39,1.39,0,0,0-.28-1,1,1,0,0,0-.72-.27c-1.27,0-1.28,1.27-1.28,1.56v2.89h-.47V86.84c0-.3,0-1.37-1.05-1.37-.84,0-1.22.73-1.22,1.68v2.77h-.47Z"/><path class="cls-4" d="M137.8,92.62h-.47V85.13h.47V86a2.33,2.33,0,0,1,4.2,1.53,2.36,2.36,0,0,1-2.34,2.56,2.08,2.08,0,0,1-1.86-1Zm3.71-5.13a1.87,1.87,0,1,0-3.73,0,1.88,1.88,0,1,0,3.73,0Z"/><path class="cls-4" d="M148.1,87.54A2.51,2.51,0,1,1,145.59,85,2.47,2.47,0,0,1,148.1,87.54Zm-.49,0a2,2,0,1,0-2,2.06A2,2,0,0,0,147.61,87.54Z"/><path class="cls-4" d="M152.21,81.36h.47v4.52a1.61,1.61,0,0,1,1.47-.86,1.51,1.51,0,0,1,1.33.67,2.33,2.33,0,0,1,.23,1.21v3h-.47v-3a1.73,1.73,0,0,0-.19-1,1,1,0,0,0-.93-.47,1.27,1.27,0,0,0-1.18.67,2.6,2.6,0,0,0-.26,1.29v2.49h-.47Z"/><path class="cls-4" d="M161.05,85.13h.47v4.79h-.47v-.86a2.2,2.2,0,0,1-1.87,1,2.35,2.35,0,0,1-2.33-2.53,2.3,2.3,0,0,1,2.33-2.5,2.21,2.21,0,0,1,1.87.94Zm-3.71,2.36a2,2,0,0,0,1.88,2.11,1.92,1.92,0,0,0,1.85-2.11,1.87,1.87,0,1,0-3.73,0Z"/><path class="cls-4" d="M165.24,86a.86.86,0,0,0-.83-.54.77.77,0,0,0-.81.76c0,.47.38.62.85.81a2.65,2.65,0,0,1,1.23.71,1.12,1.12,0,0,1,.24.77,1.47,1.47,0,0,1-1.56,1.53,1.64,1.64,0,0,1-1.65-1.27l.46-.14a1.22,1.22,0,0,0,1.19,1,1,1,0,0,0,1.07-1.06c0-.54-.34-.73-1.07-1a2.37,2.37,0,0,1-1-.63,1,1,0,0,1-.21-.62A1.22,1.22,0,0,1,164.39,85a1.28,1.28,0,0,1,1.25.78Z"/><path class="cls-4" d="M169.66,83.53a.43.43,0,1,1,.43.44A.42.42,0,0,1,169.66,83.53Zm.66,1.6v4.79h-.47V85.13Z"/><path class="cls-4" d="M172,85.13h.47v.75a1.58,1.58,0,0,1,1.46-.86,1.51,1.51,0,0,1,1.33.67,2.33,2.33,0,0,1,.24,1.21v3H175v-3a1.82,1.82,0,0,0-.19-1,1,1,0,0,0-.94-.47,1.24,1.24,0,0,0-1.17.67,2.49,2.49,0,0,0-.26,1.29v2.49H172Z"/><path class="cls-4" d="M177.7,85.58v4.34h-.47V85.58h-.53v-.45h.53V83.42h.47v1.71h.83v.45Z"/><path class="cls-4" d="M179.65,87.58a1.93,1.93,0,0,0,1.9,2,1.83,1.83,0,0,0,1.67-1.09l.4.23a2.89,2.89,0,1,1,.13-1.16Zm3.61-.44a1.79,1.79,0,0,0-3.57,0Z"/><path class="cls-4" d="M185.13,85.13h.47v.75a1.6,1.6,0,0,1,1.47-.86,1.48,1.48,0,0,1,1.32.67,2.33,2.33,0,0,1,.24,1.21v3h-.47v-3a1.82,1.82,0,0,0-.19-1,1,1,0,0,0-.94-.47,1.24,1.24,0,0,0-1.17.67,2.6,2.6,0,0,0-.26,1.29v2.49h-.47Z"/><path class="cls-4" d="M190.82,85.58v4.34h-.47V85.58h-.53v-.45h.53V83.42h.47v1.71h.83v.45Z"/><path class="cls-4" d="M196.48,85.13H197v4.79h-.47v-.86a2.18,2.18,0,0,1-1.86,1,2.35,2.35,0,0,1-2.34-2.53,2.31,2.31,0,0,1,2.34-2.5,2.19,2.19,0,0,1,1.86.94Zm-3.71,2.36a2,2,0,0,0,1.88,2.11,1.93,1.93,0,0,0,1.86-2.11,1.88,1.88,0,1,0-3.74,0Z"/><path class="cls-4" d="M202.53,81.36H203v8.56h-.47v-.86a2.18,2.18,0,0,1-1.85,1,2.35,2.35,0,0,1-2.35-2.55A2.27,2.27,0,0,1,200.68,85a2.15,2.15,0,0,1,1.85.94Zm-3.71,6.13a1.88,1.88,0,1,0,3.74,0,1.87,1.87,0,0,0-1.88-2A1.84,1.84,0,0,0,198.82,87.49Z"/><path class="cls-4" d="M209.4,87.54A2.51,2.51,0,1,1,206.89,85,2.47,2.47,0,0,1,209.4,87.54Zm-.49,0a2,2,0,1,0-2,2.06A2,2,0,0,0,208.91,87.54Z"/><path class="cls-4" d="M213.71,87.58a1.92,1.92,0,0,0,1.9,2,1.82,1.82,0,0,0,1.66-1.09l.4.23a2.35,2.35,0,0,1-4.46-1.19,2.31,2.31,0,1,1,4.59,0Zm3.6-.44a1.8,1.8,0,0,0-1.77-1.67,1.83,1.83,0,0,0-1.8,1.67Z"/><path class="cls-4" d="M219.18,85.13h.47v.75a1.6,1.6,0,0,1,1.47-.86,1.48,1.48,0,0,1,1.32.67,2.23,2.23,0,0,1,.24,1.21v3h-.47v-3a1.73,1.73,0,0,0-.19-1,1,1,0,0,0-.94-.47,1.26,1.26,0,0,0-1.17.67,2.6,2.6,0,0,0-.26,1.29v2.49h-.47Z"/><path class="cls-4" d="M228.2,86.26a2.17,2.17,0,0,0-1.65-.79,2.07,2.07,0,0,0,0,4.13,2.42,2.42,0,0,0,1.74-.86v.64a2.62,2.62,0,0,1-1.75.67,2.52,2.52,0,0,1,0-5,2.52,2.52,0,0,1,1.65.61Z"/><path class="cls-4" d="M234.26,87.54A2.51,2.51,0,1,1,231.75,85,2.47,2.47,0,0,1,234.26,87.54Zm-.49,0a2,2,0,1,0-2,2.06A2,2,0,0,0,233.77,87.54Z"/><path class="cls-4" d="M235.64,85.13h.47v.75a1.61,1.61,0,0,1,1.47-.86,1.51,1.51,0,0,1,1.33.67,2.33,2.33,0,0,1,.23,1.21v3h-.47v-3a1.73,1.73,0,0,0-.19-1,1,1,0,0,0-.93-.47,1.27,1.27,0,0,0-1.18.67,2.6,2.6,0,0,0-.26,1.29v2.49h-.47Z"/><path class="cls-4" d="M241.33,85.58v4.34h-.47V85.58h-.53v-.45h.53V83.42h.47v1.71h.84v.45Z"/><path class="cls-4" d="M243.1,85.13h.47v.62a1.13,1.13,0,0,1,1.56-.61l-.23.42a.59.59,0,0,0-.35-.09c-1,0-1,1.28-1,1.88v2.57h-.47Z"/><path class="cls-4" d="M249.92,85.13h.47v4.79h-.47v-.86a2.2,2.2,0,0,1-1.87,1,2.35,2.35,0,0,1-2.33-2.53,2.31,2.31,0,0,1,2.33-2.5,2.21,2.21,0,0,1,1.87.94Zm-3.71,2.36a2,2,0,0,0,1.88,2.11,1.92,1.92,0,0,0,1.85-2.11,1.87,1.87,0,1,0-3.73,0Z"/><path class="cls-4" d="M252.07,85.13h.47v.62a1.13,1.13,0,0,1,1.56-.61l-.23.42a.59.59,0,0,0-.35-.09c-1,0-1,1.28-1,1.88v2.57h-.47Z"/><path class="cls-4" d="M81.94,100.94v2.88a1.83,1.83,0,0,0,.31,1.2,1.2,1.2,0,0,0,1,.39,1.23,1.23,0,0,0,1-.39,1.88,1.88,0,0,0,.3-1.2v-2.88h.47v3a2.08,2.08,0,0,1-.36,1.32,1.72,1.72,0,0,1-1.36.58,1.7,1.7,0,0,1-1.36-.58,2.09,2.09,0,0,1-.37-1.32v-3Z"/><path class="cls-4" d="M86.61,100.94h.47v.75a1.58,1.58,0,0,1,1.46-.86,1.48,1.48,0,0,1,1.33.67,2.33,2.33,0,0,1,.23,1.21v3h-.47v-3a1.82,1.82,0,0,0-.18-1,1,1,0,0,0-.94-.47,1.28,1.28,0,0,0-1.18.66,2.66,2.66,0,0,0-.25,1.3v2.48h-.47Z"/><path class="cls-4" d="M98.42,97.17h.47v8.55h-.47v-.85a2.18,2.18,0,0,1-1.86,1,2.34,2.34,0,0,1-2.34-2.54,2.26,2.26,0,0,1,2.34-2.48,2.18,2.18,0,0,1,1.86.94Zm-3.71,6.12a1.88,1.88,0,1,0,3.73,0,1.86,1.86,0,0,0-1.88-2A1.83,1.83,0,0,0,94.71,103.29Z"/><path class="cls-4" d="M100.76,103.39a1.92,1.92,0,0,0,1.9,2,1.83,1.83,0,0,0,1.67-1.1l.4.24a2.89,2.89,0,1,1,.13-1.16Zm3.6-.45a1.79,1.79,0,0,0-1.77-1.66,1.83,1.83,0,0,0-1.79,1.66Z"/><path class="cls-4" d="M108.28,101.82a.87.87,0,0,0-.83-.54.77.77,0,0,0-.81.76c0,.47.37.62.84.81a2.67,2.67,0,0,1,1.23.7,1.17,1.17,0,0,1,.25.78,1.46,1.46,0,0,1-1.56,1.52,1.64,1.64,0,0,1-1.66-1.27l.46-.14a1.23,1.23,0,0,0,1.2,1,1,1,0,0,0,1.07-1.06c0-.54-.34-.74-1.07-1a2.39,2.39,0,0,1-1.05-.64,1,1,0,0,1-.21-.62,1.21,1.21,0,0,1,1.28-1.23,1.31,1.31,0,0,1,1.26.77Z"/><path class="cls-4" d="M114.05,100.94h.47v4.78h-.47v-.85a2.18,2.18,0,0,1-1.87,1,2.35,2.35,0,0,1-2.33-2.52,2.3,2.3,0,0,1,2.33-2.5,2.19,2.19,0,0,1,1.87.94Zm-3.71,2.35a2,2,0,0,0,1.88,2.12,1.92,1.92,0,0,0,1.85-2.12,1.87,1.87,0,1,0-3.73,0Z"/><path class="cls-4" d="M116.2,100.94h.47v.62a1.14,1.14,0,0,1,1.06-.73,1,1,0,0,1,.5.12l-.23.42a.52.52,0,0,0-.35-.09c-1,0-1,1.28-1,1.87v2.57h-.47Z"/><path class="cls-4" d="M119.25,100.94h.47v.62a1.14,1.14,0,0,1,1.06-.73,1,1,0,0,1,.5.12l-.23.42a.52.52,0,0,0-.35-.09c-1,0-1,1.28-1,1.87v2.57h-.47Z"/><path class="cls-4" d="M126.77,103.34a2.51,2.51,0,1,1-2.51-2.51A2.47,2.47,0,0,1,126.77,103.34Zm-.49,0a2,2,0,1,0-2,2.07A2,2,0,0,0,126.28,103.34Z"/><path class="cls-4" d="M128.62,97.17v8.55h-.47V97.17Z"/><path class="cls-4" d="M130.78,97.17v8.55h-.47V97.17Z"/><path class="cls-4" d="M137.18,103.34a2.51,2.51,0,1,1-2.51-2.51A2.47,2.47,0,0,1,137.18,103.34Zm-.49,0a2,2,0,1,0-2,2.07A2,2,0,0,0,136.69,103.34Z"/><path class="cls-4" d="M145.19,108.42v-3.55a2.17,2.17,0,0,1-1.85,1,2.34,2.34,0,0,1-2.35-2.54,2.27,2.27,0,0,1,2.35-2.48,2.15,2.15,0,0,1,1.85.94v-.83h.47v7.48Zm-3.7-5.13a1.88,1.88,0,1,0,3.73,0,1.86,1.86,0,0,0-1.88-2A1.83,1.83,0,0,0,141.49,103.29Z"/><path class="cls-4" d="M147.82,100.94v2.88a1.88,1.88,0,0,0,.3,1.2,1.23,1.23,0,0,0,.95.39,1.2,1.2,0,0,0,1-.39,1.83,1.83,0,0,0,.31-1.2v-2.88h.47v3a2.09,2.09,0,0,1-.37,1.32,1.7,1.7,0,0,1-1.36.58,1.72,1.72,0,0,1-1.36-.58,2.08,2.08,0,0,1-.36-1.32v-3Z"/><path class="cls-4" d="M152.67,103.39a1.92,1.92,0,0,0,1.9,2,1.83,1.83,0,0,0,1.67-1.1l.4.24a2.89,2.89,0,1,1,.13-1.16Zm3.6-.45a1.79,1.79,0,0,0-1.77-1.66,1.83,1.83,0,0,0-1.79,1.66Z"/><path class="cls-4" d="M161.39,101.38v4.34h-.47v-4.34h-.53v-.44h.53V99.22h.47v1.72h.83v.44Z"/><path class="cls-4" d="M163.34,103.39a1.93,1.93,0,0,0,1.9,2,1.82,1.82,0,0,0,1.67-1.1l.4.24a2.89,2.89,0,1,1,.13-1.16Zm3.61-.45a1.8,1.8,0,0,0-1.78-1.66,1.83,1.83,0,0,0-1.79,1.66Z"/><path class="cls-4" d="M171.74,103.39a1.92,1.92,0,0,0,1.9,2,1.83,1.83,0,0,0,1.67-1.1l.4.24a2.89,2.89,0,1,1,.13-1.16Zm3.6-.45a1.79,1.79,0,0,0-1.77-1.66,1.84,1.84,0,0,0-1.8,1.66Z"/><path class="cls-4" d="M177.22,100.94h.47v.75a1.58,1.58,0,0,1,1.46-.86,1.48,1.48,0,0,1,1.33.67,2.33,2.33,0,0,1,.23,1.21v3h-.47v-3a1.82,1.82,0,0,0-.18-1,1,1,0,0,0-.94-.47,1.28,1.28,0,0,0-1.18.66,2.66,2.66,0,0,0-.25,1.3v2.48h-.47Z"/><path class="cls-4" d="M182.9,101.38v4.34h-.47v-4.34h-.52v-.44h.52V99.22h.47v1.72h.84v.44Z"/><path class="cls-4" d="M184.49,99.34a.41.41,0,0,1,.42-.43.43.43,0,0,1,0,.86A.41.41,0,0,1,184.49,99.34Zm.65,1.6v4.78h-.47v-4.78Z"/><path class="cls-4" d="M187,103.39a1.92,1.92,0,0,0,1.9,2,1.84,1.84,0,0,0,1.67-1.1l.39.24a2.35,2.35,0,0,1-4.45-1.2,2.3,2.3,0,1,1,4.58,0Zm3.6-.45a1.79,1.79,0,0,0-1.77-1.66,1.84,1.84,0,0,0-1.8,1.66Z"/><path class="cls-4" d="M192.49,100.94H193v.75a1.61,1.61,0,0,1,1.47-.86,1.48,1.48,0,0,1,1.33.67,2.33,2.33,0,0,1,.23,1.21v3h-.47v-3a1.73,1.73,0,0,0-.19-1,1,1,0,0,0-.93-.47,1.28,1.28,0,0,0-1.18.66,2.66,2.66,0,0,0-.26,1.3v2.48h-.47Z"/><path class="cls-4" d="M201.57,97.17H202v8.55h-.47v-.85a2.17,2.17,0,0,1-1.85,1,2.34,2.34,0,0,1-2.35-2.54,2.27,2.27,0,0,1,2.35-2.48,2.15,2.15,0,0,1,1.85.94Zm-3.71,6.12a1.88,1.88,0,1,0,3.74,0,1.86,1.86,0,0,0-1.88-2A1.83,1.83,0,0,0,197.86,103.29Z"/><path class="cls-4" d="M207.62,100.94h.47v4.78h-.47v-.85a2.17,2.17,0,0,1-1.86,1,2.35,2.35,0,0,1-2.34-2.52,2.3,2.3,0,0,1,2.34-2.5,2.16,2.16,0,0,1,1.86.94Zm-3.7,2.35a1.88,1.88,0,1,0,3.73,0,1.87,1.87,0,1,0-3.73,0Z"/><path class="cls-4" d="M213.28,102.67a2.25,2.25,0,0,1-.25,1,1.49,1.49,0,0,1-1.34.68,1.78,1.78,0,0,1-1.18-.43,1.59,1.59,0,0,1-.47-1.18,1.51,1.51,0,0,1,.51-1.16,3.1,3.1,0,0,1,1.08-.45,2.29,2.29,0,0,0,1.07-.49,1.43,1.43,0,0,0,.29-1,1.45,1.45,0,0,0-.35-1.06,1.26,1.26,0,0,0-1-.4,1.3,1.3,0,0,0-1,.4,1.51,1.51,0,0,0-.33,1.06,1.24,1.24,0,0,0,.08.46h-.52a1.89,1.89,0,0,1-.08-.53,1.75,1.75,0,0,1,.52-1.37,2,2,0,0,1,1.36-.49,1.74,1.74,0,0,1,1.85,1.9,1.78,1.78,0,0,1-.42,1.25,2,2,0,0,1-1,.59,3.43,3.43,0,0,0-1.12.4,1.09,1.09,0,0,0-.4.87,1.17,1.17,0,0,0,.3.8,1.21,1.21,0,0,0,1.76-.08,1.73,1.73,0,0,0,.2-.85Zm-1.6,2.31a.44.44,0,1,1-.43.44A.42.42,0,0,1,211.68,105Z"/><path class="cls-4" d="M33.28,5.77H26.9L30,.6h8.91V37.28H33.28Z"/><g class="cls-5"><path class="cls-2" d="M724.91,97.41a28,28,0,0,1-28,28H541.72v-56H696.89a28,28,0,0,1,28,28Z"/></g><path class="cls-4" d="M585.67,91.38,583.1,86.9h.58l2.26,3.95,2.3-3.95h.58l-2.64,4.48v3.34h-.51Z"/><path class="cls-4" d="M596.4,91.06a2.21,2.21,0,0,0-1.66-.78,2.07,2.07,0,0,0,0,4.13,2.44,2.44,0,0,0,1.74-.86v.63a2.64,2.64,0,0,1-1.75.67,2.51,2.51,0,0,1,0-5,2.54,2.54,0,0,1,1.66.61Z"/><path class="cls-4" d="M598.21,86.17v8.55h-.47V86.17Z"/><path class="cls-4" d="M603.8,89.94h.47v4.78h-.47v-.85a2.19,2.19,0,0,1-1.87,1,2.35,2.35,0,0,1-2.33-2.52,2.3,2.3,0,0,1,2.33-2.5,2.19,2.19,0,0,1,1.87.94Zm-3.71,2.35A2,2,0,0,0,602,94.41a1.93,1.93,0,0,0,1.85-2.12,1.87,1.87,0,1,0-3.73,0Z"/><path class="cls-4" d="M606,89.94h.47v.62a1.14,1.14,0,0,1,1.06-.73,1,1,0,0,1,.5.12l-.23.42a.52.52,0,0,0-.35-.09c-1,0-1,1.27-1,1.87v2.57H606Z"/><path class="cls-4" d="M613.47,92.34A2.51,2.51,0,1,1,611,89.83,2.47,2.47,0,0,1,613.47,92.34Zm-.49,0a2,2,0,1,0-2,2.07A2,2,0,0,0,613,92.34Z"/><path class="cls-4" d="M615.16,94l.47.14-.87,2.35-.31-.12Z"/><path class="cls-4" d="M620.54,92.68a2.22,2.22,0,0,1,.25-1,1.47,1.47,0,0,1,1.34-.68,1.8,1.8,0,0,1,1.18.42,1.68,1.68,0,0,1,.47,1.19,1.5,1.5,0,0,1-.52,1.16,2.67,2.67,0,0,1-1.08.44,2,2,0,0,0-1.06.5,1.42,1.42,0,0,0-.3,1,1.44,1.44,0,0,0,.35,1,1.27,1.27,0,0,0,1,.4,1.3,1.3,0,0,0,1-.4,1.69,1.69,0,0,0,.25-1.52h.51a1.64,1.64,0,0,1,.08.54,1.73,1.73,0,0,1-.51,1.36,2,2,0,0,1-1.36.49,1.74,1.74,0,0,1-1.86-1.9,1.75,1.75,0,0,1,.43-1.24,2,2,0,0,1,1-.6,3.37,3.37,0,0,0,1.11-.4,1.06,1.06,0,0,0,.4-.87,1.17,1.17,0,0,0-.29-.8,1.2,1.2,0,0,0-1.76.09,1.67,1.67,0,0,0-.2.84Zm1.6-2.3a.44.44,0,1,1,.43-.43A.43.43,0,0,1,622.14,90.38Z"/><path class="cls-4" d="M629.56,91.06a2.2,2.2,0,0,0-1.65-.78,2.07,2.07,0,0,0,0,4.13,2.42,2.42,0,0,0,1.74-.86v.63a2.62,2.62,0,0,1-1.75.67,2.51,2.51,0,0,1,0-5,2.52,2.52,0,0,1,1.65.61Z"/><path class="cls-4" d="M635.62,92.34a2.51,2.51,0,1,1-2.51-2.51A2.47,2.47,0,0,1,635.62,92.34Zm-.49,0a2,2,0,1,0-2,2.07A2,2,0,0,0,635.13,92.34Z"/><path class="cls-4" d="M637,89.94h.47v.75a1.61,1.61,0,0,1,1.47-.86,1.48,1.48,0,0,1,1.33.67,2.31,2.31,0,0,1,.23,1.21v3H640v-3a1.77,1.77,0,0,0-.19-1,1,1,0,0,0-.93-.46,1.28,1.28,0,0,0-1.18.66,2.64,2.64,0,0,0-.26,1.29v2.49H637Z"/><path class="cls-4" d="M645.39,89.94v2.88a1.88,1.88,0,0,0,.3,1.2,1.23,1.23,0,0,0,.95.39,1.2,1.2,0,0,0,1-.39,1.83,1.83,0,0,0,.31-1.2V89.94h.47v3a2.14,2.14,0,0,1-.36,1.32,1.9,1.9,0,0,1-2.73,0,2.08,2.08,0,0,1-.36-1.32v-3Z"/><path class="cls-4" d="M650.05,89.94h.47v.75a1.61,1.61,0,0,1,1.47-.86,1.48,1.48,0,0,1,1.33.67,2.31,2.31,0,0,1,.23,1.21v3h-.47v-3a1.77,1.77,0,0,0-.19-1,1,1,0,0,0-.93-.46,1.28,1.28,0,0,0-1.18.66,2.64,2.64,0,0,0-.26,1.29v2.49h-.47Z"/><path class="cls-4" d="M658.44,90.38v4.34H658V90.38h-.54v-.44H658V88a2,2,0,0,1,.26-1.28,1.92,1.92,0,0,1,3,0,2.11,2.11,0,0,1,.26,1.28v.2H661V88a2,2,0,0,0-.2-1,1.18,1.18,0,0,0-1.08-.52,1.19,1.19,0,0,0-1.08.52,2,2,0,0,0-.2,1v1.92h1.2v.44Zm3-.44v4.78H661V89.94Z"/><path class="cls-4" d="M663.15,89.94h.47v.75a1.6,1.6,0,0,1,1.47-.86,1.45,1.45,0,0,1,1.32.67,2.22,2.22,0,0,1,.24,1.21v3h-.47v-3a1.77,1.77,0,0,0-.19-1,1,1,0,0,0-.94-.46,1.27,1.27,0,0,0-1.17.66,2.64,2.64,0,0,0-.26,1.29v2.49h-.47Z"/><path class="cls-4" d="M672.23,89.94h.47v4.78h-.47v-.85a2.17,2.17,0,0,1-1.86,1A2.35,2.35,0,0,1,668,92.33a2.3,2.3,0,0,1,2.34-2.5,2.17,2.17,0,0,1,1.86.94Zm-3.71,2.35a2,2,0,0,0,1.88,2.12,1.92,1.92,0,0,0,1.85-2.12,1.87,1.87,0,1,0-3.73,0Z"/><path class="cls-4" d="M674.39,89.94h.47v.75a1.58,1.58,0,0,1,1.46-.86,1.48,1.48,0,0,1,1.33.67,2.31,2.31,0,0,1,.23,1.21v3h-.47v-3a1.85,1.85,0,0,0-.18-1,1,1,0,0,0-.94-.46,1.28,1.28,0,0,0-1.18.66,2.64,2.64,0,0,0-.25,1.29v2.49h-.47Z"/><path class="cls-4" d="M683.41,91.06a2.21,2.21,0,0,0-1.66-.78,2.07,2.07,0,0,0,0,4.13,2.39,2.39,0,0,0,1.73-.86v.63a2.59,2.59,0,0,1-1.74.67,2.51,2.51,0,0,1,0-5,2.54,2.54,0,0,1,1.66.61Z"/><path class="cls-4" d="M684.56,88.34a.43.43,0,1,1,.43.43A.41.41,0,0,1,684.56,88.34Zm.66,1.6v4.78h-.47V89.94Z"/><path class="cls-4" d="M690.8,89.94h.47v4.78h-.47v-.85a2.17,2.17,0,0,1-1.86,1,2.35,2.35,0,0,1-2.34-2.52,2.3,2.3,0,0,1,2.34-2.5,2.16,2.16,0,0,1,1.86.94Zm-3.7,2.35a1.88,1.88,0,1,0,3.73,0,1.87,1.87,0,1,0-3.73,0Z"/><path class="cls-4" d="M693,89.94h.47v.59a1.35,1.35,0,0,1,1.24-.7,1.32,1.32,0,0,1,1.34.87,1.48,1.48,0,0,1,1.42-.87,1.46,1.46,0,0,1,1.08.4,1.73,1.73,0,0,1,.41,1.3v3.19h-.47V91.53a1.36,1.36,0,0,0-.28-1,.93.93,0,0,0-.72-.27c-1.26,0-1.28,1.26-1.28,1.56v2.88h-.46V91.65c0-.31,0-1.37-1.06-1.37-.83,0-1.22.72-1.22,1.67v2.77H693Z"/><path class="cls-4" d="M700.42,88.34a.41.41,0,0,1,.42-.43.43.43,0,0,1,0,.86A.41.41,0,0,1,700.42,88.34Zm.65,1.6v4.78h-.47V89.94Z"/><path class="cls-4" d="M703,92.39a1.92,1.92,0,0,0,1.9,2,1.83,1.83,0,0,0,1.67-1.1l.4.24a2.89,2.89,0,1,1,.13-1.16Zm3.6-.45a1.79,1.79,0,0,0-1.77-1.66,1.83,1.83,0,0,0-1.8,1.66Z"/><path class="cls-4" d="M708.43,89.94h.47v.75a1.58,1.58,0,0,1,1.46-.86,1.48,1.48,0,0,1,1.33.67,2.31,2.31,0,0,1,.23,1.21v3h-.47v-3a1.85,1.85,0,0,0-.18-1,1,1,0,0,0-.94-.46,1.28,1.28,0,0,0-1.18.66,2.64,2.64,0,0,0-.25,1.29v2.49h-.47Z"/><path class="cls-4" d="M714.11,90.38v4.34h-.47V90.38h-.52v-.44h.52V88.22h.47v1.72H715v.44Z"/><path class="cls-4" d="M720.6,92.34a2.51,2.51,0,1,1-2.51-2.51A2.47,2.47,0,0,1,720.6,92.34Zm-.49,0a2,2,0,1,0-2,2.07A2,2,0,0,0,720.11,92.34Z"/><path class="cls-4" d="M587.67,105.74h.47v4.79h-.47v-.86a2.18,2.18,0,0,1-1.86,1,2.35,2.35,0,0,1-2.34-2.53,2.3,2.3,0,0,1,2.34-2.49,2.17,2.17,0,0,1,1.86.93ZM584,108.1a1.88,1.88,0,1,0,3.73,0,1.87,1.87,0,1,0-3.73,0Z"/><path class="cls-4" d="M590.33,106.19v4.34h-.47v-4.34h-.52v-.45h.52V104h.47v1.71h.84v.45Z"/><path class="cls-4" d="M592.1,105.74h.47v.62a1.13,1.13,0,0,1,1.06-.72,1.11,1.11,0,0,1,.5.11l-.23.42a.59.59,0,0,0-.35-.09c-1,0-1,1.28-1,1.88v2.57h-.47Z"/><path class="cls-4" d="M598.92,105.74h.47v4.79h-.47v-.86a2.19,2.19,0,0,1-1.87,1,2.35,2.35,0,0,1-2.33-2.53,2.3,2.3,0,0,1,2.33-2.49,2.2,2.2,0,0,1,1.87.93Zm-3.71,2.36a2,2,0,0,0,1.88,2.11,1.92,1.92,0,0,0,1.85-2.11,1.87,1.87,0,1,0-3.73,0Z"/><path class="cls-4" d="M604.91,106.87a2.17,2.17,0,0,0-1.65-.79,2.07,2.07,0,0,0,0,4.13,2.38,2.38,0,0,0,1.74-.86V110a2.62,2.62,0,0,1-1.75.67,2.51,2.51,0,0,1,0-5,2.46,2.46,0,0,1,1.65.61Z"/><path class="cls-4" d="M606.76,106.19v4.34h-.47v-4.34h-.53v-.45h.53V104h.47v1.71h.83v.45Z"/><path class="cls-4" d="M608.34,104.15a.43.43,0,1,1,.85,0,.43.43,0,1,1-.85,0Zm.66,1.59v4.79h-.47v-4.79Z"/><path class="cls-4" d="M610.45,105.74l1.69,4,1.67-4h.52l-2.19,5.08-2.2-5.08Z"/><path class="cls-4" d="M620,108.15a2.51,2.51,0,1,1-2.51-2.51A2.47,2.47,0,0,1,620,108.15Zm-.49,0a2,2,0,1,0-2,2.06A2,2,0,0,0,619.49,108.15Z"/><path class="cls-4" d="M621.67,109.77l.46.14-.86,2.34-.31-.11Z"/><path class="cls-4" d="M626.77,105.74h.47v.62a1.11,1.11,0,0,1,1-.72,1.18,1.18,0,0,1,.51.11l-.24.42a.59.59,0,0,0-.35-.09c-1,0-1,1.28-1,1.88v2.57h-.47Z"/><path class="cls-4" d="M633.58,105.74h.47v4.79h-.47v-.86a2.18,2.18,0,0,1-1.86,1,2.35,2.35,0,0,1-2.34-2.53,2.3,2.3,0,0,1,2.34-2.49,2.18,2.18,0,0,1,1.86.93Zm-3.71,2.36a2,2,0,0,0,1.88,2.11,1.92,1.92,0,0,0,1.85-2.11,1.87,1.87,0,1,0-3.73,0Zm3.15-4.55-1.23,1.5-.36-.19,1.08-1.61Z"/><path class="cls-4" d="M636.21,113.23h-.47v-7.49h.47v.83a2.23,2.23,0,0,1,1.87-.93,2.28,2.28,0,0,1,2.33,2.46,2.37,2.37,0,0,1-2.35,2.56,2.07,2.07,0,0,1-1.85-1Zm3.7-5.13a1.84,1.84,0,0,0-1.85-2,1.86,1.86,0,0,0-1.88,2,1.88,1.88,0,1,0,3.73,0Z"/><path class="cls-4" d="M641.6,104.15a.42.42,0,0,1,.42-.44.44.44,0,1,1-.42.44Zm.66,1.59v4.79h-.47v-4.79Z"/><path class="cls-4" d="M647.84,102h.47v8.56h-.47v-.86a2.18,2.18,0,0,1-1.85,1,2.35,2.35,0,0,1-2.35-2.55,2.26,2.26,0,0,1,2.35-2.47,2.16,2.16,0,0,1,1.85.93Zm-3.71,6.13a1.88,1.88,0,1,0,3.73,0,1.86,1.86,0,0,0-1.87-2A1.84,1.84,0,0,0,644.13,108.1Z"/><path class="cls-4" d="M654.71,108.15a2.51,2.51,0,1,1-2.51-2.51A2.47,2.47,0,0,1,654.71,108.15Zm-.49,0a2,2,0,1,0-2,2.06A2,2,0,0,0,654.22,108.15Z"/><path class="cls-4" d="M660.35,110.61l-2.28-4.87h.54l2,4.26,1.75-4.26h.54l-3.15,7.49h-.54Z"/><path class="cls-4" d="M670.47,102h.47v8.56h-.47v-.86a2.18,2.18,0,0,1-1.85,1,2.35,2.35,0,0,1-2.35-2.55,2.26,2.26,0,0,1,2.35-2.47,2.14,2.14,0,0,1,1.85.93Zm-3.71,6.13a1.88,1.88,0,1,0,3.74,0,1.87,1.87,0,0,0-1.88-2A1.84,1.84,0,0,0,666.76,108.1Z"/><path class="cls-4" d="M672.44,104.15a.42.42,0,0,1,.42-.44.44.44,0,1,1-.42.44Zm.66,1.59v4.79h-.47v-4.79Z"/><path class="cls-4" d="M674.78,105.74h.47v.62a1.13,1.13,0,0,1,1.06-.72,1.11,1.11,0,0,1,.5.11l-.23.42a.59.59,0,0,0-.35-.09c-1,0-1,1.28-1,1.88v2.57h-.47Z"/><path class="cls-4" d="M678,108.19a1.92,1.92,0,0,0,1.9,2,1.84,1.84,0,0,0,1.67-1.09l.4.23a2.88,2.88,0,1,1,.13-1.16Zm3.6-.44a1.79,1.79,0,0,0-1.77-1.67,1.83,1.83,0,0,0-1.79,1.67Z"/><path class="cls-4" d="M687.33,106.87a2.14,2.14,0,0,0-1.65-.79,2.07,2.07,0,0,0,0,4.13,2.36,2.36,0,0,0,1.73-.86V110a2.6,2.6,0,0,1-1.75.67,2.51,2.51,0,0,1,0-5,2.45,2.45,0,0,1,1.65.61Z"/><path class="cls-4" d="M689.18,106.19v4.34h-.46v-4.34h-.53v-.45h.53V104h.46v1.71H690v.45Z"/><path class="cls-4" d="M695.67,108.15a2.51,2.51,0,1,1-2.51-2.51A2.47,2.47,0,0,1,695.67,108.15Zm-.49,0a2,2,0,1,0-2,2.06A2,2,0,0,0,695.18,108.15Z"/><path class="cls-4" d="M700.55,107.48a2.22,2.22,0,0,1-.25,1,1.47,1.47,0,0,1-1.33.68,1.86,1.86,0,0,1-1.19-.42,1.68,1.68,0,0,1-.47-1.19,1.5,1.5,0,0,1,.52-1.16,2.77,2.77,0,0,1,1.08-.44,2.22,2.22,0,0,0,1.06-.5,1.44,1.44,0,0,0,.3-1,1.53,1.53,0,0,0-.35-1.06,1.3,1.3,0,0,0-1-.39,1.34,1.34,0,0,0-1,.39,1.53,1.53,0,0,0-.33,1.06,1.55,1.55,0,0,0,.08.47h-.51a1.64,1.64,0,0,1-.08-.54,1.73,1.73,0,0,1,.51-1.36,2,2,0,0,1,1.36-.49,1.92,1.92,0,0,1,1.38.52,1.89,1.89,0,0,1,.48,1.38,1.76,1.76,0,0,1-.43,1.24,2,2,0,0,1-1,.6,3.37,3.37,0,0,0-1.11.4,1.06,1.06,0,0,0-.4.87,1.14,1.14,0,0,0,.29.79,1.06,1.06,0,0,0,.83.34,1.08,1.08,0,0,0,.93-.42,1.67,1.67,0,0,0,.2-.84Zm-1.6,2.31a.44.44,0,1,1-.43.43A.43.43,0,0,1,699,109.79Z"/><path class="cls-4" d="M550.13,5.77H538.8L537,11.88a16.17,16.17,0,0,1,1.7-.11A12.12,12.12,0,0,1,547.16,15c1.76,1.71,3.57,4.62,3.57,9.41A13.15,13.15,0,0,1,547,34.15c-2.91,2.86-6.43,3.74-10.17,3.74a13.8,13.8,0,0,1-7-1.65A13.26,13.26,0,0,1,525.44,32l4.23-3.52a8.57,8.57,0,0,0,2.81,3.19,8.62,8.62,0,0,0,4.78,1.26,7.8,7.8,0,0,0,5.61-2,8.52,8.52,0,0,0,2.36-6.22A7.8,7.8,0,0,0,543,18.75a8.66,8.66,0,0,0-6-2,11.43,11.43,0,0,0-4.29.77,14.77,14.77,0,0,0-3.24,1.65L535,.6h15.18Z"/><path class="cls-3" d="M358.05,187.78a28,28,0,0,1-28,28H170.87v-56H330a28,28,0,0,1,28,28Z"/><path class="cls-4" d="M207.61,180.89a2.19,2.19,0,0,1,.25-1,1.47,1.47,0,0,1,1.34-.68,1.8,1.8,0,0,1,1.18.42,1.65,1.65,0,0,1,.47,1.18,1.5,1.5,0,0,1-.52,1.17,2.67,2.67,0,0,1-1.08.44,2,2,0,0,0-1.06.49,1.46,1.46,0,0,0-.3,1,1.44,1.44,0,0,0,.35,1.05,1.27,1.27,0,0,0,1,.4,1.3,1.3,0,0,0,1-.4,1.69,1.69,0,0,0,.25-1.52H211a1.61,1.61,0,0,1,.08.54,1.73,1.73,0,0,1-.51,1.36,2,2,0,0,1-1.36.49,1.89,1.89,0,0,1-1.38-.53,1.87,1.87,0,0,1-.48-1.37,1.75,1.75,0,0,1,.43-1.24,2,2,0,0,1,1-.6,3.37,3.37,0,0,0,1.11-.4,1.06,1.06,0,0,0,.4-.87,1.17,1.17,0,0,0-.29-.8,1.09,1.09,0,0,0-.83-.34,1.11,1.11,0,0,0-.93.42,1.73,1.73,0,0,0-.2.85Zm1.6-2.3a.44.44,0,1,1,.43-.43A.43.43,0,0,1,209.21,178.59Z"/><path class="cls-4" d="M216.34,185.63v-3.56a2.19,2.19,0,0,1-1.86,1,2.34,2.34,0,0,1-2.34-2.55,2.26,2.26,0,0,1,2.34-2.47,2.18,2.18,0,0,1,1.86.94v-.84h.47v7.49Zm-3.71-5.13a1.88,1.88,0,1,0,3.73,0,1.86,1.86,0,0,0-1.88-2A1.83,1.83,0,0,0,212.63,180.5Z"/><path class="cls-4" d="M218.61,178.14V181a1.83,1.83,0,0,0,.31,1.2,1.19,1.19,0,0,0,1,.38,1.21,1.21,0,0,0,.95-.38,1.88,1.88,0,0,0,.3-1.2v-2.89h.47v3a2,2,0,0,1-.36,1.31,1.7,1.7,0,0,1-1.36.59,1.68,1.68,0,0,1-1.36-.59,2,2,0,0,1-.37-1.31v-3Z"/><path class="cls-4" d="M223.11,180.6a1.92,1.92,0,0,0,1.9,2,1.81,1.81,0,0,0,1.67-1.09l.4.24a2.89,2.89,0,1,1,.13-1.16Zm3.61-.45a1.79,1.79,0,0,0-3.57,0Z"/><path class="cls-4" d="M234.46,179.27a2.21,2.21,0,0,0-1.66-.79,2,2,0,0,0-2,2.08,2,2,0,0,0,2,2.05,2.39,2.39,0,0,0,1.73-.85v.63a2.59,2.59,0,0,1-1.74.67,2.51,2.51,0,0,1,0-5,2.54,2.54,0,0,1,1.66.61Z"/><path class="cls-4" d="M235.92,178.14V181a1.88,1.88,0,0,0,.3,1.2,1.39,1.39,0,0,0,1.91,0,1.88,1.88,0,0,0,.3-1.2v-2.89h.47v3a2.1,2.1,0,0,1-.36,1.31,1.87,1.87,0,0,1-2.73,0,2,2,0,0,1-.36-1.31v-3Z"/><path class="cls-4" d="M240.7,174.38V179a2.24,2.24,0,0,1,1.88-.94,2.28,2.28,0,0,1,2.32,2.46,2.36,2.36,0,0,1-2.34,2.56,2.08,2.08,0,0,1-1.86-1v.86h-.47v-8.55Zm3.71,6.12a1.87,1.87,0,1,0-3.73,0,1.88,1.88,0,1,0,3.73,0Z"/><path class="cls-4" d="M245.93,178.14h.47v.63a1.13,1.13,0,0,1,1.06-.73,1,1,0,0,1,.5.12l-.23.42a.51.51,0,0,0-.35-.1c-1,0-1,1.28-1,1.88v2.57h-.47Z"/><path class="cls-4" d="M252.4,178.14h.47v4.79h-.47v-.86a2.2,2.2,0,0,1-1.87,1,2.34,2.34,0,0,1-2.33-2.52,2.29,2.29,0,0,1,2.33-2.5,2.19,2.19,0,0,1,1.87.94Zm-3.71,2.36a2,2,0,0,0,1.88,2.11,1.92,1.92,0,0,0,1.85-2.11,1.87,1.87,0,1,0-3.73,0Z"/><path class="cls-4" d="M257.08,178.59v4.34h-.47v-4.34h-.52v-.45h.52v-1.71h.47v1.71h.84v.45Z"/><path class="cls-4" d="M263.22,180.55a2.51,2.51,0,1,1-2.51-2.51A2.47,2.47,0,0,1,263.22,180.55Zm-.49,0a2,2,0,1,0-2,2.06A2,2,0,0,0,262.73,180.55Z"/><path class="cls-4" d="M268.14,174.38h.47v8.55h-.47v-.86a2.18,2.18,0,0,1-1.85,1,2.35,2.35,0,0,1-2.35-2.55,2.27,2.27,0,0,1,2.35-2.47,2.15,2.15,0,0,1,1.85.94Zm-3.7,6.12a1.88,1.88,0,1,0,3.73,0,1.87,1.87,0,0,0-1.88-2A1.83,1.83,0,0,0,264.44,180.5Z"/><path class="cls-4" d="M273.84,178.14h.47v4.79h-.47v-.86a2.18,2.18,0,0,1-1.86,1,2.35,2.35,0,0,1-2.34-2.52A2.3,2.3,0,0,1,272,178a2.16,2.16,0,0,1,1.86.94Zm-3.71,2.36a2,2,0,0,0,1.88,2.11,1.93,1.93,0,0,0,1.86-2.11,1.88,1.88,0,1,0-3.74,0Z"/><path class="cls-4" d="M277.69,179a.9.9,0,0,0-.84-.54.76.76,0,0,0-.8.77c0,.47.37.62.84.81a2.51,2.51,0,0,1,1.23.7,1.16,1.16,0,0,1,.25.77,1.46,1.46,0,0,1-1.56,1.53,1.64,1.64,0,0,1-1.66-1.27l.46-.14a1.21,1.21,0,0,0,1.2,1,1,1,0,0,0,1.07-1.05c0-.54-.34-.74-1.07-1a2.42,2.42,0,0,1-1.05-.64,1,1,0,0,1-.21-.62,1.21,1.21,0,0,1,1.28-1.23,1.31,1.31,0,0,1,1.26.77Z"/><path class="cls-4" d="M282.1,178.59v4.34h-.47v-4.34h-.53v-.45h.53v-1.71h.47v1.71h.83v.45Z"/><path class="cls-4" d="M284,178.14V181a1.89,1.89,0,0,0,.31,1.2,1.38,1.38,0,0,0,1.9,0,1.89,1.89,0,0,0,.31-1.2v-2.89H287v3a2,2,0,0,1-.37,1.31,1.86,1.86,0,0,1-2.72,0,2,2,0,0,1-.37-1.31v-3Z"/><path class="cls-4" d="M290.34,179a.88.88,0,0,0-.83-.54.77.77,0,0,0-.81.77c0,.47.37.62.84.81a2.51,2.51,0,0,1,1.23.7,1.16,1.16,0,0,1,.25.77,1.46,1.46,0,0,1-1.56,1.53,1.65,1.65,0,0,1-1.66-1.27l.46-.14a1.22,1.22,0,0,0,1.2,1,1,1,0,0,0,1.07-1.05c0-.54-.34-.74-1.07-1a2.38,2.38,0,0,1-1-.64,1,1,0,0,1-.22-.62,1.22,1.22,0,0,1,1.28-1.23,1.29,1.29,0,0,1,1.26.77Z"/><path class="cls-4" d="M294.24,178.14h.47v.75a1.62,1.62,0,0,1,1.47-.85,1.48,1.48,0,0,1,1.33.67,2.31,2.31,0,0,1,.23,1.21v3h-.47v-3a1.77,1.77,0,0,0-.19-1,1,1,0,0,0-.93-.47,1.28,1.28,0,0,0-1.18.67,2.62,2.62,0,0,0-.26,1.29v2.49h-.47Z"/><path class="cls-4" d="M299.26,180.6a1.92,1.92,0,0,0,1.9,2,1.81,1.81,0,0,0,1.67-1.09l.4.24a2.89,2.89,0,1,1,.13-1.16Zm3.61-.45a1.79,1.79,0,0,0-3.57,0Z"/><path class="cls-4" d="M308.22,179.27a2.17,2.17,0,0,0-1.65-.79,2,2,0,0,0-2,2.08,2,2,0,0,0,2,2.05,2.39,2.39,0,0,0,1.73-.85v.63a2.6,2.6,0,0,1-1.75.67,2.51,2.51,0,0,1,0-5,2.5,2.5,0,0,1,1.65.61Z"/><path class="cls-4" d="M309.41,180.6a1.91,1.91,0,0,0,1.9,2,1.81,1.81,0,0,0,1.66-1.09l.4.24a2.36,2.36,0,0,1-4.46-1.2,2.31,2.31,0,1,1,4.59,0Zm3.6-.45a1.8,1.8,0,0,0-1.77-1.67,1.83,1.83,0,0,0-1.8,1.67Z"/><path class="cls-4" d="M316.57,179a.88.88,0,0,0-.83-.54.77.77,0,0,0-.81.77c0,.47.37.62.84.81a2.54,2.54,0,0,1,1.24.7,1.15,1.15,0,0,1,.24.77,1.46,1.46,0,0,1-1.56,1.53,1.63,1.63,0,0,1-1.65-1.27l.46-.14a1.2,1.2,0,0,0,1.19,1,1,1,0,0,0,1.07-1.05c0-.54-.34-.74-1.07-1a2.38,2.38,0,0,1-1-.64,1,1,0,0,1-.21-.62,1.21,1.21,0,0,1,1.28-1.23,1.29,1.29,0,0,1,1.25.77Z"/><path class="cls-4" d="M317.91,176.55a.42.42,0,0,1,.42-.44.42.42,0,0,1,.42.44.41.41,0,0,1-.42.43A.41.41,0,0,1,317.91,176.55Zm.66,1.59v4.79h-.47v-4.79Z"/><path class="cls-4" d="M323.8,174.38h.47v8.55h-.47v-.86a2.19,2.19,0,0,1-1.86,1,2.34,2.34,0,0,1-2.34-2.55,2.26,2.26,0,0,1,2.34-2.47,2.18,2.18,0,0,1,1.86.94Zm-3.71,6.12a1.88,1.88,0,1,0,3.73,0,1.86,1.86,0,0,0-1.88-2A1.83,1.83,0,0,0,320.09,180.5Z"/><path class="cls-4" d="M329.5,178.14H330v4.79h-.47v-.86a2.21,2.21,0,0,1-1.87,1,2.34,2.34,0,0,1-2.33-2.52,2.29,2.29,0,0,1,2.33-2.5,2.19,2.19,0,0,1,1.87.94Zm-3.71,2.36a2,2,0,0,0,1.88,2.11,1.92,1.92,0,0,0,1.85-2.11,1.87,1.87,0,1,0-3.73,0Z"/><path class="cls-4" d="M335.19,174.38h.47v8.55h-.47v-.86a2.18,2.18,0,0,1-1.85,1,2.35,2.35,0,0,1-2.35-2.55,2.27,2.27,0,0,1,2.35-2.47,2.15,2.15,0,0,1,1.85.94Zm-3.7,6.12a1.88,1.88,0,1,0,3.73,0,1.86,1.86,0,0,0-1.88-2A1.83,1.83,0,0,0,331.49,180.5Z"/><path class="cls-4" d="M337.19,180.6a1.91,1.91,0,0,0,1.9,2,1.81,1.81,0,0,0,1.66-1.09l.4.24a2.36,2.36,0,0,1-4.46-1.2,2.31,2.31,0,1,1,4.59,0Zm3.6-.45a1.8,1.8,0,0,0-1.77-1.67,1.83,1.83,0,0,0-1.8,1.67Z"/><path class="cls-4" d="M344.35,179a.88.88,0,0,0-.83-.54.77.77,0,0,0-.81.77c0,.47.37.62.84.81a2.59,2.59,0,0,1,1.24.7,1.15,1.15,0,0,1,.24.77,1.46,1.46,0,0,1-1.56,1.53,1.63,1.63,0,0,1-1.65-1.27l.45-.14a1.22,1.22,0,0,0,1.2,1,1,1,0,0,0,1.07-1.05c0-.54-.34-.74-1.07-1a2.38,2.38,0,0,1-1-.64,1,1,0,0,1-.21-.62A1.21,1.21,0,0,1,343.5,178a1.29,1.29,0,0,1,1.25.77Z"/><path class="cls-4" d="M208.85,198.82,206.58,194h.54l2,4.26,1.74-4.26h.54l-3.14,7.49h-.54Z"/><path class="cls-4" d="M215.27,196.4a1.92,1.92,0,0,0,1.9,2,1.85,1.85,0,0,0,1.67-1.09l.39.23a2.35,2.35,0,0,1-4.45-1.19,2.3,2.3,0,1,1,4.58,0Zm3.6-.44a1.8,1.8,0,0,0-1.77-1.67,1.84,1.84,0,0,0-1.8,1.67Z"/><path class="cls-4" d="M221.68,196.23,219.91,194h.58l1.51,2,1.49-2h.58l-1.74,2.28,1.92,2.51h-.57L222,196.53l-1.68,2.21h-.57Z"/><path class="cls-4" d="M225.66,201.44h-.47V194h.47v.83a2.25,2.25,0,0,1,1.88-.94,2.29,2.29,0,0,1,2.32,2.47,2.36,2.36,0,0,1-2.35,2.56,2.09,2.09,0,0,1-1.85-1Zm3.71-5.13a1.87,1.87,0,1,0-3.74,0,1.89,1.89,0,1,0,3.74,0Z"/><path class="cls-4" d="M231.43,196.4a1.92,1.92,0,0,0,1.9,2,1.82,1.82,0,0,0,1.66-1.09l.4.23a2.35,2.35,0,0,1-4.46-1.19,2.31,2.31,0,1,1,4.59,0ZM235,196a1.8,1.8,0,0,0-1.77-1.67,1.83,1.83,0,0,0-1.8,1.67Z"/><path class="cls-4" d="M240.74,195.08a2.17,2.17,0,0,0-1.65-.79,2.07,2.07,0,0,0,0,4.13,2.42,2.42,0,0,0,1.74-.86v.64a2.62,2.62,0,0,1-1.75.67,2.52,2.52,0,0,1,0-5,2.52,2.52,0,0,1,1.65.61Z"/><path class="cls-4" d="M242.59,194.4v4.34h-.47V194.4h-.53V194h.53v-1.71h.47V194h.83v.45Z"/><path class="cls-4" d="M248.26,194h.47v4.79h-.47v-.86a2.2,2.2,0,0,1-1.87,1,2.34,2.34,0,0,1-2.33-2.53,2.29,2.29,0,0,1,2.33-2.5,2.21,2.21,0,0,1,1.87.94Zm-3.71,2.36a2,2,0,0,0,1.88,2.11,1.92,1.92,0,0,0,1.85-2.11,1.87,1.87,0,1,0-3.73,0Z"/><path class="cls-4" d="M250.92,194.4v4.34h-.47V194.4h-.53V194h.53v-1.71h.47V194h.83v.45Z"/><path class="cls-4" d="M252.5,192.35a.42.42,0,0,1,.42-.43.44.44,0,0,1,0,.87A.42.42,0,0,1,252.5,192.35Zm.66,1.6v4.79h-.47V194Z"/><path class="cls-4" d="M254.61,194l1.69,4,1.66-4h.52L256.3,199,254.09,194Z"/><path class="cls-4" d="M263.31,194h.47v4.79h-.47v-.86a2.18,2.18,0,0,1-1.86,1,2.35,2.35,0,0,1-2.34-2.53,2.3,2.3,0,0,1,2.34-2.5,2.19,2.19,0,0,1,1.86.94Zm-3.71,2.36a2,2,0,0,0,1.88,2.11,1.93,1.93,0,0,0,1.86-2.11,1.88,1.88,0,1,0-3.74,0Z"/><path class="cls-4" d="M267.51,194.83a.87.87,0,0,0-.83-.54.77.77,0,0,0-.81.76c0,.47.37.62.84.81a2.6,2.6,0,0,1,1.23.71,1.13,1.13,0,0,1,.25.77,1.47,1.47,0,0,1-1.56,1.53A1.64,1.64,0,0,1,265,197.6l.46-.14a1.23,1.23,0,0,0,1.2,1,1,1,0,0,0,1.07-1.06c0-.54-.34-.74-1.07-1a2.48,2.48,0,0,1-1.05-.63,1,1,0,0,1-.21-.62,1.22,1.22,0,0,1,1.28-1.24,1.29,1.29,0,0,1,1.26.78Z"/><path class="cls-4" d="M272.88,195.69a2.24,2.24,0,0,1-.25,1,1.48,1.48,0,0,1-1.33.68,1.86,1.86,0,0,1-1.19-.42,1.68,1.68,0,0,1-.47-1.19,1.5,1.5,0,0,1,.52-1.16,3,3,0,0,1,1.08-.45,2.2,2.2,0,0,0,1.07-.49,1.76,1.76,0,0,0-.06-2,1.29,1.29,0,0,0-1-.4,1.36,1.36,0,0,0-1,.4,1.53,1.53,0,0,0-.33,1.06,1.35,1.35,0,0,0,.09.47h-.52a1.64,1.64,0,0,1-.08-.54,1.73,1.73,0,0,1,.51-1.36,2,2,0,0,1,1.37-.5,1.74,1.74,0,0,1,1.85,1.91,1.77,1.77,0,0,1-.42,1.24,2.08,2.08,0,0,1-1.05.6,3.16,3.16,0,0,0-1.11.4,1.05,1.05,0,0,0-.4.86,1.2,1.2,0,0,0,.29.8,1.21,1.21,0,0,0,1.76-.08,1.57,1.57,0,0,0,.2-.84ZM271.29,198a.44.44,0,0,1,0,.87.44.44,0,1,1,0-.87Z"/><path class="cls-4" d="M183.13,260.43H158.49l12.7-15.4c1.27-1.54,3.19-4,4.4-5.72a9.05,9.05,0,0,0,1.93-5.28,5.73,5.73,0,0,0-6.11-5.94c-4.12,0-6.27,3.19-6.49,6.65h-5.39a13.27,13.27,0,0,1,3.08-8,11,11,0,0,1,8.58-3.57c7.81,0,11.83,5.33,11.83,11.05a13.53,13.53,0,0,1-2.64,7.7,74,74,0,0,1-5.23,6.6l-5.72,6.77h13.7Z"/><g class="cls-5"><path class="cls-2" d="M618.88,187.78a28,28,0,0,1-28,28H419.41v-56H590.86a28,28,0,0,1,28,28Z"/></g><path class="cls-4" d="M465.55,180.89a2.19,2.19,0,0,1,.25-1,1.47,1.47,0,0,1,1.33-.68,1.81,1.81,0,0,1,1.19.42,1.65,1.65,0,0,1,.47,1.18,1.5,1.5,0,0,1-.52,1.17,2.67,2.67,0,0,1-1.08.44,2.11,2.11,0,0,0-1.07.49,1.51,1.51,0,0,0-.29,1,1.44,1.44,0,0,0,.35,1.05,1.27,1.27,0,0,0,1,.4,1.32,1.32,0,0,0,1-.4,1.69,1.69,0,0,0,.25-1.52h.51a1.61,1.61,0,0,1,.08.54,1.73,1.73,0,0,1-.51,1.36,2,2,0,0,1-1.36.49,1.74,1.74,0,0,1-1.86-1.9,1.78,1.78,0,0,1,.42-1.24,2,2,0,0,1,1.05-.6,3.37,3.37,0,0,0,1.11-.4,1.06,1.06,0,0,0,.4-.87,1.17,1.17,0,0,0-.29-.8,1.09,1.09,0,0,0-.83-.34,1.11,1.11,0,0,0-.93.42,1.63,1.63,0,0,0-.2.85Zm1.6-2.3a.44.44,0,1,1,.43-.43A.43.43,0,0,1,467.15,178.59Z"/><path class="cls-4" d="M474.57,179.27a2.21,2.21,0,0,0-1.65-.79,2.07,2.07,0,0,0,0,4.13,2.41,2.41,0,0,0,1.74-.85v.63a2.62,2.62,0,0,1-1.75.67,2.51,2.51,0,0,1,0-5,2.52,2.52,0,0,1,1.65.61Z"/><path class="cls-4" d="M480.63,180.55a2.51,2.51,0,1,1-2.51-2.51A2.47,2.47,0,0,1,480.63,180.55Zm-.49,0a2,2,0,1,0-2,2.06A2,2,0,0,0,480.14,180.55Z"/><path class="cls-4" d="M482,178.14h.47v.75A1.62,1.62,0,0,1,484,178a1.45,1.45,0,0,1,1.32.67,2.22,2.22,0,0,1,.24,1.21v3H485v-3a1.77,1.77,0,0,0-.19-1,1,1,0,0,0-.93-.47,1.28,1.28,0,0,0-1.18.67,2.62,2.62,0,0,0-.26,1.29v2.49H482Z"/><path class="cls-4" d="M490.4,174.38v8.55h-.47v-8.55Z"/><path class="cls-4" d="M496,178.14h.47v4.79H496v-.86a2.18,2.18,0,0,1-1.86,1,2.35,2.35,0,0,1-2.34-2.52,2.3,2.3,0,0,1,2.34-2.5A2.17,2.17,0,0,1,496,179Zm-3.71,2.36a2,2,0,0,0,1.88,2.11A1.93,1.93,0,0,0,496,180.5a1.88,1.88,0,1,0-3.74,0Z"/><path class="cls-4" d="M505.28,178.14v4.65c0,1.81-.9,2.84-2.4,2.84a2.16,2.16,0,0,1-2.35-2H501a1.72,1.72,0,0,0,1.86,1.6c1.88,0,1.93-1.9,1.93-2.39v-.68a2.29,2.29,0,0,1-1.89.95,2.51,2.51,0,0,1,.06-5,2.15,2.15,0,0,1,1.83.94v-.84Zm-4.22,2.42a1.88,1.88,0,0,0,1.85,2.05,1.94,1.94,0,0,0,1.93-2.1,1.9,1.9,0,1,0-3.78.05Z"/><path class="cls-4" d="M510.86,178.14h.47v4.79h-.47v-.86a2.18,2.18,0,0,1-1.86,1,2.35,2.35,0,0,1-2.34-2.52A2.3,2.3,0,0,1,509,178a2.16,2.16,0,0,1,1.86.94Zm-3.71,2.36a2,2,0,0,0,1.88,2.11,1.93,1.93,0,0,0,1.86-2.11,1.88,1.88,0,1,0-3.74,0Z"/><path class="cls-4" d="M513,178.14h.47v.63a1.11,1.11,0,0,1,1-.73,1.07,1.07,0,0,1,.51.12l-.24.42a.51.51,0,0,0-.35-.1c-1,0-1,1.28-1,1.88v2.57H513Z"/><path class="cls-4" d="M519.83,178.14h.47v4.79h-.47v-.86a2.18,2.18,0,0,1-1.86,1,2.35,2.35,0,0,1-2.34-2.52A2.3,2.3,0,0,1,518,178a2.16,2.16,0,0,1,1.86.94Zm-3.71,2.36a2,2,0,0,0,1.88,2.11,1.93,1.93,0,0,0,1.86-2.11,1.88,1.88,0,1,0-3.74,0Z"/><path class="cls-4" d="M522,178.14h.47v.75a1.6,1.6,0,0,1,1.47-.85,1.48,1.48,0,0,1,1.32.67,2.31,2.31,0,0,1,.24,1.21v3H525v-3a1.85,1.85,0,0,0-.18-1,1,1,0,0,0-.94-.47,1.26,1.26,0,0,0-1.17.67,2.62,2.62,0,0,0-.26,1.29v2.49H522Z"/><path class="cls-4" d="M527.68,178.59v4.34h-.47v-4.34h-.53v-.45h.53v-1.71h.47v1.71h.83v.45Z"/><path class="cls-4" d="M530.83,176l-1.23,1.5-.35-.19,1.08-1.6Zm-.91,2.19v4.79h-.48v-4.79Z"/><path class="cls-4" d="M535.5,178.14H536v4.79h-.47v-.86a2.19,2.19,0,0,1-1.87,1,2.35,2.35,0,0,1-2.33-2.52,2.3,2.3,0,0,1,2.33-2.5,2.19,2.19,0,0,1,1.87.94Zm-3.71,2.36a2,2,0,0,0,1.88,2.11,1.92,1.92,0,0,0,1.85-2.11,1.87,1.87,0,1,0-3.73,0Z"/><path class="cls-4" d="M544.28,174.38h.47v8.55h-.47v-.86a2.18,2.18,0,0,1-1.85,1,2.35,2.35,0,0,1-2.35-2.55,2.26,2.26,0,0,1,2.35-2.47,2.15,2.15,0,0,1,1.85.94Zm-3.71,6.12a1.88,1.88,0,1,0,3.73,0,1.86,1.86,0,0,0-1.87-2A1.84,1.84,0,0,0,540.57,180.5Z"/><path class="cls-4" d="M546.62,180.6a1.92,1.92,0,0,0,1.9,2,1.81,1.81,0,0,0,1.67-1.09l.4.24a2.42,2.42,0,1,1-2.14-3.72,2.33,2.33,0,0,1,2.27,2.56Zm3.61-.45a1.8,1.8,0,0,0-1.78-1.67,1.83,1.83,0,0,0-1.79,1.67Z"/><path class="cls-4" d="M558.73,185.63v-3.56a2.18,2.18,0,0,1-1.86,1,2.34,2.34,0,0,1-2.34-2.55,2.26,2.26,0,0,1,2.34-2.47,2.18,2.18,0,0,1,1.86.94v-.84h.47v7.49ZM555,180.5a1.88,1.88,0,1,0,3.73,0,1.86,1.86,0,0,0-1.88-2A1.83,1.83,0,0,0,555,180.5Z"/><path class="cls-4" d="M561.35,178.14V181a1.83,1.83,0,0,0,.31,1.2,1.38,1.38,0,0,0,1.9,0,1.88,1.88,0,0,0,.3-1.2v-2.89h.47v3a2,2,0,0,1-.36,1.31,1.86,1.86,0,0,1-2.72,0,2,2,0,0,1-.37-1.31v-3Z"/><path class="cls-4" d="M566.21,180.6a1.91,1.91,0,0,0,1.9,2,1.81,1.81,0,0,0,1.66-1.09l.4.24a2.36,2.36,0,0,1-4.46-1.2,2.31,2.31,0,1,1,4.59,0Zm3.6-.45a1.8,1.8,0,0,0-1.77-1.67,1.83,1.83,0,0,0-1.8,1.67Z"/><path class="cls-4" d="M574.18,178.14l1.69,4,1.67-4h.51l-2.18,5.08-2.2-5.08Z"/><path class="cls-4" d="M582.88,178.14h.47v4.79h-.47v-.86a2.18,2.18,0,0,1-1.86,1,2.35,2.35,0,0,1-2.34-2.52A2.3,2.3,0,0,1,581,178a2.16,2.16,0,0,1,1.86.94Zm-3.7,2.36a1.88,1.88,0,1,0,3.73,0,1.87,1.87,0,1,0-3.73,0Z"/><path class="cls-4" d="M585.51,174.38v8.55H585v-8.55Z"/><path class="cls-4" d="M591.09,174.38h.47v8.55h-.47v-.86a2.18,2.18,0,0,1-1.85,1,2.35,2.35,0,0,1-2.35-2.55,2.27,2.27,0,0,1,2.35-2.47,2.15,2.15,0,0,1,1.85.94Zm-3.71,6.12a1.88,1.88,0,1,0,3.74,0,1.87,1.87,0,0,0-1.88-2A1.84,1.84,0,0,0,587.38,180.5Z"/><path class="cls-4" d="M593.25,178.14h.47v.63a1.11,1.11,0,0,1,1-.73,1.07,1.07,0,0,1,.51.12l-.24.42a.49.49,0,0,0-.35-.1c-1,0-1,1.28-1,1.88v2.57h-.47Z"/><path class="cls-4" d="M600.06,178.14h.47v4.79h-.47v-.86a2.18,2.18,0,0,1-1.86,1,2.35,2.35,0,0,1-2.34-2.52,2.3,2.3,0,0,1,2.34-2.5,2.16,2.16,0,0,1,1.86.94Zm-3.71,2.36a2,2,0,0,0,1.88,2.11,1.93,1.93,0,0,0,1.86-2.11,1.88,1.88,0,1,0-3.74,0ZM599.5,176l-1.23,1.5-.35-.19,1.08-1.6Z"/><path class="cls-4" d="M469.1,195.08a2.14,2.14,0,0,0-1.65-.79,2.07,2.07,0,0,0,0,4.13,2.39,2.39,0,0,0,1.73-.86v.64a2.59,2.59,0,0,1-1.74.67,2.52,2.52,0,0,1,0-5,2.5,2.5,0,0,1,1.65.61Z"/><path class="cls-4" d="M474.35,194h.47v4.79h-.47v-.86a2.2,2.2,0,0,1-1.87,1,2.35,2.35,0,0,1-2.33-2.53,2.3,2.3,0,0,1,2.33-2.5,2.21,2.21,0,0,1,1.87.94Zm-3.71,2.36a2,2,0,0,0,1.88,2.11,1.92,1.92,0,0,0,1.85-2.11,1.87,1.87,0,1,0-3.73,0Z"/><path class="cls-4" d="M480.4,190.18h.47v8.56h-.47v-.86a2.19,2.19,0,0,1-1.86,1,2.34,2.34,0,0,1-2.34-2.55,2.26,2.26,0,0,1,2.34-2.48,2.18,2.18,0,0,1,1.86.94Zm-3.71,6.13a1.88,1.88,0,1,0,3.73,0,1.86,1.86,0,0,0-1.88-2A1.83,1.83,0,0,0,476.69,196.31Z"/><path class="cls-4" d="M486.45,194h.47v4.79h-.47v-.86a2.2,2.2,0,0,1-1.87,1,2.35,2.35,0,0,1-2.33-2.53,2.3,2.3,0,0,1,2.33-2.5,2.21,2.21,0,0,1,1.87.94Zm-3.71,2.36a2,2,0,0,0,1.88,2.11,1.92,1.92,0,0,0,1.85-2.11,1.87,1.87,0,1,0-3.73,0Z"/><path class="cls-4" d="M495.17,195.08a2.16,2.16,0,0,0-1.65-.79,2.07,2.07,0,0,0,0,4.13,2.39,2.39,0,0,0,1.73-.86v.64a2.6,2.6,0,0,1-1.75.67,2.52,2.52,0,0,1,0-5,2.52,2.52,0,0,1,1.65.61Z"/><path class="cls-4" d="M496.71,196.4a1.92,1.92,0,0,0,1.9,2,1.82,1.82,0,0,0,1.66-1.09l.4.23a2.35,2.35,0,0,1-4.46-1.19,2.31,2.31,0,1,1,4.59,0Zm3.6-.44a1.8,1.8,0,0,0-1.77-1.67,1.83,1.83,0,0,0-1.8,1.67Z"/><path class="cls-4" d="M502.18,194h.47v.75a1.6,1.6,0,0,1,1.47-.86,1.47,1.47,0,0,1,1.32.67,2.23,2.23,0,0,1,.24,1.21v3h-.47v-3a1.73,1.73,0,0,0-.19-1,1,1,0,0,0-.94-.47,1.26,1.26,0,0,0-1.17.67,2.6,2.6,0,0,0-.26,1.29v2.49h-.47Z"/><path class="cls-4" d="M507.87,194.4v4.34h-.47V194.4h-.53V194h.53v-1.71h.47V194h.83v.45Z"/><path class="cls-4" d="M513.53,194H514v4.79h-.48v-.86a2.18,2.18,0,0,1-1.86,1,2.34,2.34,0,0,1-2.33-2.53,2.29,2.29,0,0,1,2.33-2.5,2.18,2.18,0,0,1,1.86.94Zm-3.7,2.36a1.88,1.88,0,1,0,3.73,0,1.87,1.87,0,1,0-3.73,0Z"/><path class="cls-4" d="M515.46,194l1.69,4,1.66-4h.52L517.15,199,514.94,194Z"/><path class="cls-4" d="M525,196.35a2.51,2.51,0,1,1-2.51-2.51A2.48,2.48,0,0,1,525,196.35Zm-.49,0a2,2,0,1,0-2,2.07A2,2,0,0,0,524.49,196.35Z"/><path class="cls-4" d="M528.91,192.35a.41.41,0,0,1,.42-.43.44.44,0,1,1-.42.43Zm.65,1.6v4.79h-.47V194Z"/><path class="cls-4" d="M531.25,194h.47v.75a1.6,1.6,0,0,1,1.47-.86,1.48,1.48,0,0,1,1.32.67,2.33,2.33,0,0,1,.24,1.21v3h-.47v-3a1.73,1.73,0,0,0-.19-1,1,1,0,0,0-.94-.47A1.25,1.25,0,0,0,532,195a2.6,2.6,0,0,0-.26,1.29v2.49h-.47Z"/><path class="cls-4" d="M536.2,194l1.69,4,1.66-4h.52L537.89,199,535.68,194Z"/><path class="cls-4" d="M541.19,196.4a1.93,1.93,0,0,0,1.9,2,1.83,1.83,0,0,0,1.67-1.09l.4.23a2.35,2.35,0,0,1-4.46-1.19,2.31,2.31,0,1,1,4.59,0Zm3.61-.44a1.8,1.8,0,0,0-1.78-1.67,1.83,1.83,0,0,0-1.79,1.67Z"/><path class="cls-4" d="M546.67,194h.47v.62a1.14,1.14,0,0,1,1.06-.73,1.16,1.16,0,0,1,.5.12l-.23.42a.6.6,0,0,0-.36-.09c-1,0-1,1.28-1,1.88v2.57h-.47Z"/><path class="cls-4" d="M550.22,194.4v4.34h-.46V194.4h-.53V194h.53v-1.71h.46V194h.84v.45Z"/><path class="cls-4" d="M551.81,192.35a.41.41,0,0,1,.42-.43.44.44,0,1,1-.42.43Zm.65,1.6v4.79H552V194Z"/><path class="cls-4" d="M558.05,190.18h.47v8.56h-.47v-.86a2.19,2.19,0,0,1-1.86,1,2.34,2.34,0,0,1-2.34-2.55,2.26,2.26,0,0,1,2.34-2.48,2.18,2.18,0,0,1,1.86.94Zm-3.71,6.13a1.88,1.88,0,1,0,3.73,0,1.86,1.86,0,0,0-1.88-2A1.83,1.83,0,0,0,554.34,196.31Z"/><path class="cls-4" d="M564.92,196.35a2.51,2.51,0,1,1-2.51-2.51A2.48,2.48,0,0,1,564.92,196.35Zm-.49,0a2,2,0,1,0-2,2.07A2,2,0,0,0,564.43,196.35Z"/><path class="cls-4" d="M569.8,195.69a2.24,2.24,0,0,1-.25,1,1.49,1.49,0,0,1-1.34.68A1.83,1.83,0,0,1,567,197a1.68,1.68,0,0,1-.47-1.19,1.52,1.52,0,0,1,.51-1.16,3.1,3.1,0,0,1,1.08-.45,2.2,2.2,0,0,0,1.07-.49,1.43,1.43,0,0,0,.29-1,1.48,1.48,0,0,0-.35-1.06,1.28,1.28,0,0,0-1-.4,1.34,1.34,0,0,0-1,.4,1.53,1.53,0,0,0-.33,1.06,1.33,1.33,0,0,0,.08.47h-.51a1.65,1.65,0,0,1-.09-.54,1.74,1.74,0,0,1,.52-1.36,2,2,0,0,1,1.36-.5,1.74,1.74,0,0,1,1.85,1.91,1.77,1.77,0,0,1-.42,1.24,2,2,0,0,1-1,.6,3.29,3.29,0,0,0-1.12.4,1.08,1.08,0,0,0-.4.86,1.15,1.15,0,0,0,.3.8,1.06,1.06,0,0,0,.83.34,1.1,1.1,0,0,0,.93-.42,1.67,1.67,0,0,0,.2-.84ZM568.2,198a.44.44,0,1,1-.43.43A.42.42,0,0,1,568.2,198Z"/><path class="cls-4" d="M429.69,248.33h4v5.17h-4v6.93H424.3V253.5H406.15l23.54-32.45Zm-5.39.11V236.61l-8.36,11.83Z"/><circle class="cls-1" cx="420.22" cy="178.04" r="38.07" transform="translate(-2.81 349.28) rotate(-45)"/><circle class="cls-6" cx="420.22" cy="178.04" r="27.98" transform="translate(16.17 390.24) rotate(-50.67)"/><circle class="cls-7" cx="420.22" cy="178.04" r="23.19"/><path class="cls-2" d="M427.41,170.77a.5.5,0,0,0-.35.14l-8.69,8.69-5-5a.51.51,0,0,0-.71,0l-2,2a.5.5,0,0,0,0,.71l7.36,7.36a.5.5,0,0,0,.71,0h0l11-11.05a.5.5,0,0,0,0-.7l-2-2a.5.5,0,0,0-.35-.14Zm-9,12.85L411.72,177l1.31-1.31,5,5a.5.5,0,0,0,.71,0h0l8.68-8.68,1.31,1.31Z"/><path class="cls-2" d="M420.22,164.22A13.58,13.58,0,1,0,433.8,177.8,13.58,13.58,0,0,0,420.22,164.22Zm0,26.16A12.58,12.58,0,1,1,432.8,177.8,12.59,12.59,0,0,1,420.22,190.38Z"/><path class="cls-2" d="M437.89,179.4a2.56,2.56,0,0,0,0-3.2l-.82-1a1.56,1.56,0,0,1-.28-1.41l.36-1.25a2.56,2.56,0,0,0-1.22-3l-1.14-.63a1.58,1.58,0,0,1-.81-1.2l-.14-1.3a2.54,2.54,0,0,0-2.26-2.26l-1.3-.14a1.57,1.57,0,0,1-1.19-.8l-.63-1.14a2.54,2.54,0,0,0-3-1.23l-1.25.36a1.52,1.52,0,0,1-1.41-.28l-1-.81a2.53,2.53,0,0,0-3.2,0l-1,.81a1.55,1.55,0,0,1-1.42.28l-1.25-.36a2.57,2.57,0,0,0-3,1.23l-.62,1.14a1.59,1.59,0,0,1-1.2.8l-1.3.14a2.55,2.55,0,0,0-2.26,2.26l-.14,1.3a1.59,1.59,0,0,1-.8,1.2l-1.15.62a2.56,2.56,0,0,0-1.22,3l.36,1.26a1.53,1.53,0,0,1-.28,1.41l-.81,1a2.53,2.53,0,0,0,0,3.2l.81,1a1.52,1.52,0,0,1,.28,1.41l-.36,1.25a2.58,2.58,0,0,0,1.22,3l1.15.63a1.57,1.57,0,0,1,.8,1.19l.14,1.3a2.54,2.54,0,0,0,2.26,2.26l1.3.15a1.54,1.54,0,0,1,1.2.8l.62,1.14a2.55,2.55,0,0,0,3,1.23l1.25-.37a1.58,1.58,0,0,1,1.42.28l1,.82a2.54,2.54,0,0,0,3.19,0l1-.82a1.58,1.58,0,0,1,1.42-.28l1.25.37a2.54,2.54,0,0,0,3-1.23l.62-1.14a1.56,1.56,0,0,1,1.2-.8l1.3-.15a2.53,2.53,0,0,0,2.26-2.26l.14-1.3a1.56,1.56,0,0,1,.81-1.19l1.14-.63a2.54,2.54,0,0,0,1.22-3l-.36-1.25a1.55,1.55,0,0,1,.28-1.41Zm-1.6.39a2.58,2.58,0,0,0-.46,2.32l.37,1.25a1.56,1.56,0,0,1-.75,1.81l-1.14.62a2.6,2.6,0,0,0-1.32,2l-.14,1.29a1.54,1.54,0,0,1-1.38,1.38l-1.3.15a2.55,2.55,0,0,0-2,1.31l-.63,1.14a1.54,1.54,0,0,1-1.8.75l-1.25-.37a2.58,2.58,0,0,0-2.32.46l-1,.82a1.55,1.55,0,0,1-1.95,0l-1-.82a2.58,2.58,0,0,0-2.32-.46l-1.25.37a1.54,1.54,0,0,1-1.8-.75l-.63-1.14a2.55,2.55,0,0,0-2-1.31l-1.3-.15a1.54,1.54,0,0,1-1.38-1.38l-.14-1.3a2.55,2.55,0,0,0-1.32-2l-1.14-.63a1.56,1.56,0,0,1-.75-1.8l.37-1.25a2.58,2.58,0,0,0-.46-2.32l-.82-1a1.55,1.55,0,0,1,0-2l.82-1a2.56,2.56,0,0,0,.46-2.31l-.37-1.25a1.57,1.57,0,0,1,.75-1.81l1.15-.63a2.55,2.55,0,0,0,1.31-2l.14-1.3a1.55,1.55,0,0,1,1.38-1.38l1.3-.14a2.55,2.55,0,0,0,2-1.31l.63-1.14a1.57,1.57,0,0,1,1.8-.75l1.26.36a2.56,2.56,0,0,0,2.31-.46l1-.82a1.55,1.55,0,0,1,1.95,0l1,.82a2.58,2.58,0,0,0,2.32.46l1.25-.36a1.55,1.55,0,0,1,1.8.74l.63,1.15a2.55,2.55,0,0,0,2,1.31l1.3.14a1.55,1.55,0,0,1,1.38,1.38l.14,1.3a2.58,2.58,0,0,0,1.32,2l1.14.63a1.57,1.57,0,0,1,.75,1.81l-.37,1.25a2.56,2.56,0,0,0,.46,2.31l.82,1a1.55,1.55,0,0,1,0,2Z"/><circle class="cls-1" cx="168.74" cy="178.05" r="37.75"/><circle class="cls-6" cx="168.74" cy="178.05" r="28.31"/><circle class="cls-7" cx="169.07" cy="178.38" r="23.19"/><path class="cls-2" d="M182.82,189.27h-2.69V172.82a.41.41,0,0,0-.41-.41h-4.44a.41.41,0,0,0-.42.41v16.45H171.7V177.7a.41.41,0,0,0-.41-.41h-4.44a.41.41,0,0,0-.42.41v11.57h-3.16v-9.35a.41.41,0,0,0-.42-.41h-4.43a.41.41,0,0,0-.42.41v9.35h-2.69a.42.42,0,1,0,0,.83h27.51a.42.42,0,1,0,0-.83Zm-24,0v-8.93h3.61v8.93Zm8.43,0V178.12h3.61v11.15Zm8.44,0v-16h3.6v16Z"/><path class="cls-2" d="M156.64,178.12h0a32.2,32.2,0,0,0,8.89-1.91,35,35,0,0,0,7.8-3.92.42.42,0,0,0-.47-.69,34.15,34.15,0,0,1-7.61,3.83,31.48,31.48,0,0,1-8.63,1.86h0a.47.47,0,0,1-.47-.46.48.48,0,0,1,.46-.49,30.55,30.55,0,0,0,8.4-1.82,32.27,32.27,0,0,0,14.24-10,.43.43,0,0,0-.38-.68l-1.33.17a.48.48,0,0,1-.52-.35.47.47,0,0,1,.4-.58l3.55-.45a.48.48,0,0,1,.53.47v3.55a.47.47,0,0,1-.94,0v-1.08a.42.42,0,0,0-.74-.26,32.65,32.65,0,0,1-5.26,5.12.42.42,0,1,0,.51.66,33.26,33.26,0,0,0,4.66-4.38,1.3,1.3,0,0,0,2.6-.06v-3.55a1.32,1.32,0,0,0-.44-1,1.27,1.27,0,0,0-1-.31l-3.55.44a1.3,1.3,0,1,0,.32,2.59l.29,0a31.6,31.6,0,0,1-13.2,9,30.12,30.12,0,0,1-8.15,1.77,1.31,1.31,0,0,0-1.26,1.35A1.3,1.3,0,0,0,156.64,178.12Z"/><circle class="cls-2" cx="38.55" cy="86.67" r="38.55" transform="translate(-50 52.65) rotate(-45)"/><circle class="cls-6" cx="38.55" cy="86.67" r="28.24" transform="translate(-50 52.65) rotate(-45)"/><circle class="cls-7" cx="38.55" cy="86.42" r="23.19"/><path class="cls-2" d="M25.73,90.54A1.58,1.58,0,0,0,24.15,89h-.32a.66.66,0,0,1,0-1.32h.48a.5.5,0,0,1,.49.5v.32a.47.47,0,0,0,.93,0v-.32a1.41,1.41,0,0,0-1.28-1.41v-.51a.47.47,0,0,0-.93,0v.53a1.58,1.58,0,0,0,.31,3.13h.32a.66.66,0,0,1,0,1.32h-.48a.5.5,0,0,1-.5-.5.47.47,0,0,0-.93,0,1.44,1.44,0,0,0,1.28,1.42v.5a.47.47,0,0,0,.93,0v-.53A1.58,1.58,0,0,0,25.73,90.54Z"/><path class="cls-2" d="M35.32,72.84h-.48a.5.5,0,0,1-.5-.5.47.47,0,0,0-.93,0,1.43,1.43,0,0,0,1.29,1.42v.5a.45.45,0,0,0,.46.46.46.46,0,0,0,.46-.46v-.52a1.58,1.58,0,0,0-.3-3.14H35a.66.66,0,0,1,0-1.32h.48a.51.51,0,0,1,.5.5v.32a.45.45,0,0,0,.46.46.46.46,0,0,0,.46-.46v-.32a1.42,1.42,0,0,0-1.28-1.41v-.51a.47.47,0,0,0-.46-.46.46.46,0,0,0-.46.46v.53a1.58,1.58,0,0,0,.3,3.13h.32a.66.66,0,1,1,0,1.32Z"/><path class="cls-2" d="M52.84,92.77a.45.45,0,0,0,.46-.46V92A1.41,1.41,0,0,0,52,90.58v-.51a.46.46,0,0,0-.46-.46.47.47,0,0,0-.46.46v.53a1.58,1.58,0,0,0,.3,3.13h.32a.66.66,0,1,1,0,1.32h-.48a.5.5,0,0,1-.5-.5.46.46,0,0,0-.46-.46.47.47,0,0,0-.46.46A1.42,1.42,0,0,0,51.1,96v.5a.46.46,0,0,0,.46.46.45.45,0,0,0,.46-.46v-.53a1.58,1.58,0,0,0-.3-3.13H51.4a.66.66,0,0,1,0-1.32h.48a.5.5,0,0,1,.5.5v.32A.46.46,0,0,0,52.84,92.77Z"/><path class="cls-2" d="M42.14,92.05l3.33-3.32a.49.49,0,1,0-.7-.7l-4.36,4.36-7.66-7.66,6.64-6.64,7.66,7.66-.7.7a.49.49,0,1,0,.7.7l1-1.05a9.14,9.14,0,0,0,1.49-10.3.45.45,0,0,0-.23-.24A9.16,9.16,0,0,0,39,77.05l-5.95,6a4.49,4.49,0,0,0-3-.7,5.27,5.27,0,0,0-3.27,1.37.49.49,0,0,0,0,.69L40.78,98.29a.5.5,0,0,0,.7,0A5.29,5.29,0,0,0,42.84,95,4.5,4.5,0,0,0,42.14,92.05Zm-2.38,1-1.42,1.41L30.68,86.8l1.42-1.42Zm9-16.67A8.14,8.14,0,0,1,47.72,85l-7.61-7.62A8.15,8.15,0,0,1,48.77,76.38ZM30.2,83.29a3.63,3.63,0,0,1,2.18.42L30,86.1l-2.06-2A4.58,4.58,0,0,1,30.2,83.29ZM39,95.16l2.39-2.4a3.72,3.72,0,0,1,.43,2.18,4.78,4.78,0,0,1-.76,2.27Z"/><path class="cls-2" d="M35.54,89.61a.46.46,0,0,1,0,.65.47.47,0,0,1-.66,0,.46.46,0,0,1,0-.65A.47.47,0,0,1,35.54,89.61Z"/><path class="cls-2" d="M38.32,92.39a.47.47,0,0,1,0,.66.46.46,0,0,1-.65,0,.47.47,0,0,1,0-.66A.46.46,0,0,1,38.32,92.39Z"/><path class="cls-2" d="M36.93,91a.46.46,0,1,1-.65,0A.46.46,0,0,1,36.93,91Z"/><path class="cls-2" d="M32.75,86.82a.46.46,0,1,1-.65,0A.46.46,0,0,1,32.75,86.82Z"/><path class="cls-2" d="M34.14,88.21a.47.47,0,0,1,0,.66.46.46,0,0,1-.65,0,.47.47,0,0,1,0-.66A.46.46,0,0,1,34.14,88.21Z"/><path class="cls-2" d="M37.67,82.64a3.42,3.42,0,1,0,4.83,0A3.42,3.42,0,0,0,37.67,82.64Zm4.18,4.18a2.49,2.49,0,1,1,0-3.52A2.5,2.5,0,0,1,41.85,86.82Z"/><path class="cls-2" d="M40.78,83.9h-.7a.47.47,0,0,0-.46.43.47.47,0,0,0,.46.49h.7a.45.45,0,0,0,.46-.46A.46.46,0,0,0,40.78,83.9Z"/><path class="cls-2" d="M38.93,85.75a.47.47,0,0,0,.46.47h1.39a.47.47,0,0,0,0-.93H39.39A.46.46,0,0,0,38.93,85.75Z"/><path class="cls-2" d="M33.45,91.7a3.42,3.42,0,0,0-4.84,0c-1.24,1.24-1.5,5.4-1.52,5.87a.45.45,0,0,0,.13.35.5.5,0,0,0,.35.14c.47,0,4.63-.29,5.88-1.53A3.42,3.42,0,0,0,33.45,91.7Zm-.66,2.09a6.82,6.82,0,0,1-2.21.77,6.62,6.62,0,0,1,.78-2.21,1,1,0,0,1,1.43,0A1,1,0,0,1,32.79,93.79ZM28.05,97.1c.13-1.67.54-4.08,1.22-4.75a2.49,2.49,0,0,1,1.5-.72l-.07.07c-.64.64-1.09,2.92-1.17,3.37a.44.44,0,0,0,.13.41.45.45,0,0,0,.41.13c.45-.08,2.73-.53,3.38-1.17l.06-.07a2.47,2.47,0,0,1-.72,1.5C32.12,96.55,29.71,97,28.05,97.1Z"/><circle class="cls-2" cx="300.74" cy="86.42" r="38.3" transform="translate(26.98 237.97) rotate(-45)"/><circle class="cls-6" cx="300.74" cy="86.42" r="27.98" transform="translate(26.98 237.97) rotate(-45)"/><circle class="cls-7" cx="300.74" cy="86.42" r="23.19"/><path class="cls-2" d="M294.44,95.3a27.81,27.81,0,0,0,12.83,0c2.11-.6,3.18-1.46,3.18-2.57s-1.07-2-3.18-2.56a19.63,19.63,0,0,0-3.34-.6c2.42-4.14,4.82-8.82,4.82-11.14a7.9,7.9,0,1,0-15.8,0c0,2.32,2.4,7,4.83,11.14a19.45,19.45,0,0,0-3.34.6c-2.11.59-3.19,1.46-3.19,2.56S292.33,94.7,294.44,95.3Zm6.41-23.07a6.21,6.21,0,0,1,6.2,6.2c0,1.76-2.17,6.36-5.81,12.32a.45.45,0,0,1-.39.21.46.46,0,0,1-.39-.21c-3.64-6-5.81-10.56-5.81-12.32A6.21,6.21,0,0,1,300.85,72.23Zm-5.64,19.49a20,20,0,0,1,3.53-.53l.27.44a2.15,2.15,0,0,0,1.84,1,2.12,2.12,0,0,0,1.84-1l.27-.44a20.21,20.21,0,0,1,3.54.53,4.46,4.46,0,0,1,2.24,1,4.42,4.42,0,0,1-2.24,1,26.86,26.86,0,0,1-11.29,0,4.36,4.36,0,0,1-2.24-1A4.4,4.4,0,0,1,295.21,91.72Z"/><path class="cls-2" d="M312.88,90.87a.85.85,0,0,0-.82,1.49c1,.56,1.6,1.17,1.6,1.69s-.9,1.62-3.43,2.48a34.24,34.24,0,0,1-18.76,0c-2.52-.86-3.42-1.84-3.42-2.48s.58-1.13,1.59-1.69a.85.85,0,1,0-.82-1.49c-1.13.62-2.47,1.68-2.47,3.18,0,1.16.79,2.8,4.57,4.09a35.92,35.92,0,0,0,19.86,0c3.78-1.29,4.58-2.93,4.58-4.09C315.36,92.55,314,91.49,312.88,90.87Z"/><path class="cls-2" d="M304,77.89a3.18,3.18,0,1,0-3.18,3.17A3.19,3.19,0,0,0,304,77.89Zm-4.65,0a1.48,1.48,0,1,1,1.47,1.48A1.48,1.48,0,0,1,299.38,77.89Z"/><circle class="cls-2" cx="542.15" cy="87.39" r="38.3" transform="translate(97 408.96) rotate(-45)"/><circle class="cls-6" cx="542.15" cy="87.39" r="27.98" transform="translate(97 408.96) rotate(-45)"/><circle class="cls-7" cx="542.15" cy="87.39" r="23.19"/><path class="cls-2" d="M543.57,87.45a.44.44,0,0,0-.16-.06l-1.2-.21a.42.42,0,0,0-.48.33.41.41,0,0,0,.33.48l1.14.2L547,90.52a.42.42,0,0,0,.56-.12.43.43,0,0,0-.12-.59Z"/><path class="cls-2" d="M555.6,89.92l-1.68,1.58-7.72-7.61,10-9.34a.43.43,0,0,0,0-.59.41.41,0,0,0-.59,0l-10.28,9.63a.42.42,0,0,0,0,.6l.68.68-.22.19-4.56-.39a.34.34,0,0,0-.2,0l-3.62,1.65h0L535.28,86l.17-.43a.41.41,0,0,0-.23-.53l-6.65-2.66a.42.42,0,0,0-.54.23.42.42,0,0,0,.23.54l6.27,2.51L530.84,95l-2.28-.81a.41.41,0,0,0-.28.78l2.66.94a.4.4,0,0,0,.52-.24l.62-1.57,1.62.9-.18.29a1.74,1.74,0,0,0,2,2.57,1.74,1.74,0,0,0,2.26,1.4,1.79,1.79,0,0,0,.81,1.22,1.76,1.76,0,0,0,1.45.18,1.79,1.79,0,0,0,.81,1.22,1.76,1.76,0,0,0,2-.15,1.82,1.82,0,0,0,.36-.42l.29-.46.23.14a1.75,1.75,0,0,0,2-.15,1.64,1.64,0,0,0,.37-.42,1.78,1.78,0,0,0,.25-1,1.83,1.83,0,0,0,.4,0,1.75,1.75,0,0,0,1.75-1.85,1.75,1.75,0,0,0,.4,0,1.78,1.78,0,0,0,1.49-.83,1.67,1.67,0,0,0,.25-1,1.92,1.92,0,0,0,.41,0,1.74,1.74,0,0,0,.91-3.23l-.28-.18,1-1,.9.88a.42.42,0,0,0,.57,0l2-1.85a.42.42,0,1,0-.57-.61ZM534.52,97a.91.91,0,0,1-.3-1.25L536.55,92a.92.92,0,0,1,1.24-.31,1,1,0,0,1,.3,1.29l-2.31,3.75A.92.92,0,0,1,534.52,97Zm2.26,1.4a.92.92,0,0,1-.29-1.26l1.86-3a.92.92,0,0,1,1.24-.31,1,1,0,0,1,.3,1.29l-1.85,3A.92.92,0,0,1,536.78,98.42Zm3,1.51a.92.92,0,0,1-.69-.12.91.91,0,0,1-.3-1.25l1.39-2.26a.91.91,0,1,1,1.54,1l-1.38,2.24A.94.94,0,0,1,539.74,99.93Zm2.83,1a.92.92,0,0,1-1.56-1l.93-1.5a.91.91,0,0,1,1.24-.31,1,1,0,0,1,.3,1.29ZM551,92l-2-1.27a.43.43,0,0,0-.57.14.42.42,0,0,0,.13.57l3.07,1.89a.91.91,0,1,1-1,1.55l-3.29-2a.42.42,0,0,0-.43.71l2.53,1.56a.91.91,0,1,1-1,1.55l-2.3-1.41a.41.41,0,0,0-.57.14.42.42,0,0,0,.13.57l1.55,1a.91.91,0,1,1-1,1.55L545,97.69a.4.4,0,0,0-.53.15.42.42,0,0,0,.13.57l.58.36a.92.92,0,1,1-1,1.56l-.23-.15.2-.31a1.83,1.83,0,0,0,.21-1.37,1.74,1.74,0,0,0-.79-1.08,1.72,1.72,0,0,0-1-.23,1.83,1.83,0,0,0,0-.84,1.71,1.71,0,0,0-.79-1.08,1.78,1.78,0,0,0-1-.23,1.72,1.72,0,0,0-1.8-2.15,1.74,1.74,0,0,0-3.17-1.33l-1.71,2.77-1.74-1L535,86.74l1.41.25a1.74,1.74,0,0,0,1.36,2.84,1.68,1.68,0,0,0,.72-.16l2.43-1.1a.42.42,0,0,0,.21-.55.42.42,0,0,0-.55-.21l-2.43,1.11a.92.92,0,0,1-1.21-.45.91.91,0,0,1,.45-1.21l3.89-1.78,4.63.4h0a.39.39,0,0,0,.27-.1l.4-.35,5.54,5.47Z"/></g></g></svg>