<svg xmlns="http://www.w3.org/2000/svg" viewBox="0 0 82.53 82.44"><defs><style>.cls-1{fill:#002854;}.cls-2{fill:#002856;}</style></defs><g id="Capa_2" data-name="Capa 2"><g id="Capa_1-2" data-name="Capa 1"><path class="cls-1" d="M41.31,12.18,82.53,53.4l-29.05,29L42.36,71.32l1.69-1.69,9.08,9.08.35.35.35-.35,25-25,.35-.35-.35-.35L41.66,15.91l-.35-.35-.35.35L16.74,40.05l-1.69-1.68L41.31,12.18"/><path class="cls-1" d="M11.17,42.24l1.68,1.69L3.74,53.05l-.35.35.35.35,25,25,.35.35.34-.35L65.83,42.27l1.7,1.7L29.05,82.44,0,53.4Z"/><path class="cls-1" d="M41.31,0,76.4,35.09l-5,5-1.7-1.7,3-2.94.35-.35-.35-.35-31-31-.35-.35L41,3.73l-31,31-.35.35.35.35,30.23,30.3-1.69,1.69L6.21,35.09,41.31,0"/><path class="cls-1" d="M41.3,24.43,46,29.1,41.3,33.77,36.64,29.1l4.66-4.67"/><path class="cls-2" d="M61.7,78.72a1.09,1.09,0,0,1,.74.22.82.82,0,0,1,.28.65.78.78,0,0,1-.33.67.79.79,0,0,1-.32.13L63,81.6h-.7l-.77-1.15h-.07V81.6h-.56V78.72Zm-.27,1.33h.16c.11,0,.55,0,.55-.44s-.44-.43-.54-.43h-.17Z"/><path class="cls-2" d="M61.78,82.44A2.26,2.26,0,1,1,64,80.18,2.26,2.26,0,0,1,61.78,82.44Zm0-4.16a1.9,1.9,0,1,0,1.9,1.9A1.91,1.91,0,0,0,61.78,78.28Z"/></g></g></svg>