<svg xmlns="http://www.w3.org/2000/svg" viewBox="0 0 557.07 496.48"><defs><style>.cls-1,.cls-3,.cls-5{fill:#3393a0;}.cls-2{fill:#0a4f5e;}.cls-3,.cls-4,.cls-5{stroke:#3393a0;stroke-miterlimit:10;}.cls-3{stroke-width:0.75px;}.cls-4{fill:none;}.cls-5{stroke-width:0.5px;}</style></defs><title>lotes-abc_1</title><g id="Capa_2" data-name="Capa 2"><g id="Capa_1-2" data-name="Capa 1"><path class="cls-1" d="M203.32,286.79v0l1,1.93-1.15.29-1.3-2.43v-1.28H213v1.45Z"/><path class="cls-1" d="M210.22,281.42a3.17,3.17,0,0,1-3-2.21l-.05,0a2.77,2.77,0,0,1-2.5,1.76c-1.77,0-3-1.49-3-3.44,0-2.16,1.36-3.24,2.74-3.24a2.84,2.84,0,0,1,2.61,1.84h.05A3.09,3.09,0,0,1,210,273.9c1.94,0,3.24,1.66,3.24,3.79C213.23,280,211.84,281.42,210.22,281.42Zm-5.64-1.85c1.12,0,1.71-.84,2.06-2.12a2.2,2.2,0,0,0-2-1.7,1.74,1.74,0,0,0-1.82,1.89A1.77,1.77,0,0,0,204.58,279.57Zm5.57-4.14c-1.36,0-2,.94-2.43,2.45a2.41,2.41,0,0,0,2.29,2,2.06,2.06,0,0,0,2.12-2.23A2,2,0,0,0,210.15,275.43Z"/><path class="cls-1" d="M207,268.39c-.86,0-1.56,0-2.25.07v-1.32l1.34-.07V267a2.84,2.84,0,0,1-1.52-2.6,2.45,2.45,0,0,1,1.66-2.35v0a3.33,3.33,0,0,1-1.08-.93,2.79,2.79,0,0,1-.58-1.83c0-1.09.72-2.72,3.59-2.72H213V258h-4.69c-1.59,0-2.55.59-2.55,1.8a1.94,1.94,0,0,0,1.37,1.78,2.41,2.41,0,0,0,.75.12H213v1.47h-5c-1.32,0-2.28.59-2.28,1.73a2.06,2.06,0,0,0,1.51,1.87,2.19,2.19,0,0,0,.73.12h5v1.47Z"/><path class="cls-1" d="M202.38,252.37h2.37v-2.16h1.15v2.16h4.47c1,0,1.61-.3,1.61-1.13a3.47,3.47,0,0,0-.1-.88l1.13-.07a3.74,3.74,0,0,1,.2,1.34,2.1,2.1,0,0,1-.63,1.63,3.12,3.12,0,0,1-2.16.58H205.9v1.28h-1.15v-1.28h-2Z"/><path class="cls-1" d="M211.5,248.72a4,4,0,0,0,.6-2c0-1.09-.55-1.61-1.23-1.61s-1.12.43-1.53,1.54c-.53,1.49-1.35,2.2-2.34,2.2-1.34,0-2.43-1.08-2.43-2.86a4.18,4.18,0,0,1,.51-2l1.1.38a3.15,3.15,0,0,0-.48,1.69c0,.89.51,1.39,1.13,1.39s1-.5,1.4-1.58c.55-1.44,1.27-2.17,2.5-2.17,1.45,0,2.48,1.13,2.48,3.1a4.8,4.8,0,0,1-.56,2.33Z"/><path class="cls-1" d="M265.36,474v1l-4.84,10.13H259l4.83-9.84v0h-5.44V474Z"/><path class="cls-1" d="M271,479.13c0-.86,0-1.56-.07-2.24h1.32l.07,1.33h0a2.84,2.84,0,0,1,2.6-1.52,2.45,2.45,0,0,1,2.35,1.66h0a3.44,3.44,0,0,1,.93-1.08,2.79,2.79,0,0,1,1.83-.58c1.1,0,2.72.72,2.72,3.59v4.88h-1.47v-4.69c0-1.59-.58-2.55-1.8-2.55a2,2,0,0,0-1.78,1.37,2.46,2.46,0,0,0-.12.75v5.12h-1.47v-5c0-1.32-.58-2.28-1.73-2.28a2.06,2.06,0,0,0-1.87,1.51,2.19,2.19,0,0,0-.12.73v5H271Z"/><path class="cls-1" d="M287.06,474.51v2.38h2.15V478h-2.15v4.47c0,1,.29,1.61,1.13,1.61a3.44,3.44,0,0,0,.87-.1l.07,1.13a3.7,3.7,0,0,1-1.34.2,2.08,2.08,0,0,1-1.62-.63,3.05,3.05,0,0,1-.59-2.16V478H284.3v-1.14h1.28v-2Z"/><path class="cls-1" d="M290.7,483.63a4,4,0,0,0,2,.6c1.1,0,1.61-.55,1.61-1.23s-.43-1.11-1.54-1.53c-1.49-.53-2.19-1.35-2.19-2.34,0-1.34,1.07-2.43,2.86-2.43a4.17,4.17,0,0,1,2,.51l-.37,1.1a3.22,3.22,0,0,0-1.7-.48c-.89,0-1.39.51-1.39,1.13s.5,1,1.58,1.4c1.44.55,2.17,1.27,2.17,2.5,0,1.46-1.13,2.48-3.09,2.48a4.75,4.75,0,0,1-2.33-.56Z"/><path class="cls-2" d="M258.67,218.51h2.23v16h7.4v1.94h-9.63Z"/><path class="cls-2" d="M284.58,227.29c0,6.17-3.62,9.45-8,9.45-4.57,0-7.78-3.67-7.78-9.1,0-5.7,3.42-9.42,8-9.42S284.58,222,284.58,227.29Zm-13.43.29c0,3.84,2,7.27,5.52,7.27s5.55-3.38,5.55-7.45c0-3.57-1.8-7.29-5.52-7.29S271.15,223.64,271.15,227.58Z"/><path class="cls-2" d="M290.13,220.48h-5.27v-2h12.81v2h-5.29v16h-2.25Z"/><path class="cls-2" d="M308.56,228h-6.73v6.46h7.5v1.94H299.6V218.51H309v1.94h-7.12v5.67h6.73Z"/><path class="cls-2" d="M249.79,253.27h0l-2.91,1.62-.43-1.78,3.64-2H252v17.3h-2.18Z"/><path class="cls-2" d="M258.05,268.38v-1.44l1.78-1.78c4.26-4.2,6.19-6.44,6.21-9.05,0-1.75-.82-3.38-3.31-3.38a5.59,5.59,0,0,0-3.55,1.47l-.72-1.65a7.2,7.2,0,0,1,4.73-1.76,4.78,4.78,0,0,1,5.11,5c0,3.19-2.23,5.77-5.75,9.29l-1.34,1.27v.06h7.5v1.94Z"/><path class="cls-2" d="M280.75,252.73a8.07,8.07,0,0,0-1.69.11,6.93,6.93,0,0,0-5.81,6.15h.08a4.92,4.92,0,0,1,4-2c3,0,5,2.21,5,5.59,0,3.17-2.08,6.09-5.55,6.09s-5.91-2.87-5.91-7.37a11.15,11.15,0,0,1,2.83-7.8,9,9,0,0,1,5.34-2.55,10,10,0,0,1,1.64-.13Zm-.64,10c0-2.47-1.36-4-3.44-4a3.71,3.71,0,0,0-3.24,2.13,2.06,2.06,0,0,0-.25,1c.05,2.85,1.31,4.95,3.67,4.95C278.8,266.86,280.11,265.19,280.11,262.71Z"/><path class="cls-2" d="M290.56,259c0-1.33,0-2.43-.1-3.49h2l.1,2.08h.08a4.24,4.24,0,0,1,3.9-2.37,3.69,3.69,0,0,1,3.52,2.58h0a5.23,5.23,0,0,1,1.38-1.68,4.19,4.19,0,0,1,2.75-.9c1.65,0,4.09,1.12,4.09,5.59v7.58H306.1v-7.29c0-2.48-.88-4-2.7-4a3,3,0,0,0-2.67,2.13,4.11,4.11,0,0,0-.18,1.17v8h-2.21v-7.72c0-2.05-.87-3.54-2.59-3.54a3.12,3.12,0,0,0-2.8,2.35,3.25,3.25,0,0,0-.18,1.14v7.77h-2.21Z"/><path class="cls-2" d="M311.26,268.38v-1.44l1.77-1.78c4.26-4.2,6.19-6.44,6.21-9.05,0-1.75-.82-3.38-3.31-3.38a5.56,5.56,0,0,0-3.54,1.47l-.72-1.65a7.17,7.17,0,0,1,4.72-1.76,4.78,4.78,0,0,1,5.11,5c0,3.19-2.23,5.77-5.75,9.29l-1.33,1.27v.06h7.49v1.94Z"/><line class="cls-3" x1="207.67" y1="296.2" x2="207.67" y2="481.7"/><line class="cls-3" x1="207.67" y1="61.96" x2="207.67" y2="237.27"/><line class="cls-3" x1="202.17" y1="61.96" x2="213.17" y2="61.96"/><line class="cls-3" x1="202.17" y1="481.7" x2="213.17" y2="481.7"/><line class="cls-3" x1="248.51" y1="481.7" x2="207.67" y2="481.7"/><line class="cls-3" x1="352.5" y1="481.7" x2="306.18" y2="481.7"/><line class="cls-3" x1="352.5" y1="476.2" x2="352.5" y2="487.21"/><line class="cls-3" x1="207.67" y1="476.2" x2="207.67" y2="487.21"/><path class="cls-2" d="M265.23,347.68V293.93h13.55a43.21,43.21,0,0,1,8.57.62,12.48,12.48,0,0,1,4.72,2.06,12.26,12.26,0,0,1,3.87,4.81,15.4,15.4,0,0,1,1.38,6.57,12.32,12.32,0,0,1-2,7.18,10.34,10.34,0,0,1-5.76,4,11.08,11.08,0,0,1,7.4,4.27,14.36,14.36,0,0,1,2.7,8.94,17,17,0,0,1-1.14,6.21,14,14,0,0,1-3.23,5,12.11,12.11,0,0,1-5.47,3.16q-3.27.92-11,.92Zm8.55-31.06h3.35q6.24,0,8.82-1.71c1.73-1.14,2.59-3.05,2.59-5.75q0-4.4-2.38-6.18c-1.59-1.19-4.61-1.78-9-1.78h-3.35Zm0,23.75h3a46.21,46.21,0,0,0,6.87-.37,8.67,8.67,0,0,0,3.6-1.28,7.09,7.09,0,0,0,2.49-2.87,8.82,8.82,0,0,0,.89-4,9.05,9.05,0,0,0-1.07-4.48,7.4,7.4,0,0,0-3.05-3,10.64,10.64,0,0,0-2.84-.92,24.11,24.11,0,0,0-4.24-.29h-5.66Z"/><rect class="cls-4" x="193.43" y="50.08" width="173.19" height="445.34"/><path class="cls-1" d="M22.17,240.61h-.92l-1.15-1.18c-2.7-2.85-4.14-4.13-5.82-4.15a2,2,0,0,0-2.17,2.21,3.76,3.76,0,0,0,.94,2.36l-1.06.48a4.87,4.87,0,0,1-1.13-3.15,3.13,3.13,0,0,1,3.23-3.4c2.06,0,3.72,1.49,6,3.83l.82.89h0v-5h1.25Z"/><path class="cls-1" d="M16.49,224.43c3.78,0,5.87,1.4,5.87,3.87,0,2.17-2,3.64-5.72,3.68s-5.78-1.61-5.78-3.87S13,224.43,16.49,224.43Zm.17,6c2.89,0,4.54-.89,4.54-2.26,0-1.54-1.8-2.27-4.64-2.27s-4.54.7-4.54,2.25C12,229.51,13.63,230.47,16.66,230.47Z"/><path class="cls-1" d="M16.13,218.93c-.86,0-1.56,0-2.24.07v-1.32l1.33-.07v-.05A2.86,2.86,0,0,1,13.7,215a2.44,2.44,0,0,1,1.66-2.34v0a3.55,3.55,0,0,1-1.08-.92,2.83,2.83,0,0,1-.58-1.84c0-1.09.72-2.72,3.59-2.72h4.88v1.48H17.48c-1.59,0-2.55.58-2.55,1.79a2,2,0,0,0,1.37,1.78,2.46,2.46,0,0,0,.75.12h5.12v1.48h-5c-1.32,0-2.28.58-2.28,1.72a2.05,2.05,0,0,0,1.51,1.87,2,2,0,0,0,.73.12h5v1.47Z"/><path class="cls-1" d="M11.51,202.91h2.38v-2.16H15v2.16H19.5c1,0,1.61-.29,1.61-1.13a3.47,3.47,0,0,0-.1-.88l1.13-.06a3.67,3.67,0,0,1,.2,1.33,2.1,2.1,0,0,1-.63,1.63,3.05,3.05,0,0,1-2.16.58H15v1.28H13.89v-1.28h-2Z"/><path class="cls-1" d="M20.63,199.26a3.94,3.94,0,0,0,.6-2c0-1.09-.55-1.6-1.23-1.6s-1.11.42-1.52,1.54c-.53,1.49-1.36,2.19-2.35,2.19-1.34,0-2.43-1.08-2.43-2.86a4.18,4.18,0,0,1,.51-2l1.1.38a3.15,3.15,0,0,0-.48,1.69c0,.89.51,1.39,1.13,1.39s1-.5,1.4-1.58c.55-1.43,1.27-2.17,2.5-2.17,1.46,0,2.48,1.13,2.48,3.1a4.75,4.75,0,0,1-.56,2.33Z"/><path class="cls-1" d="M78.06,475.06v1l-4.84,10.14H71.66l4.83-9.85v0H71.05v-1.25Z"/><path class="cls-1" d="M83.73,480.14c0-.85,0-1.55-.07-2.24H85l.07,1.34h0a2.85,2.85,0,0,1,2.6-1.53,2.46,2.46,0,0,1,2.35,1.66h0A3.41,3.41,0,0,1,91,478.3a2.79,2.79,0,0,1,1.83-.59c1.1,0,2.72.72,2.72,3.6v4.88H94.09V481.5c0-1.6-.58-2.55-1.8-2.55a2,2,0,0,0-1.78,1.37,2.36,2.36,0,0,0-.12.75v5.12H88.92v-5c0-1.32-.58-2.27-1.73-2.27a2.06,2.06,0,0,0-1.87,1.5,2.25,2.25,0,0,0-.12.74v5H83.73Z"/><path class="cls-1" d="M99.76,475.52v2.38h2.15v1.15H99.76v4.47c0,1,.29,1.61,1.13,1.61a3,3,0,0,0,.87-.11l.07,1.13a3.66,3.66,0,0,1-1.34.21,2.08,2.08,0,0,1-1.62-.63,3.08,3.08,0,0,1-.59-2.16v-4.52H97V477.9h1.28v-2Z"/><path class="cls-1" d="M103.4,484.65a4,4,0,0,0,2,.6c1.1,0,1.61-.55,1.61-1.24s-.43-1.11-1.54-1.52c-1.49-.53-2.19-1.35-2.19-2.35,0-1.33,1.07-2.43,2.86-2.43a4.06,4.06,0,0,1,2,.52l-.37,1.09a3.31,3.31,0,0,0-1.7-.48c-.89,0-1.38.52-1.38,1.13s.49,1,1.57,1.41c1.44.54,2.17,1.26,2.17,2.5,0,1.45-1.13,2.48-3.09,2.48a4.64,4.64,0,0,1-2.33-.57Z"/><path class="cls-2" d="M63,219H65.2v16h7.39v1.94H63Z"/><path class="cls-2" d="M88.87,227.77c0,6.17-3.62,9.45-8,9.45s-7.78-3.68-7.78-9.1c0-5.7,3.42-9.43,8-9.43S88.87,222.45,88.87,227.77Zm-13.43.29c0,3.83,2,7.27,5.52,7.27s5.55-3.38,5.55-7.45c0-3.57-1.8-7.3-5.52-7.3S75.44,224.12,75.44,228.06Z"/><path class="cls-2" d="M94.42,221H89.15v-2H102v2H96.68v16H94.42Z"/><path class="cls-2" d="M112.85,228.51h-6.72V235h7.5v1.94h-9.74V219h9.35v1.94h-7.11v5.67h6.72Z"/><path class="cls-2" d="M54.08,253.74h0l-2.9,1.63-.44-1.79,3.65-2h1.92v17.3H54.08Z"/><path class="cls-2" d="M69.33,268.86v-4.71H61.58v-1.54L69,251.56h2.44v10.75H73.8v1.84H71.46v4.71Zm0-6.55v-5.77c0-.91,0-1.81.08-2.72h-.08c-.51,1-.92,1.76-1.38,2.56l-4.09,5.88v.05Z"/><path class="cls-2" d="M86.61,260c0,5.89-2.1,9.13-5.8,9.13-3.26,0-5.47-3.17-5.52-8.89s2.41-9,5.8-9S86.61,254.52,86.61,260Zm-9.06.27c0,4.5,1.33,7,3.39,7,2.31,0,3.41-2.79,3.41-7.21,0-4.26-1-7-3.39-7C79,253.08,77.55,255.58,77.55,260.29Z"/><path class="cls-2" d="M94.85,259.46c0-1.33,0-2.42-.1-3.48h2l.1,2.07h.08a4.26,4.26,0,0,1,3.9-2.36,3.68,3.68,0,0,1,3.52,2.58h0a5.25,5.25,0,0,1,1.39-1.68,4.14,4.14,0,0,1,2.74-.9c1.65,0,4.09,1.11,4.09,5.58v7.59h-2.21v-7.29c0-2.48-.87-4-2.7-4a3,3,0,0,0-2.67,2.13,4.11,4.11,0,0,0-.18,1.17v8h-2.21v-7.72c0-2.05-.87-3.54-2.59-3.54a3.12,3.12,0,0,0-2.8,2.34,3.34,3.34,0,0,0-.18,1.15v7.77H94.85Z"/><path class="cls-2" d="M115.55,268.86v-1.44l1.77-1.78c4.26-4.21,6.19-6.44,6.22-9.05,0-1.76-.83-3.38-3.32-3.38a5.61,5.61,0,0,0-3.54,1.46L116,253a7.14,7.14,0,0,1,4.72-1.76,4.78,4.78,0,0,1,5.11,5c0,3.19-2.23,5.77-5.75,9.29l-1.33,1.27v.06h7.5v1.94Z"/><line class="cls-5" x1="17.19" y1="247.62" x2="17.19" y2="483.34"/><line class="cls-5" x1="17.19" y1="7.21" x2="17.19" y2="189.58"/><line class="cls-5" x1="11.69" y1="7.21" x2="22.69" y2="7.21"/><line class="cls-5" x1="11.69" y1="483.34" x2="22.69" y2="483.34"/><line class="cls-5" x1="56.88" y1="483.34" x2="17.19" y2="483.34"/><line class="cls-5" x1="162.02" y1="483.34" x2="121.44" y2="483.34"/><line class="cls-5" x1="162.02" y1="477.84" x2="162.02" y2="488.84"/><line class="cls-5" x1="17.19" y1="477.84" x2="17.19" y2="488.84"/><path class="cls-2" d="M101.26,347.49l-6.1-13.84H73.87l-6.24,13.84H58.45l26-55.87,26,55.87ZM77.1,326.38h15l-5.51-12.26q-.48-1.17-1-2.7c-.34-1-.69-2.14-1-3.39-.29,1.17-.6,2.27-.93,3.28s-.67,2-1,2.81Z"/><rect class="cls-4" x="0.5" y="0.5" width="173.42" height="495.48"/><path class="cls-1" d="M391.15,280.65v0l1,1.93-1.14.29-1.3-2.43V279.2h11.13v1.45Z"/><path class="cls-1" d="M389.75,267.92h1l10.14,4.84v1.56L391,269.49h0v5.44h-1.25Z"/><path class="cls-1" d="M400,266.24a1,1,0,0,1-1.07-1,1.08,1.08,0,0,1,2.15,0A1,1,0,0,1,400,266.24Z"/><path class="cls-1" d="M391.15,259.54v0l1,1.93-1.14.29-1.3-2.43v-1.28h11.13v1.45Z"/><path class="cls-1" d="M391,247.39v4.24l2.86.43a6.61,6.61,0,0,1-.07-.91,4.69,4.69,0,0,1,.6-2.39,3.17,3.17,0,0,1,2.86-1.59,3.85,3.85,0,0,1,3.8,4.14,5.48,5.48,0,0,1-.68,2.77l-1.15-.37a5.05,5.05,0,0,0,.62-2.38,2.46,2.46,0,0,0-2.42-2.64c-1.43,0-2.46,1-2.46,3.2a11.76,11.76,0,0,0,.12,1.54l-5.34-.72v-5.32Z"/><path class="cls-1" d="M394.83,241.14c-.85,0-1.56,0-2.24.07v-1.32l1.33-.07v0a2.86,2.86,0,0,1-1.52-2.6,2.45,2.45,0,0,1,1.66-2.35v0a3.44,3.44,0,0,1-1.08-.93,2.84,2.84,0,0,1-.58-1.83c0-1.09.72-2.72,3.6-2.72h4.88v1.47h-4.7c-1.59,0-2.55.58-2.55,1.8a2,2,0,0,0,1.37,1.78,2.47,2.47,0,0,0,.76.12h5.12V236h-5c-1.32,0-2.28.58-2.28,1.73a2.07,2.07,0,0,0,1.51,1.87,2.21,2.21,0,0,0,.74.12h5v1.47Z"/><path class="cls-1" d="M390.21,225.11h2.38V223h1.15v2.15h4.46c1,0,1.61-.29,1.61-1.13a3.44,3.44,0,0,0-.1-.87l1.13-.07a3.7,3.7,0,0,1,.21,1.34,2.08,2.08,0,0,1-.64,1.62,3.05,3.05,0,0,1-2.16.59h-4.51v1.28h-1.15v-1.28h-2Z"/><path class="cls-1" d="M399.33,221.47a3.9,3.9,0,0,0,.6-2c0-1.09-.54-1.61-1.23-1.61s-1.11.43-1.52,1.54c-.53,1.49-1.36,2.19-2.35,2.19-1.33,0-2.43-1.07-2.43-2.86a4.17,4.17,0,0,1,.51-2l1.1.37a3.22,3.22,0,0,0-.48,1.7c0,.89.51,1.39,1.13,1.39s1-.5,1.4-1.58c.55-1.44,1.27-2.17,2.5-2.17,1.46,0,2.49,1.13,2.49,3.1a4.73,4.73,0,0,1-.57,2.32Z"/><path class="cls-1" d="M453.2,474v1l-4.85,10.13H446.8l4.82-9.84v0h-5.44V474Z"/><path class="cls-1" d="M458.87,479.13c0-.86,0-1.56-.07-2.24h1.32l.06,1.33h.06a2.84,2.84,0,0,1,2.6-1.52,2.44,2.44,0,0,1,2.34,1.66h0a3.41,3.41,0,0,1,.92-1.08,2.82,2.82,0,0,1,1.83-.58c1.1,0,2.73.72,2.73,3.59v4.88h-1.48v-4.69c0-1.59-.58-2.55-1.79-2.55a2,2,0,0,0-1.79,1.37,2.82,2.82,0,0,0-.11.75v5.12h-1.48v-5c0-1.32-.58-2.28-1.73-2.28a2,2,0,0,0-1.86,1.51,2,2,0,0,0-.12.73v5h-1.47Z"/><path class="cls-1" d="M474.89,474.51v2.38h2.16V478h-2.16v4.47c0,1,.29,1.61,1.13,1.61a3.38,3.38,0,0,0,.87-.1l.07,1.13a3.67,3.67,0,0,1-1.33.2,2.09,2.09,0,0,1-1.63-.63,3.05,3.05,0,0,1-.58-2.16V478h-1.29v-1.14h1.29v-2Z"/><path class="cls-1" d="M478.54,483.63a3.93,3.93,0,0,0,2,.6c1.1,0,1.61-.55,1.61-1.23s-.43-1.11-1.54-1.53c-1.49-.53-2.19-1.35-2.19-2.34,0-1.34,1.08-2.43,2.86-2.43a4.21,4.21,0,0,1,2,.51l-.38,1.1a3.18,3.18,0,0,0-1.69-.48c-.9,0-1.39.51-1.39,1.13s.49,1,1.57,1.4c1.44.55,2.18,1.27,2.18,2.5,0,1.46-1.13,2.48-3.1,2.48a4.75,4.75,0,0,1-2.33-.56Z"/><path class="cls-2" d="M446.5,218.51h2.24v16h7.39v1.94H446.5Z"/><path class="cls-2" d="M472.41,227.29c0,6.17-3.62,9.45-8,9.45-4.57,0-7.79-3.67-7.79-9.1,0-5.7,3.42-9.42,8-9.42S472.41,222,472.41,227.29Zm-13.43.29c0,3.84,2,7.27,5.52,7.27s5.55-3.38,5.55-7.45c0-3.57-1.8-7.29-5.52-7.29S459,223.64,459,227.58Z"/><path class="cls-2" d="M478,220.48h-5.27v-2h12.82v2h-5.29v16H478Z"/><path class="cls-2" d="M496.4,228h-6.73v6.46h7.5v1.94h-9.74V218.51h9.35v1.94h-7.11v5.67h6.73Z"/><path class="cls-2" d="M437.62,253.27h-.05l-2.9,1.62-.44-1.78,3.65-2h1.92v17.3h-2.18Z"/><path class="cls-2" d="M445.89,268.38v-1.44l1.77-1.78c4.26-4.2,6.19-6.44,6.22-9.05a3,3,0,0,0-3.32-3.38A5.56,5.56,0,0,0,447,254.2l-.72-1.65a7.19,7.19,0,0,1,4.72-1.76,4.78,4.78,0,0,1,5.11,5c0,3.19-2.23,5.77-5.75,9.29l-1.33,1.27v.06h7.5v1.94Z"/><path class="cls-2" d="M470.15,259.55c0,5.88-2.1,9.12-5.8,9.12-3.26,0-5.47-3.16-5.52-8.88s2.41-9,5.8-9S470.15,254,470.15,259.55Zm-9.06.26c0,4.5,1.33,7.05,3.39,7.05,2.31,0,3.41-2.79,3.41-7.21,0-4.26-1.05-7-3.39-7C462.53,252.6,461.09,255.1,461.09,259.81Z"/><path class="cls-2" d="M478.39,259c0-1.33,0-2.43-.1-3.49h2l.1,2.08h.08a4.26,4.26,0,0,1,3.9-2.37,3.68,3.68,0,0,1,3.52,2.58h.05a5.38,5.38,0,0,1,1.39-1.68,4.17,4.17,0,0,1,2.75-.9c1.64,0,4.08,1.12,4.08,5.59v7.58h-2.21v-7.29c0-2.48-.87-4-2.69-4a3,3,0,0,0-2.68,2.13,4.11,4.11,0,0,0-.18,1.17v8h-2.2v-7.72c0-2.05-.88-3.54-2.6-3.54a3.12,3.12,0,0,0-2.8,2.35,3.49,3.49,0,0,0-.18,1.14v7.77h-2.21Z"/><path class="cls-2" d="M499.09,268.38v-1.44l1.77-1.78c4.27-4.2,6.19-6.44,6.22-9.05a3,3,0,0,0-3.32-3.38,5.56,5.56,0,0,0-3.54,1.47l-.72-1.65a7.2,7.2,0,0,1,4.73-1.76,4.78,4.78,0,0,1,5.11,5c0,3.19-2.24,5.77-5.76,9.29l-1.33,1.27v.06h7.5v1.94Z"/><line class="cls-5" x1="395.51" y1="289.92" x2="395.51" y2="481.7"/><line class="cls-5" x1="395.51" y1="80.37" x2="395.51" y2="209.26"/><line class="cls-5" x1="390" y1="80.37" x2="401.01" y2="80.37"/><line class="cls-5" x1="390" y1="481.7" x2="401.01" y2="481.7"/><line class="cls-5" x1="436.35" y1="481.7" x2="395.51" y2="481.7"/><line class="cls-5" x1="540.34" y1="481.7" x2="494.01" y2="481.7"/><line class="cls-5" x1="540.34" y1="476.2" x2="540.34" y2="487.21"/><line class="cls-5" x1="395.51" y1="476.2" x2="395.51" y2="487.21"/><path class="cls-2" d="M485.55,307a26.73,26.73,0,0,0-7.83-4.74,24.21,24.21,0,0,0-8.69-1.58q-8.8,0-14.33,5.66T449.17,321a20,20,0,0,0,5.38,14.35A17.94,17.94,0,0,0,468.12,341a24.77,24.77,0,0,0,9.08-1.68,28.75,28.75,0,0,0,8.28-5.11v9.88a25.76,25.76,0,0,1-7.67,3.78,31.22,31.22,0,0,1-9,1.25,31.55,31.55,0,0,1-11.4-2,26.86,26.86,0,0,1-15.23-15,30.36,30.36,0,0,1,0-22.24,26.75,26.75,0,0,1,6.11-9.13,27,27,0,0,1,9.18-6,30.25,30.25,0,0,1,11.2-2,29.4,29.4,0,0,1,9,1.38,31.71,31.71,0,0,1,8.33,4.17Z"/><rect class="cls-4" x="383.17" y="70.64" width="173.4" height="424.83"/></g></g></svg>