<svg xmlns="http://www.w3.org/2000/svg" viewBox="0 0 302.51 49.08"><defs><style>.cls-1{fill:#021d49;}</style></defs><g id="Capa_2" data-name="Capa 2"><g id="Capa_1-2" data-name="Capa 1"><path class="cls-1" d="M176.89.78h4.37a10.51,10.51,0,0,1,4.05.62,5,5,0,0,1,2.24,1.92,5.36,5.36,0,0,1,.82,2.88,5.16,5.16,0,0,1-.72,2.69,5.33,5.33,0,0,1-2.12,2,8,8,0,0,1,2.66,1.38,5.36,5.36,0,0,1,1.45,1.91,5.67,5.67,0,0,1,.52,2.43,6,6,0,0,1-1.95,4.52A7.31,7.31,0,0,1,183,22.94h-6.08ZM179.06,3V10h1.26a10.11,10.11,0,0,0,3.4-.42,3.64,3.64,0,0,0,1.72-1.36,3.52,3.52,0,0,0,.64-2.06A2.93,2.93,0,0,0,185,3.81,5.41,5.41,0,0,0,181.62,3Zm0,9.32v8.5h2.74a10.09,10.09,0,0,0,3.57-.47,4,4,0,0,0,1.81-1.49,3.87,3.87,0,0,0-.27-4.76,5.07,5.07,0,0,0-2.66-1.51,19.45,19.45,0,0,0-3.94-.27Z"/><path class="cls-1" d="M194.62.78h2.22V14.16a25.41,25.41,0,0,0,.09,3,5,5,0,0,0,.76,2.19,4.42,4.42,0,0,0,1.86,1.47,5.74,5.74,0,0,0,2.51.6,5,5,0,0,0,2.11-.47,4.71,4.71,0,0,0,1.69-1.29,5.33,5.33,0,0,0,1-2,16.51,16.51,0,0,0,.23-3.46V.78h2.21V14.16a16.19,16.19,0,0,1-.58,4.8,6.45,6.45,0,0,1-2.32,3.18,6.6,6.6,0,0,1-4.21,1.36,8.09,8.09,0,0,1-4.59-1.28A6.18,6.18,0,0,1,195,18.83a18,18,0,0,1-.41-4.67Z"/><path class="cls-1" d="M212.46,18.81l1.88-1.13q2,3.66,4.6,3.66a4.35,4.35,0,0,0,2.09-.52,3.67,3.67,0,0,0,2-3.24,3.8,3.8,0,0,0-.76-2.19,18.07,18.07,0,0,0-3.79-3.55,19.52,19.52,0,0,1-3.45-3,5.52,5.52,0,0,1-1.18-3.39,5.2,5.2,0,0,1,.69-2.64A5,5,0,0,1,216.5.91a5.6,5.6,0,0,1,2.74-.69,5.82,5.82,0,0,1,2.93.78,9.93,9.93,0,0,1,2.88,2.85l-1.8,1.37A8.76,8.76,0,0,0,221.11,3a3.65,3.65,0,0,0-1.92-.53,3.06,3.06,0,0,0-2.19.81,2.68,2.68,0,0,0-.85,2,3.42,3.42,0,0,0,.3,1.4,5.34,5.34,0,0,0,1.1,1.48c.29.28,1.25,1,2.86,2.21a16.21,16.21,0,0,1,4,3.78,6.15,6.15,0,0,1,1.07,3.33,5.64,5.64,0,0,1-1.83,4.19,6.13,6.13,0,0,1-4.45,1.78,6.49,6.49,0,0,1-3.66-1.08A9.77,9.77,0,0,1,212.46,18.81Z"/><path class="cls-1" d="M229.8.78H232V22.94H229.8Z"/><path class="cls-1" d="M237.11,22.94V.78h.48l14.75,17V.78h2.18V22.94H254L239.4,6.16V22.94Z"/><path class="cls-1" d="M259.93.78h12.7V3H262.15V9.89h10.39v2.17H262.15v8.71h10.39v2.17H259.93Z"/><path class="cls-1" d="M274.17,18.81l1.88-1.13q2,3.66,4.6,3.66a4.35,4.35,0,0,0,2.09-.52,3.65,3.65,0,0,0,1.49-1.39,3.53,3.53,0,0,0,.52-1.85,3.73,3.73,0,0,0-.76-2.19,18.07,18.07,0,0,0-3.79-3.55,19.52,19.52,0,0,1-3.45-3,5.52,5.52,0,0,1-1.18-3.39,5.2,5.2,0,0,1,.69-2.64,5,5,0,0,1,2-1.87A5.57,5.57,0,0,1,281,.22a5.82,5.82,0,0,1,2.93.78,9.93,9.93,0,0,1,2.88,2.85L285,5.22A8.94,8.94,0,0,0,282.83,3a3.71,3.71,0,0,0-1.93-.53,3.06,3.06,0,0,0-2.19.81,2.68,2.68,0,0,0-.85,2,3.42,3.42,0,0,0,.3,1.4,5.34,5.34,0,0,0,1.1,1.48c.29.28,1.25,1,2.86,2.21a16.21,16.21,0,0,1,3.95,3.78,6.06,6.06,0,0,1,1.07,3.33,5.64,5.64,0,0,1-1.83,4.19,6.13,6.13,0,0,1-4.45,1.78,6.49,6.49,0,0,1-3.66-1.08A9.77,9.77,0,0,1,274.17,18.81Z"/><path class="cls-1" d="M289.54,18.81l1.88-1.13q2,3.66,4.59,3.66a4.36,4.36,0,0,0,2.1-.52,3.65,3.65,0,0,0,1.49-1.39,3.61,3.61,0,0,0,.51-1.85,3.78,3.78,0,0,0-.75-2.19,17.92,17.92,0,0,0-3.8-3.55,20.33,20.33,0,0,1-3.45-3,5.58,5.58,0,0,1-1.17-3.39,5.2,5.2,0,0,1,.69-2.64A4.88,4.88,0,0,1,293.58.91a5.6,5.6,0,0,1,2.74-.69,5.82,5.82,0,0,1,2.93.78,9.93,9.93,0,0,1,2.88,2.85l-1.81,1.37A8.59,8.59,0,0,0,298.19,3a3.7,3.7,0,0,0-1.92-.53,3.06,3.06,0,0,0-2.19.81,2.68,2.68,0,0,0-.85,2,3.42,3.42,0,0,0,.3,1.4,5.34,5.34,0,0,0,1.1,1.48c.29.28,1.24,1,2.86,2.21a16.21,16.21,0,0,1,3.95,3.78,6.15,6.15,0,0,1,1.07,3.33,5.64,5.64,0,0,1-1.83,4.19,6.14,6.14,0,0,1-4.45,1.78,6.49,6.49,0,0,1-3.66-1.08A9.77,9.77,0,0,1,289.54,18.81Z"/><path class="cls-1" d="M176.81,26.62h4.42a25.48,25.48,0,0,1,5.12.33,5.67,5.67,0,0,1,3.1,1.92,5.51,5.51,0,0,1,1.21,3.66,5.56,5.56,0,0,1-1.18,3.65,5.81,5.81,0,0,1-3.24,1.94,28.68,28.68,0,0,1-5.63.36H179v10.3h-2.22ZM179,28.79v7.52l3.75,0a10,10,0,0,0,3.33-.41,3.41,3.41,0,0,0,1.65-1.34,3.62,3.62,0,0,0,.61-2.07,3.56,3.56,0,0,0-.61-2,3.32,3.32,0,0,0-1.58-1.32,9.64,9.64,0,0,0-3.24-.39Z"/><path class="cls-1" d="M202.26,26.62l10.33,22.16H210.2l-3.48-7.29h-9.55l-3.45,7.29h-2.47l10.47-22.16ZM202,31.33l-3.8,8h7.58Z"/><path class="cls-1" d="M216.15,26.62h4.41a27,27,0,0,1,5,.3,5.75,5.75,0,0,1,3.21,1.94A5.55,5.55,0,0,1,230,32.52a5.86,5.86,0,0,1-.85,3.18,5.34,5.34,0,0,1-2.43,2.08,11.36,11.36,0,0,1-4.37.71l8,10.29h-2.74l-8-10.29h-1.25V48.78h-2.22Zm2.22,2.17v7.53l3.81,0a9.58,9.58,0,0,0,3.29-.42,3.41,3.41,0,0,0,1.66-1.35,3.79,3.79,0,0,0,.59-2.07,3.63,3.63,0,0,0-.6-2,3.37,3.37,0,0,0-1.59-1.3,9.65,9.65,0,0,0-3.26-.39Z"/><path class="cls-1" d="M234.76,26.62H237v8.32l8.86-8.32h3l-10.64,9.94,11.47,12.22h-3L237,38.46V48.78h-2.26Z"/><rect class="cls-1" x="144.61" y="24.33" width="48.14" height="0.85" transform="translate(143.93 193.44) rotate(-90)"/><path class="cls-1" d="M3.45.69h5l11.7,18V.69h5.2V28h-5L8.65,10.09V28H3.45Z"/><path class="cls-1" d="M37.45.69h5.28L53.24,28h-5.4L45.7,22.4H34.54L32.32,28H26.91Zm2.67,7.25-3.67,9.38h7.32Z"/><path class="cls-1" d="M50.59.69h5.35l6.88,19.42L69.8.69h5.34L65.29,28h-5Z"/><path class="cls-1" d="M78.38.69H93.3V5.78H83.55v4.94H93.3v5H83.55v7.2H93.3V28H78.38Z"/><path class="cls-1" d="M96.22.69h15.11V5.82h-5V28h-5.28V5.82H96.22Z"/><path class="cls-1" d="M114,.69h14.92V5.78h-9.76v4.94h9.76v5h-9.76v7.2h9.76V28H114Z"/><path class="cls-1" d="M157.91,5.49,154.27,9A11.27,11.27,0,0,0,145.92,5a9.17,9.17,0,0,0-9.29,9.28,9.83,9.83,0,0,0,1.19,4.86,8.67,8.67,0,0,0,3.36,3.33,9.83,9.83,0,0,0,4.83,1.2,10,10,0,0,0,4.14-.84,14.81,14.81,0,0,0,4.12-3.08l3.53,3.68a19.29,19.29,0,0,1-5.72,4.1,15.68,15.68,0,0,1-6.15,1.14,14.15,14.15,0,0,1-10.44-4,14,14,0,0,1-4.06-10.36A14.24,14.24,0,0,1,133.28,7a13.8,13.8,0,0,1,5.3-5.11A14.91,14.91,0,0,1,146,0a15.74,15.74,0,0,1,11.91,5.49Z"/><rect class="cls-1" y="31.47" width="161.37" height="1.7"/><path class="cls-1" d="M119.14,38.75l-1.62,1.54a5,5,0,0,0-3.72-1.74,4.06,4.06,0,0,0-4.12,4.13,4.37,4.37,0,0,0,.52,2.16,3.81,3.81,0,0,0,1.5,1.48,4.31,4.31,0,0,0,2.14.54,4.47,4.47,0,0,0,1.85-.38,6.76,6.76,0,0,0,1.83-1.37l1.57,1.64a8.76,8.76,0,0,1-2.55,1.82,6.92,6.92,0,0,1-2.73.51,6.29,6.29,0,0,1-4.64-1.8,6.2,6.2,0,0,1-1.81-4.61,6.38,6.38,0,0,1,.82-3.23,6.14,6.14,0,0,1,2.36-2.27,6.66,6.66,0,0,1,3.3-.86,7.06,7.06,0,0,1,5.3,2.44Z"/><path class="cls-1" d="M121.78,36.62h6.64v2.26h-4.34v2.2h4.34V43.3h-4.34v3.2h4.34v2.27h-6.64Z"/><path class="cls-1" d="M131.18,36.62h2.32v10h3.37v2.2h-5.69Z"/><path class="cls-1" d="M138,36.62h6.72V38.9h-2.22v9.87H140.2V38.9H138Z"/><path class="cls-1" d="M150.66,36.62H153l4.67,12.15h-2.4l-.95-2.5h-5l-1,2.5H146Zm1.19,3.22L150.22,44h3.25Z"/></g></g></svg>