<svg xmlns="http://www.w3.org/2000/svg" viewBox="0 0 302.51 49.1"><defs><style>.cls-1{fill:#15234a;}</style></defs><title>santa_rosa-logo</title><g id="Capa_2" data-name="Capa 2"><g id="Capa_1-2" data-name="Capa 1"><g id="Capa_1-2-2" data-name="Capa 1-2"><path class="cls-1" d="M176.89.78h4.37a10.54,10.54,0,0,1,4.05.62,5,5,0,0,1,2.24,1.92,5.33,5.33,0,0,1,.82,2.88,5.17,5.17,0,0,1-.72,2.69,5.37,5.37,0,0,1-2.12,2,8,8,0,0,1,2.66,1.38,5.33,5.33,0,0,1,1.45,1.91,5.65,5.65,0,0,1,.52,2.43,6,6,0,0,1-1.95,4.51A7.31,7.31,0,0,1,183,22.94h-6.08ZM179.06,3v7h1.26a9.79,9.79,0,0,0,3.4-.43,3.65,3.65,0,0,0,2.36-3.41A3,3,0,0,0,185,3.81,5.43,5.43,0,0,0,181.62,3Zm0,9.32v8.5h2.74a10,10,0,0,0,3.57-.47,4.06,4.06,0,0,0,1.81-1.49,3.88,3.88,0,0,0-.27-4.76,5.13,5.13,0,0,0-2.66-1.51,20,20,0,0,0-3.94-.27Z"/><path class="cls-1" d="M194.62.78h2.22V14.16a25.06,25.06,0,0,0,.09,3,5.08,5.08,0,0,0,.76,2.2,4.54,4.54,0,0,0,1.86,1.47,5.76,5.76,0,0,0,2.51.6,5,5,0,0,0,2.11-.47,4.55,4.55,0,0,0,1.69-1.29,5.38,5.38,0,0,0,1-2,16.69,16.69,0,0,0,.23-3.46V.78h2.21V14.16a16.2,16.2,0,0,1-.58,4.8,6.5,6.5,0,0,1-2.32,3.18,6.66,6.66,0,0,1-4.21,1.36,8.12,8.12,0,0,1-4.59-1.28,6.2,6.2,0,0,1-2.6-3.39,17.86,17.86,0,0,1-.41-4.67Z"/><path class="cls-1" d="M212.46,18.81l1.88-1.13c1.33,2.44,2.87,3.66,4.6,3.66a4.24,4.24,0,0,0,2.09-.52,3.66,3.66,0,0,0,2-3.24,3.77,3.77,0,0,0-.76-2.19,18.25,18.25,0,0,0-3.79-3.55,19.71,19.71,0,0,1-3.45-3,5.5,5.5,0,0,1-1.18-3.39,5.21,5.21,0,0,1,.69-2.64,5,5,0,0,1,2-1.9,5.58,5.58,0,0,1,2.74-.69,5.89,5.89,0,0,1,2.93.78,9.78,9.78,0,0,1,2.88,2.85l-1.8,1.37A8.85,8.85,0,0,0,221.11,3a3.7,3.7,0,0,0-1.92-.53,3,3,0,0,0-2.19.81,2.7,2.7,0,0,0-.85,2,3.39,3.39,0,0,0,.3,1.4,5.34,5.34,0,0,0,1.1,1.48c.29.28,1.25,1,2.86,2.21a16.15,16.15,0,0,1,4,3.78,6.18,6.18,0,0,1,1.07,3.33,5.66,5.66,0,0,1-1.83,4.19,6.17,6.17,0,0,1-4.45,1.78,6.43,6.43,0,0,1-3.66-1.08A9.79,9.79,0,0,1,212.46,18.81Z"/><path class="cls-1" d="M229.8.78H232V22.94h-2.2Z"/><path class="cls-1" d="M237.11,22.94V.78h.48l14.75,17V.78h2.18V22.94H254L239.4,6.16V22.94Z"/><path class="cls-1" d="M259.93.78h12.7V3H262.15V9.89h10.39v2.17H262.15v8.71h10.39v2.17H259.93Z"/><path class="cls-1" d="M274.17,18.81l1.88-1.13c1.33,2.44,2.87,3.66,4.6,3.66a4.24,4.24,0,0,0,2.09-.52,3.67,3.67,0,0,0,2-3.24,3.7,3.7,0,0,0-.76-2.19,18.25,18.25,0,0,0-3.79-3.55,19.71,19.71,0,0,1-3.45-3,5.5,5.5,0,0,1-1.18-3.39,5.21,5.21,0,0,1,.69-2.64,5,5,0,0,1,2-1.87A5.61,5.61,0,0,1,281,.22a5.89,5.89,0,0,1,2.93.78,9.93,9.93,0,0,1,2.89,2.85L285,5.22A9,9,0,0,0,282.83,3a3.74,3.74,0,0,0-1.93-.53,3,3,0,0,0-2.19.81,2.7,2.7,0,0,0-.85,2,3.39,3.39,0,0,0,.3,1.4,5.34,5.34,0,0,0,1.1,1.48c.29.28,1.25,1,2.86,2.21a16.31,16.31,0,0,1,3.95,3.78,6,6,0,0,1,1.07,3.33,5.66,5.66,0,0,1-1.83,4.19,6.17,6.17,0,0,1-4.45,1.78,6.43,6.43,0,0,1-3.66-1.08A9.75,9.75,0,0,1,274.17,18.81Z"/><path class="cls-1" d="M289.54,18.81l1.88-1.13c1.33,2.44,2.87,3.66,4.6,3.66a4.24,4.24,0,0,0,2.09-.52,3.57,3.57,0,0,0,1.49-1.39,3.65,3.65,0,0,0,.51-1.85,3.76,3.76,0,0,0-.75-2.19,18,18,0,0,0-3.8-3.55,20.14,20.14,0,0,1-3.45-3,5.61,5.61,0,0,1-1.17-3.39,5.21,5.21,0,0,1,.69-2.64,5,5,0,0,1,1.95-1.9,5.58,5.58,0,0,1,2.74-.69,5.89,5.89,0,0,1,2.93.78,9.78,9.78,0,0,1,2.88,2.85l-1.81,1.37A8.64,8.64,0,0,0,298.19,3a3.7,3.7,0,0,0-1.92-.53,3,3,0,0,0-2.19.81,2.7,2.7,0,0,0-.85,2,3.39,3.39,0,0,0,.3,1.4,5.34,5.34,0,0,0,1.1,1.48c.29.28,1.24,1,2.86,2.21a16.31,16.31,0,0,1,3.95,3.78,6.18,6.18,0,0,1,1.07,3.33,5.66,5.66,0,0,1-1.83,4.19,6.17,6.17,0,0,1-4.45,1.78,6.43,6.43,0,0,1-3.66-1.08A9.75,9.75,0,0,1,289.54,18.81Z"/><path class="cls-1" d="M176.81,26.62h4.42a25.83,25.83,0,0,1,5.12.33,5.66,5.66,0,0,1,3.1,1.92,5.52,5.52,0,0,1,1.21,3.66,5.59,5.59,0,0,1-1.18,3.65,5.72,5.72,0,0,1-3.24,1.93,27.25,27.25,0,0,1-5.63.37H179v10.3h-2.22ZM179,28.79v7.52h3.75a10.12,10.12,0,0,0,3.33-.41,3.47,3.47,0,0,0,1.66-1.34,3.73,3.73,0,0,0,.6-2.07,3.64,3.64,0,0,0-.6-2,3.42,3.42,0,0,0-1.59-1.32,9.87,9.87,0,0,0-3.24-.39Z"/><path class="cls-1" d="M202.26,26.62,212.6,48.78h-2.4l-3.48-7.29h-9.55l-3.45,7.29h-2.47l10.47-22.16ZM202,31.33l-3.8,8h7.58Z"/><path class="cls-1" d="M216.15,26.62h4.41a27.87,27.87,0,0,1,5,.3,5.72,5.72,0,0,1,3.21,1.94A5.57,5.57,0,0,1,230,32.52a5.93,5.93,0,0,1-.85,3.18,5.27,5.27,0,0,1-2.43,2.07,11,11,0,0,1-4.37.72l8,10.29h-2.74l-8-10.29h-1.25V48.78h-2.22Zm2.22,2.17v7.53h3.81a9.64,9.64,0,0,0,3.29-.42,3.39,3.39,0,0,0,1.66-1.35,3.8,3.8,0,0,0,.59-2.07,3.64,3.64,0,0,0-.6-2,3.38,3.38,0,0,0-1.59-1.3,9.73,9.73,0,0,0-3.26-.39Z"/><path class="cls-1" d="M234.76,26.62H237v8.32l8.86-8.32h3l-10.64,9.94,11.47,12.22h-3L237,38.46V48.78h-2.26Z"/><rect class="cls-1" x="168.26" y="0.69" width="0.85" height="48.14"/><path class="cls-1" d="M3.45.69h5l11.69,18V.69h5.21V28h-5L8.65,10.09V28H3.45Z"/><path class="cls-1" d="M37.45.69h5.28L53.24,28H47.83L45.7,22.4H34.54L32.32,28H26.91Zm2.67,7.25-3.67,9.38h7.32Z"/><path class="cls-1" d="M50.59.69h5.35l6.88,19.42L69.8.69h5.34L65.29,28h-5Z"/><path class="cls-1" d="M78.38.69H93.3V5.78H83.54v4.94H93.3v5H83.54v7.2H93.3V28H78.38Z"/><path class="cls-1" d="M96.22.69h15.11V5.82h-5V28h-5.28V5.82H96.22Z"/><path class="cls-1" d="M114,.69h14.93V5.78h-9.76v4.94h9.76v5h-9.76v7.2h9.76V28H114Z"/><path class="cls-1" d="M157.91,5.49,154.27,9a11.27,11.27,0,0,0-8.35-4,9.18,9.18,0,0,0-9.29,9.05v.23a9.8,9.8,0,0,0,1.19,4.86,8.47,8.47,0,0,0,3.36,3.33,9.8,9.8,0,0,0,4.83,1.2,10,10,0,0,0,4.14-.84,14.81,14.81,0,0,0,4.12-3.08l3.53,3.68a19.53,19.53,0,0,1-5.72,4.1,15.59,15.59,0,0,1-6.15,1.14,14.13,14.13,0,0,1-10.44-4,14,14,0,0,1-4.06-10.36A14.28,14.28,0,0,1,133.28,7a13.77,13.77,0,0,1,5.3-5.11A14.82,14.82,0,0,1,146,0,15.8,15.8,0,0,1,157.91,5.49Z"/><rect class="cls-1" y="31.47" width="161.37" height="1.7"/><path class="cls-1" d="M57.05,38.27l-1.71,1.51a2.44,2.44,0,0,0-1.84-1.26,1.13,1.13,0,0,0-.75.25.71.71,0,0,0-.29.55,1,1,0,0,0,.21.58,16.72,16.72,0,0,0,1.7,1.56c.88.74,1.42,1.2,1.6,1.4a4.74,4.74,0,0,1,1,1.35,3.48,3.48,0,0,1,.3,1.42,3.23,3.23,0,0,1-1,2.47,3.73,3.73,0,0,1-2.69,1,4,4,0,0,1-2.27-.64,4.93,4.93,0,0,1-1.65-2l2-1.17c.58,1.07,1.26,1.61,2,1.61a1.48,1.48,0,0,0,1-.35,1,1,0,0,0,.4-.8,1.4,1.4,0,0,0-.3-.83,10.07,10.07,0,0,0-1.35-1.26,13.52,13.52,0,0,1-2.57-2.5,3.27,3.27,0,0,1-.58-1.76,2.87,2.87,0,0,1,1-2.17,3.37,3.37,0,0,1,2.38-.9,3.71,3.71,0,0,1,1.73.42A6.26,6.26,0,0,1,57.05,38.27Z"/><path class="cls-1" d="M63.79,36.62h2.35l4.67,12.15h-2.4l-1-2.5h-5l-1,2.5H59.1ZM65,39.84,63.35,44H66.6Z"/><path class="cls-1" d="M73.22,36.62h2.22l5.2,8v-8H83V48.77H80.73l-5.2-8v8H73.22Z"/><path class="cls-1" d="M85.14,36.62h6.72V38.9H89.65v9.87H87.3V38.9H85.14Z"/><path class="cls-1" d="M97.77,36.62h2.34l4.68,12.15h-2.41l-.95-2.5h-5l-1,2.5H93ZM99,39.84,97.32,44h3.26Z"/><path class="cls-1" d="M112.69,36.62h2.45A8.14,8.14,0,0,1,118,37a2.8,2.8,0,0,1,1.37,1.19,3.7,3.7,0,0,1,.52,2,3.45,3.45,0,0,1-.57,2,3.49,3.49,0,0,1-1.73,1.22l2.88,5.4H118l-2.74-5.15H115v5.15h-2.31ZM115,41.37h.73a3,3,0,0,0,1.52-.29,1.1,1.1,0,0,0,.41-1,1.17,1.17,0,0,0-.2-.7,1.2,1.2,0,0,0-.55-.42,4.5,4.5,0,0,0-1.27-.13H115Z"/><path class="cls-1" d="M128.7,36.31a6,6,0,0,1,4.43,1.87,6.48,6.48,0,0,1,0,9.06,6.35,6.35,0,0,1-9,0l0,0a6.52,6.52,0,0,1-1-7.71,6.2,6.2,0,0,1,2.32-2.31A6.08,6.08,0,0,1,128.7,36.31Zm0,2.26a3.82,3.82,0,0,0-2.83,1.18,4,4,0,0,0-1.15,3,3.89,3.89,0,0,0,1.44,3.19,4,4,0,0,0,2.58.92,3.79,3.79,0,0,0,2.81-1.19,4.29,4.29,0,0,0,0-5.87,3.83,3.83,0,0,0-2.88-1.23Z"/><path class="cls-1" d="M144.16,38.27l-1.71,1.51a2.44,2.44,0,0,0-1.84-1.26,1.11,1.11,0,0,0-.74.25.68.68,0,0,0-.29.55,1,1,0,0,0,.2.58,16.72,16.72,0,0,0,1.7,1.56c.88.74,1.42,1.2,1.61,1.4a4.88,4.88,0,0,1,1,1.35,3.48,3.48,0,0,1,.3,1.42,3.23,3.23,0,0,1-1,2.47,3.73,3.73,0,0,1-2.69,1,4,4,0,0,1-2.27-.64,4.93,4.93,0,0,1-1.65-2l2-1.17c.58,1.07,1.26,1.61,2,1.61a1.48,1.48,0,0,0,1-.35,1,1,0,0,0,.4-.8,1.4,1.4,0,0,0-.3-.83,10.07,10.07,0,0,0-1.35-1.26,13.52,13.52,0,0,1-2.57-2.5,3.27,3.27,0,0,1-.58-1.76,2.87,2.87,0,0,1,1-2.17,3.37,3.37,0,0,1,2.38-.9,3.71,3.71,0,0,1,1.73.42A6.21,6.21,0,0,1,144.16,38.27Z"/><path class="cls-1" d="M150.9,36.62h2.35l4.67,12.15h-2.4l-1-2.5h-5l-1,2.5h-2.41Zm1.19,3.22L150.46,44h3.25Z"/></g></g></g></svg>