<svg xmlns="http://www.w3.org/2000/svg" viewBox="0 0 224.98 173.37"><defs><style>.cls-1{fill:#211915;}.cls-2,.cls-3{fill:none;stroke:#211915;stroke-miterlimit:10;}.cls-2{stroke-width:0.21px;}.cls-3{stroke-width:0.37px;}</style></defs><title>lotes-abc-light</title><g id="Capa_2" data-name="Capa 2"><g id="Capa_1-2" data-name="Capa 1"><path class="cls-1" d="M3.49,117.38v0l.44.82-.49.12-.55-1v-.55H7.63v.62Z"/><path class="cls-1" d="M3.34,112.33a2.92,2.92,0,0,0,0,.48,1.94,1.94,0,0,0,1.69,1.65v0a1.44,1.44,0,0,1,1-2.57,1.58,1.58,0,0,1,1.67,1.57c0,1-.79,1.68-2,1.68a3,3,0,0,1-2.14-.8,2.66,2.66,0,0,1-.7-1.52c0-.19,0-.35,0-.46Zm2.74.18a1,1,0,0,0-1.09,1,1,1,0,0,0,.59.91.47.47,0,0,0,.28.08c.78,0,1.36-.37,1.36-1S6.76,112.51,6.08,112.51Z"/><path class="cls-1" d="M5.06,109.54c-.37,0-.67,0-1,0V109l.57,0v0A1.24,1.24,0,0,1,4,107.85a1,1,0,0,1,.71-1v0a1.5,1.5,0,0,1-.46-.39,1.21,1.21,0,0,1-.25-.78c0-.47.31-1.16,1.53-1.16H7.63v.63h-2c-.68,0-1.08.24-1.08.76a.83.83,0,0,0,.58.76,1,1,0,0,0,.32,0H7.63v.63H5.52c-.57,0-1,.25-1,.74a.87.87,0,0,0,.64.79.78.78,0,0,0,.31,0H7.63v.63Z"/><path class="cls-1" d="M3.09,102.71h1v-.92h.49v.92h1.9c.44,0,.69-.12.69-.48a1.52,1.52,0,0,0,0-.37l.48,0a1.61,1.61,0,0,1,.08.57.86.86,0,0,1-.27.69,1.29,1.29,0,0,1-.91.25H4.59v.55H4.1v-.55H3.25Z"/><path class="cls-1" d="M7,101.16a1.74,1.74,0,0,0,.25-.85c0-.47-.23-.68-.52-.68s-.48.18-.65.65c-.23.64-.58.94-1,.94A1.09,1.09,0,0,1,4,100a1.74,1.74,0,0,1,.22-.87l.47.16a1.34,1.34,0,0,0-.21.72c0,.38.22.59.48.59s.43-.21.6-.67c.24-.61.54-.92,1.07-.92s1,.48,1,1.32a2,2,0,0,1-.24,1Z"/><path class="cls-1" d="M27.73,168.13a1.33,1.33,0,0,1,.94-1.26v0a1.15,1.15,0,0,1-.75-1.06,1.32,1.32,0,0,1,1.46-1.26,1.22,1.22,0,0,1,1.38,1.16,1.21,1.21,0,0,1-.78,1.11v0a1.33,1.33,0,0,1,1,1.23,1.46,1.46,0,0,1-1.61,1.38C28.32,169.42,27.73,168.83,27.73,168.13Zm2.55,0c0-.58-.4-.86-1-1a1,1,0,0,0-.86,1,.87.87,0,0,0,.95.9A.86.86,0,0,0,30.28,168.11Zm-1.77-2.38c0,.48.36.73.91.88a.93.93,0,0,0,.72-.86.74.74,0,0,0-.8-.77A.75.75,0,0,0,28.51,165.73Z"/><path class="cls-1" d="M33.28,166.76c0-.36,0-.66,0-.95h.56l0,.57h0a1.21,1.21,0,0,1,1.11-.65,1.05,1.05,0,0,1,1,.7h0a1.36,1.36,0,0,1,.4-.45,1.14,1.14,0,0,1,.78-.25c.46,0,1.16.3,1.16,1.53v2.08h-.63v-2c0-.68-.25-1.09-.77-1.09a.81.81,0,0,0-.75.59,1,1,0,0,0-.06.32v2.18h-.62v-2.12c0-.56-.25-1-.74-1a.89.89,0,0,0-.8.64,1.13,1.13,0,0,0-.05.32v2.13h-.62Z"/><path class="cls-1" d="M40.1,164.79v1H41v.49H40.1v1.9c0,.44.13.69.49.69a1.49,1.49,0,0,0,.37,0l0,.48a1.61,1.61,0,0,1-.57.09.9.9,0,0,1-.7-.27,1.32,1.32,0,0,1-.24-.92V166.3h-.55v-.49h.55V165Z"/><path class="cls-1" d="M41.66,168.68a1.61,1.61,0,0,0,.84.26c.47,0,.69-.24.69-.53s-.18-.47-.66-.65c-.63-.22-.93-.57-.93-1a1.09,1.09,0,0,1,1.22-1,1.77,1.77,0,0,1,.87.22l-.17.46a1.41,1.41,0,0,0-.72-.2c-.38,0-.59.22-.59.48s.21.42.67.6c.62.23.93.54.93,1.06s-.48,1.06-1.32,1.06a2,2,0,0,1-1-.24Z"/><path class="cls-1" d="M27.34,48.75h.95v6.82h3.15v.83h-4.1Z"/><path class="cls-1" d="M38.38,52.5c0,2.63-1.54,4-3.43,4S31.64,55,31.64,52.64s1.45-4,3.42-4S38.38,50.23,38.38,52.5Zm-5.72.12c0,1.63.85,3.1,2.35,3.1s2.36-1.44,2.36-3.18c0-1.52-.76-3.11-2.35-3.11S32.66,50.94,32.66,52.62Z"/><path class="cls-1" d="M40.74,49.59H38.5v-.84H44v.84H41.71V56.4h-1Z"/><path class="cls-1" d="M48.6,52.81H45.73v2.76h3.2v.83H44.78V48.75h4v.83h-3V52H48.6Z"/><path class="cls-1" d="M23.55,63.56h0l-1.23.69-.19-.76,1.55-.86h.82V70h-.93Z"/><path class="cls-1" d="M27.08,70v-.61l.75-.76c1.82-1.79,2.64-2.74,2.65-3.85a1.29,1.29,0,0,0-1.41-1.44,2.39,2.39,0,0,0-1.51.62l-.31-.7a3,3,0,0,1,2-.75,2,2,0,0,1,2.18,2.14c0,1.36-1,2.46-2.45,4l-.57.54v0h3.2V70Z"/><path class="cls-1" d="M32.6,68.13a2.1,2.1,0,0,1,1.41-2v0a1.82,1.82,0,0,1-1.12-1.66,2,2,0,0,1,2.19-2,1.84,1.84,0,0,1,.9,3.54v0A2,2,0,0,1,37.4,68,2.22,2.22,0,0,1,35,70.13,2.13,2.13,0,0,1,32.6,68.13Zm3.83,0c0-.9-.6-1.33-1.56-1.61A1.57,1.57,0,0,0,33.59,68,1.33,1.33,0,0,0,35,69.4,1.3,1.3,0,0,0,36.43,68.09ZM33.78,64.4c0,.74.54,1.14,1.36,1.36a1.44,1.44,0,0,0,1.08-1.34,1.13,1.13,0,0,0-1.2-1.2A1.16,1.16,0,0,0,33.78,64.4Z"/><path class="cls-1" d="M40.93,66c0-.57,0-1,0-1.48h.85l0,.88h0a1.83,1.83,0,0,1,1.67-1A1.56,1.56,0,0,1,45,65.49h0a2.11,2.11,0,0,1,.59-.71,1.74,1.74,0,0,1,1.17-.39c.7,0,1.74.48,1.74,2.38V70h-.94V66.9c0-1.06-.38-1.69-1.15-1.69a1.25,1.25,0,0,0-1.14.9,1.87,1.87,0,0,0-.08.5V70h-.94V66.72c0-.88-.37-1.51-1.1-1.51a1.35,1.35,0,0,0-1.2,1,1.57,1.57,0,0,0-.07.49V70h-.94Z"/><path class="cls-1" d="M49.75,70v-.61l.75-.76c1.82-1.79,2.64-2.74,2.65-3.85a1.29,1.29,0,0,0-1.41-1.44,2.36,2.36,0,0,0-1.51.62l-.31-.7a3,3,0,0,1,2-.75,2,2,0,0,1,2.18,2.14c0,1.36-1,2.46-2.45,4l-.57.54v0h3.2V70Z"/><line class="cls-2" x1="4.92" y1="122.65" x2="4.92" y2="168.13"/><line class="cls-2" x1="4.92" y1="37.65" x2="4.92" y2="95.28"/><line class="cls-2" x1="2.65" y1="37.59" x2="7.34" y2="37.59"/><line class="cls-2" x1="2.58" y1="168.13" x2="7.27" y2="168.13"/><line class="cls-2" x1="21.84" y1="168.13" x2="4.92" y2="168.13"/><line class="cls-2" x1="66.63" y1="168.13" x2="49.34" y2="168.13"/><line class="cls-2" x1="66.63" y1="165.78" x2="66.63" y2="170.47"/><line class="cls-2" x1="4.92" y1="165.78" x2="4.92" y2="170.47"/><path class="cls-1" d="M45,125.65l-2.59-5.9H33.32l-2.65,5.9H26.75l11.09-23.81,11.08,23.81Zm-10.29-9h6.38l-2.34-5.23c-.14-.33-.28-.72-.43-1.15s-.29-.91-.43-1.45c-.13.51-.26,1-.4,1.4s-.29.84-.43,1.2Z"/><rect class="cls-3" x="0.18" y="34.78" width="69.2" height="138.4"/><path class="cls-1" d="M81.53,106.86h0l.45.83-.49.12-.56-1v-.55h4.74v.62Z"/><path class="cls-1" d="M80.93,101.43h.43l4.31,2.07v.66l-4.19-2.06h0v2.32h-.54Z"/><path class="cls-1" d="M85.3,100.72a.44.44,0,0,1-.46-.44.46.46,0,1,1,.46.44Z"/><path class="cls-1" d="M81.47,96.43v1.81l1.22.18a3.27,3.27,0,0,1,0-.39,2,2,0,0,1,.26-1,1.36,1.36,0,0,1,1.22-.68,1.64,1.64,0,0,1,1.61,1.77,2.28,2.28,0,0,1-.29,1.18L85,99.12a2.2,2.2,0,0,0,.26-1,1.05,1.05,0,0,0-1-1.13c-.61,0-1,.42-1,1.37a5.07,5.07,0,0,0,0,.65l-2.28-.3V96.43Z"/><path class="cls-1" d="M83.1,93.77c-.36,0-.66,0-.95,0v-.56l.56,0v0a1.22,1.22,0,0,1-.64-1.11,1.05,1.05,0,0,1,.7-1h0a1.63,1.63,0,0,1-.46-.39,1.23,1.23,0,0,1-.24-.78c0-.47.3-1.16,1.53-1.16h2.07v.62h-2c-.68,0-1.09.25-1.09.77a.84.84,0,0,0,.58.76,1.09,1.09,0,0,0,.33.05h2.17v.63H83.56c-.56,0-1,.24-1,.73a.89.89,0,0,0,.64.8,1.13,1.13,0,0,0,.32,0h2.12v.63Z"/><path class="cls-1" d="M81.13,86.94h1V86h.48v.92h1.91c.44,0,.68-.13.68-.48a1.62,1.62,0,0,0,0-.38l.48,0a1.55,1.55,0,0,1,.09.56.93.93,0,0,1-.27.7,1.32,1.32,0,0,1-.92.24H82.63v.55h-.48v-.55H81.3Z"/><path class="cls-1" d="M85,85.38a1.7,1.7,0,0,0,.25-.84c0-.47-.23-.69-.52-.69s-.48.18-.65.66-.58.93-1,.93a1.09,1.09,0,0,1-1-1.22,1.81,1.81,0,0,1,.21-.86l.47.16a1.35,1.35,0,0,0-.2.72c0,.38.21.59.48.59s.42-.21.6-.67.54-.93,1.06-.93,1.06.48,1.06,1.32a2,2,0,0,1-.24,1Z"/><path class="cls-1" d="M105.77,168.13a1.35,1.35,0,0,1,.94-1.26v0a1.17,1.17,0,0,1-.75-1.06,1.33,1.33,0,0,1,1.47-1.26,1.22,1.22,0,0,1,1.38,1.16,1.21,1.21,0,0,1-.78,1.11v0a1.32,1.32,0,0,1,1,1.23,1.46,1.46,0,0,1-1.61,1.38C106.37,169.42,105.77,168.83,105.77,168.13Zm2.55,0c0-.58-.4-.86-1-1a1,1,0,0,0-.85,1,.95.95,0,0,0,1.89.06Zm-1.76-2.38c0,.48.36.73.9.88a.93.93,0,0,0,.72-.86.73.73,0,0,0-.8-.77A.75.75,0,0,0,106.56,165.73Z"/><path class="cls-1" d="M111.32,166.76c0-.36,0-.66,0-.95h.56l0,.57h0a1.22,1.22,0,0,1,1.11-.65,1,1,0,0,1,1,.7h0a1.34,1.34,0,0,1,.39-.45,1.16,1.16,0,0,1,.78-.25c.47,0,1.16.3,1.16,1.53v2.08h-.63v-2c0-.68-.24-1.09-.76-1.09a.83.83,0,0,0-.76.59,1,1,0,0,0,0,.32v2.18h-.63v-2.12c0-.56-.25-1-.74-1a.87.87,0,0,0-.79.64.86.86,0,0,0,0,.32v2.13h-.63Z"/><path class="cls-1" d="M118.15,164.79v1h.92v.49h-.92v1.9c0,.44.12.69.48.69a1.42,1.42,0,0,0,.37,0l0,.48a1.57,1.57,0,0,1-.57.09.86.86,0,0,1-.69-.27,1.32,1.32,0,0,1-.25-.92V166.3H117v-.49h.55V165Z"/><path class="cls-1" d="M119.7,168.68a1.64,1.64,0,0,0,.85.26c.47,0,.68-.24.68-.53s-.18-.47-.65-.65c-.64-.22-.94-.57-.94-1a1.09,1.09,0,0,1,1.22-1,1.74,1.74,0,0,1,.87.22l-.16.46a1.44,1.44,0,0,0-.72-.2c-.38,0-.59.22-.59.48s.21.42.67.6.92.54.92,1.06-.48,1.06-1.32,1.06a2,2,0,0,1-1-.24Z"/><path class="cls-1" d="M105.38,48.75h1v6.82h3.15v.83h-4.11Z"/><path class="cls-1" d="M116.42,52.5c0,2.63-1.54,4-3.42,4s-3.32-1.56-3.32-3.88,1.46-4,3.43-4S116.42,50.23,116.42,52.5Zm-5.72.12c0,1.63.86,3.1,2.35,3.1s2.37-1.44,2.37-3.18c0-1.52-.77-3.11-2.35-3.11S110.7,50.94,110.7,52.62Z"/><path class="cls-1" d="M118.79,49.59h-2.25v-.84H122v.84h-2.25V56.4h-1Z"/><path class="cls-1" d="M126.64,52.81h-2.86v2.76H127v.83h-4.15V48.75h4v.83h-3V52h2.86Z"/><path class="cls-1" d="M101.6,63.56h0l-1.24.69-.18-.76,1.55-.86h.82V70h-.93Z"/><path class="cls-1" d="M108.1,70V68h-3.31v-.66L108,62.63h1v4.58h1V68h-1v2Zm0-2.79V64.75c0-.38,0-.77,0-1.15h0c-.22.43-.4.75-.59,1.09l-1.74,2.5v0Z"/><path class="cls-1" d="M115.46,66.24c0,2.5-.9,3.89-2.47,3.89-1.39,0-2.33-1.35-2.35-3.79s1-3.83,2.47-3.83S115.46,63.89,115.46,66.24Zm-3.86.11c0,1.92.57,3,1.44,3s1.46-1.19,1.46-3.08-.45-3-1.45-3C112.21,63.28,111.6,64.35,111.6,66.35Z"/><path class="cls-1" d="M119,66c0-.57,0-1,0-1.48h.84l0,.88h0a1.81,1.81,0,0,1,1.66-1,1.57,1.57,0,0,1,1.5,1.1h0a2.11,2.11,0,0,1,.59-.71,1.77,1.77,0,0,1,1.17-.39c.7,0,1.74.48,1.74,2.38V70h-.94V66.9c0-1.06-.37-1.69-1.15-1.69a1.27,1.27,0,0,0-1.14.9,1.89,1.89,0,0,0-.07.5V70h-.94V66.72c0-.88-.37-1.51-1.11-1.51a1.49,1.49,0,0,0-1.27,1.48V70H119Z"/><path class="cls-1" d="M127.79,70v-.61l.75-.76c1.82-1.79,2.64-2.74,2.65-3.85a1.29,1.29,0,0,0-1.41-1.44,2.41,2.41,0,0,0-1.51.62l-.3-.7a3,3,0,0,1,2-.75,2,2,0,0,1,2.18,2.14c0,1.36-1,2.46-2.46,4l-.56.54v0h3.19V70Z"/><line class="cls-2" x1="82.97" y1="108.04" x2="82.97" y2="168.13"/><line class="cls-2" x1="82.97" y1="24.66" x2="82.97" y2="81.44"/><line class="cls-2" x1="80.7" y1="24.6" x2="85.38" y2="24.6"/><line class="cls-2" x1="80.62" y1="168.13" x2="85.31" y2="168.13"/><line class="cls-2" x1="99.88" y1="168.13" x2="82.97" y2="168.13"/><line class="cls-2" x1="144.68" y1="168.13" x2="127.39" y2="168.13"/><line class="cls-2" x1="144.68" y1="165.78" x2="144.68" y2="170.47"/><line class="cls-2" x1="82.97" y1="165.78" x2="82.97" y2="170.47"/><path class="cls-1" d="M110.67,125.65v-22.9h5.77a17.88,17.88,0,0,1,3.65.27,5.12,5.12,0,0,1,2,.87,5.21,5.21,0,0,1,1.65,2,6.63,6.63,0,0,1,.59,2.8,5.23,5.23,0,0,1-.85,3.06,4.37,4.37,0,0,1-2.45,1.71,4.75,4.75,0,0,1,3.15,1.82,6.16,6.16,0,0,1,1.15,3.81,7.17,7.17,0,0,1-.49,2.65,5.93,5.93,0,0,1-1.37,2.12,5.18,5.18,0,0,1-2.33,1.35,19.5,19.5,0,0,1-4.68.39Zm3.64-13.23h1.42a7.24,7.24,0,0,0,3.77-.73,2.73,2.73,0,0,0,1.1-2.45,3.06,3.06,0,0,0-1-2.63,6.83,6.83,0,0,0-3.85-.76h-1.42Zm0,10.12h1.28a19.16,19.16,0,0,0,2.93-.16,3.57,3.57,0,0,0,1.53-.55,2.93,2.93,0,0,0,1.06-1.22,3.78,3.78,0,0,0,.38-1.69A3.84,3.84,0,0,0,121,117a3.18,3.18,0,0,0-1.3-1.27,4.41,4.41,0,0,0-1.21-.39,9.82,9.82,0,0,0-1.81-.13h-2.41Z"/><rect class="cls-3" x="77.89" y="21.81" width="69.2" height="151.37"/><path class="cls-1" d="M163.06,91.88h-.39l-.49-.5c-1.15-1.21-1.76-1.76-2.48-1.77a.85.85,0,0,0-.93.94,1.62,1.62,0,0,0,.4,1l-.45.21a2.14,2.14,0,0,1-.48-1.35A1.33,1.33,0,0,1,159.62,89c.88,0,1.58.64,2.55,1.64l.34.38h0V88.86h.53Z"/><path class="cls-1" d="M160.64,85c1.61,0,2.5.6,2.5,1.65s-.87,1.55-2.43,1.57-2.47-.69-2.47-1.65S159.13,85,160.64,85Zm.07,2.57c1.24,0,1.94-.38,1.94-1s-.77-1-2-1-1.93.3-1.93,1S159.42,87.56,160.71,87.56Z"/><path class="cls-1" d="M160.49,82.65a9.44,9.44,0,0,0-1,0v-.57l.57,0v0a1.2,1.2,0,0,1-.65-1.11,1,1,0,0,1,.71-1v0a1.5,1.5,0,0,1-.46-.39,1.21,1.21,0,0,1-.25-.78c0-.47.31-1.16,1.53-1.16h2.08v.62h-2c-.67,0-1.08.25-1.08.77a.83.83,0,0,0,.58.76,1,1,0,0,0,.32,0h2.18v.63H161c-.56,0-1,.24-1,.73a.87.87,0,0,0,.64.8.78.78,0,0,0,.31,0h2.13v.63Z"/><path class="cls-1" d="M158.52,75.82h1V74.9H160v.92h1.9c.44,0,.69-.12.69-.48a1.52,1.52,0,0,0,0-.37l.48,0a1.61,1.61,0,0,1,.08.57.9.9,0,0,1-.26.69,1.35,1.35,0,0,1-.92.25H160V77h-.49v-.54h-.84Z"/><path class="cls-1" d="M162.41,74.27a1.74,1.74,0,0,0,.25-.85c0-.47-.23-.69-.52-.69s-.48.19-.65.66c-.23.63-.58.93-1,.93a1.09,1.09,0,0,1-1-1.21,1.71,1.71,0,0,1,.22-.87l.47.16a1.34,1.34,0,0,0-.21.72c0,.38.22.59.49.59s.42-.21.59-.67c.24-.61.54-.93,1.07-.93s1,.49,1,1.32a2,2,0,0,1-.24,1Z"/><path class="cls-1" d="M183.16,168.13a1.33,1.33,0,0,1,.94-1.26v0a1.17,1.17,0,0,1-.75-1.06,1.33,1.33,0,0,1,1.47-1.26,1.22,1.22,0,0,1,1.37,1.16,1.19,1.19,0,0,1-.78,1.11v0a1.33,1.33,0,0,1,1,1.23,1.46,1.46,0,0,1-1.61,1.38C183.75,169.42,183.16,168.83,183.16,168.13Zm2.55,0c0-.58-.4-.86-1-1a1,1,0,0,0-.86,1,.88.88,0,0,0,.95.9A.86.86,0,0,0,185.71,168.11Zm-1.77-2.38c0,.48.36.73.91.88a.93.93,0,0,0,.72-.86.74.74,0,0,0-.8-.77A.76.76,0,0,0,183.94,165.73Z"/><path class="cls-1" d="M188.71,166.76c0-.36,0-.66,0-.95h.56l0,.57h0a1.22,1.22,0,0,1,1.11-.65,1,1,0,0,1,1,.7h0a1.36,1.36,0,0,1,.4-.45,1.14,1.14,0,0,1,.78-.25c.46,0,1.16.3,1.16,1.53v2.08h-.63v-2c0-.68-.25-1.09-.77-1.09a.82.82,0,0,0-.75.59,1,1,0,0,0-.06.32v2.18h-.62v-2.12c0-.56-.25-1-.74-1a.87.87,0,0,0-.79.64.86.86,0,0,0,0,.32v2.13h-.63Z"/><path class="cls-1" d="M195.54,164.79v1h.91v.49h-.91v1.9c0,.44.12.69.48.69a1.49,1.49,0,0,0,.37,0l0,.48a1.61,1.61,0,0,1-.57.09.86.86,0,0,1-.69-.27,1.27,1.27,0,0,1-.25-.92V166.3h-.55v-.49h.55V165Z"/><path class="cls-1" d="M197.09,168.68a1.61,1.61,0,0,0,.85.26c.46,0,.68-.24.68-.53s-.18-.47-.66-.65c-.63-.22-.93-.57-.93-1a1.09,1.09,0,0,1,1.22-1,1.74,1.74,0,0,1,.87.22l-.16.46a1.49,1.49,0,0,0-.73-.2c-.37,0-.59.22-.59.48s.22.42.68.6c.61.23.92.54.92,1.06s-.48,1.06-1.32,1.06a2,2,0,0,1-1-.24Z"/><path class="cls-1" d="M182.77,48.75h.95v6.82h3.15v.83h-4.1Z"/><path class="cls-1" d="M193.81,52.5c0,2.63-1.54,4-3.42,4s-3.32-1.56-3.32-3.88,1.46-4,3.43-4S193.81,50.23,193.81,52.5Zm-5.72.12c0,1.63.85,3.1,2.35,3.1s2.36-1.44,2.36-3.18c0-1.52-.76-3.11-2.35-3.11S188.09,50.94,188.09,52.62Z"/><path class="cls-1" d="M196.17,49.59h-2.24v-.84h5.46v.84h-2.25V56.4h-1Z"/><path class="cls-1" d="M204,52.81h-2.87v2.76h3.2v.83h-4.15V48.75h4v.83h-3V52H204Z"/><path class="cls-1" d="M179,63.56h0l-1.23.69-.19-.76,1.55-.86h.83V70H179Z"/><path class="cls-1" d="M186.57,63.34a3.89,3.89,0,0,0-.73,0A3,3,0,0,0,183.37,66h0a2.1,2.1,0,0,1,1.71-.85,2.16,2.16,0,0,1,2.15,2.38,2.44,2.44,0,0,1-2.37,2.6c-1.52,0-2.51-1.23-2.51-3.14a4.71,4.71,0,0,1,1.2-3.32,3.75,3.75,0,0,1,2.28-1.09,3.94,3.94,0,0,1,.7-.06Zm-.28,4.25c0-1.06-.58-1.69-1.46-1.69a1.57,1.57,0,0,0-1.38.91.82.82,0,0,0-.11.44c0,1.21.56,2.11,1.56,2.11C185.74,69.36,186.29,68.64,186.29,67.59Z"/><path class="cls-1" d="M192.85,66.24c0,2.5-.9,3.89-2.48,3.89-1.38,0-2.33-1.35-2.35-3.79s1-3.83,2.48-3.83S192.85,63.89,192.85,66.24Zm-3.86.11c0,1.92.56,3,1.44,3s1.45-1.19,1.45-3.08-.44-3-1.44-3C189.6,63.28,189,64.35,189,66.35Z"/><path class="cls-1" d="M196.36,66c0-.57,0-1,0-1.48h.84l0,.88h0a1.83,1.83,0,0,1,1.67-1,1.57,1.57,0,0,1,1.5,1.1h0a2.11,2.11,0,0,1,.59-.71,1.77,1.77,0,0,1,1.17-.39c.7,0,1.74.48,1.74,2.38V70H203V66.9c0-1.06-.37-1.69-1.15-1.69a1.26,1.26,0,0,0-1.14.9,1.87,1.87,0,0,0-.08.5V70h-.94V66.72c0-.88-.37-1.51-1.1-1.51a1.49,1.49,0,0,0-1.27,1.48V70h-.94Z"/><path class="cls-1" d="M205.18,70v-.61l.75-.76c1.82-1.79,2.64-2.74,2.65-3.85a1.29,1.29,0,0,0-1.41-1.44,2.39,2.39,0,0,0-1.51.62l-.31-.7a3.06,3.06,0,0,1,2-.75,2,2,0,0,1,2.17,2.14c0,1.36-.95,2.46-2.45,4l-.57.54v0h3.2V70Z"/><line class="cls-2" x1="160.35" y1="94.88" x2="160.35" y2="168.13"/><line class="cls-2" x1="160.35" y1="3.17" x2="160.35" y2="67.51"/><line class="cls-2" x1="158.08" y1="3.12" x2="162.77" y2="3.12"/><line class="cls-2" x1="158.01" y1="168.13" x2="162.7" y2="168.13"/><line class="cls-2" x1="177.27" y1="168.13" x2="160.35" y2="168.13"/><line class="cls-2" x1="222.06" y1="168.13" x2="204.78" y2="168.13"/><line class="cls-2" x1="222.06" y1="165.78" x2="222.06" y2="170.47"/><line class="cls-2" x1="160.35" y1="165.78" x2="160.35" y2="170.47"/><path class="cls-1" d="M201.89,108.32a11.31,11.31,0,0,0-3.34-2,10.2,10.2,0,0,0-3.7-.67,8.13,8.13,0,0,0-6.1,2.41,9.38,9.38,0,0,0-.07,12.36,7.66,7.66,0,0,0,5.78,2.4,10.57,10.57,0,0,0,3.88-.72,12.21,12.21,0,0,0,3.52-2.17v4.21a11.08,11.08,0,0,1-3.27,1.61,13.33,13.33,0,0,1-3.83.53,13.49,13.49,0,0,1-4.86-.86,11.45,11.45,0,0,1-6.49-6.41,12.91,12.91,0,0,1,0-9.47,11.77,11.77,0,0,1,6.52-6.45,12.88,12.88,0,0,1,4.77-.87,12.6,12.6,0,0,1,3.85.59,13.54,13.54,0,0,1,3.55,1.77Z"/><rect class="cls-3" x="155.6" y="0.18" width="69.2" height="173"/></g></g></svg>