<svg xmlns="http://www.w3.org/2000/svg" viewBox="0 0 251.09 290.15"><defs><style>.cls-1{fill:#211915;}.cls-2,.cls-3,.cls-4{fill:none;stroke:#211915;stroke-miterlimit:10;}.cls-2{stroke-width:0.21px;}.cls-3{stroke-width:0.37px;}.cls-4{stroke-width:0.38px;}</style></defs><title>lotes-def-light</title><g id="Capa_2" data-name="Capa 2"><g id="Capa_1-2" data-name="Capa 1"><path class="cls-1" d="M7,190H6.59l-.49-.5c-1.15-1.21-1.77-1.76-2.48-1.76a.85.85,0,0,0-.93.94,1.61,1.61,0,0,0,.4,1l-.45.21a2.08,2.08,0,0,1-.48-1.34A1.34,1.34,0,0,1,3.54,187c.87,0,1.58.64,2.54,1.64l.35.38h0v-2.13H7Z"/><path class="cls-1" d="M2.78,183.38v1.81l1.22.18A1.94,1.94,0,0,1,4,185a2,2,0,0,1,.25-1,1.35,1.35,0,0,1,1.22-.68,1.64,1.64,0,0,1,1.62,1.76,2.25,2.25,0,0,1-.29,1.18l-.49-.16a2.05,2.05,0,0,0,.26-1,1,1,0,0,0-1-1.12c-.62,0-1.06.41-1.06,1.36a3.82,3.82,0,0,0,.06.66l-2.28-.31v-2.27Z"/><path class="cls-1" d="M4.41,180.72c-.37,0-.67,0-1,0v-.56l.57,0v0A1.22,1.22,0,0,1,3.37,179a1,1,0,0,1,.71-1v0a1.38,1.38,0,0,1-.46-.39,1.21,1.21,0,0,1-.25-.78c0-.47.31-1.16,1.53-1.16H7v.63H5c-.68,0-1.08.24-1.08.76a.83.83,0,0,0,.58.76,1,1,0,0,0,.32,0H7v.63H4.87c-.57,0-1,.25-1,.74a.87.87,0,0,0,.64.79.78.78,0,0,0,.31.05H7v.63Z"/><path class="cls-1" d="M2.44,173.89h1V173h.49v.92h1.9c.44,0,.69-.12.69-.48a1.52,1.52,0,0,0,0-.37L7,173a1.61,1.61,0,0,1,.08.57.86.86,0,0,1-.27.69,1.3,1.3,0,0,1-.91.25H3.94v.55H3.45v-.55H2.61Z"/><path class="cls-1" d="M6.33,172.34a1.74,1.74,0,0,0,.25-.85c0-.47-.23-.68-.53-.68s-.47.18-.64.65c-.23.64-.58.94-1,.94a1.09,1.09,0,0,1-1-1.22,1.74,1.74,0,0,1,.22-.87l.47.16a1.34,1.34,0,0,0-.21.72c0,.38.22.59.48.59s.43-.21.6-.67c.24-.61.54-.92,1.07-.92s1,.48,1,1.32a2,2,0,0,1-.24,1Z"/><path class="cls-1" d="M27.07,284.91a1.35,1.35,0,0,1,.94-1.26v0a1.15,1.15,0,0,1-.75-1.06,1.32,1.32,0,0,1,1.46-1.26,1.22,1.22,0,0,1,1.38,1.16,1.2,1.2,0,0,1-.78,1.11v0a1.33,1.33,0,0,1,1,1.23,1.47,1.47,0,0,1-1.62,1.38C27.67,286.2,27.07,285.61,27.07,284.91Zm2.56,0c0-.58-.4-.86-1.05-1a1,1,0,0,0-.85,1,.87.87,0,0,0,.95.9A.86.86,0,0,0,29.63,284.89Zm-1.77-2.38c0,.48.36.73.91.88a.94.94,0,0,0,.72-.86.74.74,0,0,0-.8-.77A.75.75,0,0,0,27.86,282.51Z"/><path class="cls-1" d="M32.62,283.54c0-.36,0-.66,0-1h.56l0,.57h0a1.21,1.21,0,0,1,1.11-.65,1,1,0,0,1,1,.71h0a1.5,1.5,0,0,1,.39-.46,1.23,1.23,0,0,1,.78-.25c.47,0,1.17.3,1.17,1.53v2.08H37v-2c0-.68-.25-1.09-.77-1.09a.84.84,0,0,0-.76.59,1,1,0,0,0,0,.32v2.18h-.63V284c0-.56-.24-1-.73-1a.89.89,0,0,0-.8.64,1.13,1.13,0,0,0,0,.32v2.13h-.63Z"/><path class="cls-1" d="M39.45,281.57v1h.92v.49h-.92V285c0,.44.13.69.48.69a1.51,1.51,0,0,0,.38-.05l0,.48a1.55,1.55,0,0,1-.56.09.9.9,0,0,1-.7-.27,1.32,1.32,0,0,1-.24-.92v-1.92h-.55v-.49h.55v-.85Z"/><path class="cls-1" d="M41,285.46a1.61,1.61,0,0,0,.84.26c.47,0,.69-.24.69-.53s-.18-.47-.66-.65c-.63-.22-.93-.57-.93-1a1.09,1.09,0,0,1,1.22-1,1.7,1.7,0,0,1,.86.22l-.16.46a1.41,1.41,0,0,0-.72-.2c-.38,0-.59.22-.59.48s.21.42.67.6c.61.23.93.54.93,1.06s-.48,1.06-1.32,1.06a1.93,1.93,0,0,1-1-.24Z"/><path class="cls-1" d="M26.69,165.54h.95v6.81h3.15v.83h-4.1Z"/><path class="cls-1" d="M37.73,169.28c0,2.63-1.54,4-3.43,4S31,171.74,31,169.42s1.45-4,3.42-4S37.73,167,37.73,169.28ZM32,169.4c0,1.63.85,3.1,2.35,3.1s2.36-1.44,2.36-3.18c0-1.52-.76-3.1-2.35-3.1S32,167.72,32,169.4Z"/><path class="cls-1" d="M40.09,166.37H37.85v-.83h5.46v.83H41.05v6.81h-1Z"/><path class="cls-1" d="M48,169.59H45.08v2.76h3.2v.83H44.13v-7.64h4v.82h-3v2.42H48Z"/><path class="cls-1" d="M20.81,186.78v-.61l.76-.76c1.82-1.79,2.64-2.74,2.65-3.85a1.29,1.29,0,0,0-1.41-1.44,2.36,2.36,0,0,0-1.51.62L21,180a3,3,0,0,1,2-.75,2,2,0,0,1,2.18,2.14c0,1.36-.95,2.46-2.45,4l-.57.54v0h3.19v.82Z"/><path class="cls-1" d="M31.15,183c0,2.51-.89,3.89-2.47,3.89-1.39,0-2.33-1.35-2.35-3.79s1-3.83,2.47-3.83S31.15,180.67,31.15,183Zm-3.86.11c0,1.92.57,3,1.45,3s1.45-1.19,1.45-3.07-.45-3-1.44-3S27.29,181.13,27.29,183.13Z"/><path class="cls-1" d="M36.77,183c0,2.51-.9,3.89-2.48,3.89-1.39,0-2.33-1.35-2.35-3.79s1-3.83,2.47-3.83S36.77,180.67,36.77,183Zm-3.87.11c0,1.92.57,3,1.45,3s1.45-1.19,1.45-3.07-.45-3-1.44-3C33.52,180.06,32.9,181.13,32.9,183.13Z"/><path class="cls-1" d="M40.28,182.78c0-.56,0-1-.05-1.48h.85l0,.88h0a1.83,1.83,0,0,1,1.67-1,1.57,1.57,0,0,1,1.49,1.1h0a2.22,2.22,0,0,1,.59-.71,1.74,1.74,0,0,1,1.17-.39c.7,0,1.74.48,1.74,2.38v3.23H46.9v-3.1c0-1.06-.38-1.69-1.15-1.69a1.25,1.25,0,0,0-1.14.91,1.73,1.73,0,0,0-.08.49v3.39h-.94V183.5c0-.88-.37-1.51-1.1-1.51a1.34,1.34,0,0,0-1.2,1,1.47,1.47,0,0,0-.07.48v3.31h-.94Z"/><path class="cls-1" d="M49.09,186.78v-.61l.76-.76c1.82-1.79,2.64-2.74,2.65-3.85a1.29,1.29,0,0,0-1.41-1.44,2.36,2.36,0,0,0-1.51.62l-.31-.7a3,3,0,0,1,2-.75,2,2,0,0,1,2.18,2.14c0,1.36-1,2.46-2.45,4l-.57.54v0h3.2v.82Z"/><line class="cls-2" x1="4.27" y1="193.39" x2="4.27" y2="284.91"/><line class="cls-2" x1="4.27" y1="78.08" x2="4.27" y2="166.02"/><line class="cls-2" x1="2" y1="78.03" x2="6.69" y2="78.03"/><line class="cls-2" x1="1.93" y1="284.91" x2="6.62" y2="284.91"/><line class="cls-2" x1="21.19" y1="284.91" x2="4.27" y2="284.91"/><line class="cls-2" x1="65.98" y1="284.91" x2="48.69" y2="284.91"/><line class="cls-2" x1="65.98" y1="282.56" x2="65.98" y2="287.25"/><line class="cls-2" x1="4.27" y1="282.56" x2="4.27" y2="287.25"/><path class="cls-1" d="M26.71,242.43v-22.9h5a33.41,33.41,0,0,1,6.89.49,9.29,9.29,0,0,1,3.5,1.65,9.54,9.54,0,0,1,3,3.9,13.45,13.45,0,0,1,1,5.43,13.3,13.3,0,0,1-1,5.4,9.64,9.64,0,0,1-3,3.89,9.38,9.38,0,0,1-3.42,1.65,26,26,0,0,1-6,.49h-6Zm3.73-3.36h3.12a16.09,16.09,0,0,0,3.88-.35,5.56,5.56,0,0,0,2.24-1.15,6.82,6.82,0,0,0,2-2.76,11.67,11.67,0,0,0,0-7.68,6.92,6.92,0,0,0-2-2.77,5.82,5.82,0,0,0-2.32-1.15,18.69,18.69,0,0,0-4.23-.35H30.44Z"/><rect class="cls-3" x="0.18" y="73.71" width="69.2" height="216.25"/><path class="cls-1" d="M88.53,169.79h-.39l-.49-.51c-1.15-1.21-1.76-1.75-2.48-1.76a.85.85,0,0,0-.93.94,1.59,1.59,0,0,0,.41,1l-.46.2a2.13,2.13,0,0,1-.48-1.34,1.33,1.33,0,0,1,1.38-1.45c.88,0,1.58.63,2.55,1.63l.35.38h0v-2.13h.53Z"/><path class="cls-1" d="M87.33,166.1a1.36,1.36,0,0,1-1.27-.94h0a1.19,1.19,0,0,1-1.07.75,1.33,1.33,0,0,1-1.26-1.47,1.22,1.22,0,0,1,1.17-1.37,1.2,1.2,0,0,1,1.11.78h0a1.32,1.32,0,0,1,1.22-1,1.46,1.46,0,0,1,1.38,1.61C88.61,165.5,88,166.1,87.33,166.1Zm-2.4-.79c.47,0,.73-.35.87-.9a.92.92,0,0,0-.86-.72.74.74,0,0,0-.77.8A.75.75,0,0,0,84.93,165.31Zm2.37-1.76c-.58,0-.85.4-1,1a1,1,0,0,0,1,.86.89.89,0,0,0,.91-.95A.86.86,0,0,0,87.3,163.55Z"/><path class="cls-1" d="M86,160.55c-.37,0-.67,0-1,0V160l.57,0v0a1.24,1.24,0,0,1-.65-1.11,1,1,0,0,1,.71-1h0a1.4,1.4,0,0,1-.46-.4,1.2,1.2,0,0,1-.25-.78c0-.47.31-1.16,1.53-1.16h2.08v.63h-2c-.67,0-1.08.25-1.08.76a.83.83,0,0,0,.58.76,1.07,1.07,0,0,0,.32.05h2.18v.63H86.42c-.56,0-1,.25-1,.74a.87.87,0,0,0,.64.79.78.78,0,0,0,.31,0h2.13v.63Z"/><path class="cls-1" d="M84,153.72h1v-.92h.49v.92H87.4c.43,0,.68-.12.68-.48a1.52,1.52,0,0,0,0-.37l.48,0a1.61,1.61,0,0,1,.09.57.89.89,0,0,1-.27.69,1.33,1.33,0,0,1-.92.25H85.49v.55H85v-.55h-.84Z"/><path class="cls-1" d="M87.88,152.17a1.74,1.74,0,0,0,.25-.85c0-.46-.23-.68-.52-.68s-.48.18-.65.65c-.23.64-.58.94-1,.94a1.09,1.09,0,0,1-1-1.22,1.74,1.74,0,0,1,.22-.87l.47.16a1.37,1.37,0,0,0-.21.72c0,.38.22.6.49.6s.42-.22.59-.68S87,150,87.55,150s1.06.48,1.06,1.32a2.1,2.1,0,0,1-.24,1Z"/><path class="cls-1" d="M113.29,285.67a2.53,2.53,0,0,0,.52,0,1.75,1.75,0,0,0,1-.46,2,2,0,0,0,.63-1.26h0a1.39,1.39,0,0,1-1.12.51,1.37,1.37,0,0,1-1.4-1.45,1.62,1.62,0,0,1,1.62-1.68c1,0,1.57.78,1.57,2a3,3,0,0,1-.82,2.22,2.27,2.27,0,0,1-1.38.63,2.57,2.57,0,0,1-.59,0Zm.24-2.73a.9.9,0,0,0,.91,1,1.05,1.05,0,0,0,.93-.49.39.39,0,0,0,.06-.23c0-.81-.3-1.43-1-1.43S113.53,282.27,113.53,282.94Z"/><path class="cls-1" d="M118.42,283.54c0-.36,0-.66,0-1H119l0,.57h0a1.21,1.21,0,0,1,1.11-.65,1,1,0,0,1,1,.71h0a1.5,1.5,0,0,1,.39-.46,1.23,1.23,0,0,1,.78-.25c.47,0,1.17.3,1.17,1.53v2.08h-.63v-2c0-.68-.25-1.09-.77-1.09a.84.84,0,0,0-.76.59,1,1,0,0,0,0,.32v2.18h-.63V284c0-.56-.24-1-.73-1a.89.89,0,0,0-.8.64,1.13,1.13,0,0,0,0,.32v2.13h-.62Z"/><path class="cls-1" d="M125.24,281.57v1h.92v.49h-.92V285c0,.44.13.69.48.69a1.51,1.51,0,0,0,.38-.05l0,.48a1.55,1.55,0,0,1-.56.09.9.9,0,0,1-.7-.27,1.32,1.32,0,0,1-.24-.92v-1.92h-.55v-.49h.55v-.85Z"/><path class="cls-1" d="M126.8,285.46a1.61,1.61,0,0,0,.84.26c.47,0,.69-.24.69-.53s-.18-.47-.66-.65-.93-.57-.93-1a1.09,1.09,0,0,1,1.22-1,1.7,1.7,0,0,1,.86.22l-.16.46a1.41,1.41,0,0,0-.72-.2c-.38,0-.59.22-.59.48s.21.42.67.6.93.54.93,1.06-.48,1.06-1.32,1.06a1.93,1.93,0,0,1-1-.24Z"/><path class="cls-1" d="M108.24,165.54h1v6.81h3.15v.83h-4.1Z"/><path class="cls-1" d="M119.28,169.28c0,2.63-1.54,4-3.42,4s-3.32-1.56-3.32-3.88,1.46-4,3.43-4S119.28,167,119.28,169.28Zm-5.72.12c0,1.63.85,3.1,2.35,3.1s2.36-1.44,2.36-3.18c0-1.52-.76-3.1-2.35-3.1S113.56,167.72,113.56,169.4Z"/><path class="cls-1" d="M121.64,166.37H119.4v-.83h5.46v.83h-2.25v6.81h-1Z"/><path class="cls-1" d="M129.5,169.59h-2.87v2.76h3.2v.83h-4.15v-7.64h4v.82h-3v2.42h2.87Z"/><path class="cls-1" d="M102.37,186.78v-.61l.75-.76c1.82-1.79,2.64-2.74,2.65-3.85a1.29,1.29,0,0,0-1.41-1.44,2.39,2.39,0,0,0-1.51.62l-.31-.7a3,3,0,0,1,2-.75,2,2,0,0,1,2.18,2.14c0,1.36-1,2.46-2.45,4l-.57.54v0h3.2v.82Z"/><path class="cls-1" d="M112.22,180.25h-2.71l-.27,1.9a2.82,2.82,0,0,1,.58-.05,3,3,0,0,1,1.53.4,2.11,2.11,0,0,1,1,1.89,2.51,2.51,0,0,1-2.65,2.52,3.44,3.44,0,0,1-1.77-.45l.24-.76a3.09,3.09,0,0,0,1.52.4,1.58,1.58,0,0,0,1.68-1.59c0-1-.62-1.64-2-1.64a7.74,7.74,0,0,0-1,.08l.46-3.54h3.4Z"/><path class="cls-1" d="M113.59,186.78v-.61l.76-.76c1.81-1.79,2.63-2.74,2.64-3.85a1.29,1.29,0,0,0-1.41-1.44,2.41,2.41,0,0,0-1.51.62l-.3-.7a3,3,0,0,1,2-.75,2,2,0,0,1,2.18,2.14c0,1.36-1,2.46-2.46,4l-.56.54v0h3.19v.82Z"/><path class="cls-1" d="M121.83,182.78c0-.56,0-1,0-1.48h.84l0,.88h0a1.83,1.83,0,0,1,1.67-1,1.58,1.58,0,0,1,1.5,1.1h0a2.22,2.22,0,0,1,.59-.71,1.77,1.77,0,0,1,1.17-.39c.7,0,1.74.48,1.74,2.38v3.23h-.94v-3.1c0-1.06-.37-1.69-1.15-1.69a1.26,1.26,0,0,0-1.14.91,1.73,1.73,0,0,0-.08.49v3.39h-.94V183.5c0-.88-.37-1.51-1.1-1.51a1.32,1.32,0,0,0-1.19,1,1.24,1.24,0,0,0-.08.48v3.31h-.94Z"/><path class="cls-1" d="M130.65,186.78v-.61l.75-.76c1.82-1.79,2.64-2.74,2.65-3.85a1.29,1.29,0,0,0-1.41-1.44,2.39,2.39,0,0,0-1.51.62l-.31-.7a3,3,0,0,1,2-.75,2,2,0,0,1,2.18,2.14c0,1.36-.95,2.46-2.45,4l-.57.54v0h3.2v.82Z"/><line class="cls-2" x1="85.82" y1="173.23" x2="85.82" y2="284.91"/><line class="cls-2" x1="85.82" y1="51.77" x2="85.82" y2="145.85"/><line class="cls-2" x1="83.55" y1="51.72" x2="88.24" y2="51.72"/><line class="cls-2" x1="83.48" y1="284.91" x2="88.17" y2="284.91"/><line class="cls-2" x1="110.6" y1="284.91" x2="85.82" y2="284.91"/><line class="cls-2" x1="155.4" y1="284.91" x2="130.25" y2="284.91"/><line class="cls-2" x1="155.4" y1="282.56" x2="155.4" y2="287.25"/><line class="cls-2" x1="85.82" y1="282.56" x2="85.82" y2="287.25"/><path class="cls-1" d="M114.93,242.43v-22.9h12.78v3.16h-9.06v5.74h9.06v3.27h-9.06v7.4h9.06v3.33Z"/><rect class="cls-3" x="79.74" y="47.76" width="77.85" height="242.2"/><path class="cls-1" d="M175.19,134.38a2.19,2.19,0,0,0,.3-1c0-.82-.53-1.08-.92-1.07-.67,0-.95.61-.95,1.23v.35h-.48v-.35c0-.47-.24-1.06-.81-1.06-.37,0-.71.24-.71.83a1.81,1.81,0,0,0,.31,1l-.46.17a2.2,2.2,0,0,1-.37-1.24c0-.94.56-1.36,1.13-1.36a1.18,1.18,0,0,1,1.12.88h0a1.24,1.24,0,0,1,1.22-1.06c.76,0,1.42.59,1.42,1.73a2.43,2.43,0,0,1-.32,1.23Z"/><path class="cls-1" d="M175.19,130.64a2.19,2.19,0,0,0,.3-1c0-.82-.53-1.08-.92-1.07-.67,0-.95.6-.95,1.22v.36h-.48v-.36c0-.46-.24-1.05-.81-1.05-.37,0-.71.24-.71.83a1.81,1.81,0,0,0,.31.95l-.46.16a2.15,2.15,0,0,1-.37-1.24c0-.93.56-1.35,1.13-1.35a1.18,1.18,0,0,1,1.12.87h0a1.24,1.24,0,0,1,1.22-1c.76,0,1.42.59,1.42,1.72a2.47,2.47,0,0,1-.32,1.24Z"/><path class="cls-1" d="M175.54,127a.44.44,0,1,1,0-.87.44.44,0,1,1,0,.87Z"/><path class="cls-1" d="M171.72,122.71v1.81l1.22.18a1.87,1.87,0,0,1,0-.38,1.94,1.94,0,0,1,.26-1,1.33,1.33,0,0,1,1.21-.68,1.64,1.64,0,0,1,1.62,1.76,2.32,2.32,0,0,1-.29,1.19l-.49-.17a2,2,0,0,0,.27-1,1.05,1.05,0,0,0-1-1.12c-.62,0-1.05.41-1.05,1.36a5.41,5.41,0,0,0,.05.66l-2.28-.31v-2.27Z"/><path class="cls-1" d="M173.5,118.65c1.61,0,2.5.6,2.5,1.65s-.87,1.55-2.43,1.57-2.47-.69-2.47-1.65S172,118.65,173.5,118.65Zm.07,2.57c1.24,0,1.94-.37,1.94-1s-.77-1-2-1-1.93.3-1.93,1S172.28,121.22,173.57,121.22Z"/><path class="cls-1" d="M173.35,116.31c-.37,0-.67,0-1,0v-.56l.57,0v0a1.21,1.21,0,0,1-.65-1.1,1,1,0,0,1,.71-1v0a1.5,1.5,0,0,1-.46-.39,1.21,1.21,0,0,1-.25-.78c0-.47.31-1.16,1.53-1.16h2.08v.63h-2c-.67,0-1.08.24-1.08.76a.83.83,0,0,0,.58.76,1,1,0,0,0,.32,0h2.18v.63h-2.11c-.56,0-1,.25-1,.73a.87.87,0,0,0,.64.8.78.78,0,0,0,.31.05h2.13v.63Z"/><path class="cls-1" d="M171.38,109.48h1v-.92h.49v.92h1.91c.43,0,.68-.12.68-.48a1.52,1.52,0,0,0,0-.37l.48,0a1.57,1.57,0,0,1,.09.57.89.89,0,0,1-.27.69,1.33,1.33,0,0,1-.92.25h-1.93v.54h-.49v-.54h-.84Z"/><path class="cls-1" d="M175.27,107.93a1.74,1.74,0,0,0,.25-.85c0-.47-.23-.69-.52-.69s-.48.19-.65.66c-.23.64-.58.93-1,.93a1.08,1.08,0,0,1-1-1.21,1.74,1.74,0,0,1,.22-.87l.47.16a1.34,1.34,0,0,0-.21.72c0,.38.22.59.49.59s.42-.21.59-.67c.24-.61.54-.93,1.07-.93s1.06.49,1.06,1.33a2,2,0,0,1-.25,1Z"/><path class="cls-1" d="M200.2,282h0l-.83.44-.12-.49,1-.55h.55v4.74h-.62Z"/><path class="cls-1" d="M205.7,283.7c0,1.61-.6,2.5-1.65,2.5s-1.55-.87-1.57-2.44.69-2.46,1.65-2.46S205.7,282.19,205.7,283.7Zm-2.58.07c0,1.23.38,1.93,1,1.93s1-.76,1-2-.3-1.94-1-1.94S203.12,282.48,203.12,283.77Z"/><path class="cls-1" d="M208,283.54a9.33,9.33,0,0,0,0-1h.56l0,.57h0a1.22,1.22,0,0,1,1.11-.65,1,1,0,0,1,1,.71h0a1.5,1.5,0,0,1,.39-.46,1.21,1.21,0,0,1,.78-.25c.47,0,1.16.3,1.16,1.53v2.08h-.62v-2c0-.68-.25-1.09-.77-1.09a.83.83,0,0,0-.76.59,1,1,0,0,0-.05.32v2.18h-.63V284c0-.56-.25-1-.73-1a.87.87,0,0,0-.8.64.86.86,0,0,0-.05.32v2.13H208Z"/><path class="cls-1" d="M214.87,281.57v1h.92v.49h-.92V285c0,.44.12.69.48.69a1.42,1.42,0,0,0,.37-.05l0,.48a1.57,1.57,0,0,1-.57.09.86.86,0,0,1-.69-.27,1.32,1.32,0,0,1-.25-.92v-1.92h-.54v-.49h.54v-.85Z"/><path class="cls-1" d="M216.42,285.46a1.64,1.64,0,0,0,.85.26c.47,0,.69-.24.69-.53s-.19-.47-.66-.65c-.64-.22-.93-.57-.93-1a1.08,1.08,0,0,1,1.21-1,1.74,1.74,0,0,1,.87.22l-.16.46a1.44,1.44,0,0,0-.72-.2c-.38,0-.59.22-.59.48s.21.42.67.6.93.54.93,1.06-.49,1.06-1.33,1.06a2,2,0,0,1-1-.24Z"/><path class="cls-1" d="M195.63,165.54h1v6.81h3.15v.83h-4.1Z"/><path class="cls-1" d="M206.67,169.28c0,2.63-1.54,4-3.42,4s-3.32-1.56-3.32-3.88,1.46-4,3.43-4S206.67,167,206.67,169.28Zm-5.72.12c0,1.63.85,3.1,2.35,3.1s2.37-1.44,2.37-3.18c0-1.52-.77-3.1-2.36-3.1S201,167.72,201,169.4Z"/><path class="cls-1" d="M209,166.37h-2.24v-.83h5.46v.83H210v6.81h-1Z"/><path class="cls-1" d="M216.89,169.59H214v2.76h3.2v.83h-4.15v-7.64h4v.82h-3v2.42h2.87Z"/><path class="cls-1" d="M190,185.64a3.11,3.11,0,0,0,1.57.46,1.41,1.41,0,0,0,1.61-1.42c0-1-.91-1.48-1.84-1.48h-.53v-.75h.53c.7,0,1.59-.37,1.59-1.24,0-.59-.36-1.11-1.25-1.11a2.6,2.6,0,0,0-1.42.48l-.25-.72a3.23,3.23,0,0,1,1.86-.57,1.79,1.79,0,0,1,2,1.76,1.81,1.81,0,0,1-1.31,1.73v0a1.91,1.91,0,0,1,1.59,1.9c0,1.18-.89,2.21-2.6,2.21a3.5,3.5,0,0,1-1.85-.5Z"/><path class="cls-1" d="M195.6,185.64a3.15,3.15,0,0,0,1.57.46,1.41,1.41,0,0,0,1.61-1.42c0-1-.91-1.48-1.84-1.48h-.53v-.75h.53c.7,0,1.59-.37,1.59-1.24,0-.59-.36-1.11-1.25-1.11a2.6,2.6,0,0,0-1.42.48l-.25-.72a3.23,3.23,0,0,1,1.86-.57,1.79,1.79,0,0,1,2,1.76,1.81,1.81,0,0,1-1.31,1.73v0a1.91,1.91,0,0,1,1.59,1.9,2.29,2.29,0,0,1-2.59,2.21,3.5,3.5,0,0,1-1.85-.5Z"/><path class="cls-1" d="M205.23,180.25h-2.72l-.27,1.9a2.9,2.9,0,0,1,.58-.05,2.94,2.94,0,0,1,1.53.4,2.11,2.11,0,0,1,1,1.89,2.51,2.51,0,0,1-2.65,2.52,3.44,3.44,0,0,1-1.77-.45l.24-.76a3.09,3.09,0,0,0,1.52.4,1.58,1.58,0,0,0,1.68-1.59c0-1-.62-1.64-2-1.64a7.91,7.91,0,0,0-1,.08l.46-3.54h3.41Z"/><path class="cls-1" d="M209.22,182.78c0-.56,0-1,0-1.48H210l0,.88h0a1.83,1.83,0,0,1,1.67-1,1.58,1.58,0,0,1,1.5,1.1h0a2.22,2.22,0,0,1,.59-.71,1.77,1.77,0,0,1,1.17-.39c.7,0,1.74.48,1.74,2.38v3.23h-.94v-3.1c0-1.06-.37-1.69-1.15-1.69a1.26,1.26,0,0,0-1.14.91,1.75,1.75,0,0,0-.07.49v3.39h-.95V183.5c0-.88-.37-1.51-1.1-1.51a1.32,1.32,0,0,0-1.19,1,1.24,1.24,0,0,0-.08.48v3.31h-.94Z"/><path class="cls-1" d="M218,186.78v-.61l.75-.76c1.82-1.79,2.64-2.74,2.65-3.85a1.29,1.29,0,0,0-1.41-1.44,2.39,2.39,0,0,0-1.51.62l-.31-.7a3.1,3.1,0,0,1,2-.75,2,2,0,0,1,2.17,2.14c0,1.36-1,2.46-2.45,4l-.57.54v0h3.2v.82Z"/><line class="cls-2" x1="173.21" y1="136.83" x2="173.21" y2="284.91"/><line class="cls-2" x1="173.21" y1="4.48" x2="173.21" y2="103.22"/><line class="cls-2" x1="170.94" y1="4.42" x2="175.63" y2="4.42"/><line class="cls-2" x1="170.87" y1="284.91" x2="175.56" y2="284.91"/><line class="cls-2" x1="197.48" y1="284.91" x2="173.21" y2="284.91"/><line class="cls-2" x1="247.47" y1="284.91" x2="220.36" y2="284.91"/><line class="cls-2" x1="247.47" y1="282.56" x2="247.47" y2="287.25"/><line class="cls-2" x1="173.21" y1="282.56" x2="173.21" y2="287.25"/><path class="cls-1" d="M202.55,242.43v-22.9h12.78v3.16h-9.05v5.71h9.05v3.27h-9.05v10.76Z"/><rect class="cls-4" x="168.1" y="0.19" width="82.8" height="289.77"/></g></g></svg>