<svg xmlns="http://www.w3.org/2000/svg" viewBox="0 0 507.48 632.45"><defs><style>.cls-1{font-size:20px;}.cls-1,.cls-10,.cls-16,.cls-4,.cls-9{fill:#0a4f5e;}.cls-1,.cls-9{font-family:FuturaPT-Book, Futura PT;}.cls-2{letter-spacing:-0.13em;}.cls-3{letter-spacing:-0.03em;}.cls-5{letter-spacing:-0.03em;}.cls-6{letter-spacing:-0.06em;}.cls-7{fill:none;stroke:#3393a0;stroke-miterlimit:10;}.cls-8{font-size:93.01px;fill:#3393a0;font-family:FuturaPT-Demi, Futura PT;letter-spacing:0.04em;}.cls-10,.cls-16,.cls-20,.cls-21,.cls-8{font-weight:300;}.cls-10,.cls-9{font-size:32.48px;}.cls-10,.cls-13,.cls-9{letter-spacing:0.04em;}.cls-10,.cls-16,.cls-20,.cls-21{font-family:FuturaPT-Light, Futura PT;}.cls-11{letter-spacing:0em;}.cls-12{letter-spacing:0.02em;}.cls-14{letter-spacing:0.02em;}.cls-15{letter-spacing:0.04em;}.cls-16{font-size:23.51px;letter-spacing:-0.03em;}.cls-17,.cls-18,.cls-25,.cls-26,.cls-27{font-family:FuturaPT-Medium, Futura PT;font-weight:500;}.cls-17{letter-spacing:-0.1em;}.cls-19,.cls-25{letter-spacing:-0.04em;}.cls-21{letter-spacing:-0.11em;}.cls-22{letter-spacing:-0.06em;}.cls-23{letter-spacing:-0.05em;}.cls-24{letter-spacing:-0.04em;}.cls-26{letter-spacing:-0.04em;}.cls-27{letter-spacing:-0.05em;}.cls-28{letter-spacing:-0.04em;}.cls-29{letter-spacing:-0.05em;}</style></defs><title>financiamiento</title><g id="Capa_2" data-name="Capa 2"><g id="Capa_1-2" data-name="Capa 1"><text class="cls-1" transform="translate(0.21 124.83)"><tspan class="cls-2">1</tspan><tspan x="8.86" y="0">5 AÑOS DE</tspan><tspan x="15.98" y="24">CRÉDI</tspan><tspan class="cls-3" x="66.14" y="24">T</tspan><tspan x="73.96" y="24">O</tspan></text><path class="cls-4" d="M70.32,26.78H17.69A1.67,1.67,0,0,0,16,28.45V67.22a1.67,1.67,0,0,0,1.67,1.67H54.05a20.49,20.49,0,0,1-.34-2.08H50.34V60.4H54c.08-.37.17-.74.27-1.1h-4V52.89h7c.27-.38.56-.74.86-1.1H50.34V45.38h9.23v5a18.63,18.63,0,0,1,1.63-1.44V45.38h6.87A20.27,20.27,0,0,1,72,44.67V28.45A1.66,1.66,0,0,0,70.32,26.78ZM27,66.81H17.76V60.4H27Zm0-7.51H17.76V52.89H27Zm0-7.51H17.76V45.38H27Zm0-7.51H17.76V37.87H27ZM37.84,66.81H28.62V60.4h9.22Zm0-7.51H28.62V52.89h9.22Zm0-7.51H28.62V45.38h9.22Zm0-7.51H28.62V37.87h9.22ZM48.7,66.81H39.48V60.4H48.7Zm0-7.51H39.48V52.89H48.7Zm0-7.51H39.48V45.38H48.7Zm0-7.51H39.48V37.87H48.7Zm10.87,0H50.34V37.87h9.23ZM31.35,35V29.47H69.21V35Zm39.08,9.27H61.2V37.87h9.23Z"/><rect class="cls-4" x="32.95" y="36.45" width="0.54" height="9.26" transform="translate(-19.47 44.94) rotate(-55.23)"/><rect class="cls-4" x="28.59" y="40.8" width="9.26" height="0.54" transform="translate(-17.49 26.25) rotate(-34.74)"/><rect class="cls-4" x="43.8" y="36.45" width="0.54" height="9.26" transform="translate(-14.8 53.85) rotate(-55.23)"/><rect class="cls-4" x="39.44" y="40.8" width="9.26" height="0.54" transform="translate(-15.55 32.44) rotate(-34.74)"/><rect class="cls-4" x="32.95" y="43.94" width="0.54" height="9.26" transform="matrix(0.57, -0.82, 0.82, 0.57, -25.62, 48.16)"/><rect class="cls-4" x="28.59" y="48.3" width="9.26" height="0.54" transform="translate(-21.76 27.59) rotate(-34.74)"/><rect class="cls-4" x="21.97" y="36.45" width="0.54" height="9.26" transform="translate(-24.19 35.92) rotate(-55.23)"/><rect class="cls-4" x="17.61" y="40.8" width="9.26" height="0.54" transform="translate(-19.44 20) rotate(-34.74)"/><rect class="cls-4" x="21.97" y="43.94" width="0.54" height="9.26" transform="matrix(0.57, -0.82, 0.82, 0.57, -30.34, 39.14)"/><rect class="cls-4" x="17.61" y="48.3" width="9.26" height="0.54" transform="translate(-23.72 21.33) rotate(-34.74)"/><rect class="cls-4" x="43.8" y="43.94" width="0.54" height="9.26" transform="translate(-20.96 57.08) rotate(-55.23)"/><rect class="cls-4" x="39.44" y="48.3" width="9.26" height="0.54" transform="translate(-19.82 33.78) rotate(-34.74)"/><rect class="cls-4" x="54.65" y="36.45" width="0.54" height="9.26" transform="matrix(0.57, -0.82, 0.82, 0.57, -10.14, 62.77)"/><rect class="cls-4" x="50.29" y="40.8" width="9.26" height="0.54" transform="translate(-13.62 38.62) rotate(-34.74)"/><rect class="cls-4" x="65.5" y="36.45" width="0.54" height="9.26" transform="translate(-5.48 71.68) rotate(-55.23)"/><rect class="cls-4" x="61.14" y="40.8" width="9.26" height="0.54" transform="translate(-11.68 44.81) rotate(-34.74)"/><path class="cls-4" d="M73.61,44.61c-.55,0-1.09,0-1.63.06a20.27,20.27,0,0,0-3.91.71,20,20,0,0,0-6.87,3.54,18.63,18.63,0,0,0-1.63,1.44c-.46.46-.9.93-1.32,1.43s-.59.72-.86,1.1a20,20,0,0,0-3.08,6.41c-.1.36-.19.73-.27,1.1a20.35,20.35,0,0,0-.45,4.22c0,.74,0,1.47.12,2.19a20.49,20.49,0,0,0,.34,2.08A20,20,0,1,0,73.61,44.61Zm0,36.19A16.19,16.19,0,0,1,58,68.89a14.46,14.46,0,0,1-.42-2.08A16.14,16.14,0,0,1,58,60.4a10.74,10.74,0,0,1,.34-1.1,15.55,15.55,0,0,1,1.24-2.72,15.79,15.79,0,0,1,1.63-2.34q.6-.7,1.26-1.35a13.73,13.73,0,0,1,1.3-1.1,16,16,0,0,1,6.67-3A15.64,15.64,0,0,1,72,48.52c.54-.05,1.08-.08,1.63-.08a16.18,16.18,0,1,1,0,32.36Z"/><polygon class="cls-4" points="84.95 72.4 72.8 65.08 72.8 56.89 74.42 56.89 74.42 64.16 85.79 71.01 84.95 72.4"/><path class="cls-4" d="M14.77,84.7a49.17,49.17,0,1,1,76.7,0h5A53.12,53.12,0,1,0,0,54,52.81,52.81,0,0,0,9.82,84.7Z"/><text class="cls-1" transform="translate(386.97 124.83)">SÓ<tspan class="cls-5" x="26.24" y="0">L</tspan><tspan x="32.72" y="0">O </tspan><tspan class="cls-6" x="53.26" y="0">1</tspan><tspan x="63.36" y="0">0% DE </tspan><tspan x="8.42" y="24">ENGANCHE</tspan></text><path class="cls-4" d="M448.93,81.68a10.21,10.21,0,1,0-10.21-10.21A10.21,10.21,0,0,0,448.93,81.68Zm0-18.15A7.94,7.94,0,1,1,441,71.47,7.93,7.93,0,0,1,448.93,63.53Z"/><path class="cls-4" d="M446.66,73.74H444.4a3.4,3.4,0,0,0,3.4,3.4v1.14h2.27V77.14a3.4,3.4,0,1,0,0-6.8V68.07a1.14,1.14,0,0,1,1.13,1.13h2.27a3.4,3.4,0,0,0-3.4-3.4V64.66H447.8V65.8a3.4,3.4,0,0,0,0,6.8v2.27A1.13,1.13,0,0,1,446.66,73.74Zm0-4.54a1.14,1.14,0,0,1,1.14-1.13v2.27A1.14,1.14,0,0,1,446.66,69.2Zm3.41,3.4a1.14,1.14,0,0,1,0,2.27Z"/><path class="cls-4" d="M477.29,51.05h-5.67V42l1.7,1a1.13,1.13,0,0,0,1.54-.4l3.4-5.67a1.13,1.13,0,0,0-.42-1.58l-8.49-4.68V22.69h1.14a1.13,1.13,0,0,0,1.13-1.13v-3.4A1.14,1.14,0,0,0,470.49,17H459.14A1.14,1.14,0,0,0,458,18.16v3.4a1.13,1.13,0,0,0,1.13,1.13h1.14v2.93l-15.34-8.46a1.11,1.11,0,0,0-1.09,0L411,35.31a1.13,1.13,0,0,0-.42,1.58l3.4,5.67a1.13,1.13,0,0,0,1.54.4l2.84-1.64V73.74H416a1.14,1.14,0,0,0-1.14,1.13v5.67A1.14,1.14,0,0,0,416,81.68h10.21V84a1.13,1.13,0,0,0,1.13,1.13h43.11A1.14,1.14,0,0,0,471.62,84h2.27A1.13,1.13,0,0,0,475,82.81V80.54h2.27a1.13,1.13,0,0,0,1.14-1.13V52.19A1.14,1.14,0,0,0,477.29,51.05Zm-17-31.76h9.07v1.13h-9.07Zm2.27,3.4h4.53v6.69l-4.53-2.51ZM415.3,40.44l-2.22-3.71L444.4,19.45l31.31,17.28-2.22,3.71L445,24a1.14,1.14,0,0,0-1.13,0Zm5.27-.43L444.4,26.27l25,14.4V51.05H430.78a1.14,1.14,0,0,0-1.13,1.14v2.26h-1.13a1.14,1.14,0,0,0-1.14,1.14v2.27A1.13,1.13,0,0,0,426.25,59V73.74h-5.68Zm48.78,23.37a4.56,4.56,0,0,1-3.26-3.25h3.26Zm-5.57-3.25a6.82,6.82,0,0,0,5.57,5.57V77.24a6.82,6.82,0,0,0-5.57,5.57h-29.7a6.8,6.8,0,0,0-5.56-5.57V65.7a6.8,6.8,0,0,0,5.56-5.57Zm-35.26,3.24V60.13h3.24A4.57,4.57,0,0,1,428.52,63.37Zm-11.35,16V76h9.08v3.4Zm11.35.16a4.57,4.57,0,0,1,3.24,3.24h-3.24Zm40.83,3.24h-3.26a4.58,4.58,0,0,1,3.26-3.26Zm3.4-1.13h-1.13V59a1.14,1.14,0,0,0-1.13-1.13H429.65V56.72h43.1Zm3.41-3.4H475V55.59a1.13,1.13,0,0,0-1.13-1.14h-42V53.32h44.24Z"/><path class="cls-4" d="M438.72,46.51h11.35a1.13,1.13,0,0,0,1.13-1.13V34a1.14,1.14,0,0,0-1.13-1.14H438.72A1.14,1.14,0,0,0,437.59,34V45.38A1.13,1.13,0,0,0,438.72,46.51Zm1.14-5.67h3.4v3.41h-3.4Zm5.67,3.41V40.84h3.4v3.41Zm3.4-5.68h-3.4v-3.4h3.4Zm-5.67-3.4v3.4h-3.4v-3.4Z"/><path class="cls-4" d="M408.87,85.7a49.17,49.17,0,1,1,76.71,0h4.95a53.13,53.13,0,1,0-86.61,0Z"/><text class="cls-1" transform="translate(189.1 124.83)">48 MESES SIN<tspan x="15.73" y="24">INTERESES</tspan></text><path class="cls-4" d="M210.69,85.7a49.17,49.17,0,1,1,76.7,0h5a53.13,53.13,0,1,0-86.61,0Z"/><path class="cls-4" d="M215.46,85.39h33.32v-2H216.49V25.39h27.69v8.2a1,1,0,0,0,1,1h8.2V60.68h2.06V33.59s0,0,0-.06a.75.75,0,0,0,0-.26l0-.1a1,1,0,0,0-.21-.3l-7.48-7.48h9.84V60.68h2.05V25.39h2.05V60.68h2.05V24.36a1,1,0,0,0-1-1H215.46a1,1,0,0,0-1,1v60A1,1,0,0,0,215.46,85.39Zm30.77-52.82V26.84L252,32.57Z"/><path class="cls-4" d="M247.29,68.73V58l1.57,1a1,1,0,0,0,1.08,0,1.07,1.07,0,0,0,.55-.93V53.78a1.07,1.07,0,0,0-.51-.91l-3.76-2.31V45.24a1.07,1.07,0,0,0-1.07-1.07h-4.27a1.07,1.07,0,0,0-1.07,1.07v1.38l-3.71-2.29a1.07,1.07,0,0,0-1.12,0L221.1,52.87a1.07,1.07,0,0,0-.51.91v4.28a1.07,1.07,0,0,0,.55.93,1,1,0,0,0,1.08,0l1.57-1V68.73a1.07,1.07,0,0,0,1.07,1.07h21.36A1.07,1.07,0,0,0,247.29,68.73ZM242,46.31h2.13v2.93L242,47.93Zm-19.23,8.07,12.82-7.89,12.81,7.89v1.76L236.1,48.6a1.07,1.07,0,0,0-1.12,0l-12.26,7.54ZM233.4,67.67V61.26h4.27v6.41Zm6.41,0V60.19a1.07,1.07,0,0,0-1.07-1.07h-6.4a1.07,1.07,0,0,0-1.07,1.07v7.48h-5.34v-11l9.61-5.91,9.61,5.91v11Z"/><path class="cls-4" d="M220.59,28.47h13.33v2.05H220.59Z"/><path class="cls-4" d="M220.59,32.57h21.54v2H220.59Z"/><path class="cls-4" d="M220.59,37.31h29.74v2H220.59Z"/><path class="cls-4" d="M220.59,73.08h30.14l-.42,2.06H220.59Z"/><path class="cls-4" d="M220.59,77.19h6.15v2h-6.15Z"/><path class="cls-4" d="M228.8,77.19h21.11l-.37,2H228.8Z"/><path class="cls-4" d="M236,28.47h6.15v2.05H236Z"/><path class="cls-4" d="M255.08,66.31h2.23l4.19,10,4.38-10h2.23l2.65,15.8h-3.13l-1.42-9.74L262,82.11h-1l-4.05-9.74-1.61,9.74h-3.13Z"/><path class="cls-4" d="M279.14,69.91a3.06,3.06,0,0,0-2.58-1.35c-1.66,0-2.18,1-2.18,1.84a1.33,1.33,0,0,0,.5,1.07,5.57,5.57,0,0,0,1.9.9A9.09,9.09,0,0,1,280,74a4.29,4.29,0,0,1,1.35,3.31c0,3.08-2.22,5.19-5.49,5.19a6.51,6.51,0,0,1-5.45-3l2-1.92a3.72,3.72,0,0,0,3.32,2.11,2.22,2.22,0,0,0,2.44-2.18,1.85,1.85,0,0,0-.62-1.43,7.18,7.18,0,0,0-2.44-1.16,7.56,7.56,0,0,1-2.63-1.37,3.69,3.69,0,0,1-1.25-2.94c0-2.32,1.56-4.64,5.07-4.64a6.1,6.1,0,0,1,4.48,1.85Z"/><path class="cls-4" d="M284.92,66.31v15.8h-3.08V66.31Z"/><rect class="cls-4" x="252.02" y="83.35" width="32.85" height="2.14"/><rect class="cls-4" x="252.02" y="62.97" width="32.85" height="2.14"/><line class="cls-7" x1="350.93" x2="350.93" y2="85.39"/><line class="cls-7" x1="147.81" x2="147.81" y2="85.39"/><text class="cls-8" transform="translate(51.55 388.87)">1</text><text class="cls-8" transform="translate(51.55 494.03)">2</text><text class="cls-8" transform="translate(51.55 607.33)">3</text><text class="cls-9" transform="translate(11.69 213.5)">NADA COMPLICADO...</text><text class="cls-10" transform="translate(11.69 264.28)">Crédito Directo sin <tspan class="cls-11"><tspan x="0" y="30.67">R</tspan><tspan class="cls-12" x="15.17" y="30.67">e</tspan><tspan class="cls-13" x="31.5" y="30.67">visión de Bu</tspan><tspan class="cls-14" x="193.34" y="30.67">r</tspan><tspan class="cls-15" x="202.44" y="30.67">ó</tspan></tspan></text><text class="cls-16" transform="translate(56.4 366.74)">Invierte de inmediato con sólo el <tspan class="cls-17" x="269.34" y="0">1</tspan><tspan class="cls-18" x="280.29" y="0">0% de </tspan><tspan class="cls-18"><tspan x="0" y="22.2">Enganc</tspan><tspan class="cls-19" x="65.53" y="22.2">h</tspan><tspan x="76.06" y="22.2">e</tspan><tspan class="cls-20" x="86.76" y="22.2" xml:space="preserve"> sobre el precio total de tu </tspan><tspan class="cls-21" x="304.69" y="22.2">T</tspan><tspan class="cls-20" x="312" y="22.2">erreno.</tspan></tspan></text><text class="cls-16" transform="translate(58.63 471.65)">Aparta tu terreno con <tspan class="cls-18" x="178.73" y="0">$</tspan><tspan class="cls-17" x="191.45" y="0">1</tspan><tspan class="cls-18" x="202.4" y="0">0,000 pesos</tspan><tspan x="314.99" y="0" xml:space="preserve"> y </tspan><tspan x="0" y="22.2">comien</tspan><tspan class="cls-22" x="60.2" y="22.2">z</tspan><tspan x="69.46" y="22.2">a la nu</tspan><tspan class="cls-23" x="125.23" y="22.2">e</tspan><tspan x="135.46" y="22.2">va </tspan><tspan class="cls-24" x="160.33" y="22.2">h</tspan><tspan x="169.84" y="22.2">istoria de tus sueños.</tspan></text><text class="cls-16" transform="translate(58.63 564.31)">Una <tspan class="cls-18" x="40.36" y="0">I</tspan><tspan class="cls-25" x="45.88" y="0">n</tspan><tspan class="cls-26" x="56.39" y="0">v</tspan><tspan class="cls-18" x="66" y="0">e</tspan><tspan class="cls-27" x="76.7" y="0">r</tspan><tspan class="cls-18" x="83.4" y="0">sión Inteligente,</tspan><tspan x="220.36" y="0" xml:space="preserve"> te entregamos tu </tspan><tspan x="0" y="22.2">terreno urban</tspan><tspan class="cls-23" x="110.38" y="22.2">i</tspan><tspan class="cls-22" x="113.58" y="22.2">z</tspan><tspan x="122.84" y="22.2">ado y listo pa</tspan><tspan class="cls-28" x="234.46" y="22.2">r</tspan><tspan x="239.68" y="22.2">a util</tspan><tspan class="cls-29" x="276.98" y="22.2">i</tspan><tspan class="cls-22" x="280.18" y="22.2">z</tspan><tspan x="289.44" y="22.2">ar en tan </tspan><tspan x="0" y="44.4">sólo 3 años.</tspan></text><line class="cls-7" x1="13.71" y1="221.02" x2="350.97" y2="221.02"/></g></g></svg>