<svg xmlns="http://www.w3.org/2000/svg" viewBox="0 0 382.51 41.69"><defs><style>.cls-1{fill:#094f59;}.cls-2{fill:#008894;}.cls-3{fill:#0a4f5e;}</style></defs><title>operacion_1</title><g id="Capa_2" data-name="Capa 2"><g id="Capa_1-2" data-name="Capa 1"><path class="cls-1" d="M314.16,35.54h.65l2,4.64,2-4.64h.66l-2.62,6h-.13Z"/><path class="cls-1" d="M320.49,35.54h3.44v.59h-2.84V38h2.81v.59h-2.81V41h2.81v.58h-3.41Z"/><path class="cls-1" d="M325,35.54h1.19a7.79,7.79,0,0,1,1.36.08,1.58,1.58,0,0,1,.87.53,1.52,1.52,0,0,1,.33,1,1.65,1.65,0,0,1-.23.86,1.35,1.35,0,0,1-.66.56,3.06,3.06,0,0,1-1.18.2l2.16,2.78h-.75l-2.15-2.78h-.34v2.78H325Zm.6.59v2h1a2.46,2.46,0,0,0,.89-.12.94.94,0,0,0,.45-.36,1,1,0,0,0,.16-.56.94.94,0,0,0-.16-.55.88.88,0,0,0-.43-.36,2.66,2.66,0,0,0-.88-.1Z"/><path class="cls-1" d="M330,35.54h3.44v.59h-2.84V38h2.82v.59h-2.82V41h2.82v.58H330Z"/><path class="cls-1" d="M334.52,41.54v-6h1.24a6.2,6.2,0,0,1,2,.22,2.56,2.56,0,0,1,1.36,1.06,3.19,3.19,0,0,1,.49,1.8,3.11,3.11,0,0,1-.39,1.58,2.48,2.48,0,0,1-1,1,3.91,3.91,0,0,1-1.74.32Zm.57-.56h.7a6.54,6.54,0,0,0,1.72-.16,2,2,0,0,0,1.07-.79,2.5,2.5,0,0,0,.38-1.4,2.59,2.59,0,0,0-.42-1.49,2.1,2.1,0,0,0-1.17-.84,7.21,7.21,0,0,0-1.85-.17h-.43Z"/><path class="cls-1" d="M343.19,35.54l2.8,6h-.65l-.95-2h-2.58l-.94,2h-.67l2.84-6Zm-.08,1.28-1,2.17h2.05Z"/><path class="cls-1" d="M346.3,40.42l.51-.3c.36.66.77,1,1.24,1a1.26,1.26,0,0,0,.57-.14,1,1,0,0,0,.4-.38,1,1,0,0,0,.14-.5,1,1,0,0,0-.2-.59,4.69,4.69,0,0,0-1-1,6.28,6.28,0,0,1-.94-.82,1.52,1.52,0,0,1-.31-.92,1.48,1.48,0,0,1,.18-.72,1.34,1.34,0,0,1,.53-.5,1.48,1.48,0,0,1,.74-.19,1.59,1.59,0,0,1,.8.21,2.93,2.93,0,0,1,.78.77l-.49.37a2.47,2.47,0,0,0-.58-.59,1,1,0,0,0-.52-.14.8.8,0,0,0-.59.22.7.7,0,0,0-.23.54.84.84,0,0,0,.08.38,1.22,1.22,0,0,0,.3.4,7.39,7.39,0,0,0,.77.6,4.41,4.41,0,0,1,1.07,1,1.68,1.68,0,0,1,.29.9,1.53,1.53,0,0,1-.5,1.13,1.66,1.66,0,0,1-1.2.48,1.69,1.69,0,0,1-1-.29A2.59,2.59,0,0,1,346.3,40.42Z"/><path class="cls-1" d="M353.39,41.54v-6h1.25a6.13,6.13,0,0,1,1.95.22A2.59,2.59,0,0,1,358,36.82a3.27,3.27,0,0,1,.49,1.8,3.11,3.11,0,0,1-.39,1.58,2.54,2.54,0,0,1-1,1,4,4,0,0,1-1.75.32ZM354,41h.69a6.58,6.58,0,0,0,1.73-.16,2,2,0,0,0,1.06-.79,2.43,2.43,0,0,0,.39-1.4,2.59,2.59,0,0,0-.42-1.49,2.1,2.1,0,0,0-1.17-.84,7.35,7.35,0,0,0-1.86-.17H354Z"/><path class="cls-1" d="M359.61,35.54h3.44v.59h-2.84V38H363v.59h-2.82V41H363v.58h-3.42Z"/><path class="cls-1" d="M366.4,35.54h.6V41h2.31v.58H366.4Z"/><path class="cls-1" d="M370.18,35.54h.6v6h-.6Z"/><path class="cls-1" d="M372.19,35.54h1.19a7.79,7.79,0,0,1,1.36.08,1.58,1.58,0,0,1,.87.53,1.52,1.52,0,0,1,.33,1,1.65,1.65,0,0,1-.23.86,1.35,1.35,0,0,1-.66.56,3.1,3.1,0,0,1-1.18.2L376,41.54h-.75l-2.16-2.78h-.33v2.78h-.6Zm.6.59v2h1a2.46,2.46,0,0,0,.89-.12.94.94,0,0,0,.45-.36,1,1,0,0,0,.16-.56,1,1,0,0,0-.59-.91,2.69,2.69,0,0,0-.89-.1Z"/><path class="cls-1" d="M379.68,35.54l2.8,6h-.65l-.95-2H378.3l-.94,2h-.67l2.84-6Zm-.08,1.28-1,2.17h2.06Z"/><path class="cls-2" d="M344.38,31.45l-.15-.22-1.44-1.91-.61-.81-.44-.58-.63-.84-.54.9-1.95,3.24-.58,1H344a.49.49,0,0,0,.49-.49A.42.42,0,0,0,344.38,31.45Zm-4.62-.22,1.44-2.4.37.49.61.82.82,1.09Z"/><path class="cls-2" d="M333.21,16.56l-3.47-4.62-.07-.08a.48.48,0,0,0-.34-.14h0a.49.49,0,0,0-.41.21l-14.49,19.3-.16.22a.48.48,0,0,0-.08.27.49.49,0,0,0,.49.49h7.58l.59-1,2.7-4.49,3.78-6.26h0l.41.68.54.9.63-.83,2.3-3,.61-.82Zm-2.84,3.78-.59-1,0,0,0-.07a.49.49,0,0,0-.39-.2h0a.5.5,0,0,0-.41.22l-7.21,12h-6.06L329.33,13h0l3.26,4.35Z"/><path class="cls-2" d="M372.22,31.45v0l-.15-.2L367.35,25l-1.5-2-.62-.84L362.86,19l-.61-.81-5.54-7.37L356.1,10l-.73-1L348.74.21a.5.5,0,0,0-.4-.21.53.53,0,0,0-.35.14l-.07.09L341.3,9l-.8,1.06-.61.81-5.47,7.27-.62.82-2.36,3.14-.63.83h0l-1.48,2-4.74,6.3-.15.2a0,0,0,0,1,0,0,.5.5,0,0,0-.08.27.48.48,0,0,0,.48.49h12.05l.09-.15h0l.09-.16.12-.18.28-.48,2.46-4.09.54-.91L345,18.74l.35-.59.55-.91,1.3-2.17.57-.94.59-1,.57,1,.57.94,1.25,2.09.55.9.42.7,4.49,7.49.55.9,2.46,4.1.28.46.08.13.15.27.08.12h12a.49.49,0,0,0,.49-.49A.42.42,0,0,0,372.22,31.45Zm-11.88-.22-.29-.48-2.68-4.46-.54-.9-4.92-8.18-.21-.35-.34-.56-1.31-2.19-.57-.94-.74-1.23a.48.48,0,0,0-.4-.22.52.52,0,0,0-.4.21.41.41,0,0,0-.05.09l-.71,1.17-.56.94-1.37,2.27-.27.46-.27.45-4.87,8.09-.54.9-2.68,4.46-.28.47H325.81l3.52-4.67,2-2.69L332,23l2.43-3.23L335,19l5.47-7.27.61-.82L342.53,9l5.81-7.72L354.15,9l1.34,1.78.61.82L361.63,19l.62.81L364.68,23l.63.84,2,2.71,3.49,4.64Z"/><path class="cls-2" d="M358,31.23,356.09,28l-.55-.91-.63.84-.5.67-.61.81-1.37,1.82-.1.13a0,0,0,0,1,0,0l-.07.11a.4.4,0,0,0-.07.24.49.49,0,0,0,.49.49h5.95Zm-4.37,0,.75-1,.62-.81.43-.57,1.43,2.39Z"/><path class="cls-2" d="M382.48,31.54l-.05-.09v0l-.15-.2-14.51-19.3,0,0a.48.48,0,0,0-.39-.19.49.49,0,0,0-.41.21l-3.5,4.66-.61.81.61.81,2.3,3.07.63.84.54-.91.44-.72h0L371.28,27h0v0h0l2.51,4.18.59,1H382a.49.49,0,0,0,.46-.31.55.55,0,0,0,0-.36ZM375,31.23l-7.14-11.88-.05-.1a.51.51,0,0,0-.4-.2h0a.52.52,0,0,0-.39.2.31.31,0,0,0,0,.1l-.62,1-2.24-3,3.3-4.38L381,31.23Z"/><path class="cls-3" d="M0,17.68,2.22,3.6,7.34,14.86,12.56,3.58l2.08,14.1H13.12L11.86,8.4,7.32,18.24,2.84,8.4,1.52,17.68Z"/><path class="cls-3" d="M18.8,14.22A2.83,2.83,0,0,0,19.2,16a2,2,0,0,0,2.92,0,2.83,2.83,0,0,0,.4-1.78V9.38H24v5a3.3,3.3,0,0,1-.76,2.5,3.62,3.62,0,0,1-5.08,0,3.3,3.3,0,0,1-.76-2.5v-5H18.8Z"/><path class="cls-3" d="M26.68,9.38h1.44v1A2.93,2.93,0,0,1,30.5,9.18a2.82,2.82,0,0,1,2.38,1.14,3.7,3.7,0,0,1,.48,2.22v5.14H31.92v-5.1a2.44,2.44,0,0,0-.38-1.52,1.63,1.63,0,0,0-1.36-.6,1.81,1.81,0,0,0-1.46.64,3.5,3.5,0,0,0-.6,2.24v4.34H26.68Z"/><path class="cls-3" d="M36.8,5.22a1,1,0,1,1-1,1A1,1,0,0,1,36.8,5.22Zm.72,4.16v8.3H36.08V9.38Z"/><path class="cls-3" d="M46.74,11.7a3.35,3.35,0,0,0-2.6-1.24,2.89,2.89,0,0,0-2.94,3.1,2.89,2.89,0,0,0,2.92,3.08,3.54,3.54,0,0,0,2.68-1.3v1.72a4.43,4.43,0,0,1-2.64.86,4.25,4.25,0,0,1-4.44-4.34,4.29,4.29,0,0,1,4.44-4.4,4.4,4.4,0,0,1,2.58.8Z"/><path class="cls-3" d="M49.72,5.22a1,1,0,1,1-1,1A1,1,0,0,1,49.72,5.22Zm.72,4.16v8.3H49V9.38Z"/><path class="cls-3" d="M54.6,22.28H53.16V9.38H54.6v1.16a3.57,3.57,0,0,1,2.84-1.36,4.11,4.11,0,0,1,4,4.4,4,4,0,0,1-4,4.34,3.52,3.52,0,0,1-2.9-1.4Zm5.4-8.7a2.85,2.85,0,0,0-2.72-3.12,2.88,2.88,0,0,0-2.76,3.1,2.84,2.84,0,0,0,2.78,3.08A2.8,2.8,0,0,0,60,13.58Z"/><path class="cls-3" d="M64.4,5.22a1,1,0,1,1-1,1A1,1,0,0,1,64.4,5.22Zm.72,4.16v8.3H63.68V9.38Z"/><path class="cls-3" d="M67.32,13.56a4.4,4.4,0,0,1,8.8,0,4.4,4.4,0,0,1-8.8,0Zm1.48,0a2.92,2.92,0,1,0,5.84,0,2.93,2.93,0,1,0-5.84,0Z"/><path class="cls-3" d="M90.34,15.56a5,5,0,0,1-1,1.34,4,4,0,0,1-2.76,1,4,4,0,0,1-4.1-4.34c0-2.48,1.52-4.4,4-4.4a3.71,3.71,0,0,1,3.14,1.52,5.57,5.57,0,0,1,.78,3.12H83.94a2.66,2.66,0,0,0,2.64,2.82,2.52,2.52,0,0,0,1.7-.6,3.31,3.31,0,0,0,.86-1.14Zm-1.42-2.94a2.48,2.48,0,0,0-2.44-2.16A2.52,2.52,0,0,0,84,12.62Z"/><path class="cls-3" d="M92.6,9.38H94v1a2.93,2.93,0,0,1,2.38-1.16,2.82,2.82,0,0,1,2.38,1.14,3.7,3.7,0,0,1,.48,2.22v5.14H97.84v-5.1a2.44,2.44,0,0,0-.38-1.52,1.63,1.63,0,0,0-1.36-.6,1.81,1.81,0,0,0-1.46.64,3.5,3.5,0,0,0-.6,2.24v4.34H92.6Z"/><path class="cls-3" d="M18.24,21.1h1.44V35.68H18.24V34.52a3.5,3.5,0,0,1-2.84,1.4c-2.1,0-4-1.48-4-4.4a4,4,0,0,1,4-4.34,3.43,3.43,0,0,1,2.84,1.38Zm-5.4,10.42c0,1.78,1,3.12,2.72,3.12a2.84,2.84,0,0,0,2.76-3.1,2.81,2.81,0,0,0-2.76-3.08A2.76,2.76,0,0,0,12.84,31.52Z"/><path class="cls-3" d="M29.76,33.56a5,5,0,0,1-1,1.34,4,4,0,0,1-2.76,1,4,4,0,0,1-4.1-4.34c0-2.48,1.52-4.4,4-4.4A3.71,3.71,0,0,1,29,28.7a5.57,5.57,0,0,1,.78,3.12H23.36A2.66,2.66,0,0,0,26,34.64a2.52,2.52,0,0,0,1.7-.6,3.31,3.31,0,0,0,.86-1.14Zm-1.42-2.94a2.48,2.48,0,0,0-2.44-2.16,2.52,2.52,0,0,0-2.44,2.16Z"/><path class="cls-3" d="M35.44,29.3a1.27,1.27,0,0,0-1.16-.84.92.92,0,0,0-1,.94c0,.6.4.78,1.34,1.18a5,5,0,0,1,2.08,1.28,2,2,0,0,1,.44,1.34,2.64,2.64,0,0,1-2.86,2.72,3,3,0,0,1-2.9-2.12l1.24-.52a1.88,1.88,0,0,0,1.68,1.36,1.29,1.29,0,0,0,1.36-1.32c0-.78-.56-1-1.34-1.38a5.41,5.41,0,0,1-2-1.22,1.8,1.8,0,0,1-.38-1.22,2.23,2.23,0,0,1,2.42-2.32,2.39,2.39,0,0,1,2.28,1.5Z"/><path class="cls-3" d="M45.42,27.38h1.44v8.3H45.42V34.52a3.5,3.5,0,0,1-2.84,1.4c-2.1,0-4-1.48-4-4.4a4,4,0,0,1,4-4.34,3.43,3.43,0,0,1,2.84,1.38ZM40,31.52c0,1.78,1,3.12,2.72,3.12a2.84,2.84,0,0,0,2.76-3.1,2.81,2.81,0,0,0-2.76-3.08A2.76,2.76,0,0,0,40,31.52Z"/><path class="cls-3" d="M49.58,27.38H51v.9a2.31,2.31,0,0,1,1.88-1.1,3,3,0,0,1,1.28.34l-.68,1.3a1.48,1.48,0,0,0-.84-.28,1.39,1.39,0,0,0-1.16.52A3.58,3.58,0,0,0,51,31.3v4.38H49.58Z"/><path class="cls-3" d="M55.5,27.38h1.44v.9a2.31,2.31,0,0,1,1.88-1.1,3,3,0,0,1,1.28.34l-.68,1.3a1.48,1.48,0,0,0-.84-.28,1.39,1.39,0,0,0-1.16.52,3.58,3.58,0,0,0-.48,2.24v4.38H55.5Z"/><path class="cls-3" d="M60.42,31.56a4.4,4.4,0,1,1,4.4,4.36A4.26,4.26,0,0,1,60.42,31.56Zm1.48,0a2.92,2.92,0,1,0,5.84,0,2.93,2.93,0,1,0-5.84,0Z"/><path class="cls-3" d="M72.86,21.1V35.68H71.42V21.1Z"/><path class="cls-3" d="M77,21.1V35.68H75.58V21.1Z"/><path class="cls-3" d="M79.22,31.56a4.4,4.4,0,1,1,4.4,4.36A4.26,4.26,0,0,1,79.22,31.56Zm1.48,0a2.92,2.92,0,1,0,5.84,0,2.93,2.93,0,1,0-5.84,0Z"/><path class="cls-3" d="M172,4.34V17.68h-1.48V4.34Z"/><path class="cls-3" d="M175,9.38h1.44v1a2.93,2.93,0,0,1,2.38-1.16,2.82,2.82,0,0,1,2.38,1.14,3.7,3.7,0,0,1,.48,2.22v5.14h-1.44v-5.1a2.44,2.44,0,0,0-.38-1.52,1.63,1.63,0,0,0-1.36-.6,1.81,1.81,0,0,0-1.46.64,3.5,3.5,0,0,0-.6,2.24v4.34H175Z"/><path class="cls-3" d="M184.84,9.38l2.48,5.6,2.48-5.6h1.6l-4.08,8.84-4.08-8.84Z"/><path class="cls-3" d="M200.28,15.56a5,5,0,0,1-1,1.34,4,4,0,0,1-2.76,1,4,4,0,0,1-4.1-4.34c0-2.48,1.52-4.4,4-4.4a3.71,3.71,0,0,1,3.14,1.52,5.57,5.57,0,0,1,.78,3.12h-6.46a2.66,2.66,0,0,0,2.64,2.82,2.52,2.52,0,0,0,1.7-.6,3.31,3.31,0,0,0,.86-1.14Zm-1.42-2.94a2.48,2.48,0,0,0-2.44-2.16A2.52,2.52,0,0,0,194,12.62Z"/><path class="cls-3" d="M202.54,9.38H204v.9a2.31,2.31,0,0,1,1.88-1.1,3,3,0,0,1,1.28.34l-.68,1.3a1.48,1.48,0,0,0-.84-.28,1.39,1.39,0,0,0-1.16.52A3.58,3.58,0,0,0,204,13.3v4.38h-1.44Z"/><path class="cls-3" d="M211.66,11.3a1.27,1.27,0,0,0-1.16-.84.92.92,0,0,0-1,.94c0,.6.4.78,1.34,1.18a5,5,0,0,1,2.08,1.28,2,2,0,0,1,.44,1.34,2.64,2.64,0,0,1-2.86,2.72,3,3,0,0,1-2.9-2.12l1.24-.52a1.88,1.88,0,0,0,1.68,1.36,1.29,1.29,0,0,0,1.36-1.32c0-.78-.56-1-1.34-1.38a5.41,5.41,0,0,1-2-1.22,1.8,1.8,0,0,1-.38-1.22,2.23,2.23,0,0,1,2.42-2.32,2.39,2.39,0,0,1,2.28,1.5Z"/><path class="cls-3" d="M216,5.22a1,1,0,1,1-1,1A1,1,0,0,1,216,5.22Zm.72,4.16v8.3h-1.44V9.38Z"/><path class="cls-3" d="M218.92,13.56a4.4,4.4,0,0,1,8.8,0,4.4,4.4,0,0,1-8.8,0Zm1.48,0a2.92,2.92,0,1,0,5.84,0,2.93,2.93,0,1,0-5.84,0ZM226,5l-2.68,2.7-.9-.48,2.1-2.9Z"/><path class="cls-3" d="M229.92,9.38h1.44v1a2.93,2.93,0,0,1,2.38-1.16,2.82,2.82,0,0,1,2.38,1.14,3.7,3.7,0,0,1,.48,2.22v5.14h-1.44v-5.1a2.44,2.44,0,0,0-.38-1.52,1.63,1.63,0,0,0-1.36-.6,1.81,1.81,0,0,0-1.46.64,3.5,3.5,0,0,0-.6,2.24v4.34h-1.44Z"/><path class="cls-3" d="M168.16,23.22a1,1,0,1,1-1,1A1,1,0,0,1,168.16,23.22Zm.72,4.16v8.3h-1.44v-8.3Z"/><path class="cls-3" d="M171.6,27.38H173v1a2.93,2.93,0,0,1,2.38-1.16,2.82,2.82,0,0,1,2.38,1.14,3.7,3.7,0,0,1,.48,2.22v5.14h-1.44v-5.1a2.44,2.44,0,0,0-.38-1.52,1.63,1.63,0,0,0-1.36-.6,1.81,1.81,0,0,0-1.46.64,3.5,3.5,0,0,0-.6,2.24v4.34H171.6Z"/><path class="cls-3" d="M182.48,28.7v7H181v-7h-.88V27.38H181v-3h1.44v3h1.44V28.7Z"/><path class="cls-3" d="M192.64,33.56a5,5,0,0,1-1,1.34,4,4,0,0,1-2.76,1,4,4,0,0,1-4.1-4.34c0-2.48,1.52-4.4,4-4.4a3.71,3.71,0,0,1,3.14,1.52,5.57,5.57,0,0,1,.78,3.12h-6.46a2.66,2.66,0,0,0,2.64,2.82,2.52,2.52,0,0,0,1.7-.6,3.31,3.31,0,0,0,.86-1.14Zm-1.42-2.94a2.48,2.48,0,0,0-2.44-2.16,2.52,2.52,0,0,0-2.44,2.16Z"/><path class="cls-3" d="M196.34,21.1V35.68H194.9V21.1Z"/><path class="cls-3" d="M199.78,23.22a1,1,0,1,1-1,1A1,1,0,0,1,199.78,23.22Zm.72,4.16v8.3h-1.44v-8.3Z"/><path class="cls-3" d="M209.58,27.38H211v8.1a5.22,5.22,0,0,1-.8,3.26,4,4,0,0,1-3.32,1.54,4.11,4.11,0,0,1-3-1.12,3.74,3.74,0,0,1-1.08-2.68h1.42a2.61,2.61,0,0,0,.64,1.72,2.57,2.57,0,0,0,2,.8,2.33,2.33,0,0,0,2.2-1.16,3.86,3.86,0,0,0,.46-2.12v-1.2a3.5,3.5,0,0,1-2.84,1.4,4,4,0,0,1-2.84-1.12,4.5,4.5,0,0,1-1.2-3.28,4.35,4.35,0,0,1,1.2-3.22,4.09,4.09,0,0,1,2.84-1.12,3.45,3.45,0,0,1,2.84,1.38ZM205,29.24a3.16,3.16,0,0,0-.84,2.28,3.2,3.2,0,0,0,.94,2.44,2.51,2.51,0,0,0,1.78.68,2.46,2.46,0,0,0,1.82-.7,3.36,3.36,0,0,0,.94-2.4,3.28,3.28,0,0,0-.88-2.34,2.66,2.66,0,0,0-1.88-.74A2.57,2.57,0,0,0,205,29.24Z"/><path class="cls-3" d="M221.1,33.56a5,5,0,0,1-1,1.34,4,4,0,0,1-2.76,1,4,4,0,0,1-4.1-4.34c0-2.48,1.52-4.4,4-4.4a3.71,3.71,0,0,1,3.14,1.52,5.57,5.57,0,0,1,.78,3.12H214.7a2.66,2.66,0,0,0,2.64,2.82A2.52,2.52,0,0,0,219,34a3.31,3.31,0,0,0,.86-1.14Zm-1.42-2.94a2.48,2.48,0,0,0-2.44-2.16,2.52,2.52,0,0,0-2.44,2.16Z"/><path class="cls-3" d="M223.36,27.38h1.44v1a2.93,2.93,0,0,1,2.38-1.16,2.82,2.82,0,0,1,2.38,1.14,3.7,3.7,0,0,1,.48,2.22v5.14H228.6v-5.1a2.44,2.44,0,0,0-.38-1.52,1.63,1.63,0,0,0-1.36-.6,1.81,1.81,0,0,0-1.46.64,3.5,3.5,0,0,0-.6,2.24v4.34h-1.44Z"/><path class="cls-3" d="M234.24,28.7v7H232.8v-7h-.88V27.38h.88v-3h1.44v3h1.44V28.7Z"/><path class="cls-3" d="M244.4,33.56a5,5,0,0,1-1,1.34,4,4,0,0,1-2.76,1,4,4,0,0,1-4.1-4.34c0-2.48,1.52-4.4,4-4.4a3.71,3.71,0,0,1,3.14,1.52,5.57,5.57,0,0,1,.78,3.12H238a2.66,2.66,0,0,0,2.64,2.82,2.52,2.52,0,0,0,1.7-.6,3.31,3.31,0,0,0,.86-1.14ZM243,30.62a2.48,2.48,0,0,0-2.44-2.16,2.52,2.52,0,0,0-2.44,2.16Z"/><path class="cls-3" d="M121.82,18.05h6.82V11.56h2.72v6.49h6.83v2.49h-6.83V27h-2.72V20.54h-6.82Z"/><path class="cls-3" d="M276.43,14.88H292.8v2.49H276.43Zm0,5.81H292.8v2.49H276.43Z"/></g></g></svg>