<svg xmlns="http://www.w3.org/2000/svg" viewBox="0 0 685.01 222.23"><defs><style>.cls-1{fill:none;stroke:#ffb259;stroke-miterlimit:10;stroke-width:1.4px;}.cls-2{font-size:93.01px;fill:#ffb259;font-family:FuturaPT-Demi, Futura PT;letter-spacing:-0.04em;}.cls-2,.cls-3,.cls-8{font-weight:300;}.cls-3,.cls-8{font-size:23px;font-family:FuturaPT-Light, Futura PT;}.cls-3,.cls-7,.cls-8{fill:#fff;}.cls-3{letter-spacing:-0.05em;}.cls-4{letter-spacing:-0.03em;}.cls-5,.cls-8{letter-spacing:-0.03em;}.cls-6{letter-spacing:-0.06em;}.cls-9{letter-spacing:-0.14em;}</style></defs><g id="Capa_2" data-name="Capa 2"><g id="Capa_1-2" data-name="Capa 1"><rect class="cls-1" x="0.7" y="0.7" width="207.69" height="220.83"/><text class="cls-2" transform="translate(17.88 103.35) scale(1.04 1)">1</text><text class="cls-3" transform="translate(62.11 56.13)">C<tspan class="cls-4" x="14.49" y="0">ontacta a tu </tspan><tspan class="cls-5"><tspan x="0" y="23">Aliado S</tspan><tspan class="cls-6" x="69.85" y="23">h</tspan><tspan x="78.68" y="23">erpa.</tspan></tspan></text><path class="cls-7" d="M578.19,172.75a2.09,2.09,0,1,1,2.4-2.07,1.09,1.09,0,1,0,2.18,0,4.33,4.33,0,0,0-3.49-4.13V166a1.09,1.09,0,0,0-2.18,0v.57a4.33,4.33,0,0,0-3.49,4.13,4.43,4.43,0,0,0,4.58,4.25,2.1,2.1,0,1,1-2.4,2.08,1.09,1.09,0,0,0-2.18,0,4.33,4.33,0,0,0,3.49,4.13v.47a1.09,1.09,0,1,0,2.18,0v-.47a4.33,4.33,0,0,0,3.49-4.13A4.44,4.44,0,0,0,578.19,172.75Z"/><path class="cls-7" d="M590.12,166.27a14.17,14.17,0,0,0-5.8-5.13,1.09,1.09,0,1,0-.94,2,12,12,0,0,1,5.4,16.44,1.08,1.08,0,0,0,.46,1.47,1,1,0,0,0,.5.13,1.09,1.09,0,0,0,1-.58,14.18,14.18,0,0,0-.59-14.29Z"/><path class="cls-7" d="M579.9,159.75h-.07a1.09,1.09,0,0,0,0,2.18h.07a1.09,1.09,0,1,0,0-2.18Z"/><path class="cls-7" d="M573,184.73a12,12,0,0,1-5.41-16.44,1.08,1.08,0,0,0-.44-1.47,1.1,1.1,0,0,0-1.48.45,14.16,14.16,0,0,0,6.38,19.42,1.2,1.2,0,0,0,.48.11,1.09,1.09,0,0,0,.47-2.07Z"/><path class="cls-7" d="M576.56,185.9h-.06a1.09,1.09,0,1,0,0,2.18h.07a1.09,1.09,0,1,0,0-2.18Z"/><path class="cls-7" d="M583.14,156.06a5.1,5.1,0,0,0-.48-.89h2.84a5,5,0,0,0,0-10h-8.73a5,5,0,0,0-4.13-7.85h-26.7a5,5,0,0,0,0,10h8.72a5.05,5.05,0,0,0-.88,2.84,5,5,0,0,0,.88,2.83h-2.84a5,5,0,0,0-3.11,8.94,5,5,0,0,0,0,7.84,5,5,0,0,0,0,7.85,5,5,0,0,0,3.11,8.94h12.84a18.52,18.52,0,1,0,18.48-30.5Zm2.36-8.74a2.84,2.84,0,0,1,0,5.67H558.8a2.84,2.84,0,1,1,0-5.67Zm-39.56-2.17a2.84,2.84,0,0,1,0-5.67h26.7a2.84,2.84,0,0,1,0,5.67Zm5.88,10h26.7a2.76,2.76,0,0,1,1.24.29c-.52-.05-1-.07-1.57-.07a18.46,18.46,0,0,0-13.11,5.45H551.82a2.84,2.84,0,0,1,0-5.67Zm0,7.85h11.4a18.6,18.6,0,0,0-2.8,5.66h-8.6a2.83,2.83,0,0,1,0-5.66Zm0,7.84h8.1a19.31,19.31,0,0,0-.25,3,17.38,17.38,0,0,0,.19,2.62h-8a2.84,2.84,0,0,1,0-5.67Zm0,13.52a2.84,2.84,0,0,1,0-5.67h8.48a18.54,18.54,0,0,0,2.61,5.67Zm26.37,5.88a16.35,16.35,0,1,1,16.35-16.35A16.36,16.36,0,0,1,578.19,190.26Z"/><rect class="cls-1" x="476.62" y="0.7" width="207.69" height="220.83"/><text class="cls-2" transform="translate(490.3 102.45) scale(1.04 1)">3</text><text class="cls-8" transform="translate(543.11 56.13)">Aparta desde <tspan x="0" y="23">$</tspan><tspan class="cls-9" x="11.98" y="23">1</tspan><tspan x="21.39" y="23">0,000.</tspan></text><rect class="cls-1" x="238.43" y="0.7" width="207.69" height="220.83"/><text class="cls-2" transform="translate(252.5 101.35) scale(1.04 1)">2</text><text class="cls-8" transform="translate(306.91 56.13)">Elige la <tspan x="0" y="23">dimensión </tspan><tspan x="0" y="46">ideal de tu lote.</tspan></text><path class="cls-7" d="M368.21,138.06H316.36a.89.89,0,0,0-.89.89v51.84a.89.89,0,0,0,.89.89H368.2a.89.89,0,0,0,.89-.89V139A.88.88,0,0,0,368.21,138.06Zm-50.95,1.79h13.41v10.73c0,8.11-5,13-13.41,13.37Zm15.12,12.51h16.17v17.88H327.09v-7.68A14,14,0,0,0,332.38,152.36Zm9.9,34.86v2.68h-25V165.73a18.08,18.08,0,0,0,8.05-2v7.43a.89.89,0,0,0,.89.89h5.36v7.15a.89.89,0,0,0,.89.89H345v6.26h-1.8A.89.89,0,0,0,342.28,187.22Zm25,2.68H344.07v-1.79h13.65c.77,0,1.55,0,1.55-.89v-8.05c0-4.68,3.06-7.7,8.05-8V189.9Zm0-20.52c-6,.34-9.84,4.11-9.84,9.79v7.15H346.75v-7.15a.89.89,0,0,0-.27-.63,1,1,0,0,0-.63-.26H333.34V172h16.09a.89.89,0,0,0,.89-.89V152.36h17v17Zm0-18.8H332.37c.08-.78.08-2.37.08-5.81v-4.92h34.86Z"/></g></g></svg>