<svg xmlns="http://www.w3.org/2000/svg" viewBox="0 0 113.09 35"><defs><style>.cls-1{fill:#f6f4ef;}</style></defs><title>logo-txt</title><g id="Capa_2" data-name="Capa 2"><g id="Capa_1-2" data-name="Capa 1"><path class="cls-1" d="M0,.58V.47H3.1A4.11,4.11,0,0,1,4.47.68a2.85,2.85,0,0,1,1,.58,2.45,2.45,0,0,1,.59.82,2.47,2.47,0,0,1,.19,1,2.59,2.59,0,0,1-.18,1,2,2,0,0,1-.58.81,2.77,2.77,0,0,1-1,.57A4.68,4.68,0,0,1,3,5.59c-.18,0-.52,0-1-.07V8.78a.92.92,0,0,0,1,1v.11H0V9.81a1.09,1.09,0,0,0,.73-.25A1,1,0,0,0,1,8.78V1.63a1.29,1.29,0,0,0-.1-.55A.8.8,0,0,0,.67.77,1,1,0,0,0,.36.63L.13.58ZM2,.8V5.25a5.5,5.5,0,0,0,1,.09,2.48,2.48,0,0,0,1.55-.47,2,2,0,0,0,.64-1.75A2.62,2.62,0,0,0,4.59,1.4,2.05,2.05,0,0,0,2.89.72,5.69,5.69,0,0,0,2,.8Z"/><path class="cls-1" d="M17.66,5.2A4.84,4.84,0,0,1,17,7.67a5,5,0,0,1-1.79,1.82,4.86,4.86,0,0,1-2.52.68,5,5,0,0,1-5-5,4.92,4.92,0,0,1,.39-1.95A4.8,4.8,0,0,1,9.17,1.62,5.06,5.06,0,0,1,10.78.56a5.14,5.14,0,0,1,1.9-.37,5,5,0,0,1,1.86.36,5,5,0,0,1,1.6,1,4.89,4.89,0,0,1,1.11,1.6A5,5,0,0,1,17.66,5.2Zm-1.13,0a5.58,5.58,0,0,0-.67-3A3.46,3.46,0,0,0,14.32.85,4.31,4.31,0,0,0,12.68.49a4.25,4.25,0,0,0-1.24.19,3.49,3.49,0,0,0-1.25.72,3.88,3.88,0,0,0-1,1.46A6.13,6.13,0,0,0,8.8,5.19a6.27,6.27,0,0,0,.33,2.13A3.88,3.88,0,0,0,10,8.8a3.46,3.46,0,0,0,1.25.83,4.29,4.29,0,0,0,1.42.25A4,4,0,0,0,14,9.64a3.44,3.44,0,0,0,1.24-.76,3.92,3.92,0,0,0,.91-1.44A6.21,6.21,0,0,0,16.53,5.23Z"/><path class="cls-1" d="M19.3.6h-.13V.47h3.27a3.31,3.31,0,0,1,1.34.24,2.16,2.16,0,0,1,.85.62,2.4,2.4,0,0,1,.44.79,2.65,2.65,0,0,1,.13.82,2.41,2.41,0,0,1-.21,1,2.32,2.32,0,0,1-.66.81,2.53,2.53,0,0,1-1.12.46v0a3.86,3.86,0,0,1,1.57,1.63l.85,1.44a4.66,4.66,0,0,0,.93,1.23,1.35,1.35,0,0,0,.69.28v.11H25.53l-.21-.28-.2-.27-.19-.3a1.67,1.67,0,0,0-.15-.22L23.65,7a4.59,4.59,0,0,0-.7-.93,2.5,2.5,0,0,0-.66-.51,1.85,1.85,0,0,0-.56-.19,3.22,3.22,0,0,0-.58,0V8.78a.93.93,0,0,0,1,1v.11h-3V9.81a1.27,1.27,0,0,0,.5-.1A.74.74,0,0,0,20,9.39a1.1,1.1,0,0,0,.15-.61V1.63a1,1,0,0,0-.28-.8A.92.92,0,0,0,19.3.6Zm1.85,4.47h.54a3.26,3.26,0,0,0,1.39-.25,1.63,1.63,0,0,0,.79-.69A2.34,2.34,0,0,0,24.11,3,2.7,2.7,0,0,0,23.89,2a1.94,1.94,0,0,0-.74-.88A2.54,2.54,0,0,0,21.74.72a2.43,2.43,0,0,0-.59.06Z"/><path class="cls-1" d="M40.46,0a1.1,1.1,0,0,1-1,.47H28.24l-.38,0a1.11,1.11,0,0,1-.29-.08.77.77,0,0,1-.2-.13A1.47,1.47,0,0,1,27.19,0h-.1V2.31h.1a1.43,1.43,0,0,1,.54-1.2A2.29,2.29,0,0,1,28.89.84h1.88V8.78a1,1,0,0,1-.3.79,1.13,1.13,0,0,1-.71.24v.11h3V9.81a.92.92,0,0,1-1-1V.84h4.17V8.78a1,1,0,0,1-.29.79,1.13,1.13,0,0,1-.71.24v.11h3V9.81a.92.92,0,0,1-1-1V.84h1.88a2.25,2.25,0,0,1,1.15.27,1.37,1.37,0,0,1,.54,1.2h.1V0Z"/><path class="cls-1" d="M51.5,5.2a4.84,4.84,0,0,1-.66,2.47,5,5,0,0,1-1.79,1.82,4.86,4.86,0,0,1-2.52.68A5,5,0,0,1,44,9.49a5,5,0,0,1-1.82-1.82,5,5,0,0,1-.66-2.51,4.92,4.92,0,0,1,.39-1.95A5,5,0,0,1,43,1.62,5.06,5.06,0,0,1,44.62.56a5.14,5.14,0,0,1,1.9-.37,4.89,4.89,0,0,1,1.86.36,5,5,0,0,1,1.6,1,4.89,4.89,0,0,1,1.11,1.6A5,5,0,0,1,51.5,5.2Zm-1.13,0a5.48,5.48,0,0,0-.67-3A3.41,3.41,0,0,0,48.16.85,4.31,4.31,0,0,0,46.52.49a4.25,4.25,0,0,0-1.24.19A3.49,3.49,0,0,0,44,1.4a3.76,3.76,0,0,0-1,1.46,6.13,6.13,0,0,0-.39,2.33A6.28,6.28,0,0,0,43,7.32a4,4,0,0,0,.89,1.48,3.55,3.55,0,0,0,1.25.83,4.29,4.29,0,0,0,1.42.25,4,4,0,0,0,1.34-.24,3.44,3.44,0,0,0,1.24-.76A3.79,3.79,0,0,0,50,7.44,6.21,6.21,0,0,0,50.37,5.23Z"/><path class="cls-1" d="M61.31,9.92H57.78V9.81h.12a.82.82,0,0,0,.62-.26,1,1,0,0,0,.26-.77V1.64a1.14,1.14,0,0,0-.24-.78.79.79,0,0,0-.65-.28h-.11V.47h3.08A3.6,3.6,0,0,1,62,.64a2.44,2.44,0,0,1,.87.49,2.2,2.2,0,0,1,.55.71,1.89,1.89,0,0,1,.19.85A1.85,1.85,0,0,1,63,4.08a3.32,3.32,0,0,1-1.48.78v0a7.37,7.37,0,0,1,.82.13,3.39,3.39,0,0,1,.7.25,2.65,2.65,0,0,1,.59.42,2,2,0,0,1,.42.51,2,2,0,0,1,.27.6,2.39,2.39,0,0,1,.09.66,2.14,2.14,0,0,1-.38,1.27,2.75,2.75,0,0,1-.87.81A4,4,0,0,1,61.31,9.92ZM59.76,4.8h.61a2.75,2.75,0,0,0,1.08-.15,2.41,2.41,0,0,0,.43-.28,1.69,1.69,0,0,0,.42-.57,1.88,1.88,0,0,0,.2-.93,2.36,2.36,0,0,0-.13-.8A2.08,2.08,0,0,0,62,1.39a2,2,0,0,0-.61-.46A1.81,1.81,0,0,0,60.6.76a3.07,3.07,0,0,0-.84.14Zm1,.29h-1V8.5a1.85,1.85,0,0,0,.07.57.67.67,0,0,0,.36.39A2.48,2.48,0,0,0,63,8.76a2.46,2.46,0,0,0,.38-1.34,2.5,2.5,0,0,0-.19-1,2.06,2.06,0,0,0-.52-.73,2.29,2.29,0,0,0-.83-.46A3.51,3.51,0,0,0,60.73,5.09Z"/><path class="cls-1" d="M65.7,9.81h.13a.84.84,0,0,0,.61-.27,1,1,0,0,0,.27-.76V1.64a1,1,0,0,0-.3-.82A1.24,1.24,0,0,0,65.7.58V.47h3V.58a1.22,1.22,0,0,0-.7.23,1,1,0,0,0-.31.83v6.9a1,1,0,0,0,.31.85,1.63,1.63,0,0,0,1,.24h.82a2.23,2.23,0,0,0,.85-.13,1.15,1.15,0,0,0,.5-.39,3.44,3.44,0,0,0,.38-.75h.11l-.36,1.56H65.7Z"/><path class="cls-1" d="M76.93.35l2.83,8.1a4.18,4.18,0,0,0,.42.91,1,1,0,0,0,.38.36,1.78,1.78,0,0,0,.47.09v.11H77.94V9.81a2.28,2.28,0,0,0,.73-.09c.17-.06.26-.22.26-.48a2,2,0,0,0-.12-.59.17.17,0,0,1,0-.07l-.84-2.51H74.67l-.75,2.32a2.7,2.7,0,0,0-.15.76c0,.27.06.45.19.53a1,1,0,0,0,.57.13v.11H72.31V9.81a1.12,1.12,0,0,0,.76-.36,2.67,2.67,0,0,0,.5-1L76.24.35ZM74.78,5.73h3L76.25,1.24h0Z"/><path class="cls-1" d="M91.81.47V.58a1.68,1.68,0,0,0-.56.14.65.65,0,0,0-.33.36,2,2,0,0,0-.11.79v8.28h-.07L83.49,2.06V7.87A9.24,9.24,0,0,0,83.54,9a1.43,1.43,0,0,0,.17.51,1,1,0,0,0,.83.35v.11H82.17V9.81a1.09,1.09,0,0,0,.62-.17.89.89,0,0,0,.32-.55,5.93,5.93,0,0,0,.09-1.21V1.72l-.32-.35a2.47,2.47,0,0,0-.66-.6,2,2,0,0,0-.63-.19V.47h1.78l7.15,8V2.37a6.34,6.34,0,0,0-.06-1A.85.85,0,0,0,90.17.8a1.11,1.11,0,0,0-.73-.22V.47Z"/><path class="cls-1" d="M101.6,2.59h-.1a2,2,0,0,0-.66-1.18,3.26,3.26,0,0,0-1.21-.7A4.15,4.15,0,0,0,98.35.49a3.43,3.43,0,0,0-1.53.34,3.64,3.64,0,0,0-1.24,1,4.51,4.51,0,0,0-.81,1.5,6.1,6.1,0,0,0-.29,1.9,6.08,6.08,0,0,0,.28,1.85,4.3,4.3,0,0,0,.82,1.47,3.55,3.55,0,0,0,1.24,1,3.78,3.78,0,0,0,1.56.32A5.06,5.06,0,0,0,100,9.5a4.1,4.1,0,0,0,1.55-1v.36a7.59,7.59,0,0,1-1.56,1,4.51,4.51,0,0,1-1.76.31,5,5,0,0,1-2-.41,4.64,4.64,0,0,1-1.56-1.1,4.84,4.84,0,0,1-1-1.56,5,5,0,0,1-.33-1.78A5.05,5.05,0,0,1,94,2.76,5.18,5.18,0,0,1,95.82.88,4.89,4.89,0,0,1,98.35.19a7.4,7.4,0,0,1,1.79.25l.66.19a2.43,2.43,0,0,0,.33,0,.49.49,0,0,0,.33-.08.45.45,0,0,0,.13-.26h.1Z"/><path class="cls-1" d="M113.09,5.2a4.84,4.84,0,0,1-.66,2.47,5,5,0,0,1-1.79,1.82,4.86,4.86,0,0,1-2.52.68,5,5,0,0,1-4.35-2.5,4.87,4.87,0,0,1-.67-2.51,4.9,4.9,0,0,1,1.5-3.54A5,5,0,0,1,106.22.56a5.05,5.05,0,0,1,1.89-.37A4.89,4.89,0,0,1,110,.55a4.93,4.93,0,0,1,1.6,1,4.74,4.74,0,0,1,1.11,1.6A5,5,0,0,1,113.09,5.2Zm-1.13,0a5.48,5.48,0,0,0-.67-3A3.41,3.41,0,0,0,109.75.85a4.31,4.31,0,0,0-1.64-.36,4.25,4.25,0,0,0-1.24.19,3.45,3.45,0,0,0-1.24.72,3.67,3.67,0,0,0-1,1.46,6.13,6.13,0,0,0-.39,2.33,6.28,6.28,0,0,0,.32,2.13,4,4,0,0,0,.89,1.48,3.55,3.55,0,0,0,1.25.83,4.29,4.29,0,0,0,1.42.25,4,4,0,0,0,1.34-.24,3.36,3.36,0,0,0,1.24-.76,3.79,3.79,0,0,0,.91-1.44A6.21,6.21,0,0,0,112,5.23Z"/><path class="cls-1" d="M58.27,31.93h3V29.8h.34v5h-.34V32.23h-3v2.59h-.33v-5h.33Z"/><path class="cls-1" d="M65.35,33.17H63.21l-.67,1.65h-.36l2.11-5.17,2.09,5.17H66Zm-.12-.3-.94-2.38-1,2.38Zm-.08-4.29-1,1-.24-.14.88-1Z"/><path class="cls-1" d="M66.91,29.8H68a1.28,1.28,0,0,1,.8,2.36,1.2,1.2,0,0,1,1,1.25,1.4,1.4,0,0,1-1.56,1.41H66.91Zm.33,2.27H68a1,1,0,0,0,.69-.21,1,1,0,0,0,.33-.77,1,1,0,0,0-.34-.78,1.36,1.36,0,0,0-.84-.21h-.64Zm0,2.45h.85a1.52,1.52,0,0,0,1.09-.3,1,1,0,0,0,.32-.77.92.92,0,0,0-.53-.93,2.23,2.23,0,0,0-.94-.15h-.79Z"/><path class="cls-1" d="M71,29.8v5h-.33v-5Z"/><path class="cls-1" d="M73.18,30.1v4.72h-.33V30.1h-1.3v-.3h2.93v.3Z"/><path class="cls-1" d="M76.31,30.1v4.72H76V30.1h-1.3v-.3h2.93v.3Z"/><path class="cls-1" d="M80.35,33.17H78.21l-.66,1.65h-.37l2.12-5.17,2.08,5.17H81Zm-.12-.3-.94-2.38-1,2.38Z"/><path class="cls-1" d="M83.42,29.8h1.1a1.29,1.29,0,0,1,.8,2.36,1.2,1.2,0,0,1,1,1.25,1.4,1.4,0,0,1-1.56,1.41H83.42Zm.33,2.27h.8a1,1,0,0,0,.69-.21,1,1,0,0,0,.33-.77,1,1,0,0,0-.34-.78,1.36,1.36,0,0,0-.84-.21h-.64Zm0,2.45h.85a1.54,1.54,0,0,0,1.09-.3,1,1,0,0,0,.32-.77.92.92,0,0,0-.53-.93,2.23,2.23,0,0,0-.94-.15h-.79Z"/><path class="cls-1" d="M88,32.67,86.31,29.8h.38l1.44,2.54,1.48-2.54H90l-1.69,2.87v2.15H88Z"/><path class="cls-1" d="M96,30.82a2.26,2.26,0,1,0-1.69,3.78A2.32,2.32,0,0,0,96,33.84v.44a2.52,2.52,0,0,1-1.67.62,2.59,2.59,0,1,1,0-5.17,2.41,2.41,0,0,1,1.69.66Z"/><path class="cls-1" d="M100.74,30.82a2.27,2.27,0,1,0-1.69,3.78,2.35,2.35,0,0,0,1.69-.76v.44a2.55,2.55,0,0,1-1.68.62,2.59,2.59,0,1,1,0-5.17,2.43,2.43,0,0,1,1.69.66Z"/><path class="cls-1" d="M101.9,29.8v5h-.33v-5Z"/><path class="cls-1" d="M103,34.82l.57-5.19,2.17,4.64,2.18-4.64.57,5.19h-.33l-.45-4s-2,4.21-2,4.21l-2-4.21-.44,4Z"/><path class="cls-1" d="M112,33.17h-2.13l-.67,1.65h-.37L111,29.65l2.08,5.17h-.36Zm-.12-.3L111,30.49,110,32.87Z"/><path class="cls-1" d="M6.33,20.49a3.3,3.3,0,0,0-2.48-1.12,3.24,3.24,0,1,0,0,6.48,3.47,3.47,0,0,0,2.47-1.08v.62a3.77,3.77,0,0,1-2.45.88,3.67,3.67,0,1,1,0-7.33,3.68,3.68,0,0,1,2.47.93Z"/><path class="cls-1" d="M16.11,19v7.12h-.49V19Z"/><path class="cls-1" d="M25.73,26.16l.83-7.37,3.19,6.59,3.18-6.59.84,7.37h-.48l-.66-5.73s-2.87,6-2.88,6l-2.89-6-.65,5.73Z"/><path class="cls-1" d="M47.08,23.82H44l-1,2.34h-.53l3.1-7.34,3.05,7.34h-.53Zm-.18-.43L45.53,20l-1.4,3.37Z"/><path class="cls-1" d="M58.43,19.46v6.7h-.49v-6.7H56V19h4.29v.42Z"/><path class="cls-1" d="M72.42,23.82H69.29l-1,2.34h-.53l3.1-7.34,3.05,7.34H73.4Zm-.18-.43L70.87,20l-1.4,3.37Z"/><path class="cls-1" d="M85.87,26.16l-2.38-3.37h-.22v3.37h-.48V19h1.06a2.64,2.64,0,0,1,1.55.36,1.76,1.76,0,0,1,.76,1.53,1.7,1.7,0,0,1-1.24,1.72,2.79,2.79,0,0,1-.9.14l2.4,3.37Zm-2.6-3.79H84c1,0,1.67-.54,1.67-1.46A1.3,1.3,0,0,0,85,19.68a2.72,2.72,0,0,0-1.12-.22h-.61Z"/><path class="cls-1" d="M96.14,19v7.12h-.48V19Z"/><path class="cls-1" d="M113.06,22.61a3.81,3.81,0,1,1-3.81-3.67A3.69,3.69,0,0,1,113.06,22.61Zm-.5,0a3.31,3.31,0,1,0-3.31,3.24A3.21,3.21,0,0,0,112.56,22.61Z"/><polygon class="cls-1" points="113.08 13.8 1.38 13.8 0.01 15.16 111.72 15.16 113.08 13.8"/></g></g></svg>