<svg xmlns="http://www.w3.org/2000/svg" viewBox="0 0 434.7 391.66"><defs><style>.cls-1{fill:#002b53;}.cls-2{fill:#001a5a;}.cls-3{fill:#37a3ca;}</style></defs><title>logo</title><g id="Capa_2" data-name="Capa 2"><g id="Capa_1-2" data-name="Capa 1"><path fill="#002b53" d="M217.27,39.86l135,135-95.1,95.11-36.42-36.42,5.53-5.54L256,257.72l1.14,1.14,1.14-1.14L340,176l1.15-1.15L340,173.69,218.42,52.08l-1.14-1.14-1.15,1.14-79.3,79.07-5.53-5.53,86-85.76"/><path fill="#002b53" d="M118.58,138.3l5.53,5.54L94.26,173.69l-1.14,1.15L94.26,176,176,257.72l1.15,1.14,1.14-1.14L297.58,138.4l5.55,5.55-126,126L82,174.84Z"/><path fill="#002b53" d="M217.28,0l114.9,114.89-16.32,16.34-5.55-5.55L320,116l1.14-1.15L320,113.75,218.42,12.22l-1.14-1.15-1.14,1.15L114.59,113.75l-1.14,1.14,1.14,1.15,99,99.2-5.53,5.53L102.37,114.9,217.28,0"/><path fill="#002b53" d="M217.27,80l15.28,15.28-15.29,15.28L202,95.28,217.27,80"/><path fill="#001a5a" d="M0,292.36v-.42H11.91a15.67,15.67,0,0,1,5.26.81A10.81,10.81,0,0,1,21,295a9.24,9.24,0,0,1,2.27,3.17,9.39,9.39,0,0,1,.75,3.71,9.72,9.72,0,0,1-.7,3.66,8.31,8.31,0,0,1-2.21,3.13,10.92,10.92,0,0,1-3.94,2.19,17.84,17.84,0,0,1-5.62.81q-1,0-3.9-.3v12.53q0,3.87,3.94,4v.4H0v-.4a4.37,4.37,0,0,0,2.8-1,3.75,3.75,0,0,0,1.1-3V296.4a4.9,4.9,0,0,0-.4-2.09,2.89,2.89,0,0,0-.92-1.2,3.77,3.77,0,0,0-1.19-.53c-.43-.12-.73-.19-.9-.22Zm7.62.86v17.11a20.94,20.94,0,0,0,3.75.35,9.85,9.85,0,0,0,6-1.81q2.45-1.81,2.45-6.72a10.07,10.07,0,0,0-2.16-6.65q-2.16-2.6-6.54-2.6A19.85,19.85,0,0,0,7.62,293.22Z"/><path fill="#001a5a" d="M67.87,310.14a18.76,18.76,0,0,1-2.53,9.49,19.08,19.08,0,0,1-6.89,7,18.56,18.56,0,0,1-9.67,2.6A19.2,19.2,0,0,1,29.47,310a18.77,18.77,0,0,1,5.76-13.64,19.68,19.68,0,0,1,6.22-4,19.29,19.29,0,0,1,14.43-.06A19.25,19.25,0,0,1,62,296.2a18.83,18.83,0,0,1,4.27,6.14A19.2,19.2,0,0,1,67.87,310.14Zm-4.34.09q0-7.25-2.57-11.34A13.09,13.09,0,0,0,55,293.41,15.15,15.15,0,0,0,44,292.76a13.57,13.57,0,0,0-4.79,2.75,14.66,14.66,0,0,0-3.84,5.62,23.53,23.53,0,0,0-1.5,9,24.33,24.33,0,0,0,1.24,8.17,15.29,15.29,0,0,0,3.43,5.7,13.28,13.28,0,0,0,4.81,3.18,15.49,15.49,0,0,0,10.6.07,13.23,13.23,0,0,0,4.76-2.93,14.65,14.65,0,0,0,3.5-5.53A23.65,23.65,0,0,0,63.53,310.23Z"/><path fill="#001a5a" d="M74.19,292.46h-.5v-.52H86.27a12.52,12.52,0,0,1,5.14.94,8.56,8.56,0,0,1,3.28,2.37,9.39,9.39,0,0,1,1.68,3.05,10.68,10.68,0,0,1,.5,3.16,9,9,0,0,1-.82,3.78,8.15,8.15,0,0,1-2.54,3.12,10,10,0,0,1-4.28,1.78v.09c2.17,1.06,4.17,3.14,6,6.27l3.27,5.55a17.45,17.45,0,0,0,3.57,4.71,5.37,5.37,0,0,0,2.65,1.1v.4H98.13c-.28-.36-.54-.71-.79-1.05l-.79-1.07L95.82,325c-.32-.5-.51-.79-.57-.85L90.91,317a18.63,18.63,0,0,0-2.68-3.56,10.14,10.14,0,0,0-2.55-2,7.29,7.29,0,0,0-2.14-.74,14.39,14.39,0,0,0-2.23-.15v13.29q0,3.87,4,4v.4H73.69v-.4a5.43,5.43,0,0,0,1.93-.4A3.05,3.05,0,0,0,77,326.22a4.32,4.32,0,0,0,.56-2.35V296.4a3.85,3.85,0,0,0-1.06-3.06A3.54,3.54,0,0,0,74.19,292.46Zm7.12,17.16h2.07a13,13,0,0,0,5.34-.94,6.13,6.13,0,0,0,3-2.67,8.82,8.82,0,0,0,.94-4.26,10.52,10.52,0,0,0-.84-4.1A7.62,7.62,0,0,0,89,294.27a11.49,11.49,0,0,0-7.68-1.15Z"/><path fill="#001a5a" d="M155.53,290.14a4.24,4.24,0,0,1-3.65,1.8H108.57a10.73,10.73,0,0,1-1.49-.09,4.1,4.1,0,0,1-1.1-.29,2.41,2.41,0,0,1-.76-.51,5.42,5.42,0,0,1-.69-.91h-.4V299h.4c.19-2.37.89-3.91,2.08-4.6a8.62,8.62,0,0,1,4.43-1.05h7.22v30.5a3.69,3.69,0,0,1-1.12,3.05,4.47,4.47,0,0,1-2.75.94v.4H126v-.4q-3.95-.12-3.94-4v-30.5h16v30.5a3.69,3.69,0,0,1-1.12,3.05,4.47,4.47,0,0,1-2.75.94v.4h11.56v-.4q-3.94-.12-3.94-4v-30.5H149a8.68,8.68,0,0,1,4.44,1.05c1.2.69,1.89,2.23,2.07,4.6h.4v-8.88Z"/><path fill="#001a5a" d="M198,310.14a18.75,18.75,0,0,1-2.52,9.49,19.19,19.19,0,0,1-6.9,7,18.55,18.55,0,0,1-9.66,2.6A19.18,19.18,0,0,1,159.56,310a18.77,18.77,0,0,1,5.76-13.64,19.63,19.63,0,0,1,6.21-4,19.26,19.26,0,0,1,20.59,3.89,18.86,18.86,0,0,1,4.28,6.14A19.19,19.19,0,0,1,198,310.14Zm-4.34.09q0-7.25-2.56-11.34a13.09,13.09,0,0,0-5.92-5.48,15.15,15.15,0,0,0-11.07-.65,13.69,13.69,0,0,0-4.8,2.75,14.65,14.65,0,0,0-3.83,5.62,23.52,23.52,0,0,0-1.51,9,24.32,24.32,0,0,0,1.25,8.17,15.16,15.16,0,0,0,3.43,5.7,13.2,13.2,0,0,0,4.81,3.18,15.49,15.49,0,0,0,10.6.07,13.31,13.31,0,0,0,4.76-2.93,14.77,14.77,0,0,0,3.5-5.53A23.88,23.88,0,0,0,193.61,310.23Z"/><path fill="#001a5a" d="M235.67,328.26H222.09v-.4h.49a3.27,3.27,0,0,0,2.38-1,4.11,4.11,0,0,0,1-3V296.45a4.45,4.45,0,0,0-.93-3,3.11,3.11,0,0,0-2.5-1.07h-.44v-.42H234a12.94,12.94,0,0,1,4.31.68,9.74,9.74,0,0,1,3.34,1.87,8.48,8.48,0,0,1,2.11,2.71,7.45,7.45,0,0,1,.74,3.29,7.08,7.08,0,0,1-2.12,5.33,12.73,12.73,0,0,1-5.69,3v.1a24,24,0,0,1,3.13.52,11.85,11.85,0,0,1,2.71,1,10.08,10.08,0,0,1,2.27,1.6,9.34,9.34,0,0,1,1.62,1.95,8.36,8.36,0,0,1,1,2.3,9.52,9.52,0,0,1,.34,2.56,8.15,8.15,0,0,1-1.47,4.88,10.5,10.5,0,0,1-3.31,3.1A15.2,15.2,0,0,1,235.67,328.26Zm-6-19.65h2.36a10.53,10.53,0,0,0,4.15-.59,9.44,9.44,0,0,0,1.63-1.09,6.84,6.84,0,0,0,1.63-2.17,7.6,7.6,0,0,0,.78-3.58,9.11,9.11,0,0,0-.52-3.09,8,8,0,0,0-1.5-2.6,7.14,7.14,0,0,0-2.34-1.78,7,7,0,0,0-3-.64,11.51,11.51,0,0,0-3.23.54Zm3.72,1.11h-3.72v13.09A7.92,7.92,0,0,0,230,325a2.74,2.74,0,0,0,1.42,1.52,7.67,7.67,0,0,0,3.58.64q5,0,7.12-3.33a9.43,9.43,0,0,0,1.46-5.15,9.26,9.26,0,0,0-.73-3.75,7.74,7.74,0,0,0-2-2.8,9.05,9.05,0,0,0-3.19-1.76A13.1,13.1,0,0,0,233.43,309.72Z"/><path fill="#001a5a" d="M252.55,327.86H253a3.21,3.21,0,0,0,2.36-1,4.05,4.05,0,0,0,1-2.95V296.45a3.78,3.78,0,0,0-1.15-3.16,4.53,4.53,0,0,0-2.72-.93v-.42h11.61v.42a4.69,4.69,0,0,0-2.71.91,3.71,3.71,0,0,0-1.18,3.18V323a3.91,3.91,0,0,0,1.18,3.28,6.41,6.41,0,0,0,3.87.91h3.13a8.9,8.9,0,0,0,3.27-.49,4.22,4.22,0,0,0,1.93-1.51,13.84,13.84,0,0,0,1.46-2.86h.42l-1.38,6h-21.6Z"/><path fill="#001a5a" d="M295.71,291.49l10.87,31.12a15.55,15.55,0,0,0,1.63,3.5,3.65,3.65,0,0,0,1.47,1.37,6.07,6.07,0,0,0,1.78.38v.4H299.6v-.4a8.87,8.87,0,0,0,2.81-.34c.66-.23,1-.86,1-1.87a7.69,7.69,0,0,0-.47-2.25.89.89,0,0,1-.1-.29l-3.23-9.64H287l-2.89,8.92a10.28,10.28,0,0,0-.59,2.93,2.32,2.32,0,0,0,.76,2,3.93,3.93,0,0,0,2.18.5v.4H278v-.4a4.29,4.29,0,0,0,2.93-1.39,10.52,10.52,0,0,0,1.91-3.71L293,291.49Zm-8.26,20.67H299l-5.92-17.24H293Z"/><path fill="#001a5a" d="M352.92,291.94v.42a7.62,7.62,0,0,0-2.18.53,2.48,2.48,0,0,0-1.24,1.4,8,8,0,0,0-.45,3v31.86h-.25l-27.88-31.12v22.34a28,28,0,0,0,.22,4.15,4.84,4.84,0,0,0,.64,1.94,3.83,3.83,0,0,0,3.18,1.38v.4h-9.1v-.4a4.58,4.58,0,0,0,2.38-.65,3.33,3.33,0,0,0,1.21-2.12,22.14,22.14,0,0,0,.36-4.65V296.75l-1.21-1.36a10.29,10.29,0,0,0-2.57-2.31,8.45,8.45,0,0,0-2.39-.72v-.42h6.83l27.47,30.77V299.26a27,27,0,0,0-.21-3.94,3.43,3.43,0,0,0-1.11-2.1,4.46,4.46,0,0,0-2.82-.86v-.42Z"/><path fill="#001a5a" d="M390.56,300.08h-.42a7.81,7.81,0,0,0-2.5-4.52,12.76,12.76,0,0,0-4.68-2.7A16.33,16.33,0,0,0,378,292a13.39,13.39,0,0,0-5.88,1.32,14.13,14.13,0,0,0-4.75,3.72,17.57,17.57,0,0,0-3.1,5.78,23.19,23.19,0,0,0-1.11,7.31,22.4,22.4,0,0,0,1.07,7.08,16.75,16.75,0,0,0,3.13,5.68,13.75,13.75,0,0,0,4.77,3.63,14.28,14.28,0,0,0,6,1.24,19,19,0,0,0,6.07-1.13,15.51,15.51,0,0,0,6-3.73v1.4a28.72,28.72,0,0,1-6,3.73,17.08,17.08,0,0,1-6.79,1.18,19.21,19.21,0,0,1-7.83-1.56,17.9,17.9,0,0,1-6-4.23,18.5,18.5,0,0,1-3.7-6,19.15,19.15,0,0,1-1.26-6.85,19.46,19.46,0,0,1,2.61-9.85,19.71,19.71,0,0,1,7.08-7.2,18.64,18.64,0,0,1,9.69-2.65,27,27,0,0,1,6.88,1l2.57.71a6.45,6.45,0,0,0,1.25.15,2.06,2.06,0,0,0,1.29-.28,2,2,0,0,0,.49-1h.39Z"/><path fill="#001a5a" d="M434.7,310.14a18.75,18.75,0,0,1-2.52,9.49,19.24,19.24,0,0,1-6.89,7,18.59,18.59,0,0,1-9.67,2.6A19.18,19.18,0,0,1,396.31,310a18.77,18.77,0,0,1,5.76-13.64,19.75,19.75,0,0,1,6.21-4,19.26,19.26,0,0,1,20.59,3.89,18.71,18.71,0,0,1,4.28,6.14A19.19,19.19,0,0,1,434.7,310.14Zm-4.33.09q0-7.25-2.57-11.34a13.09,13.09,0,0,0-5.92-5.48,15.15,15.15,0,0,0-11.07-.65,13.69,13.69,0,0,0-4.8,2.75,14.65,14.65,0,0,0-3.83,5.62,23.53,23.53,0,0,0-1.5,9,24.33,24.33,0,0,0,1.24,8.17,15.29,15.29,0,0,0,3.43,5.7,13.2,13.2,0,0,0,4.81,3.18,15.49,15.49,0,0,0,10.6.07,13.23,13.23,0,0,0,4.76-2.93,14.77,14.77,0,0,0,3.5-5.53A23.65,23.65,0,0,0,430.37,310.23Z"/><path fill="#001a5a" d="M24.31,368.89a12.65,12.65,0,0,0-9.53-4.31A12.45,12.45,0,0,0,2.12,377.14c0,8.12,7,12.35,12.71,12.35a13.33,13.33,0,0,0,9.48-4.15v2.38a14.47,14.47,0,0,1-9.4,3.41c-8.47,0-14.74-6.44-14.74-14.07a14.32,14.32,0,0,1,14.66-14.12,13.93,13.93,0,0,1,9.48,3.57Z"/><path fill="#001a5a" d="M61.92,363.31v27.37H60.06V363.31Z"/><path fill="#001a5a" d="M98.89,390.68l3.22-28.31,12.24,25.31,12.24-25.31,3.22,28.31H128l-2.5-22s-11.06,23-11.1,23l-11.09-23-2.5,22Z"/><path fill="#001a5a" d="M181,381.69h-12l-3.77,9h-2L175,362.49l11.73,28.19h-2Zm-.68-1.64-5.29-13-5.38,13Z"/><path fill="#001a5a" d="M224.59,365v25.73h-1.86V365H215.4v-1.64h16.52V365Z"/><path fill="#001a5a" d="M278.38,381.69h-12l-3.77,9h-2l11.9-28.19,11.73,28.19h-2Zm-.68-1.64-5.29-13-5.38,13Z"/><path fill="#001a5a" d="M330.09,390.68l-9.15-12.93h-.85v12.93h-1.86V363.31h4.06a10.19,10.19,0,0,1,6,1.4,6.73,6.73,0,0,1,2.92,5.86,6.59,6.59,0,0,1-4.75,6.65,11.13,11.13,0,0,1-3.47.53l9.23,12.93Zm-10-14.57h2.71c4,0,6.44-2.05,6.44-5.58a5.07,5.07,0,0,0-2.5-4.76,10.44,10.44,0,0,0-4.32-.82h-2.33Z"/><path fill="#001a5a" d="M369.56,363.31v27.37h-1.87V363.31Z"/><path fill="#001a5a" d="M434.61,377.06c0,7.87-6.4,14.07-14.66,14.07s-14.65-6.2-14.65-14.07,6.4-14.12,14.65-14.12S434.61,369.18,434.61,377.06Zm-1.95,0A12.71,12.71,0,1,0,420,389.49,12.35,12.35,0,0,0,432.66,377.06Z"/><polygon fill="#37a3ca" points="434.66 343.17 5.28 343.17 0.03 348.42 429.42 348.42 434.66 343.17"/></g></g></svg>