<svg xmlns="http://www.w3.org/2000/svg" viewBox="0 0 71.49 71.41"><defs><style>.cls-1{fill:#f6f4ef;}</style></defs><title>logo-img</title><g id="Capa_2" data-name="Capa 2"><g id="Capa_1-2" data-name="Capa 1"><polygon class="cls-1" points="35.78 10.37 13.41 32.68 15.45 34.71 35.78 14.44 67.42 46.08 46.15 67.34 38.7 59.9 36.67 61.93 46.15 71.41 71.49 46.08 35.78 10.37"/><polygon class="cls-1" points="56.08 36.6 25.34 67.34 4.07 46.08 11.55 38.6 9.52 36.57 0 46.08 25.34 71.41 58.12 38.63 56.08 36.6"/><polygon class="cls-1" points="34.82 55.99 9.36 30.48 35.78 4.07 62.2 30.48 59.97 32.71 62.01 34.74 66.27 30.48 35.78 0 5.29 30.48 32.78 58.02 34.82 55.99"/><rect class="cls-1" x="32.54" y="22.15" width="6.46" height="6.46" transform="translate(-7.47 32.73) rotate(-45)"/></g></g></svg>