<svg xmlns="http://www.w3.org/2000/svg" viewBox="0 0 187.3 169"><defs><style>.cls-1{fill:#012856;}.cls-2{fill:#07a4cc;}</style></defs><g id="Capa_2" data-name="Capa 2"><g id="Capa_1-2" data-name="Capa 1"><path class="cls-1" d="M93.6,17.2l58.1,58.1-41,41L95,100.6l2.4-2.4L110.2,111l.5.5.5-.5,35.2-35.2.5-.5-.5-.5L94,22.4l-.5-.5-.5.5-34.2,34L56.4,54,93.6,17.2"/><path class="cls-1" d="M51.1,59.6,53.5,62,40.6,74.9l-.5.5.5.5,35.2,35.2.5.5.5-.5,51.4-51.4,2.4,2.4L76.3,116.3l-41-41Z"/><path class="cls-1" d="M93.6,0l49.5,49.5-7,7-2.4-2.4,4.2-4.2.5-.5-.5-.5L94.1,5.3l-.5-.5-.5.5L49.4,49l-.5.5.5.5L92,92.7l-2.4,2.4L44.1,49.5,93.6,0"/><path class="cls-1" d="M93.6,34.5l6.6,6.6-6.6,6.6L87,41.1l6.6-6.6"/><polygon class="cls-2" points="187.2 147.8 2.3 147.8 0.1 150.1 185 150.1 187.2 147.8"/><path class="cls-1" d="M.1,125.9v-.2H5.2a5.56,5.56,0,0,1,2.3.4,3.66,3.66,0,0,1,1.6,1,4.51,4.51,0,0,1,1,1.4,4.15,4.15,0,0,1,.3,1.6,4.53,4.53,0,0,1-.3,1.6,2.56,2.56,0,0,1-1,1.3,3.93,3.93,0,0,1-1.7.9,8.6,8.6,0,0,1-2.4.4,13.92,13.92,0,0,1-1.7-.1v5.4A1.53,1.53,0,0,0,5,141.3v.2H0v-.2a2.14,2.14,0,0,0,1.2-.4,1.73,1.73,0,0,0,.5-1.3V127.8a2,2,0,0,0-.2-.9,1,1,0,0,0-.4-.5c-.2-.1-.3-.2-.5-.2s-.3-.1-.4-.1H.1Zm3.3.4v7.4a8.6,8.6,0,0,0,1.6.1,4.46,4.46,0,0,0,2.6-.8,3.42,3.42,0,0,0,1.1-2.9,4.56,4.56,0,0,0-.9-2.9A3.61,3.61,0,0,0,5,126.1C4.4,126.2,3.9,126.2,3.4,126.3Z"/><path class="cls-1" d="M29.3,133.6a8.39,8.39,0,0,1-1.1,4.1,7.23,7.23,0,0,1-3,3,8.48,8.48,0,0,1-4.2,1.1,8.77,8.77,0,0,1-4.2-1.1,7.86,7.86,0,0,1-3-3,8.11,8.11,0,0,1-1.1-4.1,7.11,7.11,0,0,1,.7-3.2,6.77,6.77,0,0,1,1.8-2.6,7.71,7.71,0,0,1,2.7-1.7,8.31,8.31,0,0,1,6.2,0,7.82,7.82,0,0,1,2.6,1.7,6.77,6.77,0,0,1,1.8,2.6A5.66,5.66,0,0,1,29.3,133.6Zm-1.9,0a9.61,9.61,0,0,0-1.1-4.9,5.69,5.69,0,0,0-2.5-2.4,7.37,7.37,0,0,0-2.7-.6,6.93,6.93,0,0,0-2,.3,5.66,5.66,0,0,0-2.1,1.2,7.36,7.36,0,0,0-1.7,2.4,10.65,10.65,0,0,0-.6,3.9,12.3,12.3,0,0,0,.5,3.5,7,7,0,0,0,1.5,2.5,6,6,0,0,0,2.1,1.4,6.37,6.37,0,0,0,2.4.4,5.7,5.7,0,0,0,2.2-.4,6.25,6.25,0,0,0,2-1.3,7,7,0,0,0,1.5-2.4A11.52,11.52,0,0,0,27.4,133.6Z"/><path class="cls-1" d="M32,126h-.2v-.2h5.4a4.81,4.81,0,0,1,2.2.4,3.88,3.88,0,0,1,1.4,1,4.15,4.15,0,0,1,.7,1.3,6.75,6.75,0,0,1,.2,1.4,2.93,2.93,0,0,1-.4,1.6,2.76,2.76,0,0,1-1.1,1.3,4.94,4.94,0,0,1-1.8.8h0a7.51,7.51,0,0,1,2.6,2.7l1.4,2.4a6.24,6.24,0,0,0,1.5,2,3.45,3.45,0,0,0,1.1.5v.2H42.2c-.1-.2-.2-.3-.3-.5a2.19,2.19,0,0,1-.3-.5,2.19,2.19,0,0,1-.3-.5c-.1-.2-.2-.3-.2-.4l-1.9-3.1a9.83,9.83,0,0,0-1.2-1.5,3.32,3.32,0,0,0-1.1-.8,1.61,1.61,0,0,0-.9-.3c-.3,0-.6-.1-1-.1v5.7a1.53,1.53,0,0,0,1.7,1.7v.2h-5v-.2a1.88,1.88,0,0,0,.8-.2,2.65,2.65,0,0,0,.6-.5,1.64,1.64,0,0,0,.2-1V127.6a1.58,1.58,0,0,0-.5-1.3C32.7,126.1,32.4,126,32,126Zm3.1,7.4H36a5.27,5.27,0,0,0,2.3-.4,3,3,0,0,0,1.3-1.2A3.42,3.42,0,0,0,40,130a3.92,3.92,0,0,0-.4-1.8,2.89,2.89,0,0,0-1.2-1.5,4.14,4.14,0,0,0-2.3-.6,3.08,3.08,0,0,0-1,.1Z"/><path class="cls-1" d="M67,125a1.94,1.94,0,0,1-1.6.8H46.3c-.2,0-.3-.1-.5-.1s-.2-.1-.3-.2a1.38,1.38,0,0,1-.3-.4H45v3.8h.2a2.52,2.52,0,0,1,.9-2,3.56,3.56,0,0,1,1.9-.5h3.1v13.1a1.58,1.58,0,0,1-.5,1.3,1.59,1.59,0,0,1-1.2.4v.2h5v-.2a1.53,1.53,0,0,1-1.7-1.7V126.4h6.9v13.1a1.58,1.58,0,0,1-.5,1.3,1.59,1.59,0,0,1-1.2.4v.2h5v-.2a1.53,1.53,0,0,1-1.7-1.7V126.4h3.1a3.56,3.56,0,0,1,1.9.5,2.52,2.52,0,0,1,.9,2h.2v-3.8H67Z"/><path class="cls-1" d="M85.3,133.6a8.39,8.39,0,0,1-1.1,4.1,7.23,7.23,0,0,1-3,3,8.48,8.48,0,0,1-4.2,1.1,8.77,8.77,0,0,1-4.2-1.1,7.86,7.86,0,0,1-3-3,8.11,8.11,0,0,1-1.1-4.1,7.11,7.11,0,0,1,.7-3.2,6.77,6.77,0,0,1,1.8-2.6,7.71,7.71,0,0,1,2.7-1.7,8.31,8.31,0,0,1,6.2,0,7.82,7.82,0,0,1,2.6,1.7,6.77,6.77,0,0,1,1.8,2.6A5.66,5.66,0,0,1,85.3,133.6Zm-1.9,0a9.61,9.61,0,0,0-1.1-4.9,5.69,5.69,0,0,0-2.5-2.4,7.37,7.37,0,0,0-2.7-.6,6.93,6.93,0,0,0-2,.3,5.66,5.66,0,0,0-2.1,1.2,7.36,7.36,0,0,0-1.7,2.4,10.65,10.65,0,0,0-.6,3.9,12.3,12.3,0,0,0,.5,3.5,7,7,0,0,0,1.5,2.5,5.53,5.53,0,0,0,2.1,1.4,6.37,6.37,0,0,0,2.4.4,5.7,5.7,0,0,0,2.2-.4,6.25,6.25,0,0,0,2-1.3,7,7,0,0,0,1.5-2.4A9.18,9.18,0,0,0,83.4,133.6Z"/><path class="cls-1" d="M101.6,141.4H95.7v-.2h.2a1.28,1.28,0,0,0,1-.4,1.7,1.7,0,0,0,.4-1.3V127.7a1.7,1.7,0,0,0-.4-1.3,1.43,1.43,0,0,0-1.1-.5h-.2v-.2h5.1a5.82,5.82,0,0,1,1.9.3,4.68,4.68,0,0,1,1.4.8,2.73,2.73,0,0,1,.9,1.2,3.4,3.4,0,0,1-.6,3.7,5.39,5.39,0,0,1-2.5,1.3h0a5.07,5.07,0,0,1,1.3.2,5.64,5.64,0,0,1,1.2.4,6.07,6.07,0,0,1,1,.7,5,5,0,0,1,.7.8,3,3,0,0,1,.4,1,4.1,4.1,0,0,1,.1,1.1,3.7,3.7,0,0,1-.6,2.1,4.27,4.27,0,0,1-1.4,1.3A4,4,0,0,1,101.6,141.4ZM99,132.9h1a4.18,4.18,0,0,0,1.8-.3,3,3,0,0,0,.7-.5,3.51,3.51,0,0,0,.7-.9,3.34,3.34,0,0,0,.3-1.5,5.07,5.07,0,0,0-.2-1.3,3.88,3.88,0,0,0-.6-1.1,2.72,2.72,0,0,0-1-.8,2.77,2.77,0,0,0-1.3-.3,7.84,7.84,0,0,0-1.4.2Zm1.6.5H99V139a2.22,2.22,0,0,0,.1.9,1.34,1.34,0,0,0,.6.7,2.81,2.81,0,0,0,1.5.3,3.55,3.55,0,0,0,3.1-1.4,4.28,4.28,0,0,0,.6-2.2,4.15,4.15,0,0,0-.3-1.6,2.73,2.73,0,0,0-.9-1.2,4.87,4.87,0,0,0-3.1-1.1Z"/><path class="cls-1" d="M108.8,141.2h.2a1.39,1.39,0,0,0,1-.5,1.7,1.7,0,0,0,.4-1.3V127.6a1.81,1.81,0,0,0-.5-1.4,1.59,1.59,0,0,0-1.2-.4v-.2h5v.2a1.92,1.92,0,0,0-1.2.4,1.67,1.67,0,0,0-.5,1.4V139a1.67,1.67,0,0,0,.5,1.4,2.5,2.5,0,0,0,1.7.4h1.3a4.64,4.64,0,0,0,1.4-.2,1.7,1.7,0,0,0,.8-.6,6.66,6.66,0,0,0,.6-1.2h.2l-.6,2.6h-9.3v-.2Z"/><path class="cls-1" d="M127.4,125.6l4.7,13.4a5.29,5.29,0,0,0,.7,1.5,1.7,1.7,0,0,0,.6.6c.2.1.5.1.8.2v.2h-5.1v-.2a4.12,4.12,0,0,0,1.2-.1c.3-.1.4-.4.4-.8a5.76,5.76,0,0,0-.2-1v-.1l-1.4-4.2h-5.4l-1.2,3.8a3.45,3.45,0,0,0-.3,1.3,1.22,1.22,0,0,0,.3.9,2,2,0,0,0,.9.2v.2h-3.7v-.2a1.76,1.76,0,0,0,1.3-.6,4.77,4.77,0,0,0,.8-1.6l4.4-13.5Zm-3.5,8.9h5l-2.5-7.4h0Z"/><path class="cls-1" d="M152,125.8v.2a2,2,0,0,0-.9.2,1,1,0,0,0-.5.6,3.92,3.92,0,0,0-.2,1.3v13.7h-.1l-12-13.4V138a8.66,8.66,0,0,0,.1,1.8,2.19,2.19,0,0,0,.3.8,1.56,1.56,0,0,0,1.4.6v.2h-3.9v-.2a1.49,1.49,0,0,0,1-.3,1.93,1.93,0,0,0,.5-.9,8.75,8.75,0,0,0,.2-2V127.8l-.5-.6c-.5-.5-.8-.9-1.1-1s-.6-.2-1-.3v-.2h2.9L150,139V128.9a7.63,7.63,0,0,0-.1-1.7,1.35,1.35,0,0,0-.5-.9,2.14,2.14,0,0,0-1.2-.4v-.2H152Z"/><path class="cls-1" d="M168.3,129.3h-.2a2.87,2.87,0,0,0-1.1-1.9,8.17,8.17,0,0,0-2-1.2,9.54,9.54,0,0,0-2.1-.4,5.42,5.42,0,0,0-2.5.6,5.26,5.26,0,0,0-2,1.6,6.61,6.61,0,0,0-1.3,2.5,9.86,9.86,0,0,0,0,6.2,7.83,7.83,0,0,0,1.3,2.4,6.87,6.87,0,0,0,2.1,1.6,5.5,5.5,0,0,0,2.6.5,8.51,8.51,0,0,0,2.6-.5,8,8,0,0,0,2.6-1.6v.6a10.78,10.78,0,0,1-2.6,1.6,8.36,8.36,0,0,1-2.9.5,7.67,7.67,0,0,1-3.4-.7,8.06,8.06,0,0,1-2.6-1.8,8.69,8.69,0,0,1-1.6-2.6,7.58,7.58,0,0,1-.5-3,8.77,8.77,0,0,1,1.1-4.2,9.88,9.88,0,0,1,3-3.1,7.77,7.77,0,0,1,4.2-1.1,11.28,11.28,0,0,1,3,.4l1.1.3a4.33,4.33,0,0,1,.5.1c.3,0,.5,0,.6-.1a.52.52,0,0,0,.2-.4h.2Z"/><path class="cls-1" d="M187.3,133.6a8.39,8.39,0,0,1-1.1,4.1,7.23,7.23,0,0,1-3,3,8.48,8.48,0,0,1-4.2,1.1,8.77,8.77,0,0,1-4.2-1.1,7.86,7.86,0,0,1-3-3,8.11,8.11,0,0,1-1.1-4.1,7.11,7.11,0,0,1,.7-3.2,6.77,6.77,0,0,1,1.8-2.6,7.71,7.71,0,0,1,2.7-1.7,8.31,8.31,0,0,1,6.2,0,7.82,7.82,0,0,1,2.6,1.7,6.77,6.77,0,0,1,1.8,2.6A6.6,6.6,0,0,1,187.3,133.6Zm-1.9,0a9.61,9.61,0,0,0-1.1-4.9,5.69,5.69,0,0,0-2.5-2.4,7.37,7.37,0,0,0-2.7-.6,6.93,6.93,0,0,0-2,.3,5.66,5.66,0,0,0-2.1,1.2,7.36,7.36,0,0,0-1.7,2.4,10.65,10.65,0,0,0-.6,3.9,12.3,12.3,0,0,0,.5,3.5,7,7,0,0,0,1.5,2.5,6,6,0,0,0,2.1,1.4,6.37,6.37,0,0,0,2.4.4,5.7,5.7,0,0,0,2.2-.4,6.25,6.25,0,0,0,2-1.3,7,7,0,0,0,1.5-2.4A11.52,11.52,0,0,0,185.4,133.6Z"/><path class="cls-1" d="M2,157.2H4.6c2.1,0,3.3,1.2,3.3,2.9a2.7,2.7,0,0,1-1.4,2.5A2.76,2.76,0,0,1,9,165.5c0,2-1.5,3.2-3.7,3.2H2Zm.8,5.2H4.7a2.35,2.35,0,0,0,1.6-.5,2.43,2.43,0,0,0,0-3.6,3.72,3.72,0,0,0-2-.5H2.8Zm0,5.6h2a3.69,3.69,0,0,0,2.6-.7,2.44,2.44,0,0,0,.8-1.8,2.08,2.08,0,0,0-1.3-2.1,6.31,6.31,0,0,0-2.2-.3H2.8V168Z"/><path class="cls-1" d="M43.2,157.9H38.3v4.2h4.8v.7H38.3v5.3h4.9v.7H37.5V157.3h5.7Z"/><path class="cls-1" d="M76.8,168.7l-3.9-5.4h-.4v5.4h-.8V157.2h1.7a4.42,4.42,0,0,1,2.5.6,2.9,2.9,0,0,1,1.2,2.5,2.8,2.8,0,0,1-2,2.8,4.72,4.72,0,0,1-1.5.2l3.9,5.4Zm-4.2-6.1h1.1c1.7,0,2.7-.9,2.7-2.4a2,2,0,0,0-1.1-2,4,4,0,0,0-1.8-.3h-1v4.7Z"/><path class="cls-1" d="M106.1,168.7V157.1l10,10.1v-10h.8V169l-10-10.1v9.8Z"/><path class="cls-1" d="M152.3,164.9h-5.1l-1.6,3.8h-.9l5-11.9,4.9,11.9h-.9Zm-.3-.7-2.2-5.5-2.3,5.5Z"/><path class="cls-1" d="M183.4,157.2V168h3.3v.7h-4.1V157.2Z"/></g></g></svg>