<svg xmlns="http://www.w3.org/2000/svg" viewBox="0 0 113.09 102.49"><defs><style>.cls-1{fill:#211915;}</style></defs><title>logo</title>
<g id="Capa_2" data-name="Capa 2">
	<g id="Capa_1-2" data-name="Capa 1">
		<polygon class="cls-1" points="56.52 10.37 34.16 32.68 36.19 34.71 56.52 14.44 88.16 46.08 66.9 67.34 59.45 59.9 57.41 61.93 66.9 71.41 92.23 46.08 56.52 10.37"/>
		<polygon class="cls-1" points="76.83 36.6 46.08 67.34 24.82 46.08 32.29 38.6 30.26 36.57 20.74 46.08 46.08 71.41 78.86 38.63 76.83 36.6"/>
		<polygon class="cls-1" points="55.56 55.99 30.11 30.48 56.53 4.07 82.94 30.48 80.72 32.71 82.75 34.74 87.01 30.48 56.53 0 26.04 30.48 53.53 58.02 55.56 55.99"/>
		<rect class="cls-1" x="53.29" y="22.15" width="6.46" height="6.46" transform="translate(-1.39 47.4) rotate(-45)"/>
		<path class="cls-1" d="M0,76.65v-.11H3.1a4.11,4.11,0,0,1,1.37.21,3.19,3.19,0,0,1,1,.58,2.48,2.48,0,0,1,.59.83,2.38,2.38,0,0,1,.19,1,2.55,2.55,0,0,1-.18.95,2.09,2.09,0,0,1-.58.82,2.77,2.77,0,0,1-1,.57A4.68,4.68,0,0,1,3,81.67c-.18,0-.52,0-1-.08v3.26a.93.93,0,0,0,1,1V86H0v-.1a1.15,1.15,0,0,0,.73-.25A1,1,0,0,0,1,84.85V77.7a1.24,1.24,0,0,0-.1-.54.73.73,0,0,0-.24-.31,1,1,0,0,0-.31-.14l-.23-.06Zm2,.23v4.45a5.5,5.5,0,0,0,1,.09A2.55,2.55,0,0,0,4.51,81a2.05,2.05,0,0,0,.64-1.75,2.64,2.64,0,0,0-.56-1.73,2.08,2.08,0,0,0-1.7-.68A4.76,4.76,0,0,0,2,76.88Z"/>
		<path class="cls-1" d="M17.66,81.28A4.86,4.86,0,0,1,17,83.75a5,5,0,0,1-1.79,1.81,4.77,4.77,0,0,1-2.52.68,5,5,0,0,1-4.36-2.5,4.92,4.92,0,0,1,.84-6,5.21,5.21,0,0,1,1.61-1,5,5,0,0,1,1.9-.37,5.16,5.16,0,0,1,1.86.35,5,5,0,0,1,1.6,1,4.89,4.89,0,0,1,1.11,1.6A5,5,0,0,1,17.66,81.28Zm-1.13,0a5.6,5.6,0,0,0-.67-3,3.52,3.52,0,0,0-1.54-1.43,4.31,4.31,0,0,0-1.64-.36,4.28,4.28,0,0,0-1.24.2,3.61,3.61,0,0,0-1.25.71,4,4,0,0,0-1,1.47,6,6,0,0,0-.39,2.32,6.19,6.19,0,0,0,.33,2.13A3.8,3.8,0,0,0,10,84.87a3.46,3.46,0,0,0,1.25.83,4,4,0,0,0,1.42.25A4,4,0,0,0,14,85.72,3.59,3.59,0,0,0,15.27,85a4.09,4.09,0,0,0,.91-1.44A6.31,6.31,0,0,0,16.53,81.3Z"/>
		<path class="cls-1" d="M19.3,76.68h-.13v-.14h3.27a3.14,3.14,0,0,1,1.34.25,2.16,2.16,0,0,1,.85.62,2.3,2.3,0,0,1,.44.79,2.65,2.65,0,0,1,.13.82A2.37,2.37,0,0,1,25,80a2.15,2.15,0,0,1-.66.81,2.54,2.54,0,0,1-1.12.47v0a4,4,0,0,1,1.57,1.63l.85,1.44a4.66,4.66,0,0,0,.93,1.23,1.37,1.37,0,0,0,.69.29V86H25.53l-.21-.27-.2-.28-.19-.29a1.13,1.13,0,0,0-.15-.22l-1.13-1.87a4.89,4.89,0,0,0-.7-.93,3,3,0,0,0-.66-.51,2.18,2.18,0,0,0-.56-.19,3.22,3.22,0,0,0-.58,0v3.46a.94.94,0,0,0,1,1V86h-3v-.1a1.27,1.27,0,0,0,.5-.11.74.74,0,0,0,.36-.32,1.08,1.08,0,0,0,.15-.61V77.7a1,1,0,0,0-.28-.79A.87.87,0,0,0,19.3,76.68Zm1.85,4.46h.54a3.43,3.43,0,0,0,1.39-.24,1.65,1.65,0,0,0,.79-.7,2.32,2.32,0,0,0,.24-1.1A2.66,2.66,0,0,0,23.89,78a1.94,1.94,0,0,0-.74-.88,2.94,2.94,0,0,0-2-.3Z"/>
		<path class="cls-1" d="M40.46,76.07a1.08,1.08,0,0,1-1,.47H28.24a2.24,2.24,0,0,1-.38,0,.82.82,0,0,1-.29-.08.58.58,0,0,1-.2-.13,1.47,1.47,0,0,1-.18-.24h-.1v2.31h.1a1.42,1.42,0,0,1,.54-1.19,2.29,2.29,0,0,1,1.16-.28h1.88v7.94a.94.94,0,0,1-.3.79,1.13,1.13,0,0,1-.71.25V86h3v-.1a.93.93,0,0,1-1-1V76.91h4.17v7.94a.93.93,0,0,1-.29.79,1.13,1.13,0,0,1-.71.25V86h3v-.1a.93.93,0,0,1-1-1V76.91h1.88a2.25,2.25,0,0,1,1.15.28,1.37,1.37,0,0,1,.54,1.19h.1V76.07Z"/>
		<path class="cls-1" d="M51.5,81.28a4.86,4.86,0,0,1-.66,2.47,5,5,0,0,1-1.79,1.81,4.77,4.77,0,0,1-2.52.68A4.86,4.86,0,0,1,44,85.56a5,5,0,0,1-2.09-6.28A5.06,5.06,0,0,1,43,77.69a5.21,5.21,0,0,1,1.61-1,5,5,0,0,1,1.9-.37A4.95,4.95,0,0,1,50,77.65a4.89,4.89,0,0,1,1.11,1.6A5,5,0,0,1,51.5,81.28Zm-1.13,0a5.51,5.51,0,0,0-.67-3,3.47,3.47,0,0,0-1.54-1.43,3.93,3.93,0,0,0-2.88-.16,3.61,3.61,0,0,0-1.25.71,3.88,3.88,0,0,0-1,1.47,6,6,0,0,0-.39,2.32A6.2,6.2,0,0,0,43,83.39a3.93,3.93,0,0,0,.89,1.48,3.55,3.55,0,0,0,1.25.83,4,4,0,0,0,1.42.25,4,4,0,0,0,1.34-.23A3.59,3.59,0,0,0,49.11,85,4,4,0,0,0,50,83.52,6.31,6.31,0,0,0,50.37,81.3Z"/>
		<path class="cls-1" d="M61.31,86H57.78v-.1h.12a.85.85,0,0,0,.62-.26,1,1,0,0,0,.26-.78V77.72a1.18,1.18,0,0,0-.24-.79.79.79,0,0,0-.65-.28h-.11v-.11h3.08a3.33,3.33,0,0,1,1.12.18,2.44,2.44,0,0,1,.87.49,2.16,2.16,0,0,1,.55.7,1.93,1.93,0,0,1,.19.86A1.81,1.81,0,0,1,63,80.15a3.33,3.33,0,0,1-1.48.79v0a7.39,7.39,0,0,1,.82.14,2.89,2.89,0,0,1,.7.25,2.32,2.32,0,0,1,.59.41,2.47,2.47,0,0,1,.42.51,2,2,0,0,1,.27.6,2.5,2.5,0,0,1,.09.66,2.12,2.12,0,0,1-.38,1.27,2.75,2.75,0,0,1-.87.81A3.84,3.84,0,0,1,61.31,86Zm-1.55-5.11h.61a2.75,2.75,0,0,0,1.08-.15,2.5,2.5,0,0,0,.43-.29,1.74,1.74,0,0,0,.42-.56,1.93,1.93,0,0,0,.2-.93,2.45,2.45,0,0,0-.13-.81,2,2,0,0,0-.39-.67,2,2,0,0,0-.61-.47,1.8,1.8,0,0,0-.77-.16,2.73,2.73,0,0,0-.84.14Zm1,.29h-1v3.4a1.85,1.85,0,0,0,.07.57.68.68,0,0,0,.36.4,2.07,2.07,0,0,0,.93.16A2.05,2.05,0,0,0,63,84.84a2.49,2.49,0,0,0,.38-1.34,2.55,2.55,0,0,0-.19-1,2.16,2.16,0,0,0-.52-.73,2.64,2.64,0,0,0-.83-.46A3.5,3.5,0,0,0,60.73,81.17Z"/>
		<path class="cls-1" d="M65.7,85.89h.13a.84.84,0,0,0,.61-.27,1.06,1.06,0,0,0,.27-.77V77.72a1,1,0,0,0-.3-.82,1.18,1.18,0,0,0-.71-.25v-.11h3v.11a1.23,1.23,0,0,0-.7.24,1,1,0,0,0-.31.83v6.89a1,1,0,0,0,.31.86,1.71,1.71,0,0,0,1,.23h.82a2.23,2.23,0,0,0,.85-.13,1,1,0,0,0,.5-.39,3.33,3.33,0,0,0,.38-.74h.11L71.32,86H65.7Z"/>
		<path class="cls-1" d="M76.93,76.43l2.83,8.09a4,4,0,0,0,.42.91,1,1,0,0,0,.38.36,1.74,1.74,0,0,0,.47.1V86H77.94v-.1a2.28,2.28,0,0,0,.73-.09c.17-.06.26-.22.26-.49a2,2,0,0,0-.12-.58.2.2,0,0,1,0-.08l-.84-2.51H74.67l-.75,2.32a2.76,2.76,0,0,0-.15.77.61.61,0,0,0,.19.53,1,1,0,0,0,.57.13V86H72.31v-.1a1.12,1.12,0,0,0,.76-.36,2.81,2.81,0,0,0,.5-1l2.67-8.13ZM74.78,81.8h3l-1.54-4.48h0Z"/>
		<path class="cls-1" d="M91.81,76.54v.11a2,2,0,0,0-.56.14.64.64,0,0,0-.33.37,2,2,0,0,0-.11.78v8.29h-.07l-7.25-8.1V84A8.92,8.92,0,0,0,83.54,85a1.3,1.3,0,0,0,.17.51,1,1,0,0,0,.83.36V86H82.17v-.1a1.17,1.17,0,0,0,.62-.17.92.92,0,0,0,.32-.55A6,6,0,0,0,83.2,84V77.79l-.32-.35a2.47,2.47,0,0,0-.66-.6,2.35,2.35,0,0,0-.63-.19v-.11h1.78l7.15,8v-6.1a6.49,6.49,0,0,0-.06-1,.8.8,0,0,0-.29-.54,1.11,1.11,0,0,0-.73-.23v-.11Z"/>
		<path class="cls-1" d="M101.6,78.66h-.1a2,2,0,0,0-.66-1.17,3.15,3.15,0,0,0-1.21-.71,4.47,4.47,0,0,0-1.28-.22,3.57,3.57,0,0,0-1.53.34,3.77,3.77,0,0,0-1.24,1,4.51,4.51,0,0,0-.81,1.5,6.17,6.17,0,0,0-.29,1.91,6.06,6.06,0,0,0,.28,1.84,4.35,4.35,0,0,0,.82,1.48,3.52,3.52,0,0,0,1.24.94,3.63,3.63,0,0,0,1.56.32,4.78,4.78,0,0,0,1.58-.29,4,4,0,0,0,1.55-1V85a6.81,6.81,0,0,1-1.56,1,4.33,4.33,0,0,1-1.76.31,4.83,4.83,0,0,1-2-.41,4.5,4.5,0,0,1-1.56-1.1,4.9,4.9,0,0,1-1-1.55,5,5,0,0,1-.33-1.79A5.08,5.08,0,0,1,94,78.83,5.16,5.16,0,0,1,95.82,77a4.89,4.89,0,0,1,2.53-.69,6.94,6.94,0,0,1,1.79.25l.66.18a1.47,1.47,0,0,0,.33,0,.5.5,0,0,0,.33-.07.49.49,0,0,0,.13-.27h.1Z"/>
		<path class="cls-1" d="M113.09,81.28a4.86,4.86,0,0,1-.66,2.47,4.93,4.93,0,0,1-1.79,1.81,4.77,4.77,0,0,1-2.52.68,5,5,0,0,1-5-5,4.81,4.81,0,0,1,.4-2,4.88,4.88,0,0,1,1.1-1.59,5.14,5.14,0,0,1,1.62-1,4.86,4.86,0,0,1,1.89-.37,5.08,5.08,0,0,1,1.86.35,4.93,4.93,0,0,1,1.6,1,4.74,4.74,0,0,1,1.11,1.6A5,5,0,0,1,113.09,81.28Zm-1.13,0a5.51,5.51,0,0,0-.67-3,3.47,3.47,0,0,0-1.54-1.43,3.93,3.93,0,0,0-2.88-.16,3.57,3.57,0,0,0-1.24.71,3.78,3.78,0,0,0-1,1.47,6,6,0,0,0-.39,2.32,6.2,6.2,0,0,0,.32,2.13,3.93,3.93,0,0,0,.89,1.48,3.55,3.55,0,0,0,1.25.83,4,4,0,0,0,1.42.25,4,4,0,0,0,1.34-.23A3.5,3.5,0,0,0,110.7,85a4,4,0,0,0,.91-1.44A6.31,6.31,0,0,0,112,81.3Z"/>
		<path class="cls-1" d="M6.33,96.56a3.33,3.33,0,0,0-2.48-1.12,3.24,3.24,0,1,0,0,6.48,3.47,3.47,0,0,0,2.47-1.08v.62a3.79,3.79,0,0,1-2.45.89,3.67,3.67,0,1,1,0-7.34,3.68,3.68,0,0,1,2.47.93Z"/>
		<path class="cls-1" d="M16.11,95.11v7.12h-.49V95.11Z"/>
		<path class="cls-1" d="M25.73,102.23l.83-7.36,3.19,6.58,3.18-6.58.84,7.36h-.48l-.66-5.72s-2.87,6-2.88,6l-2.89-6-.65,5.72Z"/>
		<path class="cls-1" d="M47.08,99.89H44l-1,2.34h-.53l3.1-7.33,3.05,7.33h-.53Zm-.18-.42-1.37-3.38-1.4,3.38Z"/>
		<path class="cls-1" d="M58.43,95.54v6.69h-.49V95.54H56v-.43h4.29v.43Z"/>
		<path class="cls-1" d="M72.42,99.89H69.29l-1,2.34h-.53l3.1-7.33,3.05,7.33H73.4Zm-.18-.42-1.37-3.38-1.4,3.38Z"/>
		<path class="cls-1" d="M85.87,102.23l-2.38-3.36h-.22v3.36h-.48V95.11h1.06a2.64,2.64,0,0,1,1.55.36A1.77,1.77,0,0,1,86.16,97a1.72,1.72,0,0,1-1.24,1.73,2.79,2.79,0,0,1-.9.14l2.4,3.36Zm-2.6-3.79H84c1,0,1.67-.53,1.67-1.45A1.31,1.31,0,0,0,85,95.75a2.71,2.71,0,0,0-1.12-.21h-.61Z"/>
		<path class="cls-1" d="M96.14,95.11v7.12h-.48V95.11Z"/>
		<path class="cls-1" d="M113.06,98.69A3.81,3.81,0,1,1,109.25,95,3.69,3.69,0,0,1,113.06,98.69Zm-.5,0a3.31,3.31,0,1,0-3.31,3.23A3.21,3.21,0,0,0,112.56,98.69Z"/>
		<polygon class="cls-1" points="113.08 89.87 1.38 89.87 0.01 91.24 111.72 91.24 113.08 89.87"/>
	</g>
</g>
</svg>