<svg xmlns="http://www.w3.org/2000/svg" viewBox="0 0 338.71 311.78"><defs><style>.cls-1{fill:#f6f4ef;}.cls-2,.cls-3,.cls-4{fill:none;stroke:#f6f4ef;stroke-miterlimit:10;}.cls-2{stroke-width:0.21px;}.cls-3{stroke-width:0.39px;}.cls-4{stroke-width:0.37px;}</style></defs><title>lotes-ghi</title><g id="Capa_2" data-name="Capa 2"><g id="Capa_1-2" data-name="Capa 1"><path class="cls-1" d="M6.78,151.65a2.27,2.27,0,0,0,.3-1.05c0-.83-.53-1.08-.92-1.08-.67,0-1,.61-1,1.23v.36H4.73v-.36c0-.47-.24-1.06-.81-1.06-.37,0-.71.24-.71.83a1.78,1.78,0,0,0,.31.95l-.46.17a2.28,2.28,0,0,1-.37-1.24c0-.94.56-1.36,1.13-1.36a1.18,1.18,0,0,1,1.12.88H5a1.24,1.24,0,0,1,1.22-1.06c.76,0,1.42.59,1.42,1.73a2.33,2.33,0,0,1-.32,1.23Z"/><path class="cls-1" d="M7.51,146.07H6.22v2.21H5.8l-3-2.12v-.69H5.72v-.67h.5v.67H7.51Zm-1.79,0H4.14c-.25,0-.5,0-.75,0v0l.7.4,1.62,1.16h0Z"/><path class="cls-1" d="M4.94,142.56c-.37,0-.66,0-1,0V142l.57,0v0a1.23,1.23,0,0,1-.65-1.11,1,1,0,0,1,.71-1h0a1.4,1.4,0,0,1-.46-.4,1.2,1.2,0,0,1-.25-.78c0-.46.31-1.16,1.53-1.16H7.51v.63h-2c-.67,0-1.08.25-1.08.77a.84.84,0,0,0,.58.76,1.53,1.53,0,0,0,.32,0H7.51v.62H5.4c-.56,0-1,.25-1,.74a.89.89,0,0,0,.64.8,1.06,1.06,0,0,0,.31.05H7.51v.62Z"/><path class="cls-1" d="M3,135.74H4v-.92h.49v.92H6.38c.43,0,.68-.13.68-.49a1.59,1.59,0,0,0,0-.37l.48,0a1.61,1.61,0,0,1,.09.57.93.93,0,0,1-.27.7,1.33,1.33,0,0,1-.92.24H4.47v.55H4v-.55H3.14Z"/><path class="cls-1" d="M6.86,134.18a1.7,1.7,0,0,0,.25-.84c0-.47-.23-.69-.52-.69s-.48.18-.65.66c-.23.63-.58.93-1,.93a1.09,1.09,0,0,1-1-1.22,1.74,1.74,0,0,1,.22-.87l.47.16a1.38,1.38,0,0,0-.21.73c0,.38.22.59.49.59s.42-.21.59-.67c.24-.62.54-.93,1.07-.93s1.06.48,1.06,1.32a2.07,2.07,0,0,1-.24,1Z"/><path class="cls-1" d="M48,303.59h0l-.82.45-.13-.49,1-.55h.54v4.74H48Z"/><path class="cls-1" d="M50.36,307.74v-.4l.51-.49c1.21-1.15,1.76-1.76,1.76-2.48a.84.84,0,0,0-.94-.92,1.64,1.64,0,0,0-1,.4l-.2-.45a2.08,2.08,0,0,1,1.34-.48,1.33,1.33,0,0,1,1.45,1.37c0,.88-.63,1.59-1.63,2.55l-.38.35h2.13v.54Z"/><path class="cls-1" d="M55.86,305.16c0-.36,0-.66,0-1h.56l0,.57h0a1.21,1.21,0,0,1,1.11-.65,1.05,1.05,0,0,1,1,.7h0a1.51,1.51,0,0,1,.4-.46,1.19,1.19,0,0,1,.78-.24c.46,0,1.16.3,1.16,1.53v2.08h-.63v-2c0-.68-.25-1.09-.77-1.09a.82.82,0,0,0-.75.58,1.08,1.08,0,0,0-.06.33v2.18h-.62v-2.12c0-.56-.25-1-.74-1a1,1,0,0,0-.85,1v2.13h-.62Z"/><path class="cls-1" d="M62.68,303.19v1h.92v.49h-.92v1.9c0,.44.13.68.49.68a1.59,1.59,0,0,0,.37,0l0,.48a1.61,1.61,0,0,1-.57.09.93.93,0,0,1-.7-.27,1.32,1.32,0,0,1-.24-.92V304.7h-.55v-.49h.55v-.85Z"/><path class="cls-1" d="M64.24,307.08a1.7,1.7,0,0,0,.84.26c.47,0,.69-.24.69-.53s-.18-.47-.66-.65-.93-.58-.93-1a1.09,1.09,0,0,1,1.22-1,1.77,1.77,0,0,1,.87.22l-.16.46a1.39,1.39,0,0,0-.73-.2c-.38,0-.59.22-.59.48s.21.42.67.6c.62.23.93.54.93,1.06s-.48,1.06-1.32,1.06a2.07,2.07,0,0,1-1-.24Z"/><path class="cls-1" d="M47,187.16h.95V194h3.15v.83H47Z"/><path class="cls-1" d="M58,190.9c0,2.63-1.54,4-3.42,4s-3.32-1.56-3.32-3.88,1.46-4,3.43-4S58,188.63,58,190.9Zm-5.72.12c0,1.63.85,3.1,2.35,3.1S57,192.68,57,190.94c0-1.52-.77-3.1-2.36-3.1S52.27,189.34,52.27,191Z"/><path class="cls-1" d="M60.35,188H58.11v-.83h5.46V188H61.32v6.81h-1Z"/><path class="cls-1" d="M68.21,191.21H65.34V194h3.2v.83H64.39v-7.64h4V188h-3v2.42h2.87Z"/><path class="cls-1" d="M44.05,208.4v-2h-3.3v-.66L43.92,201h1v4.58h1v.79H45v2Zm0-2.79v-2.46c0-.38,0-.77,0-1.15h0c-.22.43-.39.75-.59,1.09l-1.74,2.5v0Z"/><path class="cls-1" d="M51.42,204.64c0,2.51-.9,3.89-2.48,3.89-1.39,0-2.33-1.35-2.35-3.79s1-3.83,2.47-3.83S51.42,202.29,51.42,204.64Zm-3.87.11c0,1.92.57,3,1.45,3s1.45-1.19,1.45-3.07-.45-3-1.44-3C48.17,201.68,47.55,202.75,47.55,204.75Z"/><path class="cls-1" d="M52.21,206.53a2.1,2.1,0,0,1,1.42-2l0,0a1.84,1.84,0,0,1-1.12-1.66,2,2,0,0,1,2.2-2,1.84,1.84,0,0,1,.89,3.54v0A2,2,0,0,1,57,206.39a2.22,2.22,0,0,1-2.42,2.14A2.13,2.13,0,0,1,52.21,206.53Zm3.83,0c0-.9-.6-1.33-1.56-1.61a1.58,1.58,0,0,0-1.28,1.52,1.33,1.33,0,0,0,1.42,1.4A1.3,1.3,0,0,0,56,206.49ZM53.4,202.8c0,.74.53,1.14,1.35,1.36a1.43,1.43,0,0,0,1.09-1.33,1.13,1.13,0,0,0-1.21-1.21A1.15,1.15,0,0,0,53.4,202.8Z"/><path class="cls-1" d="M60.54,204.4c0-.57,0-1,0-1.48h.84l0,.88h0a1.81,1.81,0,0,1,1.66-1,1.58,1.58,0,0,1,1.5,1.1h0a2.22,2.22,0,0,1,.59-.71,1.77,1.77,0,0,1,1.17-.39c.7,0,1.74.48,1.74,2.38v3.23h-.94v-3.1c0-1.06-.37-1.69-1.15-1.69a1.26,1.26,0,0,0-1.14.91,1.75,1.75,0,0,0-.07.49v3.39h-.95v-3.28c0-.88-.37-1.51-1.1-1.51a1.32,1.32,0,0,0-1.19,1,1.24,1.24,0,0,0-.08.48v3.31h-.94Z"/><path class="cls-1" d="M69.36,208.4v-.61l.75-.76c1.82-1.79,2.64-2.74,2.65-3.85a1.29,1.29,0,0,0-1.41-1.44,2.39,2.39,0,0,0-1.51.62l-.31-.7a3.1,3.1,0,0,1,2-.75,2,2,0,0,1,2.17,2.14c0,1.36-1,2.46-2.45,4l-.57.54v0h3.2v.82Z"/><line class="cls-2" x1="4.8" y1="155.82" x2="4.8" y2="306.52"/><line class="cls-2" x1="4.8" y1="34.91" x2="4.8" y2="128.45"/><line class="cls-2" x1="2.53" y1="34.85" x2="7.22" y2="34.85"/><line class="cls-2" x1="2.46" y1="306.52" x2="7.15" y2="306.52"/><line class="cls-2" x1="44.92" y1="306.52" x2="4.8" y2="306.52"/><line class="cls-2" x1="99.94" y1="306.52" x2="70.13" y2="306.52"/><line class="cls-2" x1="99.94" y1="304.18" x2="99.94" y2="308.87"/><line class="cls-2" x1="4.8" y1="304.18" x2="4.8" y2="308.87"/><path class="cls-1" d="M57.64,252.32h9.08c0,.15,0,.37,0,.66,0,.74,0,1.24,0,1.5q0,4.83-2.77,7.51c-1.84,1.78-4.45,2.67-7.8,2.67a14.34,14.34,0,0,1-5-.83,10.71,10.71,0,0,1-3.86-2.5,11.37,11.37,0,0,1-2.49-3.9,13,13,0,0,1-.87-4.78,12.68,12.68,0,0,1,.88-4.79A11,11,0,0,1,47.46,244a11.4,11.4,0,0,1,3.93-2.51,13.47,13.47,0,0,1,4.82-.86,11.41,11.41,0,0,1,4.84,1,10.74,10.74,0,0,1,3.81,3l-2.73,2.05a7.52,7.52,0,0,0-2.61-2,7.92,7.92,0,0,0-3.25-.65,8.17,8.17,0,0,0-6.08,2.38,8.46,8.46,0,0,0-2.35,6.21,8.63,8.63,0,0,0,2.35,6.29,8.16,8.16,0,0,0,6.11,2.42,7.74,7.74,0,0,0,5-1.49,4.94,4.94,0,0,0,1.83-4v-.33H57.64Z"/><rect class="cls-3" x="0.2" y="29.93" width="103.89" height="281.66"/><path class="cls-1" d="M116.17,171.08a2.08,2.08,0,0,0,.3-1.05c0-.82-.53-1.08-.92-1.07-.66,0-1,.61-1,1.23v.35h-.48v-.35c0-.47-.24-1.06-.8-1.06-.38,0-.72.24-.72.83a1.73,1.73,0,0,0,.32.95l-.47.17a2.28,2.28,0,0,1-.36-1.24c0-.94.55-1.36,1.13-1.36a1.17,1.17,0,0,1,1.11.87h0a1.22,1.22,0,0,1,1.22-1c.75,0,1.42.59,1.42,1.73a2.46,2.46,0,0,1-.32,1.23Z"/><path class="cls-1" d="M112.71,164.66v1.81l1.21.19a3.46,3.46,0,0,1,0-.39,1.94,1.94,0,0,1,.26-1,1.36,1.36,0,0,1,1.22-.68,1.65,1.65,0,0,1,1.62,1.76,2.43,2.43,0,0,1-.29,1.19l-.49-.16a2.25,2.25,0,0,0,.26-1,1,1,0,0,0-1-1.12c-.61,0-1,.41-1,1.36a5.41,5.41,0,0,0,0,.66l-2.27-.31v-2.27Z"/><path class="cls-1" d="M114.33,162c-.36,0-.66,0-1,0v-.56l.57,0v0a1.22,1.22,0,0,1-.65-1.11,1,1,0,0,1,.7-1h0a1.36,1.36,0,0,1-.45-.4,1.14,1.14,0,0,1-.25-.78c0-.47.3-1.16,1.53-1.16h2.08v.63h-2c-.68,0-1.09.25-1.09.76a.83.83,0,0,0,.59.76,1,1,0,0,0,.32,0h2.18v.63h-2.12c-.56,0-1,.25-1,.74a.87.87,0,0,0,.64.79.86.86,0,0,0,.32.05h2.13V162Z"/><path class="cls-1" d="M112.36,155.17h1v-.92h.49v.92h1.9c.44,0,.69-.12.69-.48a1.42,1.42,0,0,0,0-.37l.48,0a1.57,1.57,0,0,1,.09.57.89.89,0,0,1-.27.69,1.32,1.32,0,0,1-.92.25h-1.92v.55h-.49v-.55h-.85Z"/><path class="cls-1" d="M116.25,153.62a1.64,1.64,0,0,0,.26-.85c0-.46-.24-.68-.53-.68s-.47.18-.65.65c-.22.64-.58.94-1,.94a1.09,1.09,0,0,1-1-1.22,1.74,1.74,0,0,1,.22-.87l.46.16a1.38,1.38,0,0,0-.2.72c0,.38.22.6.48.6s.42-.22.6-.68.54-.92,1.06-.92,1.06.48,1.06,1.32a2.1,2.1,0,0,1-.24,1Z"/><path class="cls-1" d="M157,303.59h0l-.82.45-.12-.49,1-.55h.55v4.74H157Z"/><path class="cls-1" d="M159.32,307.74v-.4l.5-.49c1.21-1.15,1.76-1.76,1.77-2.48a.84.84,0,0,0-.94-.92,1.62,1.62,0,0,0-1,.4l-.21-.45a2.08,2.08,0,0,1,1.35-.48,1.33,1.33,0,0,1,1.45,1.37c0,.88-.64,1.59-1.64,2.55l-.38.35h2.13v.54Z"/><path class="cls-1" d="M164.81,305.16c0-.36,0-.66,0-1h.56l0,.57h0a1.22,1.22,0,0,1,1.11-.65,1,1,0,0,1,1,.7h0a1.49,1.49,0,0,1,.39-.46,1.21,1.21,0,0,1,.78-.24c.47,0,1.16.3,1.16,1.53v2.08h-.63v-2c0-.68-.24-1.09-.76-1.09a.83.83,0,0,0-.76.58,1.09,1.09,0,0,0,0,.33v2.18H167v-2.12c0-.56-.25-1-.74-1a.87.87,0,0,0-.79.64.86.86,0,0,0-.05.32v2.13h-.63Z"/><path class="cls-1" d="M171.64,303.19v1h.92v.49h-.92v1.9c0,.44.12.68.48.68a1.52,1.52,0,0,0,.37,0l0,.48a1.57,1.57,0,0,1-.57.09.89.89,0,0,1-.69-.27,1.32,1.32,0,0,1-.25-.92V304.7h-.55v-.49H171v-.85Z"/><path class="cls-1" d="M173.19,307.08a1.74,1.74,0,0,0,.85.26c.46,0,.68-.24.68-.53s-.18-.47-.65-.65c-.64-.22-.94-.58-.94-1a1.09,1.09,0,0,1,1.22-1,1.74,1.74,0,0,1,.87.22l-.16.46a1.35,1.35,0,0,0-.72-.2c-.38,0-.59.22-.59.48s.21.42.67.6c.61.23.92.54.92,1.06s-.48,1.06-1.32,1.06a2.1,2.1,0,0,1-1-.24Z"/><path class="cls-1" d="M152,187.16h.95V194h3.15v.83H152Z"/><path class="cls-1" d="M163,190.9c0,2.63-1.54,4-3.42,4s-3.32-1.56-3.32-3.88,1.46-4,3.43-4S163,188.63,163,190.9Zm-5.72.12c0,1.63.85,3.1,2.35,3.1s2.36-1.44,2.36-3.18c0-1.52-.76-3.1-2.35-3.1S157.28,189.34,157.28,191Z"/><path class="cls-1" d="M165.36,188h-2.24v-.83h5.46V188h-2.25v6.81h-1Z"/><path class="cls-1" d="M173.22,191.21h-2.87V194h3.2v.83H169.4v-7.64h4V188h-3v2.42h2.87Z"/><path class="cls-1" d="M149.06,208.4v-2h-3.3v-.66l3.17-4.71h1v4.58h1v.79h-1v2Zm0-2.79v-2.46c0-.38,0-.77,0-1.15h0c-.22.43-.39.75-.59,1.09l-1.74,2.5v0Z"/><path class="cls-1" d="M151.7,208.4v-.61l.75-.76c1.82-1.79,2.64-2.74,2.65-3.85a1.29,1.29,0,0,0-1.41-1.44,2.39,2.39,0,0,0-1.51.62l-.31-.7a3.1,3.1,0,0,1,2-.75,2,2,0,0,1,2.17,2.14c0,1.36-.95,2.46-2.45,4l-.57.54v0h3.2v.82Z"/><path class="cls-1" d="M162,204.64c0,2.51-.9,3.89-2.48,3.89-1.39,0-2.33-1.35-2.35-3.79s1-3.83,2.47-3.83S162,202.29,162,204.64Zm-3.87.11c0,1.92.57,3,1.45,3s1.45-1.19,1.45-3.07-.44-3-1.44-3C158.79,201.68,158.17,202.75,158.17,204.75Z"/><path class="cls-1" d="M165.55,204.4c0-.57,0-1-.05-1.48h.85l0,.88h0a1.83,1.83,0,0,1,1.67-1,1.58,1.58,0,0,1,1.5,1.1h0a2.22,2.22,0,0,1,.59-.71,1.77,1.77,0,0,1,1.17-.39c.7,0,1.74.48,1.74,2.38v3.23h-.94v-3.1c0-1.06-.37-1.69-1.15-1.69a1.26,1.26,0,0,0-1.14.91,1.73,1.73,0,0,0-.08.49v3.39h-.94v-3.28c0-.88-.37-1.51-1.1-1.51a1.32,1.32,0,0,0-1.19,1,1.24,1.24,0,0,0-.08.48v3.31h-.94Z"/><path class="cls-1" d="M174.37,208.4v-.61l.75-.76c1.82-1.79,2.64-2.74,2.65-3.85a1.29,1.29,0,0,0-1.41-1.44,2.39,2.39,0,0,0-1.51.62l-.31-.7a3,3,0,0,1,2-.75,2,2,0,0,1,2.18,2.14c0,1.36-.95,2.46-2.45,4l-.57.54v0h3.2v.82Z"/><line class="cls-2" x1="114.2" y1="173.8" x2="114.2" y2="306.52"/><line class="cls-2" x1="114.2" y1="21.95" x2="114.2" y2="146.42"/><line class="cls-2" x1="111.93" y1="21.89" x2="116.61" y2="21.89"/><line class="cls-2" x1="111.85" y1="306.52" x2="116.54" y2="306.52"/><line class="cls-2" x1="151.46" y1="306.52" x2="114.2" y2="306.52"/><line class="cls-2" x1="209.34" y1="306.52" x2="178.65" y2="306.52"/><line class="cls-2" x1="209.34" y1="304.18" x2="209.34" y2="308.87"/><line class="cls-2" x1="114.2" y1="304.18" x2="114.2" y2="308.87"/><path class="cls-1" d="M151.73,264.05v-22.9h3.73v8.45h11.26v-8.45h3.72v22.9h-3.72V252.93H155.46v11.12Z"/><rect class="cls-4" x="109.07" y="17.48" width="103.8" height="294.1"/><path class="cls-1" d="M224.69,156.18a2.27,2.27,0,0,0,.3-1.05c0-.83-.53-1.08-.92-1.08-.67,0-.95.61-.95,1.23v.36h-.48v-.36c0-.47-.24-1.06-.8-1.06-.38,0-.72.24-.72.83a1.78,1.78,0,0,0,.31.95l-.46.17a2.28,2.28,0,0,1-.37-1.24c0-.93.56-1.36,1.13-1.36a1.18,1.18,0,0,1,1.12.88h0a1.24,1.24,0,0,1,1.22-1.06c.76,0,1.42.59,1.42,1.73a2.33,2.33,0,0,1-.32,1.23Z"/><path class="cls-1" d="M221.13,149.88a2.86,2.86,0,0,0,0,.48,1.93,1.93,0,0,0,1.69,1.65v0a1.45,1.45,0,0,1,1-2.58A1.58,1.58,0,0,1,225.5,151c0,1-.78,1.68-2,1.68a3,3,0,0,1-2.13-.81,2.51,2.51,0,0,1-.7-1.51,3.06,3.06,0,0,1,0-.47Zm2.74.18a1,1,0,0,0-1.09,1,1.05,1.05,0,0,0,.59.92.55.55,0,0,0,.28.07c.78,0,1.36-.37,1.36-1S224.55,150.06,223.87,150.06Z"/><path class="cls-1" d="M222.85,147.09c-.37,0-.66,0-1,0v-.56l.57,0v0a1.23,1.23,0,0,1-.65-1.11,1,1,0,0,1,.71-1h0a1.4,1.4,0,0,1-.46-.4,1.2,1.2,0,0,1-.25-.78c0-.46.31-1.16,1.53-1.16h2.08v.63h-2c-.67,0-1.08.25-1.08.77a.84.84,0,0,0,.58.76,1.53,1.53,0,0,0,.32,0h2.18v.62h-2.11c-.56,0-1,.25-1,.74a.89.89,0,0,0,.64.8,1.06,1.06,0,0,0,.31.05h2.13v.62Z"/><path class="cls-1" d="M220.88,140.27h1v-.92h.49v.92h1.91c.43,0,.68-.13.68-.49a1.59,1.59,0,0,0,0-.37l.48,0a1.61,1.61,0,0,1,.09.57.93.93,0,0,1-.27.7,1.33,1.33,0,0,1-.92.24h-1.93v.55h-.49v-.55h-.84Z"/><path class="cls-1" d="M224.77,138.71a1.7,1.7,0,0,0,.25-.84c0-.47-.23-.69-.52-.69s-.48.18-.65.66c-.23.63-.58.93-1,.93a1.09,1.09,0,0,1-1-1.22,1.88,1.88,0,0,1,.22-.87l.47.17a1.32,1.32,0,0,0-.2.72c0,.38.21.59.48.59s.42-.21.59-.67c.24-.62.54-.93,1.07-.93s1.06.48,1.06,1.32a2.07,2.07,0,0,1-.24,1Z"/><path class="cls-1" d="M269,303.59h0l-.82.45-.13-.49,1-.55h.54v4.74H269Z"/><path class="cls-1" d="M273.33,307.74v-1.29h-2.21V306l2.12-3h.69v2.94h.67v.51h-.67v1.29Zm0-1.8v-1.58c0-.25,0-.5,0-.74h0l-.4.7-1.16,1.61h1.56Z"/><path class="cls-1" d="M276.84,305.16c0-.36,0-.66,0-1h.56l0,.57h0a1.21,1.21,0,0,1,1.11-.65,1.05,1.05,0,0,1,1,.7h0a1.51,1.51,0,0,1,.4-.46,1.19,1.19,0,0,1,.78-.24c.46,0,1.16.3,1.16,1.53v2.08h-.63v-2c0-.68-.25-1.09-.77-1.09a.84.84,0,0,0-.76.58,1.53,1.53,0,0,0-.05.33v2.18h-.62v-2.12c0-.56-.25-1-.74-1a.89.89,0,0,0-.8.64,1.13,1.13,0,0,0-.05.32v2.13h-.62Z"/><path class="cls-1" d="M283.66,303.19v1h.92v.49h-.92v1.9c0,.44.13.68.49.68a1.59,1.59,0,0,0,.37,0l0,.48a1.61,1.61,0,0,1-.57.09.93.93,0,0,1-.7-.27,1.32,1.32,0,0,1-.24-.92V304.7h-.55v-.49H283v-.85Z"/><path class="cls-1" d="M285.22,307.08a1.7,1.7,0,0,0,.84.26c.47,0,.69-.24.69-.53s-.18-.47-.66-.65-.93-.58-.93-1a1.09,1.09,0,0,1,1.22-1,1.77,1.77,0,0,1,.87.22l-.16.46a1.39,1.39,0,0,0-.73-.2c-.38,0-.59.22-.59.48s.21.42.67.6c.62.23.93.54.93,1.06s-.48,1.06-1.32,1.06a2,2,0,0,1-1-.24Z"/><path class="cls-1" d="M266.54,187.16h1V194h3.15v.83h-4.11Z"/><path class="cls-1" d="M277.58,190.9c0,2.63-1.54,4-3.42,4s-3.32-1.56-3.32-3.88,1.46-4,3.43-4S277.58,188.63,277.58,190.9Zm-5.72.12c0,1.63.85,3.1,2.35,3.1s2.37-1.44,2.37-3.18c0-1.52-.77-3.1-2.36-3.1S271.86,189.34,271.86,191Z"/><path class="cls-1" d="M280,188H277.7v-.83h5.46V188h-2.25v6.81h-1Z"/><path class="cls-1" d="M287.8,191.21h-2.87V194h3.2v.83H284v-7.64h4V188h-3v2.42h2.87Z"/><path class="cls-1" d="M264.91,201.87H262.2l-.27,1.9a2.82,2.82,0,0,1,.58-.05,3,3,0,0,1,1.53.4,2.1,2.1,0,0,1,1,1.89,2.5,2.5,0,0,1-2.64,2.52,3.48,3.48,0,0,1-1.78-.45l.25-.76a3.09,3.09,0,0,0,1.52.4,1.59,1.59,0,0,0,1.68-1.6c0-1-.62-1.63-2-1.63a7.74,7.74,0,0,0-1,.08l.46-3.54h3.4Z"/><path class="cls-1" d="M271,204.64c0,2.51-.9,3.89-2.48,3.89-1.39,0-2.33-1.35-2.35-3.79s1-3.83,2.47-3.83S271,202.29,271,204.64Zm-3.87.11c0,1.92.57,3,1.45,3s1.45-1.19,1.45-3.07-.45-3-1.44-3S267.14,202.75,267.14,204.75Z"/><path class="cls-1" d="M274.87,208.4v-2h-3.31v-.66l3.18-4.71h1v4.58h1v.79h-1v2Zm0-2.79v-2.46c0-.38,0-.77,0-1.15h0c-.22.43-.4.75-.59,1.09l-1.74,2.5v0Z"/><path class="cls-1" d="M280.13,204.4c0-.57,0-1,0-1.48h.84l0,.88h0a1.81,1.81,0,0,1,1.66-1,1.58,1.58,0,0,1,1.5,1.1h0a2.22,2.22,0,0,1,.59-.71,1.77,1.77,0,0,1,1.17-.39c.7,0,1.74.48,1.74,2.38v3.23h-.94v-3.1c0-1.06-.37-1.69-1.15-1.69a1.26,1.26,0,0,0-1.14.91,1.75,1.75,0,0,0-.07.49v3.39h-.94v-3.28c0-.88-.38-1.51-1.11-1.51a1.32,1.32,0,0,0-1.19,1,1.24,1.24,0,0,0-.08.48v3.31h-.94Z"/><path class="cls-1" d="M289,208.4v-.61l.75-.76c1.82-1.79,2.64-2.74,2.65-3.85a1.29,1.29,0,0,0-1.41-1.44,2.39,2.39,0,0,0-1.51.62l-.31-.7a3.1,3.1,0,0,1,2-.75,2,2,0,0,1,2.17,2.14c0,1.36-.95,2.46-2.45,4l-.57.54v0h3.2v.82Z"/><line class="cls-2" x1="222.71" y1="160.21" x2="222.71" y2="306.52"/><line class="cls-2" x1="222.71" y1="4.76" x2="222.71" y2="132.83"/><line class="cls-2" x1="220.44" y1="4.7" x2="225.13" y2="4.7"/><line class="cls-2" x1="220.37" y1="306.52" x2="225.06" y2="306.52"/><line class="cls-2" x1="263.93" y1="306.52" x2="222.71" y2="306.52"/><line class="cls-2" x1="335.17" y1="306.52" x2="291.43" y2="306.52"/><line class="cls-2" x1="335.17" y1="304.18" x2="335.17" y2="308.87"/><line class="cls-2" x1="222.71" y1="304.18" x2="222.71" y2="308.87"/><path class="cls-1" d="M281.21,264.05v-22.9h3.72v22.9Z"/><rect class="cls-4" x="217.43" y="0.18" width="121.1" height="311.4"/></g></g></svg>