<svg xmlns="http://www.w3.org/2000/svg" viewBox="0 0 27.08 21.38"><defs><style>.cls-1{fill:#fff;}</style></defs><title>forest</title><g id="Capa_2" data-name="Capa 2"><g id="Capa_1-2" data-name="Capa 1"><path class="cls-1" d="M20.74,6.06l2.08,3.67h-.66l1.43,2.54h-.71L24.41,15H21.77l-1.26-2.21h.75l-1.51-2.66h.7l-1-1.78Zm-3.56-.44,2.18,3.84h-.7l1.51,2.65h-.75L21,14.94H18.74l-1.43-2.47h.84L16.47,9.55h.78l-1.16-2Zm-6.12,2-1.13,2h.78L9,12.47h.84L8.44,14.94H6.1l1.6-2.83H7L8.46,9.46h-.7L9.94,5.62ZM2.72,15l1.53-2.69H3.53L5,9.73H4.3L6.38,6.06l1.3,2.25-1,1.78h.7L5.86,12.75h.75L5.36,15Zm4.33,5.78H5.72V15.57H7.05Zm3.59,0H9.24V15.57h1.4Zm3.74-5.87v5.87H12.8V14.87H9.29l1.79-3.1h-.83l1.68-2.92h-.78l2.44-4.22L16,8.85h-.78l1.68,2.92H16.1l1.79,3.1Zm3.5,5.87h-1.4V15.57h1.4Zm3.53,0H20.07V15.57h1.34Z"/><path class="cls-1" d="M13.54,0a13.54,13.54,0,0,0-11,21.38H3.76a12.53,12.53,0,1,1,19.56,0h1.26A13.54,13.54,0,0,0,13.54,0Z"/></g></g></svg>