<svg xmlns="http://www.w3.org/2000/svg" viewBox="0 0 27.08 21.38"><defs><style>.cls-1{fill:#fff;}</style></defs><title>horse</title><g id="Capa_2" data-name="Capa 2"><g id="Capa_1-2" data-name="Capa 1"><path class="cls-1" d="M3.76,21.38a12.53,12.53,0,1,1,19.56,0h1.26a13.54,13.54,0,1,0-22.08,0Z"/><path class="cls-1" d="M16.64,5.49A9.22,9.22,0,0,0,8,7.6c-.19.17,1-.4,1.85-.14,0,0-4.78,3-5.65,6.05-.1.33.63-.76,2-1a6.84,6.84,0,0,0-1.54,4.1,23.38,23.38,0,0,1-.28,4.7H16.8a7,7,0,0,0-1.89-3.28,4.56,4.56,0,0,1,1.61-5.77s.06,1.45.88,1.8a6.92,6.92,0,0,1,2.05,1.13c.66.56.56,1.71,1.81,1.7a3.05,3.05,0,0,0,2.48-1.72,1.45,1.45,0,0,0-.11-1.34,20.81,20.81,0,0,1-1.83-2.81c-.59-1.17-.49-2.36-.94-2.8s-1-1.09-1-1.09,0-.68-.07-1.46c0-.27,0-.56,0-.83,0-.52,0-1,0-1.25l-.58,1-.42.73-.23.4,0-.46.05-.86.07-1.31Z"/></g></g></svg>