<svg xmlns="http://www.w3.org/2000/svg" viewBox="0 0 27.08 21.38"><defs><style>.cls-1{fill:#fff;}</style></defs><title>lake</title><g id="Capa_2" data-name="Capa 2"><g id="Capa_1-2" data-name="Capa 1"><path class="cls-1" d="M3.76,21.38a12.53,12.53,0,1,1,19.56,0h1.26a13.54,13.54,0,1,0-22.08,0Z"/><path class="cls-1" d="M23.13,17.19c-.38,0-1.35.42-2,.42-.89,0-1.13-.46-1.91-.46s-1.31.5-1.91.5-1.27-.52-1.92-.52-1.45.52-2.06.52-1.07-.52-1.76-.52-1.27.52-1.92.52-1.35-.54-1.91-.54-1.37.52-1.94.52S4.69,17.09,4,17.09a5,5,0,0,0-1.46.45,11.91,11.91,0,0,0,.52,1.21A2.56,2.56,0,0,1,4,18.51c.37,0,1.43.53,1.81.53.57,0,1.37-.52,1.94-.52s1.26.54,1.91.54,1.22-.52,1.92-.52,1.15.52,1.76.52,1.41-.52,2.06-.52,1.31.52,1.92.52,1.13-.5,1.91-.5,1,.46,1.91.46c.66,0,1.56-.42,2-.42a2,2,0,0,1,.83.2,13.14,13.14,0,0,0,.52-1.22A4.26,4.26,0,0,0,23.13,17.19Z"/><path class="cls-1" d="M21.17,19.9c-.89,0-1.13-.46-1.91-.46s-1.31.5-1.91.5-1.27-.52-1.92-.52-1.45.52-2.06.52-1.07-.52-1.76-.52-1.27.52-1.92.52-1.35-.54-1.91-.54-1.37.52-1.94.52S4.69,19.39,4,19.39a1.91,1.91,0,0,0-.54.09,11.48,11.48,0,0,0,1,1.42,7.3,7.3,0,0,0,1.38.44c.57,0,1.37-.53,1.94-.53s1.26.55,1.91.55,1.22-.52,1.92-.52,1.15.52,1.76.52,1.41-.52,2.06-.52,1.31.52,1.92.52,1.13-.5,1.91-.5,1,.45,1.91.45A4.94,4.94,0,0,0,22.5,21a10.5,10.5,0,0,0,1.05-1.49,1.73,1.73,0,0,0-.42-.05C22.75,19.49,21.78,19.9,21.17,19.9Z"/><path class="cls-1" d="M7.34,15.71a5.27,5.27,0,0,1,1.09.14c.59.13.68.32,1.22.32a2.65,2.65,0,0,0,1.09-.3,47.58,47.58,0,0,0-1.31-4.68s.26,0,.37-.74S9,7.52,8.08,7.34a1.49,1.49,0,0,0-.67,0s-.5-.78-1-.85-.52.39-.41.61a4.22,4.22,0,0,0,.78.72.72.72,0,0,0-.17.63c0,.43.6,1,.78,1.5A4.67,4.67,0,0,0,8,11.28a1.05,1.05,0,0,0,.66.26,26.75,26.75,0,0,1,1.1,3.85s-2.5-3.2-4.82-3C4.89,12.37,6,12.71,7.34,15.71Z"/><path class="cls-1" d="M18.7,15.77c.59-.15.7,0,.7,0a28,28,0,0,1,1.29-4,3.82,3.82,0,0,1,1.5-1.33c-2.78-.11-4.63,4.33-4.63,4.33a24,24,0,0,1,1-3.77.93.93,0,0,0,.65-.29,5.41,5.41,0,0,0,.56-1.54c.18-.54.74-1.2.78-1.69a.89.89,0,0,0-.17-.71,4.57,4.57,0,0,0,.78-.8c.11-.25.08-.76-.42-.69s-1,1-1,1a1.2,1.2,0,0,0-.68,0c-.87.19-1.82,2.71-1.71,3.49s.37.83.37.83c-.39.88-1.29,5.26-1.29,5.26a2.38,2.38,0,0,0,1.09.34C18,16.22,18.12,15.92,18.7,15.77Z"/><path class="cls-1" d="M15.82,3.18c-.84.29-1.59,3.28-1.38,4s.47.68.47.68a24.76,24.76,0,0,0-.83,3.58,29.8,29.8,0,0,0-.25,3.2c-.15-2.15-.79-9.32-3.16-8.4,0,0,.91.59.94,1,.1,2.14-.37,6.46-.16,8.53a2.33,2.33,0,0,1,.85.08,6.1,6.1,0,0,0,1.2.39,6.16,6.16,0,0,0,1.15-.32s.18-3.1.28-4.22A23.45,23.45,0,0,1,15.78,8a1,1,0,0,0,.61-.35,4.29,4.29,0,0,0,.46-1.41A20,20,0,0,0,17.56,4a.68.68,0,0,0-.39-.59l.26-.81c-.27-.1-.54-.18-.82-.26a2.41,2.41,0,0,0-.13.68A1.35,1.35,0,0,0,15.82,3.18Z"/><path class="cls-1" d="M17.5,2.43c.07-.23,0-.68-.5-.54a.65.65,0,0,0-.39.47c.28.08.55.16.82.26Z"/></g></g></svg>