<svg xmlns="http://www.w3.org/2000/svg" viewBox="0 0 27.08 21.38"><defs><style>.cls-1{fill:#fff;}</style></defs><title>nautica</title><g id="Capa_2" data-name="Capa 2"><g id="Capa_1-2" data-name="Capa 1"><path class="cls-1" d="M3.76,21.38a12.53,12.53,0,1,1,19.56,0h1.26a13.54,13.54,0,1,0-22.08,0Z"/><path class="cls-1" d="M21.66,11.78a.75.75,0,0,0-1-.18L16.74,14l-.11.1a.85.85,0,0,0-.12.94.92.92,0,0,0,.34.34l-.22.11A5.47,5.47,0,0,1,15.1,16V12.32h1.19a.75.75,0,0,0,.51-.19A.65.65,0,0,0,17,11.6V10a.75.75,0,0,0-.22-.59.74.74,0,0,0-.62-.2h-1a1.78,1.78,0,0,1,.14-.41L15.82,8a3.64,3.64,0,0,0,.89-2.75,3.37,3.37,0,0,0-2.54-2.91,3.22,3.22,0,0,0-2.43.49A3.49,3.49,0,0,0,10.22,5a3.71,3.71,0,0,0,.88,3l.5.72a2.07,2.07,0,0,1,.18.47H10.7a1,1,0,0,0-.43.14.93.93,0,0,0-.34.37l-.06.1v1.75a.69.69,0,0,0,.32.69.67.67,0,0,0,.48.09h1.11V16a5.06,5.06,0,0,1-.77-.18,5.29,5.29,0,0,1-1-.43.75.75,0,0,0,.3-.2.83.83,0,0,0-.1-1.14L6.48,11.73a.83.83,0,0,0-.82-.22.81.81,0,0,0-.56.75l.06,4.89.15.14a.89.89,0,0,0,.81.21.91.91,0,0,0,.35-.21l.38-.51A10.46,10.46,0,0,0,8.09,18a10,10,0,0,0,2.23,1.43,8.07,8.07,0,0,1,2,1.15l.49.42a.92.92,0,0,0,.65.32h0a.92.92,0,0,0,.69-.32c.25-.21.5-.42.76-.6a8.4,8.4,0,0,1,1.62-.93,10.1,10.1,0,0,0,2.64-1.77,9.57,9.57,0,0,0,.87-.93l.27.37a.87.87,0,0,0,1.12.27.82.82,0,0,0,.34-.55V12.33A.71.71,0,0,0,21.66,11.78ZM11.82,5.56a1.63,1.63,0,1,1,1.63,1.63A1.63,1.63,0,0,1,11.82,5.56Zm9,10.68-.78-1-.38.54A9.47,9.47,0,0,1,18.52,17a9,9,0,0,1-2.37,1.59,10.26,10.26,0,0,0-1.79,1,8.12,8.12,0,0,0-.86.69l0,0h0a7.26,7.26,0,0,0-.57-.5,9.08,9.08,0,0,0-2.17-1.27,9.32,9.32,0,0,1-2-1.28,9,9,0,0,1-1.48-1.6l-.39-.53-.73,1-.05-3.56,3.09,1.87-1.62,0,.84.81a6.09,6.09,0,0,0,2.35,1.4,5.66,5.66,0,0,0,1.53.28l.51,0,0-5.67H10.83V10.14h1.92l0-.45a3,3,0,0,0,0-.67,2.66,2.66,0,0,0-.31-.8l-.3-.45a2.52,2.52,0,0,0,1.33.38,2.57,2.57,0,0,0,1.39-.41l-.38.57a2.66,2.66,0,0,0-.27.76,2.88,2.88,0,0,0,0,.65l0,.45h1.87v1.19H14.14V17l.52,0a6.6,6.6,0,0,0,3.87-1.64l.93-.84H17.73l3.1-1.89Z"/></g></g></svg>