<svg xmlns="http://www.w3.org/2000/svg" viewBox="0 0 22.6 17.8"><defs><style>.cls-1{fill:#f6f4ef;}</style></defs><g id="Capa_2" data-name="Capa 2"><g id="Capa_1-2" data-name="Capa 1"><path class="cls-1" d="M11.8,2Z"/><path class="cls-1" d="M15.7,2.6h0Z"/><path class="cls-1" d="M11.9,1.6Z"/><path class="cls-1" d="M15.4,3.8a4.4,4.4,0,0,1,.2-1l.1-.2h0a8.79,8.79,0,0,0-3.6-1h-.2V2a1.27,1.27,0,0,0,.1.6l.2.5-.4.3a2.06,2.06,0,0,0-1,1.7,1.93,1.93,0,0,0,.3,1l.3.5-.5.3a2,2,0,0,0-.8.8,1.82,1.82,0,0,1,.6,1.4,2.92,2.92,0,0,1-.2.9c.1.1.2.2.3.2a1.91,1.91,0,0,0,1.8.2h0a9.42,9.42,0,0,0,1-.4,2.7,2.7,0,0,1,.8-.7h.1V9.2a2.82,2.82,0,0,1-.4-1.5,3,3,0,0,1,1.5-2.6h.1V5A1.94,1.94,0,0,1,15.4,3.8Z"/><path class="cls-1" d="M11.8,1.8Z"/><path class="cls-1" d="M20.9,11.2A10,10,0,0,0,17,3.4l-.9-.6c-.1,0-.1-.1-.2-.1a2,2,0,0,0-.3,1.1,2.92,2.92,0,0,0,.2.9l.1.3-.3.1a2.69,2.69,0,0,0-1.4,2.4,2.5,2.5,0,0,0,.4,1.4l.2.3-.3.2a2.7,2.7,0,0,0-.8.7,1.38,1.38,0,0,0-.3.4,3.26,3.26,0,0,0-.4,1.4,2.8,2.8,0,0,0,2.8,2.8,2.51,2.51,0,0,0,1-.2h0V12.6a3.76,3.76,0,0,1-1.5-1.8l-.2-.5,1.5-.5.2.4V8.5h2v4.9a.68.68,0,0,0,.7.5c.9,0,1.2-.5,1.1-.5A8.92,8.92,0,0,0,20.9,11.2Z"/><path class="cls-1" d="M17.1,10.6a.85.85,0,0,1-.3-.5l-.1-.3-1.1.3.1.3a2.8,2.8,0,0,0,1.5,1.7v5.6h1.5V8.5H17.2v2.1Z"/><path class="cls-1" d="M3,17.8A10.71,10.71,0,0,1,.7,11.3a10.5,10.5,0,1,1,18.7,6.5h1.1a11.2,11.2,0,0,0,2.1-6.5A11.3,11.3,0,0,0,0,11.3a11.2,11.2,0,0,0,2.1,6.5Z"/><circle class="cls-1" cx="8.5" cy="8.9" r="1.6"/><path class="cls-1" d="M6.7,10.7l-1.2-.6a.83.83,0,0,0-1,.6.67.67,0,0,0,.3.8,8,8,0,0,0,1.6.8h.9v1.5a.31.31,0,0,0,.1.2.1.1,0,0,0,.1.1c-.3.9-.7,1.8-1,2.7,0,.5.2.9.6.9a.83.83,0,0,0,.8-.3c.3-.7.5-1.3.8-2l.2.7,1.4,1.3a1,1,0,0,0,.8,0,.91.91,0,0,0,.3-1.1l-1.1-1.1-.4-1.1.2-.2a.37.37,0,0,0,.1-.3v-.5l.6,1.1a.87.87,0,0,0,.9.4.78.78,0,0,0,.5-1c-.3-.5-.5-1-.8-1.5L9.6,11c-.1,0-.1-.1-.2-.1s-.4-.1-.5-.2Z"/><path class="cls-1" d="M6.4,6.9c-.1.5-.2,1.1-.3,1.7a9.56,9.56,0,0,1-1,2.4s.8-2.2.9-2.4.4-1.5.4-1.5Z"/><path class="cls-1" d="M8,5A1.69,1.69,0,0,1,6.5,6.8H6.4A1.75,1.75,0,0,1,5,5,1.69,1.69,0,0,1,6.5,3.2,1.69,1.69,0,0,1,8,5Z"/><path class="cls-1" d="M6.3,7c-.1,0,.1.1.1.1L6.5,7a.1.1,0,0,1-.1-.1V6.8H6.3c.1,0,.1.1,0,.2Z"/></g></g></svg>