<svg xmlns="http://www.w3.org/2000/svg" viewBox="0 0 27.08 21.38"><defs><style>.cls-1{fill:#fff;}</style></defs><title>pet</title><g id="Capa_2" data-name="Capa 2"><g id="Capa_1-2" data-name="Capa 1"><path class="cls-1" d="M13.54,0a13.54,13.54,0,0,0-11,21.38H3.76a12.53,12.53,0,1,1,19.56,0h1.26A13.54,13.54,0,0,0,13.54,0Z"/><path class="cls-1" d="M18.21,6.82a2.42,2.42,0,0,1-.25.31,2.25,2.25,0,0,1-3.18,0,2.2,2.2,0,0,1-.65-1.81,2.12,2.12,0,0,1,.28-.88,1.94,1.94,0,0,1,.52-.92,2,2,0,0,1,3.45,1A2.23,2.23,0,0,1,18.21,6.82Z"/><path class="cls-1" d="M12.31,7.13a2.26,2.26,0,0,1-3.19,0,2.75,2.75,0,0,1-.22-.26,2.25,2.25,0,0,1-.15-2.44,2.05,2.05,0,0,1,3.43-.91,2.09,2.09,0,0,1,.55,1,2.47,2.47,0,0,1,.23.79A2.25,2.25,0,0,1,12.31,7.13Z"/><path class="cls-1" d="M9,9.49a2.25,2.25,0,0,1-2.25,2.25A2,2,0,0,1,6,11.61a2.25,2.25,0,0,1-1.39-1.4A2.09,2.09,0,0,1,4.31,9.1a2,2,0,0,1,2-2,2.07,2.07,0,0,1,1,.27A2.5,2.5,0,0,1,8,7.63,2.25,2.25,0,0,1,9,9.49Z"/><path class="cls-1" d="M18.06,9.49a2.25,2.25,0,0,0,2.25,2.25,2,2,0,0,0,.75-.13,2.25,2.25,0,0,0,1.39-1.4,2.1,2.1,0,0,0,.33-1.11,2.05,2.05,0,0,0-3.07-1.78,2.5,2.5,0,0,0-.66.31A2.25,2.25,0,0,0,18.06,9.49Z"/><path class="cls-1" d="M20.32,16.87a4.51,4.51,0,0,1-4.51,4.51,4.66,4.66,0,0,1-1.13-.14h0a4.66,4.66,0,0,0-1.13-.14,5.23,5.23,0,0,0-1,.1h0l-.3.08h0a4.49,4.49,0,0,1-5.48-4.4,5.25,5.25,0,0,1,0-.56h0A4.54,4.54,0,0,1,8.08,13.7h0l.18-.17h0a4.5,4.5,0,0,0,1-1.48h0c0-.09.07-.19.1-.28h0a4.51,4.51,0,0,1,8.4.12v0a4.38,4.38,0,0,0,1.1,1.7l0,0a4.46,4.46,0,0,1,1.37,2.83A3,3,0,0,1,20.32,16.87Z"/></g></g></svg>