<svg xmlns="http://www.w3.org/2000/svg" viewBox="0 0 27.08 21.44"><defs><style>.cls-1{fill:#fff;}</style></defs><title>portto</title><g id="Capa_2" data-name="Capa 2"><g id="Capa_1-2" data-name="Capa 1"><path class="cls-1" d="M13.54,0a13.54,13.54,0,0,0-11,21.38H3.76a12.53,12.53,0,1,1,19.56,0h1.26A13.54,13.54,0,0,0,13.54,0Z"/><polygon class="cls-1" points="13.12 4.31 8.53 8.89 8.95 9.31 13.12 5.15 19.61 11.64 15.25 16 13.72 14.47 13.3 14.89 15.25 16.84 20.45 11.64 13.12 4.31"/><polygon class="cls-1" points="17.29 9.69 10.98 16 6.62 11.64 8.15 10.11 7.73 9.69 5.78 11.64 10.98 16.84 17.7 10.11 17.29 9.69"/><polygon class="cls-1" points="12.92 13.67 7.7 8.44 13.12 3.02 18.54 8.44 18.08 8.9 18.5 9.31 19.38 8.44 13.12 2.19 6.87 8.44 12.51 14.09 12.92 13.67"/><rect class="cls-1" x="12.46" y="6.73" width="1.33" height="1.33" transform="translate(-1.39 11.44) rotate(-45)"/><path class="cls-1" d="M10.36,21.27a2.45,2.45,0,0,1-1,.17A1.69,1.69,0,0,1,7.62,19.6a1.81,1.81,0,0,1,1.89-1.91,2,2,0,0,1,.86.16l-.12.39a1.57,1.57,0,0,0-.72-.16,1.36,1.36,0,0,0-1.42,1.5A1.32,1.32,0,0,0,9.5,21a1.92,1.92,0,0,0,.77-.15Z"/><path class="cls-1" d="M11,17.75h.47V21H13v.39H11Z"/><path class="cls-1" d="M13.77,17.75V19.9c0,.81.36,1.16.84,1.16s.89-.36.89-1.16V17.75H16v2.12c0,1.12-.59,1.57-1.37,1.57s-1.31-.42-1.31-1.55V17.75Z"/><path class="cls-1" d="M16.78,17.81a4.05,4.05,0,0,1,.86-.09,1.48,1.48,0,0,1,1,.27.76.76,0,0,1,.31.64.87.87,0,0,1-.62.8h0a.95.95,0,0,1,.44,1.63,1.82,1.82,0,0,1-1.25.34,6,6,0,0,1-.73,0Zm.47,1.48h.43c.49,0,.78-.26.78-.61s-.32-.6-.79-.6a1.69,1.69,0,0,0-.42,0Zm0,1.73a2.06,2.06,0,0,0,.39,0c.49,0,.93-.18.93-.71s-.42-.7-.93-.7h-.39Z"/></g></g></svg>