<svg xmlns="http://www.w3.org/2000/svg" viewBox="0 0 27.08 21.38"><defs><style>.cls-1{fill:#fff;}</style></defs><title>towers</title><g id="Capa_2" data-name="Capa 2"><g id="Capa_1-2" data-name="Capa 1"><path class="cls-1" d="M3.76,21.38a12.53,12.53,0,1,1,19.56,0h1.26a13.54,13.54,0,1,0-22.08,0Z"/><path class="cls-1" d="M7.2,5.8,7,5.08l4.78-1.45L13.9,4.86a4,4,0,0,1-.37.63s-1.87-1-1.87-1Z"/><path class="cls-1" d="M7.2,7.12,7,6.4,11.77,5,13.9,6.19a4,4,0,0,1-.37.63L11.66,5.77Z"/><path class="cls-1" d="M7.2,8.47,7,7.75,11.77,6.3,13.9,7.53a4,4,0,0,1-.37.63s-1.87-1-1.87-1Z"/><path class="cls-1" d="M7.2,9.83,7,9.11l4.78-1.45L13.9,8.89a4.09,4.09,0,0,1-.37.64l-1.87-1Z"/><path class="cls-1" d="M7.2,11.22,7,10.5l4.78-1.45,2.13,1.23a4.09,4.09,0,0,1-.37.64L11.66,9.87Z"/><path class="cls-1" d="M7.2,12.57,7,11.85l4.78-1.45,2.13,1.23a4,4,0,0,1-.37.63l-1.87-1Z"/><path class="cls-1" d="M7.2,13.93,7,13.21l4.78-1.45L13.9,13a4.6,4.6,0,0,1-.37.64l-1.87-1.05Z"/><path class="cls-1" d="M7.2,15.32,7,14.6l4.78-1.45,2.13,1.23a4.09,4.09,0,0,1-.37.64l-1.87-1Z"/><path class="cls-1" d="M7.2,16.64,7,15.92l4.78-1.45L13.9,15.7a4,4,0,0,1-.37.63l-1.87-1Z"/><path class="cls-1" d="M7.2,18,7,17.29l4.78-1.45,2.13,1.23a4.6,4.6,0,0,1-.37.64l-1.87-1.06Z"/><path class="cls-1" d="M14.53,18l-.22-.72,4.78-1.45,2.14,1.23a3.85,3.85,0,0,1-.38.64L19,16.65Z"/><path class="cls-1" d="M14.53,16.64l-.22-.72,4.78-1.45,2.14,1.23s-.33.65-.38.63l-1.86-1Z"/><path class="cls-1" d="M14.53,15.32l-.22-.72,4.78-1.45,2.14,1.23a3.48,3.48,0,0,1-.38.64L19,14Z"/><path class="cls-1" d="M14.53,13.93l-.22-.72,4.78-1.45L21.23,13a3.85,3.85,0,0,1-.38.64L19,12.58Z"/><path class="cls-1" d="M14.53,12.63l-.22-.72,4.78-1.45,2.14,1.23a3.48,3.48,0,0,1-.38.64L19,11.28Z"/><path class="cls-1" d="M14.53,11.22l-.22-.72,4.78-1.45,2.14,1.23a3.48,3.48,0,0,1-.38.64L19,9.87Z"/><path class="cls-1" d="M14.53,9.94l-.22-.72,4.78-1.44L21.23,9s-.33.65-.38.63L19,8.59Z"/><path class="cls-1" d="M14.53,8.51l-.22-.72,4.78-1.44,2.14,1.23s-.33.65-.38.63L19,7.16Z"/><path class="cls-1" d="M7.18,20.64V19.19L7,18.69l4.78-1.51,2.13,1.24-.18.3v1.94h.84V19.27l-.24-.64,4.78-1.45,2.14,1.24-.2.34v1.9h1.09v.72H5.22v-.74Z"/></g></g></svg>