<svg xmlns="http://www.w3.org/2000/svg" viewBox="0 0 27.08 21.38"><defs><style>.cls-1{fill:#fff;}</style></defs><title>zen</title><g id="Capa_2" data-name="Capa 2"><g id="Capa_1-2" data-name="Capa 1"><path class="cls-1" d="M3.76,21.38a12.53,12.53,0,1,1,19.56,0h1.26a13.54,13.54,0,1,0-22.08,0Z"/><path class="cls-1" d="M20.13,18.63l.43.18c.42.14.84.42.84.37a.74.74,0,0,0-.47-.5c-.37-.13-.37-.18-.27-.18s.17,0,.17-.23a2.15,2.15,0,0,0-.07-.63c0-.1-.12,0-.91,0a4.74,4.74,0,0,1-.55,0l-.47-.54a.48.48,0,0,1-.09-.11l-.31-.53a2.15,2.15,0,0,1-.14-.26l-.23-.42c-.09-.14-.18-.27-.28-.4s-.23-.32-.35-.47l-.21-.25-.32-.36-.14-.14c-.18-.18-.06-.47,0-.69a8.14,8.14,0,0,0,.08-.85,6,6,0,0,1,.08-.73,11,11,0,0,0,.16-1.39c0-.12,0-.24,0-.36l0-.24a.62.62,0,0,0-.07-.23,1,1,0,0,0-.17-.27,1.94,1.94,0,0,0-1.08-.48,3.4,3.4,0,0,1-.69-.2,1,1,0,0,1-.65-.77,2.45,2.45,0,0,1,.12-.31,6.24,6.24,0,0,0,.33-1A.49.49,0,0,0,15,6.33c.06-.2.2-.41.16-.62A.2.2,0,0,0,15,5.54c0-.21,0-.41,0-.6a1.64,1.64,0,0,0-1.28-1.67.19.19,0,0,0,0-.08.3.3,0,0,0-.58,0,.11.11,0,0,0,0,.08A1.64,1.64,0,0,0,12,4.94a4.22,4.22,0,0,0,0,.6.2.2,0,0,0-.15.17,1.27,1.27,0,0,0,.16.62.49.49,0,0,0,.19.29,6.44,6.44,0,0,0,.32,1,.81.81,0,0,1,.11.43.87.87,0,0,1-.54.65,3.4,3.4,0,0,1-.69.2,1.94,1.94,0,0,0-1.08.48,1,1,0,0,0-.17.27.62.62,0,0,0-.07.23l0,.24c0,.12,0,.24,0,.36a11,11,0,0,0,.16,1.39,6,6,0,0,1,.08.73,8.14,8.14,0,0,0,.08.85c0,.22.15.51,0,.69a.93.93,0,0,0-.14.14l-.32.36-.21.25c-.12.15-.24.31-.35.47a3.51,3.51,0,0,0-.27.4c-.09.14-.16.28-.24.42a2.15,2.15,0,0,1-.14.26L8.34,17a.44.44,0,0,1-.08.11,1.14,1.14,0,0,1-.32.22l-.07,0-.12.18,0,0c-.09.07,0,.08-.78.07s-.87-.09-.91,0a2.61,2.61,0,0,0-.07.63c0,.2.07.24.17.24s.1,0-.27.18a.69.69,0,0,0-.46.5s.41-.23.83-.37.87-.45.84-.31h0l0,0H7l0,0a.28.28,0,0,0,0,.06l-.06.06h0l-.12.14A1.46,1.46,0,0,0,6.47,20a1.09,1.09,0,0,0,.7.8,3.89,3.89,0,0,0,.58.18,3.71,3.71,0,0,0,1.37.11h.06a7.43,7.43,0,0,0,.79-.17l.56-.16q.56-.18,1.11-.39c.5-.19,1-.31,1.52-.53a2.7,2.7,0,0,0,.34-.17l.05,0a2.69,2.69,0,0,0,.38.19c.49.22,1,.34,1.51.53s.74.27,1.11.39l.57.16a6.76,6.76,0,0,0,.78.17H18A3.71,3.71,0,0,0,19.33,21a3.56,3.56,0,0,0,.58-.18,1.09,1.09,0,0,0,.7-.8,1.46,1.46,0,0,0-.31-1.1l-.12-.14h0a.18.18,0,0,1-.05-.07h0ZM6.29,18.36c-.18,0-.15-.27-.13-.45,0,0,.59,0,.56.18S6.47,18.36,6.29,18.36Zm5.42-3.47a1.42,1.42,0,0,1-.11.35,1.22,1.22,0,0,0-.07.17.25.25,0,0,0,0,.07c-.05.07-.08.15-.13.22s-.06.12-.1.18-.1.17-.16.25-.15.25-.21.38-.07.14-.11.2v0a1.14,1.14,0,0,0-.1.19c0,.06,0,.12-.07.19l0,.1a.65.65,0,0,1-.16.21l-.13.05a.2.2,0,0,1-.08,0l-.13.1-.07,0-.38.08-.16.05-.17.05a.21.21,0,0,0-.13.07.09.09,0,0,1-.06,0H9l-.12,0-.21,0-.11,0-.27.07h0l0-.05a1.73,1.73,0,0,0,.17-.21l.17-.21.12-.1.13-.1L9,17.32l.21-.19L9.36,17l.16-.12.18-.15.19-.18.16-.16.29-.26a2.92,2.92,0,0,0,.28-.32l.06-.06.13-.18a1,1,0,0,1,.08-.11c.06-.08.1-.16.15-.24l.19-.33a1.24,1.24,0,0,0,.1-.2c0-.11.08-.22.11-.33s0-.14.05-.21h0a.92.92,0,0,0,0-.29s0-.09,0-.14a.76.76,0,0,1,0-.15.88.88,0,0,1,0-.17.24.24,0,0,0,0-.12,0,0,0,0,1,0,0h0c0,.09,0,.17.05.25s0,.2,0,.3a1.64,1.64,0,0,1,0,.23,1.1,1.1,0,0,1,0,.18c0,.1,0,.19,0,.29v.23A1.09,1.09,0,0,1,11.71,14.89Zm8.91,3c0,.19.05.45-.13.45s-.4-.07-.43-.27S20.62,17.9,20.62,17.9Zm-1.78.2L18.57,18l-.11,0-.21,0-.12,0H18a.05.05,0,0,1-.05,0,.27.27,0,0,0-.14-.07l-.17-.05-.16-.05-.38-.08-.07,0-.13-.1-.08,0a.33.33,0,0,1-.12-.05.56.56,0,0,1-.17-.21.93.93,0,0,1-.05-.1c0-.07-.05-.13-.07-.19l-.09-.19,0,0-.1-.2L16,16.13c-.06-.08-.11-.17-.16-.25a1,1,0,0,0-.1-.18c-.05-.07-.08-.15-.13-.22l0-.07-.08-.17a1.42,1.42,0,0,1-.11-.35,1.09,1.09,0,0,1,0-.18,1.76,1.76,0,0,0,0-.23c0-.1,0-.19,0-.29s0-.12,0-.18a1.64,1.64,0,0,1,0-.23c0-.1,0-.2,0-.3s0-.16.05-.25h0v0a.24.24,0,0,0,0,.12l0,.17v.15c0,.05,0,.1,0,.14a.92.92,0,0,0,0,.29h0c0,.07,0,.14.05.21s.07.22.11.33a1.24,1.24,0,0,0,.1.2c.07.11.13.22.19.33s.09.16.15.24a1,1,0,0,1,.08.11l.13.18.06.06a2.92,2.92,0,0,0,.28.32l.29.26c0,.05.1.11.16.16l.19.18.18.15.16.12.16.14.21.19.14.11.13.1.12.1.17.21.17.21,0,.05Z"/></g></g></svg>