<svg xmlns="http://www.w3.org/2000/svg" viewBox="0 0 27.08 21.38"><defs><style>.cls-1{fill:#002b53;}</style></defs><g id="Capa_2" data-name="Capa 2"><g id="Capa_1-2" data-name="Capa 1"><g id="Capa_2-2" data-name="Capa 2"><g id="Capa_1-2-2" data-name="Capa 1-2"><path class="cls-1" d="M3.76,21.38a12.53,12.53,0,1,1,19.56,0h1.26a13.54,13.54,0,1,0-22.08,0Z"/><path class="cls-1" d="M21.66,11.78a.75.75,0,0,0-1-.18L16.74,14l-.11.1a.85.85,0,0,0-.12.94.92.92,0,0,0,.34.34l-.22.11A5.51,5.51,0,0,1,15.1,16V12.32h1.19a.74.74,0,0,0,.51-.19.66.66,0,0,0,.2-.53V10a.72.72,0,0,0-.22-.59.74.74,0,0,0-.62-.2h-1a2,2,0,0,1,.14-.41l.52-.8a3.63,3.63,0,0,0,.89-2.75,3.37,3.37,0,0,0-2.54-2.91,3.21,3.21,0,0,0-2.43.49A3.52,3.52,0,0,0,10.22,5a3.72,3.72,0,0,0,.88,3l.5.72a2.07,2.07,0,0,1,.18.47H10.7a1,1,0,0,0-.43.14.93.93,0,0,0-.34.37l-.06.1v1.75a.69.69,0,0,0,.32.69.67.67,0,0,0,.48.09h1.11V16a5.06,5.06,0,0,1-.77-.18,5.2,5.2,0,0,1-1-.43.75.75,0,0,0,.3-.2.83.83,0,0,0-.1-1.14L6.48,11.73a.83.83,0,0,0-.82-.22.82.82,0,0,0-.56.75l.06,4.89.15.14a.89.89,0,0,0,.81.21.84.84,0,0,0,.35-.21l.38-.51A10.21,10.21,0,0,0,8.09,18a10.45,10.45,0,0,0,2.23,1.43,8.12,8.12,0,0,1,2,1.15l.49.42a.91.91,0,0,0,.65.32h0a.9.9,0,0,0,.69-.32c.25-.21.5-.42.76-.6a8.4,8.4,0,0,1,1.62-.93,10,10,0,0,0,2.64-1.77,9.57,9.57,0,0,0,.87-.93l.27.37a.86.86,0,0,0,1.12.27.83.83,0,0,0,.34-.55V12.33A.71.71,0,0,0,21.66,11.78ZM11.82,5.56a1.63,1.63,0,1,1,1.63,1.63,1.63,1.63,0,0,1-1.63-1.63Zm9,10.68-.78-1-.38.54A8.77,8.77,0,0,1,18.52,17a9,9,0,0,1-2.37,1.59,10.12,10.12,0,0,0-1.79,1,8.12,8.12,0,0,0-.86.69h0a6.8,6.8,0,0,0-.57-.5,9.08,9.08,0,0,0-2.17-1.27,9.32,9.32,0,0,1-2-1.28,9,9,0,0,1-1.48-1.6l-.39-.53-.73,1,0-3.56L9.2,14.41H7.58l.84.81a6.06,6.06,0,0,0,2.35,1.4,5.66,5.66,0,0,0,1.53.28h.51V11.23h-2V10.14h1.92V9.69a2.51,2.51,0,0,0,0-.67,2.61,2.61,0,0,0-.31-.8l-.3-.45a2.51,2.51,0,0,0,1.33.38,2.54,2.54,0,0,0,1.39-.41l-.38.57a2.55,2.55,0,0,0-.27.76,3.53,3.53,0,0,0,0,.65v.45h1.87v1.19H14.14V17h.52a6.64,6.64,0,0,0,3.87-1.64l.93-.84H17.73l3.1-1.89Z"/></g></g></g></g></svg>