<svg height="512pt" viewBox="0 0 512 512" width="512pt" xmlns="http://www.w3.org/2000/svg"><path d="m437.046875 74.980469c-48.335937-48.351563-112.601563-74.980469-180.957031-74.980469-68.359375 0-132.621094 26.628906-180.957032 74.980469-48.335937 48.355469-74.953124 112.640625-74.953124 181.019531 0 36.921875 8.054687 73.683594 23.378906 107.023438-14.617188 15.832031-23.558594 36.984374-23.558594 60.183593 0 48.960938 39.820312 88.792969 88.765625 88.792969 23.160156 0 44.273437-8.917969 60.097656-23.5 33.390625 15.402344 70.230469 23.5 107.226563 23.5 68.355468 0 132.625-26.628906 180.957031-74.980469 48.335937-48.355469 74.953125-112.640625 74.953125-181.019531s-26.617188-132.664062-74.953125-181.019531zm-348.28125 407.019531c-32.402344 0-58.765625-26.375-58.765625-58.792969 0-32.421875 26.363281-58.796875 58.765625-58.796875 32.40625 0 58.769531 26.375 58.769531 58.796875 0 32.417969-26.363281 58.792969-58.769531 58.792969zm327.066406-66.191406c-42.671875 42.683594-99.402343 66.191406-159.742187 66.191406-30.890625 0-60.585938-6.042969-88.5-17.984375 6.351562-12.226563 9.945312-26.105469 9.945312-40.808594 0-48.960937-39.820312-88.796875-88.769531-88.796875-14.660156 0-28.507813 3.578125-40.707031 9.902344-11.871094-27.859375-17.878906-57.492188-17.878906-88.3125 0-60.367188 23.5-117.121094 66.167968-159.808594 42.667969-42.683594 99.398438-66.191406 159.742188-66.191406 60.339844 0 117.070312 23.507812 159.738281 66.191406 42.671875 42.6875 66.171875 99.441406 66.171875 159.808594s-23.5 117.121094-66.167969 159.808594zm0 0"/><path d="m115.832031 408.207031h-12.066406v-12.074219c0-8.285156-6.714844-15-15-15-8.28125 0-15 6.714844-15 15v12.074219h-12.0625c-8.285156 0-15 6.714844-15 15 0 8.28125 6.714844 15 15 15h12.0625v12.074219c0 8.28125 6.714844 15 15 15s15-6.71875 15-15v-12.074219h12.0625c8.285156 0 15-6.71875 15-15 0-8.285156-6.714844-15-14.996094-15zm0 0"/><path d="m299.652344 256.511719c10.417968-10.859375 16.828125-25.589844 16.828125-41.792969 0-33.308594-27.09375-60.40625-60.390625-60.40625-33.300782 0-60.390625 27.097656-60.390625 60.40625 0 16.203125 6.410156 30.933594 16.824219 41.792969-27.375 15.328125-45.921876 44.625-45.921876 78.175781 0 8.285156 6.714844 15 15 15h148.976563c8.28125 0 15-6.714844 15-15 0-33.550781-18.546875-62.847656-45.925781-78.175781zm-43.5625-72.199219c16.757812 0 30.390625 13.640625 30.390625 30.40625s-13.632813 30.40625-30.390625 30.40625c-16.757813 0-30.390625-13.640625-30.390625-30.40625s13.632812-30.40625 30.390625-30.40625zm-57.574219 135.375c6.660156-25.578125 29.949219-44.515625 57.574219-44.515625s50.910156 18.9375 57.574218 44.515625zm0 0"/></svg>