<?xml version="1.0" encoding="utf-8"?>
<!-- Generator: Adobe Illustrator 25.2.0, SVG Export Plug-In . SVG Version: 6.00 Build 0)  -->
<svg version="1.1" id="Capa_1" xmlns="http://www.w3.org/2000/svg" xmlns:xlink="http://www.w3.org/1999/xlink" x="0px" y="0px"
	 viewBox="0 0 782.1 782.1" style="enable-background:new 0 0 782.1 782.1;" xml:space="preserve">
<style type="text/css">
	.st0{fill:#002B53;}
</style>
<g>
	<g>
		<path class="st0" d="M730.6,131.1H51.5C23.1,131.1,0,154.2,0,182.6v416.9c0,28.4,23.1,51.5,51.5,51.5h679.1
			c28.4,0,51.5-23.1,51.5-51.5V182.6C782.1,154.2,759,131.1,730.6,131.1z M762.5,599.5c0,17.6-14.3,31.9-31.9,31.9H51.5
			c-17.6,0-31.9-14.3-31.9-31.9V182.6c0-17.6,14.3-31.9,31.9-31.9h679.1c17.6,0,31.9,14.3,31.9,31.9L762.5,599.5L762.5,599.5z"/>
		<path class="st0" d="M381.3,342h323.3v-67.9H381.3V342z M400.8,293.6H685v28.7H400.8V293.6z"/>
		<path class="st0" d="M381.3,429.2h323.3v-67.9H381.3V429.2z M400.8,380.9H685v28.7H400.8V380.9z"/>
		<path class="st0" d="M381.3,519.4h323.3v-67.9H381.3V519.4z M400.8,471.1H685v28.7H400.8V471.1z"/>
		<path class="st0" d="M75.7,518h216.9V269.6H75.7V518z M102.8,498.4c7.6-14.6,31.5-27.1,61.5-30.9l17.3-2.2l-10.9-13.6
			c-9.3-11.7-14.9-31.3-14.9-52.5c0-36.2,15.5-61.5,29.5-61.5c13.9,0,29.5,25.3,29.5,61.5c0,21.4-5.6,41.2-15,52.8L189,465.4
			l17.1,2.4c29.4,4.2,52.1,16.3,59.4,30.6L102.8,498.4L102.8,498.4z M273,289.2v187.2c-5.9-4.9-18.3-16.7-49.7-25.1
			c7.1-14.4,11.1-32.8,11.1-52c0-45.5-21.5-81.1-49.1-81.1c-27.5,0-49.1,35.6-49.1,81.1c0,19.3,3.9,37.3,10.8,51.5
			c-22.2,4.9-40.2,14.1-51.9,25.7V289.2H273z"/>
	</g>
</g>
</svg>
