<?xml version="1.0" encoding="utf-8"?>
<!-- Generator: Adobe Illustrator 25.2.0, SVG Export Plug-In . SVG Version: 6.00 Build 0)  -->
<svg version="1.1" id="Capa_1" xmlns="http://www.w3.org/2000/svg" xmlns:xlink="http://www.w3.org/1999/xlink" x="0px" y="0px"
	 viewBox="0 0 512 512" style="enable-background:new 0 0 512 512;" xml:space="preserve">
<style type="text/css">
	.st0{fill:#002B53;}
</style>
<path class="st0" d="M467,60h-46.9c-1.4-12.7-4.7-24.5-9.5-34.1C402.3,9.2,390,0,376,0s-26.3,9.2-34.6,25.9
	c-4.8,9.7-8.1,21.4-9.5,34.1h-31.7c-1.4-12.7-4.7-24.5-9.5-34.1C282.3,9.2,270,0,256,0s-26.3,9.2-34.6,25.9
	c-4.8,9.7-8.1,21.4-9.5,34.1h-31.7c-1.4-12.7-4.7-24.5-9.5-34.1C162.3,9.2,150,0,136,0s-26.3,9.2-34.6,25.9
	c-4.8,9.7-8.1,21.4-9.5,34.1H45C20.2,60,0,80.2,0,105v362c0,24.8,20.2,45,45,45h422c24.8,0,45-20.2,45-45V105
	C512,80.2,491.8,60,467,60z M368.2,39.3c3.8-7.7,7.3-9.3,7.8-9.3s4,1.6,7.8,9.3c2.8,5.7,4.9,12.9,6.1,20.7h-27.8
	C363.3,52.1,365.4,45,368.2,39.3z M248.2,39.3c3.8-7.7,7.3-9.3,7.8-9.3s4,1.6,7.8,9.3c2.8,5.7,4.9,12.9,6.1,20.7h-27.8
	C243.3,52.1,245.4,45,248.2,39.3z M128.2,39.3c3.8-7.7,7.3-9.3,7.8-9.3s4,1.6,7.8,9.3c2.8,5.7,4.9,12.9,6.1,20.7h-27.8
	C123.3,52.1,125.4,45,128.2,39.3z M45,90h104.9c-1.2,7.9-3.3,15-6.1,20.7c-3.8,7.7-7.3,9.3-7.8,9.3c-8.3,0-15,6.7-15,15
	s6.7,15,15,15c14,0,26.3-9.2,34.6-25.9c4.8-9.7,8.1-21.4,9.5-34.1h89.8c-1.2,7.9-3.3,15-6.1,20.7c-3.8,7.7-7.3,9.3-7.8,9.3
	c-8.3,0-15,6.7-15,15s6.7,15,15,15c14,0,26.3-9.2,34.6-25.9c4.8-9.7,8.1-21.4,9.5-34.1h89.8c-1.2,7.9-3.3,15-6.1,20.7
	c-3.8,7.7-7.3,9.3-7.8,9.3c-8.3,0-15,6.7-15,15s6.7,15,15,15c14,0,26.3-9.2,34.6-25.9c4.8-9.7,8.1-21.4,9.5-34.1H467
	c8.3,0,15,6.7,15,15v76H30v-76C30,96.7,36.7,90,45,90z M467,482H45c-8.3,0-15-6.7-15-15V211h452v256C482,475.3,475.3,482,467,482z"
	/>
<path class="st0" d="M436,241H76c-8.3,0-15,6.7-15,15v181c0,8.3,6.7,15,15,15h360c8.3,0,15-6.7,15-15V256
	C451,247.7,444.3,241,436,241z M421,331h-60v-60h60V331z M241,361v61h-60v-61H241z M181,331v-60h60v60H181z M271,361h60v61h-60V361z
	 M271,331v-60h60v60H271z M151,271v60H91v-60H151z M91,361h60v61H91V361z M361,422v-61h60v61H361z"/>
</svg>
