<svg xmlns="http://www.w3.org/2000/svg" viewBox="0 0 27.04 21.38"><defs><style>.cls-1{fill:#002b53;}</style></defs><g id="Capa_2" data-name="Capa 2"><g id="Capa_1-2" data-name="Capa 1"><path class="cls-1" d="M13.5,0a13.54,13.54,0,0,0-11,21.38H3.72a12.53,12.53,0,1,1,19.56,0h1.26A13.54,13.54,0,0,0,13.5,0Z"/><polygon class="cls-1" points="13.53 4.82 7.83 10.51 8.35 11.03 13.53 5.86 21.58 13.92 16.17 19.33 14.27 17.43 13.75 17.95 16.17 20.38 22.63 13.92 13.53 4.82"/><polygon class="cls-1" points="18.7 11.5 10.87 19.33 5.46 13.92 7.36 12.02 6.84 11.5 4.42 13.92 10.87 20.38 19.21 12.02 18.7 11.5"/><polygon class="cls-1" points="13.28 16.44 6.8 9.95 13.53 3.22 20.26 9.95 19.68 10.52 20.21 11.03 21.3 9.95 13.53 2.19 5.77 9.95 12.77 16.96 13.28 16.44"/><rect class="cls-1" x="12.59" y="8.36" width="1.89" height="1.89" transform="translate(-2.61 12.29) rotate(-45)"/></g></g></svg>