<?xml version="1.0" encoding="utf-8"?>
<!-- Generator: Adobe Illustrator 25.2.0, SVG Export Plug-In . SVG Version: 6.00 Build 0)  -->
<svg version="1.1" id="Capa_1" xmlns="http://www.w3.org/2000/svg" xmlns:xlink="http://www.w3.org/1999/xlink" x="0px" y="0px"
	 viewBox="0 0 512 512" style="enable-background:new 0 0 512 512;" xml:space="preserve">
<style type="text/css">
	.st0{fill:#002B53;}
</style>
<g>
	<path class="st0" d="M512,61H331V0H181v61H0v330h213.2L96.6,484.3l18.7,23.4L241,407.2V512h30V407.2l125.6,100.5l18.7-23.4
		L298.8,391H512V61z M211,30h90v31h-90V30z M482,361H30V91h452V361z"/>
	<path class="st0" d="M166,331c57.9,0,105-47.1,105-105s-47.1-105-105-105S61,168.1,61,226S108.1,331,166,331z M239.5,211H181v-58.5
		C210.3,158.5,233.5,181.7,239.5,211z M151,152.5V241h88.5c-7,34.2-37.3,60-73.5,60c-41.4,0-75-33.6-75-75
		C91,189.8,116.8,159.5,151,152.5z"/>
	<path class="st0" d="M301,121h150v30H301V121z"/>
	<path class="st0" d="M301,181h150v30H301V181z"/>
	<path class="st0" d="M301,241h150v30H301V241z"/>
	<path class="st0" d="M301,301h150v30H301V301z"/>
</g>
</svg>
