<?xml version="1.0" encoding="utf-8"?>
<!-- Generator: Adobe Illustrator 25.2.0, SVG Export Plug-In . SVG Version: 6.00 Build 0)  -->
<svg version="1.1" id="Capa_1" xmlns="http://www.w3.org/2000/svg" xmlns:xlink="http://www.w3.org/1999/xlink" x="0px" y="0px"
	 viewBox="0 0 27 21.4" style="enable-background:new 0 0 27 21.4;" xml:space="preserve">
<style type="text/css">
	.st0{fill:#002B53;}
	.st1{fill:#002856;}
</style>
<path class="st0" d="M13.5,0C6,0,0,6.1,0,13.6c0,2.8,0.9,5.5,2.5,7.8h1.2C-0.6,16,0.3,8.1,5.7,3.8S19,0.3,23.3,5.7
	c3.7,4.6,3.7,11.1,0,15.7h1.3c4.3-6.1,2.9-14.5-3.2-18.9C19,0.9,16.3,0,13.5,0z"/>
<polygon class="st1" points="22.4,8.4 19.6,15.6 17.6,20.7 15,20.7 13.4,15.6 11.3,8.4 10.9,7 10.4,8.4 7.6,15.6 5,15.6 7.8,8.4 
	9.7,3.2 9.7,3.2 12.3,3.2 13.9,8.4 16,15.6 16.5,16.9 17,15.6 19.8,8.4 "/>
</svg>
