<?xml version="1.0" encoding="utf-8"?>
<!-- Generator: Adobe Illustrator 25.2.0, SVG Export Plug-In . SVG Version: 6.00 Build 0)  -->
<svg version="1.1" id="Capa_1" xmlns="http://www.w3.org/2000/svg" xmlns:xlink="http://www.w3.org/1999/xlink" x="0px" y="0px"
	 viewBox="0 0 512 512" style="enable-background:new 0 0 512 512;" xml:space="preserve">
<style type="text/css">
	.st0{fill:#002B53;}
</style>
<g>
	<path class="st0" d="M203.6,345l70.7-212.1c2.6-7.9-1.6-16.4-9.5-19c-7.9-2.6-16.4,1.6-19,9.5l-70.7,212.1
		c-2.6,7.9,1.6,16.4,9.5,19c1.6,0.5,3.2,0.8,4.7,0.8C195.6,355.3,201.5,351.3,203.6,345z"/>
	<path class="st0" d="M309.5,279.2c24.8,0,45-20.2,45-45s-20.2-45-45-45s-45,20.2-45,45S284.7,279.2,309.5,279.2z M309.5,219.2
		c8.3,0,15,6.7,15,15s-6.7,15-15,15s-15-6.7-15-15S301.3,219.2,309.5,219.2z"/>
	<path class="st0" d="M139.8,189.2c-24.8,0-45,20.2-45,45s20.2,45,45,45s45-20.2,45-45S164.6,189.2,139.8,189.2z M139.8,249.2
		c-8.3,0-15-6.7-15-15s6.7-15,15-15s15,6.7,15,15S148.1,249.2,139.8,249.2z"/>
	<path class="st0" d="M509,186l-52.3-69.7l2-14.3c0.7-4.7-0.9-9.4-4.2-12.7l-31.8-31.8l31.8-31.8c5.9-5.9,5.9-15.4,0-21.2
		c-5.9-5.9-15.4-5.9-21.2,0l-31.8,31.8L369.6,4.4c-3.3-3.3-8.1-4.9-12.7-4.2L208.4,21.4c-3.2,0.5-6.2,1.9-8.5,4.2L16.1,209.5
		c-21.4,21.4-21.4,56.3,0,77.8l155.6,155.6c3.2,3.2,6.7,5.9,10.4,8.1v6.1c0,30.3,24.7,55,55,55h220c30.3,0,55-24.7,55-55V195
		C512,191.8,510.9,188.6,509,186L509,186z M37.3,266c-9.7-9.7-9.7-25.6,0-35.4L217.6,50.4l136.1-19.4l26.5,26.5L359,78.6L348.4,68
		c-5.9-5.9-15.4-5.9-21.2,0s-5.9,15.4,0,21.2l42.4,42.4c2.9,2.9,6.8,4.4,10.6,4.4s7.7-1.5,10.6-4.4c5.9-5.9,5.9-15.4,0-21.2
		l-10.6-10.6l21.2-21.2l26.5,26.5l-19.4,136.1L228.2,421.6c-4.7,4.7-11,7.3-17.7,7.3s-13-2.6-17.7-7.3L37.3,266z M482,457
		c0,13.8-11.2,25-25,25H237c-13.2,0-24-10.2-24.9-23.2c13.6-0.4,27-5.7,37.4-16L433.3,259c2.3-2.3,3.8-5.3,4.2-8.5l13.2-92.2
		L482,200L482,457z"/>
</g>
</svg>
