<?xml version="1.0"?>
<svg xmlns="http://www.w3.org/2000/svg" xmlns:xlink="http://www.w3.org/1999/xlink" xmlns:svgjs="http://svgjs.com/svgjs" version="1.1" width="512" height="512" x="0" y="0" viewBox="0 0 235.002 235.002" style="enable-background:new 0 0 512 512" xml:space="preserve" class=""><g>
<path xmlns="http://www.w3.org/2000/svg" d="M117.501,235.001c40.051,0,75.481-20.148,96.701-50.835c0.391-0.448,0.725-0.937,0.997-1.459  c6.952-10.382,12.291-21.929,15.664-34.281c0.09-0.267,0.161-0.539,0.221-0.814c2.552-9.615,3.918-19.706,3.918-30.112  c0-64.79-52.711-117.5-117.501-117.5S0,52.711,0,117.501S52.711,235.001,117.501,235.001z M117.501,220.001  c-25.802,0-49.404-9.586-67.441-25.38c8.287-9.78,21.418-7.741,46.053-2.878c23.233,4.587,53.422,10.543,89.19,2.559  C167.22,210.284,143.476,220.001,117.501,220.001z M117.501,15.001c46.598,0,86.027,31.257,98.437,73.904  c-13.082,1.029-29.993-8.755-49.224-19.893c-30.154-17.463-66.61-38.568-111.055-33.197C72.86,22.76,94.29,15.001,117.501,15.001z   M15,117.501c0-23.278,7.806-44.764,20.929-61.991c0.313-0.059,0.626-0.13,0.937-0.231c48.9-15.812,87.912,6.782,122.331,26.714  c20.128,11.656,38.037,22.028,54.756,22.027c1.717,0,3.421-0.117,5.114-0.345c0.612,4.524,0.936,9.138,0.936,13.826  c0,7.976-0.917,15.742-2.648,23.199c-12.222,3.708-38.246-7.227-63.479-17.836c-39.472-16.595-84.212-35.403-115.443-18.88  c-9.602,5.08-17.236,13.232-22.863,24.317C15.195,124.751,15,121.148,15,117.501z M45.446,117.242  c24.951-13.199,66.213,4.145,102.615,19.449c24.934,10.483,47.325,19.894,64.283,19.667c-2.42,5.883-5.368,11.495-8.792,16.771  c-42.152,16.195-76.694,9.394-104.535,3.898c-24.181-4.774-45.36-8.95-59.544,6.863c-7.24-8.496-13.123-18.182-17.303-28.723  C26.28,135.778,33.895,123.354,45.446,117.242z" fill="#002b53" data-original="#000000" style="" class=""/>
<g xmlns="http://www.w3.org/2000/svg">
</g>
<g xmlns="http://www.w3.org/2000/svg">
</g>
<g xmlns="http://www.w3.org/2000/svg">
</g>
<g xmlns="http://www.w3.org/2000/svg">
</g>
<g xmlns="http://www.w3.org/2000/svg">
</g>
<g xmlns="http://www.w3.org/2000/svg">
</g>
<g xmlns="http://www.w3.org/2000/svg">
</g>
<g xmlns="http://www.w3.org/2000/svg">
</g>
<g xmlns="http://www.w3.org/2000/svg">
</g>
<g xmlns="http://www.w3.org/2000/svg">
</g>
<g xmlns="http://www.w3.org/2000/svg">
</g>
<g xmlns="http://www.w3.org/2000/svg">
</g>
<g xmlns="http://www.w3.org/2000/svg">
</g>
<g xmlns="http://www.w3.org/2000/svg">
</g>
<g xmlns="http://www.w3.org/2000/svg">
</g>
</g></svg>
