<?xml version="1.0" encoding="utf-8"?>
<!-- Generator: Adobe Illustrator 25.2.0, SVG Export Plug-In . SVG Version: 6.00 Build 0)  -->
<svg version="1.1" id="Capa_1" xmlns="http://www.w3.org/2000/svg" xmlns:xlink="http://www.w3.org/1999/xlink" x="0px" y="0px"
	 viewBox="0 0 512 512" style="enable-background:new 0 0 512 512;" xml:space="preserve">
<style type="text/css">
	.st0{fill:#002B53;}
</style>
<g>
	<path class="st0" d="M260.7,370.1h159.6c4.1,0,7.5-3.4,7.5-7.5V244.8c0-4.1-3.4-7.5-7.5-7.5H156.7c-4.1,0-7.5,3.4-7.5,7.5v117.8
		c0,4.1,3.4,7.5,7.5,7.5h52c4.1,0,7.5-3.4,7.5-7.5v-51.2h37v51.2C253.2,366.7,256.5,370.1,260.7,370.1L260.7,370.1z M268.2,311.4
		h59.7v43.7h-59.7V311.4z M412.8,355.1h-69.9V252.3h69.9V355.1z M327.9,296.4h-59.7v-44.1h59.7V296.4z M164.2,252.3h89v44.1h-89
		L164.2,252.3z M201.2,355.1h-37v-43.7h37V355.1z"/>
	<path class="st0" d="M384.2,403.7H37.5c-12.4,0-22.5-10.1-22.5-22.4c0,0,0,0,0,0c0.1-12.4,10.1-22.4,22.5-22.4h25.6
		c4.1,0,7.5-3.4,7.5-7.5V170.1h80.7c4.1,0,7.5-3.4,7.5-7.5s-3.4-7.5-7.5-7.5H70.6v-54.3c0-4.1-3.4-7.5-7.5-7.5H37.5
		C16.8,93.3,0,110.1,0,130.8v250.4c0,20.7,16.8,37.5,37.5,37.5h346.7c4.1,0,7.5-3.4,7.5-7.5S388.4,403.7,384.2,403.7z M15,130.8
		c0-12.4,10.1-22.5,22.5-22.5h18.1v235.5H37.5c-8.4,0-16.2,2.8-22.5,7.5V130.8z"/>
	<path class="st0" d="M504.5,155.1H181.3c-4.1,0-7.5,3.4-7.5,7.5s3.4,7.5,7.5,7.5H497v233.6h-82.8c-4.1,0-7.5,3.4-7.5,7.5
		s3.4,7.5,7.5,7.5h90.3c4.1,0,7.5-3.4,7.5-7.5V162.6C512,158.5,508.6,155.1,504.5,155.1L504.5,155.1z"/>
	<path class="st0" d="M420.3,201.1H128.1v-6.4c0-4.1-3.4-7.5-7.5-7.5s-7.5,3.4-7.5,7.5v6.4H106c-4.1,0-7.5,3.4-7.5,7.5
		s3.4,7.5,7.5,7.5h7.1v149.5c0,4.1,3.4,7.5,7.5,7.5s7.5-3.4,7.5-7.5V216.1h292.2c4.1,0,7.5-3.4,7.5-7.5
		C427.8,204.4,424.4,201.1,420.3,201.1L420.3,201.1z"/>
</g>
</svg>
