<?xml version="1.0" encoding="utf-8"?>
<!-- Generator: Adobe Illustrator 25.2.0, SVG Export Plug-In . SVG Version: 6.00 Build 0)  -->
<svg version="1.1" id="Capa_1" xmlns="http://www.w3.org/2000/svg" xmlns:xlink="http://www.w3.org/1999/xlink" x="0px" y="0px"
	 viewBox="0 0 512 512" style="enable-background:new 0 0 512 512;" xml:space="preserve">
<style type="text/css">
	.st0{fill:#002B53;}
</style>
<g>
	<g>
		<g>
			<path class="st0" d="M51.2,298.7h162.1c9.7-0.3,17.4-8.5,17.1-18.2V104.3c0.3-8.8-5.9-16.4-14.5-18L53.8,59.9
				c-4.7-0.8-9.6,0.6-13.2,3.8c-4.1,3.6-6.5,8.8-6.4,14.3v202.4C33.8,290.2,41.5,298.3,51.2,298.7z M51.2,78c0-0.6,0.2-1,0-1.2
				l161.7,26.2c0.3,0.4,0.5,0.8,0.4,1.3v137.8l-53.4-60c-1.6-1.8-3.8-2.8-6.1-2.9s-4.6,0.8-6.3,2.5l-25.4,25.4l-21.9-25
				c-1.6-1.8-3.9-2.9-6.4-2.9c-2.4,0.1-4.7,1.1-6.4,2.8l-36.3,40.4V78z M51.2,247.9l42.6-47.3l53.4,61c3.1,3.5,8.5,3.9,12,0.8
				c3.5-3.1,3.9-8.5,0.8-12L133.4,220l19.8-19.8l60.1,67.6v12.6c0,0.4-0.1,0.8-0.3,1.2l-161.4,0.1c-0.3-0.4-0.5-0.8-0.4-1.3V247.9z"
				/>
			<path class="st0" d="M468.1,85.4L288.9,111c-4.4,0.6-7.6,4.6-7.3,9c0.3,4.5,4,7.9,8.5,7.9c0.4,0,0.8,0,1.2-0.1l179.2-25.6
				c3-0.4,5.6-2.4,6.7-5.3c1.1-2.8,0.7-6.1-1.2-8.5C474.2,86.2,471.1,85,468.1,85.4z"/>
			<path class="st0" d="M290.1,179.2c0.3,0,0.5,0,0.8,0l179.2-17.1c4.7-0.5,8.1-4.6,7.7-9.3c-0.4-4.7-4.6-8.1-9.3-7.7l-179.2,17.1
				c-4.5,0.4-7.9,4.3-7.7,8.9C281.8,175.6,285.6,179.2,290.1,179.2z"/>
			<path class="st0" d="M469.3,213.3H290.1c-4.7,0-8.5,3.8-8.5,8.5s3.8,8.5,8.5,8.5h179.2c4.7,0,8.5-3.8,8.5-8.5
				S474,213.3,469.3,213.3z"/>
			<path class="st0" d="M469.3,264.5H290.1c-4.7,0-8.5,3.8-8.5,8.5c0,4.7,3.8,8.5,8.5,8.5h179.2c4.7,0,8.5-3.8,8.5-8.5
				C477.9,268.4,474,264.5,469.3,264.5z"/>
			<path class="st0" d="M503.1,6.3c-5.6-4.9-12.9-7.1-20.2-6L256,31.9L29.1,0.3c-7.3-1-14.7,1.2-20.2,6C3.2,11.2,0,18.3,0,25.8
				v460.4c0,7.5,3.2,14.6,8.9,19.5c4.6,4,10.6,6.3,16.7,6.3c1.2,0,2.3-0.1,3.5-0.2L256,480.1l226.9,31.6c1.2,0.2,2.3,0.2,3.5,0.2
				c6.2,0,12.1-2.2,16.7-6.3c5.6-4.9,8.9-12,8.9-19.5V25.8C512,18.3,508.8,11.2,503.1,6.3z M26.8,494.9c-2.4,0.4-4.9-0.4-6.7-2
				c-1.9-1.7-3-4.1-3-6.6V367.6l129.3-6.2c22.5-1.1,43.7,10.6,54.7,30.4l41.3,73.1L26.8,494.9z M247.5,439.1l-31.6-55.8
				c-14.2-25.3-41.4-40.4-70.4-39l-128.5,6.2V25.8c0-2.5,1.1-5,3-6.6c1.5-1.3,3.5-2.1,5.5-2.1c0.4,0,0.8,0,1.2,0.1l220.7,30.8
				L247.5,439.1L247.5,439.1z M494.9,486.2c0,2.5-1.1,5-3,6.6c-1.8,1.6-4.3,2.4-6.7,2l-215.6-30l41.3-73.1
				c11-19.7,32.2-31.5,54.7-30.4l129.3,6.2L494.9,486.2L494.9,486.2z M494.9,350.5l-128.5-6.2c-29-1.4-56.2,13.7-70.4,39l-31.6,55.8
				V47.9l220.7-30.8c2.4-0.3,4.9,0.4,6.7,2c1.9,1.7,3,4.1,3,6.6L494.9,350.5L494.9,350.5z"/>
			<path class="st0" d="M170.7,170.7c14.1,0,25.6-11.5,25.6-25.6s-11.5-25.6-25.6-25.6s-25.6,11.5-25.6,25.6
				C145.1,159.2,156.5,170.7,170.7,170.7z M170.7,136.5c4.7,0,8.5,3.8,8.5,8.5s-3.8,8.5-8.5,8.5s-8.5-3.8-8.5-8.5
				C162.1,140.4,166,136.5,170.7,136.5z"/>
		</g>
	</g>
</g>
</svg>
