<?xml version="1.0"?>
<svg xmlns="http://www.w3.org/2000/svg" xmlns:xlink="http://www.w3.org/1999/xlink" xmlns:svgjs="http://svgjs.com/svgjs" version="1.1" width="512" height="512" x="0" y="0" viewBox="0 0 128 128" style="enable-background:new 0 0 512 512" xml:space="preserve" class=""><g><title xmlns="http://www.w3.org/2000/svg">TREES</title><path xmlns="http://www.w3.org/2000/svg" d="M121.5,119.75H101.71V99.878H121.5a1.75,1.75,0,0,0,1.516-2.625L112.262,78.627h6.474A1.75,1.75,0,0,0,120.251,76L109.5,57.376h5.611a1.75,1.75,0,0,0,1.516-2.625L98.478,23.317a1.75,1.75,0,0,0-3.031,0L77.3,54.751a1.75,1.75,0,0,0,1.516,2.625h5.612L73.672,76a1.75,1.75,0,0,0,1.516,2.625h6.474L70.907,97.253a1.75,1.75,0,0,0,1.516,2.625H92.21V119.75H40.25V95.628H64.5A1.75,1.75,0,0,0,66.016,93L53.031,70.514h8.2a1.75,1.75,0,0,0,1.516-2.625L49.764,45.4h7.184a1.75,1.75,0,0,0,1.516-2.625L37.016,5.625a1.75,1.75,0,0,0-3.031,0L12.537,42.773A1.75,1.75,0,0,0,14.052,45.4h7.184L8.251,67.889a1.75,1.75,0,0,0,1.516,2.625h8.2L4.984,93A1.75,1.75,0,0,0,6.5,95.628H30.75V119.75H6.5a1.75,1.75,0,0,0,0,3.5h115a1.75,1.75,0,0,0,0-3.5Zm-35.292-42a1.75,1.75,0,0,0-1.516-2.625H78.219L88.973,56.5a1.75,1.75,0,0,0-1.516-2.625H81.845L96.962,27.692l15.116,26.184h-5.611a1.75,1.75,0,0,0-1.516,2.625L115.7,75.127H109.23a1.75,1.75,0,0,0-1.516,2.625l10.754,18.626H75.454ZM22.516,69.639A1.75,1.75,0,0,0,21,67.014H12.8l12.984-22.49A1.75,1.75,0,0,0,24.267,41.9H17.083L35.5,10,53.917,41.9H46.733a1.75,1.75,0,0,0-1.516,2.625L58.2,67.014H50a1.75,1.75,0,0,0-1.516,2.625L61.469,92.128H9.531ZM34.25,119.75V95.628h2.5V119.75Zm61.46,0V99.878h2.5V119.75Z" fill="#0e2c56" data-original="#000000" style="" class=""/></g></svg>
