<svg xmlns="http://www.w3.org/2000/svg" viewBox="0 0 731 212.69"><defs><style>.cls-1{fill:#fff;}</style></defs><title>habitta blanco</title><g id="Capa_2" data-name="Capa 2"><g id="Capa_1-2" data-name="Capa 1"><path class="cls-1" d="M400.78,179.13h7.09c5.63,0,8.93,3.25,8.93,8.11a7.88,7.88,0,0,1-3.79,7.09c4.23.68,6.7,3.93,6.7,8.11,0,5.68-4.17,9.08-10,9.08h-8.88Zm2.13,14.66h5.15a6.26,6.26,0,0,0,4.42-1.35,6.12,6.12,0,0,0,2.14-5,6.29,6.29,0,0,0-2.19-5c-1.6-1.26-3.69-1.36-5.39-1.36h-4.13Zm0,15.79h5.44c2.19,0,4.86,0,7-1.94a6.3,6.3,0,0,0,2.09-5c0-2.91-1-4.9-3.45-6-.87-.39-2.47-.92-6.07-.92h-5Z"/><path class="cls-1" d="M449.91,197.68l-10.63-18.55h2.43L451,195.49l9.52-16.36H463l-10.93,18.55v13.84h-2.14Z"/><path class="cls-1" d="M541.78,185.73a14.34,14.34,0,0,0-10.92-5.09,14.74,14.74,0,0,0,0,29.47,15.06,15.06,0,0,0,10.88-4.9V208a16.22,16.22,0,0,1-10.78,4,16.68,16.68,0,1,1-.1-33.36,15.73,15.73,0,0,1,10.88,4.23Z"/><path class="cls-1" d="M591.94,185.73A14.35,14.35,0,0,0,581,180.64a14.74,14.74,0,0,0,0,29.47,15.08,15.08,0,0,0,10.88-4.9V208a16.24,16.24,0,0,1-10.78,4,16.68,16.68,0,1,1-.1-33.36,15.73,15.73,0,0,1,10.88,4.23Z"/><path class="cls-1" d="M619.32,179.13v32.39h-2.14V179.13Z"/><path class="cls-1" d="M646,211.52,649.67,178l14,30,14-30,3.69,33.51h-2.14l-2.87-26s-12.67,27.2-12.72,27.2L651,185.49l-2.87,26Z"/><path class="cls-1" d="M724.35,200.89h-13.8l-4.32,10.63H703.9l13.65-33.36L731,211.52h-2.33Zm-.78-1.95L717.5,183.6l-6.17,15.34Z"/><polygon class="cls-1" points="91.07 38.86 43.52 38.86 43.52 2.31 0 2.31 0 143.14 43.52 143.14 43.52 73.44 91.07 73.44 91.07 143.14 134.78 143.14 134.78 2.31 91.07 2.31 91.07 38.86"/><path class="cls-1" d="M345.36,38.81a42.74,42.74,0,0,0-16.48,3.08,38.7,38.7,0,0,0-13.31,9.22V2.31H276.09V143.14h36.6V128.06q7.59,9.51,14,13a40.45,40.45,0,0,0,18.83,4.42,39.7,39.7,0,0,0,21.85-6.3q9.86-6.28,15.42-19t5.57-29.44q0-25.08-12.2-38.48T345.36,38.81Zm-.82,72.2a14.66,14.66,0,0,1-11.77,5.81,15.66,15.66,0,0,1-12.54-5.91q-5-5.91-4.94-19.07,0-12,5-17.92a16.31,16.31,0,0,1,13-5.9q6.63,0,11.28,5.66t4.66,17.78Q349.29,105.2,344.54,111Z"/><rect class="cls-1" x="400.3" y="2.31" width="39.1" height="26.91"/><rect class="cls-1" x="400.3" y="38.86" width="39.1" height="104.28"/><path class="cls-1" d="M727,132.7a54.39,54.39,0,0,1-.91-11.29V76.35a44.33,44.33,0,0,0-2.88-15.13q-2.9-7.92-7.88-12.25a36.33,36.33,0,0,0-17.77-8.21q-10.67-2-28.25-2A119.27,119.27,0,0,0,649,40.42q-9.41,1.63-14.79,4.61a33.85,33.85,0,0,0-11.48,9.75q-4,5.63-6.1,15.42L654,74.14q2.31-6.63,6-9Q664.8,62,674.41,62q7.5,0,10.47,2.88t3,10.09A135,135,0,0,1,674,79.67q-6.54,1.77-28.53,6.19Q627.14,89.52,620.33,97t-6.82,19.11A26.87,26.87,0,0,0,623,137q9.46,8.46,27.71,8.45,13.74,0,24.12-4.22a50.71,50.71,0,0,0,15.27-10.57,44,44,0,0,0,1.35,6.48,36.13,36.13,0,0,0,2.88,6H731A50.86,50.86,0,0,1,727,132.7Zm-39.15-31.76q0,7.31-2.35,11.87a19.17,19.17,0,0,1-8,7.73,24.22,24.22,0,0,1-12.15,3.17q-6.24,0-9.46-2.93A10,10,0,0,1,656,106q3.16-3.08,15.08-6.25,8.75-2.21,16.81-5.09Z"/><path class="cls-1" d="M187.14,74.21l-37.37-3.94q2.11-9.79,6.1-15.42a33.85,33.85,0,0,1,11.48-9.75q5.39-3,14.8-4.61a119.06,119.06,0,0,1,20.36-1.63q17.58,0,28.25,2A36.29,36.29,0,0,1,248.53,49q5,4.32,7.88,12.25a44.28,44.28,0,0,1,2.88,15.13v45.06a54.22,54.22,0,0,0,.91,11.28,50.69,50.69,0,0,0,4,10.43h-36.7a37.86,37.86,0,0,1-2.88-6,44,44,0,0,1-1.35-6.48A50.71,50.71,0,0,1,208,141.27q-10.38,4.22-24.11,4.22-18.25,0-27.72-8.45a26.84,26.84,0,0,1-9.46-20.85q0-11.61,6.82-19.11t25.17-11.15q22-4.41,28.53-6.19a134.14,134.14,0,0,0,13.83-4.66q0-7.22-3-10.09T207.6,62.11q-9.6,0-14.41,3.07Q189.46,67.58,187.14,74.21Zm33.91,20.56q-8.07,2.88-16.81,5.09-11.91,3.18-15.08,6.25a10,10,0,0,0,0,14.74q3.22,2.94,9.46,2.93a24.28,24.28,0,0,0,12.16-3.17,19.2,19.2,0,0,0,8-7.73q2.36-4.56,2.35-11.87ZM204.24,2.31h33.63l-30,26.91H189.13Z"/><path class="cls-1" d="M512.87,117.87q-4.8,0-6.72-3.26c-.84-1.41-1.25-4.28-1.25-8.63V67.49h21.52V38.86H504.9V2.4L465.7,22.47V38.86H451.29V67.49H465.7v38.23q0,17.09,3.32,24.71a22.81,22.81,0,0,0,10.23,11.36q6.92,3.75,21.52,3.75a127.51,127.51,0,0,0,27.09-3.17l-2.88-27Q517.19,117.87,512.87,117.87Z"/><path class="cls-1" d="M540,27.67c3.2,0,5.44,1.08,6.72,3.26.84,1.4,1.25,4.28,1.25,8.63V78.05H526.49v28.63H548v36.46l39.2-20.08V106.68h14.41V78.05H587.21V39.82q0-17.08-3.32-24.71A22.83,22.83,0,0,0,573.66,3.74Q566.74,0,552.14,0a127.51,127.51,0,0,0-27.09,3.17l2.88,27Q535.72,27.67,540,27.67Z"/></g></g></svg>