<?xml version="1.0"?>
<svg xmlns="http://www.w3.org/2000/svg" xmlns:xlink="http://www.w3.org/1999/xlink" xmlns:svgjs="http://svgjs.com/svgjs" version="1.1" width="512" height="512" x="0" y="0" viewBox="0 0 512 512" style="enable-background:new 0 0 512 512" xml:space="preserve" class=""><g>
<g xmlns="http://www.w3.org/2000/svg">
	<g>
		<path d="M121.974,65.623C109.58,46.071,87.091,39.285,69.661,49.839c-7.8,4.724-13.244,12.215-15.329,21.095    c-2.435,10.369-0.162,21.782,6.401,32.134c5.956,9.396,15.638,18.138,25.9,23.385c6.806,3.48,13.355,5.229,19.293,5.229    c4.818-0.001,9.234-1.153,13.055-3.467c5.827-3.529,9.894-9.591,11.758-17.531C133.94,97.052,130.418,78.943,121.974,65.623z     M116.138,107.254c-0.643,2.738-2.019,6.37-4.926,8.13c-1.439,0.872-3.22,1.277-5.232,1.277    c-9.751-0.001-24.905-9.52-32.578-21.624c-4.386-6.919-5.973-14.262-4.467-20.674c1.173-4.994,4.111-9.037,8.497-11.693    c3.137-1.899,6.541-2.81,9.989-2.81c8.017,0,16.264,4.927,21.886,13.793C115.531,83.472,118.404,97.604,116.138,107.254z" fill="#0e2c56" data-original="#000000" style=""/>
	</g>
</g>
<g xmlns="http://www.w3.org/2000/svg">
	<g>
		<path d="M72.252,144.42c-3.181-9.492-9.48-19.013-16.849-25.469c-15.574-13.643-36.245-13.74-48.084-0.225    c-5.773,6.59-8.258,15.114-6.999,24.001c1.227,8.661,6.04,17.055,13.551,23.635c7.369,6.455,17.636,11.446,27.465,13.35    c3.005,0.582,5.874,0.87,8.58,0.87c8.164,0,14.843-2.618,19.265-7.665C75.068,166.196,76.158,156.076,72.252,144.42z     M57.898,163.033c-2.129,2.43-7.382,3.18-13.709,1.953c-7.226-1.399-15.056-5.196-20.434-9.907    c-4.812-4.215-7.86-9.349-8.584-14.456c-0.637-4.494,0.581-8.761,3.43-12.013c2.916-3.329,6.904-4.972,11.268-4.972    c5.073,0,10.655,2.22,15.65,6.596C55.246,138.755,63.296,156.871,57.898,163.033z" fill="#0e2c56" data-original="#000000" style=""/>
	</g>
</g>
<g xmlns="http://www.w3.org/2000/svg">
	<g>
		<path d="M204.04,40.184c-5.416-7.339-13.373-12.078-22.403-13.344c-14.94-2.099-29.464,5.852-37,20.249    c-1.921,3.67-0.504,8.202,3.166,10.123c3.67,1.922,8.202,0.503,10.123-3.166c4.627-8.841,12.911-13.575,21.628-12.352    c5.078,0.713,9.372,3.27,12.418,7.397c3.912,5.3,5.348,12.673,4.044,20.761c-2.752,17.07-16.992,34.969-26.73,33.604    c-6.887-0.966-13.287-12.046-14.886-25.773c-0.479-4.114-4.202-7.057-8.317-6.581c-4.115,0.48-7.061,4.204-6.582,8.318    c2.064,17.714,11.43,36.609,27.702,38.891c1.063,0.149,2.13,0.223,3.201,0.223c8.879,0,17.94-5.088,25.834-14.594    c7.363-8.867,12.816-20.718,14.586-31.7C212.774,60.138,210.365,48.754,204.04,40.184z" fill="#0e2c56" data-original="#000000" style=""/>
	</g>
</g>
<g xmlns="http://www.w3.org/2000/svg">
	<g>
		<path d="M281.977,84.876c-2.346-8.665-7.99-15.518-15.892-19.299c-7.902-3.781-16.78-3.876-24.999-0.265    c-8.009,3.518-14.793,10.416-19.103,19.424c-4.228,8.838-6.264,20.071-5.446,30.048c1.004,12.253,5.996,21.124,14.055,24.98    c2.978,1.424,6.09,2.066,9.248,2.066c15.521,0,32.124-15.517,38.999-29.891C283.149,102.931,284.263,93.32,281.977,84.876z     M265.31,105.465c-5.581,11.665-20.855,24.305-28.244,20.768c-7.39-3.536-7.132-23.357-1.551-35.023    c2.761-5.77,6.882-10.09,11.605-12.165c2.055-0.902,4.177-1.353,6.27-1.353c2.141,0,4.251,0.472,6.224,1.415    c3.899,1.866,6.701,5.307,7.887,9.689C268.849,93.775,268.071,99.695,265.31,105.465z" fill="#0e2c56" data-original="#000000" style=""/>
	</g>
</g>
<g xmlns="http://www.w3.org/2000/svg">
	<g>
		<path d="M253.047,193.527c-3.266-15.902-13.466-30.832-28.72-42.039c-3.338-2.454-8.031-1.736-10.484,1.603    c-2.452,3.338-1.734,8.032,1.604,10.484c12.255,9.003,20.391,20.712,22.908,32.969c2.694,13.118-1.908,23.126-14.483,31.492    c-11.511,7.658-29.093,13.735-55.332,19.124c-18.271,3.752-32.541,5.353-43.716,5.353c-30.304-0.002-37.814-11.779-40.397-24.354    c-6.099-29.698,19.993-69.672,64.042-78.72c13.728-2.819,28.101-2.229,41.563,1.705c3.976,1.163,8.14-1.119,9.302-5.095    c1.162-3.975-1.119-8.14-5.095-9.302c-15.801-4.618-32.671-5.309-48.788-2c-23.785,4.886-44.926,18.046-59.529,37.056    C71.69,190.33,65.79,211.971,69.734,231.177c3.97,19.332,16.655,31.098,37.702,34.969c5.226,0.961,10.994,1.445,17.421,1.445    c12.705,0,27.98-1.893,46.701-5.737c28.19-5.79,47.453-12.568,60.622-21.329C249.997,228.671,257.018,212.859,253.047,193.527z" fill="#0e2c56" data-original="#000000" style=""/>
	</g>
</g>
<g xmlns="http://www.w3.org/2000/svg">
	<g>
		<path d="M353.539,236.6c-9.11-0.42-17.803,2.765-24.482,8.977c-7.8,7.254-12.27,17.997-12.588,30.251    c-0.289,11.12,2.882,23.774,8.48,33.848c6.726,12.103,15.917,19.023,25.881,19.486c0.35,0.016,0.699,0.024,1.048,0.024    c6.449,0,12.819-2.763,18.484-8.03c10.253-9.538,17.417-26.538,17.826-42.304C388.788,255.71,373.892,237.546,353.539,236.6z     M373.193,278.461c-0.301,11.622-5.789,24.957-13.047,31.709c-2.059,1.914-5.218,4.15-8.62,4.007    c-9.824-0.457-20.511-20.679-20.063-37.962c0.213-8.19,2.986-15.171,7.809-19.657c3.528-3.281,7.881-4.998,12.64-4.998    c0.308,0,0.619,0.008,0.931,0.021C365.024,252.147,373.582,263.452,373.193,278.461z" fill="#0e2c56" data-original="#000000" style=""/>
	</g>
</g>
<g xmlns="http://www.w3.org/2000/svg">
	<g>
		<path d="M303.193,286.046c-2.572-9.65-7.965-17.682-15.187-22.619c-7.41-5.065-16.153-6.613-24.618-4.357    c-17.36,4.628-26.43,23.203-21.098,43.209c2.523,9.467,8.269,19.331,15.37,26.388c6.972,6.929,14.48,10.559,21.622,10.559    c1.79,0,3.557-0.228,5.287-0.689C303.435,333.508,308.132,304.575,303.193,286.046z M280.706,324.043    c-3.123,0.837-7.902-1.472-12.473-6.015c-5.221-5.189-9.608-12.703-11.449-19.612c-3.182-11.936,1.22-22.387,10.467-24.852    c1.231-0.328,2.478-0.49,3.721-0.49c2.975,0,5.926,0.929,8.569,2.736c4.258,2.911,7.511,7.918,9.158,14.099    C292.03,302.405,288.622,321.933,280.706,324.043z" fill="#0e2c56" data-original="#000000" style=""/>
	</g>
</g>
<g xmlns="http://www.w3.org/2000/svg">
	<g>
		<path d="M470.51,303.448c-0.41-9.112-4.376-17.48-11.17-23.563c-11.24-10.064-27.729-11.555-42.008-3.798    c-3.639,1.977-4.987,6.53-3.01,10.17c1.977,3.639,6.53,4.986,10.17,3.01c8.768-4.764,18.287-4.077,24.842,1.792    c3.82,3.42,5.961,7.937,6.191,13.061c0.295,6.581-2.62,13.503-8.209,19.494c-11.795,12.641-33.592,19.573-40.918,13.013    c-5.182-4.64-4.323-17.406,1.996-29.696c1.894-3.683,0.444-8.205-3.24-10.099c-3.684-1.894-8.204-0.443-10.099,3.24    c-8.155,15.86-10.904,36.769,1.337,47.73c4.722,4.228,11.049,6.378,18.443,6.378c4.241,0,8.834-0.707,13.675-2.135    c11.055-3.261,22.185-10.064,29.774-18.198C466.646,324.884,470.988,314.089,470.51,303.448z" fill="#0e2c56" data-original="#000000" style=""/>
	</g>
</g>
<g xmlns="http://www.w3.org/2000/svg">
	<g>
		<path d="M507.887,359.102c-9.138-15.468-29.473-19.191-47.298-8.66c-8.435,4.983-16.384,13.177-21.264,21.918    c-5.992,10.734-6.789,20.881-2.245,28.573c4.508,7.63,13.667,11.822,25.814,11.822c0.098,0,0.198,0,0.296,0.002    c10.011-0.057,21.023-3.065,29.458-8.048c8.598-5.08,14.878-12.44,17.684-20.726C513.211,375.48,512.343,366.644,507.887,359.102z     M496.124,379.171c-1.655,4.886-5.599,9.368-11.106,12.622c-6.155,3.636-14.552,5.921-21.912,5.962    c-6.427,0.052-11.468-1.67-13.112-4.452c-1.644-2.782-0.713-8.006,2.428-13.633c3.588-6.426,9.64-12.678,15.796-16.315    c10.636-6.283,21.887-4.863,26.754,3.376C497.171,370.453,497.58,374.871,496.124,379.171z" fill="#0e2c56" data-original="#000000" style=""/>
	</g>
</g>
<g xmlns="http://www.w3.org/2000/svg">
	<g>
		<path d="M425.346,407.177c-1.406-3.896-5.704-5.916-9.6-4.509c-3.897,1.405-5.916,5.704-4.51,9.6    c5.161,14.304,5.394,28.56,0.656,40.141c-6.654,16.264-22.096,29.354-86.175,3.138c-24.793-10.143-40.95-19.363-50.847-29.015    c-10.814-10.546-13.488-21.23-8.417-33.626c5.774-14.113,19.415-25.686,37.426-31.752c19.303-6.502,40.473-5.768,59.612,2.061    c12.971,5.307,24.578,13.804,33.565,24.571c2.654,3.18,7.383,3.607,10.563,0.952c3.18-2.654,3.606-7.383,0.952-10.563    c-10.549-12.639-24.174-22.612-39.401-28.842c-22.473-9.195-47.362-10.045-70.079-2.393    c-22.141,7.456-39.097,22.141-46.521,40.287c-7.473,18.266-3.494,35.103,11.827,50.044c11.324,11.043,29.004,21.262,55.64,32.159    c26.636,10.898,46.408,16.002,62.225,16.063c0.095,0,0.189,0,0.284,0c21.245,0,35.789-9.219,43.228-27.405    C431.922,443.063,431.77,424.982,425.346,407.177z" fill="#0e2c56" data-original="#000000" style=""/>
	</g>
</g>
<g xmlns="http://www.w3.org/2000/svg">
</g>
<g xmlns="http://www.w3.org/2000/svg">
</g>
<g xmlns="http://www.w3.org/2000/svg">
</g>
<g xmlns="http://www.w3.org/2000/svg">
</g>
<g xmlns="http://www.w3.org/2000/svg">
</g>
<g xmlns="http://www.w3.org/2000/svg">
</g>
<g xmlns="http://www.w3.org/2000/svg">
</g>
<g xmlns="http://www.w3.org/2000/svg">
</g>
<g xmlns="http://www.w3.org/2000/svg">
</g>
<g xmlns="http://www.w3.org/2000/svg">
</g>
<g xmlns="http://www.w3.org/2000/svg">
</g>
<g xmlns="http://www.w3.org/2000/svg">
</g>
<g xmlns="http://www.w3.org/2000/svg">
</g>
<g xmlns="http://www.w3.org/2000/svg">
</g>
<g xmlns="http://www.w3.org/2000/svg">
</g>
</g></svg>
