<?xml version="1.0" encoding="utf-8"?>
<!-- Generator: Adobe Illustrator 24.3.0, SVG Export Plug-In . SVG Version: 6.00 Build 0)  -->
<svg version="1.1" id="Capa_1" xmlns:svgjs="http://svgjs.com/svgjs"
	 xmlns="http://www.w3.org/2000/svg" xmlns:xlink="http://www.w3.org/1999/xlink" x="0px" y="0px" viewBox="0 0 512 512"
	 style="enable-background:new 0 0 512 512;" xml:space="preserve">
<style type="text/css">
	.st0{fill:#FFFFFF;}
</style>
<g>
	<g>
		<g>
			<path class="st0" d="M503.5,0H8.5C3.8,0,0,3.8,0,8.5v494.9c0,4.7,3.8,8.5,8.5,8.5h494.9c4.7,0,8.5-3.8,8.5-8.5V8.5
				C512,3.8,508.2,0,503.5,0z M17.1,17.1h128c0,25.7,0,101.2,0,102.4c0,77.4-47.7,124.6-128,127.7V17.1z M161.4,136.5h154.4v170.7
				H110.9v-73.3C141,210.2,159.3,174.7,161.4,136.5z M256,469.3v25.6H17.1V264.2c26.8-0.4,53-7.1,76.8-19.4l0,70.9
				c0,4.7,3.8,8.5,8.5,8.5h51.2v68.3c0,4.7,3.8,8.5,8.5,8.5h108c4.6,0,8.4,0,11.5,0v59.8h-17.1C259.8,460.8,256,464.6,256,469.3z
				 M494.9,494.9H273.1v-17.1l130.3,0c7.3,0,14.8,0,14.8-8.5v-76.8c0-44.7,29.2-73.5,76.8-76.5V494.9z M494.9,299
				c-57.3,3.3-93.9,39.2-93.9,93.5v68.3c-19.6,0-68.7,0-102.4,0v-68.3c0-2.3-0.9-4.4-2.5-6c-1.7-1.5-3.8-2.4-6.1-2.5
				c-1.2,0-91,0-119.4,0v-59.7h153.6c4.7,0,8.5-3.8,8.5-8.5V136.5h162.1V299z M494.9,119.5H162.1v0h-0.8c0.8-7.4,0.8-22.6,0.8-55.5
				V17.1h332.8V119.5z"/>
		</g>
	</g>
</g>
</svg>
