<svg xmlns="http://www.w3.org/2000/svg" viewBox="0 0 661.96 202.54"><defs><style>.cls-1,.cls-3{fill:#001e43;}.cls-2{fill:#fff;}.cls-3{font-size:20.71px;font-family:MyriadPro-Regular, Myriad Pro;}</style></defs><title>MONTAÑA 1</title><g id="Capa_2" data-name="Capa 2"><g id="Capa_1-2" data-name="Capa 1"><path class="cls-1" d="M23.92,202.54l134.94-60.18a27.46,27.46,0,0,1,9.33-2.11,25.15,25.15,0,0,1,9.28,1.34l74.7,25.12a21.26,21.26,0,0,0,11.23,1,22.7,22.7,0,0,0,9.11-4l60.3-46.18c.06-.06,5.78-4.39,12.06-5.06a25.87,25.87,0,0,1,13.34,1.83l22.29,9.23A23.94,23.94,0,0,0,391,125a21.11,21.11,0,0,0,10.34-4.11l49.19-37.3c.05,0,7-5.33,15.23-5.33H466a25.5,25.5,0,0,1,14.67,4.67L645.4,202.54H662L486.6,75.17a35.61,35.61,0,0,0-20.45-6.67c-12-.17-21.29,7.12-21.57,7.39l-49.24,37.3A12.44,12.44,0,0,1,390,115.3a8.25,8.25,0,0,1-1.11,0,15.81,15.81,0,0,1-4.73-.77l-21.84-9.06c-.33-.17-7.67-3.84-18.45-2.67-9.06,1-16.62,6.78-16.95,7L266.62,156a12.37,12.37,0,0,1-4.83,2.17,13.1,13.1,0,0,1-6.23-.56l-74.75-25.12a33.35,33.35,0,0,0-13.06-1.94,36.29,36.29,0,0,0-12.95,3L0,202.54Z"/><path class="cls-1" d="M202.82,66.19a28.06,28.06,0,0,0-6.12.67,27.74,27.74,0,0,0-7.07,2.61l-.21.11a20.18,20.18,0,0,1-19-.13V65.53a1.69,1.69,0,1,0-3.37,0V135a1.69,1.69,0,1,0,3.37,0V95.89a19.45,19.45,0,0,0,4.54,1.8,20.21,20.21,0,0,0,13.51-1.19c.69-.41,1.41-.8,2.15-1.16a28.16,28.16,0,0,1,25.91.76V69.73A28,28,0,0,0,202.82,66.19Z"/><path class="cls-2" d="M208.7,79.88a9.18,9.18,0,0,1-8.78,9.26c-5,0-6.76-3.15-6.71-10,0-5.2,2.18-8.49,7.17-8.49S208.7,74.89,208.7,79.88Z"/><text class="cls-3" transform="translate(194.91 86.05)">1</text><path class="cls-1" d="M376.23,34.43a28.15,28.15,0,0,0-6.13.67A27.74,27.74,0,0,0,363,37.71l-.2.11a20.1,20.1,0,0,1-19-.13V33.78a1.69,1.69,0,0,0-3.38,0v69.44a1.69,1.69,0,0,0,3.38,0V64.14a20,20,0,0,0,9.62,2.45,19.88,19.88,0,0,0,8.42-1.85c.69-.41,1.41-.8,2.15-1.15a28.12,28.12,0,0,1,25.91.75V38A27.83,27.83,0,0,0,376.23,34.43Z"/><path class="cls-2" d="M383.4,47.67a9.18,9.18,0,0,1-8.79,9.26c-5,0-6.76-3.15-6.7-10,0-5.2,2.17-8.49,7.16-8.49S383.4,42.68,383.4,47.67Z"/><text class="cls-3" transform="translate(370.95 53.84) scale(0.87 1)">2</text><path class="cls-1" d="M500,2.34a27.46,27.46,0,0,0-6.12.68,28,28,0,0,0-7.08,2.61l-.2.11a20.06,20.06,0,0,1-9.4,2.32,20,20,0,0,1-9.63-2.45V1.69a1.69,1.69,0,1,0-3.37,0V71.13a1.69,1.69,0,1,0,3.37,0V32.05a19.9,19.9,0,0,0,4.54,1.8,20.34,20.34,0,0,0,5.09.65,19.94,19.94,0,0,0,8.42-1.85c.69-.41,1.41-.79,2.15-1.15a28.12,28.12,0,0,1,25.91.75V5.89A28,28,0,0,0,500,2.34Z"/><path class="cls-2" d="M508.07,15.46a9.18,9.18,0,0,1-8.79,9.26c-5,0-6.75-3.15-6.7-10,0-5.2,2.18-8.49,7.17-8.49S508.07,10.47,508.07,15.46Z"/><text class="cls-3" transform="translate(495.88 21.63) scale(0.83 1)">3</text></g></g></svg>