<svg xmlns="http://www.w3.org/2000/svg" viewBox="0 0 27.08 21.38"><defs><style>.cls-1{fill:#3393a0;}</style></defs><title>book</title><g id="Capa_2" data-name="Capa 2"><g id="Capa_1-2" data-name="Capa 1"><path class="cls-1" d="M13.54,0a13.54,13.54,0,0,0-11,21.38H3.76a12.53,12.53,0,1,1,19.56,0h1.26A13.54,13.54,0,0,0,13.54,0Z"/><path class="cls-1" d="M13.14,1.56v0s0,0,0,0Z"/><path class="cls-1" d="M13.81,1.56h0v0Z"/><path class="cls-1" d="M22.35,9.48A9.09,9.09,0,0,0,17.9,8.2a9.2,9.2,0,0,0-4.55,1.13A9.69,9.69,0,0,0,9,8.3H8.87A9.74,9.74,0,0,0,4.4,9.47l-.29.16v11h7.36a2.77,2.77,0,0,0,1.88.75h.08a2.86,2.86,0,0,0,1.81-.75h7.39v-11Zm-.85.81v7.54a8.81,8.81,0,0,0-7.57,0V10.29a7.82,7.82,0,0,1,3.95-1A7.92,7.92,0,0,1,21.5,10.29ZM8.89,9.43a8.64,8.64,0,0,1,3.92.88v7.52A9.26,9.26,0,0,0,8.94,17a9.08,9.08,0,0,0-3.71.83V10.31A8.62,8.62,0,0,1,8.89,9.43Zm5.86,10.08-.17.19a1.7,1.7,0,0,1-1.18.55,1.77,1.77,0,0,1-1.28-.55L12,19.51H5.23v-.42a7.9,7.9,0,0,1,7.85.15l.29.17.29-.17A7.81,7.81,0,0,1,18,18.11a7.66,7.66,0,0,1,3.55,1v.42Z"/><polygon class="cls-1" points="22.78 8.98 13.29 4.2 3.95 8.98 3.95 7.72 13.29 2.94 22.78 7.72 22.78 8.98"/></g></g></svg>