<svg xmlns="http://www.w3.org/2000/svg" viewBox="0 0 27.08 21.38"><defs><style>.cls-1{fill:#3393a0;}</style></defs><title>fitness</title><g id="Capa_2" data-name="Capa 2"><g id="Capa_1-2" data-name="Capa 1"><path class="cls-1" d="M13.54,0a13.54,13.54,0,0,0-11,21.38H3.76a12.53,12.53,0,1,1,19.56,0h1.26A13.54,13.54,0,0,0,13.54,0Z"/><rect class="cls-1" x="7.22" y="8.27" width="2.95" height="13.11" rx="1.48"/><rect class="cls-1" x="4.08" y="9.51" width="2.39" height="10.63" rx="1.2"/><rect class="cls-1" x="2.73" y="13.12" width="2.02" height="3.4" rx="1.01"/><rect class="cls-1" x="16.91" y="8.27" width="2.95" height="13.11" rx="1.48"/><rect class="cls-1" x="20.61" y="9.51" width="2.39" height="10.63" rx="1.2"/><rect class="cls-1" x="22.33" y="13.12" width="2.02" height="3.4" rx="1.01"/><rect class="cls-1" x="8.15" y="13.44" width="10.71" height="2.78" rx="1.22"/></g></g></svg>