<svg xmlns="http://www.w3.org/2000/svg" viewBox="0 0 27.08 21.38"><defs><style>.cls-1{fill:#F6F4EF;}.cls-2{fill:none;}</style></defs><title>light</title><g id="Capa_2" data-name="Capa 2"><g id="Capa_1-2" data-name="Capa 1"><path class="cls-1" d="M3.76,21.38a12.53,12.53,0,1,1,19.56,0h1.26a13.54,13.54,0,1,0-22.08,0Z"/><path class="cls-1" d="M14.19,3.73v.48h0a.29.29,0,0,0,.2.27H18.3a.29.29,0,0,0,.21-.27h0V3.6H14.19Z"/><rect class="cls-1" x="16.21" y="4.8" width="0.16" height="1.64"/><rect class="cls-1" x="14.81" y="4.8" width="0.16" height="1.43" transform="translate(28.37 13.9) rotate(-168.48)"/><rect class="cls-1" x="15.54" y="4.81" width="0.16" height="1.54" transform="translate(30.69 12.52) rotate(-174.87)"/><rect class="cls-1" x="14.08" y="4.78" width="0.16" height="1.22" transform="matrix(-0.92, -0.4, 0.4, -0.92, 25.02, 15.96)"/><rect class="cls-1" x="13.52" y="4.51" width="0.16" height="0.9" transform="translate(19.72 18.1) rotate(-135)"/><rect class="cls-1" x="13.25" y="3.97" width="0.16" height="0.67" transform="translate(13.22 18.31) rotate(-107.46)"/><rect class="cls-1" x="13.23" y="3.34" width="0.16" height="0.67" transform="translate(9.64 16.98) rotate(-90)"/><rect class="cls-1" x="17.62" y="4.8" width="0.16" height="1.43" transform="translate(-0.75 3.65) rotate(-11.52)"/><rect class="cls-1" x="16.89" y="4.81" width="0.16" height="1.54" transform="translate(-0.43 1.54) rotate(-5.13)"/><rect class="cls-1" x="18.35" y="4.78" width="0.16" height="1.22" transform="translate(-0.63 7.74) rotate(-23.34)"/><rect class="cls-1" x="18.9" y="4.51" width="0.16" height="0.9" transform="translate(2.05 14.88) rotate(-45)"/><rect class="cls-1" x="19.18" y="3.97" width="0.16" height="0.67" transform="translate(9.38 21.39) rotate(-72.54)"/><rect class="cls-1" x="19.2" y="3.34" width="0.16" height="0.67" transform="translate(15.61 22.95) rotate(-90)"/><rect class="cls-1" x="7.47" y="6.31" width="0.99" height="11.58"/><rect class="cls-1" x="9.89" y="1.65" width="0.99" height="6.97" transform="translate(14.11 16.1) rotate(-135)"/><polygon class="cls-1" points="12.5 2.31 12.5 3.31 14.19 3.31 18.5 3.31 18.6 3.31 18.6 2.31 12.5 2.31"/><path class="cls-1" d="M13.83,18.17v1.24h.59a.83.83,0,1,1,0,.3h-.6v1.67H18V18.17Z"/><rect class="cls-1" x="8.03" y="18.17" width="5.58" height="1.24"/><polygon class="cls-1" points="7.91 19.71 7.72 19.71 7.72 18.17 7.47 18.17 7.47 21.38 13.61 21.38 13.61 19.71 7.91 19.71 7.91 19.71"/><path class="cls-2" d="M12.62,11.82c-.22,0-.39.08-.39.17s.17.16.39.16S13,12.08,13,12,12.83,11.82,12.62,11.82Z"/><path class="cls-2" d="M10.81,7c-.09,0-.15,0-.15.07s.06.06.15.06.15,0,.15-.06S10.89,7,10.81,7Z"/><polygon class="cls-1" points="9.18 17.92 13.59 17.94 10.37 6.63 9.18 7.84 9.18 17.92"/><path class="cls-1" d="M18,17.94,11.25,5.74l-.8.82L13.83,17.9ZM10.81,7.12c-.09,0-.15,0-.15-.06s.06-.07.15-.07S11,7,11,7.06,10.89,7.12,10.81,7.12Zm1.81,5c-.22,0-.39-.07-.39-.16s.17-.17.39-.17.39.08.39.17S12.83,12.15,12.62,12.15Z"/></g></g></svg>