<svg xmlns="http://www.w3.org/2000/svg" viewBox="0 0 27.08 21.38"><defs><style>.cls-1{fill:#3393a0;}</style></defs><title>market</title><g id="Capa_2" data-name="Capa 2"><g id="Capa_1-2" data-name="Capa 1"><path class="cls-1" d="M11.34,18.48a1.45,1.45,0,1,0,1.45,1.45A1.44,1.44,0,0,0,11.34,18.48Zm0,2.39a.94.94,0,1,1,.94-.94A.95.95,0,0,1,11.34,20.87Z"/><path class="cls-1" d="M19.56,18.48A1.45,1.45,0,1,0,21,19.93,1.45,1.45,0,0,0,19.56,18.48Zm0,2.39a.94.94,0,1,1,.94-.94A.94.94,0,0,1,19.56,20.87Z"/><path class="cls-1" d="M22.09,7.09Z"/><path class="cls-1" d="M22.78,7.93v0Z"/><path class="cls-1" d="M22.09,7.09H9.7L9.12,5.15a.73.73,0,0,0-.67-.56H6.17A.72.72,0,0,0,6.2,6H7.89l2.71,9a1.68,1.68,0,0,0,1.17,2.88,1.33,1.33,0,0,0,.28,0h0l8.73-.4h0a.58.58,0,0,0,0-1.16h-.08l-7.29.36-.78,0-.77,0h-.09a.43.43,0,0,1-.19-.81h0a.37.37,0,0,1,.21-.06l.58,0,1-.12,7.6-.91h0a.71.71,0,0,0,.61-.56h0L22.78,8v0h0a.49.49,0,0,0,0-.12A.72.72,0,0,0,22.09,7.09ZM13.7,14.26l-1.78.22L11,11.55H13.7Zm0-3.39H10.84l-.71-2.34H13.7Zm3.67,2.94-3,.37V11.55h3Zm0-2.94h-3V8.53h3Zm2.89,2.58-2.21.27V11.55h2.57Zm.49-2.58h-2.7V8.53H21.2Z"/><path class="cls-1" d="M13.54,0a13.54,13.54,0,0,0-11,21.38H3.76a12.53,12.53,0,1,1,19.56,0h1.26A13.54,13.54,0,0,0,13.54,0Z"/></g></g></svg>