<svg xmlns="http://www.w3.org/2000/svg" viewBox="0 0 27.08 21.39"><defs><style>.cls-1{fill:#3393a0;}</style></defs><title>park</title><g id="Capa_2" data-name="Capa 2"><g id="Capa_1-2" data-name="Capa 1"><path class="cls-1" d="M14.31,2.44v0Z"/><polygon class="cls-1" points="18.91 3.24 18.89 3.24 18.91 3.25 18.91 3.24"/><path class="cls-1" d="M18.91,3.24l-.14.26a3,3,0,0,0-.23,1.14,2.9,2.9,0,0,0,.27,1.23l0,.07-.07,0A3.63,3.63,0,0,0,17,9.11a3.56,3.56,0,0,0,.47,1.78l0,.08-.08,0a3.47,3.47,0,0,0-1,.83,9.88,9.88,0,0,1-1.26.45h0a2.33,2.33,0,0,1-2-4.18l.6-.33-.33-.59A2.33,2.33,0,0,1,13,6.06a2.3,2.3,0,0,1,1.17-2l.53-.31-.26-.56a1.85,1.85,0,0,1-.15-.74V2.33a.25.25,0,0,1,0-.08h0c0-.12,0-.24,0-.29"/><path class="cls-1" d="M14.34,2h0l.19,0Z"/><path class="cls-1" d="M18.54,4.64a3,3,0,0,1,.23-1.14l.14-.26h0A11.47,11.47,0,0,0,14.53,2l-.19,0s0,.17,0,.29v.19a1.85,1.85,0,0,0,.15.74l.26.56-.53.31a2.3,2.3,0,0,0-1.17,2,2.33,2.33,0,0,0,.31,1.15l.33.59-.6.33a2.33,2.33,0,0,0,2,4.18h0a9.88,9.88,0,0,0,1.26-.45,3.47,3.47,0,0,1,1-.83l.08,0,0-.08A3.56,3.56,0,0,1,17,9.11,3.63,3.63,0,0,1,18.77,6l.07,0,0-.07A2.9,2.9,0,0,1,18.54,4.64Z"/><path class="cls-1" d="M14.32,2.25a.25.25,0,0,0,0,.08V2.25Z"/><path class="cls-1" d="M25.18,13.57a11.61,11.61,0,0,0-4.73-9.36,9.51,9.51,0,0,0-1.05-.69l-.25-.15a2.71,2.71,0,0,0-.31,1.27,2.83,2.83,0,0,0,.23,1.11l.15.32-.3.17a3.31,3.31,0,0,0-1.24,4.51l.19.34-.33.18a3.56,3.56,0,0,0-1.28,1.26,3.36,3.36,0,0,0-.44,1.65,3.33,3.33,0,0,0,3.32,3.33,2.61,2.61,0,0,0,1.21-.22l0,0V15a3.82,3.82,0,0,1-1.76-2.2l-.18-.61,1.8-.54.18.48,0-.53V10h2.36v5.84a.83.83,0,0,0,.81.62C24.65,16.45,25,16,24.93,16A11.64,11.64,0,0,0,25.18,13.57Z"/><path class="cls-1" d="M20.63,12.79c-.12-.16-.35-.34-.41-.54l-.11-.33-1.32.4.1.33a3.68,3.68,0,0,0,1.74,2.07v6.67h1.83V10.31H20.63Z"/><path class="cls-1" d="M3.76,21.38a12.53,12.53,0,1,1,19.56,0h1.26a13.54,13.54,0,1,0-22.08,0Z"/><rect class="cls-1" x="4.45" y="9.41" width="0.98" height="11.96"/><path class="cls-1" d="M20,21.37H19V17.85h.52a2.91,2.91,0,0,0,.46-.08Z"/><rect class="cls-1" x="5.42" y="10.34" width="2.02" height="0.24"/><rect class="cls-1" x="8.18" y="10.34" width="2.2" height="0.24"/><path class="cls-1" d="M11.7,10.34a.94.94,0,0,0,0,.12l0,.13h-.62v-.25Z"/><rect class="cls-1" x="7.69" y="9.96" width="0.24" height="7.66"/><rect class="cls-1" x="10.63" y="9.96" width="0.24" height="7.66"/><rect class="cls-1" x="7.65" y="17.82" width="3.26" height="0.64"/><rect class="cls-1" x="7.36" y="18.61" width="3.85" height="0.39"/><path class="cls-1" d="M13.78,17.62h-.24v-5l.11,0h.13Z"/><path class="cls-1" d="M16.71,17.62h-.24V16.45a1.44,1.44,0,0,0,.12.17l.12.1Z"/><rect class="cls-1" x="13.49" y="17.82" width="3.26" height="0.64"/><rect class="cls-1" x="13.2" y="18.61" width="3.85" height="0.39"/></g></g></svg>