<svg xmlns="http://www.w3.org/2000/svg" viewBox="0 0 27.08 21.38"><defs><style>.cls-1{fill:none;}.cls-2{fill:#F6F4EF;}</style></defs><title>run</title><g id="Capa_2" data-name="Capa 2"><g id="Capa_1-2" data-name="Capa 1"><path class="cls-1" d="M16.94,9a1.52,1.52,0,0,1,.12.52h.19Z"/><path class="cls-2" d="M19.17,11.05l-.07.13-1.19,2.31.83,1.45H21l-1.6-2.83h.75l-.91-1.61v.07A1.28,1.28,0,0,1,19.17,11.05Z"/><path class="cls-2" d="M9.41,12.54l.05-.07H9l1.68-2.92H9.93l1.13-2-1.12-2L7.76,9.46h.7L7,12.11H7.7L6.1,14.94H8.44l.82-1.42a.88.88,0,0,1-.06-.28A1.23,1.23,0,0,1,9.41,12.54Z"/><path class="cls-2" d="M11.51,14l.34-.7L11.4,14a1.26,1.26,0,0,1-.49.38,1.21,1.21,0,0,1-1.23-.19l-.39.68h1.93a2.23,2.23,0,0,1,0-.27C11.31,14.45,11.51,14,11.51,14Z"/><path class="cls-2" d="M12.15,9.57l.06,0,.14,0,.21.1,1.21.58a1.68,1.68,0,0,1-.12-.63A1.71,1.71,0,0,1,15.36,8h.16L13.59,4.63,11.15,8.85h.78l-.53.91a1.1,1.1,0,0,1,.6-.2Z"/><path class="cls-2" d="M17.25,9.55h-.19s0,.08,0,.12a1,1,0,0,1,0,.17,1.22,1.22,0,0,1,1.44-.41l.17.08.07.06-.07-.11h.7L17.18,5.62,16.09,7.55l.63,1.09a1.5,1.5,0,0,1,.22.39Z"/><rect class="cls-2" x="5.72" y="15.57" width="1.34" height="5.17"/><polygon class="cls-2" points="5.36 14.96 6.61 12.75 5.87 12.75 7.37 10.09 6.67 10.09 7.68 8.31 6.38 6.06 4.3 9.73 4.97 9.73 3.53 12.27 4.25 12.27 2.72 14.96 5.36 14.96"/><path class="cls-2" d="M16.36,14.23l-.74-.35-.46.89.21.1h2.52l-.45-.77a1.25,1.25,0,0,1-.58.22A1.31,1.31,0,0,1,16.36,14.23Z"/><polygon class="cls-2" points="22.88 12.27 23.59 12.27 22.16 9.73 22.82 9.73 20.74 6.06 19.44 8.31 20.45 10.09 19.75 10.09 21.26 12.75 20.51 12.75 21.77 14.96 24.41 14.96 22.88 12.27"/><rect class="cls-2" x="20.07" y="15.57" width="1.34" height="5.17"/><path class="cls-2" d="M13.71,19.84l-.21,0a1.26,1.26,0,0,1-.7-.24v1.12h1.58V19.48l-.13.12A1.27,1.27,0,0,1,13.71,19.84Z"/><path class="cls-2" d="M16.93,15.9a1.13,1.13,0,0,1,.13.54,1.2,1.2,0,0,1-.1.47,1.15,1.15,0,0,1-.13.24l-.28.28-.07.06v3.25h1.4V15.57h-1.2A1.07,1.07,0,0,1,16.93,15.9Z"/><polygon class="cls-2" points="10.64 15.57 9.24 15.57 9.24 17.94 10.64 16.36 10.64 15.57"/><polygon class="cls-2" points="10.64 20.74 10.64 20.08 10.05 20.74 10.64 20.74"/><path class="cls-2" d="M13.54,0a13.54,13.54,0,0,0-11,21.38H3.76a12.53,12.53,0,1,1,19.56,0h1.26A13.54,13.54,0,0,0,13.54,0Z"/><path class="cls-2" d="M16.72,8.64l.22.39A1.5,1.5,0,0,0,16.72,8.64Z"/><circle class="cls-2" cx="15.42" cy="9.67" r="1.21"/><path class="cls-2" d="M13.08,16.63,9.69,20.46l0,.06a.72.72,0,0,1-.36.2l-.16,0A.74.74,0,0,1,8.38,20v-.08a.93.93,0,0,1,.12-.33h0l.13-.15h0L11.73,16a1.36,1.36,0,0,0,.35.26Z"/><path class="cls-2" d="M18.83,10.57a.72.72,0,0,1-.06.29h0l-.05.09-1.28,2.47v0l-.05.09h0l-.09.11a.63.63,0,0,1-.39.17h0a.69.69,0,0,1-.24-.05l-.07,0-1.08-.52L14.54,15l1.53.72.24.12a.67.67,0,0,1,.23.27.7.7,0,0,1,.08.33.63.63,0,0,1-.06.27,1,1,0,0,1-.07.15l-.22.21-2.12,2-.17.16h0a.54.54,0,0,1-.27.11l-.14,0a.74.74,0,0,1-.74-.74.57.57,0,0,1,0-.18.72.72,0,0,1,.18-.33l.07-.06,1.41-1.34L12.6,16l-.3-.11a1,1,0,0,1-.51-1.08c.05-.13.23-.51.23-.51l.14-.31,0-.07L13,12.32a.38.38,0,0,0-.25-.48.43.43,0,0,0-.51.12l-1.07,1.6-.11.17a.68.68,0,0,1-.26.18.72.72,0,0,1-.29.06.74.74,0,0,1-.74-.73h0a.74.74,0,0,1,.13-.41l1.62-2.43h0l.05-.09a.64.64,0,0,1,.49-.23h.19l.16.08h0l4.06,1.94.92-1.78.09-.18a.76.76,0,0,1,.61-.32.6.6,0,0,1,.27.06l.13.06h0A.73.73,0,0,1,18.83,10.57Z"/></g></g></svg>