<svg xmlns="http://www.w3.org/2000/svg" viewBox="0 0 27.08 21.38"><defs><style>.cls-1{fill:#3393a0;}</style></defs><title>shop</title><g id="Capa_2" data-name="Capa 2"><g id="Capa_1-2" data-name="Capa 1"><path class="cls-1" d="M3.76,21.38a12.53,12.53,0,1,1,19.56,0h1.26a13.54,13.54,0,1,0-22.08,0Z"/><path class="cls-1" d="M21.61,7.54A.57.57,0,0,0,21,7H18V6a3.59,3.59,0,0,0-6.79-1.46A3.62,3.62,0,0,0,9.18,7H7.73a.57.57,0,0,0-.57.53l0,.48h2v.63H6a.58.58,0,0,0-.57.53l-.88,11.6a.56.56,0,0,0,.57.61H20.23a.56.56,0,0,0,.57-.61l-.07-1h1.2a.56.56,0,0,0,.56-.61ZM14.37,3.7a2.71,2.71,0,0,1,2.71,2.71v.84h-.85a3.58,3.58,0,0,0-3.45-3A2.68,2.68,0,0,1,14.37,3.7Zm-2.7,2.71A2.69,2.69,0,0,1,12,5.2a2.52,2.52,0,0,1,.73-.1,2.7,2.7,0,0,1,2.65,2.15H11.67Zm-.87-.55a.76.76,0,0,0,0,.15V7H10.1A2.58,2.58,0,0,1,10.8,5.86ZM10,8h5.41v.63H10ZM6.3,10.09a.49.49,0,0,1,.51-.44H9.09v2a.83.83,0,1,0,.89,0v-2h5.41v2a.81.81,0,0,0-.38.7.83.83,0,1,0,1.26-.72v-2h2.32a.49.49,0,0,1,.5.44l.68,8.55H5.62ZM19.37,20.37H6a.49.49,0,0,1-.5-.51l0-.32H19.84l0,.32A.49.49,0,0,1,19.37,20.37Zm.55-11.2a.58.58,0,0,0-.57-.53H16.27V8h4a.5.5,0,0,1,.5.45L21.46,17h-.94Zm1.14,9.57h-.41l-.06-.83h.94l0,.31A.49.49,0,0,1,21.06,18.74Z"/></g></g></svg>