<svg xmlns="http://www.w3.org/2000/svg" viewBox="0 0 27.08 21.38"><defs><style>.cls-1{fill:#3393a0;}</style></defs><title>sport</title><g id="Capa_2" data-name="Capa 2"><g id="Capa_1-2" data-name="Capa 1"><path class="cls-1" d="M18.72,6.82a5.15,5.15,0,0,0-1-3.08A5.23,5.23,0,0,0,15.16,1.9a5.15,5.15,0,0,0-1.63-.26,5,5,0,0,0-1.61.26A5.17,5.17,0,0,0,8.34,6.83h0a5.2,5.2,0,0,0,3.53,4.91,5.07,5.07,0,0,0,1.66.28,5.29,5.29,0,0,0,1.55-.24,5.21,5.21,0,0,0,3.64-4.95ZM17.09,9.34l-.76-.6L14.55,10l.29,1a4.33,4.33,0,0,1-1.31.21A4.21,4.21,0,0,1,12.15,11l.32-.9L10.76,8.74l-.82.56a4.36,4.36,0,0,1-.77-2.47v0h1l.63-2.06L10,4.23a4.32,4.32,0,0,1,2.14-1.54l.27.87,2.16,0,.3-.89A4.35,4.35,0,0,1,17,4.22l-.74.52.64,2.06h1v0A4.36,4.36,0,0,1,17.09,9.34Z"/><polygon class="cls-1" points="12.43 5.32 11.73 7.36 13.46 8.65 15.22 7.41 14.58 5.35 12.43 5.32"/><path class="cls-1" d="M7.69,14.39A6.61,6.61,0,0,1,4.05,13,5.22,5.22,0,0,0,3,15.7H7.69Z"/><path class="cls-1" d="M11.57,12.25A5.19,5.19,0,0,0,8.6,11V13.4A5.72,5.72,0,0,0,11.57,12.25Z"/><path class="cls-1" d="M8.6,17.88a6.48,6.48,0,0,1,3.68,1.46,5.18,5.18,0,0,0,1.05-2.69H8.6Z"/><path class="cls-1" d="M8.6,15.7h4.73A5.14,5.14,0,0,0,12.24,13,6.61,6.61,0,0,1,8.6,14.39Z"/><path class="cls-1" d="M7.69,16.65H3a5.18,5.18,0,0,0,1,2.69,6.53,6.53,0,0,1,3.68-1.46Z"/><path class="cls-1" d="M7.69,11a5.19,5.19,0,0,0-3,1.27,5.72,5.72,0,0,0,3,1.15Z"/><path class="cls-1" d="M8.6,21.36a5.28,5.28,0,0,0,3-1.3,5.65,5.65,0,0,0-3-1.19Z"/><path class="cls-1" d="M4.68,20.06a5.22,5.22,0,0,0,3,1.3V18.87A5.59,5.59,0,0,0,4.68,20.06Z"/><path class="cls-1" d="M20.85,14a5.55,5.55,0,0,1-.61.75l-.37-.31a7,7,0,0,0-.63-.43c-.18-.11-.36-.2-.54-.29a5.7,5.7,0,0,0-.72-.29c-.23-.07-.45-.13-.69-.18a6.42,6.42,0,0,0-.88-.12l-.42,0a6.46,6.46,0,0,0-1.4.16,6.26,6.26,0,0,1,.45-.57,5.59,5.59,0,0,1,1.88-.33h.17a5.91,5.91,0,0,1,1,.12l.5.14a6.51,6.51,0,0,1,.77.31l.34.18a6.26,6.26,0,0,1,.62.43A5.41,5.41,0,0,1,20.85,14Z"/><path class="cls-1" d="M21.75,11.8c0,.12-.05.24-.07.36a5.4,5.4,0,0,1-.43,1.16c-.14-.13-.29-.25-.44-.37a6.26,6.26,0,0,0-.62-.43L20,12.43h0a5,5,0,0,0-.77-.37L19,12h0A6.22,6.22,0,0,0,18,11.69a7,7,0,0,0-1-.08l-.56,0A5.26,5.26,0,0,1,18.91,11a3.62,3.62,0,0,1,.47,0,4.42,4.42,0,0,1,1.22.26l.45.17.21.1.31.17Z"/><path class="cls-1" d="M23.11,13.08h0a5.76,5.76,0,0,1-.62,1.64l-.06.11a5.71,5.71,0,0,1-.49.69,5.21,5.21,0,0,1-.56.59,5.39,5.39,0,0,1-.6.47,4.11,4.11,0,0,1-.39.24,4.74,4.74,0,0,1-.72.34l-.22.09c0-.11,0-.21,0-.32s0-.41,0-.61a2.26,2.26,0,0,0,.26-.16,6.3,6.3,0,0,0,.53-.37c.19-.16.38-.33.56-.51a6.88,6.88,0,0,0,.6-.7c.13-.19.26-.38.38-.58l.05-.09a7.07,7.07,0,0,0,.62-1.59A5.57,5.57,0,0,1,23.11,13.08Z"/><path class="cls-1" d="M23.93,14.74h0a5.91,5.91,0,0,1-.59,1.52c-.07.13-.15.25-.23.37a5.52,5.52,0,0,1-.64.79c-.12.12-.25.24-.37.34a6.26,6.26,0,0,1-.66.49l-.05,0a5.32,5.32,0,0,1-.67.35,6.15,6.15,0,0,1-.82.29,5.49,5.49,0,0,1-.32-.91,6.37,6.37,0,0,0,.61-.23,5.45,5.45,0,0,0,.68-.35l.25-.16a7.26,7.26,0,0,0,.63-.46c.17-.15.34-.31.5-.48a7.34,7.34,0,0,0,.56-.69h0a4.93,4.93,0,0,0,.34-.54,5.62,5.62,0,0,0,.49-1.1A4.85,4.85,0,0,1,23.93,14.74Z"/><path class="cls-1" d="M20.53,21.13a5,5,0,0,1-.87.21,5.48,5.48,0,0,1-1.28-1.5h0a5.91,5.91,0,0,1-.37-.76,5.68,5.68,0,0,1-.24-.77,6.54,6.54,0,0,1-.13-.75c0-.18,0-.36,0-.53a5.16,5.16,0,0,1,.06-.79c0-.11,0-.22,0-.33l.42.18a5.29,5.29,0,0,1,.52.29v.32a6.3,6.3,0,0,0,.05.75,6.41,6.41,0,0,0,.42,1.61,7.92,7.92,0,0,0,.35.72l0,.06A6.54,6.54,0,0,0,20.53,21.13Z"/><path class="cls-1" d="M18.59,21.38q-.36,0-.69-.09a5.51,5.51,0,0,1-1.29-1.5l-.15-.28a5.88,5.88,0,0,1-.39-1c0-.15-.08-.3-.11-.46h0a4.59,4.59,0,0,1-.1-.82s0-.07,0-.1a6.52,6.52,0,0,1,0-.76,5.08,5.08,0,0,1,.16-.85,6,6,0,0,1,1,.14,5.5,5.5,0,0,0-.11.69,6.51,6.51,0,0,0,0,.77c0,.12,0,.23,0,.35a5.23,5.23,0,0,0,.11.78,3.66,3.66,0,0,0,.17.65,4.31,4.31,0,0,0,.33.84h0a3.21,3.21,0,0,0,.24.45A6.35,6.35,0,0,0,18.59,21.38Z"/><path class="cls-1" d="M16.29,20.68A5.25,5.25,0,0,1,14,18h0a5.77,5.77,0,0,1-.27-1c0-.11,0-.23,0-.34s0-.18,0-.27h0a1.09,1.09,0,0,1,0-.18,2.17,2.17,0,0,1,0-.26h0l.15-.06a5.37,5.37,0,0,1,1.4-.3,5.86,5.86,0,0,0-.13.73c0,.21,0,.42,0,.63v.14a6.15,6.15,0,0,0,.06.73.75.75,0,0,0,0,.2,5.09,5.09,0,0,0,.27,1.07A6.15,6.15,0,0,0,16,20.17,4.45,4.45,0,0,0,16.29,20.68Z"/><path class="cls-1" d="M19.67,15.25l-.09.07a.61.61,0,0,1,0-.13Z"/><path class="cls-1" d="M19.61,15.19a.61.61,0,0,0,0,.13c-.19.13-.38.26-.58.37a2,2,0,0,0-.25-.14A5.9,5.9,0,0,0,17.2,15a6.64,6.64,0,0,0-.91-.15,6.71,6.71,0,0,0-.78,0h0a6.57,6.57,0,0,0-1.67.3,6,6,0,0,1,.27-.88,5.54,5.54,0,0,1,1.82-.34H16a6.66,6.66,0,0,1,.78.05,5.45,5.45,0,0,1,.8.18,5.59,5.59,0,0,1,.72.26,5.44,5.44,0,0,1,.67.37A6,6,0,0,1,19.61,15.19Z"/><path class="cls-1" d="M24.12,16.41a5.22,5.22,0,0,1-1,2.87h0a5.7,5.7,0,0,1-.82.88l-.26.21-.14.09a3.88,3.88,0,0,1-.48.3l-.1,0a5.13,5.13,0,0,1-1-1.22,4.78,4.78,0,0,0,.75-.27l.54-.26.14-.08c.2-.12.39-.25.58-.38l.2-.16a6.7,6.7,0,0,0,.77-.74A6.43,6.43,0,0,0,24,16.63Z"/><path class="cls-1" d="M13.54,0a13.54,13.54,0,0,0-11,21.38H3.76a12.53,12.53,0,1,1,19.56,0h1.26A13.54,13.54,0,0,0,13.54,0Z"/></g></g></svg>