<svg xmlns="http://www.w3.org/2000/svg" viewBox="0 0 65.4 79.9"><defs><style>.cls-1{fill:#fff;}</style></defs><title>Recurso 8</title><g id="Capa_2" data-name="Capa 2"><g id="Capital"><path class="cls-1" d="M2.71,63.56a5.09,5.09,0,0,1-2-1.89,5.52,5.52,0,0,1,0-5.45,5.09,5.09,0,0,1,2-1.89,6,6,0,0,1,2.85-.68A5.86,5.86,0,0,1,8,54.12a4.89,4.89,0,0,1,1.8,1.34L8.25,56.87a3.26,3.26,0,0,0-2.57-1.2,3.5,3.5,0,0,0-1.7.41,2.9,2.9,0,0,0-1.16,1.17,3.63,3.63,0,0,0,0,3.39A2.82,2.82,0,0,0,4,61.8a3.4,3.4,0,0,0,1.7.42A3.24,3.24,0,0,0,8.25,61l1.52,1.4A4.69,4.69,0,0,1,8,63.77a6.07,6.07,0,0,1-2.42.47A6,6,0,0,1,2.71,63.56Z"/><path class="cls-1" d="M17.91,61.87H13.15l-.91,2.19H9.82l4.56-10.24h2.34L21.3,64.06H18.81Zm-.75-1.8-1.62-3.92-1.63,3.92Z"/><path class="cls-1" d="M29.16,54.28a3.38,3.38,0,0,1,2.09,3.26,3.57,3.57,0,0,1-.54,2,3.45,3.45,0,0,1-1.55,1.28,5.71,5.71,0,0,1-2.36.45H24.74v2.82H22.37V53.82H26.8A5.71,5.71,0,0,1,29.16,54.28Zm-.87,4.57a1.82,1.82,0,0,0,0-2.63,2.46,2.46,0,0,0-1.62-.46H24.74v3.55h1.93A2.46,2.46,0,0,0,28.29,58.85Z"/><path class="cls-1" d="M39.85,55.76H36.57V53.82h8.92v1.94H42.22v8.3H39.85Z"/><path class="cls-1" d="M53,61.87H48.25l-.91,2.19H44.91l4.56-10.24h2.34l4.58,10.24H53.91Zm-.75-1.8-1.62-3.92L49,60.07Z"/><path class="cls-1" d="M57.46,53.82h2.37v8.31H65v1.93H57.46Z"/><path class="cls-1" d="M32.93,53.65H35.3V64.06H32.93Z"/><path class="cls-1" d="M2.26,79.32A4.26,4.26,0,0,1,.6,77.72a4.71,4.71,0,0,1,0-4.6,4.29,4.29,0,0,1,1.67-1.6,4.85,4.85,0,0,1,2.38-.58,4.9,4.9,0,0,1,1.87.34A3.86,3.86,0,0,1,8,72.3l-.82.79a3.27,3.27,0,0,0-2.46-1,3.63,3.63,0,0,0-1.77.44A3.11,3.11,0,0,0,1.7,73.7a3.51,3.51,0,0,0,0,3.44,3,3,0,0,0,1.23,1.21,3.63,3.63,0,0,0,1.77.44,3.26,3.26,0,0,0,2.46-1.05l.82.79a3.86,3.86,0,0,1-1.46,1,4.82,4.82,0,0,1-1.89.35A4.84,4.84,0,0,1,2.26,79.32Z"/><path class="cls-1" d="M16.8,79.32a4.26,4.26,0,0,1-1.66-1.6,4.71,4.71,0,0,1,0-4.6,4.29,4.29,0,0,1,1.67-1.6,4.85,4.85,0,0,1,2.38-.58,4.9,4.9,0,0,1,1.87.34,3.86,3.86,0,0,1,1.46,1l-.82.79a3.27,3.27,0,0,0-2.46-1,3.6,3.6,0,0,0-1.77.44,3.11,3.11,0,0,0-1.23,1.21,3.51,3.51,0,0,0,0,3.44,3,3,0,0,0,1.23,1.21,3.6,3.6,0,0,0,1.77.44,3.27,3.27,0,0,0,2.46-1.05l.82.79a3.86,3.86,0,0,1-1.46,1,5.2,5.2,0,0,1-4.26-.23Z"/><path class="cls-1" d="M47.66,79.8V73.42l-3.17,5.32h-.57l-3.17-5.29V79.8h-1.2V71h1l3.66,6.16L47.83,71h1l0,8.76Z"/><path class="cls-1" d="M62.75,77.61H58.09l-1,2.19H55.84l4-8.76h1.24l4,8.76H63.72Zm-.44-1-1.89-4.29-1.89,4.29Z"/><path class="cls-1" d="M30,71h1.25V79.8H30Z"/><rect class="cls-1" x="0.46" y="66.99" width="64.93" height="0.82"/><path class="cls-1" d="M51.54,25.37V33a1.8,1.8,0,0,1-1,1.61L34.31,42.85a1.82,1.82,0,0,1-1.64,0L16.43,34.63a1.81,1.81,0,0,1-1-1.61V23.66l4.23-2.82a.66.66,0,0,1,.69,0L38.91,33.23a2.38,2.38,0,0,0,3-.3l8.59-8.59Z"/><path class="cls-1" d="M50.52,10l1,1v10.5H47.65l1,1-8.12,8.13a.62.62,0,0,1-.78.08L24.63,20.61,32.9,15.1a.6.6,0,0,1,.68,0l6.25,4.16a1.21,1.21,0,0,0,1.53-.15Z"/><path class="cls-1" d="M51.54,6.32v.77H47.65L48.7,8.14l-8,8a.61.61,0,0,1-.75.08l-5.35-3.57a2.37,2.37,0,0,0-2.65,0l-9.61,6.41-1-.66a2.37,2.37,0,0,0-2.65,0l-3.25,2.16V6.32a1.81,1.81,0,0,1,1.81-1.81H49.73a1.81,1.81,0,0,1,1.61,1A1.78,1.78,0,0,1,51.54,6.32Z"/><path class="cls-1" d="M52.46,0H14.52a3.6,3.6,0,0,0-3.6,3.6v31a3.6,3.6,0,0,0,2,3.22l19,9.52a3.6,3.6,0,0,0,3.23,0l19-9.52a3.59,3.59,0,0,0,2-3.22V3.6A3.6,3.6,0,0,0,52.46,0Zm2.09,33.87a3,3,0,0,1-1.62,2.68l-18,9.38a3,3,0,0,1-2.79,0l-18-9.38a3,3,0,0,1-1.62-2.68V4.52a3,3,0,0,1,3-3H51.53A3,3,0,0,1,54,2.81a3,3,0,0,1,.53,1.71Z"/></g></g></svg>