<svg xmlns="http://www.w3.org/2000/svg" viewBox="0 0 102.98 80.43"><defs><style>.cls-1{fill:#fff;}</style></defs><title>Recurso 13</title><g id="Capa_2" data-name="Capa 2"><g id="Construye"><path class="cls-1" d="M5.73,72.12a3.21,3.21,0,0,1,1.21-1.38,3.25,3.25,0,0,1,1.74-.48,3.49,3.49,0,0,1,2,.56,3.32,3.32,0,0,1,1.23,1.55h2.55a5.52,5.52,0,0,0-2-3.18A5.9,5.9,0,0,0,8.72,68a6,6,0,0,0-3.09.79A5.34,5.34,0,0,0,3.57,71a6.46,6.46,0,0,0-.67,2.22H5.39A4.16,4.16,0,0,1,5.73,72.12Z"/><path class="cls-1" d="M10.69,77.6a3.49,3.49,0,0,1-2,.57,3.18,3.18,0,0,1-1.74-.49,3.24,3.24,0,0,1-1.21-1.37,4.46,4.46,0,0,1-.36-1.24H2.88a6.6,6.6,0,0,0,.69,2.36,5.33,5.33,0,0,0,2.07,2.19,5.91,5.91,0,0,0,3.08.79,6,6,0,0,0,3.77-1.17,5.54,5.54,0,0,0,2-3.19H11.92A3.32,3.32,0,0,1,10.69,77.6Z"/><path class="cls-1" d="M25.1,68.76A5.61,5.61,0,0,1,27.29,71a6.88,6.88,0,0,1,0,6.44,5.7,5.7,0,0,1-2.19,2.22,6.08,6.08,0,0,1-3.09.8,6.14,6.14,0,0,1-3.1-.8,5.84,5.84,0,0,1-2.19-2.22,6.88,6.88,0,0,1,0-6.44,5.74,5.74,0,0,1,2.19-2.21A6.14,6.14,0,0,1,22,68,6.08,6.08,0,0,1,25.1,68.76Zm-5,1.93a3.33,3.33,0,0,0-1.27,1.38,5.09,5.09,0,0,0,0,4.23,3.33,3.33,0,0,0,1.27,1.38,3.85,3.85,0,0,0,3.76,0,3.25,3.25,0,0,0,1.26-1.38,5.09,5.09,0,0,0,0-4.23,3.25,3.25,0,0,0-1.26-1.38,3.85,3.85,0,0,0-3.76,0Z"/><path class="cls-1" d="M40.23,80.31H37.8L32.35,72v8.28H29.92V68.13h2.43l5.45,8.35V68.13h2.43Z"/><path class="cls-1" d="M50.33,78.69A3.26,3.26,0,0,1,49,80a4.73,4.73,0,0,1-2.22.48A5.84,5.84,0,0,1,44.42,80a4,4,0,0,1-1.63-1.27,3.67,3.67,0,0,1-.7-1.93h2.59A2,2,0,0,0,45.27,78a1.86,1.86,0,0,0,1.36.49,1.57,1.57,0,0,0,1.16-.4,1.42,1.42,0,0,0,.41-1,1.32,1.32,0,0,0-.33-.93,2.43,2.43,0,0,0-.83-.6c-.33-.15-.79-.32-1.38-.52a12.7,12.7,0,0,1-1.86-.75,3.39,3.39,0,0,1-1.23-1.07,3.11,3.11,0,0,1-.51-1.85,3,3,0,0,1,1.13-2.47,4.6,4.6,0,0,1,3-.91,4.75,4.75,0,0,1,3.08.93,3.56,3.56,0,0,1,1.3,2.49H47.94a1.83,1.83,0,0,0-.56-1.08,1.69,1.69,0,0,0-1.22-.42,1.56,1.56,0,0,0-1.08.35,1.26,1.26,0,0,0-.42,1,1.28,1.28,0,0,0,.32.89,2.34,2.34,0,0,0,.81.58,12,12,0,0,0,1.34.5A16.91,16.91,0,0,1,49,74a3.3,3.3,0,0,1,1.25,1.08A3.19,3.19,0,0,1,50.8,77,3.28,3.28,0,0,1,50.33,78.69Z"/><path class="cls-1" d="M60.87,68.13v1.94H57.5V80.31H55.07V70.07H51.73V68.13Z"/><path class="cls-1" d="M68.55,80.31l-2.84-4.74H64.64v4.74H62.21V68.13h4.64a4.58,4.58,0,0,1,3.23,1,3.55,3.55,0,0,1,1.11,2.72,3.51,3.51,0,0,1-.76,2.31,3.78,3.78,0,0,1-2.22,1.24l3,4.87Zm-3.91-6.42h2c1.39,0,2.09-.61,2.09-1.84a1.8,1.8,0,0,0-.51-1.37,2.2,2.2,0,0,0-1.58-.49h-2Z"/><path class="cls-1" d="M75.18,68.13v7.14a3.23,3.23,0,0,0,.62,2.15,2.67,2.67,0,0,0,3.63,0,3.23,3.23,0,0,0,.62-2.15V68.13h2.42v7.14a5.89,5.89,0,0,1-.63,2.85,4.06,4.06,0,0,1-1.74,1.74,5.48,5.48,0,0,1-2.53.57,4.75,4.75,0,0,1-3.5-1.31,5.25,5.25,0,0,1-1.31-3.85V68.13Z"/><path class="cls-1" d="M94.42,68.13l-4.13,7.92v4.26H87.85V76.05l-4.14-7.92H86.5l2.59,5.33,2.58-5.33Z"/><rect class="cls-1" x="95.72" y="73.22" width="6.74" height="1.86"/><rect class="cls-1" x="95.72" y="78.36" width="7.26" height="1.95"/><rect class="cls-1" x="95.72" y="68.13" width="7.26" height="1.93"/><path class="cls-1" d="M103,0H49.37A36.6,36.6,0,0,1,63,13.15h40Z"/><path class="cls-1" d="M49.37,63.65H103V50.5H63A36.6,36.6,0,0,1,49.37,63.65Z"/><path class="cls-1" d="M.71,25.25a31.91,31.91,0,0,0,0,13.15H99.44V25.25Z"/><path class="cls-1" d="M46.62,42.88a18.45,18.45,0,0,1-29.37-.1,17.08,17.08,0,0,1-1.37-2.09H1.28c.2.71.42,1.41.67,2.09a31.84,31.84,0,0,0,59.74.1Z"/><path class="cls-1" d="M61.69,20.76H46.89A18.47,18.47,0,0,0,15.68,23H1.28c.21-.74.45-1.48.71-2.2a31.84,31.84,0,0,1,59.7,0Z"/></g></g></svg>