<svg xmlns="http://www.w3.org/2000/svg" viewBox="0 0 162.32 51.88"><defs><style>.cls-1{fill:#fff;}</style></defs><title>Recurso 11</title><g id="Capa_2" data-name="Capa 2"><g id="Navetec"><polygon class="cls-1" points="51.87 15.27 43.5 36.64 37.52 51.88 29.8 51.88 25.2 36.64 18.77 15.27 17.56 11.25 16 15.27 7.73 36.64 0 36.64 8.28 15.27 14.18 0.02 14.19 0 21.91 0 26.51 15.27 32.93 36.64 34.16 40.73 35.77 36.64 44.14 15.27 51.87 15.27"/><path class="cls-1" d="M88.91,15.27h12.9v3.39H93.33v5.48h6.51v3.35H93.33v5.67h9.38v3.48H88.91Z"/><path class="cls-1" d="M110.2,18.66h-6.06V15.27h16.54v3.39h-6v18H110.2Z"/><path class="cls-1" d="M123.71,15.27H136.6v3.39h-8.48v5.48h6.51v3.35h-6.51v5.67h9.38v3.48H123.71Z"/><path class="cls-1" d="M139.91,25.91a12.05,12.05,0,0,1,.8-4.49,9.73,9.73,0,0,1,2.21-3.37,10.1,10.1,0,0,1,7.35-2.78,18.52,18.52,0,0,1,4.73.59c.35.09.69.17,1,.23l-.64,3.9a8.44,8.44,0,0,0-1.6-.75,9.42,9.42,0,0,0-3-.46,6.71,6.71,0,0,0-2.67.47,5.46,5.46,0,0,0-1.93,1.36,7.32,7.32,0,0,0-1.75,5.14,8.16,8.16,0,0,0,1.69,5.37,5.84,5.84,0,0,0,4.72,2.12,10.34,10.34,0,0,0,4.1-.88,4.45,4.45,0,0,0,.81-.43v3.62a15.3,15.3,0,0,1-3.2,1,16.87,16.87,0,0,1-2.13.15,10.32,10.32,0,0,1-7.73-2.95A10.63,10.63,0,0,1,139.91,25.91Z"/><path class="cls-1" d="M66.16,15.28h4.73l4,11.65L76,31l1.13-4.07,3.74-11.65h4.71L77.77,36.65H74Z"/><path class="cls-1" d="M68.66,36.65H63.92L60,25l-1.12-4.06L57.71,25,54,36.65H49.26L57,15.28h3.75Z"/><path class="cls-1" d="M160.27,33.39a.91.91,0,0,1,.64.19.76.76,0,0,1,0,1.16.66.66,0,0,1-.28.11l.79,1.07h-.62l-.67-1H160v1h-.5V33.39ZM160,34.55h.14c.09,0,.48,0,.48-.38s-.38-.38-.47-.38H160Z"/><path class="cls-1" d="M160.34,36.66a2,2,0,1,1,2-2A2,2,0,0,1,160.34,36.66Zm0-3.66A1.67,1.67,0,1,0,162,34.67,1.67,1.67,0,0,0,160.34,33Z"/></g></g></svg>