<svg xmlns="http://www.w3.org/2000/svg" viewBox="0 0 132.77 106.41"><defs><style>.cls-1{fill:#fff;}</style></defs><title>Recurso 12</title><g id="Capa_2" data-name="Capa 2"><g id="Portto"><path class="cls-1" d="M66.36,12.18,107.58,53.4l-29,29L67.41,71.32l1.69-1.69,9.09,9.08.35.35.34-.35,25-25,.35-.35-.35-.35L66.71,15.91l-.35-.35-.35.35L41.79,40.05,40.1,38.37,66.36,12.18"/><path class="cls-1" d="M36.22,42.24l1.69,1.69-9.12,9.12-.35.35.35.35,25,25,.35.35.35-.35L90.89,42.27,92.58,44,54.1,82.44l-29-29Z"/><path class="cls-1" d="M66.36,0l35.09,35.09-5,5-1.7-1.7,3-2.94.35-.35-.35-.35-31-31-.35-.35L66,3.73l-31,31-.35.35.35.35,30.24,30.3-1.69,1.69L31.27,35.09,66.36,0"/><path class="cls-1" d="M66.36,24.43,71,29.1l-4.67,4.67L61.69,29.1l4.67-4.67"/><path class="cls-1" d="M0,89.29v-.13H3.64a5,5,0,0,1,1.61.25,3.25,3.25,0,0,1,1.15.68,3,3,0,0,1,.7,1,2.93,2.93,0,0,1,0,2.25,2.5,2.5,0,0,1-.67,1,3.4,3.4,0,0,1-1.21.66,5.26,5.26,0,0,1-1.71.25c-.21,0-.61,0-1.19-.09v3.83a1.1,1.1,0,0,0,1.2,1.22v.12H0v-.12a1.31,1.31,0,0,0,.85-.3,1.13,1.13,0,0,0,.34-.92V90.53a1.49,1.49,0,0,0-.12-.64.94.94,0,0,0-.28-.37,1.17,1.17,0,0,0-.36-.16l-.28-.07Zm2.33.26v5.23a6.29,6.29,0,0,0,1.14.11,3,3,0,0,0,1.83-.56,2.4,2.4,0,0,0,.75-2,3.08,3.08,0,0,0-.66-2,2.45,2.45,0,0,0-2-.79A6.41,6.41,0,0,0,2.33,89.55Z"/><path class="cls-1" d="M20.73,94.72a5.75,5.75,0,0,1-.77,2.9,5.93,5.93,0,0,1-2.11,2.14,5.74,5.74,0,0,1-3,.79,5.85,5.85,0,0,1-5.12-2.94,5.88,5.88,0,0,1-.31-5.23,5.64,5.64,0,0,1,1.29-1.87,6.09,6.09,0,0,1,1.9-1.23,5.64,5.64,0,0,1,2.22-.44A5.87,5.87,0,0,1,19,90.47a5.61,5.61,0,0,1,1.3,1.87A5.82,5.82,0,0,1,20.73,94.72Zm-1.33,0a6.5,6.5,0,0,0-.78-3.46,4,4,0,0,0-1.81-1.68,5.06,5.06,0,0,0-1.93-.42,4.76,4.76,0,0,0-1.45.23,4.09,4.09,0,0,0-1.46.83A4.48,4.48,0,0,0,10.79,92a8.27,8.27,0,0,0-.07,5.23,4.67,4.67,0,0,0,1,1.74,4,4,0,0,0,1.47,1,4.74,4.74,0,0,0,1.67.3,4.85,4.85,0,0,0,1.57-.27,4.18,4.18,0,0,0,1.45-.9A4.43,4.43,0,0,0,19,97.35,7.13,7.13,0,0,0,19.4,94.75Z"/><path class="cls-1" d="M22.66,89.32h-.15v-.16h3.84a3.86,3.86,0,0,1,1.57.29,2.57,2.57,0,0,1,1,.73,2.67,2.67,0,0,1,.51.93,3.22,3.22,0,0,1,.16,1,2.76,2.76,0,0,1-.26,1.16,2.48,2.48,0,0,1-.77,1,3,3,0,0,1-1.31.54v0a4.65,4.65,0,0,1,1.84,1.91l1,1.7a5.33,5.33,0,0,0,1.09,1.44,1.67,1.67,0,0,0,.81.34v.12H30l-.24-.32-.24-.33c0-.08-.13-.19-.22-.34a2.05,2.05,0,0,0-.18-.26l-1.33-2.2A5.15,5.15,0,0,0,27,95.73a3.14,3.14,0,0,0-.78-.6,2.32,2.32,0,0,0-.65-.23,4.66,4.66,0,0,0-.69,0v4.06A1.1,1.1,0,0,0,26,100.14v.12H22.51v-.12a1.7,1.7,0,0,0,.58-.13.88.88,0,0,0,.43-.38,1.31,1.31,0,0,0,.17-.71V90.53a1.18,1.18,0,0,0-.32-.94A1.11,1.11,0,0,0,22.66,89.32Zm2.17,5.24h.64a4,4,0,0,0,1.63-.28,1.91,1.91,0,0,0,.92-.82,2.72,2.72,0,0,0,.29-1.3,3.22,3.22,0,0,0-.26-1.25,2.34,2.34,0,0,0-.87-1,3,3,0,0,0-1.65-.41,3.44,3.44,0,0,0-.7.06Z"/><path class="cls-1" d="M47.5,88.61a1.28,1.28,0,0,1-1.11.55H33.16l-.46,0a1.44,1.44,0,0,1-.33-.09.84.84,0,0,1-.23-.16,1.18,1.18,0,0,1-.22-.28H31.8v2.71h.12a1.68,1.68,0,0,1,.64-1.4,2.67,2.67,0,0,1,1.35-.32h2.21v9.32a1.17,1.17,0,0,1-.34.93,1.4,1.4,0,0,1-.84.29v.12h3.53v-.12a1.1,1.1,0,0,1-1.21-1.22V89.6h4.9v9.32a1.14,1.14,0,0,1-.34.93,1.4,1.4,0,0,1-.84.29v.12h3.53v-.12a1.1,1.1,0,0,1-1.2-1.22V89.6h2.2a2.71,2.71,0,0,1,1.36.32,1.62,1.62,0,0,1,.63,1.4h.12V88.61Z"/><path class="cls-1" d="M60.46,94.72a5.75,5.75,0,0,1-.77,2.9,5.93,5.93,0,0,1-2.11,2.14,5.74,5.74,0,0,1-2.95.79,5.85,5.85,0,0,1-5.12-2.94,5.88,5.88,0,0,1-.31-5.23,5.64,5.64,0,0,1,1.29-1.87,6.09,6.09,0,0,1,1.9-1.23,5.64,5.64,0,0,1,2.22-.44,5.87,5.87,0,0,1,4.07,1.63A5.61,5.61,0,0,1,60,92.34,5.82,5.82,0,0,1,60.46,94.72Zm-1.33,0a6.5,6.5,0,0,0-.78-3.46,3.94,3.94,0,0,0-1.81-1.68,5.06,5.06,0,0,0-1.93-.42,4.76,4.76,0,0,0-1.45.23,4.09,4.09,0,0,0-1.46.83A4.48,4.48,0,0,0,50.52,92a8.46,8.46,0,0,0-.07,5.23,4.67,4.67,0,0,0,1,1.74,4,4,0,0,0,1.47,1,4.74,4.74,0,0,0,1.67.3,4.85,4.85,0,0,0,1.57-.27,4.18,4.18,0,0,0,1.45-.9,4.43,4.43,0,0,0,1.07-1.69A7.13,7.13,0,0,0,59.13,94.75Z"/><path class="cls-1" d="M72,100.26H67.83v-.12H68a1,1,0,0,0,.73-.31,1.25,1.25,0,0,0,.3-.91V90.54a1.35,1.35,0,0,0-.28-.92,1,1,0,0,0-.77-.33h-.13v-.13h3.62a4,4,0,0,1,1.32.21,3.14,3.14,0,0,1,1,.57,2.65,2.65,0,0,1,.64.83,2.27,2.27,0,0,1,.23,1A2.15,2.15,0,0,1,74,93.4a3.81,3.81,0,0,1-1.74.92v0a9.61,9.61,0,0,1,1,.16,4.05,4.05,0,0,1,.83.29,3.49,3.49,0,0,1,.69.49,2.85,2.85,0,0,1,.5.6,2.76,2.76,0,0,1,.31.7,3,3,0,0,1,.1.78,2.46,2.46,0,0,1-.45,1.49,3.12,3.12,0,0,1-1,1A4.6,4.6,0,0,1,72,100.26Zm-1.82-6h.72a3.15,3.15,0,0,0,1.26-.18,2.69,2.69,0,0,0,.5-.33,2,2,0,0,0,.5-.66A2.31,2.31,0,0,0,73.38,92a2.75,2.75,0,0,0-.16-.95,2.31,2.31,0,0,0-.46-.79,2.2,2.2,0,0,0-.71-.54,2,2,0,0,0-.91-.2,3.2,3.2,0,0,0-1,.17Zm1.13.34H70.16v4a2.16,2.16,0,0,0,.08.67.79.79,0,0,0,.43.46,2.32,2.32,0,0,0,1.09.2,2.39,2.39,0,0,0,2.18-1,2.93,2.93,0,0,0,.44-1.57,2.81,2.81,0,0,0-.22-1.15,2.4,2.4,0,0,0-.61-.85,2.71,2.71,0,0,0-1-.54A4,4,0,0,0,71.29,94.59Z"/><path class="cls-1" d="M77.13,100.14h.15a1,1,0,0,0,.72-.32,1.25,1.25,0,0,0,.31-.9V90.54a1.13,1.13,0,0,0-.35-1,1.39,1.39,0,0,0-.83-.29v-.13h3.55v.13a1.43,1.43,0,0,0-.83.28,1.14,1.14,0,0,0-.36,1v8.1a1.2,1.2,0,0,0,.36,1,2,2,0,0,0,1.18.28h1a2.73,2.73,0,0,0,1-.15,1.36,1.36,0,0,0,.59-.46,4.75,4.75,0,0,0,.44-.88h.13l-.42,1.83h-6.6Z"/><path class="cls-1" d="M90.31,89l3.33,9.5a4.79,4.79,0,0,0,.49,1.07,1.21,1.21,0,0,0,.45.42,1.88,1.88,0,0,0,.55.12v.12H91.5v-.12a2.68,2.68,0,0,0,.86-.11q.3-.11.3-.57a2.2,2.2,0,0,0-.14-.69.23.23,0,0,1,0-.09l-1-2.94H87.66l-.88,2.72a3.14,3.14,0,0,0-.18.9.71.71,0,0,0,.23.62,1.25,1.25,0,0,0,.67.16v.12H84.89v-.12a1.33,1.33,0,0,0,.89-.43,3.2,3.2,0,0,0,.59-1.13L89.5,89Zm-2.52,6.31h3.53l-1.8-5.27h0Z"/><path class="cls-1" d="M107.79,89.16v.13a2.74,2.74,0,0,0-.67.16.81.81,0,0,0-.38.43,2.49,2.49,0,0,0-.13.92v9.73h-.08L98,91v6.82a9.38,9.38,0,0,0,.07,1.27,1.48,1.48,0,0,0,.2.59,1.18,1.18,0,0,0,1,.43v.12H96.47v-.12a1.58,1.58,0,0,0,.73-.2,1.1,1.1,0,0,0,.37-.65,7.2,7.2,0,0,0,.1-1.42V90.63l-.36-.41a3.2,3.2,0,0,0-.79-.71,2.88,2.88,0,0,0-.73-.22v-.13h2.09l8.39,9.4V91.4a7.28,7.28,0,0,0-.07-1.21,1,1,0,0,0-.34-.64,1.39,1.39,0,0,0-.86-.26v-.13Z"/><path class="cls-1" d="M119.28,91.65h-.12a2.45,2.45,0,0,0-.77-1.38,3.72,3.72,0,0,0-1.43-.82,4.69,4.69,0,0,0-1.5-.26,4.09,4.09,0,0,0-1.8.4,4.32,4.32,0,0,0-1.45,1.14,5.39,5.39,0,0,0-.95,1.76,7.24,7.24,0,0,0-.34,2.23,6.9,6.9,0,0,0,.33,2.17,5.12,5.12,0,0,0,1,1.73,4.12,4.12,0,0,0,1.46,1.11,4.37,4.37,0,0,0,1.83.38,5.87,5.87,0,0,0,1.86-.35,4.82,4.82,0,0,0,1.82-1.14v.43a8.65,8.65,0,0,1-1.84,1.14,5.19,5.19,0,0,1-2.07.36,5.83,5.83,0,0,1-2.39-.48,5.51,5.51,0,0,1-1.83-1.29A5.6,5.6,0,0,1,109.92,97a6,6,0,0,1-.38-2.09,5.85,5.85,0,0,1,.8-3,5.92,5.92,0,0,1,2.16-2.2,5.68,5.68,0,0,1,3-.81,8.47,8.47,0,0,1,2.1.29l.78.22a2.08,2.08,0,0,0,.39.05.62.62,0,0,0,.39-.09.69.69,0,0,0,.15-.31h.12Z"/><path class="cls-1" d="M132.77,94.72a5.66,5.66,0,0,1-.78,2.9,5.82,5.82,0,0,1-2.1,2.14,5.74,5.74,0,0,1-2.95.79,5.82,5.82,0,0,1-5.12-2.94,5.74,5.74,0,0,1-.78-2.93,5.9,5.9,0,0,1,.46-2.3,5.67,5.67,0,0,1,1.3-1.87,6,6,0,0,1,1.9-1.23,5.64,5.64,0,0,1,2.22-.44,5.84,5.84,0,0,1,2.19.42A6,6,0,0,1,131,90.47a5.61,5.61,0,0,1,1.3,1.87A5.82,5.82,0,0,1,132.77,94.72Zm-1.33,0a6.5,6.5,0,0,0-.78-3.46,4,4,0,0,0-1.81-1.68,5.1,5.1,0,0,0-1.93-.42,4.76,4.76,0,0,0-1.45.23,4.21,4.21,0,0,0-1.47.83A4.58,4.58,0,0,0,122.83,92a7.29,7.29,0,0,0-.46,2.74,7.49,7.49,0,0,0,.38,2.49,4.82,4.82,0,0,0,1,1.74,3.85,3.85,0,0,0,1.47,1,4.7,4.7,0,0,0,1.67.3,4.89,4.89,0,0,0,1.57-.27A4.18,4.18,0,0,0,130,99,4.43,4.43,0,0,0,131,97.35,7.35,7.35,0,0,0,131.44,94.75Z"/><polygon class="cls-1" points="132.75 104.81 1.61 104.81 0.01 106.41 131.15 106.41 132.75 104.81"/></g></g></svg>