<svg xmlns="http://www.w3.org/2000/svg" viewBox="0 0 135.03 60.6"><defs><style>.cls-1{fill:#fff;}</style></defs><title>Recurso 9</title><g id="Capa_2" data-name="Capa 2"><g id="Rent_Solutions" data-name="Rent Solutions"><path class="cls-1" d="M20.62,39,11.5,23.83H8.07V39H.27V0H15.14Q22,0,25.51,3.32a11.36,11.36,0,0,1,3.57,8.74,11.24,11.24,0,0,1-2.46,7.4,12.07,12.07,0,0,1-7.11,4L29.24,39ZM8.07,18.47h6.41q6.69,0,6.69-5.92a5.8,5.8,0,0,0-1.63-4.39c-1.09-1-2.77-1.58-5.06-1.58H8.07Z"/><path class="cls-1" d="M42.13,6.19V16.31H56v6H42.13V32.79H57.6V39H34.33V0H57.6V6.19Z"/><path class="cls-1" d="M96.42,39h-7.8L71.15,12.5V39h-7.8V0h7.8L88.62,26.76V0h7.8Z"/><path class="cls-1" d="M130,0V6.19H119.25V39h-7.8V6.19H100.73V0Z"/><path class="cls-1" d="M11.44,58.2a4.69,4.69,0,0,1-1.91,1.74,6.57,6.57,0,0,1-3.07.66A8.11,8.11,0,0,1,3.26,60,5.54,5.54,0,0,1,1,58.24a5.13,5.13,0,0,1-1-2.67H3.62a2.72,2.72,0,0,0,.82,1.7A2.6,2.6,0,0,0,6.31,58a2.19,2.19,0,0,0,1.61-.56A1.91,1.91,0,0,0,8.48,56,1.89,1.89,0,0,0,8,54.65a3.34,3.34,0,0,0-1.14-.82c-.46-.21-1.1-.44-1.91-.72a17.47,17.47,0,0,1-2.57-1A4.76,4.76,0,0,1,.7,50.59,4.25,4.25,0,0,1,0,48a4.14,4.14,0,0,1,1.56-3.42,6.44,6.44,0,0,1,4.13-1.25A6.56,6.56,0,0,1,10,44.66a4.89,4.89,0,0,1,1.8,3.43H8.12a2.44,2.44,0,0,0-.76-1.49A2.35,2.35,0,0,0,5.67,46a2.26,2.26,0,0,0-1.5.49,1.77,1.77,0,0,0-.57,1.42A1.75,1.75,0,0,0,4,49.15a3.49,3.49,0,0,0,1.12.8c.45.2,1.07.43,1.84.69a25.78,25.78,0,0,1,2.64,1.07,4.55,4.55,0,0,1,1.72,1.5,4.39,4.39,0,0,1,.72,2.62A4.63,4.63,0,0,1,11.44,58.2Z"/><path class="cls-1" d="M26.72,44.47a8,8,0,0,1,3,3.06A9,9,0,0,1,30.85,52a9.07,9.07,0,0,1-1.1,4.46,8,8,0,0,1-3,3.07,8.86,8.86,0,0,1-8.55,0,8,8,0,0,1-3-3.07A9,9,0,0,1,14,52a8.87,8.87,0,0,1,1.11-4.44,8,8,0,0,1,3-3.06,8.86,8.86,0,0,1,8.55,0Zm-6.87,2.66a4.59,4.59,0,0,0-1.75,1.92,7,7,0,0,0,0,5.84,4.59,4.59,0,0,0,1.75,1.92,5.43,5.43,0,0,0,5.19,0,4.59,4.59,0,0,0,1.75-1.92,7.08,7.08,0,0,0,0-5.84A4.59,4.59,0,0,0,25,47.13a5.43,5.43,0,0,0-5.19,0Z"/><path class="cls-1" d="M36.74,57.86h5.64v2.57h-9V43.61h3.36Z"/><path class="cls-1" d="M47.63,43.61v9.86a4.39,4.39,0,0,0,.87,3,3.65,3.65,0,0,0,5,0,4.39,4.39,0,0,0,.87-3V43.61H57.7v9.86a8.17,8.17,0,0,1-.87,3.94,5.51,5.51,0,0,1-2.4,2.4,7.63,7.63,0,0,1-3.49.79,6.57,6.57,0,0,1-4.84-1.81,7.2,7.2,0,0,1-1.81-5.32V43.61Z"/><path class="cls-1" d="M72.1,43.61v2.67H67.45V60.43H64.09V46.28H59.47V43.61Z"/><path class="cls-1" d="M77.31,43.61V60.43H74V43.61Z"/><path class="cls-1" d="M92.53,44.47a8,8,0,0,1,3,3.06A8.87,8.87,0,0,1,96.66,52a9,9,0,0,1-1.11,4.46,8,8,0,0,1-3,3.07,8.88,8.88,0,0,1-8.56,0,7.89,7.89,0,0,1-3-3.07A9,9,0,0,1,79.84,52,8.87,8.87,0,0,1,81,47.53a7.86,7.86,0,0,1,3-3.06,8.88,8.88,0,0,1,8.56,0Zm-6.88,2.66a4.59,4.59,0,0,0-1.75,1.92,7.08,7.08,0,0,0,0,5.84,4.59,4.59,0,0,0,1.75,1.92,5.45,5.45,0,0,0,5.2,0,4.66,4.66,0,0,0,1.75-1.92,7.08,7.08,0,0,0,0-5.84,4.66,4.66,0,0,0-1.75-1.92,5.45,5.45,0,0,0-5.2,0Z"/><path class="cls-1" d="M113.43,60.43h-3.36L102.54,49V60.43H99.18V43.61h3.36l7.53,11.53V43.61h3.36Z"/><path class="cls-1" d="M127.39,58.2a4.66,4.66,0,0,1-1.9,1.74,6.58,6.58,0,0,1-3.08.66,8.06,8.06,0,0,1-3.19-.61A5.41,5.41,0,0,1,117,58.24a5.14,5.14,0,0,1-1-2.67h3.58a2.72,2.72,0,0,0,.82,1.7,2.59,2.59,0,0,0,1.87.68,2.19,2.19,0,0,0,1.61-.56,2,2,0,0,0,.56-1.44,1.89,1.89,0,0,0-.45-1.3,3.48,3.48,0,0,0-1.15-.82c-.46-.21-1.09-.44-1.9-.72a18.12,18.12,0,0,1-2.58-1,4.82,4.82,0,0,1-1.7-1.49A4.25,4.25,0,0,1,116,48a4.14,4.14,0,0,1,1.56-3.42,6.44,6.44,0,0,1,4.13-1.25,6.51,6.51,0,0,1,4.25,1.29,4.82,4.82,0,0,1,1.8,3.43h-3.62a2.49,2.49,0,0,0-.76-1.49,2.37,2.37,0,0,0-1.69-.59,2.26,2.26,0,0,0-1.5.49,1.78,1.78,0,0,0-.58,1.42,1.76,1.76,0,0,0,.45,1.23,3.38,3.38,0,0,0,1.12.8c.45.2,1.06.43,1.84.69a24.58,24.58,0,0,1,2.63,1.07,4.5,4.5,0,0,1,1.73,1.5,4.39,4.39,0,0,1,.72,2.62A4.54,4.54,0,0,1,127.39,58.2Z"/><polygon class="cls-1" points="125.03 32.62 125.03 12.63 135.03 22.63 125.03 32.62"/></g></g></svg>