<svg xmlns="http://www.w3.org/2000/svg" viewBox="0 0 140.14 142.99"><defs><style>.cls-1{fill:#fff;}</style></defs><title>Recurso 5</title><g id="Capa_2" data-name="Capa 2"><g id="Aliado_Sherpa" data-name="Aliado Sherpa"><path class="cls-1" d="M16.9,71.48l7.65-20.12h4.93l7.77,20.12h-4.9l-1.64-4.27H22.92l-1.4,4.27Zm12.81-7.65-2.25-6.51a8.44,8.44,0,0,1-.25-1c-.1-.47-.21-1-.32-1.72-.12.65-.23,1.24-.34,1.76s-.19.86-.25,1l-2.17,6.43Z"/><path class="cls-1" d="M39.36,71.48V51.36h4.31V67.83h6.87v3.65Z"/><path class="cls-1" d="M53.51,71.48V51.36h4.31V71.48Z"/><path class="cls-1" d="M59.3,71.48,67,51.36h4.93l7.77,20.12h-4.9l-1.64-4.27H65.32l-1.4,4.27Zm12.81-7.65-2.25-6.51a8.44,8.44,0,0,1-.25-1c-.1-.47-.21-1-.32-1.72-.12.65-.23,1.24-.34,1.76s-.19.86-.25,1l-2.17,6.43Z"/><path class="cls-1" d="M81.16,71.48V51.36h5.48a22.89,22.89,0,0,1,5.12.45A8.9,8.9,0,0,1,95,53.32a8.64,8.64,0,0,1,2.77,3.43,11.22,11.22,0,0,1,1,4.71,11,11,0,0,1-1,4.75A8.73,8.73,0,0,1,95,69.63a9.11,9.11,0,0,1-3.06,1.42,21.15,21.15,0,0,1-4.93.43H81.16Zm4.3-3.63h2.39q3.39,0,4.93-1.54t1.55-4.88q0-3.33-1.55-4.87T87.85,55H85.46Z"/><path class="cls-1" d="M123,61.46a10.38,10.38,0,0,1-.8,4.08,10.1,10.1,0,0,1-2.32,3.39,11,11,0,0,1-3.53,2.29,10.71,10.71,0,0,1-7.68.17,10.94,10.94,0,0,1-3.24-1.79,10.26,10.26,0,0,1-3.91-8.14,10.48,10.48,0,0,1,.79-4.08A10,10,0,0,1,104.65,54a11,11,0,0,1,7.63-3.09,10.73,10.73,0,0,1,4.09.81A10.85,10.85,0,0,1,119.88,54a10.17,10.17,0,0,1,2.33,3.4A10.47,10.47,0,0,1,123,61.46Zm-10.72,6.72a5.94,5.94,0,0,0,4.52-1.91,7.36,7.36,0,0,0,0-9.62,6.22,6.22,0,0,0-9,0,7.38,7.38,0,0,0,0,9.64A5.94,5.94,0,0,0,112.28,68.18Z"/><path class="cls-1" d="M79.86,126.38a4.53,4.53,0,0,0-2.48,0l-.46.08.64,3.75.45-.08a4.93,4.93,0,0,0,2.38-.81,1.59,1.59,0,0,0,.36-1.51A1.69,1.69,0,0,0,79.86,126.38Z"/><path class="cls-1" d="M96,120.56a2.78,2.78,0,0,0-1.85.44l-.4.21,2,3.75.39-.22a2.64,2.64,0,0,0,1.37-1.33,2.16,2.16,0,0,0-.29-1.75A1.9,1.9,0,0,0,96,120.56Z"/><path class="cls-1" d="M109.51,113.39l1.93,3.76,2.42-2.5L110,112.84c-.11,0-.29-.16-.55-.32s-.55-.36-.9-.6c.24.33.45.64.63.91S109.46,113.29,109.51,113.39Z"/><path class="cls-1" d="M140.13,34.28V21.88L114.49,8.38a7.6,7.6,0,0,0-2.94-.61,6,6,0,0,0-2.51.61l-4.3,2.31a3.36,3.36,0,0,1-1.41.37,3.13,3.13,0,0,1-1.65-.74L88.92,1a5.36,5.36,0,0,0-3.1-1,6.94,6.94,0,0,0-3.54,1.16L73.55,7.77a2.79,2.79,0,0,1-1.41.56,3.47,3.47,0,0,1-1.45-.19L67,6.48a5.36,5.36,0,0,0-2.79-.39,6.34,6.34,0,0,0-2.6,1l-10.71,8.2a2.71,2.71,0,0,1-1.22.62,3,3,0,0,1-1.52-.13L34.82,11.3a5.37,5.37,0,0,0-2-.29,5.72,5.72,0,0,0-2,.47l-22.46,10h0L0,25.23v9.05H0V72.92a69.73,69.73,0,0,0,12.09,39.35,71.11,71.11,0,0,0,5,6.53,70.06,70.06,0,0,0,105.91,0,67.74,67.74,0,0,0,5-6.53,69.66,69.66,0,0,0,12.1-39.35V34.28ZM34.33,114.64l-2.11-.12a1.89,1.89,0,0,0,.08-1.07,2,2,0,0,0-.55-1,1.89,1.89,0,0,0-1.13-.65,1.24,1.24,0,0,0-1.05.34c-.47.43-.47,1.29,0,2.56.1.25.17.45.21.59a6.26,6.26,0,0,1,.39,2.75,3.07,3.07,0,0,1-1,1.92,3.43,3.43,0,0,1-2.78,1,4.65,4.65,0,0,1-2.88-1.59,5.47,5.47,0,0,1-1.27-2.08,3.24,3.24,0,0,1,0-2l2.18-.06a2.28,2.28,0,0,0-.18,1.36,2.55,2.55,0,0,0,.65,1.26,2.25,2.25,0,0,0,1.29.76,1.42,1.42,0,0,0,1.21-.4c.42-.4.44-1.21.06-2.46-.13-.4-.23-.73-.29-1a6.64,6.64,0,0,1-.32-2.71,3,3,0,0,1,1-1.73,3,3,0,0,1,2.61-.81,4.71,4.71,0,0,1,2.81,1.6,4.24,4.24,0,0,1,1,1.65A3.69,3.69,0,0,1,34.33,114.64Zm11.76,19.52-2.76-1.4,2.74-5.4-5.6-2.84-2.74,5.4L35,128.52l6.54-12.92,2.77,1.4-2.63,5.18,5.6,2.84,2.63-5.18,2.76,1.4Zm20.63-6.86-5.39-.62L61,129.63l5.39.63-.3,2.61-5.4-.62-.41,3.61,5.4.62-.3,2.61-8.48-1,1.66-14.39,8.47,1Zm16,10.43-4.89-6,1.13,6.68-3,.51L73.47,124.6l4.37-.74a6.48,6.48,0,0,1,4.08.35A3.67,3.67,0,0,1,83.73,127a3.88,3.88,0,0,1-.46,2.67,3.58,3.58,0,0,1-2.09,1.61l5,5.83Zm17.77-13.9a5.65,5.65,0,0,1-2.78,2.85l-.75.4L99.56,132l-2.75,1.48L90,120.67,93.09,119a6.71,6.71,0,0,1,4.23-1,4,4,0,0,1,2.79,2.32A4.2,4.2,0,0,1,100.47,123.83Zm18-7-2.62-1.13-3.38,3.49,1.3,2.48-2,2.06-5.67-12.15,2.13-2.2,12.37,5.26Zm9.61-56a58,58,0,0,1-115.95,0V43h0V35.89l18.78-8.37a5.59,5.59,0,0,1,2-.46,5.12,5.12,0,0,1,2,.29L48,31.78a3,3,0,0,0,1.52.12,3.05,3.05,0,0,0,1.24-.54l10.71-8.2a7.27,7.27,0,0,1,2.73-1,5.36,5.36,0,0,1,2.79.39l3.8,1.65a2.17,2.17,0,0,0,1.24.2,3,3,0,0,0,1.41-.56l8.73-6.61a7.56,7.56,0,0,1,3.65-1.16,5.28,5.28,0,0,1,3.1,1l13,9.48a2.27,2.27,0,0,0,1.5.52,3.36,3.36,0,0,0,1.41-.37l4.3-2.31a6.21,6.21,0,0,1,2.61-.51,5.79,5.79,0,0,1,2.68.67l13.59,7V43h0Z"/><polygon class="cls-1" points="47.29 82.94 47.4 83.6 46.35 83.05 46.35 83.05 44.35 82 42.35 83.05 42.35 83.05 41.3 83.6 41.41 82.94 41.88 80.2 39.42 77.8 42.83 77.31 43.62 75.7 44.35 74.21 45.09 75.7 45.88 77.31 49.29 77.8 46.82 80.2 47.29 82.94"/><polygon class="cls-1" points="60.15 82.94 60.26 83.6 59.21 83.05 59.21 83.05 57.21 82 55.21 83.05 55.21 83.05 54.16 83.6 54.27 82.94 54.74 80.2 52.28 77.8 55.68 77.31 56.48 75.7 57.21 74.21 57.94 75.7 58.74 77.31 62.15 77.8 59.68 80.2 60.15 82.94"/><polygon class="cls-1" points="73 82.94 73.12 83.6 72.07 83.05 72.07 83.05 70.07 82 68.07 83.05 68.07 83.05 67.02 83.6 67.13 82.94 67.6 80.2 65.13 77.8 68.54 77.31 69.33 75.7 70.07 74.21 70.8 75.7 71.59 77.31 75 77.8 72.53 80.2 73 82.94"/><polygon class="cls-1" points="85.86 82.94 85.97 83.6 84.93 83.05 84.92 83.05 82.92 82 80.92 83.05 80.92 83.05 79.87 83.6 79.99 82.94 80.46 80.2 77.99 77.8 81.4 77.31 82.19 75.7 82.92 74.21 83.66 75.7 84.45 77.31 87.86 77.8 85.39 80.2 85.86 82.94"/><polygon class="cls-1" points="98.72 82.94 98.83 83.6 97.78 83.05 97.78 83.05 95.78 82 93.78 83.05 93.78 83.05 92.73 83.6 92.84 82.94 93.31 80.2 90.85 77.8 94.25 77.31 95.05 75.7 95.78 74.21 96.51 75.7 97.31 77.31 100.72 77.8 98.25 80.2 98.72 82.94"/></g></g></svg>