<svg xmlns="http://www.w3.org/2000/svg" viewBox="0 0 106.24 83.87"><defs><style>.cls-1{fill:#f6f4ef;}</style></defs><title>hook</title><g id="Capa_2" data-name="Capa 2"><g id="Capa_1-2" data-name="Capa 1"><path class="cls-1" d="M54.83,79.85A10.21,10.21,0,1,0,44.62,69.64,10.21,10.21,0,0,0,54.83,79.85Zm0-18.15a7.94,7.94,0,1,1-7.94,7.94A7.93,7.93,0,0,1,54.83,61.7Z"/><path class="cls-1" d="M52.56,71.91H50.29a3.41,3.41,0,0,0,3.41,3.4v1.14H56V75.31a3.41,3.41,0,1,0,0-6.81V66.24a1.13,1.13,0,0,1,1.14,1.13h2.27A3.41,3.41,0,0,0,56,64V62.83H53.7V64a3.4,3.4,0,1,0,0,6.8V73A1.14,1.14,0,0,1,52.56,71.91Zm0-4.54a1.13,1.13,0,0,1,1.14-1.13V68.5A1.13,1.13,0,0,1,52.56,67.37Zm3.4,3.4A1.14,1.14,0,1,1,56,73Z"/><path class="cls-1" d="M83.19,49.22H77.52V40.15l1.7,1a1.14,1.14,0,0,0,1.54-.4l3.4-5.67a1.15,1.15,0,0,0-.42-1.58L75.25,28.8V20.86h1.13a1.14,1.14,0,0,0,1.14-1.13V16.32a1.14,1.14,0,0,0-1.14-1.13H65a1.14,1.14,0,0,0-1.14,1.13v3.41A1.14,1.14,0,0,0,65,20.86h1.13v2.93L50.84,15.33a1.13,1.13,0,0,0-1.1,0L16.85,33.48a1.14,1.14,0,0,0-.55.7,1.18,1.18,0,0,0,.12.88l3.41,5.67a1.13,1.13,0,0,0,1.54.4l2.83-1.64V71.91H21.93A1.14,1.14,0,0,0,20.8,73v5.67a1.14,1.14,0,0,0,1.13,1.14H32.14v2.27a1.14,1.14,0,0,0,1.14,1.13h43.1a1.14,1.14,0,0,0,1.14-1.13h2.27A1.14,1.14,0,0,0,80.92,81V78.71h2.27a1.12,1.12,0,0,0,1.13-1.13V50.36A1.13,1.13,0,0,0,83.19,49.22Zm-17-31.76h9.08v1.13H66.17Zm2.27,3.4H73v6.69L68.44,25ZM21.2,38.61,19,34.9,50.29,17.62,81.61,34.9l-2.22,3.71L50.86,22.15a1.14,1.14,0,0,0-1.13,0Zm5.27-.43L50.29,24.44l25,14.4V49.22H36.68a1.13,1.13,0,0,0-1.13,1.14v2.26H34.41a1.14,1.14,0,0,0-1.13,1.14V56a1.13,1.13,0,0,0-1.14,1.13V71.91H26.47ZM75.25,61.55A4.55,4.55,0,0,1,72,58.3h3.26ZM69.68,58.3a6.8,6.8,0,0,0,5.57,5.56V75.41A6.82,6.82,0,0,0,69.68,81H40a6.82,6.82,0,0,0-5.57-5.57V63.86A6.8,6.8,0,0,0,40,58.3ZM34.41,61.54V58.3h3.24A4.54,4.54,0,0,1,34.41,61.54Zm-11.34,16v-3.4h9.07v3.4Zm11.34.16A4.54,4.54,0,0,1,37.65,81H34.41ZM75.25,81H72a4.56,4.56,0,0,1,3.26-3.26Zm3.4-1.13H77.52V57.16A1.13,1.13,0,0,0,76.38,56H35.55V54.89h43.1Zm3.4-3.4H80.92V53.76a1.14,1.14,0,0,0-1.13-1.14h-42V51.49H82.05Z"/><path class="cls-1" d="M44.62,44.68H56a1.13,1.13,0,0,0,1.14-1.13V32.21A1.14,1.14,0,0,0,56,31.07H44.62a1.13,1.13,0,0,0-1.13,1.14V43.55A1.12,1.12,0,0,0,44.62,44.68ZM45.76,39h3.4v3.4h-3.4Zm5.67,3.4V39h3.4v3.4Zm3.4-5.67h-3.4v-3.4h3.4Zm-5.67-3.4v3.4h-3.4v-3.4Z"/><path class="cls-1" d="M14.77,83.87a49.17,49.17,0,1,1,76.7,0h5a53.13,53.13,0,1,0-86.61,0Z"/></g></g></svg>