<svg xmlns="http://www.w3.org/2000/svg" viewBox="0 0 106.24 83.87"><defs><style>.cls-1{fill:#f6f4ef;}</style></defs><title>msi</title><g id="Capa_2" data-name="Capa 2"><g id="Capa_1-2" data-name="Capa 1"><path class="cls-1" d="M14.77,83.87a49.17,49.17,0,1,1,76.7,0h5a53.13,53.13,0,1,0-86.61,0Z"/><path class="cls-1" d="M19.54,83.56H52.86v-2H20.56V23.56h27.7v8.2a1,1,0,0,0,1,1h8.2V58.85h2V31.76s0,0,0-.06a.75.75,0,0,0-.05-.26.3.3,0,0,0,0-.1,1,1,0,0,0-.2-.3l-7.48-7.48H61.6V58.85h2V23.56H65.7V58.85h2V22.53a1,1,0,0,0-1-1H19.54a1,1,0,0,0-1,1v60A1,1,0,0,0,19.54,83.56ZM50.31,30.74V25L56,30.74Z"/><path class="cls-1" d="M51.36,66.9V56.16l1.58,1a1,1,0,0,0,1.08,0,1.08,1.08,0,0,0,.55-.94V52a1.09,1.09,0,0,0-.51-.91L50.3,48.73V43.41a1.07,1.07,0,0,0-1.07-1.07H45a1.07,1.07,0,0,0-1.07,1.07v1.37L40.18,42.5a1.07,1.07,0,0,0-1.12,0L25.17,51a1.08,1.08,0,0,0-.5.91v4.27a1.09,1.09,0,0,0,.54.94,1,1,0,0,0,1.08,0l1.58-1V66.9A1.07,1.07,0,0,0,28.94,68H50.3A1.06,1.06,0,0,0,51.36,66.9ZM46,44.48h2.14v2.93L46,46.1ZM26.8,52.55l12.82-7.89,12.81,7.89v1.76L40.18,46.77a1.07,1.07,0,0,0-1.12,0L26.8,54.31ZM37.48,65.83v-6.4h4.27v6.4Zm6.41,0V58.36a1.07,1.07,0,0,0-1.07-1.07H36.41a1.06,1.06,0,0,0-1.06,1.07v7.47H30v-11l9.61-5.92,9.61,5.92v11Z"/><path class="cls-1" d="M24.67,26.63H38v2.06H24.67Z"/><path class="cls-1" d="M24.67,30.74H46.21v2.05H24.67Z"/><path class="cls-1" d="M24.67,35.47H54.41v2.06H24.67Z"/><path class="cls-1" d="M24.67,71.25H54.81l-.42,2.06H24.67Z"/><path class="cls-1" d="M24.67,75.36h6.15v2H24.67Z"/><path class="cls-1" d="M32.87,75.36H54l-.37,2H32.87Z"/><path class="cls-1" d="M40.05,26.63h6.16v2.06H40.05Z"/><path class="cls-1" d="M59.16,64.47h2.22l4.2,10,4.38-10h2.23l2.65,15.8H71.71l-1.42-9.73-4.24,9.73H65L61,70.54l-1.61,9.73H56.22Z"/><path class="cls-1" d="M83.22,68.07a3.08,3.08,0,0,0-2.58-1.35c-1.66,0-2.18,1-2.18,1.85a1.33,1.33,0,0,0,.5,1.07,5.59,5.59,0,0,0,1.89.9,8.89,8.89,0,0,1,3.2,1.59,4.29,4.29,0,0,1,1.35,3.31c0,3.08-2.22,5.19-5.49,5.19a6.5,6.5,0,0,1-5.45-3l2-1.91a3.69,3.69,0,0,0,3.32,2.1,2.21,2.21,0,0,0,2.44-2.18,1.85,1.85,0,0,0-.62-1.42,7.18,7.18,0,0,0-2.44-1.16,7.56,7.56,0,0,1-2.63-1.37,3.69,3.69,0,0,1-1.25-2.94c0-2.32,1.56-4.64,5.07-4.64A6.07,6.07,0,0,1,84.83,66Z"/><path class="cls-1" d="M89,64.47v15.8H85.92V64.47Z"/><rect class="cls-1" x="56.1" y="81.52" width="32.85" height="2.14"/><rect class="cls-1" x="56.1" y="61.14" width="32.85" height="2.14"/></g></g></svg>