<svg xmlns="http://www.w3.org/2000/svg" viewBox="0 0 106.24 83.87"><defs><style>.cls-1{fill:#f6f4ef;}</style></defs><title>term-icon</title><g id="Capa_2" data-name="Capa 2"><g id="Capa_1-2" data-name="Capa 1"><path class="cls-1" d="M70.32,26H17.69A1.67,1.67,0,0,0,16,27.62V66.39a1.67,1.67,0,0,0,1.67,1.67H54.05A20.49,20.49,0,0,1,53.71,66H50.34V59.57H54c.08-.37.17-.74.27-1.1h-4V52.06h7c.27-.38.56-.74.86-1.1H50.34V44.55h9.23v5a18.63,18.63,0,0,1,1.63-1.44V44.55h6.87A20.27,20.27,0,0,1,72,43.84V27.62A1.66,1.66,0,0,0,70.32,26ZM27,66H17.76V59.57H27Zm0-7.51H17.76V52.06H27ZM27,51H17.76V44.55H27Zm0-7.51H17.76V37H27ZM37.84,66H28.62V59.57h9.22Zm0-7.51H28.62V52.06h9.22Zm0-7.51H28.62V44.55h9.22Zm0-7.51H28.62V37h9.22ZM48.7,66H39.48V59.57H48.7Zm0-7.51H39.48V52.06H48.7Zm0-7.51H39.48V44.55H48.7Zm0-7.51H39.48V37H48.7Zm10.87,0H50.34V37h9.23ZM31.35,34.18V28.64H69.21v5.54Zm39.08,9.27H61.2V37h9.23Z"/><rect class="cls-1" x="32.95" y="35.62" width="0.54" height="9.26" transform="translate(-18.78 44.58) rotate(-55.23)"/><rect class="cls-1" x="28.59" y="39.97" width="9.26" height="0.54" transform="translate(-17.01 26.11) rotate(-34.74)"/><rect class="cls-1" x="43.8" y="35.62" width="0.54" height="9.26" transform="translate(-14.12 53.5) rotate(-55.23)"/><rect class="cls-1" x="39.44" y="39.97" width="9.26" height="0.54" transform="translate(-15.08 32.29) rotate(-34.74)"/><rect class="cls-1" x="32.95" y="43.11" width="0.54" height="9.26" transform="translate(-24.94 47.8) rotate(-55.23)"/><rect class="cls-1" x="28.59" y="47.47" width="9.26" height="0.54" transform="translate(-21.28 27.44) rotate(-34.74)"/><rect class="cls-1" x="21.97" y="35.62" width="0.54" height="9.26" transform="translate(-23.5 35.56) rotate(-55.23)"/><rect class="cls-1" x="17.61" y="39.97" width="9.26" height="0.54" transform="translate(-18.97 19.85) rotate(-34.74)"/><rect class="cls-1" x="21.97" y="43.11" width="0.54" height="9.26" transform="matrix(0.57, -0.82, 0.82, 0.57, -29.66, 38.78)"/><rect class="cls-1" x="17.61" y="47.47" width="9.26" height="0.54" transform="translate(-23.24 21.18) rotate(-34.74)"/><rect class="cls-1" x="43.8" y="43.11" width="0.54" height="9.26" transform="matrix(0.57, -0.82, 0.82, 0.57, -20.28, 56.72)"/><rect class="cls-1" x="39.44" y="47.47" width="9.26" height="0.54" transform="translate(-19.35 33.63) rotate(-34.74)"/><rect class="cls-1" x="54.65" y="35.62" width="0.54" height="9.26" transform="translate(-9.46 62.41) rotate(-55.23)"/><rect class="cls-1" x="50.29" y="39.97" width="9.26" height="0.54" transform="translate(-13.14 38.48) rotate(-34.74)"/><rect class="cls-1" x="65.5" y="35.62" width="0.54" height="9.26" transform="translate(-4.79 71.33) rotate(-55.23)"/><rect class="cls-1" x="61.14" y="39.97" width="9.26" height="0.54" transform="translate(-11.21 44.66) rotate(-34.74)"/><path class="cls-1" d="M73.61,43.78c-.55,0-1.09,0-1.63.06a20.27,20.27,0,0,0-3.91.71,19.87,19.87,0,0,0-6.87,3.54,18.63,18.63,0,0,0-1.63,1.44c-.46.46-.9.93-1.32,1.43s-.59.72-.86,1.1a19.92,19.92,0,0,0-3.08,6.41c-.1.36-.19.73-.27,1.1a20.28,20.28,0,0,0-.45,4.22c0,.74,0,1.47.12,2.19a20.49,20.49,0,0,0,.34,2.08A20,20,0,1,0,73.61,43.78Zm0,36.19A16.19,16.19,0,0,1,58,68.06,14.46,14.46,0,0,1,57.58,66,16.14,16.14,0,0,1,58,59.57a10.74,10.74,0,0,1,.34-1.1,15.55,15.55,0,0,1,1.24-2.72,15.28,15.28,0,0,1,1.63-2.34,18,18,0,0,1,1.26-1.35,13.73,13.73,0,0,1,1.3-1.1,16,16,0,0,1,6.67-3c.51-.1,1-.17,1.55-.23s1.08-.08,1.63-.08a16.18,16.18,0,1,1,0,32.36Z"/><polygon class="cls-1" points="84.95 71.57 72.8 64.25 72.8 56.06 74.42 56.06 74.42 63.33 85.79 70.18 84.95 71.57"/><path class="cls-1" d="M14.77,83.87a49.17,49.17,0,1,1,76.7,0h5a53.13,53.13,0,1,0-86.61,0Z"/></g></g></svg>