<?xml version="1.0" encoding="utf-8"?>
<!-- Generator: Adobe Illustrator 24.3.0, SVG Export Plug-In . SVG Version: 6.00 Build 0)  -->
<svg version="1.1" id="Capa_2" xmlns="http://www.w3.org/2000/svg" xmlns:xlink="http://www.w3.org/1999/xlink" x="0px" y="0px"
	 viewBox="0 0 557.3 75.3" style="enable-background:new 0 0 557.3 75.3;" xml:space="preserve">
<style type="text/css">
	.st0{fill:#021D49;}
	.st1{fill:#FFFFFF;}
</style>
<g>
	<rect class="st0" width="557.3" height="75.3"/>
	<g>
		<rect x="17.7" y="15.3" class="st0" width="37.7" height="44.7"/>
		<path class="st1" d="M14.7,12.3V63h43.7V12.3H14.7z M39.8,24.4c-1.6,3.3-3.5,6.3-5.7,9.2c-2.2-2.6-4.6-5-7.3-7.1
			c1.9-3,3.5-6.1,4.8-9.4C34.6,19.2,37.3,21.7,39.8,24.4z M34.4,15.3h8.9c-0.6,2.1-1.3,4.1-2.1,6.1C39.1,19.2,36.8,17.2,34.4,15.3z
			 M32.1,35.9c-2.2,2.5-4.6,4.9-7.3,7c-2-2.2-4.1-4.3-6.4-6.1c2.4-2.4,4.7-5,6.7-7.8C27.7,31,30,33.4,32.1,35.9z M17.7,33.3v-9.6
			c1.8,1,3.5,2.1,5.1,3.4C21.2,29.3,19.5,31.4,17.7,33.3z M17.7,40c1.7,1.5,3.3,3,4.8,4.7c-1.5,1.1-3.1,2.1-4.8,3.1V40z M24.4,47
			c1.2,1.4,2.2,2.9,3.2,4.5c-3.1,1.9-6.5,3.6-10,4.8v-5.2C20,49.9,22.3,48.6,24.4,47z M26.8,45.2c2.6-2.1,5-4.4,7.2-6.9
			c1.3,1.7,2.4,3.5,3.5,5.4c-2.3,2.3-4.7,4.3-7.4,6.2C29.1,48.3,28,46.7,26.8,45.2z M36,36c2.2-2.8,4.2-5.9,5.9-9.1
			c1.5,1.9,2.9,3.8,4.1,5.8c-1.8,3.1-3.9,6-6.3,8.7C38.6,39.5,37.3,37.7,36,36z M43.4,23.9c1.2-2.7,2.2-5.6,3-8.5h6.1
			c-0.9,5.1-2.6,9.9-4.8,14.3C46.3,27.6,44.9,25.7,43.4,23.9z M29,15.3c-1.2,3.2-2.8,6.3-4.6,9.2c-2.1-1.6-4.4-3-6.8-4.3v-5H29z
			 M17.7,60v-0.4C36.8,53,51.5,36.5,55.3,16.2V60H17.7z"/>
	</g>
	<g>
		<path class="st1" d="M101.8,62.6c-4.6,0-8-1.2-10.5-3.1V38.4h17c5,0,9,4,9,9v-21c0,5-4,9-9,9h-17V15.7c3-0.2,7-0.5,11.3-0.5
			c13.7,0,19.1,5.5,22.7,11.2l-3-14.3H75.5c3.7,0,6.7,3,6.7,6.7v38.8c0,4.2-3.4,7.6-7.6,7.6H126l3-14.4
			C129,50.9,121.8,62.6,101.8,62.6z"/>
		<path class="st1" d="M140.8,59.2V12.1c-1.2,0.5-2.5,0.9-3.8,1.3c-0.3,0.1-0.7,0.2-1,0.3c-0.4,0.1-0.7,0.2-1.1,0.3
			c-0.3,0.1-0.7,0.1-1,0.2c-0.4,0.1-0.8,0.1-1.1,0.2c-1.3,0.2-2.6,0.4-4,0.4c2,0,3.6,1.6,3.6,3.6v40.8c0,3.3-2.7,6-6,6h20.6
			C143.5,65.2,140.8,62.5,140.8,59.2z"/>
		<path class="st1" d="M207.4,18.1c2.7,0,4.8-2.2,4.8-4.8c0-2.7-2.2-4.8-4.8-4.8c-2.7,0-4.8,2.2-4.8,4.8
			C202.6,16,204.8,18.1,207.4,18.1z"/>
		<path class="st1" d="M260.8,59.2V39c0-9.2-7.6-16.7-17-16.7c-6.9,0-12.9,4.1-15.5,10v-9.2c-1.2,0.5-2.5,0.9-3.8,1.3
			c-0.3,0.1-0.7,0.2-1,0.3c-0.4,0.1-0.7,0.2-1.1,0.3c-0.3,0.1-0.7,0.1-1,0.2c-0.4,0.1-0.8,0.1-1.1,0.2c-1.3,0.2-2.6,0.4-4,0.4
			c2,0,3.6,1.6,3.6,3.6v29.8c0,2.5-1.6,4.7-3.8,5.6c-2.2-0.9-3.8-3.1-3.8-5.6V23.1c-1.2,0.5-2.5,0.9-3.8,1.3c-0.3,0.1-0.7,0.2-1,0.3
			c-0.4,0.1-0.7,0.2-1.1,0.3c-0.3,0.1-0.7,0.1-1,0.2c-0.4,0.1-0.8,0.1-1.1,0.2c-1.2,0.2-2.4,0.3-3.6,0.4L198,14.1h-48.3
			c3.7,0,6.7,3,6.7,6.7v36.8c0,4.2-3.4,7.6-7.6,7.6h24.4c-4.2,0-7.6-3.4-7.6-7.6l0,0V39.9H184c5,0,9,4,9,9V28c0,5-4,9-9,9h-18.5
			V16.8c2.9-0.2,7-0.5,11.2-0.5c13.7,0,20.6,5.5,24.2,11.2l-0.4-1.7c1.8,0.2,3.2,1.7,3.2,3.6v29.8c0,3.3-2.7,6-6,6h16h4.5h16
			c-3.3,0-6-2.7-6-6V39.7c0-7.7,5.4-13.9,12-13.9c6.6,0,12,6.2,12,13.9v19.5c0,3.3-2.7,6-6,6h20.6C263.5,65.2,260.8,62.5,260.8,59.2
			z"/>
		<path class="st1" d="M351.6,59.2V39c0-9.2-7.6-16.7-17-16.7c-6.9,0-12.9,4.1-15.5,10v-9.2c-1.2,0.5-2.5,0.9-3.8,1.3
			c-0.3,0.1-0.7,0.2-1,0.3c-0.4,0.1-0.7,0.2-1.1,0.3c-0.3,0.1-0.7,0.1-1,0.2c-0.4,0.1-0.8,0.1-1.1,0.2c-1.3,0.2-2.6,0.4-4,0.4
			c2,0,3.6,1.6,3.6,3.6v29.8c0,2.8-1.9,5.2-4.5,5.8c-1.8-0.5-3.1-2.1-3.1-4.1V34.5c0-7.7-7.7-12.2-21.4-12.2
			c-6.6,0-12.5,1.7-16.4,4.4l3.2,9.6c0.6-6.8,6.2-12.1,13.1-12.1c7.3,0,13.2,5.9,13.2,13.2l0,1.9c-6.3-0.5-31.5-1.3-31.5,14.3
			c0,12.1,14,14,20.1,12.9c6-1.1,9.4-5,11.4-8.6l0,1.9c0,3,2.4,5.4,5.4,5.4h4.5h2.7h17.9c-3.3,0-6-2.7-6-6V39.7
			c0-7.7,5.4-13.9,12-13.9c6.6,0,12,6.2,12,13.9v19.5c0,3.3-2.7,6-6,6h20.6C354.3,65.2,351.6,62.5,351.6,59.2z M294.8,48.9
			c0,0,0.1,14.8-13.4,14.8c-6.1,0-8.6-5.9-8.6-9.9c0-3,0.6-11.9,22-12.2V48.9z"/>
		<path class="st1" d="M512.4,22.3c-12.9,0-23.4,9.9-23.4,22.1c0,12.2,10.5,22.1,23.4,22.1c12.9,0,23.4-9.9,23.4-22.1
			C535.8,32.2,525.3,22.3,512.4,22.3z M512.4,63.9c-7.9,0-14.3-8.7-14.3-19.5c0-10.8,6.4-19.5,14.3-19.5c7.9,0,14.3,8.7,14.3,19.5
			C526.7,55.2,520.3,63.9,512.4,63.9z"/>
		<path class="st1" d="M381,63.9c-8.4,0-15.3-8.7-15.3-19.5c0-10.8,6.8-19.5,15.3-19.5c6.6,0,12.2,5.4,14.3,12.8l2.9-9.8
			c-4.4-4.1-11.5-5.6-18.5-5.6c-12.9,0-23.4,9.9-23.4,22.1c0,12.2,10.5,22.1,23.4,22.1c9.1,0,15.5-5.3,18.8-12.6l-1.1-0.7
			C393.9,59.5,387.1,63.9,381,63.9z"/>
		<path class="st1" d="M413,59.2V23.1c-1.2,0.5-2.5,0.9-3.8,1.3c-0.3,0.1-0.7,0.2-1,0.3c-0.4,0.1-0.7,0.2-1.1,0.3
			c-0.3,0.1-0.7,0.1-1,0.2c-0.4,0.1-0.8,0.1-1.1,0.2c-1.3,0.2-2.6,0.4-4,0.4c2,0,3.6,1.6,3.6,3.6v29.8c0,3.3-2.7,6-6,6h20.6
			C415.7,65.2,413,62.5,413,59.2z"/>
		<path class="st1" d="M408.1,18.1c2.7,0,4.8-2.2,4.8-4.8c0-2.7-2.2-4.8-4.8-4.8c-2.7,0-4.8,2.2-4.8,4.8
			C403.3,16,405.5,18.1,408.1,18.1z"/>
		<path class="st1" d="M459.7,48c-4.2,12.4-12.6,16-19.8,16c-7.9,0-14.3-8.7-14.3-19.5c0-1.8,0.2-3.5,0.5-5.1h34.7
			c-1.5-9.8-8-16.9-20.9-16.9c-12.9,0-23.4,9.9-23.4,22.1c0,12.2,10.5,22.1,23.4,22.1c11.1,0,19.3-7.5,21.7-17.3L459.7,48z
			 M439.9,24.9c6.2,0,9.9,5.6,10.3,12.4h-23.7C428.7,30,433.8,24.9,439.9,24.9z"/>
		<path class="st1" d="M490.1,23.1c-6.8,0-12.7,4-15.4,9.8v-9.8c-1.2,0.5-2.5,0.9-3.8,1.3c-0.3,0.1-0.7,0.2-1,0.3
			c-0.4,0.1-0.7,0.2-1.1,0.3c-0.3,0.1-0.7,0.1-1,0.2c-0.4,0.1-0.8,0.1-1.1,0.2c-1.3,0.2-2.6,0.4-4,0.4c2,0,3.6,1.6,3.6,3.6v29.8
			c0,3.3-2.7,6-6,6h20.6c-3.3,0-6-2.7-6-6V38.8c0-4.1,3.3-7.4,7.4-7.4c1.8,0,3.4,0.6,4.6,1.7l3.8-9.9
			C490.4,23.1,490.3,23.1,490.1,23.1z"/>
	</g>
</g>
</svg>
