<?xml version="1.0" encoding="utf-8"?>
<!-- Generator: Adobe Illustrator 24.3.0, SVG Export Plug-In . SVG Version: 6.00 Build 0)  -->
<svg version="1.1" id="Layer_1" xmlns="http://www.w3.org/2000/svg" xmlns:xlink="http://www.w3.org/1999/xlink" x="0px" y="0px"
	 viewBox="0 0 483.4 337.8" style="enable-background:new 0 0 483.4 337.8;" xml:space="preserve">
<style type="text/css">
	.st0{fill-rule:evenodd;clip-rule:evenodd;fill:#1C2545;}
	.st1{fill:#FFFFFF;}
	.st2{fill-rule:evenodd;clip-rule:evenodd;fill:#FFFFFF;}
	.st3{fill:#1C2545;}
</style>
<g>
	<path class="st0" d="M149.4,139.5c0,0-8.9,1.4-28.2,1.4c-19.3,0-29.7,0-29.7,0s-13.5-0.6-25.1-4.3c-0.3,0-5.5-2-5.5,2.6
		c0,4.2,9.4,31.5,37.8,31.5c10.8,13.4,23.9,19.9,39.5,19.4c6.4,8.4,14.1,12.3,23.3,11.5c5.4,8.3,12,11.7,19.9,10.3
		c0,0,2,5.1,7.1,4.6c1.6,1.3,3.9,4.4,3.9,4.4s-29.4-0.9-57.7,19.6c-0.5,0.9,1.9,8.7,13.6,8.7c0,0,4.3-0.5,4.8,2.5
		c0.3,2.2,0.7,3.8,1.1,4.8c3.1,7.7,15.9,7.5,16.1,7.5c0.2,0,5.1,8.6,15.4,8.6c9.7,0,16.9,0,16.9,0s11.5,0.8,15.2-13.6
		c2.6-10.2,4.6-15.4,11.1-15.4c1.7,0,2.7,2.3,3.8,2.7c1.1,0.5,2.4,1.9,1.4,3.1c-0.9,1.3-1.3,1.3-1.3,3.1c0,1.9,0,7,0,7
		s-1.3,8.7,10,8.7c5.6,0,13.7,0,13.7,0s0.2,0.9,2.6,1.4c2.4,0.5,5.5,0,5.5,0s-0.1,3.6,2.2,3.6c2.3,0,2.6,0,2.6,0s1.4,0.5,3.1-1.9
		s4.1-4.5,4.2-7.3c0.2,0,1.9,1.2,1.9-3.6c0-0.2,4.3,0.6,4.3-5.7c0-2-0.8-4.7-6-4.7c0-0.5-1.4-2.8,4.6-4.2c6-1.5,17.1-2.6,21-4
		c3.9-1.4,12-6.1,26.2-6.1c14.2,0,33.2,0,33.2,0s12.2,0.5,12.2-8.4c0-3.8,0.2-5.7-4.2-9c-4.4-3.3-4.6-2.9-8.4-7.6
		c-3.8-4.7-6.5-6-7.9-6.8c-1.4-0.8-8.9-3.5-10.6-4.8c-1.7-1.3-4.2,0-4.2,0s1.5-3.3,6.2-4.2c3.8-0.9,13.6-3.6,16.7-9.5
		c0.2,0.2,15.1,2.5,31-11.2c1.3,0.3,10.1,2.4,18.8-10.8c1.9,0.2,21-1.9,25.9-21.3c0-2.5,0.4-7.1-4.9-7.1c-5.2,0-45.2-0.9-45.2-0.9
		h-29.6c0,0-10.3-0.3-15.7,2.5c3.8-10.7,5.7-22,5.7-34C347.7,46,301.7,0,245,0c-56.7,0-102.7,46-102.7,102.7
		C142.4,115.5,145.1,128.2,149.4,139.5L149.4,139.5z"/>
	<path class="st1" d="M154.5,133.7c-2.4-8.9-3.7-18.3-3.7-28.1c0-9.2,1.1-18.1,3.2-26.4C152.6,101.8,152.7,119.9,154.5,133.7
		L154.5,133.7z"/>
	<polygon class="st1" points="191.6,42.5 178,54.4 184.2,60.8 191.6,42.5 	"/>
	<path class="st1" d="M213.8,26.5c-4.1-7.3,6.3-11.7,16.7-13.9c10.4-2.2,19.8,0.4,20.9,5.9c1.2,5.5-6.3,11.7-16.7,13.9
		C224.4,34.6,216.5,31.4,213.8,26.5L213.8,26.5z"/>
	<path class="st1" d="M174.9,52.1l0.1-9.9c7-7.7,15.4-14.7,24.7-20.3c2.4-0.8,4.6-1.5,5.5-1.8c2.4-0.7,2.7,1.5,2.4,1.7
		c-1.6,3.8-4,5-4,5C192.3,31.5,174.9,52.1,174.9,52.1L174.9,52.1z"/>
	<path class="st1" d="M173.3,54.3c-5.6,6.6-10.7,15.3-16.2,27.8c-0.8-2-1.5-4-2.1-6.2c3.2-10.8,9.8-21.9,18.5-31.9L173.3,54.3
		L173.3,54.3z"/>
	<path class="st1" d="M166.3,95.2c-3-2.8-5.7-6.1-7.8-9.9c3.9-10.8,9.2-20.3,15.9-28.6l7,7.2C174.7,72.2,168.4,86,166.3,95.2
		L166.3,95.2z"/>
	<path class="st1" d="M191.5,108.4c-3.1-0.9-20-10.6-20-10.6c3.5-12.2,8-21.4,13.6-27.5L195,83C192.5,93.9,191.3,102.4,191.5,108.4
		L191.5,108.4z"/>
	<path class="st1" d="M212.5,112.3c-5.3-0.6-10.9-1.4-16.5-2.7c0.6-12.8,4.7-20.6,5.1-21.6c0.5-1.1,1.2-1.7,2.1-1.6
		c1.3,0.1,1.4,2.3,1.4,3.4c0,1.1,0,2.1-0.6,2.1c-1.2,0-1,2.4-1,2.4s-0.1,1.3-0.1,4C202.9,102.2,209.3,109.1,212.5,112.3L212.5,112.3
		z"/>
	<path class="st1" d="M267.6,109c-8.5,2.3-17.5,3.7-26.7,4.2c0.2-1.8,0.8-3.6,1.9-5.4c2.8-4.3,3.1-3.2,4.3-2.9
		c1.2,0.3,3,0.7,4.3,0.7c1.3,0,3.4-0.7,4.1-2.2c0.7-1.5,4.6-3.5,7.8,0.6C264.7,105.8,266.3,107.4,267.6,109L267.6,109z"/>
	<path class="st1" d="M270.7,113.1l-0.1,5.8c0,0-4.4-2.7-8.2,0.6c0.4,0.4,11.2,5.6,11.2,8.1v9c0,0-2.3,1.5-7.7,1.5
		c-1,0-3.8,0.6-3.8-5c0-5.6-1.6-5.6-1.6-5.6s-3.8-0.1-3.8-3.1v-5H253c-1.6,3.7-3.7,5.5-7.4,5.5c-2.2,0-4.7-2-4.7-5.2
		c0-0.4,0-0.9-0.1-1.5L270.7,113.1L270.7,113.1z"/>
	<path class="st1" d="M273,111.4c12.8-5.2,23.1-10.7,30.7-16.5c3.8,8.1,7.3,16.8,10.3,26.2c-2.3-10-5.1-19.2-8.4-27.6
		c4.9-4,8.6-8.1,11.1-12.4c-3.4,3.8-7.4,7.4-11.8,10.6c-4.5-11-9.8-20.6-16.1-29c3.1,0.6,8.3,0.7,8.3-3.9l0-6.9
		c-5.5-3-3.8-3.3-7-4.1c-0.6-0.1-1.3-0.3-2.4-0.5c-1-0.2-2.2-0.4-3.7-0.7c-0.7-0.1-1.2-0.3-1.5-0.4c-0.6-0.4-0.7-0.9-0.4-1.4
		c0.6-0.9,2.2-2,2.9-3.4c0.5-0.6,0.7-1.2,0.3-1.6c-0.2-1.3-12.6-2.7-14.8-2.3c-0.9,0.2-1.8,1.6-1.5,3.6l-0.4-0.3l-1.2-0.9l-3.6-2.8
		l-5.4-4.2c0.1-0.4,0.2-0.6,0.3-0.8c0.5-0.6,1.6-1,2.6-1.4c0.5-0.1,1-0.2,1.4-0.4c1.5-0.4,2-0.8,2-1.3c0.1-0.2,0-0.3-0.2-0.5
		c-0.7-0.9-2.9-1.9-3.5-3.1c33,11.5,54.8,30,65.4,55.5c-6.4-21.1-22.9-38.6-49.4-52.6l0.6-5.5c16.6,4.2,31.8,15.6,45.6,34.1
		c-15.3-24.4-35.6-37.9-60.6-40.6c-3.9-1.4-3.5-3.1-12-5.7c-1.1-0.8-4.1-1.6-2.5-1.8c5.3-0.6,11,0.7,14,1.6
		c6.1,1.4,12.5,3.1,17.8,4.4c34.2,14.2,58.2,49,58.2,89c0,23.3-8.2,44.7-21.8,61.3c0,0-1.7-5.4,3.4-21.6c0.8-2.5,1.5-4.4-0.3-5.2
		c-1.8-0.8-3.1,0.1-4.9,1.7c-2.7,2.4-7.1,6.2-10.8,6.2c-0.8,0-3.4,0.3-7.6-1.5c-0.2,0,16.6-6.1,28.6-20.8
		c0.3-0.3-25.2,18.6-30.1,18.6c-1.7,0-2.6,0.4-5.3-1.1c-1.6-1-1.4-0.9-2.6-0.9H279c0,0-2.2,0.3-2.8-3.5c-0.1-0.2-0.3-1.4-0.3-4.5
		v-8.2c0,0,3.1,2.5,6.5,2.5c1.8,0,2.4-2.4,0.8-4c-1.5-1.7-3.2-2.9-4.2-3.5c-1-0.7-3.5-0.5-5.9-0.5V111.4L273,111.4z"/>
	<path class="st1" d="M302.9,93.1c-9,6.3-19.8,11.4-31.6,14.9c-0.7-1.7-0.8-3.7-0.2-5.4c0.4-0.8,1-1.6,1.7-2.3
		c0.1-0.1,0.3-0.2,0.4-0.3c4.1-2.7,9-5.2,9-5.2c3.8,1.5,3-7.3,3-8.4c-0.4-1.6-0.9-3.1-1.6-4.7c-1.4-3.1-0.9-4.5,0.2-4.9
		c0.1,0,0.3,0,0.4,0c0.7,0,1.4,0,2.1,0.2c0.6,0.2,1.1,0.6,1.4,0.9l0.2,0.3c1.8,2.3,4.6-0.7,5.5-2C296.8,81.5,300,87.1,302.9,93.1
		L302.9,93.1z"/>
	<path class="st1" d="M247.3,38.1c0.9,1.9,1.8,1.3,1.5,3.3c-0.3,2-0.6,3-1.1,3.1c-0.6,0.1-4.4,2.1-1.3,4.5c3.1,2.3,8.3,5.5,8.3,5.5
		s2.3,0.9,2.6-2.6c0.3-3.5,3.4-3.1,4-3c0.6,0.2,8.1-0.1,3.9-4.1c-4.2-4-11.9-10-12.3-10.2C249.6,32.9,246.3,35.2,247.3,38.1
		L247.3,38.1z"/>
	<path class="st2" d="M208.8,244.1c-6.9,7.4-16.4,13.1-28.5,17.1C198.2,262,207.7,256.3,208.8,244.1L208.8,244.1z"/>
	<path class="st2" d="M191.1,263.7c8.7-0.1,16.1-4.5,22.2-13.2C210.9,263.3,203.6,267.6,191.1,263.7L191.1,263.7z"/>
	<path class="st2" d="M240.8,248c-1.7,7.6,0.7,12.7,7.1,15.1C236.6,264.3,234.2,259.3,240.8,248L240.8,248z"/>
	<path class="st2" d="M256.1,256.2c0,0,10.2-7.1,11.2-7.9c0.9-0.8,2.8-3.1,0.1-5.6c-2.7-2.6-5.2-4.6-5.2-4.6s2.4,4.6,0.8,7.4
		C262.3,246.7,256.1,256.2,256.1,256.2L256.1,256.2z"/>
	<path class="st3" d="M0,336.6v-1.5c1.8-0.1,3.1-0.3,3.9-0.7c1.2-0.6,1.8-1.7,1.8-3.4v-28.2c0-1.7-0.6-2.9-1.8-3.4
		c-0.7-0.4-2-0.6-3.8-0.7v-1.5h36.5V309h-1.5c-0.8-3.8-2.2-6.3-4.1-7.7c-1.9-1.4-5.4-2.1-10.5-2.1c-1.9,0-3.2,0.2-3.7,0.6
		c-0.5,0.4-0.8,1.1-0.8,2.2v13.5c3.6,0,9.1-0.6,10.4-1.8c1.3-1.3,2.3-3.5,2.9-6.8h1.6v19.7h-1.6c-0.5-3.3-1.4-5.6-2.8-7
		c-1.4-1.4-7-2-10.6-2v14.1c0,1.2,0.3,2.1,1,2.5c0.7,0.4,2.1,0.7,4.3,0.7c4,0,7.3-0.7,9.9-2.2c2.6-1.4,4.8-4.1,6.8-8.1h1.8L37,336.6
		H0L0,336.6z"/>
	<path class="st3" d="M47.8,335.1c1.6-0.1,2.7-0.3,3.4-0.6c1.2-0.6,1.7-1.8,1.7-3.5v-28.2c0-1.7-0.5-2.9-1.6-3.4
		c-0.6-0.4-1.8-0.6-3.5-0.7v-1.5h20.4v1.5c-2.4,0.1-4,0.4-4.7,1c-0.8,0.6-1.2,2-1.2,4.3v27.5c0,1.3,0.3,2.1,1,2.6
		c0.7,0.4,2,0.6,4,0.6c3.5,0,6.4-0.8,8.8-2.3c2.4-1.6,4.4-4.6,6.2-9h1.7l-2.4,13.2H47.8V335.1L47.8,335.1z"/>
	<path class="st3" d="M125.3,297.3v1.5c-2.5,0.1-4.2,0.4-5.1,1.1c-0.9,0.6-1.3,2.1-1.3,4.3v19.5c0,3,0.4,5.2,1.2,6.9
		c1.4,3,4.2,4.5,8.2,4.5c5,0,8.4-1.7,10.2-5c1-1.8,1.5-4.4,1.5-7.6v-17.8c0-2.1-0.4-3.5-1.3-4.3c-0.9-0.8-2.5-1.3-5-1.5v-1.5H148
		v1.5c-2.1,0.4-3.5,0.8-4.1,1.3c-0.7,0.5-1,1.7-1,3.6v18.6c0,4.9-1.3,8.8-4,11.5c-2.7,2.7-6.9,4-12.6,4c-7.5,0-12.6-2-15.4-6
		c-1.5-2.1-2.2-4.9-2.2-8.2v-19.5c0-2.2-0.3-3.6-1-4.2c-0.6-0.6-2.1-1-4.4-1.2v-1.5H125.3L125.3,297.3z"/>
	<path class="st3" d="M152.9,335.1c2.7-0.1,4.5-0.5,5.3-1.2c0.8-0.8,1.2-1.9,1.2-3.4v-27.6c-2.3-2-3.6-3.2-4.2-3.5
		c-0.5-0.4-1.2-0.6-2.2-0.7v-1.5h15.6l25.3,24.5h0.4v-17.3c0-2-0.5-3.4-1.4-4.2c-0.9-0.9-2.7-1.4-5.5-1.5v-1.5h15.8v1.5
		c-2.3,0.3-3.8,0.7-4.6,1.2c-0.8,0.5-1.2,1.7-1.2,3.4v34.3h-2l-32.4-31.1h-0.5v22.9c0,1.8,0.3,3,0.9,3.8c1,1.2,3,1.8,6,1.9v1.5
		h-16.7V335.1L152.9,335.1z"/>
	<path class="st3" d="M207.4,335.1c1.6,0,2.8-0.2,3.6-0.6c1.2-0.6,1.8-1.8,1.8-3.5v-28.2c0-1.7-0.6-2.9-1.7-3.5
		c-0.7-0.4-1.9-0.6-3.6-0.7v-1.5h20.4v1.5c-1.8,0.1-3.1,0.3-3.8,0.6c-1.1,0.6-1.7,1.8-1.7,3.5V331c0,1.6,0.5,2.7,1.4,3.3
		c0.9,0.6,2.3,0.8,4.1,0.8v1.5h-20.4V335.1L207.4,335.1z"/>
	<path class="st3" d="M252.2,297.3v1.5c-2.1,0.1-3.4,0.3-4.1,0.5c-0.6,0.2-0.9,0.8-0.9,1.8c0,0.3,0,0.6,0.1,0.9
		c0.1,0.2,0.2,0.5,0.3,0.8l8.8,21.5h0.3l7.6-19.7c0.2-0.4,0.3-0.9,0.5-1.3c0.2-0.7,0.3-1.3,0.3-1.8c0-1.1-0.3-1.8-1-2
		c-0.6-0.3-2-0.5-4-0.6v-1.5h12.4v1.4c-1.4,0.2-2.5,0.6-3.2,1.2c-0.7,0.7-1.4,1.8-2,3.5L254,337.7h-1.5l-15-34.9
		c-0.6-1.4-1.2-2.4-1.9-3c-0.6-0.6-1.6-1-3-1.1v-1.4H252.2L252.2,297.3z"/>
	<path class="st3" d="M277.2,336.6v-1.5c1.9-0.1,3.2-0.3,4-0.7c1.2-0.6,1.8-1.7,1.8-3.4v-28.2c0-1.7-0.6-2.9-1.9-3.4
		c-0.7-0.4-2-0.6-4-0.7v-1.5h37.9V309h-1.6c-0.8-3.8-2.3-6.3-4.3-7.7c-2-1.4-5.6-2.1-10.9-2.1c-2,0-3.3,0.2-3.9,0.6
		c-0.5,0.4-0.8,1.1-0.8,2.2v13.5c3.8,0,9.2-0.6,10.5-1.8c1.3-1.3,2.3-3.5,3.1-6.8h1.7v19.7h-1.7c-0.5-3.3-1.4-5.6-2.9-7
		c-1.4-1.4-6.9-2-10.7-2v14.1c0,1.2,0.4,2.1,1.1,2.5c0.7,0.4,2.2,0.7,4.4,0.7c4.2,0,7.6-0.7,10.3-2.2c2.7-1.4,5-4.1,7.1-8.1h1.8
		l-2.7,12.1H277.2L277.2,336.6z"/>
	<path class="st0" d="M325.3,335.1c2-0.1,3.3-0.5,4-1.1c0.7-0.6,1.1-2,1.1-4.2v-25.7c0-2.3-0.4-3.7-1.3-4.4
		c-0.6-0.5-1.8-0.8-3.8-0.9v-1.5H344c3.9,0,7,0.4,9.4,1.2c4.7,1.6,7,4.6,7,8.9c0,3.2-1.2,5.7-3.5,7.5c-1.8,1.4-3.7,2.2-5.7,2.6
		L363,334c0.3,0.5,0.7,0.8,1,0.9c0.4,0.1,0.8,0.2,1.3,0.3v1.4h-11.9l-12.1-18.2h-1.5v11.4c0,2,0.3,3.4,1,4.2c0.7,0.7,2,1.1,4.1,1.2
		v1.5h-19.7V335.1L325.3,335.1z M348,314.9c1.7-1,2.5-3.4,2.5-7.1c0-2.3-0.3-4-0.9-5.3c-1.1-2.2-3.1-3.3-5.9-3.3
		c-1.6,0-2.6,0.2-3.1,0.6c-0.5,0.4-0.7,1-0.7,1.9v14.8C343.7,316.5,346.4,315.9,348,314.9L348,314.9z"/>
	<path class="st3" d="M368.2,323h1.7c0.9,4.3,2.5,7.5,4.6,9.5c2.1,2,4.5,3,7.3,3c2.7,0,4.5-0.7,5.7-2c1.1-1.4,1.7-2.8,1.7-4.3
		c0-1.7-0.6-3.2-1.8-4.3c-0.8-0.7-2.3-1.7-4.7-2.8l-3.8-1.9c-3.8-1.9-6.4-3.7-7.9-5.5c-1.5-1.8-2.3-4.1-2.3-6.7c0-2.8,1-5.5,3-8
		c2-2.5,5.2-3.7,9.4-3.7c2.1,0,4.2,0.3,6.2,1c2,0.6,3.2,1,3.4,1c0.6,0,1.1-0.2,1.3-0.5c0.2-0.4,0.4-0.9,0.6-1.5h1.7v12.7h-1.6
		c-0.8-2.9-2.2-5.5-4.1-7.6c-2-2.1-4.3-3.2-7.1-3.2c-2,0-3.5,0.5-4.7,1.6c-1.1,1.1-1.7,2.4-1.7,3.9c0,1.8,0.5,3.2,1.6,4.1
		c1.1,0.9,3.4,2.3,7.1,4.1l4.4,2.2c2,1,3.5,2,4.7,3.2c2.2,2.2,3.2,4.9,3.2,8c0,2.9-1.2,5.7-3.5,8.3c-2.3,2.6-6,3.9-11.1,3.9
		c-1.2,0-2.4-0.1-3.6-0.3c-1.2-0.2-2.4-0.5-3.6-1l-1.1-0.4c-0.3-0.1-0.5-0.1-0.8-0.2c-0.2-0.1-0.5-0.1-0.6-0.1c-0.6,0-1,0.2-1.2,0.5
		c-0.2,0.3-0.4,0.8-0.6,1.5h-1.7V323L368.2,323z"/>
	<path class="st0" d="M422.9,322.9l-5.9-13.5h-0.5l-5.5,13.5H422.9L422.9,322.9z M399.9,335.1c1.5-0.1,2.7-0.7,3.6-1.9
		c0.6-0.7,1.4-2.4,2.5-4.9l13.6-31.9h1.7L435,327c1.5,3.4,2.7,5.6,3.4,6.7c0.8,1,1.8,1.5,3.2,1.4v1.5h-19.9v-1.5
		c2-0.1,3.3-0.2,3.9-0.5c0.6-0.2,1-0.9,1-1.9c0-0.5-0.2-1.1-0.5-2.1c-0.2-0.5-0.5-1.2-0.8-2l-1.6-3.5H410c-0.9,2.3-1.5,3.8-1.7,4.5
		c-0.5,1.5-0.8,2.6-0.8,3.3c0,0.8,0.6,1.4,1.8,1.8c0.7,0.2,1.8,0.3,3.1,0.3v1.5h-12.5V335.1L399.9,335.1z"/>
	<path class="st3" d="M444.9,335.1c1.7-0.1,2.9-0.3,3.6-0.6c1.2-0.6,1.9-1.8,1.9-3.5v-28.2c0-1.7-0.6-2.9-1.8-3.4
		c-0.7-0.4-1.9-0.6-3.7-0.7v-1.5h21.7v1.5c-2.5,0.1-4.2,0.4-5.1,1c-0.8,0.6-1.2,2-1.2,4.3v27.5c0,1.3,0.4,2.1,1.1,2.6
		c0.7,0.4,2.1,0.6,4.2,0.6c3.7,0,6.9-0.8,9.4-2.3c2.5-1.6,4.7-4.6,6.6-9h1.8l-2.5,13.2h-35.9V335.1L444.9,335.1z"/>
	<path class="st1" d="M157.3,90.6c2.1,3.6,4.7,7,7.9,10c-0.6,3.1-1.1,6.3-1.5,9.5c-2,0.9-3.8,2-5.5,3.4c1.8,0,3.6-0.3,5.3-0.7
		c-0.2,2.5-0.4,5-0.4,7.6c-1,0.7-1.9,1.5-2.8,2.3c0.9-0.1,1.9-0.3,2.8-0.5c0,2.3,0,4.6,0.1,6.9l-1.6,0.8c0.5,0.1,1,0.2,1.6,0.2
		c0.1,3.3,0.4,6.7,0.8,10.1c-3.3-0.5-9.1-2.4-9.1-17.6C154.9,108.4,157.3,90.6,157.3,90.6L157.3,90.6z"/>
	<path class="st1" d="M168.2,103.2c5.7,4.6,12.9,8.3,21.6,11.2c0,2.1-0.1,5.2-0.1,8.5l-21.1,12.2l21.2-6.5c0,1.5,0,3,0.1,4.4
		l-12.9,7l13.1-1.8c0.1,1.4,0.2,2.7,0.3,3.8c-9.3-0.6-18.8-1.3-22.9-1.6c-0.4-3.7-0.7-7.3-0.9-10.9c4.5-1.1,19.1-11.7,19.1-11.7
		l-19.2,9.5c-0.1-2.1-0.1-4.1,0-6.2c4.9-1.6,9.4-4.1,13.7-7.7c-5.1,0.8-9.6,2.3-13.6,4.6c0.1-2.3,0.3-4.5,0.5-6.7
		c1.7-0.9,3.4-2,5-3.3c-1.6,0.1-3.2,0.4-4.7,0.8C167.6,107,167.9,105.1,168.2,103.2L168.2,103.2z"/>
	<path class="st1" d="M195.2,116c4.4,1.2,9.1,2.2,14.1,3.1c9.7,1.1,11.8,3.6,11.8,3.6V120h3.1l3.4,4.4v13.1c0,0-5.3,4.9-13.3,5.5
		l10.5-10.5l-24,10.1l15.8-12.8l-20.2,9.4v-3.8l10.4-9.5l-11.5,4.5v-3.9l5.4-3.1l-5.4-1.1V116L195.2,116z"/>
	<path class="st2" d="M231.8,225.2c-5.3,0.8-11.8,1.4-19.3,1.9c7.4,1.9,19.4,2.5,19.3,2.5c-4.2,3.3-28.2,3.7-28.2,3.7v2.1h16
		c0.8,0,0.9,1.7,0,1.7c-9.6,0-21.6,11.2-25.8,13.4c-4.2,2.2-8.9,7.3-18,7.3c-8,0-9.1-3.4-8.8-3.4c12.1,0,30-12,33.2-14.2
		c3.2-2.2-1-1.7-3.3-0.6c-3.7,1.5-21.6,11-28.9,11c-7.8,0-10.5-2.1-10.2-2.4c16.9-4,34.9-15.1,34.9-15.1s-32,8.1-38.6,10.2
		c-6.7,2.1-7.3-1.7-7.3-1.7c18-8.7,35.3-14.2,52-16.5L231.8,225.2L231.8,225.2z M320.5,225.2c-1,1.4-4.3,2.4-6.2,2.4
		c-3.5,0-3.7-0.8-3.3-1c0.4-0.5,0.7-1,1-1.4L320.5,225.2L320.5,225.2z M368.3,225.2c0.1,0.8,0.1,1.6,0,2.5H359
		c-5.9,0-11.4,2.7-11.4,2.7h-6.2c-4,0-4.9-2.3-1.1-4.4h-8.4c-2.1,0-3.1-0.4-3.7-0.9L368.3,225.2L368.3,225.2z"/>
	<path class="st2" d="M198.6,225.2c2.6-0.4,5.1-0.6,7.6-0.8c1.5-0.2,1.7-1.4,0-1.8c-6.4-1.8-9-8.1-9.4-8.4
		c-10.8-2.7-10.8-8.6-10.3-8.4c-14.3-1-20.5-12.1-20.4-12.1c-22.6-1.4-22.2-11.4-22.2-11.4c-31.6,2.4-37.9-16.8-38.5-17.4
		c-23.1,0-32.1-17.8-32.1-17.8l147.5,3c0,0,17.5-0.2,23.2,11.1c5.5,10.8,21.5,44.3,48,44.3c0,0-1.8-2.4-7.6-4
		c-0.6-0.2-0.5-2.2,0.8-2.2c8.5,0,38-32.3,48.2-45.5c5-5.7,3.9-9.2,37.5-9.2h55.8c0,0-3.9,13.9-24.2,12.6
		c-0.5,3.2-5.5,10.2-12.3,10.2c0,0-6.9,10.2-30.2,10.2c-6.5,5.7-19.3,12.8-30.6,12.8c-1.5,0-1.7-1.5-4.9-1.5l5.7-1.5l-4-3.8
		c2.4,0,10.4-0.5,9.7-0.6c-0.8-0.1-2.9-3.2-2.9-3.2c6.1,0.7,10.8,0.3,14.2-1.2c-6.1-1.1-10.2-3-12.3-5.9c22.2,0.4,33.9-2.7,36.5-4.2
		h-32.1c2.7-2,7.7-2.7,26.5-2.7c18.8,0,23-5.5,23-5.5s-41.7,0.3-41.6,0c6-4.9,13.5-5,32-5c18.5,0,34.2-5.8,34.2-5.8h-43.7
		c-14.4,0-25.5,1.8-29.8,8c-12.4,16.7-26.1,30.6-41.2,41.7c-0.5,0.1,19.1,3,27.9,6.2c2.5,0.9,2.7-3,2.7-3c2.6,4,5.2,5.8,7.8,5.4
		c-0.6-2.4,0.9-4.3,0.9-4.3s4.9,5.1,11.3,5.8c4.1,0.4,5,3,5,3c1.2,2.9,2.5,4.3,5,5.2c5.4,1.8,8.4,4.5,8.9,7.9l-40.1,0
		c-1-1,0.4-2.7,0.9-3.2c0.7-0.7,1.1-1.4,0.3-1.6c-1.1-0.3-8.4-1.5-8.2-1.6c3.4-0.9,10-4.5,10-4.5h-7.7c-3,0-3.6-1.2-3.6-1.7
		c0-0.5-0.1-0.7,0.6-1c0.7-0.3,0.3-1.3-0.4-1.3c-5.4,0-5.6,0.9-5.6,2.9c0,1.8,4.3,2.6,4.5,2.8c0,1.4-0.3,1.8-1.5,1.4
		c-3.3-1.5-0.7,4.6,2,6c0.6,0.3,1.5,0.8,1.4,1.3c-0.1,0.2-0.1,0.3-0.3,0.5l-8.5,0c0.5-0.9,0.6-1.7,0-1.7c-1.2,0.3-6.9,0.9-8.2-0.4
		c2.5-0.8,5.4-3.4,5.4-3.4c-8.2,1.2-12.9,1-13.9-0.5c0,0,13.5-3.5,2.1-3.5c-7.4,0-8.4-1.5-8.4-1.5h3c2.3,0,1.9-0.6,2-0.7
		c-3.9-2.2-8.6-1.9-8.6-1.9c-15.5,0-32.8-15.5-45.5-41.7c-4-8.4-13.3-12.7-27.9-13.1l-121.7-2.7c18.6,8.8,54.5,13.4,107.7,13.8
		c0,0-10.1,2-26.4,2c-2.3,0-2.6,1.9-1.1,2.8c7.8,3.4,20.9,5.5,39.3,6.4c-9.6,0-22.2,3.8-22.2,3.8c8.3,3.3,21.1,5.1,38.2,5.5
		c-13.2,1.3-21.6,3.2-25.2,5.8c14.3-0.1,25.6,0.7,34.1,2.4l-22,4.2c15.3,0.9,25.4,2.2,30.2,3.9c-9.7,0.2-17.5,1.1-23.4,2.8
		c20.4,0.8,31.2,2.3,32.3,4.5c-10.9-0.6-18.9,0.2-23.9,2.2c6.7-0.2,26,0.9,28.9,6.4c-5.7-1.3-19.1-0.7-23-0.7
		c2.5,2.5,7.7,3.6,6.7,3.6c-2.4,0.7-5.3,1.2-8.5,1.7L198.6,225.2L198.6,225.2z M335.1,213.3c0,0,11.7,2.2,13.7,2.7
		c2.6,0.7,4.7,1.7,2.4,3.5c-2.2,1.8-4.1,2.6-6.1,1.5C343.2,219.9,335.1,213.3,335.1,213.3L335.1,213.3z M113.7,166.8
		c0,0,12.6,3.5,21.6,3.5h20.8c0,0,1.9,5.8,9.3,6.9c7.4,1.1,12.4,1,15.6,3c-10.9,1-25.2,0.2-42.7-2.2
		C127.4,176.1,119.2,172.3,113.7,166.8L113.7,166.8z M152.8,184c0,0,20.2-0.9,24.9,0.8c4.7,1.7,15.5,5.7,15.5,5.7h-20.8
		C163,190.4,156.5,188.2,152.8,184L152.8,184z M173.3,195.1c0,0,17.5-0.8,21.5,0.7c4.1,1.5,13.4,5,13.4,5h-18.1
		C182.2,200.7,176.6,198.8,173.3,195.1L173.3,195.1z M192.1,205.3c0,0,15.7-0.6,18.6,0.5c2.9,1,6,3.4,6,3.4H204
		C198.4,209.1,194.4,207.8,192.1,205.3L192.1,205.3z M202.5,213.5c0,0,8.6-0.7,10.8-1.3c2.1-0.7,3.8-1.5,5.9,0c2.2,1.5,5,3.1,5,3.1
		s-3.2-0.1-6.2,0.9c-3,1.1-4.3,1.1-6.7,1.1C205.4,217.3,202.5,213.5,202.5,213.5L202.5,213.5z M211,220.5c2.8,0,4,0.1,8.5-0.9
		c4.4-1.1,7.5-0.1,9.8,2.3c0.5,0.1-3.1,1.2-6.9,1.2h-7.8C214.6,223.1,211.4,222.6,211,220.5L211,220.5z"/>
	<path class="st1" d="M258.9,263.7c1.2-1,9.4-6.6,11.6-6.9c2.2-0.3,3.7-0.5,3.5,1.3c-0.2,1.8-2.1,4.9-2.8,6.5
		c-0.5,1-1.9,3.9-2.9,4.1c-1,0.2-2.2-0.8-2.2-0.8s1.7-2,1.5-3.2c-0.1-1-0.8-1.6-2.7-2c-2.4-0.5-2,3.7-2.7,3.4
		C261.6,265.8,258.9,263.7,258.9,263.7L258.9,263.7z"/>
	<path class="st2" d="M233.4,127.3v7.7h4l-4.5,4.7c0,0,8.6-3.9,11.8-2.9c0,0.3-8.4,9.6-8.4,9.6s12.4-7.2,15.1-6.7
		c0.2,0.2-9.1,9.6-9.1,9.6s10.9-5.7,17.8-5.7c0.5,0.5-7.9,5.7-9.6,10.6c-0.7,0.2,13.3-7.1,16-7.2l-11.4,13.3l2,3.3
		c0,0,14.8-14.5,16.6-18.1c1.5-3.1,0.1-5.6-3.8-4.9c-3.4,0.5-2.7,3.6-7.4,0.7c-4.7-2.9-6-4.6-8.9-8.5c-3-3.9-4.8-6.6-9.4-5.2
		c-4.7,1.3-4.6,1.9-5.7,1.6C237.3,128.7,233.4,127.3,233.4,127.3L233.4,127.3z"/>
	<path class="st1" d="M258.4,168c7.6-3.1,14.2-6.9,19.7-11.6c-3.1,6.3-9,11.1-17.6,14.4L258.4,168L258.4,168z"/>
	<path class="st1" d="M262.2,173.8c7.6-3.1,33.6-21.9,39.1-26.5c-5.6,8.2-27.7,26.9-36.3,30.2L262.2,173.8L262.2,173.8z"/>
	<path class="st1" d="M267,181.3c7.6-3.1,14.2-6.9,19.7-11.6c-3.1,6.3-9,11.1-17.6,14.4L267,181.3L267,181.3z"/>
	<path class="st1" d="M271.4,187.6c7.6-3.1,12.3-5.5,17.8-10.2c-3.1,6.3-7.1,9.7-15.7,12.9L271.4,187.6L271.4,187.6z"/>
	<path class="st1" d="M275.2,192.9c7.6-3.1,9.6-4.3,15.1-8.9c-3.1,6.3-4.4,8.4-13,11.7L275.2,192.9L275.2,192.9z"/>
</g>
</svg>
