<?xml version="1.0" encoding="utf-8"?>
<!-- Generator: Adobe Illustrator 24.3.0, SVG Export Plug-In . SVG Version: 6.00 Build 0)  -->
<svg version="1.1" id="Layer_1" xmlns="http://www.w3.org/2000/svg" xmlns:xlink="http://www.w3.org/1999/xlink" x="0px" y="0px"
	 viewBox="0 0 222.9 81.4" style="enable-background:new 0 0 222.9 81.4;" xml:space="preserve">
<style type="text/css">
	.st0{fill:#021D49;}
</style>
<g>
	<polygon class="st0" points="149.9,66.5 154.8,66.5 152.4,60.1 	"/>
	<path class="st0" d="M141.7,59.7h-2.6l0.1,1.4v4.4h0v0h2.4c1.8,0,3-0.9,3-2.9C144.7,60.5,143.5,59.7,141.7,59.7z"/>
	<path class="st0" d="M107.8,53v23.2h114.8V53H107.8z M122.7,71.7H113V59.1l-0.1-1.2h9.8v2h-7.3l0.1,1.2v2.5h5v2h-5v4.2h7.3V71.7z
		 M135.4,71.6h-2.2l-3.7-5.6l-3.7,5.6h-2.1v-0.5l4.5-6.7l-4-6.1v-0.5h2.2l3.4,5.3l3.5-5.3h2v0.5l-4.2,6.4l4.3,6.4V71.6z M139.2,67.5
		v4.2h-2.5h0V59.1l-0.2-1.4h5.6c2.9,0,4.9,1.7,4.9,4.8c0,3.4-2.4,4.9-5.1,4.9H139.2z M159,71.6h-2.2l-1.3-3.1h-6.4l-1.3,3.1h-2.2
		v-0.5l5.6-13.5h2.3l5.5,13.5V71.6z M172.3,71.6h-2.1l-7.8-9.7v9.7h-2.5V59.1v0l0,0l-0.2-1.4h2.5l0,0l7.7,9.6v-9.6h2.5V71.6z
		 M178.3,71.8c-1.7,0-3.6-0.7-4.7-1.6l0.3-1.8h0.8c1,0.7,2.4,1.3,3.7,1.3c1.6,0,2.6-0.8,2.6-2c0-1-1.3-1.5-2.9-2.1
		c-1.6-0.7-4.5-1.7-4.5-4.2c0-2.5,2.1-3.9,5.1-3.9c1.7,0,3.1,0.6,3.8,1.1l-0.2,1.9h-0.8c-0.6-0.5-1.8-0.8-2.8-0.8
		c-1.6,0-2.6,0.6-2.6,1.7c0,1.3,1.8,1.8,3.5,2.5c1.6,0.6,3.9,1.5,3.9,3.8C183.5,70.2,181.2,71.8,178.3,71.8z M187.6,71.6h-2.4V57.7
		h2.4V71.6z M203.8,64.7c0,4.1-3.2,7.2-7.4,7.2c-4.3,0-7.4-3.1-7.4-7.2c0-4,3.2-7.2,7.4-7.2c1.7,0,3.2,0.5,4.4,1.3l1.1-1.1h2.9
		l-2.5,2.6C203.2,61.5,203.8,63,203.8,64.7z M217.6,71.6h-2.1l-7.8-9.7v9.7h-2.5V59.1l-0.2-1.4h2.5l7.7,9.6v-9.6h2.5V71.6z"/>
	<path class="st0" d="M200.2,62.3h-2.9l1.9-1.9c-0.8-0.5-1.8-0.9-2.9-0.9c-2.9,0-4.9,2-4.9,5.1c0,3,2.2,5.3,5,5.3
		c2.6,0,4.9-2,4.9-5.3c0-1-0.3-2-0.7-2.7L200.2,62.3z"/>
	<path class="st0" d="M204.5,47.7c-13.1,0-18.4-2.7-20.1-8.7c-0.3-1-0.3-1.6-0.4-2.4h14.3c0,0.5,0.1,0.8,0.4,1.4
		c0.7,1.1,2.8,1.5,5.6,1.4c3.3-0.1,4.1-0.6,4.1-1.8c0-1-1.3-1.7-3.7-1.9c-1.4-0.1-4.9-0.6-6.6-0.8c-8.7-1-13.7-3.3-13.7-9.4
		c0-6.4,6.1-10.1,17.8-10.1c10.9,0,16.8,2.4,18.8,8c0.3,1,0.5,2.3,0.5,3h-13.9c0-0.4-0.2-0.9-0.5-1.3c-0.6-0.8-2.1-1.2-4.3-1.2
		c-2.5,0-3.8,0.5-3.8,1.6c0,1.1,1,1.5,3.4,1.8c1.9,0.2,6.1,0.7,8.3,0.9c8.2,0.9,12.1,3.4,12.1,9.4C222.9,44.3,217.3,47.7,204.5,47.7
		L204.5,47.7z"/>
	<path class="st0" d="M104.8,47.4c-1.6,0-3.6,0-4.8,0c-3.1-0.1-5.1-0.4-7.2-1.8l-0.4,1.4H78.4V6.4L93,1.1v16.5
		c0.6-0.9,2.8-1.7,5.6-1.9c1.3-0.1,4,0,6.3,0c8.3,0,14.9,3.7,14.9,15.9C119.7,43.6,113.1,47.4,104.8,47.4L104.8,47.4z M99.3,24
		c-0.2,0-0.6,0-0.8,0c-1.8,0-4.2,0.3-5.5,2v11.8c2,0.9,4,1.4,5.8,1.4c3.8,0,5.9-1.7,5.9-7.6C104.7,25.9,102.7,24.1,99.3,24L99.3,24z
		"/>
	<path class="st0" d="M73.1,10.5c2,3.5,2.8,8,2.8,13.2c0,5.6-1,10.1-2.7,13.7c-3.3,7-11.5,10.9-24.7,10.9c-13,0-20.8-3.6-24.5-10.6
		c-2-3.7-2.8-8.5-2.8-13.7c0-4.9,0.8-9.2,2.7-12.6C27.7,4.5,35.1,0,48.5,0C61.4,0,69.2,3.7,73.1,10.5L73.1,10.5z M58.9,24.2
		c0-8.6-1.3-12.8-10.4-12.8c-8.4,0-10.1,4.8-10.1,12.8c0,8.2,1.4,12.9,10.1,12.9C58.1,37.1,58.9,31.8,58.9,24.2z"/>
	<path class="st0" d="M151.4,15.6c0,0-8.2-0.3-12.9-0.3c-2.6,0-4.9,0.2-6.8,0.6c-7.2,1.4-10,5.3-10,11v20h14.5V30.3
		c0,0,0-1.2,0.6-2.4c0.6-1.3,1.9-2.7,4.5-2.9c1.3-0.1,2.9-0.1,4.4-0.1c1.9,0,3.4,0,4.4,0.1c0,0,0.4,0,0.9,0l0.6,0L151.4,15.6
		L151.4,15.6z"/>
	<path class="st0" d="M172.6,15.9c-1.9-0.4-4.2-0.6-6.8-0.6c-6.2,0.1-6.7,0.1-10.8,0.2c-0.1,0-0.2,0-1.4,0l0,9.4l0.6,0
		c2.2,0,6.8-0.1,9.7,0.1c2.6,0.2,3.9,1.5,4.5,2.9c-14.8,0.2-24.2,3.2-24.2,10.6c0,6.5,5.8,8.9,12,8.9c5.8,0,8.2,0,11.7-1.5
		c0.2-0.1,0.4-0.2,0.5-0.3l0.2,1.3h13.9v-20C182.6,21.2,179.8,17.3,172.6,15.9L172.6,15.9z M168.6,38.8c-1.9,1-3.6,1.6-5.8,1.6
		c-3.5,0-5.1-1.1-5.1-3.2c0-2.6,2.9-3.9,10.9-4.3V38.8z"/>
	<g>
		<path class="st0" d="M62.8,61.8c-3.4,0-4.1,1.5-4.1,2.6v0.2c0,1.2,0.8,2.7,4.1,2.7c3.3,0,4.1-1.5,4.1-2.7v-0.2
			C66.9,63.3,66.2,61.8,62.8,61.8z"/>
		<path class="st0" d="M105.1,65.8L93.9,50.2v5.1H27.4c-5.1,0-9.3-4.2-9.3-9.3V2.8H0V46c0,15.1,12.3,27.4,27.4,27.4h66.5v8
			L105.1,65.8z M53.9,63c0,2-1.2,3.7-5.3,3.7l-5,0v3.5h-4.3V59h9.3c4.1,0,5.3,1.6,5.3,3.7V63z M71.3,64.8c0,2.1-0.9,5.6-8.1,5.6
			h-0.7c-7.2,0-8.1-3.5-8.1-5.6v-0.5c0-2.1,0.9-5.5,8.1-5.5h0.7c7.2,0,8.1,3.4,8.1,5.5V64.8z M87.4,70.2H83
			c-0.1-0.1-0.1-0.3-0.1-0.6v-1.3c0-1.3-0.6-1.9-2.3-1.9h-4.1v3.8h-4.3V59h10.1c3.3,0,4.7,1,4.7,2.9v0.2c0,1.6-1.4,2.3-2.2,2.5
			c1.4,0.3,2.3,1.2,2.3,2.7v1.7C87.2,69.7,87.3,69.9,87.4,70.2L87.4,70.2z"/>
		<path class="st0" d="M48.1,61.8h-4.5v2.1h4.5c1,0,1.4-0.4,1.4-1v0C49.5,62.2,49.1,61.8,48.1,61.8z"/>
		<path class="st0" d="M81.4,61.8h-4.9v1.9h4.9c0.9,0,1.3-0.4,1.3-1v0C82.7,62.2,82.4,61.8,81.4,61.8z"/>
	</g>
</g>
</svg>
