<?xml version="1.0" encoding="utf-8"?>
<!-- Generator: Adobe Illustrator 24.3.0, SVG Export Plug-In . SVG Version: 6.00 Build 0)  -->
<svg version="1.1" id="Layer_1" xmlns="http://www.w3.org/2000/svg" xmlns:xlink="http://www.w3.org/1999/xlink" x="0px" y="0px"
	 viewBox="0 0 344 52" style="enable-background:new 0 0 344 52;" xml:space="preserve">
<style type="text/css">
	.st0{fill:#021D49;}
</style>
<g id="REFORMA">
	<polyline class="st0" points="56.9,3.9 96.8,3.9 96.8,19.9 88.9,19.9 87.7,12.4 78,12.4 78,21 86,21 86,30.1 78,30.1 78,38.6 
		87.6,38.6 88.9,31.2 97.4,31.2 97.4,47.2 56.9,47.2 56.9,39.2 61.5,38.6 61.5,12.4 56.9,11.9 56.9,3.9 	"/>
	<polyline class="st0" points="126.2,47.2 126.2,39.2 120,38.6 120,31.2 128.5,31.2 128.5,21.5 120,21.5 120,12.4 131.3,12.4 
		132.5,20.2 140.4,20.2 140.4,3.9 98.9,3.9 98.9,11.9 103.5,12.4 103.5,38.6 98.9,39.2 98.9,47.2 126.2,47.2 	"/>
	<path class="st0" d="M179.7,42c-4.5,4.3-9.9,6.5-16.2,6.5c-6.1,0-11.4-2.1-16.1-6.4c-4.5-4.2-6.8-9.5-6.9-15.6
		c0-6.3,2.2-11.8,6.7-16.5c4.5-4.6,10-6.9,16.3-6.9s11.8,2.3,16.3,7s6.7,10.1,6.7,16.4C186.5,32.4,184.2,37.6,179.7,42L179.7,42z
		 M170.5,22.1c-0.1-1.6-0.5-3-1.1-4.3c-0.6-1.3-1.3-2.3-2.2-3.2c-0.8-0.8-2-1.1-3.6-1.2c-2.8,0-4.7,1.4-5.7,4.2s-1.4,5.6-1.4,8.7
		c0.1,2.9,0.6,5.6,1.7,8c1.1,2.3,2.9,3.5,5.4,3.5c2.6,0,4.4-1.3,5.4-4c1-2.6,1.6-5.1,1.7-7.6C170.7,25.1,170.6,23.7,170.5,22.1"/>
	<path class="st0" d="M289,38.6V12.4l4.6-0.5v-8h-21.2c0,0-4.7,11.8-4.9,12.4c-1.1,2.7-2,5.3-2,5.3s-0.9-2.3-1.8-4.4l-5.2-13.3
		h-22.6v8l4.6,0.5v26.2l-4.6,0.5v8h17.5v-8l-2.9-0.5V23.9c0,0,3.3,8.5,5.4,14c1.2,3.1,4,9.3,4,9.3h4.8c0,0,2.2-5.4,3.7-9.2
		c2-5.2,5.8-15.3,5.8-15.3v16l-3,0.5v8h22.5v-8L289,38.6"/>
	<path class="st0" d="M335.9,38.6l-6-26.2l3-0.5v-8h-31.3v8l3,0.5L300,38.6l-4.6,0.5v8H314v-8l-2.9-0.5l0.5-3.1h7.6l0.5,3.1
		l-3.2,0.5v8H340v-8L335.9,38.6L335.9,38.6z M312.7,26.4l2.1-13.8h0.4l2.6,13.8H312.7"/>
	<g>
		<g>
			<path class="st0" d="M50.8,38.6l-7.4-8.7c-0.9-1-1.4-1.3-1.4-1.3l0.9-0.1c6-1.2,10.2-6.4,10.2-12.3c0-6.9-5.6-12.4-12.4-12.4H6.1
				v8l4.6,0.5v26.2L6.1,39v8h23v-8l-2.9-0.5V30h2.1c0,0,8.5,13.1,9,13.7c1.3,1.4,2.6,3.4,7.2,3.4h10.9v-8L50.8,38.6z M32.9,21.4
				c0,0-5,0-6.7,0v-9h6.7c2.5,0,4.5,2,4.5,4.5S35.3,21.4,32.9,21.4z"/>
		</g>
	</g>
	<g>
		<g>
			<path class="st0" d="M229.8,38.6l-7.4-8.7c-0.9-1-1.4-1.3-1.4-1.3l0.9-0.1c6-1.2,10.2-6.4,10.2-12.3c0-6.9-5.6-12.4-12.4-12.4
				h-34.6v8l4.6,0.5v26.2l-4.6,0.5v8h23v-8l-2.9-0.5V30h2.1c0,0,8.5,13.1,9,13.7c1.3,1.4,2.7,3.4,7.2,3.4h10.9v-8L229.8,38.6z
				 M211.9,21.4c0,0-5,0-6.7,0v-9h6.7c2.5,0,4.5,2,4.5,4.5S214.4,21.4,211.9,21.4z"/>
		</g>
	</g>
</g>
</svg>
