<svg xmlns="http://www.w3.org/2000/svg" viewBox="0 0 278.55 238.12"><defs><style>.cls-1{fill:#1b223e;}</style></defs><g id="Capa_2" data-name="Capa 2"><g id="Capa_1-2" data-name="Capa 1"><path class="cls-1" d="M28.9,104.57h.88v8.23h3.38v.88H28.9Z"/><path class="cls-1" d="M38.34,104.34a4.49,4.49,0,0,1,3.34,1.39,5,5,0,0,1,0,6.79,4.35,4.35,0,0,1-3.27,1.39,4.4,4.4,0,0,1-3.3-1.39,4.62,4.62,0,0,1-1.35-3.35,5,5,0,0,1,.62-2.44A4.46,4.46,0,0,1,36.05,105,4.4,4.4,0,0,1,38.34,104.34Zm0,.89a3.54,3.54,0,0,0-1.85.53,3.67,3.67,0,0,0-1.37,1.42,4,4,0,0,0-.49,2,3.77,3.77,0,0,0,1.09,2.74A3.52,3.52,0,0,0,38.38,113a3.68,3.68,0,0,0,1.89-.52,3.62,3.62,0,0,0,1.36-1.41,4.09,4.09,0,0,0,.49-2,4,4,0,0,0-.49-2,3.78,3.78,0,0,0-1.38-1.4A3.61,3.61,0,0,0,38.38,105.23Z"/><path class="cls-1" d="M43.5,105.47v-.9h4.81v.9h-2v8.21h-.89v-8.21Z"/><path class="cls-1" d="M49.58,104.57h5v.9H50.46v2.85h4.13v.89H50.46v3.58h4.13v.89h-5Z"/><path class="cls-1" d="M22,119.59v9.34h-.82v-1.16a3.69,3.69,0,0,1-1.18,1,3.22,3.22,0,0,1-3.79-.71,3.54,3.54,0,0,1-1-2.52,3.47,3.47,0,0,1,1-2.49,3.16,3.16,0,0,1,2.37-1,2.91,2.91,0,0,1,1.45.35,3.35,3.35,0,0,1,1.14,1.06v-3.84Zm-3.34,3.26a2.46,2.46,0,0,0-1.29.36,2.52,2.52,0,0,0-.94,1,2.84,2.84,0,0,0-.35,1.36,2.87,2.87,0,0,0,.35,1.36,2.72,2.72,0,0,0,.95,1,2.43,2.43,0,0,0,1.28.36,2.55,2.55,0,0,0,1.3-.36,2.44,2.44,0,0,0,.94-1,2.87,2.87,0,0,0,.33-1.38,2.69,2.69,0,0,0-.74-2A2.42,2.42,0,0,0,18.66,122.85Z"/><path class="cls-1" d="M29.37,126.69l.71.39a3.86,3.86,0,0,1-.81,1.13,3.09,3.09,0,0,1-1,.66,3.47,3.47,0,0,1-1.28.23A3.07,3.07,0,0,1,24.48,128a3.72,3.72,0,0,1-.9-2.44,3.67,3.67,0,0,1,.76-2.29A3.06,3.06,0,0,1,26.92,122a3.15,3.15,0,0,1,2.65,1.3,3.78,3.78,0,0,1,.72,2.31H24.44a2.8,2.8,0,0,0,.73,1.92,2.25,2.25,0,0,0,1.72.75,2.65,2.65,0,0,0,1-.18,2.52,2.52,0,0,0,.8-.47A4,4,0,0,0,29.37,126.69Zm0-1.81a2.72,2.72,0,0,0-.49-1.11,2.25,2.25,0,0,0-.84-.67,2.5,2.5,0,0,0-1.11-.25,2.36,2.36,0,0,0-1.65.63,3,3,0,0,0-.75,1.4Z"/><path class="cls-1" d="M36.57,119.82H38.3v9.11h-.88v-8.22H36Z"/><path class="cls-1" d="M42.5,122.67h-.84a3.22,3.22,0,0,1,.87-2.22,2.77,2.77,0,0,1,2.06-.86,2.54,2.54,0,0,1,2,.81,2.72,2.72,0,0,1,.75,1.91,3.09,3.09,0,0,1-.36,1.46,10.23,10.23,0,0,1-1.38,1.83l-2.19,2.45h4.05v.88h-6l3.36-3.76a11.53,11.53,0,0,0,1.33-1.69,2.36,2.36,0,0,0,.31-1.15,1.9,1.9,0,0,0-1.91-1.88,1.85,1.85,0,0,0-1.4.58A2.61,2.61,0,0,0,42.5,122.67Z"/><path class="cls-1" d="M52.57,123.93a3.22,3.22,0,0,1,1.28,1,2.41,2.41,0,0,1,.38,1.33,2.8,2.8,0,0,1-3,2.85,2.78,2.78,0,0,1-2.21-.87,2.83,2.83,0,0,1-.75-1.9,2.4,2.4,0,0,1,.4-1.37A3.33,3.33,0,0,1,50,123.93a2.56,2.56,0,0,1-1-.86,2.07,2.07,0,0,1-.32-1.1,2.17,2.17,0,0,1,.34-1.16,2.49,2.49,0,0,1,1-.9,2.82,2.82,0,0,1,1.31-.32,2.57,2.57,0,0,1,1.28.33,2.36,2.36,0,0,1,.91.89,2.3,2.3,0,0,1,.34,1.18,2,2,0,0,1-.32,1.1A2.59,2.59,0,0,1,52.57,123.93Zm-1.27.46a2.07,2.07,0,0,0-1.52.61,1.93,1.93,0,0,0-.62,1.42,1.83,1.83,0,0,0,.27,1,1.78,1.78,0,0,0,.73.68,2.39,2.39,0,0,0,1.09.24,2,2,0,0,0,1.53-.58,1.93,1.93,0,0,0,.57-1.38,1.83,1.83,0,0,0-.6-1.35A2,2,0,0,0,51.3,124.39Zm0-3.92a1.69,1.69,0,0,0-1.2.45,1.37,1.37,0,0,0-.48,1,1.47,1.47,0,0,0,.52,1.1,1.64,1.64,0,0,0,1.19.49,1.58,1.58,0,0,0,.82-.22,1.66,1.66,0,0,0,.83-1.39,1.45,1.45,0,0,0-.43-1A1.62,1.62,0,0,0,51.26,120.47Z"/><path class="cls-1" d="M59,122.19h.84v1.16a3.26,3.26,0,0,1,.9-.94A2.5,2.5,0,0,1,62,122a2.11,2.11,0,0,1,.9.19,2,2,0,0,1,.69.51,2.75,2.75,0,0,1,.47.91,3.17,3.17,0,0,1,1-1.2,2.38,2.38,0,0,1,1.35-.41,2,2,0,0,1,1.19.35,2.11,2.11,0,0,1,.77,1,5.64,5.64,0,0,1,.25,1.9v3.68h-.86v-3.68a5,5,0,0,0-.15-1.49,1.31,1.31,0,0,0-.51-.65,1.43,1.43,0,0,0-.86-.25,1.83,1.83,0,0,0-1.11.37,2.15,2.15,0,0,0-.73,1,6.28,6.28,0,0,0-.24,2.07v2.64H63.4v-3.45a6,6,0,0,0-.15-1.66,1.44,1.44,0,0,0-.51-.7,1.47,1.47,0,0,0-.87-.26,1.84,1.84,0,0,0-1.08.36,2.11,2.11,0,0,0-.75,1,5.41,5.41,0,0,0-.24,1.87v2.86H59Z"/><path class="cls-1" d="M70.34,121.05h-.49a1.83,1.83,0,0,1,.51-1.29,1.61,1.61,0,0,1,1.2-.5,1.49,1.49,0,0,1,1.14.47,1.61,1.61,0,0,1,.44,1.12,1.74,1.74,0,0,1-.21.84,5.93,5.93,0,0,1-.81,1.08l-1.28,1.42h2.37v.51H69.73l2-2.19a7.07,7.07,0,0,0,.77-1,1.35,1.35,0,0,0,.18-.67,1.09,1.09,0,0,0-1.11-1.1,1.08,1.08,0,0,0-.82.34A1.47,1.47,0,0,0,70.34,121.05Z"/><path class="cls-1" d="M42.66,144.42,53,166.69h-2.4l-3.5-7.33h-9.6l-3.47,7.33H31.59l10.52-22.27Zm-.28,4.73-3.82,8.06h7.61Z"/><path class="cls-1" d="M83.63,34.67V237.12H1V34.67H83.63m1-1H0V238.12H84.63V33.67Z"/><path class="cls-1" d="M24.53,134.22V141h-.82V139.8a3.8,3.8,0,0,1-1.18,1,3.22,3.22,0,0,1-3.79-.71,3.54,3.54,0,0,1-1-2.52,3.47,3.47,0,0,1,1-2.49,3.16,3.16,0,0,1,2.37-1,2.94,2.94,0,0,1,1.45.35,3.35,3.35,0,0,1,1.14,1.06v-1.24Zm-3.34.66a2.41,2.41,0,0,0-1.29.36,2.59,2.59,0,0,0-.94,1,2.84,2.84,0,0,0-.35,1.36A2.87,2.87,0,0,0,19,139a2.64,2.64,0,0,0,.95,1,2.4,2.4,0,0,0,1.27.36,2.52,2.52,0,0,0,1.3-.36,2.46,2.46,0,0,0,.95-1,2.87,2.87,0,0,0,.33-1.38,2.74,2.74,0,0,0-.74-2A2.42,2.42,0,0,0,21.19,134.88Z"/><path class="cls-1" d="M31.13,131.85h1.73V141H32v-8.22H30.61Z"/><path class="cls-1" d="M38,141.19l-.72-.49L39.65,137a2.73,2.73,0,0,1-.89.17,2.33,2.33,0,0,1-1.78-.79,2.7,2.7,0,0,1-.73-1.93A2.78,2.78,0,0,1,36.6,133a2.74,2.74,0,0,1,3.74-1,2.67,2.67,0,0,1,1,1,2.94,2.94,0,0,1,.35,1.4,3.49,3.49,0,0,1-.22,1.18,6.94,6.94,0,0,1-.78,1.48Zm1-4.85a1.77,1.77,0,0,0,1.31-.56,1.9,1.9,0,0,0,.54-1.36,1.88,1.88,0,0,0-.54-1.35,1.78,1.78,0,0,0-1.32-.56,1.75,1.75,0,0,0-1.3.56,1.88,1.88,0,0,0-.54,1.35,1.9,1.9,0,0,0,.54,1.36A1.77,1.77,0,0,0,39,136.34Z"/><path class="cls-1" d="M44.78,141.19l-.72-.49L46.44,137a2.79,2.79,0,0,1-.9.17,2.33,2.33,0,0,1-1.78-.79,2.7,2.7,0,0,1-.73-1.93,2.89,2.89,0,0,1,.35-1.41,2.62,2.62,0,0,1,1-1,2.67,2.67,0,0,1,1.39-.38A2.57,2.57,0,0,1,48.09,133a2.94,2.94,0,0,1,.35,1.4,3.49,3.49,0,0,1-.22,1.18,7.31,7.31,0,0,1-.77,1.48Zm1-4.85a1.75,1.75,0,0,0,1.31-.56,1.9,1.9,0,0,0,.54-1.36,1.88,1.88,0,0,0-.54-1.35,1.81,1.81,0,0,0-2.62,0,1.88,1.88,0,0,0-.54,1.35,1.9,1.9,0,0,0,.54,1.36A1.77,1.77,0,0,0,45.74,136.34Z"/><path class="cls-1" d="M53.53,134.22h.83v1.16a3.4,3.4,0,0,1,.9-.94,2.5,2.5,0,0,1,1.33-.39,2.11,2.11,0,0,1,.9.19,2,2,0,0,1,.7.51,3,3,0,0,1,.46.91,3.11,3.11,0,0,1,1.05-1.2,2.32,2.32,0,0,1,1.34-.41,2,2,0,0,1,1.19.35,2,2,0,0,1,.77,1,5.68,5.68,0,0,1,.25,1.9V141h-.86v-3.68a5,5,0,0,0-.15-1.49,1.24,1.24,0,0,0-.5-.65,1.45,1.45,0,0,0-.86-.25,1.84,1.84,0,0,0-1.12.37,2.15,2.15,0,0,0-.73,1,6.34,6.34,0,0,0-.23,2.07V141H58v-3.45a6,6,0,0,0-.15-1.66,1.32,1.32,0,0,0-.51-.7,1.46,1.46,0,0,0-.86-.26,1.85,1.85,0,0,0-1.09.36,2.15,2.15,0,0,0-.74,1,5.17,5.17,0,0,0-.25,1.87V141h-.83Z"/><path class="cls-1" d="M64.9,133.08h-.49a1.92,1.92,0,0,1,.51-1.29,1.61,1.61,0,0,1,1.2-.5,1.49,1.49,0,0,1,1.14.47,1.57,1.57,0,0,1,.44,1.12,1.81,1.81,0,0,1-.21.85,6.31,6.31,0,0,1-.81,1.07l-1.27,1.42h2.36v.51H64.29l2-2.19a6.35,6.35,0,0,0,.77-1,1.35,1.35,0,0,0,.18-.67,1.06,1.06,0,0,0-.32-.78,1.09,1.09,0,0,0-.79-.32,1,1,0,0,0-.81.34A1.5,1.5,0,0,0,64.9,133.08Z"/><path class="cls-1" d="M126.4,104.6h.88v8.23h3.38v.88H126.4Z"/><path class="cls-1" d="M135.83,104.37a4.49,4.49,0,0,1,3.35,1.38,5,5,0,0,1,0,6.79,4.57,4.57,0,0,1-6.57,0,4.63,4.63,0,0,1-1.35-3.36,5.09,5.09,0,0,1,.61-2.43,4.64,4.64,0,0,1,1.67-1.76A4.41,4.41,0,0,1,135.83,104.37Zm0,.89a3.55,3.55,0,0,0-1.85.52,3.78,3.78,0,0,0-1.36,1.42,4,4,0,0,0-.49,2,3.76,3.76,0,0,0,1.09,2.74,3.48,3.48,0,0,0,2.61,1.12,3.67,3.67,0,0,0,3.26-1.92,4.11,4.11,0,0,0,.48-2,4,4,0,0,0-.48-2,3.73,3.73,0,0,0-1.38-1.41A3.6,3.6,0,0,0,135.87,105.26Z"/><path class="cls-1" d="M141,105.49v-.89h4.82v.89h-2v8.22H143v-8.22Z"/><path class="cls-1" d="M147.08,104.6h5v.89H148v2.86h4.12v.89H148v3.58h4.12v.89h-5Z"/><path class="cls-1" d="M128,144.45l10.39,22.27H136l-3.5-7.33h-9.59l-3.47,7.33H117l10.52-22.27Zm-.28,4.73L124,157.24h7.61Z"/><path class="cls-1" d="M151,144.45l10.38,22.27H159l-3.51-7.33h-9.59l-3.47,7.33h-2.48l10.52-22.27Zm-.29,4.73-3.81,8.06h7.61Z"/><path class="cls-1" d="M180.43,24.9V237.12H97.9V24.9h82.53m1-1H96.9V238.12h84.53V23.9Z"/><path class="cls-1" d="M117.08,118.6v9.33h-.82v-1.15a3.53,3.53,0,0,1-1.18,1,3,3,0,0,1-1.43.34,3.13,3.13,0,0,1-2.36-1,3.54,3.54,0,0,1-1-2.52,3.46,3.46,0,0,1,1-2.49,3.17,3.17,0,0,1,2.37-1,2.91,2.91,0,0,1,1.45.36,3.35,3.35,0,0,1,1.14,1.06V118.6Zm-3.34,3.26a2.46,2.46,0,0,0-1.29.36,2.56,2.56,0,0,0-.94,1,2.88,2.88,0,0,0-.35,1.37,2.8,2.8,0,0,0,.36,1.36,2.62,2.62,0,0,0,.94,1,2.43,2.43,0,0,0,1.28.36A2.55,2.55,0,0,0,115,127a2.44,2.44,0,0,0,.94-1,2.87,2.87,0,0,0,.33-1.38,2.73,2.73,0,0,0-.74-2A2.43,2.43,0,0,0,113.74,121.86Z"/><path class="cls-1" d="M124.45,125.7l.71.38a4,4,0,0,1-.8,1.14,3.23,3.23,0,0,1-1,.66,3.44,3.44,0,0,1-1.28.23,3.07,3.07,0,0,1-2.49-1.08,3.73,3.73,0,0,1-.9-2.45,3.66,3.66,0,0,1,.76-2.28A3.07,3.07,0,0,1,122,121a3.16,3.16,0,0,1,2.65,1.31,3.75,3.75,0,0,1,.72,2.3h-5.85a2.81,2.81,0,0,0,.73,1.93,2.25,2.25,0,0,0,1.72.75,2.65,2.65,0,0,0,1-.18,2.73,2.73,0,0,0,.8-.47A4,4,0,0,0,124.45,125.7Zm0-1.81a2.72,2.72,0,0,0-.49-1.11,2.25,2.25,0,0,0-.84-.67,2.51,2.51,0,0,0-1.11-.26,2.33,2.33,0,0,0-1.64.64,2.88,2.88,0,0,0-.76,1.4Z"/><path class="cls-1" d="M130.8,121.67H130a3.17,3.17,0,0,1,.87-2.21,2.77,2.77,0,0,1,2.06-.86,2.54,2.54,0,0,1,2,.81,2.72,2.72,0,0,1,.75,1.91,3,3,0,0,1-.36,1.45,10,10,0,0,1-1.39,1.84l-2.18,2.45h4.05v.87h-6l3.36-3.76a11.07,11.07,0,0,0,1.33-1.68,2.36,2.36,0,0,0,.31-1.15,1.81,1.81,0,0,0-.56-1.33,2,2,0,0,0-2.75,0A2.55,2.55,0,0,0,130.8,121.67Z"/><path class="cls-1" d="M136.56,123.38a8.09,8.09,0,0,1,.37-2.78,3.27,3.27,0,0,1,1-1.5,2.6,2.6,0,0,1,3.08,0,3.39,3.39,0,0,1,1.09,1.53,7.6,7.6,0,0,1,.41,2.74,7.72,7.72,0,0,1-.4,2.73,3.42,3.42,0,0,1-1.1,1.54,2.55,2.55,0,0,1-1.55.51,2.46,2.46,0,0,1-1.52-.5,3.19,3.19,0,0,1-1.05-1.49A8,8,0,0,1,136.56,123.38Zm.83,0a8,8,0,0,0,.26,2.33,2.46,2.46,0,0,0,.79,1.2,1.75,1.75,0,0,0,1.1.41,1.71,1.71,0,0,0,1.09-.4,2.43,2.43,0,0,0,.77-1.2,8.66,8.66,0,0,0,0-4.59,2.71,2.71,0,0,0-.81-1.29,1.7,1.7,0,0,0-2.19,0,2.45,2.45,0,0,0-.78,1.2A7.7,7.7,0,0,0,137.39,123.4Z"/><path class="cls-1" d="M143.34,123.38a8.09,8.09,0,0,1,.37-2.78,3.21,3.21,0,0,1,1.06-1.5,2.52,2.52,0,0,1,1.52-.5,2.57,2.57,0,0,1,1.55.51,3.39,3.39,0,0,1,1.09,1.53,7.6,7.6,0,0,1,.41,2.74,7.72,7.72,0,0,1-.4,2.73,3.42,3.42,0,0,1-1.1,1.54,2.55,2.55,0,0,1-1.55.51,2.46,2.46,0,0,1-1.52-.5,3.19,3.19,0,0,1-1.05-1.49A8,8,0,0,1,143.34,123.38Zm.83,0a8,8,0,0,0,.26,2.33,2.46,2.46,0,0,0,.79,1.2,1.77,1.77,0,0,0,1.1.41,1.71,1.71,0,0,0,1.09-.4,2.43,2.43,0,0,0,.77-1.2,8.66,8.66,0,0,0,0-4.59,2.71,2.71,0,0,0-.81-1.29,1.7,1.7,0,0,0-2.19,0,2.52,2.52,0,0,0-.78,1.2A7.7,7.7,0,0,0,144.17,123.4Z"/><path class="cls-1" d="M154,121.2h.84v1.16a3.26,3.26,0,0,1,.9-.94,2.52,2.52,0,0,1,1.33-.4,2.12,2.12,0,0,1,.9.2,1.78,1.78,0,0,1,.69.51,2.65,2.65,0,0,1,.47.91,3.17,3.17,0,0,1,1-1.2,2.39,2.39,0,0,1,1.35-.42,2,2,0,0,1,1.19.36,2.11,2.11,0,0,1,.77,1,5.6,5.6,0,0,1,.25,1.9v3.67h-.86v-3.67a4.91,4.91,0,0,0-.15-1.49,1.38,1.38,0,0,0-.51-.66,1.5,1.5,0,0,0-.86-.24,1.83,1.83,0,0,0-1.11.37,2.1,2.1,0,0,0-.73,1,6.28,6.28,0,0,0-.24,2.07v2.63h-.83v-3.44a6,6,0,0,0-.15-1.66,1.44,1.44,0,0,0-.51-.7,1.4,1.4,0,0,0-.87-.26,1.84,1.84,0,0,0-1.08.36,2.13,2.13,0,0,0-.75,1,5.51,5.51,0,0,0-.24,1.88v2.85H154Z"/><path class="cls-1" d="M165.42,120.06h-.49a1.83,1.83,0,0,1,.51-1.29,1.57,1.57,0,0,1,1.2-.5,1.49,1.49,0,0,1,1.14.47,1.61,1.61,0,0,1,.44,1.12,1.74,1.74,0,0,1-.21.84,5.93,5.93,0,0,1-.81,1.07l-1.28,1.43h2.37v.51h-3.48l2-2.19a7.07,7.07,0,0,0,.77-1,1.38,1.38,0,0,0,.18-.68,1.07,1.07,0,0,0-.32-.77,1.1,1.1,0,0,0-.79-.32,1.08,1.08,0,0,0-.82.34A1.5,1.5,0,0,0,165.42,120.06Z"/><path class="cls-1" d="M119.61,133.23V140h-.82v-1.16a3.63,3.63,0,0,1-1.18,1,3,3,0,0,1-1.43.34,3.13,3.13,0,0,1-2.36-1,3.54,3.54,0,0,1-1-2.52,3.47,3.47,0,0,1,1-2.49,3.17,3.17,0,0,1,2.37-1,2.94,2.94,0,0,1,1.45.36,3.35,3.35,0,0,1,1.14,1.06v-1.24Zm-3.34.66a2.41,2.41,0,0,0-1.29.36,2.52,2.52,0,0,0-.94,1,2.81,2.81,0,0,0-.35,1.36A2.9,2.9,0,0,0,114,138a2.64,2.64,0,0,0,.95,1,2.4,2.4,0,0,0,1.27.36,2.52,2.52,0,0,0,1.3-.36,2.46,2.46,0,0,0,1-1,2.87,2.87,0,0,0,.33-1.38,2.74,2.74,0,0,0-.74-1.95A2.42,2.42,0,0,0,116.27,133.89Z"/><path class="cls-1" d="M125.57,133h-.9a3.2,3.2,0,0,1,.94-1.74,2.42,2.42,0,0,1,1.64-.6,2.7,2.7,0,0,1,1.28.32,2.36,2.36,0,0,1,.92.88,2.21,2.21,0,0,1,.33,1.15,2.08,2.08,0,0,1-1.13,1.86,2.7,2.7,0,0,1,1,.78,2.59,2.59,0,0,1,.57,1.63,2.88,2.88,0,0,1-.4,1.47,2.74,2.74,0,0,1-1.07,1.09,3,3,0,0,1-1.52.38,2.76,2.76,0,0,1-1.9-.67,3.4,3.4,0,0,1-1-2h.86a2.65,2.65,0,0,0,.65,1.28,2,2,0,0,0,1.39.5,2,2,0,0,0,1.53-.6,1.9,1.9,0,0,0,.58-1.39,1.82,1.82,0,0,0-.29-1,1.93,1.93,0,0,0-.77-.7,4.45,4.45,0,0,0-1.51-.29v-.83a2.8,2.8,0,0,0,1.1-.22,1.69,1.69,0,0,0,.72-.56,1.37,1.37,0,0,0-.24-1.77,1.6,1.6,0,0,0-1.15-.44,1.51,1.51,0,0,0-1,.33A2.47,2.47,0,0,0,125.57,133Z"/><path class="cls-1" d="M133.08,140.19l-.72-.48,2.37-3.73a2.71,2.71,0,0,1-.89.16,2.35,2.35,0,0,1-1.78-.78,2.7,2.7,0,0,1-.73-1.93,2.93,2.93,0,0,1,.35-1.42,2.78,2.78,0,0,1,2.39-1.38,2.62,2.62,0,0,1,1.35.36,2.72,2.72,0,0,1,1,1,3,3,0,0,1,.35,1.4,3.41,3.41,0,0,1-.22,1.18,7,7,0,0,1-.78,1.49Zm1-4.84a1.77,1.77,0,0,0,1.31-.56,1.9,1.9,0,0,0,.54-1.36,1.86,1.86,0,0,0-.54-1.35,1.81,1.81,0,0,0-2.62,0,1.86,1.86,0,0,0-.54,1.35,1.9,1.9,0,0,0,.54,1.36A1.77,1.77,0,0,0,134,135.35Z"/><path class="cls-1" d="M139.86,140.19l-.72-.48,2.38-3.73a2.76,2.76,0,0,1-.9.16,2.35,2.35,0,0,1-1.78-.78,2.7,2.7,0,0,1-.73-1.93,2.93,2.93,0,0,1,.35-1.42,2.78,2.78,0,0,1,2.39-1.38,2.58,2.58,0,0,1,2.32,1.38,2.88,2.88,0,0,1,.35,1.4,3.63,3.63,0,0,1-.21,1.18,8,8,0,0,1-.78,1.49Zm1-4.84a1.75,1.75,0,0,0,1.31-.56,1.9,1.9,0,0,0,.54-1.36,1.86,1.86,0,0,0-.54-1.35,1.81,1.81,0,0,0-2.62,0,1.86,1.86,0,0,0-.54,1.35,1.9,1.9,0,0,0,.54,1.36A1.77,1.77,0,0,0,140.82,135.35Z"/><path class="cls-1" d="M148.61,133.23h.83v1.16a3.4,3.4,0,0,1,.9-.94,2.52,2.52,0,0,1,1.34-.4,2.1,2.1,0,0,1,.89.2,1.84,1.84,0,0,1,.7.51,2.65,2.65,0,0,1,.46.91,3.11,3.11,0,0,1,1.05-1.2,2.34,2.34,0,0,1,1.34-.42,2,2,0,0,1,1.19.36,2,2,0,0,1,.77,1,5.36,5.36,0,0,1,.25,1.9V140h-.86v-3.68a5.37,5.37,0,0,0-.14-1.49,1.38,1.38,0,0,0-.51-.66,1.52,1.52,0,0,0-.86-.24,1.79,1.79,0,0,0-1.11.37,2.1,2.1,0,0,0-.74,1,6.34,6.34,0,0,0-.23,2.07V140H153v-3.45a6,6,0,0,0-.15-1.66,1.32,1.32,0,0,0-.51-.7,1.39,1.39,0,0,0-.86-.26,1.85,1.85,0,0,0-1.09.36,2.18,2.18,0,0,0-.74,1,5.47,5.47,0,0,0-.25,1.88V140h-.83Z"/><path class="cls-1" d="M160,132.09h-.5a1.92,1.92,0,0,1,.51-1.29,1.61,1.61,0,0,1,1.2-.5,1.49,1.49,0,0,1,1.14.47,1.57,1.57,0,0,1,.44,1.12,1.74,1.74,0,0,1-.21.84,6.29,6.29,0,0,1-.81,1.08l-1.27,1.42h2.36v.51h-3.48l2-2.19a5.76,5.76,0,0,0,.77-1,1.36,1.36,0,0,0,.18-.68,1.05,1.05,0,0,0-.32-.77,1.09,1.09,0,0,0-.79-.32,1.06,1.06,0,0,0-.81.34A1.42,1.42,0,0,0,160,132.09Z"/><path class="cls-1" d="M222.47,104.56h.87v8.23h3.39v.88h-4.26Z"/><path class="cls-1" d="M231.9,104.33a4.47,4.47,0,0,1,3.34,1.38,4.94,4.94,0,0,1,0,6.79,4.35,4.35,0,0,1-3.27,1.39,4.44,4.44,0,0,1-3.3-1.38,4.69,4.69,0,0,1-1.34-3.36,5,5,0,0,1,.61-2.43,4.64,4.64,0,0,1,1.67-1.76A4.41,4.41,0,0,1,231.9,104.33Zm0,.88a3.54,3.54,0,0,0-1.85.53,3.64,3.64,0,0,0-1.36,1.42,4,4,0,0,0-.5,2,3.81,3.81,0,0,0,1.09,2.74,3.5,3.5,0,0,0,2.62,1.12,3.67,3.67,0,0,0,3.25-1.92,4,4,0,0,0,.49-2,3.93,3.93,0,0,0-.49-2,3.68,3.68,0,0,0-1.37-1.4A3.64,3.64,0,0,0,231.94,105.21Z"/><path class="cls-1" d="M237.06,105.45v-.89h4.82v.89h-2v8.22H239v-8.22Z"/><path class="cls-1" d="M243.15,104.56h5v.89H244v2.85h4.12v.89H244v3.58h4.12v.9h-5Z"/><path class="cls-1" d="M215.82,146.66l9.38,20.11H223l-3.17-6.62H211.2l-3.13,6.62h-2.24l9.5-20.11Zm-.25,4.27-3.45,7.28H219Z"/><path class="cls-1" d="M236.53,146.66l9.38,20.11h-2.17l-3.16-6.62h-8.67l-3.13,6.62h-2.24l9.5-20.11Zm-.25,4.27-3.45,7.28h6.88Z"/><path class="cls-1" d="M257.25,146.66l9.37,20.11h-2.17l-3.16-6.62h-8.66l-3.14,6.62h-2.24l9.5-20.11Zm-.26,4.27-3.44,7.28h6.87Z"/><path class="cls-1" d="M277.55,1V237.12H194.9V1h82.65m1-1H193.9V238.12h84.65V0Z"/><path class="cls-1" d="M217.44,134.63v6.74h-.83v-1.16a3.69,3.69,0,0,1-1.18,1,3.21,3.21,0,0,1-3.78-.71,3.68,3.68,0,0,1,0-5,3.13,3.13,0,0,1,2.37-1,3,3,0,0,1,1.45.35,3.24,3.24,0,0,1,1.13,1.06v-1.24Zm-3.34.66a2.41,2.41,0,0,0-1.29.36,2.52,2.52,0,0,0-.94,1,2.73,2.73,0,0,0-.35,1.36,2.87,2.87,0,0,0,.35,1.36,2.64,2.64,0,0,0,.95,1,2.4,2.4,0,0,0,1.27.36,2.52,2.52,0,0,0,1.3-.36,2.46,2.46,0,0,0,1-1,2.87,2.87,0,0,0,.33-1.38,2.74,2.74,0,0,0-.74-1.95A2.42,2.42,0,0,0,214.1,135.29Z"/><path class="cls-1" d="M226.27,132l.72.49-2.37,3.73a2.49,2.49,0,0,1,.89-.17,2.35,2.35,0,0,1,1.78.78,2.71,2.71,0,0,1,.73,1.93,2.9,2.9,0,0,1-.35,1.42,2.62,2.62,0,0,1-1,1,2.78,2.78,0,0,1-1.4.38,2.53,2.53,0,0,1-1.34-.37,2.57,2.57,0,0,1-1-1,3,3,0,0,1-.35-1.41,3.39,3.39,0,0,1,.22-1.17,8,8,0,0,1,.78-1.49Zm-1,4.85a1.71,1.71,0,0,0-1.3.56,1.89,1.89,0,0,0-.54,1.36,1.86,1.86,0,0,0,.54,1.35,1.8,1.8,0,0,0,2.61,0,1.86,1.86,0,0,0,.54-1.35,1.89,1.89,0,0,0-.54-1.36A1.72,1.72,0,0,0,225.3,136.88Z"/><path class="cls-1" d="M229,136.82a8.16,8.16,0,0,1,.37-2.79,3.24,3.24,0,0,1,1.05-1.49,2.51,2.51,0,0,1,1.53-.51,2.57,2.57,0,0,1,1.55.51,3.39,3.39,0,0,1,1.09,1.53,7.63,7.63,0,0,1,.41,2.75,7.8,7.8,0,0,1-.4,2.73,3.44,3.44,0,0,1-1.1,1.53,2.56,2.56,0,0,1-1.55.52,2.52,2.52,0,0,1-1.52-.5,3.27,3.27,0,0,1-1-1.5A7.89,7.89,0,0,1,229,136.82Zm.83,0a8,8,0,0,0,.26,2.33,2.46,2.46,0,0,0,.79,1.2,1.68,1.68,0,0,0,2.19,0,2.35,2.35,0,0,0,.77-1.2,8.66,8.66,0,0,0,0-4.59,2.67,2.67,0,0,0-.81-1.28,1.67,1.67,0,0,0-2.19,0,2.53,2.53,0,0,0-.78,1.19A7.7,7.7,0,0,0,229.78,136.83Z"/><path class="cls-1" d="M235.73,136.82a8.16,8.16,0,0,1,.37-2.79,3.18,3.18,0,0,1,1.06-1.49,2.46,2.46,0,0,1,1.52-.51,2.55,2.55,0,0,1,1.55.51,3.39,3.39,0,0,1,1.09,1.53,7.63,7.63,0,0,1,.41,2.75,7.8,7.8,0,0,1-.4,2.73,3.44,3.44,0,0,1-1.1,1.53,2.56,2.56,0,0,1-1.55.52,2.52,2.52,0,0,1-1.52-.5,3.27,3.27,0,0,1-1-1.5A7.89,7.89,0,0,1,235.73,136.82Zm.83,0a8,8,0,0,0,.26,2.33,2.46,2.46,0,0,0,.79,1.2,1.68,1.68,0,0,0,2.19,0,2.35,2.35,0,0,0,.77-1.2,8.66,8.66,0,0,0,0-4.59,2.67,2.67,0,0,0-.81-1.28,1.67,1.67,0,0,0-2.19,0,2.53,2.53,0,0,0-.78,1.19A7.7,7.7,0,0,0,236.56,136.83Z"/><path class="cls-1" d="M246.44,134.63h.83v1.16a3.26,3.26,0,0,1,.9-.94,2.5,2.5,0,0,1,1.33-.39,2.11,2.11,0,0,1,.9.19,2,2,0,0,1,.69.51,2.75,2.75,0,0,1,.47.91,3.17,3.17,0,0,1,1-1.2,2.38,2.38,0,0,1,1.35-.41,2,2,0,0,1,1.19.35,2.11,2.11,0,0,1,.77,1,5.68,5.68,0,0,1,.25,1.9v3.68h-.86v-3.68a5,5,0,0,0-.15-1.49,1.31,1.31,0,0,0-.51-.65,1.43,1.43,0,0,0-.86-.25,1.83,1.83,0,0,0-1.11.37,2.15,2.15,0,0,0-.73,1,6.28,6.28,0,0,0-.24,2.07v2.64h-.83v-3.45a6,6,0,0,0-.15-1.66,1.44,1.44,0,0,0-.51-.7,1.47,1.47,0,0,0-.87-.26,1.84,1.84,0,0,0-1.08.36,2.11,2.11,0,0,0-.75,1,5.45,5.45,0,0,0-.24,1.87v2.86h-.83Z"/><path class="cls-1" d="M257.81,133.49h-.49a1.83,1.83,0,0,1,.51-1.29,1.61,1.61,0,0,1,1.2-.5,1.49,1.49,0,0,1,1.14.47,1.61,1.61,0,0,1,.44,1.12,1.81,1.81,0,0,1-.21.85,6.31,6.31,0,0,1-.81,1.07l-1.27,1.42h2.36v.51H257.2l2-2.19a7.07,7.07,0,0,0,.77-1,1.35,1.35,0,0,0,.18-.67,1.09,1.09,0,0,0-1.11-1.1,1.08,1.08,0,0,0-.82.34A1.55,1.55,0,0,0,257.81,133.49Z"/><path class="cls-1" d="M213.24,118.56v9.34h-.82v-1.15a3.63,3.63,0,0,1-1.18,1,3,3,0,0,1-1.43.34,3.13,3.13,0,0,1-2.36-1,3.54,3.54,0,0,1-1-2.52,3.47,3.47,0,0,1,1-2.49,3.17,3.17,0,0,1,2.37-1,2.94,2.94,0,0,1,1.45.36,3.32,3.32,0,0,1,1.14,1.05v-3.84Zm-3.34,3.27a2.5,2.5,0,0,0-1.29.35,2.59,2.59,0,0,0-.94,1,2.87,2.87,0,0,0-.35,1.36,2.84,2.84,0,0,0,.35,1.36,2.6,2.6,0,0,0,1,1,2.4,2.4,0,0,0,1.27.36,2.52,2.52,0,0,0,1.3-.36,2.46,2.46,0,0,0,.95-1,2.87,2.87,0,0,0,.33-1.38,2.78,2.78,0,0,0-.74-2A2.44,2.44,0,0,0,209.9,121.83Z"/><path class="cls-1" d="M220.61,125.67l.7.38a3.85,3.85,0,0,1-.8,1.14,3.09,3.09,0,0,1-1,.66,3.49,3.49,0,0,1-1.29.23,3,3,0,0,1-2.48-1.08,3.73,3.73,0,0,1-.9-2.45,3.66,3.66,0,0,1,.76-2.28,3.07,3.07,0,0,1,2.58-1.28,3.17,3.17,0,0,1,2.65,1.31,3.73,3.73,0,0,1,.72,2.3h-5.85a2.85,2.85,0,0,0,.72,1.93,2.29,2.29,0,0,0,1.73.75,2.69,2.69,0,0,0,1-.18,2.54,2.54,0,0,0,.8-.48A3.93,3.93,0,0,0,220.61,125.67Zm0-1.82a2.88,2.88,0,0,0-.49-1.1,2.25,2.25,0,0,0-.84-.67,2.55,2.55,0,0,0-1.11-.26,2.33,2.33,0,0,0-1.65.64,3,3,0,0,0-.76,1.39Z"/><path class="cls-1" d="M230.76,118.56h.17v6.36H232v.87h-1.07v2.11h-.87v-2.11h-4.2Zm-.7,6.36v-3.83l-2.6,3.83Z"/><path class="cls-1" d="M232.71,123.35a8.16,8.16,0,0,1,.38-2.79,3.29,3.29,0,0,1,1-1.49,2.49,2.49,0,0,1,1.53-.51,2.53,2.53,0,0,1,1.54.52,3.34,3.34,0,0,1,1.1,1.53,7.59,7.59,0,0,1,.4,2.74,7.75,7.75,0,0,1-.39,2.73,3.42,3.42,0,0,1-1.1,1.54,2.57,2.57,0,0,1-1.55.51,2.44,2.44,0,0,1-1.52-.5,3.27,3.27,0,0,1-1.06-1.49A8.2,8.2,0,0,1,232.71,123.35Zm.83,0a7.63,7.63,0,0,0,.27,2.33,2.46,2.46,0,0,0,.79,1.2,1.75,1.75,0,0,0,1.1.41,1.71,1.71,0,0,0,1.09-.4,2.5,2.5,0,0,0,.77-1.2,7.33,7.33,0,0,0,.33-2.34,7.48,7.48,0,0,0-.29-2.26,2.72,2.72,0,0,0-.81-1.28,1.7,1.7,0,0,0-2.19,0,2.46,2.46,0,0,0-.79,1.2A7.65,7.65,0,0,0,233.54,123.37Z"/><path class="cls-1" d="M239.49,123.35a8.16,8.16,0,0,1,.38-2.79,3.29,3.29,0,0,1,1-1.49,2.55,2.55,0,0,1,3.07,0,3.34,3.34,0,0,1,1.1,1.53,7.59,7.59,0,0,1,.4,2.74,7.75,7.75,0,0,1-.39,2.73,3.42,3.42,0,0,1-1.1,1.54,2.57,2.57,0,0,1-1.55.51,2.46,2.46,0,0,1-1.52-.5,3.27,3.27,0,0,1-1.06-1.49A8.2,8.2,0,0,1,239.49,123.35Zm.84,0a7.68,7.68,0,0,0,.26,2.33,2.46,2.46,0,0,0,.79,1.2,1.75,1.75,0,0,0,1.1.41,1.71,1.71,0,0,0,1.09-.4,2.43,2.43,0,0,0,.77-1.2,7.33,7.33,0,0,0,.33-2.34,7.48,7.48,0,0,0-.29-2.26,2.72,2.72,0,0,0-.81-1.28,1.7,1.7,0,0,0-2.19,0,2.46,2.46,0,0,0-.79,1.2A8,8,0,0,0,240.33,123.37Z"/><path class="cls-1" d="M250.2,121.17H251v1.16a3.26,3.26,0,0,1,.9-.94,2.41,2.41,0,0,1,1.33-.4,2.34,2.34,0,0,1,.9.19,1.91,1.91,0,0,1,.69.52,2.65,2.65,0,0,1,.47.91,3.2,3.2,0,0,1,1-1.21,2.46,2.46,0,0,1,1.35-.41,2,2,0,0,1,1.95,1.34,5.36,5.36,0,0,1,.25,1.9v3.67h-.85v-3.67a4.91,4.91,0,0,0-.15-1.49,1.38,1.38,0,0,0-.51-.66,1.53,1.53,0,0,0-.86-.25,1.84,1.84,0,0,0-1.11.38,2.07,2.07,0,0,0-.74,1,6.64,6.64,0,0,0-.23,2.07v2.63h-.83v-3.45a5.94,5.94,0,0,0-.15-1.65,1.39,1.39,0,0,0-.51-.7,1.41,1.41,0,0,0-.87-.27,1.83,1.83,0,0,0-1.08.37,2.08,2.08,0,0,0-.75,1,5.51,5.51,0,0,0-.24,1.88v2.85h-.84Z"/><path class="cls-1" d="M261.58,120h-.49a1.83,1.83,0,0,1,.51-1.29,1.56,1.56,0,0,1,1.19-.5,1.47,1.47,0,0,1,1.15.47,1.6,1.6,0,0,1,.44,1.12,1.74,1.74,0,0,1-.21.84,5.93,5.93,0,0,1-.81,1.07l-1.28,1.43h2.37v.51H261l1.95-2.19a6.6,6.6,0,0,0,.78-1,1.38,1.38,0,0,0,.18-.68,1.07,1.07,0,0,0-.32-.77,1.1,1.1,0,0,0-.79-.32,1.08,1.08,0,0,0-.82.34A1.45,1.45,0,0,0,261.58,120Z"/></g></g></svg>