<svg xmlns="http://www.w3.org/2000/svg" viewBox="0 0 554.94 617.36"><defs><style>.cls-1{fill:none;stroke:#c85f71;stroke-miterlimit:10;stroke-width:0.91px;}.cls-2{fill:#4d78a7;}.cls-3{fill:#f6f4ef;}</style></defs><title>financiamiento</title><g id="Capa_2" data-name="Capa 2"><g id="Capa_1-2" data-name="Capa 1"><polyline class="cls-1" points="17.99 46.99 0.45 46.99 0.45 163.71 554.49 163.71 554.49 46.99 535.63 46.99"/><path class="cls-2" d="M65.67,345.63H56.75V335.21h21v62H65.67Z"/><path class="cls-2" d="M64.37,481.66c1.12-1.3,8.37-9.58,10.6-12.93,1.68-2.51,3.63-6.32,3.63-10a9,9,0,0,0-9.21-9.39c-6.32,0-9.67,5-9.85,10.32H47.07C47.63,447.07,56.56,439,68.84,439c14.41,0,21.85,9.86,21.85,19.72,0,9.58-6.41,16.46-11.25,21.67L68.74,492H91.16V502.4h-45Z"/><path class="cls-2" d="M49.21,569.86c1.12-11.26,9.58-17.58,20.18-17.58,11.91,0,19.44,6.7,19.44,17.11,0,3.26-.65,9.4-7.16,13,2.51,1,9.49,4.56,9.49,14.79,0,12.74-9.86,19.9-22.14,19.9-11.9,0-21.3-7.35-22.32-19.25H58.79c.75,5.12,4.37,8.84,10.33,8.84,7,0,9.95-5.12,9.95-9.86,0-4.56-2.79-9.67-10.33-9.67H67.16v-8.75h1.68c6,0,8.46-4.18,8.46-8.46,0-4.93-3.25-8.18-8.18-8.18a8.23,8.23,0,0,0-8.56,8.09Z"/><path class="cls-3" d="M32.91,112.06H30.67l.78-1.4h2.94V124H32.91Z"/><path class="cls-3" d="M46,112H41.75l-.86,2.88a3.63,3.63,0,0,1,.84-.08,4.33,4.33,0,0,1,4.4,4.62,4.67,4.67,0,0,1-4.86,4.8,4.52,4.52,0,0,1-3-1,5.55,5.55,0,0,1-1.16-1.36l1.18-.84a3.1,3.1,0,0,0,.9,1.08,3.27,3.27,0,0,0,2.16.8,3.31,3.31,0,0,0,3.28-3.42,3.16,3.16,0,0,0-3.28-3.28,4.36,4.36,0,0,0-2.58.92l1.94-6.44H46Z"/><path class="cls-3" d="M61.55,120.24H55.87L54.27,124H52.63l6.14-14,6,14H63.11Zm-.58-1.4-2.24-5.34-2.28,5.34Z"/><path class="cls-3" d="M66.63,124V110.1L77,121V110.66h1.48V124.6l-10.4-10.9V124Zm9-16.14a2.3,2.3,0,0,1-.52.82,1.92,1.92,0,0,1-1.4.62,2.86,2.86,0,0,1-1.34-.44,2.92,2.92,0,0,0-1.12-.4.82.82,0,0,0-.6.26,1.55,1.55,0,0,0-.34.62l-.88-.72a2.23,2.23,0,0,1,.6-.9,1.68,1.68,0,0,1,1.26-.54,2.91,2.91,0,0,1,1.36.42,2.77,2.77,0,0,0,1.12.42.88.88,0,0,0,.64-.28,1.78,1.78,0,0,0,.36-.58Z"/><path class="cls-3" d="M81.23,117.34a6.94,6.94,0,1,1,6.94,6.9A6.81,6.81,0,0,1,81.23,117.34Zm1.52,0a5.42,5.42,0,1,0,5.42-5.5A5.44,5.44,0,0,0,82.75,117.34Z"/><path class="cls-3" d="M103.79,113.3a3.21,3.21,0,0,0-.78-1,2.4,2.4,0,0,0-1.5-.46,2,2,0,0,0-2.24,2.06,1.4,1.4,0,0,0,.5,1.16,4.36,4.36,0,0,0,1.4.84l1.28.56a6.48,6.48,0,0,1,2.06,1.26,3.21,3.21,0,0,1,1,2.42,4.28,4.28,0,0,1-7.12,3,4.84,4.84,0,0,1-1.24-2.36l1.44-.4a3.15,3.15,0,0,0,.8,1.7,2.73,2.73,0,0,0,4.6-1.9,2,2,0,0,0-.66-1.56,5.82,5.82,0,0,0-1.6-.92l-1.2-.56a5.91,5.91,0,0,1-1.78-1.1,2.77,2.77,0,0,1-.92-2.18,3.45,3.45,0,0,1,3.74-3.44,3.61,3.61,0,0,1,2.14.6,4,4,0,0,1,1.3,1.48Z"/><path class="cls-3" d="M112.85,110.66h2.72a7.25,7.25,0,0,1,4.92,1.56,6.5,6.5,0,0,1,2.28,5.12,6.35,6.35,0,0,1-2.34,5.12,6.68,6.68,0,0,1-4.88,1.54h-2.7Zm1.48,11.94h1.3a5.7,5.7,0,0,0,3.82-1.2,5.1,5.1,0,0,0,1.8-4.06c0-3.2-2.24-5.28-5.62-5.28h-1.3Z"/><path class="cls-3" d="M132.41,112.06H127v4h5.28v1.4H127v5.18h5.44V124h-6.92V110.66h6.92Z"/><path class="cls-3" d="M55.49,137.6a6.57,6.57,0,0,0-1.74-1.24,5.68,5.68,0,0,0-2.3-.52,5.5,5.5,0,0,0,0,11,5.55,5.55,0,0,0,2.48-.62,6.07,6.07,0,0,0,1.54-1.12v1.84a7,7,0,0,1-4,1.3,6.9,6.9,0,1,1,.08-13.8,6.29,6.29,0,0,1,3.94,1.32Z"/><path class="cls-3" d="M60.35,134.66a5.85,5.85,0,0,1,3.24.74,3.71,3.71,0,0,1-1.9,6.64l4.24,6h-1.8l-4.06-5.84h-.38V148H58.21V134.66Zm-.66,6.18h.94c1.84,0,2.94-.88,2.94-2.44a2.08,2.08,0,0,0-1.06-2,3.81,3.81,0,0,0-1.92-.38h-.9Z"/><path class="cls-3" d="M75.17,136.06H69.73v4H75v1.4H69.73v5.18h5.44V148H68.25V134.66h6.92Zm-.6-4.8-3.06,2.34-.86-.64,2.52-2.6Z"/><path class="cls-3" d="M77.89,134.66h2.72a7.25,7.25,0,0,1,4.92,1.56,6.5,6.5,0,0,1,2.28,5.12,6.35,6.35,0,0,1-2.34,5.12A6.68,6.68,0,0,1,80.59,148h-2.7Zm1.48,11.94h1.3a5.7,5.7,0,0,0,3.82-1.2,5.1,5.1,0,0,0,1.8-4.06c0-3.2-2.24-5.28-5.62-5.28h-1.3Z"/><path class="cls-3" d="M92,134.66V148H90.53V134.66Z"/><path class="cls-3" d="M98.73,136.06V148H97.25V136.06H94v-1.4h8v1.4Z"/><path class="cls-3" d="M102.55,141.34a6.94,6.94,0,1,1,6.94,6.9A6.81,6.81,0,0,1,102.55,141.34Zm1.52,0a5.42,5.42,0,1,0,5.42-5.5A5.44,5.44,0,0,0,104.07,141.34Z"/><path class="cls-3" d="M233,120.12h1.65v1.36H233V124h-1.48v-2.52h-6.84L233,109.92Zm-1.48,0v-5.9l-4.22,5.9Z"/><path class="cls-3" d="M245.36,120.32a4.08,4.08,0,0,1-8.16,0,3.37,3.37,0,0,1,2-3.26,3.26,3.26,0,0,1-1.62-2.92,3.68,3.68,0,1,1,7.36,0,3.26,3.26,0,0,1-1.62,2.92A3.37,3.37,0,0,1,245.36,120.32Zm-1.48,0a2.6,2.6,0,0,0-5.2,0,2.6,2.6,0,0,0,5.2,0Zm-.32-6.12a2.28,2.28,0,1,0-2.28,2.3A2.25,2.25,0,0,0,243.56,114.16Z"/><path class="cls-3" d="M252.88,124l2.22-14.08,5.12,11.26,5.23-11.28,2.08,14.1H266l-1.26-9.28-4.55,9.84-4.48-9.84L254.4,124Z"/><path class="cls-3" d="M277.52,112.06h-5.44v4h5.28v1.4h-5.28v5.18h5.44V124H270.6V110.66h6.92Z"/><path class="cls-3" d="M286.2,113.3a3.21,3.21,0,0,0-.78-1,2.4,2.4,0,0,0-1.5-.46,2,2,0,0,0-2.24,2.06,1.4,1.4,0,0,0,.5,1.16,4.36,4.36,0,0,0,1.4.84l1.28.56a6.48,6.48,0,0,1,2.06,1.26,3.21,3.21,0,0,1,1,2.42,4.28,4.28,0,0,1-7.12,3,4.84,4.84,0,0,1-1.24-2.36l1.44-.4a3.15,3.15,0,0,0,.8,1.7,2.73,2.73,0,0,0,4.6-1.9,2,2,0,0,0-.66-1.56,5.82,5.82,0,0,0-1.6-.92l-1.2-.56a5.91,5.91,0,0,1-1.78-1.1,2.77,2.77,0,0,1-.92-2.18,3.45,3.45,0,0,1,3.74-3.44,3.61,3.61,0,0,1,2.14.6,4,4,0,0,1,1.3,1.48Z"/><path class="cls-3" d="M297.52,112.06h-5.44v4h5.28v1.4h-5.28v5.18h5.44V124H290.6V110.66h6.92Z"/><path class="cls-3" d="M306.2,113.3a3.21,3.21,0,0,0-.78-1,2.4,2.4,0,0,0-1.5-.46,2,2,0,0,0-2.24,2.06,1.4,1.4,0,0,0,.5,1.16,4.36,4.36,0,0,0,1.4.84l1.28.56a6.48,6.48,0,0,1,2.06,1.26,3.21,3.21,0,0,1,1,2.42,4.28,4.28,0,0,1-7.12,3,4.84,4.84,0,0,1-1.24-2.36l1.44-.4a3.15,3.15,0,0,0,.8,1.7,2.73,2.73,0,0,0,4.6-1.9,2,2,0,0,0-.66-1.56,5.82,5.82,0,0,0-1.6-.92l-1.2-.56a5.91,5.91,0,0,1-1.78-1.1,2.77,2.77,0,0,1-.92-2.18,3.45,3.45,0,0,1,3.74-3.44,3.61,3.61,0,0,1,2.14.6,4,4,0,0,1,1.3,1.48Z"/><path class="cls-3" d="M321.22,113.3a3.21,3.21,0,0,0-.78-1,2.4,2.4,0,0,0-1.5-.46,2,2,0,0,0-2.24,2.06,1.4,1.4,0,0,0,.5,1.16,4.36,4.36,0,0,0,1.4.84l1.28.56a6.48,6.48,0,0,1,2.06,1.26,3.21,3.21,0,0,1,1,2.42,4.28,4.28,0,0,1-7.12,3,4.84,4.84,0,0,1-1.24-2.36l1.44-.4a3.15,3.15,0,0,0,.8,1.7,2.73,2.73,0,0,0,4.6-1.9,2,2,0,0,0-.66-1.56,5.82,5.82,0,0,0-1.6-.92l-1.2-.56a5.91,5.91,0,0,1-1.78-1.1,2.77,2.77,0,0,1-.92-2.18,3.45,3.45,0,0,1,3.74-3.44,3.61,3.61,0,0,1,2.14.6,4,4,0,0,1,1.3,1.48Z"/><path class="cls-3" d="M327.1,110.66V124h-1.48V110.66Z"/><path class="cls-3" d="M330.54,124V110.1l10.4,10.9V110.66h1.48V124.6L332,113.7V124Z"/><path class="cls-3" d="M243.17,134.66V148h-1.48V134.66Z"/><path class="cls-3" d="M246.61,148V134.1L257,145V134.66h1.48V148.6l-10.41-10.9V148Z"/><path class="cls-3" d="M265.21,136.06V148h-1.48V136.06h-3.24v-1.4h8v1.4Z"/><path class="cls-3" d="M277.37,136.06h-5.44v4h5.28v1.4h-5.28v5.18h5.44V148h-6.92V134.66h6.92Z"/><path class="cls-3" d="M282.23,134.66a5.85,5.85,0,0,1,3.24.74,3.71,3.71,0,0,1-1.9,6.64l4.24,6H286L282,142.16h-.38V148h-1.48V134.66Zm-.66,6.18h.94c1.84,0,2.94-.88,2.94-2.44a2.08,2.08,0,0,0-1.06-2,3.81,3.81,0,0,0-1.92-.38h-.9Z"/><path class="cls-3" d="M297.05,136.06h-5.44v4h5.28v1.4h-5.28v5.18h5.44V148h-6.92V134.66h6.92Z"/><path class="cls-3" d="M305.73,137.3a3.21,3.21,0,0,0-.78-1,2.4,2.4,0,0,0-1.5-.46,2,2,0,0,0-2.24,2.06,1.4,1.4,0,0,0,.5,1.16,4.36,4.36,0,0,0,1.4.84l1.28.56a6.48,6.48,0,0,1,2.06,1.26,3.21,3.21,0,0,1,1,2.42,4.28,4.28,0,0,1-7.12,3,4.84,4.84,0,0,1-1.24-2.36l1.44-.4a3.15,3.15,0,0,0,.8,1.7,2.73,2.73,0,0,0,4.6-1.9,2,2,0,0,0-.66-1.56,5.82,5.82,0,0,0-1.6-.92l-1.2-.56a5.91,5.91,0,0,1-1.78-1.1,2.77,2.77,0,0,1-.92-2.18,3.45,3.45,0,0,1,3.74-3.44,3.61,3.61,0,0,1,2.14.6,4,4,0,0,1,1.3,1.48Z"/><path class="cls-3" d="M317.05,136.06h-5.44v4h5.28v1.4h-5.28v5.18h5.44V148h-6.92V134.66h6.92Z"/><path class="cls-3" d="M325.73,137.3a3.21,3.21,0,0,0-.78-1,2.4,2.4,0,0,0-1.5-.46,2,2,0,0,0-2.24,2.06,1.4,1.4,0,0,0,.5,1.16,4.36,4.36,0,0,0,1.4.84l1.28.56a6.48,6.48,0,0,1,2.06,1.26,3.21,3.21,0,0,1,1,2.42,4.28,4.28,0,0,1-7.12,3,4.84,4.84,0,0,1-1.24-2.36l1.44-.4a3.15,3.15,0,0,0,.8,1.7,2.73,2.73,0,0,0,4.6-1.9,2,2,0,0,0-.66-1.56,5.82,5.82,0,0,0-1.6-.92l-1.2-.56a5.91,5.91,0,0,1-1.78-1.1,2.77,2.77,0,0,1-.92-2.18,3.45,3.45,0,0,1,3.74-3.44,3.61,3.61,0,0,1,2.14.6,4,4,0,0,1,1.3,1.48Z"/><path class="cls-3" d="M422,113.3a3.21,3.21,0,0,0-.78-1,2.4,2.4,0,0,0-1.5-.46,2,2,0,0,0-2.24,2.06,1.4,1.4,0,0,0,.5,1.16,4.36,4.36,0,0,0,1.4.84l1.28.56a6.48,6.48,0,0,1,2.06,1.26,3.21,3.21,0,0,1,1,2.42,4.28,4.28,0,0,1-7.12,3,4.85,4.85,0,0,1-1.25-2.36l1.45-.4a3.15,3.15,0,0,0,.8,1.7,2.73,2.73,0,0,0,4.6-1.9,2,2,0,0,0-.66-1.56,5.82,5.82,0,0,0-1.6-.92l-1.2-.56a5.91,5.91,0,0,1-1.78-1.1,2.77,2.77,0,0,1-.92-2.18,3.45,3.45,0,0,1,3.74-3.44,3.61,3.61,0,0,1,2.14.6,4,4,0,0,1,1.3,1.48Z"/><path class="cls-3" d="M425.7,117.34a6.95,6.95,0,1,1,6.95,6.9A6.81,6.81,0,0,1,425.7,117.34Zm1.52,0a5.43,5.43,0,1,0,5.43-5.5A5.45,5.45,0,0,0,427.22,117.34Zm8.13-10.08-3.06,2.34-.86-.64,2.52-2.6Z"/><path class="cls-3" d="M443.79,110.66V122.6h3.68V124H442.3V110.66Z"/><path class="cls-3" d="M448.06,117.34a6.95,6.95,0,1,1,6.95,6.9A6.82,6.82,0,0,1,448.06,117.34Zm1.53,0a5.42,5.42,0,1,0,5.42-5.5A5.44,5.44,0,0,0,449.59,117.34Z"/><path class="cls-3" d="M472.93,112.06h-2.24l.77-1.4h3V124h-1.48Z"/><path class="cls-3" d="M480,122.24a9.63,9.63,0,0,1,0-9.8,3.92,3.92,0,0,1,6.84,0,9.63,9.63,0,0,1,0,9.8,3.92,3.92,0,0,1-6.84,0Zm1.12-9a8.9,8.9,0,0,0,0,8.12,2.53,2.53,0,0,0,4.6,0,8.9,8.9,0,0,0,0-8.12,2.53,2.53,0,0,0-4.6,0Z"/><path class="cls-3" d="M495.53,113.44a2.91,2.91,0,1,1-2.9-2.9A2.88,2.88,0,0,1,495.53,113.44Zm-1.2,0a1.71,1.71,0,1,0-1.7,1.8A1.73,1.73,0,0,0,494.33,113.44Zm5.34-3,.78.44-7.78,13.42-.79-.46Zm2.94,10.84a2.9,2.9,0,1,1-2.9-2.9A2.88,2.88,0,0,1,502.61,121.24Zm-1.2,0a1.7,1.7,0,1,0-1.7,1.8A1.73,1.73,0,0,0,501.41,121.24Z"/><path class="cls-3" d="M509.65,110.66h2.72a7.25,7.25,0,0,1,4.92,1.56,6.5,6.5,0,0,1,2.28,5.12,6.35,6.35,0,0,1-2.34,5.12,6.68,6.68,0,0,1-4.88,1.54h-2.7Zm1.48,11.94h1.3a5.7,5.7,0,0,0,3.82-1.2,5.1,5.1,0,0,0,1.8-4.06c0-3.2-2.24-5.28-5.62-5.28h-1.3Z"/><path class="cls-3" d="M529.21,112.06h-5.44v4h5.28v1.4h-5.28v5.18h5.44V124h-6.92V110.66h6.92Z"/><path class="cls-3" d="M431.41,136.06H426v4h5.29v1.4H426v5.18h5.45V148h-6.93V134.66h6.93Z"/><path class="cls-3" d="M434.12,148V134.1L444.53,145V134.66H446V148.6L435.6,137.7V148Z"/><path class="cls-3" d="M456.32,141.3h5.57v.32a7.35,7.35,0,0,1-1.28,4.22,6,6,0,0,1-5,2.4,6.9,6.9,0,1,1,0-13.8,6.69,6.69,0,0,1,4.09,1.32,8.16,8.16,0,0,1,1.54,1.58l-1.1,1A7.37,7.37,0,0,0,459,137a5,5,0,0,0-3.25-1.12,5.5,5.5,0,0,0,0,11,4.66,4.66,0,0,0,4.09-2.24,4.22,4.22,0,0,0,.54-1.9h-4Z"/><path class="cls-3" d="M472,144.24h-5.68l-1.6,3.76H463l6.14-14,6,14h-1.64Zm-.58-1.4-2.24-5.34-2.28,5.34Z"/><path class="cls-3" d="M477,148V134.1L487.45,145V134.66h1.47V148.6l-10.4-10.9V148Z"/><path class="cls-3" d="M502.57,137.6a6.57,6.57,0,0,0-1.74-1.24,5.73,5.73,0,0,0-2.31-.52,5.5,5.5,0,0,0,0,11,5.55,5.55,0,0,0,2.48-.62,6,6,0,0,0,1.55-1.12v1.84a7,7,0,0,1-4,1.3,6.9,6.9,0,1,1,.08-13.8,6.33,6.33,0,0,1,3.95,1.32Z"/><path class="cls-3" d="M506.76,140.08h6.84v-5.42h1.49V148H513.6v-6.52h-6.84V148h-1.48V134.66h1.48Z"/><path class="cls-3" d="M525.44,136.06H520v4h5.28v1.4H520v5.18h5.44V148h-6.92V134.66h6.92Z"/><path class="cls-3" d="M97.69,26H45.06a1.67,1.67,0,0,0-1.67,1.67V66.39a1.67,1.67,0,0,0,1.67,1.67H81.43A20.49,20.49,0,0,1,81.09,66H77.72V59.57h3.7c.08-.37.17-.74.27-1.1h-4V52.06h7c.27-.38.56-.74.86-1.1H77.72V44.55h9.22v5a20.35,20.35,0,0,1,1.64-1.44V44.55h6.87a20.27,20.27,0,0,1,3.91-.71V27.62A1.67,1.67,0,0,0,97.69,26ZM54.36,66H45.13V59.57h9.23Zm0-7.51H45.13V52.06h9.23Zm0-7.51H45.13V44.55h9.23Zm0-7.51H45.13V37h9.23ZM65.22,66H56V59.57h9.23Zm0-7.51H56V52.06h9.23Zm0-7.51H56V44.55h9.23Zm0-7.51H56V37h9.23ZM76.08,66H66.85V59.57h9.23Zm0-7.51H66.85V52.06h9.23Zm0-7.51H66.85V44.55h9.23Zm0-7.51H66.85V37h9.23Zm10.86,0H77.72V37h9.22ZM58.73,34.18V28.64H96.59v5.54Zm39.08,9.27H88.58V37h9.23Z"/><rect class="cls-3" x="60.32" y="35.62" width="0.54" height="9.26" transform="translate(-7.02 67.07) rotate(-55.23)"/><rect class="cls-3" x="55.97" y="39.97" width="9.26" height="0.54" transform="translate(-12.13 41.71) rotate(-34.74)"/><rect class="cls-3" x="71.18" y="35.62" width="0.54" height="9.26" transform="translate(-2.35 75.99) rotate(-55.23)"/><rect class="cls-3" x="66.82" y="39.97" width="9.26" height="0.54" transform="translate(-10.2 47.89) rotate(-34.74)"/><rect class="cls-3" x="60.32" y="43.11" width="0.54" height="9.26" transform="translate(-13.17 70.3) rotate(-55.23)"/><rect class="cls-3" x="55.97" y="47.47" width="9.26" height="0.54" transform="translate(-16.4 43.05) rotate(-34.74)"/><rect class="cls-3" x="49.34" y="35.62" width="0.54" height="9.26" transform="translate(-11.74 58.05) rotate(-55.23)"/><rect class="cls-3" x="44.99" y="39.97" width="9.26" height="0.54" transform="translate(-14.09 35.45) rotate(-34.74)"/><rect class="cls-3" x="49.34" y="43.11" width="0.54" height="9.26" transform="matrix(0.57, -0.82, 0.82, 0.57, -17.89, 61.27)"/><rect class="cls-3" x="44.99" y="47.47" width="9.26" height="0.54" transform="translate(-18.36 36.79) rotate(-34.74)"/><rect class="cls-3" x="71.18" y="43.11" width="0.54" height="9.26" transform="matrix(0.57, -0.82, 0.82, 0.57, -8.51, 79.21)"/><rect class="cls-3" x="66.82" y="47.47" width="9.26" height="0.54" transform="translate(-14.47 49.23) rotate(-34.74)"/><rect class="cls-3" x="82.03" y="35.62" width="0.54" height="9.26" transform="translate(2.31 84.9) rotate(-55.23)"/><rect class="cls-3" x="77.67" y="39.97" width="9.26" height="0.54" transform="translate(-8.26 54.08) rotate(-34.74)"/><rect class="cls-3" x="92.88" y="35.62" width="0.54" height="9.26" transform="translate(6.97 93.82) rotate(-55.23)"/><rect class="cls-3" x="88.52" y="39.97" width="9.26" height="0.54" transform="translate(-6.33 60.26) rotate(-34.74)"/><path class="cls-3" d="M101,43.78c-.55,0-1.09,0-1.63.06a20.27,20.27,0,0,0-3.91.71,19.87,19.87,0,0,0-6.87,3.54,20.35,20.35,0,0,0-1.64,1.44c-.46.46-.9.93-1.31,1.43s-.59.72-.86,1.1a19.71,19.71,0,0,0-3.08,6.41c-.1.36-.19.73-.27,1.1A20.28,20.28,0,0,0,81,63.79,19.82,19.82,0,0,0,81.09,66a20.49,20.49,0,0,0,.34,2.08A20,20,0,1,0,101,43.78ZM101,80A16.18,16.18,0,0,1,85.38,68.06,16,16,0,0,1,85,66a17.64,17.64,0,0,1-.14-2.19,15.91,15.91,0,0,1,.56-4.22,10.74,10.74,0,0,1,.34-1.1,15.51,15.51,0,0,1,1.23-2.72,16.86,16.86,0,0,1,2.9-3.69A15,15,0,0,1,91.13,51a16.11,16.11,0,0,1,6.68-3c.5-.1,1-.17,1.55-.23s1.08-.08,1.63-.08A16.18,16.18,0,1,1,101,80Z"/><polygon class="cls-3" points="112.33 71.57 100.17 64.25 100.17 56.06 101.8 56.06 101.8 63.33 113.17 70.18 112.33 71.57"/><path class="cls-3" d="M42.15,83.87a49.16,49.16,0,1,1,76.7,0h5a53.12,53.12,0,1,0-86.6,0Z"/><path class="cls-3" d="M476.31,80.85A10.21,10.21,0,1,0,466.1,70.64,10.21,10.21,0,0,0,476.31,80.85Zm0-18.15a7.94,7.94,0,1,1-7.94,7.94A7.93,7.93,0,0,1,476.31,62.7Z"/><path class="cls-3" d="M474,72.91h-2.27a3.41,3.41,0,0,0,3.41,3.4v1.14h2.27V76.31a3.41,3.41,0,0,0,0-6.81V67.24a1.13,1.13,0,0,1,1.13,1.13h2.27a3.4,3.4,0,0,0-3.4-3.4V63.83h-2.27V65a3.4,3.4,0,1,0,0,6.8V74A1.14,1.14,0,0,1,474,72.91Zm0-4.54a1.13,1.13,0,0,1,1.14-1.13V69.5A1.13,1.13,0,0,1,474,68.37Zm3.41,3.4a1.14,1.14,0,0,1,0,2.27Z"/><path class="cls-3" d="M504.67,50.22H499V41.15l1.7,1a1.13,1.13,0,0,0,1.54-.4l3.4-5.67a1.13,1.13,0,0,0-.42-1.58l-8.49-4.68V21.86h1.13A1.14,1.14,0,0,0,499,20.73V17.32a1.14,1.14,0,0,0-1.14-1.13H486.52a1.13,1.13,0,0,0-1.13,1.13v3.41a1.13,1.13,0,0,0,1.13,1.13h1.13v2.93l-15.33-8.46a1.11,1.11,0,0,0-1.09,0l-32.9,18.15a1.13,1.13,0,0,0-.42,1.58l3.4,5.67a1.13,1.13,0,0,0,1.54.4l2.83-1.64V72.91h-2.26A1.14,1.14,0,0,0,442.28,74v5.67a1.14,1.14,0,0,0,1.14,1.14h10.2v2.27a1.14,1.14,0,0,0,1.14,1.13h43.1A1.14,1.14,0,0,0,499,83.12h2.27A1.14,1.14,0,0,0,502.4,82V79.71h2.27a1.12,1.12,0,0,0,1.13-1.13V51.36A1.13,1.13,0,0,0,504.67,50.22Zm-17-31.76h9.08v1.13h-9.08Zm2.27,3.4h4.54v6.69L489.92,26ZM442.68,39.61l-2.22-3.71,31.31-17.28L503.09,35.9l-2.22,3.71L472.34,23.15a1.14,1.14,0,0,0-1.13,0Zm5.27-.43,23.82-13.74,25,14.4V50.22H458.16A1.14,1.14,0,0,0,457,51.36v2.26h-1.14a1.14,1.14,0,0,0-1.13,1.14V57a1.13,1.13,0,0,0-1.14,1.13V72.91H448Zm48.78,23.37a4.55,4.55,0,0,1-3.26-3.25h3.26Zm-5.57-3.25a6.8,6.8,0,0,0,5.57,5.56V76.41A6.82,6.82,0,0,0,491.16,82h-29.7a6.81,6.81,0,0,0-5.57-5.57V64.86a6.79,6.79,0,0,0,5.57-5.56Zm-35.27,3.24V59.3h3.25A4.57,4.57,0,0,1,455.89,62.54Zm-11.34,16v-3.4h9.07v3.4Zm11.34.16A4.57,4.57,0,0,1,459.14,82h-3.25ZM496.73,82h-3.26a4.58,4.58,0,0,1,3.26-3.26Zm3.4-1.13H499V58.16A1.13,1.13,0,0,0,497.86,57H457V55.89h43.1Zm3.41-3.4H502.4V54.76a1.14,1.14,0,0,0-1.13-1.14h-42V52.49h44.24Z"/><path class="cls-3" d="M466.1,45.68h11.35a1.13,1.13,0,0,0,1.13-1.13V33.21a1.14,1.14,0,0,0-1.13-1.14H466.1A1.14,1.14,0,0,0,465,33.21V44.55A1.13,1.13,0,0,0,466.1,45.68ZM467.24,40h3.4v3.4h-3.4Zm5.67,3.4V40h3.4v3.4Zm3.4-5.67h-3.4v-3.4h3.4Zm-5.67-3.4v3.4h-3.4v-3.4Z"/><path class="cls-3" d="M436.25,84.87a49.17,49.17,0,1,1,76.7,0h5a53.13,53.13,0,1,0-86.61,0Z"/><path class="cls-3" d="M245.84,84.87a49.17,49.17,0,1,1,76.7,0h5a53.13,53.13,0,1,0-86.61,0Z"/><path class="cls-3" d="M250.61,84.56h33.32v-2h-32.3V24.56h27.7v8.2a1,1,0,0,0,1,1h8.2V59.85h2.05V32.76s0,0,0-.06a.75.75,0,0,0-.05-.26.3.3,0,0,0,0-.1,1,1,0,0,0-.2-.3l-7.48-7.48h9.84V59.85h2.05V24.56h2V59.85h2.05V23.53a1,1,0,0,0-1-1H250.61a1,1,0,0,0-1,1v60A1,1,0,0,0,250.61,84.56Zm30.77-52.82V26l5.73,5.73Z"/><path class="cls-3" d="M282.43,67.9V57.16l1.58,1a1,1,0,0,0,1.08,0,1.08,1.08,0,0,0,.55-.94V53a1.09,1.09,0,0,0-.51-.91l-3.76-2.31V44.41a1.07,1.07,0,0,0-1.07-1.07H276A1.07,1.07,0,0,0,275,44.41v1.37l-3.71-2.28a1.07,1.07,0,0,0-1.12,0L256.25,52a1.07,1.07,0,0,0-.51.91v4.27a1.09,1.09,0,0,0,.54.94,1,1,0,0,0,1.08,0l1.58-1V67.9A1.07,1.07,0,0,0,260,69h21.36A1.06,1.06,0,0,0,282.43,67.9Zm-5.34-22.42h2.14v2.93l-2.14-1.31Zm-19.22,8.07,12.82-7.89,12.81,7.89v1.76l-12.25-7.54a1.07,1.07,0,0,0-1.12,0l-12.26,7.54Zm10.68,13.28v-6.4h4.27v6.4Zm6.41,0V59.36a1.07,1.07,0,0,0-1.07-1.07h-6.41a1.06,1.06,0,0,0-1.06,1.07v7.47h-5.34v-11l9.61-5.92,9.61,5.92v11Z"/><path class="cls-3" d="M255.74,27.63h13.33v2.06H255.74Z"/><path class="cls-3" d="M255.74,31.74h21.54v2.05H255.74Z"/><path class="cls-3" d="M255.74,36.47h29.74v2.06H255.74Z"/><path class="cls-3" d="M255.74,72.25h30.14l-.42,2.06H255.74Z"/><path class="cls-3" d="M255.74,76.36h6.15v2h-6.15Z"/><path class="cls-3" d="M263.94,76.36h21.12l-.37,2H263.94Z"/><path class="cls-3" d="M271.12,27.63h6.16v2.06h-6.16Z"/><path class="cls-3" d="M290.23,65.47h2.22l4.2,10,4.38-10h2.23l2.65,15.8h-3.13l-1.42-9.73-4.24,9.73h-1L292,71.54l-1.61,9.73h-3.13Z"/><path class="cls-3" d="M314.29,69.07a3.08,3.08,0,0,0-2.58-1.35c-1.66,0-2.18,1-2.18,1.85a1.33,1.33,0,0,0,.5,1.07,5.59,5.59,0,0,0,1.89.9,8.89,8.89,0,0,1,3.2,1.59,4.29,4.29,0,0,1,1.35,3.31c0,3.08-2.22,5.19-5.49,5.19a6.5,6.5,0,0,1-5.45-3l2-1.91a3.69,3.69,0,0,0,3.32,2.1,2.21,2.21,0,0,0,2.44-2.18,1.85,1.85,0,0,0-.62-1.42,7.18,7.18,0,0,0-2.44-1.16,7.56,7.56,0,0,1-2.63-1.37,3.69,3.69,0,0,1-1.25-2.94c0-2.32,1.56-4.64,5.07-4.64A6.07,6.07,0,0,1,315.9,67Z"/><path class="cls-3" d="M320.07,65.47v15.8H317V65.47Z"/><rect class="cls-3" x="287.17" y="82.52" width="32.85" height="2.14"/><rect class="cls-3" x="287.17" y="62.14" width="32.85" height="2.14"/><path class="cls-3" d="M7.4,221.87V199.29L24.29,217V200.2H26.7v22.64L9.8,205.14v16.73Z"/><path class="cls-3" d="M45.56,215.76H36.34l-2.6,6.11H31.07l10-22.71,9.71,22.71H48.1Zm-.94-2.27L41,204.82l-3.7,8.67Z"/><path class="cls-3" d="M55.14,200.2h4.42a11.77,11.77,0,0,1,8,2.54,10.54,10.54,0,0,1,3.7,8.31,10.31,10.31,0,0,1-3.8,8.32c-2,1.69-4.06,2.5-7.92,2.5H55.14Zm2.41,19.4h2.11a9.27,9.27,0,0,0,6.2-1.95,8.29,8.29,0,0,0,2.93-6.6c0-5.2-3.64-8.57-9.13-8.57H57.55Z"/><path class="cls-3" d="M89,215.76H79.73l-2.6,6.11H74.46l10-22.71,9.71,22.71H91.49ZM88,213.49l-3.64-8.67-3.7,8.67Z"/><path class="cls-3" d="M124,205a10.42,10.42,0,0,0-2.83-2,9.19,9.19,0,0,0-3.73-.84,8.94,8.94,0,0,0,0,17.87,9.1,9.1,0,0,0,4-1,10,10,0,0,0,2.5-1.82v3a11.29,11.29,0,0,1-6.53,2.11,11.21,11.21,0,1,1,.13-22.42A10.24,10.24,0,0,1,124,202Z"/><path class="cls-3" d="M128.57,211.05a11.28,11.28,0,1,1,11.28,11.21A11.07,11.07,0,0,1,128.57,211.05Zm2.47,0a8.81,8.81,0,1,0,8.81-8.93A8.85,8.85,0,0,0,131,211.05Z"/><path class="cls-3" d="M156.12,221.87l3.6-22.87L168,217.29,176.52,199l3.38,22.9h-2.47l-2.05-15.07-7.37,16-7.28-16-2.14,15.07Z"/><path class="cls-3" d="M190.16,200.2c2.17,0,4,.26,5.45,1.53a6,6,0,0,1,2,4.64c0,3.06-1.92,6.08-6.86,6.08h-2.11v9.42h-2.41V200.2Zm-1.53,10h2c2.86,0,4.58-1.42,4.58-3.93,0-3.44-3.22-3.76-4.77-3.76h-1.79Z"/><path class="cls-3" d="M204.77,200.2v19.4h6v2.27h-8.38V200.2Z"/><path class="cls-3" d="M217.73,200.2v21.67h-2.4V200.2Z"/><path class="cls-3" d="M241.21,205a10.52,10.52,0,0,0-2.82-2,9.24,9.24,0,0,0-3.74-.84,8.94,8.94,0,0,0,0,17.87,9,9,0,0,0,4-1,9.8,9.8,0,0,0,2.5-1.82v3a11.27,11.27,0,0,1-6.53,2.11,11.21,11.21,0,1,1,.13-22.42,10.22,10.22,0,0,1,6.4,2.15Z"/><path class="cls-3" d="M258.91,215.76h-9.22l-2.6,6.11h-2.66l10-22.71,9.71,22.71h-2.66Zm-.94-2.27-3.64-8.67-3.7,8.67Z"/><path class="cls-3" d="M268.49,200.2h4.42a11.77,11.77,0,0,1,8,2.54,10.54,10.54,0,0,1,3.71,8.31,10.32,10.32,0,0,1-3.81,8.32c-2,1.69-4.06,2.5-7.92,2.5h-4.39Zm2.41,19.4H273a9.27,9.27,0,0,0,6.2-1.95,8.29,8.29,0,0,0,2.93-6.6c0-5.2-3.64-8.57-9.13-8.57H270.9Z"/><path class="cls-3" d="M289.18,211.05a11.28,11.28,0,1,1,11.27,11.21A11.06,11.06,0,0,1,289.18,211.05Zm2.47,0a8.81,8.81,0,1,0,8.8-8.93A8.84,8.84,0,0,0,291.65,211.05Z"/><path class="cls-3" d="M318.38,219a1.63,1.63,0,1,1-1.62,1.62A1.64,1.64,0,0,1,318.38,219Z"/><path class="cls-3" d="M327.12,219a1.63,1.63,0,1,1-1.63,1.62A1.65,1.65,0,0,1,327.12,219Z"/><path class="cls-3" d="M335.85,219a1.63,1.63,0,1,1-1.62,1.62A1.65,1.65,0,0,1,335.85,219Z"/><path class="cls-3" d="M24.88,255.4A9.6,9.6,0,0,0,17.56,252a9.86,9.86,0,0,0,0,19.72,10.11,10.11,0,0,0,7.28-3.28v1.88a10.9,10.9,0,0,1-7.22,2.7,11.16,11.16,0,1,1-.06-22.32,10.59,10.59,0,0,1,7.28,2.83Z"/><path class="cls-3" d="M30.3,259.4h1.29v1.72a3.14,3.14,0,0,1,2.93-2,3,3,0,0,1,1.39.33l-.64,1.17a1.52,1.52,0,0,0-1-.26c-2.66,0-2.7,3.54-2.7,5.2v7.11H30.3Z"/><path class="cls-3" d="M40.59,266.18a5.32,5.32,0,0,0,5.26,5.59,5,5,0,0,0,4.61-3l1.11.65A6.39,6.39,0,0,1,45.76,273c-4.13,0-6.54-3.06-6.54-6.92,0-4.62,3.19-7,6.44-7,3.57,0,6.27,2.86,6.27,7.08Zm10-1.23a5,5,0,0,0-4.9-4.61,5.06,5.06,0,0,0-5,4.61Zm-1.75-11.63-3.41,4.16-1-.52,3-4.45Z"/><path class="cls-3" d="M67.87,249h1.3v23.68h-1.3v-2.37A6,6,0,0,1,62.74,273c-3.35,0-6.5-2.41-6.5-7.05,0-4.84,3.29-6.86,6.5-6.86a6,6,0,0,1,5.13,2.6Zm-10.26,17c0,3.87,2.53,5.85,5.2,5.85s5.13-2,5.13-5.85c0-3.08-1.92-5.58-5.2-5.58C60,260.34,57.61,262.22,57.61,265.92Z"/><path class="cls-3" d="M74.66,255a1.17,1.17,0,1,1,1.17,1.2A1.15,1.15,0,0,1,74.66,255Zm1.82,4.42v13.25h-1.3V259.4Z"/><path class="cls-3" d="M83.88,260.63v12h-1.3v-12H81.12V259.4h1.46v-4.75h1.3v4.75h2.31v1.23Z"/><path class="cls-3" d="M103.18,266.05a7,7,0,1,1-7-6.95A6.84,6.84,0,0,1,103.18,266.05Zm-1.37,0a5.59,5.59,0,1,0-5.58,5.72A5.55,5.55,0,0,0,101.81,266.05Z"/><path class="cls-3" d="M117.82,272.65V251h4.29a10.93,10.93,0,0,1,8,3,11.35,11.35,0,0,1,0,15.63,10.93,10.93,0,0,1-8,3Zm1.43-1.3h2.83c5.72,0,9.65-3.9,9.65-9.52a9.23,9.23,0,0,0-9.65-9.55h-2.83Z"/><path class="cls-3" d="M138.12,255a1.17,1.17,0,1,1,1.17,1.2A1.15,1.15,0,0,1,138.12,255Zm1.82,4.42v13.25h-1.3V259.4Z"/><path class="cls-3" d="M146,259.4h1.3v1.72a3.12,3.12,0,0,1,4.32-1.69l-.65,1.17a1.49,1.49,0,0,0-1-.26c-2.66,0-2.69,3.54-2.69,5.2v7.11H146Z"/><path class="cls-3" d="M156.24,266.18a5.32,5.32,0,0,0,5.27,5.59,5.07,5.07,0,0,0,4.61-3l1.1.65a6.39,6.39,0,0,1-5.81,3.61c-4.13,0-6.53-3.06-6.53-6.92,0-4.62,3.18-7,6.43-7,3.57,0,6.27,2.86,6.27,7.08Zm10-1.23a5,5,0,0,0-4.91-4.61,5.07,5.07,0,0,0-5,4.61Z"/><path class="cls-3" d="M183.37,262.51a6.09,6.09,0,0,0-4.58-2.17,5.72,5.72,0,0,0-.07,11.43,6.67,6.67,0,0,0,4.81-2.37v1.76a7.28,7.28,0,0,1-4.84,1.85,7,7,0,0,1,.1-13.91,7,7,0,0,1,4.58,1.69Z"/><path class="cls-3" d="M189.83,260.63v12h-1.3v-12h-1.47V259.4h1.47v-4.75h1.3v4.75h2.3v1.23Z"/><path class="cls-3" d="M209.12,266.05a6.95,6.95,0,1,1-7-6.95A6.84,6.84,0,0,1,209.12,266.05Zm-1.36,0a5.59,5.59,0,1,0-5.59,5.72A5.56,5.56,0,0,0,207.76,266.05Z"/><path class="cls-3" d="M228.83,261.83a2.41,2.41,0,0,0-2.3-1.49,2.13,2.13,0,0,0-2.24,2.11c0,1.3,1,1.72,2.33,2.24s2.57.88,3.42,1.95a3.2,3.2,0,0,1,.68,2.14A4.06,4.06,0,0,1,226.4,273a4.53,4.53,0,0,1-4.58-3.51l1.26-.39a3.39,3.39,0,0,0,3.32,2.66,2.83,2.83,0,0,0,2.95-2.92c0-1.5-.94-2.05-2.95-2.86a6.47,6.47,0,0,1-2.89-1.75,2.76,2.76,0,0,1-.59-1.73,3.37,3.37,0,0,1,3.54-3.41,3.58,3.58,0,0,1,3.48,2.15Z"/><path class="cls-3" d="M234.84,255a1.17,1.17,0,1,1,1.17,1.2A1.15,1.15,0,0,1,234.84,255Zm1.82,4.42v13.25h-1.3V259.4Z"/><path class="cls-3" d="M242.67,259.4H244v2.07A4.42,4.42,0,0,1,248,259.1,4.12,4.12,0,0,1,251.7,261a6.46,6.46,0,0,1,.65,3.35v8.35h-1.3V264.3a4.86,4.86,0,0,0-.52-2.66,2.81,2.81,0,0,0-2.6-1.3,3.49,3.49,0,0,0-3.25,1.85,7.24,7.24,0,0,0-.71,3.57v6.89h-1.3Z"/><path class="cls-3" d="M16.62,303.32l-7-10.23H9v10.23H7.53V281.66h3.11a7.64,7.64,0,0,1,4.59,1.1,5.4,5.4,0,0,1,2.24,4.65,5.2,5.2,0,0,1-3.64,5.26,8.28,8.28,0,0,1-2.66.42l7.08,10.23ZM9,291.79H11c3.08,0,4.93-1.62,4.93-4.42a4.06,4.06,0,0,0-1.91-3.77,7.73,7.73,0,0,0-3.32-.65H9Z"/><path class="cls-3" d="M22.63,296.86a5.32,5.32,0,0,0,5.26,5.59,5,5,0,0,0,4.61-3l1.11.65a6.4,6.4,0,0,1-5.81,3.61c-4.13,0-6.54-3.05-6.54-6.92,0-4.61,3.19-7,6.44-7,3.57,0,6.27,2.86,6.27,7.08Zm10-1.24A5,5,0,0,0,27.7,291a5.06,5.06,0,0,0-5,4.61Z"/><path class="cls-3" d="M37.8,290.07l4.67,11,4.62-11h1.43l-6.05,14.07-6.1-14.07Z"/><path class="cls-3" d="M51.92,285.65a1.17,1.17,0,1,1,1.17,1.2A1.15,1.15,0,0,1,51.92,285.65Zm1.82,4.42v13.25h-1.3V290.07Z"/><path class="cls-3" d="M65.4,292.51a2.42,2.42,0,0,0-2.3-1.5,2.13,2.13,0,0,0-2.24,2.11c0,1.3,1,1.72,2.33,2.24s2.57.88,3.42,1.95a3.21,3.21,0,0,1,.68,2.15A4,4,0,0,1,63,303.68a4.53,4.53,0,0,1-4.58-3.51l1.26-.39A3.39,3.39,0,0,0,63,302.45a2.84,2.84,0,0,0,3-2.93c0-1.49-.94-2-3-2.86a6.47,6.47,0,0,1-2.89-1.75,2.73,2.73,0,0,1-.59-1.72A3.36,3.36,0,0,1,63,289.78a3.57,3.57,0,0,1,3.48,2.14Z"/><path class="cls-3" d="M71.41,285.65a1.17,1.17,0,1,1,1.17,1.2A1.15,1.15,0,0,1,71.41,285.65Zm1.82,4.42v13.25h-1.3V290.07Z"/><path class="cls-3" d="M92.3,296.73a7,7,0,1,1-7-7A6.84,6.84,0,0,1,92.3,296.73Zm-1.37,0a5.59,5.59,0,1,0-5.58,5.72A5.55,5.55,0,0,0,90.93,296.73ZM88.2,284l-3.41,4.16-1-.52,3-4.45Z"/><path class="cls-3" d="M97.46,290.07h1.3v2.08a4.42,4.42,0,0,1,4.06-2.37,4.1,4.1,0,0,1,3.67,1.85,6.4,6.4,0,0,1,.65,3.34v8.35h-1.3V295a4.88,4.88,0,0,0-.52-2.66,2.81,2.81,0,0,0-2.6-1.3,3.5,3.5,0,0,0-3.25,1.85,7.28,7.28,0,0,0-.71,3.58v6.88h-1.3Z"/><path class="cls-3" d="M132.83,279.64h1.3v23.68h-1.3V301a6,6,0,0,1-5.13,2.73c-3.35,0-6.5-2.4-6.5-7.05,0-4.84,3.28-6.85,6.5-6.85a6,6,0,0,1,5.13,2.59Zm-10.27,17c0,3.86,2.54,5.85,5.2,5.85s5.13-2,5.13-5.85c0-3.09-1.91-5.59-5.19-5.59C125,291,122.56,292.9,122.56,296.6Z"/><path class="cls-3" d="M140.65,296.86a5.32,5.32,0,0,0,5.27,5.59,5.05,5.05,0,0,0,4.61-3l1.1.65a6.38,6.38,0,0,1-5.81,3.61c-4.13,0-6.53-3.05-6.53-6.92,0-4.61,3.18-7,6.43-7,3.58,0,6.27,2.86,6.27,7.08Zm10-1.24a5,5,0,0,0-4.91-4.61,5.07,5.07,0,0,0-5,4.61Z"/><path class="cls-3" d="M166.64,281.66h4.74c3.77,0,6,2.17,6,5.42a5.27,5.27,0,0,1-2.54,4.74,5.19,5.19,0,0,1,4.48,5.43c0,3.8-2.79,6.07-6.72,6.07h-5.94Zm1.43,9.81h3.44a4.16,4.16,0,0,0,3-.91,4.09,4.09,0,0,0,1.43-3.32,4.2,4.2,0,0,0-1.46-3.38,5.69,5.69,0,0,0-3.6-.91h-2.76Zm0,10.55h3.63a6.56,6.56,0,0,0,4.71-1.3,4.2,4.2,0,0,0,1.4-3.31,4,4,0,0,0-2.31-4,9.63,9.63,0,0,0-4.06-.61h-3.37Z"/><path class="cls-3" d="M186,290.07v8a5.13,5.13,0,0,0,.84,3.31,3.74,3.74,0,0,0,5.26,0,5.08,5.08,0,0,0,.85-3.31v-8h1.3v8.35a5.73,5.73,0,0,1-1,3.64,5.2,5.2,0,0,1-7.54,0,5.72,5.72,0,0,1-1-3.64v-8.35Z"/><path class="cls-3" d="M200.28,290.07h1.3v1.72a3.13,3.13,0,0,1,2.93-2,3,3,0,0,1,1.39.32l-.65,1.17a1.43,1.43,0,0,0-1-.26c-2.66,0-2.7,3.54-2.7,5.2v7.11h-1.3Z"/><path class="cls-3" d="M222.44,296.73a7,7,0,1,1-6.95-7A6.84,6.84,0,0,1,222.44,296.73Zm-1.37,0a5.59,5.59,0,1,0-5.58,5.72A5.55,5.55,0,0,0,221.07,296.73ZM218.34,284l-3.41,4.16-1-.52,3-4.45Z"/><path class="cls-3" d="M52.47,359.44v15.68h-1V359.44Z"/><path class="cls-3" d="M55.64,365.53h.94V367a3.21,3.21,0,0,1,2.94-1.71,3,3,0,0,1,2.65,1.34,4.54,4.54,0,0,1,.47,2.42v6h-.93v-6a3.59,3.59,0,0,0-.38-1.93,2,2,0,0,0-1.88-.94,2.52,2.52,0,0,0-2.35,1.34,5.26,5.26,0,0,0-.52,2.59v5h-.94Z"/><path class="cls-3" d="M64.93,365.53l3.38,8,3.34-8h1L68.31,375.7l-4.42-10.17Z"/><path class="cls-3" d="M73.55,362.33a.85.85,0,1,1,1.69,0,.85.85,0,1,1-1.69,0Zm1.32,3.2v9.59h-.94v-9.59Z"/><path class="cls-3" d="M78,370.44a3.85,3.85,0,0,0,3.81,4,3.66,3.66,0,0,0,3.34-2.18l.8.47a4.65,4.65,0,0,1-4.21,2.61c-3,0-4.72-2.21-4.72-5,0-3.34,2.3-5.05,4.65-5.05,2.59,0,4.54,2.07,4.54,5.12Zm7.22-.89a3.61,3.61,0,0,0-3.55-3.34,3.65,3.65,0,0,0-3.59,3.34Z"/><path class="cls-3" d="M88.34,365.53h.94v1.25a2.25,2.25,0,0,1,2.11-1.46,2.31,2.31,0,0,1,1,.23l-.47.85a1.06,1.06,0,0,0-.7-.19c-1.93,0-2,2.56-2,3.76v5.15h-.94Z"/><path class="cls-3" d="M94.82,366.42v8.7h-.94v-8.7h-1v-.89h1V362.1h.94v3.43h1.67v.89Z"/><path class="cls-3" d="M98.12,370.44a3.85,3.85,0,0,0,3.8,4,3.66,3.66,0,0,0,3.34-2.18l.8.47a4.65,4.65,0,0,1-4.21,2.61c-3,0-4.72-2.21-4.72-5,0-3.34,2.3-5.05,4.65-5.05,2.59,0,4.54,2.07,4.54,5.12Zm7.21-.89a3.61,3.61,0,0,0-3.55-3.34,3.65,3.65,0,0,0-3.59,3.34Z"/><path class="cls-3" d="M121.1,358H122v17.13h-.94V373.4a4.37,4.37,0,0,1-3.71,2c-2.42,0-4.7-1.74-4.7-5.1s2.37-5,4.7-5a4.33,4.33,0,0,1,3.71,1.88Zm-7.43,12.26c0,2.8,1.84,4.23,3.76,4.23s3.72-1.43,3.72-4.23a3.73,3.73,0,0,0-3.76-4C115.41,366.21,113.67,367.57,113.67,370.25Z"/><path class="cls-3" d="M125.17,370.44a3.85,3.85,0,0,0,3.81,4,3.64,3.64,0,0,0,3.33-2.18l.8.47a4.63,4.63,0,0,1-4.21,2.61c-3,0-4.72-2.21-4.72-5,0-3.34,2.3-5.05,4.65-5.05,2.59,0,4.54,2.07,4.54,5.12Zm7.21-.89a3.59,3.59,0,0,0-3.55-3.34,3.66,3.66,0,0,0-3.59,3.34Z"/><path class="cls-3" d="M140,362.33a.85.85,0,1,1,.84.87A.83.83,0,0,1,140,362.33Zm1.31,3.2v9.59h-.94v-9.59Z"/><path class="cls-3" d="M144,365.53H145V367a3.21,3.21,0,0,1,2.94-1.71,3,3,0,0,1,2.66,1.34,4.64,4.64,0,0,1,.47,2.42v6h-.94v-6a3.59,3.59,0,0,0-.38-1.93,2,2,0,0,0-1.88-.94,2.52,2.52,0,0,0-2.35,1.34,5.26,5.26,0,0,0-.52,2.59v5H144Z"/><path class="cls-3" d="M153.8,365.53h.94v1.2a2.72,2.72,0,0,1,2.49-1.41,2.64,2.64,0,0,1,2.68,1.74,3,3,0,0,1,2.84-1.74,2.89,2.89,0,0,1,2.16.8,3.47,3.47,0,0,1,.82,2.61v6.39h-.93v-6.39a2.78,2.78,0,0,0-.57-2,1.93,1.93,0,0,0-1.43-.54c-2.54,0-2.56,2.54-2.56,3.13v5.78h-.94V369c0-.61-.05-2.75-2.12-2.75-1.67,0-2.44,1.46-2.44,3.36v5.55h-.94Z"/><path class="cls-3" d="M168.86,370.44a3.85,3.85,0,0,0,3.81,4A3.66,3.66,0,0,0,176,372.3l.8.47a4.65,4.65,0,0,1-4.21,2.61c-3,0-4.72-2.21-4.72-5,0-3.34,2.3-5.05,4.65-5.05,2.58,0,4.53,2.07,4.53,5.12Zm7.22-.89a3.61,3.61,0,0,0-3.55-3.34,3.67,3.67,0,0,0-3.6,3.34Z"/><path class="cls-3" d="M187,358H188v17.13H187V373.4a4.39,4.39,0,0,1-3.72,2c-2.42,0-4.7-1.74-4.7-5.1s2.38-5,4.7-5A4.35,4.35,0,0,1,187,367.2Zm-7.43,12.26c0,2.8,1.83,4.23,3.76,4.23s3.71-1.43,3.71-4.23a3.72,3.72,0,0,0-3.76-4C181.32,366.21,179.58,367.57,179.58,370.25Z"/><path class="cls-3" d="M190.32,362.33a.85.85,0,1,1,.85.87A.84.84,0,0,1,190.32,362.33Zm1.32,3.2v9.59h-.94v-9.59Z"/><path class="cls-3" d="M202.19,365.53h.94v9.59h-.94V373.4a4.38,4.38,0,0,1-3.73,2,4.71,4.71,0,0,1-4.68-5.06c0-3,1.88-5,4.68-5a4.37,4.37,0,0,1,3.73,1.88Zm-7.42,4.72c0,2.16,1.34,4.23,3.76,4.23s3.71-2,3.71-4.23a3.75,3.75,0,1,0-7.47,0Z"/><path class="cls-3" d="M206.89,366.42v8.7H206v-8.7H204.9v-.89H206V362.1h.93v3.43h1.67v.89Z"/><path class="cls-3" d="M219.26,370.35a5,5,0,1,1-5-5A5,5,0,0,1,219.26,370.35Zm-1,0a4,4,0,1,0-4,4.13A4,4,0,0,0,218.27,370.35Z"/><path class="cls-3" d="M233.92,367.79a4.37,4.37,0,0,0-3.31-1.58,4.14,4.14,0,0,0-.05,8.27,4.82,4.82,0,0,0,3.48-1.71V374a5.24,5.24,0,0,1-3.5,1.34,5,5,0,0,1,.07-10.06,5,5,0,0,1,3.31,1.22Z"/><path class="cls-3" d="M245.44,370.35a5,5,0,1,1-5-5A4.95,4.95,0,0,1,245.44,370.35Zm-1,0a4,4,0,1,0-4,4.13A4,4,0,0,0,244.45,370.35Z"/><path class="cls-3" d="M247.58,365.53h.94V367a3.21,3.21,0,0,1,2.94-1.71,3,3,0,0,1,2.65,1.34,4.54,4.54,0,0,1,.47,2.42v6h-.94v-6a3.58,3.58,0,0,0-.37-1.93,2,2,0,0,0-1.88-.94,2.52,2.52,0,0,0-2.35,1.34,5.26,5.26,0,0,0-.52,2.59v5h-.94Z"/><path class="cls-3" d="M266.27,367.29a1.76,1.76,0,0,0-1.67-1.08,1.54,1.54,0,0,0-1.62,1.53c0,.94.75,1.24,1.69,1.62a5.32,5.32,0,0,1,2.47,1.41,2.29,2.29,0,0,1,.49,1.55,2.93,2.93,0,0,1-3.13,3.06,3.28,3.28,0,0,1-3.31-2.54l.92-.28a2.44,2.44,0,0,0,2.39,1.92,2.05,2.05,0,0,0,2.14-2.11c0-1.08-.68-1.48-2.14-2.07a4.86,4.86,0,0,1-2.09-1.27,2,2,0,0,1-.42-1.24,2.43,2.43,0,0,1,2.56-2.47,2.56,2.56,0,0,1,2.51,1.55Z"/><path class="cls-3" d="M278.84,370.35a5,5,0,1,1-5-5A5,5,0,0,1,278.84,370.35Zm-1,0a4,4,0,1,0-4,4.13A4,4,0,0,0,277.85,370.35Zm-2-9.21-2.47,3-.7-.37,2.16-3.22Z"/><path class="cls-3" d="M281.92,358v17.13H281V358Z"/><path class="cls-3" d="M294.12,370.35a5,5,0,1,1-5-5A5,5,0,0,1,294.12,370.35Zm-1,0a4,4,0,1,0-4,4.13A4,4,0,0,0,293.13,370.35Z"/><path class="cls-3" d="M301.48,370.44a3.85,3.85,0,0,0,3.81,4,3.64,3.64,0,0,0,3.33-2.18l.8.47a4.63,4.63,0,0,1-4.21,2.61c-3,0-4.72-2.21-4.72-5,0-3.34,2.3-5.05,4.65-5.05,2.59,0,4.54,2.07,4.54,5.12Zm7.21-.89a3.59,3.59,0,0,0-3.55-3.34,3.66,3.66,0,0,0-3.59,3.34Z"/><path class="cls-3" d="M312.76,358v17.13h-.94V358Z"/><path class="cls-3" d="M324.54,361.65h-2.73l1.32-2.21h3.8v15.68h-2.39Z"/><path class="cls-3" d="M332.74,373.68a9.49,9.49,0,0,1-2-6.39,9.58,9.58,0,0,1,2-6.41,4.57,4.57,0,0,1,7.1,0,9.63,9.63,0,0,1,2,6.41,9.53,9.53,0,0,1-2,6.39,4.56,4.56,0,0,1-7.1,0Zm1.43-11.09a10.72,10.72,0,0,0,0,9.38,2.38,2.38,0,0,0,4.23,0,10.72,10.72,0,0,0,0-9.38,2.38,2.38,0,0,0-4.23,0Z"/><path class="cls-3" d="M350.67,363a3.79,3.79,0,1,1-3.78-3.69A3.76,3.76,0,0,1,350.67,363Zm-1.83,0a2,2,0,1,0-1.95,2A2,2,0,0,0,348.84,363Zm6.93-3.8,1.11.63-9,15.56-1.1-.69Zm4.82,12.4a3.79,3.79,0,1,1-3.79-3.69A3.76,3.76,0,0,1,360.59,371.59Zm-1.83,0a2,2,0,1,0-2,2A2,2,0,0,0,358.76,371.59Z"/><path class="cls-3" d="M374.27,358h2.3v17.13h-2.3v-1a3.79,3.79,0,0,1-3,1.34c-3.06,0-4.79-2.54-4.79-5.26a4.83,4.83,0,0,1,4.81-5.19,3.59,3.59,0,0,1,2.94,1.41Zm-5.4,12.22a2.88,2.88,0,0,0,2.74,3.14,2.82,2.82,0,0,0,2.8-3.12c0-2.16-1.34-3.2-2.8-3.2C370,367,368.87,368.44,368.87,370.21Z"/><path class="cls-3" d="M387.71,372.86a5.2,5.2,0,0,1-1.66,1.81,5.43,5.43,0,0,1-2.92.75,4.38,4.38,0,0,1-3.33-1.27,5.3,5.3,0,0,1-1.46-3.78,5.78,5.78,0,0,1,1.57-4.06,4.51,4.51,0,0,1,3.32-1.34,4.27,4.27,0,0,1,3.17,1.29,5.93,5.93,0,0,1,1.39,4.18v.28h-7.1a3.24,3.24,0,0,0,.85,2,2.34,2.34,0,0,0,1.76.63,2.43,2.43,0,0,0,1.57-.49,3.45,3.45,0,0,0,.92-1.08Zm-2.27-4a2.46,2.46,0,0,0-.71-1.34,2.41,2.41,0,0,0-3.17.07,2.65,2.65,0,0,0-.71,1.27Z"/><path class="cls-3" d="M59.85,383.9H53.6v4h6.06v2.26H53.6v4.93h6.25v2.26H51.2V381.64h8.65Z"/><path class="cls-3" d="M61.87,387.42h2.3v.92a3.42,3.42,0,0,1,2.68-1.17,3.3,3.3,0,0,1,2.92,1.34,4.44,4.44,0,0,1,.61,2.74v6.07H68.07v-5.5c0-2.52-.94-2.59-1.8-2.59-1,0-2.1.14-2.1,3.34v4.75h-2.3Z"/><path class="cls-3" d="M79.9,387.42h2.3v9.1c0,2.32-.26,4-1.62,5.14a5,5,0,0,1-3.29,1.06,4.36,4.36,0,0,1-3.24-1.22,5.53,5.53,0,0,1-1.46-3.08h2.23a3.33,3.33,0,0,0,.73,1.55,2.35,2.35,0,0,0,1.79.68,2.46,2.46,0,0,0,1.8-.65,3.25,3.25,0,0,0,.76-2.5v-1.29a3.59,3.59,0,0,1-3,1.41,4.19,4.19,0,0,1-3.27-1.34,5.6,5.6,0,0,1-1.48-3.92,5.22,5.22,0,0,1,1.46-3.83A4.5,4.5,0,0,1,77,387.17a3.7,3.7,0,0,1,2.94,1.34Zm-4.4,2.47a3.48,3.48,0,0,0-1,2.52,3.41,3.41,0,0,0,1,2.49,2.72,2.72,0,0,0,1.76.65,2.54,2.54,0,0,0,1.93-.79,3.66,3.66,0,0,0-.07-4.82,2.44,2.44,0,0,0-1.86-.71A2.41,2.41,0,0,0,75.5,389.89Z"/><path class="cls-3" d="M91.72,387.42H94v9.9h-2.3v-1a3.79,3.79,0,0,1-3,1.34c-3.06,0-4.8-2.54-4.8-5.26a4.83,4.83,0,0,1,4.82-5.19,3.59,3.59,0,0,1,2.94,1.41Zm-5.4,5a2.88,2.88,0,0,0,2.74,3.14,2.82,2.82,0,0,0,2.8-3.12c0-2.16-1.34-3.2-2.8-3.2C87.4,389.23,86.32,390.64,86.32,392.41Z"/><path class="cls-3" d="M96.28,387.42h2.31v.92a3.4,3.4,0,0,1,2.67-1.17,3.3,3.3,0,0,1,2.92,1.34,4.44,4.44,0,0,1,.61,2.74v6.07h-2.3v-5.5c0-2.52-.94-2.59-1.81-2.59-1,0-2.09.14-2.09,3.34v4.75H96.28Z"/><path class="cls-3" d="M114.73,390.46a3.87,3.87,0,0,0-2.79-1.23,3,3,0,0,0-2.19.87,3.2,3.2,0,0,0-.85,2.28,3.29,3.29,0,0,0,.9,2.38,3,3,0,0,0,2.09.79,3.85,3.85,0,0,0,2.84-1.26v2.56a5.44,5.44,0,0,1-3,.77,4.85,4.85,0,0,1-3.76-1.45,5.18,5.18,0,0,1-1.41-3.72,5.29,5.29,0,0,1,1.51-3.83,5.38,5.38,0,0,1,4-1.45,5.28,5.28,0,0,1,2.7.7Z"/><path class="cls-3" d="M116.31,380.19h2.3v8.08a3.56,3.56,0,0,1,2.66-1.1,3.35,3.35,0,0,1,2.91,1.34,4.84,4.84,0,0,1,.63,2.74v6.07h-2.3v-5.85a2.41,2.41,0,0,0-.44-1.72,1.76,1.76,0,0,0-1.3-.52,2,2,0,0,0-1.69.83,4.42,4.42,0,0,0-.47,2.49v4.77h-2.3Z"/><path class="cls-3" d="M135.7,395.06a5.14,5.14,0,0,1-1.67,1.81,5.42,5.42,0,0,1-2.91.75,4.39,4.39,0,0,1-3.34-1.27,5.3,5.3,0,0,1-1.46-3.78,5.75,5.75,0,0,1,1.58-4.06,4.47,4.47,0,0,1,3.31-1.34,4.23,4.23,0,0,1,3.17,1.29,5.93,5.93,0,0,1,1.39,4.18v.28h-7.1a3.3,3.3,0,0,0,.85,2,2.35,2.35,0,0,0,1.76.63,2.44,2.44,0,0,0,1.58-.49,3.41,3.41,0,0,0,.91-1.08Zm-2.28-4a2.34,2.34,0,0,0-.71-1.34,2.19,2.19,0,0,0-1.55-.56,2.24,2.24,0,0,0-1.62.63,2.64,2.64,0,0,0-.7,1.27Z"/><path class="cls-3" d="M146.7,389.49a1.76,1.76,0,0,0-1.67-1.08,1.54,1.54,0,0,0-1.62,1.53c0,.94.75,1.24,1.69,1.62a5.22,5.22,0,0,1,2.47,1.41,2.29,2.29,0,0,1,.49,1.55,2.93,2.93,0,0,1-3.12,3.06,3.29,3.29,0,0,1-3.32-2.54l.92-.28a2.44,2.44,0,0,0,2.4,1.92,2.06,2.06,0,0,0,2.14-2.11c0-1.08-.69-1.48-2.14-2.07a4.74,4.74,0,0,1-2.09-1.27,2,2,0,0,1-.43-1.24,2.44,2.44,0,0,1,2.56-2.47,2.6,2.6,0,0,1,2.52,1.55Z"/><path class="cls-3" d="M159.27,392.55a5,5,0,1,1-5-5A4.95,4.95,0,0,1,159.27,392.55Zm-1,0a4,4,0,1,0-4,4.13A4,4,0,0,0,158.29,392.55Z"/><path class="cls-3" d="M162.35,380.19v9.21a4.51,4.51,0,0,1,3.76-1.88c2.9,0,4.66,2.16,4.66,4.93s-1.79,5.13-4.7,5.13a4.19,4.19,0,0,1-3.72-2v1.72h-.94V380.19Zm7.43,12.26a3.75,3.75,0,1,0-7.47,0c0,2.39,1.31,4.27,3.73,4.27S169.78,394.8,169.78,392.45Z"/><path class="cls-3" d="M172.91,387.73h.94V389a2.25,2.25,0,0,1,2.11-1.46,2.31,2.31,0,0,1,1,.23l-.47.85a1.06,1.06,0,0,0-.7-.19c-1.93,0-2,2.56-2,3.76v5.15h-.94Z"/><path class="cls-3" d="M178.76,392.64a3.85,3.85,0,0,0,3.81,4,3.66,3.66,0,0,0,3.34-2.18l.8.47a4.65,4.65,0,0,1-4.21,2.61c-3,0-4.72-2.21-4.72-5,0-3.34,2.3-5.05,4.65-5.05,2.58,0,4.53,2.07,4.53,5.12Zm7.22-.89a3.61,3.61,0,0,0-3.55-3.34,3.67,3.67,0,0,0-3.6,3.34Z"/><path class="cls-3" d="M194.32,392.64a3.85,3.85,0,0,0,3.81,4,3.64,3.64,0,0,0,3.33-2.18l.8.47a4.62,4.62,0,0,1-4.2,2.61c-3,0-4.72-2.21-4.72-5,0-3.34,2.3-5.05,4.65-5.05,2.58,0,4.53,2.07,4.53,5.12Zm7.22-.89a3.61,3.61,0,0,0-3.55-3.34,3.67,3.67,0,0,0-3.6,3.34Z"/><path class="cls-3" d="M205.6,380.19v17.13h-.94V380.19Z"/><path class="cls-3" d="M214.14,402.72h-.94v-15h.94v1.67a4.48,4.48,0,0,1,3.76-1.88c2.89,0,4.65,2.16,4.65,4.93s-1.79,5.13-4.7,5.13a4.17,4.17,0,0,1-3.71-2Zm7.42-10.27a3.75,3.75,0,1,0-7.47,0c0,2.39,1.31,4.27,3.74,4.27S221.56,394.8,221.56,392.45Z"/><path class="cls-3" d="M224.69,387.73h.94V389a2.25,2.25,0,0,1,2.12-1.46,2.37,2.37,0,0,1,1,.23l-.47.85a1.13,1.13,0,0,0-.71-.19c-1.93,0-2,2.56-2,3.76v5.15h-.94Z"/><path class="cls-3" d="M230.54,392.64a3.85,3.85,0,0,0,3.81,4,3.66,3.66,0,0,0,3.34-2.18l.8.47a4.65,4.65,0,0,1-4.21,2.61c-3,0-4.72-2.21-4.72-5,0-3.34,2.3-5.05,4.65-5.05,2.58,0,4.53,2.07,4.53,5.12Zm7.22-.89a3.61,3.61,0,0,0-3.55-3.34,3.67,3.67,0,0,0-3.6,3.34Z"/><path class="cls-3" d="M248.57,390a4.39,4.39,0,0,0-3.31-1.58,4.14,4.14,0,0,0,0,8.27,4.84,4.84,0,0,0,3.48-1.71v1.27a5.26,5.26,0,0,1-3.5,1.34,5,5,0,0,1,.07-10.06,5.06,5.06,0,0,1,3.31,1.22Z"/><path class="cls-3" d="M250.26,384.53a.85.85,0,1,1,.85.87A.84.84,0,0,1,250.26,384.53Zm1.32,3.2v9.59h-.94v-9.59Z"/><path class="cls-3" d="M263.78,392.55a5,5,0,1,1-5-5A5,5,0,0,1,263.78,392.55Zm-1,0a4,4,0,1,0-4,4.13A4,4,0,0,0,262.79,392.55Z"/><path class="cls-3" d="M271.77,388.62v8.7h-.94v-8.7h-1.06v-.89h1.06V384.3h.94v3.43h1.67v.89Z"/><path class="cls-3" d="M284.13,392.55a5,5,0,1,1-5-5A4.95,4.95,0,0,1,284.13,392.55Zm-1,0a4,4,0,1,0-4,4.13A4,4,0,0,0,283.14,392.55Z"/><path class="cls-3" d="M287.28,388.62v8.7h-.94v-8.7h-1v-.89h1V384.3h.94v3.43H289v.89Z"/><path class="cls-3" d="M298,387.73h.94v9.59H298V395.6a4.38,4.38,0,0,1-3.74,2,4.7,4.7,0,0,1-4.67-5.06c0-3,1.88-5,4.67-5A4.39,4.39,0,0,1,298,389.4Zm-7.43,4.72c0,2.17,1.34,4.23,3.76,4.23s3.72-2,3.72-4.23a3.75,3.75,0,1,0-7.48,0Z"/><path class="cls-3" d="M302.63,380.19v17.13h-.94V380.19Z"/><path class="cls-3" d="M318,380.19H319v17.13H318V395.6a4.39,4.39,0,0,1-3.72,2c-2.42,0-4.7-1.74-4.7-5.1s2.38-5,4.7-5A4.36,4.36,0,0,1,318,389.4Zm-7.43,12.26c0,2.8,1.83,4.23,3.76,4.23s3.71-1.43,3.71-4.23a3.72,3.72,0,0,0-3.76-4C312.34,388.41,310.6,389.77,310.6,392.45Z"/><path class="cls-3" d="M322.09,392.64a3.85,3.85,0,0,0,3.81,4,3.66,3.66,0,0,0,3.34-2.18l.8.47a4.65,4.65,0,0,1-4.21,2.61c-3,0-4.72-2.21-4.72-5,0-3.34,2.3-5.05,4.65-5.05,2.58,0,4.54,2.07,4.54,5.12Zm7.22-.89a3.61,3.61,0,0,0-3.55-3.34,3.65,3.65,0,0,0-3.59,3.34Z"/><path class="cls-3" d="M338.29,388.62v8.7h-.94v-8.7h-1.06v-.89h1.06V384.3h.94v3.43H340v.89Z"/><path class="cls-3" d="M342.14,387.73v5.78a3.78,3.78,0,0,0,.61,2.4,2.74,2.74,0,0,0,3.81,0,3.72,3.72,0,0,0,.61-2.4v-5.78h.94v6a4.14,4.14,0,0,1-.73,2.63,3.74,3.74,0,0,1-5.45,0,4.14,4.14,0,0,1-.73-2.63v-6Z"/><path class="cls-3" d="M359.44,382.58v14.74h-1V382.58h-4.07v-.94h9.17v.94Z"/><path class="cls-3" d="M363.39,392.64a3.85,3.85,0,0,0,3.81,4,3.67,3.67,0,0,0,3.34-2.18l.8.47a4.65,4.65,0,0,1-4.21,2.61c-3,0-4.72-2.21-4.72-5,0-3.34,2.3-5.05,4.65-5.05,2.58,0,4.53,2.07,4.53,5.12Zm7.22-.89a3.61,3.61,0,0,0-3.55-3.34,3.67,3.67,0,0,0-3.6,3.34Z"/><path class="cls-3" d="M373.73,387.73h.94V389a2.28,2.28,0,0,1,2.12-1.46,2.31,2.31,0,0,1,1,.23l-.47.85a1.08,1.08,0,0,0-.71-.19c-1.92,0-1.95,2.56-1.95,3.76v5.15h-.94Z"/><path class="cls-3" d="M379.21,387.73h.94V389a2.25,2.25,0,0,1,2.12-1.46,2.37,2.37,0,0,1,1,.23l-.47.85a1.13,1.13,0,0,0-.71-.19c-1.93,0-2,2.56-2,3.76v5.15h-.94Z"/><path class="cls-3" d="M385.06,392.64a3.85,3.85,0,0,0,3.81,4,3.66,3.66,0,0,0,3.34-2.18l.8.47a4.65,4.65,0,0,1-4.21,2.61c-3,0-4.72-2.21-4.72-5,0-3.34,2.3-5.05,4.65-5.05,2.58,0,4.53,2.07,4.53,5.12Zm7.22-.89a3.61,3.61,0,0,0-3.55-3.34,3.67,3.67,0,0,0-3.6,3.34Z"/><path class="cls-3" d="M395.4,387.73h.94v1.5a3.21,3.21,0,0,1,2.94-1.71,3,3,0,0,1,2.66,1.34,4.64,4.64,0,0,1,.47,2.42v6h-.94v-6a3.59,3.59,0,0,0-.38-1.93,2,2,0,0,0-1.88-.94,2.53,2.53,0,0,0-2.35,1.34,5.26,5.26,0,0,0-.52,2.59v5h-.94Z"/><path class="cls-3" d="M414.61,392.55a5,5,0,1,1-5-5A5,5,0,0,1,414.61,392.55Zm-1,0a4,4,0,1,0-4,4.13A4,4,0,0,0,413.62,392.55Z"/><path class="cls-3" d="M417.43,395.74a.87.87,0,0,1,0,1.74.87.87,0,1,1,0-1.74Z"/><path class="cls-3" d="M60.41,476.27h-6.7L52,480.05H49.41l7.8-16.59,7.43,16.59H62.06Zm-1-2.26-2.33-5.31L54.7,474Z"/><path class="cls-3" d="M67.86,485.43h-2.3V470.16h2.3v1.08a3.73,3.73,0,0,1,2.94-1.34,4.84,4.84,0,0,1,4.82,5.15,5,5,0,0,1-4.8,5.31,3.94,3.94,0,0,1-3-1.46Zm-.14-10.27a2.83,2.83,0,0,0,2.8,3.13,3.19,3.19,0,0,0,0-6.32C69.06,472,67.72,473,67.72,475.16Z"/><path class="cls-3" d="M84.62,470.16h2.3v9.89h-2.3v-1a3.81,3.81,0,0,1-3,1.34c-3,0-4.79-2.54-4.79-5.27a4.83,4.83,0,0,1,4.81-5.19,3.62,3.62,0,0,1,2.94,1.41Zm-5.4,5A2.89,2.89,0,0,0,82,478.29a2.83,2.83,0,0,0,2.79-3.13C84.76,473,83.42,472,82,472A2.88,2.88,0,0,0,79.22,475.14Z"/><path class="cls-3" d="M89.21,470.16h2.3v.89a4.14,4.14,0,0,1,1-.82,2.67,2.67,0,0,1,1.41-.33,3.36,3.36,0,0,1,1.81.47l-.94,2.09a2.05,2.05,0,0,0-1.17-.35,1.8,1.8,0,0,0-1.44.54,3.2,3.2,0,0,0-.63,2.28v5.12h-2.3Z"/><path class="cls-3" d="M99.22,472.27v7.78h-2.3v-7.78H96v-2.11h1v-3.62h2.3v3.62H101v2.11Z"/><path class="cls-3" d="M109.14,470.16h2.3v9.89h-2.3v-1a3.82,3.82,0,0,1-3,1.34c-3.06,0-4.8-2.54-4.8-5.27a4.83,4.83,0,0,1,4.82-5.19,3.62,3.62,0,0,1,2.94,1.41Zm-5.41,5a2.89,2.89,0,0,0,2.75,3.15,2.83,2.83,0,0,0,2.8-3.13c0-2.16-1.34-3.19-2.8-3.19A2.88,2.88,0,0,0,103.73,475.14Z"/><path class="cls-3" d="M119.81,471.36v8.69h-.94v-8.69h-1.06v-.89h1.06V467h.94v3.44h1.67v.89Z"/><path class="cls-3" d="M123.67,470.47v5.78a3.68,3.68,0,0,0,.61,2.39,2.7,2.7,0,0,0,3.8,0,3.68,3.68,0,0,0,.61-2.39v-5.78h.94v6a4.2,4.2,0,0,1-.72,2.64,3.77,3.77,0,0,1-5.46,0,4.21,4.21,0,0,1-.73-2.64v-6Z"/><path class="cls-3" d="M138.24,471.36v8.69h-.94v-8.69h-1.06v-.89h1.06V467h.94v3.44h1.67v.89Z"/><path class="cls-3" d="M141.53,475.38a3.85,3.85,0,0,0,3.81,4,3.65,3.65,0,0,0,3.33-2.19l.8.47a4.63,4.63,0,0,1-4.21,2.61c-3,0-4.72-2.21-4.72-5,0-3.34,2.3-5.06,4.65-5.06,2.59,0,4.54,2.07,4.54,5.13Zm7.21-.9a3.59,3.59,0,0,0-3.55-3.33,3.66,3.66,0,0,0-3.59,3.33Z"/><path class="cls-3" d="M151.87,470.47h.94v1.24a2.26,2.26,0,0,1,3.13-1.22l-.47.84a1.14,1.14,0,0,0-.71-.18c-1.93,0-1.95,2.56-1.95,3.76v5.14h-.94Z"/><path class="cls-3" d="M157.35,470.47h.94v1.24a2.27,2.27,0,0,1,2.11-1.46,2.2,2.2,0,0,1,1,.24l-.47.84a1.08,1.08,0,0,0-.7-.18c-1.93,0-2,2.56-2,3.76v5.14h-.94Z"/><path class="cls-3" d="M163.2,475.38a3.85,3.85,0,0,0,3.81,4,3.65,3.65,0,0,0,3.33-2.19l.8.47a4.62,4.62,0,0,1-4.2,2.61c-3,0-4.73-2.21-4.73-5a4.68,4.68,0,0,1,4.66-5.06c2.58,0,4.53,2.07,4.53,5.13Zm7.21-.9a3.59,3.59,0,0,0-3.54-3.33,3.67,3.67,0,0,0-3.6,3.33Z"/><path class="cls-3" d="M173.54,470.47h.94V472a3.21,3.21,0,0,1,2.94-1.72,3,3,0,0,1,2.65,1.34,4.56,4.56,0,0,1,.47,2.42v6h-.94v-6a3.56,3.56,0,0,0-.37-1.92,2,2,0,0,0-1.88-.94,2.51,2.51,0,0,0-2.35,1.34,5.22,5.22,0,0,0-.52,2.58v5h-.94Z"/><path class="cls-3" d="M192.74,475.28a5,5,0,1,1-5-5A4.94,4.94,0,0,1,192.74,475.28Zm-1,0a4,4,0,1,0-4,4.14A4,4,0,0,0,191.76,475.28Z"/><path class="cls-3" d="M207.41,472.72a4.38,4.38,0,0,0-3.31-1.57,4.14,4.14,0,0,0,0,8.27,4.82,4.82,0,0,0,3.48-1.72V479a5.21,5.21,0,0,1-3.5,1.34,5,5,0,0,1,.07-10.06,5,5,0,0,1,3.31,1.23Z"/><path class="cls-3" d="M218.93,475.28a5,5,0,1,1-5-5A4.95,4.95,0,0,1,218.93,475.28Zm-1,0a4,4,0,1,0-4,4.14A4,4,0,0,0,217.94,475.28Z"/><path class="cls-3" d="M221.07,470.47H222V472a3.19,3.19,0,0,1,2.94-1.72,3,3,0,0,1,2.65,1.34,4.66,4.66,0,0,1,.47,2.42v6h-.94v-6a3.56,3.56,0,0,0-.37-1.92,2,2,0,0,0-1.88-.94,2.53,2.53,0,0,0-2.36,1.34,5.22,5.22,0,0,0-.51,2.58v5h-.94Z"/><path class="cls-3" d="M243.23,467.86a2.48,2.48,0,0,0-.7-1,2.53,2.53,0,0,0-1.7-.56,2.4,2.4,0,0,0-1.74.63,1.73,1.73,0,0,0,.15,2.51,5.69,5.69,0,0,0,1.48.8l1.17.47a6.94,6.94,0,0,1,2.61,1.65,4.28,4.28,0,0,1,1.08,3,5,5,0,0,1-1.36,3.57,4.26,4.26,0,0,1-2.59,1.36v2.38h-1.74v-2.31a4.33,4.33,0,0,1-3-1.55,5.08,5.08,0,0,1-1.32-3l2.38-.52a3.41,3.41,0,0,0,.65,2,2.44,2.44,0,0,0,2,.94,2.37,2.37,0,0,0,1.86-.75,2.44,2.44,0,0,0,.72-1.88,2.27,2.27,0,0,0-.68-1.72,4.22,4.22,0,0,0-1.57-1l-1.51-.64a8.21,8.21,0,0,1-2.21-1.43,3.3,3.3,0,0,1-1-2.4,4.17,4.17,0,0,1,1.2-3,4.51,4.51,0,0,1,2.46-1.17v-2.09h1.74v2.06a4,4,0,0,1,2.05.78,5.28,5.28,0,0,1,1.48,1.81Z"/><path class="cls-3" d="M252.56,466.59h-2.72l1.31-2.21H255v15.67h-2.4Z"/><path class="cls-3" d="M260.77,478.62a9.5,9.5,0,0,1-2-6.39,9.61,9.61,0,0,1,2-6.42,4.56,4.56,0,0,1,7.09,0,9.61,9.61,0,0,1,2,6.42,9.5,9.5,0,0,1-2,6.39,4.56,4.56,0,0,1-7.09,0Zm1.43-11.09a10.7,10.7,0,0,0,0,9.37,2.37,2.37,0,0,0,4.23,0,10.7,10.7,0,0,0,0-9.37,2.38,2.38,0,0,0-4.23,0Z"/><path class="cls-3" d="M273,477.12l2.07.79-2.92,5.81-1.55-.64Z"/><path class="cls-3" d="M280.37,478.62a9.5,9.5,0,0,1-2-6.39,9.61,9.61,0,0,1,2-6.42,4.56,4.56,0,0,1,7.09,0,9.61,9.61,0,0,1,2,6.42,9.5,9.5,0,0,1-2,6.39,4.56,4.56,0,0,1-7.09,0Zm1.43-11.09a10.7,10.7,0,0,0,0,9.37,2.37,2.37,0,0,0,4.23,0,10.7,10.7,0,0,0,0-9.37,2.38,2.38,0,0,0-4.23,0Z"/><path class="cls-3" d="M293.09,478.62a9.5,9.5,0,0,1-2-6.39,9.61,9.61,0,0,1,2-6.42,4.56,4.56,0,0,1,7.09,0,9.61,9.61,0,0,1,2,6.42,9.5,9.5,0,0,1-2,6.39,4.56,4.56,0,0,1-7.09,0Zm1.43-11.09a10.7,10.7,0,0,0,0,9.37,2.37,2.37,0,0,0,4.23,0,10.7,10.7,0,0,0,0-9.37,2.38,2.38,0,0,0-4.23,0Z"/><path class="cls-3" d="M305.8,478.62a9.56,9.56,0,0,1-2-6.39,9.66,9.66,0,0,1,2-6.42,4.57,4.57,0,0,1,7.1,0,9.65,9.65,0,0,1,2,6.42,9.54,9.54,0,0,1-2,6.39,4.57,4.57,0,0,1-7.1,0Zm1.43-11.09a10.7,10.7,0,0,0,0,9.37,2.53,2.53,0,0,0,2.12,1.3,2.5,2.5,0,0,0,2.11-1.3,10.61,10.61,0,0,0,0-9.37,2.49,2.49,0,0,0-2.11-1.29A2.51,2.51,0,0,0,307.23,467.53Z"/><path class="cls-3" d="M322.87,485.46h-.94v-15h.94v1.66a4.51,4.51,0,0,1,3.76-1.88c2.89,0,4.65,2.17,4.65,4.94s-1.79,5.12-4.7,5.12a4.17,4.17,0,0,1-3.71-2Zm7.42-10.27a3.74,3.74,0,1,0-7.47-.05c0,2.4,1.31,4.28,3.73,4.28S330.29,477.54,330.29,475.19Z"/><path class="cls-3" d="M333.8,475.38a3.85,3.85,0,0,0,3.8,4,3.67,3.67,0,0,0,3.34-2.19l.8.47a4.64,4.64,0,0,1-4.21,2.61c-3,0-4.72-2.21-4.72-5,0-3.34,2.3-5.06,4.65-5.06,2.59,0,4.54,2.07,4.54,5.13Zm7.21-.9a3.6,3.6,0,0,0-3.55-3.33,3.65,3.65,0,0,0-3.59,3.33Z"/><path class="cls-3" d="M348.23,472.23a1.76,1.76,0,0,0-1.67-1.08,1.54,1.54,0,0,0-1.62,1.52c0,.94.75,1.25,1.69,1.63a5.3,5.3,0,0,1,2.47,1.4,2.34,2.34,0,0,1,.49,1.56,2.93,2.93,0,0,1-3.13,3.05,3.28,3.28,0,0,1-3.31-2.54l.92-.28a2.45,2.45,0,0,0,2.39,1.93,2.05,2.05,0,0,0,2.14-2.12c0-1.08-.68-1.48-2.14-2.06a4.86,4.86,0,0,1-2.09-1.27,2,2,0,0,1-.42-1.25,2.43,2.43,0,0,1,2.56-2.47A2.6,2.6,0,0,1,349,471.8Z"/><path class="cls-3" d="M360.8,475.28a5,5,0,1,1-5-5A4.95,4.95,0,0,1,360.8,475.28Zm-1,0a4,4,0,1,0-4,4.14A4,4,0,0,0,359.81,475.28Z"/><path class="cls-3" d="M367,472.23a1.76,1.76,0,0,0-1.67-1.08,1.54,1.54,0,0,0-1.62,1.52c0,.94.75,1.25,1.69,1.63a5.21,5.21,0,0,1,2.47,1.4,2.34,2.34,0,0,1,.49,1.56,2.92,2.92,0,0,1-3.12,3.05,3.27,3.27,0,0,1-3.31-2.54l.91-.28a2.45,2.45,0,0,0,2.4,1.93,2.06,2.06,0,0,0,2.14-2.12c0-1.08-.68-1.48-2.14-2.06a4.74,4.74,0,0,1-2.09-1.27,2,2,0,0,1-.43-1.25,2.44,2.44,0,0,1,2.57-2.47,2.59,2.59,0,0,1,2.51,1.55Z"/><path class="cls-3" d="M378.05,480.22l-4.55-9.75h1.08l4,8.52,3.51-8.52h1.08l-6.3,15H375.8Z"/><path class="cls-3" d="M58.7,494.92a4.39,4.39,0,0,0-3.32-1.57,4.14,4.14,0,0,0,0,8.27,4.79,4.79,0,0,0,3.47-1.72v1.27a5.19,5.19,0,0,1-3.5,1.34,5,5,0,0,1,.07-10.06,5,5,0,0,1,3.32,1.23Z"/><path class="cls-3" d="M70.21,497.48a5,5,0,1,1-5-5A4.94,4.94,0,0,1,70.21,497.48Zm-1,0a4,4,0,1,0-4,4.14A4,4,0,0,0,69.22,497.48Z"/><path class="cls-3" d="M72.35,492.66h.94v1.2a2.75,2.75,0,0,1,2.49-1.41,2.65,2.65,0,0,1,2.68,1.74,3,3,0,0,1,2.85-1.74,3,3,0,0,1,2.16.8,3.53,3.53,0,0,1,.82,2.61v6.39h-.94v-6.39a2.81,2.81,0,0,0-.56-2,1.91,1.91,0,0,0-1.44-.54c-2.53,0-2.56,2.53-2.56,3.12v5.78h-.94V496.1c0-.61,0-2.75-2.11-2.75-1.67,0-2.45,1.45-2.45,3.36v5.54h-.94Z"/><path class="cls-3" d="M86.67,489.47a.85.85,0,1,1,.84.87A.83.83,0,0,1,86.67,489.47ZM88,492.66v9.59H87v-9.59Z"/><path class="cls-3" d="M91.11,497.58a3.85,3.85,0,0,0,3.81,4,3.65,3.65,0,0,0,3.33-2.19l.8.47a4.62,4.62,0,0,1-4.2,2.61c-3,0-4.73-2.21-4.73-5a4.68,4.68,0,0,1,4.66-5.06c2.58,0,4.53,2.07,4.53,5.13Zm7.21-.9a3.59,3.59,0,0,0-3.54-3.33,3.67,3.67,0,0,0-3.6,3.33Z"/><path class="cls-3" d="M101.45,492.66h.94v1.51a3.21,3.21,0,0,1,2.94-1.72,3,3,0,0,1,2.66,1.34,4.66,4.66,0,0,1,.47,2.42v6h-.94v-6a3.57,3.57,0,0,0-.38-1.92,2,2,0,0,0-1.88-.94,2.51,2.51,0,0,0-2.35,1.34,5.22,5.22,0,0,0-.52,2.58v5h-.94Z"/><path class="cls-3" d="M112,501.36h7.71v.89h-9.73l7.85-8.69h-6.63v-.9h8.55Z"/><path class="cls-3" d="M128.27,492.66h.94v9.59h-.94v-1.71a4.37,4.37,0,0,1-3.74,2,4.7,4.7,0,0,1-4.67-5.05c0-3,1.88-5,4.67-5a4.39,4.39,0,0,1,3.74,1.88Zm-7.43,4.73c0,2.16,1.34,4.23,3.76,4.23s3.72-2,3.72-4.23a3.75,3.75,0,1,0-7.48,0Z"/><path class="cls-3" d="M137.74,485.12v17.13h-.94V485.12Z"/><path class="cls-3" d="M148.3,492.66h.94v9.59h-.94v-1.71a4.4,4.4,0,0,1-3.74,2,4.7,4.7,0,0,1-4.68-5.05c0-3,1.88-5,4.68-5a4.4,4.4,0,0,1,3.74,1.88Zm-7.43,4.73c0,2.16,1.34,4.23,3.76,4.23s3.71-2,3.71-4.23a3.75,3.75,0,1,0-7.47,0Z"/><path class="cls-3" d="M156.83,492.66h.94v1.51a3.21,3.21,0,0,1,2.94-1.72,3,3,0,0,1,2.65,1.34,4.56,4.56,0,0,1,.47,2.42v6h-.94v-6a3.56,3.56,0,0,0-.37-1.92,2,2,0,0,0-1.88-.94,2.51,2.51,0,0,0-2.35,1.34,5.11,5.11,0,0,0-.52,2.58v5h-.94Z"/><path class="cls-3" d="M167.52,492.66v5.79a3.69,3.69,0,0,0,.62,2.39,2.7,2.7,0,0,0,3.8,0,3.68,3.68,0,0,0,.61-2.39v-5.79h.94v6a4.15,4.15,0,0,1-.73,2.64,3.76,3.76,0,0,1-5.45,0,4.21,4.21,0,0,1-.73-2.64v-6Z"/><path class="cls-3" d="M176.62,497.58a3.85,3.85,0,0,0,3.81,4,3.65,3.65,0,0,0,3.33-2.19l.8.47a4.62,4.62,0,0,1-4.2,2.61c-3,0-4.73-2.21-4.73-5a4.68,4.68,0,0,1,4.66-5.06c2.58,0,4.53,2.07,4.53,5.13Zm7.22-.9a3.6,3.6,0,0,0-3.55-3.33,3.67,3.67,0,0,0-3.6,3.33Z"/><path class="cls-3" d="M186,492.66l3.38,8,3.34-8h1l-4.37,10.18L185,492.66Z"/><path class="cls-3" d="M202.8,492.66h.94v9.59h-.94v-1.71a4.37,4.37,0,0,1-3.73,2,4.7,4.7,0,0,1-4.68-5.05c0-3,1.88-5,4.68-5a4.37,4.37,0,0,1,3.73,1.88Zm-7.42,4.73c0,2.16,1.34,4.23,3.76,4.23s3.71-2,3.71-4.23a3.75,3.75,0,1,0-7.47,0Z"/><path class="cls-3" d="M211.34,485.12h.94v9.05a3.18,3.18,0,0,1,2.93-1.72,3,3,0,0,1,2.66,1.34,4.66,4.66,0,0,1,.47,2.42v6h-.94v-6a3.48,3.48,0,0,0-.38-1.92,2,2,0,0,0-1.88-.94,2.53,2.53,0,0,0-2.35,1.34,5.22,5.22,0,0,0-.51,2.58v5h-.94Z"/><path class="cls-3" d="M220.48,489.47a.85.85,0,1,1,.85.87A.84.84,0,0,1,220.48,489.47Zm1.32,3.19v9.59h-.94v-9.59Z"/><path class="cls-3" d="M228.63,494.43a1.74,1.74,0,0,0-1.66-1.08,1.54,1.54,0,0,0-1.62,1.52c0,.94.75,1.25,1.69,1.63a5.23,5.23,0,0,1,2.47,1.41,2.35,2.35,0,0,1,.49,1.55,2.93,2.93,0,0,1-3.13,3.05,3.28,3.28,0,0,1-3.31-2.54l.92-.28a2.44,2.44,0,0,0,2.39,1.93A2.06,2.06,0,0,0,229,499.5c0-1.08-.68-1.48-2.14-2.06a4.8,4.8,0,0,1-2.09-1.27,2,2,0,0,1-.42-1.25,2.43,2.43,0,0,1,2.56-2.47,2.57,2.57,0,0,1,2.51,1.55Z"/><path class="cls-3" d="M232.77,493.56v8.69h-.94v-8.69h-1.05v-.9h1.05v-3.43h.94v3.43h1.67v.9Z"/><path class="cls-3" d="M245.13,497.48a5,5,0,1,1-5-5A4.94,4.94,0,0,1,245.13,497.48Zm-1,0a4,4,0,1,0-4,4.14A4,4,0,0,0,244.15,497.48Z"/><path class="cls-3" d="M247.28,492.66h.94v1.25a2.27,2.27,0,0,1,2.11-1.46,2.2,2.2,0,0,1,1,.24l-.47.85a1,1,0,0,0-.7-.19c-1.93,0-1.95,2.56-1.95,3.76v5.14h-.94Z"/><path class="cls-3" d="M252.38,489.47a.85.85,0,1,1,.84.87A.83.83,0,0,1,252.38,489.47Zm1.31,3.19v9.59h-.94v-9.59Z"/><path class="cls-3" d="M264.24,492.66h.94v9.59h-.94v-1.71a4.37,4.37,0,0,1-3.73,2,4.7,4.7,0,0,1-4.68-5.05c0-3,1.88-5,4.68-5a4.37,4.37,0,0,1,3.73,1.88Zm-7.42,4.73c0,2.16,1.34,4.23,3.76,4.23s3.71-2,3.71-4.23a3.75,3.75,0,1,0-7.47,0Z"/><path class="cls-3" d="M280.58,485.12h.94v17.13h-.94v-1.71a4.36,4.36,0,0,1-3.71,2c-2.42,0-4.7-1.74-4.7-5.1s2.37-5,4.7-5a4.33,4.33,0,0,1,3.71,1.88Zm-7.43,12.27c0,2.79,1.84,4.23,3.76,4.23s3.72-1.44,3.72-4.23a3.73,3.73,0,0,0-3.76-4C274.89,493.35,273.15,494.71,273.15,497.39Z"/><path class="cls-3" d="M284.65,497.58a3.85,3.85,0,0,0,3.81,4,3.65,3.65,0,0,0,3.33-2.19l.8.47a4.63,4.63,0,0,1-4.21,2.61c-3,0-4.72-2.21-4.72-5,0-3.34,2.3-5.06,4.65-5.06,2.59,0,4.54,2.07,4.54,5.13Zm7.21-.9a3.59,3.59,0,0,0-3.55-3.33,3.66,3.66,0,0,0-3.59,3.33Z"/><path class="cls-3" d="M300.84,493.56v8.69h-.94v-8.69h-1v-.9h1v-3.43h.94v3.43h1.67v.9Z"/><path class="cls-3" d="M304.7,492.66v5.79a3.68,3.68,0,0,0,.61,2.39,2.72,2.72,0,0,0,3.81,0,3.74,3.74,0,0,0,.61-2.39v-5.79h.94v6a4.15,4.15,0,0,1-.73,2.64,3.76,3.76,0,0,1-5.45,0,4.15,4.15,0,0,1-.73-2.64v-6Z"/><path class="cls-3" d="M317.51,494.43a1.76,1.76,0,0,0-1.67-1.08,1.54,1.54,0,0,0-1.62,1.52c0,.94.75,1.25,1.69,1.63a5.19,5.19,0,0,1,2.47,1.41,2.29,2.29,0,0,1,.49,1.55,2.92,2.92,0,0,1-3.12,3.05,3.29,3.29,0,0,1-3.32-2.54l.92-.28a2.45,2.45,0,0,0,2.4,1.93,2.05,2.05,0,0,0,2.13-2.12c0-1.08-.68-1.48-2.13-2.06a4.84,4.84,0,0,1-2.1-1.27,2,2,0,0,1-.42-1.25,2.44,2.44,0,0,1,2.56-2.47,2.6,2.6,0,0,1,2.52,1.55Z"/><path class="cls-3" d="M329.56,494.43a1.74,1.74,0,0,0-1.66-1.08,1.54,1.54,0,0,0-1.62,1.52c0,.94.75,1.25,1.69,1.63a5.15,5.15,0,0,1,2.46,1.41,2.3,2.3,0,0,1,.5,1.55,2.93,2.93,0,0,1-3.13,3.05,3.28,3.28,0,0,1-3.31-2.54l.92-.28a2.44,2.44,0,0,0,2.39,1.93,2.06,2.06,0,0,0,2.14-2.12c0-1.08-.68-1.48-2.14-2.06a4.8,4.8,0,0,1-2.09-1.27,2,2,0,0,1-.42-1.25,2.43,2.43,0,0,1,2.56-2.47,2.57,2.57,0,0,1,2.51,1.55Z"/><path class="cls-3" d="M333.63,492.66v5.79a3.74,3.74,0,0,0,.61,2.39,2.72,2.72,0,0,0,3.81,0,3.68,3.68,0,0,0,.61-2.39v-5.79h.94v6a4.15,4.15,0,0,1-.73,2.64,3.76,3.76,0,0,1-5.45,0,4.15,4.15,0,0,1-.73-2.64v-6Z"/><path class="cls-3" d="M342.73,497.58a3.85,3.85,0,0,0,3.81,4,3.65,3.65,0,0,0,3.33-2.19l.8.47a4.63,4.63,0,0,1-4.21,2.61c-3,0-4.72-2.21-4.72-5,0-3.34,2.3-5.06,4.65-5.06,2.59,0,4.54,2.07,4.54,5.13Zm7.21-.9a3.59,3.59,0,0,0-3.55-3.33,3.66,3.66,0,0,0-3.59,3.33Z"/><path class="cls-3" d="M353.07,492.66H354v1.51a3.21,3.21,0,0,1,2.94-1.72,3,3,0,0,1,2.65,1.34,4.56,4.56,0,0,1,.47,2.42v6h-.94v-6a3.56,3.56,0,0,0-.37-1.92,2,2,0,0,0-1.88-.94,2.51,2.51,0,0,0-2.35,1.34,5.11,5.11,0,0,0-.52,2.58v5h-.94Zm.52-2.3a2.11,2.11,0,0,1,.54-.89,1.5,1.5,0,0,1,1.08-.45,4.74,4.74,0,0,1,1.69.52,2.8,2.8,0,0,0,1.11.31.72.72,0,0,0,.63-.29A2.2,2.2,0,0,0,359,489l.59.47a2.37,2.37,0,0,1-.62.94,1.63,1.63,0,0,1-1.05.4,3.92,3.92,0,0,1-1.37-.4,3.71,3.71,0,0,0-1.38-.43.82.82,0,0,0-.66.28,1.69,1.69,0,0,0-.28.57Z"/><path class="cls-3" d="M372.27,497.48a5,5,0,1,1-5-5A4.94,4.94,0,0,1,372.27,497.48Zm-1,0a4,4,0,1,0-4,4.14A4,4,0,0,0,371.28,497.48Z"/><path class="cls-3" d="M378.5,494.43a1.76,1.76,0,0,0-1.67-1.08,1.54,1.54,0,0,0-1.62,1.52c0,.94.75,1.25,1.69,1.63a5.14,5.14,0,0,1,2.47,1.41,2.29,2.29,0,0,1,.49,1.55,2.92,2.92,0,0,1-3.12,3.05,3.28,3.28,0,0,1-3.31-2.54l.91-.28a2.45,2.45,0,0,0,2.4,1.93,2.06,2.06,0,0,0,2.14-2.12c0-1.08-.68-1.48-2.14-2.06a4.8,4.8,0,0,1-2.09-1.27,2,2,0,0,1-.43-1.25,2.44,2.44,0,0,1,2.57-2.47A2.59,2.59,0,0,1,379.3,494Z"/><path class="cls-3" d="M382.31,500.68a.87.87,0,1,1-.87.87A.85.85,0,0,1,382.31,500.68Z"/><path class="cls-3" d="M52.47,557v9.8a5.86,5.86,0,0,0,.66,3.38,4.57,4.57,0,0,0,7.28,0,5.86,5.86,0,0,0,.66-3.38V557h1v9.8a6.44,6.44,0,0,1-.89,4,5.73,5.73,0,0,1-8.88,0,6.44,6.44,0,0,1-.9-4V557Z"/><path class="cls-3" d="M65.28,563.12h.94v1.5a3.21,3.21,0,0,1,2.94-1.71,3,3,0,0,1,2.65,1.34,4.64,4.64,0,0,1,.47,2.42v6h-.94v-6a3.58,3.58,0,0,0-.37-1.93,2.06,2.06,0,0,0-1.88-.94,2.51,2.51,0,0,0-2.35,1.34,5.11,5.11,0,0,0-.52,2.58v5h-.94Z"/><path class="cls-3" d="M82.83,563.12h.94v9.59h-.94V571a4.37,4.37,0,0,1-3.73,2,4.7,4.7,0,0,1-4.68-5.05c0-3,1.88-5,4.68-5a4.34,4.34,0,0,1,3.73,1.88Zm-7.42,4.72c0,2.16,1.34,4.23,3.76,4.23s3.71-2,3.71-4.23a3.75,3.75,0,1,0-7.47,0Z"/><path class="cls-3" d="M94,557v15.68H91.56V557Z"/><path class="cls-3" d="M96.63,562.81h2.31v.92a3.38,3.38,0,0,1,2.68-1.18,3.32,3.32,0,0,1,2.91,1.34,4.41,4.41,0,0,1,.61,2.75v6.07h-2.3v-5.5c0-2.52-.94-2.59-1.81-2.59-1,0-2.09.14-2.09,3.34v4.75H96.63Z"/><path class="cls-3" d="M108.43,562.81l2.54,5.64,2.54-5.64h2.58L111,573.41l-5.12-10.6Z"/><path class="cls-3" d="M125.64,570.45a5.33,5.33,0,0,1-1.67,1.81,5.43,5.43,0,0,1-2.92.75,4.38,4.38,0,0,1-3.33-1.27,5.3,5.3,0,0,1-1.46-3.78,5.79,5.79,0,0,1,1.58-4.07,4.5,4.5,0,0,1,3.31-1.34,4.27,4.27,0,0,1,3.17,1.3,5.93,5.93,0,0,1,1.39,4.18v.28h-7.1a3.24,3.24,0,0,0,.85,2,2.34,2.34,0,0,0,1.76.63,2.43,2.43,0,0,0,1.57-.49,3.68,3.68,0,0,0,.92-1.08Zm-2.28-4a2.46,2.46,0,0,0-.71-1.34,2.21,2.21,0,0,0-1.55-.56,2.24,2.24,0,0,0-1.62.63,2.65,2.65,0,0,0-.71,1.27Z"/><path class="cls-3" d="M127.47,562.81h2.3v.9a4,4,0,0,1,1-.83,2.63,2.63,0,0,1,1.41-.33A3.5,3.5,0,0,1,134,563l-.94,2.1a2.11,2.11,0,0,0-1.18-.36,1.8,1.8,0,0,0-1.43.54,3.19,3.19,0,0,0-.64,2.28v5.13h-2.3Z"/><path class="cls-3" d="M138.5,565.42a1.68,1.68,0,0,0-1.41-.84,1,1,0,0,0-.71.25.75.75,0,0,0-.21.52.63.63,0,0,0,.33.56,7.94,7.94,0,0,0,.77.4l1.18.59a4.81,4.81,0,0,1,1.39.92,2.43,2.43,0,0,1,.72,1.83,3.31,3.31,0,0,1-.87,2.26,3.53,3.53,0,0,1-2.77,1.1,3.42,3.42,0,0,1-2.14-.63,4,4,0,0,1-1.27-1.81l1.88-.9a2.58,2.58,0,0,0,.54.94,1.52,1.52,0,0,0,1.95,0,1.15,1.15,0,0,0,.33-.77,1.08,1.08,0,0,0-.3-.76,3.11,3.11,0,0,0-1-.61l-.84-.4a5,5,0,0,1-1.37-.84,2.2,2.2,0,0,1-.7-1.67,3.1,3.1,0,0,1,.82-2.12,3.2,3.2,0,0,1,2.42-.94,3.11,3.11,0,0,1,1.83.52,3.39,3.39,0,0,1,1.13,1.22Z"/><path class="cls-3" d="M143.15,557.24a1.48,1.48,0,1,1-1.48,1.48A1.45,1.45,0,0,1,143.15,557.24Zm1.15,5.57v9.9H142v-9.9Z"/><path class="cls-3" d="M156.64,567.77a5.29,5.29,0,1,1-5.29-5.22A5.14,5.14,0,0,1,156.64,567.77Zm-2.35,0a2.94,2.94,0,1,0-2.94,3.15A2.86,2.86,0,0,0,154.29,567.79Zm.47-9.86-3.67,3.38-1.27-.8,2.82-3.67Z"/><path class="cls-3" d="M158.38,562.81h2.3v.92a3.41,3.41,0,0,1,2.68-1.18,3.32,3.32,0,0,1,2.92,1.34,4.48,4.48,0,0,1,.61,2.75v6.07h-2.3v-5.5c0-2.52-.94-2.59-1.81-2.59-1,0-2.1.14-2.1,3.34v4.75h-2.3Z"/><path class="cls-3" d="M176.83,557v15.68h-2.4V557Z"/><path class="cls-3" d="M179.51,562.81h2.3v.92a3.41,3.41,0,0,1,2.68-1.18,3.32,3.32,0,0,1,2.92,1.34,4.48,4.48,0,0,1,.61,2.75v6.07h-2.31v-5.5c0-2.52-.93-2.59-1.8-2.59-1,0-2.1.14-2.1,3.34v4.75h-2.3Z"/><path class="cls-3" d="M192.67,564.93v7.78h-2.3v-7.78h-1v-2.12h1v-3.62h2.3v3.62h1.77v2.12Z"/><path class="cls-3" d="M204.21,570.45a5.2,5.2,0,0,1-1.66,1.81,5.43,5.43,0,0,1-2.92.75,4.4,4.4,0,0,1-3.34-1.27,5.3,5.3,0,0,1-1.45-3.78,5.82,5.82,0,0,1,1.57-4.07,4.52,4.52,0,0,1,3.31-1.34,4.28,4.28,0,0,1,3.18,1.3,5.92,5.92,0,0,1,1.38,4.18v.28h-7.09a3.23,3.23,0,0,0,.84,2,2.36,2.36,0,0,0,1.77.63,2.43,2.43,0,0,0,1.57-.49,3.68,3.68,0,0,0,.92-1.08Zm-2.28-4a2.38,2.38,0,0,0-.7-1.34,2.41,2.41,0,0,0-3.17.07,2.65,2.65,0,0,0-.71,1.27Z"/><path class="cls-3" d="M208.35,555.58v17.13h-2.3V555.58Z"/><path class="cls-3" d="M211.78,557.24a1.48,1.48,0,1,1-1.48,1.48A1.45,1.45,0,0,1,211.78,557.24Zm1.15,5.57v9.9h-2.3v-9.9Z"/><path class="cls-3" d="M222.45,562.81h2.31v9.1c0,2.32-.26,4-1.63,5.14a5,5,0,0,1-3.29,1.06,4.36,4.36,0,0,1-3.24-1.22,5.6,5.6,0,0,1-1.46-3.08h2.24a3.15,3.15,0,0,0,.73,1.55,2.32,2.32,0,0,0,1.78.68,2.44,2.44,0,0,0,1.81-.66,3.25,3.25,0,0,0,.75-2.49V571.6a3.59,3.59,0,0,1-3,1.41,4.19,4.19,0,0,1-3.26-1.34,5.6,5.6,0,0,1-1.48-3.92,5.26,5.26,0,0,1,1.45-3.83,4.53,4.53,0,0,1,3.36-1.37,3.72,3.72,0,0,1,2.94,1.34Zm-4.39,2.47a3.65,3.65,0,0,0,0,5,2.75,2.75,0,0,0,1.77.65,2.48,2.48,0,0,0,1.92-.8,3.23,3.23,0,0,0,.87-2.32,3.28,3.28,0,0,0-.94-2.49,2.69,2.69,0,0,0-3.59-.05Z"/><path class="cls-3" d="M235.9,570.45a5.33,5.33,0,0,1-1.67,1.81,5.43,5.43,0,0,1-2.92.75,4.38,4.38,0,0,1-3.33-1.27,5.3,5.3,0,0,1-1.46-3.78,5.79,5.79,0,0,1,1.58-4.07,4.5,4.5,0,0,1,3.31-1.34,4.27,4.27,0,0,1,3.17,1.3A5.93,5.93,0,0,1,236,568v.28h-7.1a3.24,3.24,0,0,0,.85,2,2.35,2.35,0,0,0,1.76.63,2.43,2.43,0,0,0,1.57-.49,3.68,3.68,0,0,0,.92-1.08Zm-2.28-4a2.46,2.46,0,0,0-.71-1.34,2.21,2.21,0,0,0-1.55-.56,2.24,2.24,0,0,0-1.62.63,2.56,2.56,0,0,0-.7,1.27Z"/><path class="cls-3" d="M237.71,562.81H240v.92a3.41,3.41,0,0,1,2.68-1.18,3.3,3.3,0,0,1,2.91,1.34,4.41,4.41,0,0,1,.61,2.75v6.07h-2.3v-5.5c0-2.52-.94-2.59-1.81-2.59-1,0-2.09.14-2.09,3.34v4.75h-2.3Z"/><path class="cls-3" d="M250.87,564.93v7.78h-2.3v-7.78h-1v-2.12h1v-3.62h2.3v3.62h1.76v2.12Z"/><path class="cls-3" d="M262.41,570.45a5.14,5.14,0,0,1-1.67,1.81,5.42,5.42,0,0,1-2.91.75,4.39,4.39,0,0,1-3.34-1.27A5.3,5.3,0,0,1,253,568a5.79,5.79,0,0,1,1.58-4.07,4.5,4.5,0,0,1,3.31-1.34,4.24,4.24,0,0,1,3.17,1.3,5.93,5.93,0,0,1,1.39,4.18v.28h-7.1a3.3,3.3,0,0,0,.85,2,2.35,2.35,0,0,0,1.76.63,2.44,2.44,0,0,0,1.58-.49,3.64,3.64,0,0,0,.91-1.08Zm-2.28-4a2.38,2.38,0,0,0-.7-1.34,2.24,2.24,0,0,0-1.56-.56,2.26,2.26,0,0,0-1.62.63,2.64,2.64,0,0,0-.7,1.27Z"/><path class="cls-3" d="M265.09,571.18l.94.28-1.74,4.7-.61-.23Z"/><path class="cls-3" d="M275.06,564v8.7h-.94V564h-1.06v-.89h1.06v-3.43h.94v3.43h1.67V564Z"/><path class="cls-3" d="M278.35,568a3.85,3.85,0,0,0,3.81,4,3.64,3.64,0,0,0,3.33-2.18l.8.47a4.62,4.62,0,0,1-4.21,2.6c-3,0-4.72-2.2-4.72-5,0-3.34,2.3-5.05,4.65-5.05,2.59,0,4.54,2.06,4.54,5.12Zm7.21-.89A3.59,3.59,0,0,0,282,563.8a3.66,3.66,0,0,0-3.59,3.34Z"/><path class="cls-3" d="M293.91,568a3.85,3.85,0,0,0,3.81,4,3.64,3.64,0,0,0,3.33-2.18l.8.47a4.62,4.62,0,0,1-4.21,2.6c-3,0-4.72-2.2-4.72-5,0-3.34,2.3-5.05,4.65-5.05,2.59,0,4.54,2.06,4.54,5.12Zm7.21-.89a3.59,3.59,0,0,0-3.55-3.34,3.66,3.66,0,0,0-3.59,3.34Z"/><path class="cls-3" d="M304.25,563.12h.94v1.5a3.21,3.21,0,0,1,2.94-1.71,3,3,0,0,1,2.65,1.34,4.54,4.54,0,0,1,.47,2.42v6h-.94v-6a3.58,3.58,0,0,0-.37-1.93,2,2,0,0,0-1.88-.94,2.51,2.51,0,0,0-2.35,1.34,5.11,5.11,0,0,0-.52,2.58v5h-.94Z"/><path class="cls-3" d="M315,564v8.7h-.93V564H313v-.89h1.06v-3.43H315v3.43h1.67V564Z"/><path class="cls-3" d="M317.93,563.12h.94v1.24a2.26,2.26,0,0,1,2.11-1.45,2.18,2.18,0,0,1,1,.23l-.47.85a1.06,1.06,0,0,0-.7-.19c-1.93,0-1.95,2.56-1.95,3.76v5.15h-.94Z"/><path class="cls-3" d="M323.78,568a3.85,3.85,0,0,0,3.81,4,3.67,3.67,0,0,0,3.34-2.18l.79.47a4.62,4.62,0,0,1-4.2,2.6c-3,0-4.72-2.2-4.72-5,0-3.34,2.3-5.05,4.65-5.05C330,562.91,332,565,332,568Zm7.22-.89a3.61,3.61,0,0,0-3.55-3.34,3.67,3.67,0,0,0-3.6,3.34Z"/><path class="cls-3" d="M343,563.12v9.3c0,3.62-1.81,5.69-4.82,5.69-2.49,0-4.58-1.46-4.7-4.11h1a3.45,3.45,0,0,0,3.71,3.22c3.78,0,3.88-3.81,3.88-4.8v-1.36a4.58,4.58,0,0,1-3.78,1.9,5,5,0,0,1,.11-10.05,4.32,4.32,0,0,1,3.67,1.88v-1.67ZM334.5,568c0,2.3,1.46,4.11,3.71,4.11s3.86-1.86,3.86-4.2a3.8,3.8,0,0,0-3.81-4.07C335.89,563.8,334.5,565.75,334.5,568Z"/><path class="cls-3" d="M353.51,563.12h.94v9.59h-.94V571a4.37,4.37,0,0,1-3.73,2,4.7,4.7,0,0,1-4.68-5.05c0-3,1.88-5,4.68-5a4.34,4.34,0,0,1,3.73,1.88Zm-7.42,4.72c0,2.16,1.34,4.23,3.76,4.23s3.71-2,3.71-4.23a3.75,3.75,0,1,0-7.47,0Z"/><path class="cls-3" d="M357.21,563.12h.94v1.2a2.71,2.71,0,0,1,2.49-1.41,2.64,2.64,0,0,1,2.68,1.74,3,3,0,0,1,2.84-1.74,2.89,2.89,0,0,1,2.16.8,3.46,3.46,0,0,1,.82,2.6v6.4h-.94v-6.4a2.76,2.76,0,0,0-.56-2,1.89,1.89,0,0,0-1.43-.54c-2.54,0-2.57,2.54-2.57,3.13v5.78h-.94v-6.16c0-.61,0-2.75-2.11-2.75-1.67,0-2.44,1.46-2.44,3.36v5.55h-.94Z"/><path class="cls-3" d="M381.34,567.94a5,5,0,1,1-5-5A4.94,4.94,0,0,1,381.34,567.94Zm-1,0a4,4,0,1,0-4.05,4.13A4,4,0,0,0,380.36,567.94Z"/><path class="cls-3" d="M387.57,564.88a1.75,1.75,0,0,0-1.66-1.08,1.55,1.55,0,0,0-1.63,1.53c0,.94.76,1.24,1.7,1.62a5.24,5.24,0,0,1,2.46,1.41,2.3,2.3,0,0,1,.5,1.55,2.93,2.93,0,0,1-3.13,3.05,3.28,3.28,0,0,1-3.31-2.53l.91-.29a2.45,2.45,0,0,0,2.4,1.93A2.06,2.06,0,0,0,388,570c0-1.08-.68-1.48-2.14-2.07a4.8,4.8,0,0,1-2.09-1.27,2,2,0,0,1-.42-1.25,2.43,2.43,0,0,1,2.56-2.46,2.56,2.56,0,0,1,2.51,1.55Z"/><path class="cls-3" d="M396.55,564v8.7h-.94V564h-1.05v-.89h1.05v-3.43h.94v3.43h1.67V564Z"/><path class="cls-3" d="M400.41,563.12v5.78a3.72,3.72,0,0,0,.61,2.4,2.74,2.74,0,0,0,3.81,0,3.78,3.78,0,0,0,.61-2.4v-5.78h.94v6a4.14,4.14,0,0,1-.73,2.63,3.76,3.76,0,0,1-5.45,0,4.14,4.14,0,0,1-.73-2.63v-6Z"/><path class="cls-3" d="M52,586.21v8.7h-.94v-8.7H50v-.89h1.06v-3.43H52v3.43h1.67v.89Z"/><path class="cls-3" d="M55.31,590.23a3.85,3.85,0,0,0,3.81,4,3.67,3.67,0,0,0,3.34-2.18l.8.47a4.65,4.65,0,0,1-4.21,2.6c-3,0-4.72-2.2-4.72-5,0-3.34,2.3-5,4.65-5,2.58,0,4.53,2.06,4.53,5.12Zm7.22-.89A3.61,3.61,0,0,0,59,586a3.67,3.67,0,0,0-3.6,3.34Z"/><path class="cls-3" d="M65.65,585.32h.94v1.24a2.27,2.27,0,0,1,2.12-1.45,2.18,2.18,0,0,1,1,.23l-.47.85a1.08,1.08,0,0,0-.71-.19c-1.92,0-2,2.56-2,3.76v5.15h-.94Z"/><path class="cls-3" d="M71.13,585.32h.94v1.24a2.26,2.26,0,0,1,2.12-1.45,2.23,2.23,0,0,1,1,.23l-.47.85A1.13,1.13,0,0,0,74,586c-1.93,0-2,2.56-2,3.76v5.15h-.94Z"/><path class="cls-3" d="M77,590.23a3.85,3.85,0,0,0,3.81,4,3.66,3.66,0,0,0,3.34-2.18l.8.47a4.65,4.65,0,0,1-4.21,2.6c-3,0-4.72-2.2-4.72-5,0-3.34,2.3-5,4.65-5,2.58,0,4.53,2.06,4.53,5.12Zm7.22-.89A3.61,3.61,0,0,0,80.65,586a3.67,3.67,0,0,0-3.6,3.34Z"/><path class="cls-3" d="M87.33,585.32h.94v1.5a3.18,3.18,0,0,1,2.93-1.71,3,3,0,0,1,2.66,1.34,4.64,4.64,0,0,1,.47,2.42v6h-.94v-6a3.5,3.5,0,0,0-.38-1.93,2,2,0,0,0-1.88-.94,2.52,2.52,0,0,0-2.35,1.34,5.22,5.22,0,0,0-.51,2.58v5h-.94Z"/><path class="cls-3" d="M106.53,590.14a5,5,0,1,1-5-5A4.94,4.94,0,0,1,106.53,590.14Zm-1,0a4,4,0,1,0-4,4.13A4,4,0,0,0,105.54,590.14Z"/><path class="cls-3" d="M114.45,585.32v5.78a3.72,3.72,0,0,0,.61,2.4,2.74,2.74,0,0,0,3.81,0,3.78,3.78,0,0,0,.61-2.4v-5.78h.94v6a4.14,4.14,0,0,1-.73,2.63,3.76,3.76,0,0,1-5.45,0,4.14,4.14,0,0,1-.73-2.63v-6Z"/><path class="cls-3" d="M123.17,585.32h.94v1.24a2.26,2.26,0,0,1,2.11-1.45,2.18,2.18,0,0,1,1,.23l-.47.85a1.06,1.06,0,0,0-.7-.19c-1.93,0-2,2.56-2,3.76v5.15h-.94Z"/><path class="cls-3" d="M129.59,577.78V587a4.48,4.48,0,0,1,3.76-1.88c2.89,0,4.65,2.16,4.65,4.93s-1.79,5.12-4.7,5.12a4.17,4.17,0,0,1-3.71-2v1.72h-.94V577.78ZM137,590a3.74,3.74,0,1,0-7.47,0c0,2.4,1.31,4.28,3.74,4.28S137,592.39,137,590Z"/><path class="cls-3" d="M147.94,585.32h.94v9.59h-.94v-1.72a4.37,4.37,0,0,1-3.73,2,4.7,4.7,0,0,1-4.68-5c0-3,1.88-5,4.68-5a4.37,4.37,0,0,1,3.73,1.88ZM140.52,590c0,2.16,1.34,4.23,3.76,4.23s3.71-2,3.71-4.23a3.75,3.75,0,1,0-7.47,0Z"/><path class="cls-3" d="M151.63,585.32h.94v1.5a3.21,3.21,0,0,1,2.94-1.71,3,3,0,0,1,2.66,1.34,4.64,4.64,0,0,1,.47,2.42v6h-.94v-6a3.59,3.59,0,0,0-.38-1.93,2,2,0,0,0-1.88-.94,2.52,2.52,0,0,0-2.35,1.34,5.22,5.22,0,0,0-.52,2.58v5h-.94Z"/><path class="cls-3" d="M161,582.12a.85.85,0,1,1,.85.87A.84.84,0,0,1,161,582.12Zm1.32,3.2v9.59h-.94v-9.59Z"/><path class="cls-3" d="M165.34,594h7.71v.9h-9.73l7.85-8.7h-6.63v-.89h8.55Z"/><path class="cls-3" d="M181.65,585.32h.94v9.59h-.94v-1.72a4.37,4.37,0,0,1-3.74,2,4.7,4.7,0,0,1-4.67-5c0-3,1.88-5,4.67-5a4.39,4.39,0,0,1,3.74,1.88ZM174.22,590c0,2.16,1.34,4.23,3.76,4.23s3.72-2,3.72-4.23a3.75,3.75,0,1,0-7.48,0Z"/><path class="cls-3" d="M193.14,577.78h.94v17.13h-.94v-1.72a4.36,4.36,0,0,1-3.71,2c-2.42,0-4.7-1.73-4.7-5.09,0-3.51,2.37-5,4.7-5a4.33,4.33,0,0,1,3.71,1.88ZM185.72,590c0,2.8,1.83,4.23,3.76,4.23s3.71-1.43,3.71-4.23a3.73,3.73,0,0,0-3.76-4C187.46,586,185.72,587.36,185.72,590Z"/><path class="cls-3" d="M206.28,590.14a5,5,0,1,1-5-5A4.94,4.94,0,0,1,206.28,590.14Zm-1,0a4,4,0,1,0-4.05,4.13A4,4,0,0,0,205.3,590.14Z"/><path class="cls-3" d="M216.32,595.07l-4.56-9.75h1.08l4,8.53,3.5-8.53h1.08l-6.3,15h-1.08Z"/><path class="cls-3" d="M228.47,577.78v17.13h-.94V577.78Z"/><path class="cls-3" d="M230.85,582.12a.85.85,0,1,1,.84.87A.83.83,0,0,1,230.85,582.12Zm1.31,3.2v9.59h-.94v-9.59Z"/><path class="cls-3" d="M239,587.08a1.75,1.75,0,0,0-1.66-1.08,1.55,1.55,0,0,0-1.63,1.53c0,.94.76,1.24,1.7,1.62a5.24,5.24,0,0,1,2.46,1.41,2.3,2.3,0,0,1,.5,1.55,2.93,2.93,0,0,1-3.13,3,3.28,3.28,0,0,1-3.31-2.53l.91-.29a2.45,2.45,0,0,0,2.4,1.93,2.06,2.06,0,0,0,2.14-2.11c0-1.08-.68-1.48-2.14-2.07a4.8,4.8,0,0,1-2.09-1.27,2,2,0,0,1-.42-1.25,2.43,2.43,0,0,1,2.56-2.46,2.56,2.56,0,0,1,2.51,1.55Z"/><path class="cls-3" d="M243.14,586.21v8.7h-.94v-8.7h-1.06v-.89h1.06v-3.43h.94v3.43h1.67v.89Z"/><path class="cls-3" d="M255.5,590.14a5,5,0,1,1-5-5A4.94,4.94,0,0,1,255.5,590.14Zm-1,0a4,4,0,1,0-4,4.13A4,4,0,0,0,254.51,590.14Z"/><path class="cls-3" d="M263.42,600.31h-.94v-15h.94V587a4.51,4.51,0,0,1,3.76-1.88c2.9,0,4.66,2.16,4.66,4.93s-1.79,5.12-4.7,5.12a4.19,4.19,0,0,1-3.72-2ZM270.85,590a3.74,3.74,0,1,0-7.47,0c0,2.4,1.31,4.28,3.73,4.28S270.85,592.39,270.85,590Z"/><path class="cls-3" d="M281.78,585.32h.94v9.59h-.94v-1.72a4.37,4.37,0,0,1-3.74,2,4.7,4.7,0,0,1-4.67-5c0-3,1.88-5,4.67-5a4.39,4.39,0,0,1,3.74,1.88ZM274.36,590c0,2.16,1.33,4.23,3.76,4.23s3.71-2,3.71-4.23a3.75,3.75,0,1,0-7.47,0Z"/><path class="cls-3" d="M285.47,585.32h.94v1.24a2.27,2.27,0,0,1,2.12-1.45,2.18,2.18,0,0,1,1,.23l-.47.85a1.1,1.1,0,0,0-.71-.19c-1.92,0-1.95,2.56-1.95,3.76v5.15h-.94Z"/><path class="cls-3" d="M298.49,585.32h.94v9.59h-.94v-1.72a4.37,4.37,0,0,1-3.73,2,4.7,4.7,0,0,1-4.68-5c0-3,1.88-5,4.68-5a4.37,4.37,0,0,1,3.73,1.88ZM291.07,590c0,2.16,1.34,4.23,3.76,4.23s3.71-2,3.71-4.23a3.75,3.75,0,1,0-7.47,0Z"/><path class="cls-3" d="M308,585.32v5.78a3.72,3.72,0,0,0,.61,2.4,2.74,2.74,0,0,0,3.81,0,3.78,3.78,0,0,0,.61-2.4v-5.78h.94v6a4.14,4.14,0,0,1-.73,2.63,3.76,3.76,0,0,1-5.45,0,4.14,4.14,0,0,1-.73-2.63v-6Z"/><path class="cls-3" d="M317.7,586.21v8.7h-.94v-8.7H315.7v-.89h1.06v-3.43h.94v3.43h1.67v.89Z"/><path class="cls-3" d="M320.24,582.12a.85.85,0,1,1,.84.87A.83.83,0,0,1,320.24,582.12Zm1.31,3.2v9.59h-.94v-9.59Z"/><path class="cls-3" d="M325.24,577.78v17.13h-.94V577.78Z"/><path class="cls-3" d="M327.62,582.12a.85.85,0,1,1,.84.87A.83.83,0,0,1,327.62,582.12Zm1.31,3.2v9.59H328v-9.59Z"/><path class="cls-3" d="M331.94,594h7.71v.9h-9.73l7.85-8.7h-6.63v-.89h8.56Z"/><path class="cls-3" d="M348.25,585.32h.94v9.59h-.94v-1.72a4.37,4.37,0,0,1-3.73,2,4.7,4.7,0,0,1-4.68-5c0-3,1.88-5,4.68-5a4.37,4.37,0,0,1,3.73,1.88ZM340.83,590c0,2.16,1.34,4.23,3.76,4.23s3.71-2,3.71-4.23a3.75,3.75,0,1,0-7.47,0Z"/><path class="cls-3" d="M352,585.32h.94v1.24a2.26,2.26,0,0,1,2.11-1.45,2.18,2.18,0,0,1,1,.23l-.47.85a1.06,1.06,0,0,0-.7-.19c-1.93,0-1.95,2.56-1.95,3.76v5.15H352Z"/><path class="cls-3" d="M362.64,590.23a3.85,3.85,0,0,0,3.81,4,3.67,3.67,0,0,0,3.34-2.18l.79.47a4.62,4.62,0,0,1-4.2,2.6c-3,0-4.73-2.2-4.73-5a4.67,4.67,0,0,1,4.66-5c2.58,0,4.53,2.06,4.53,5.12Zm7.22-.89a3.61,3.61,0,0,0-3.55-3.34,3.67,3.67,0,0,0-3.6,3.34Z"/><path class="cls-3" d="M373,585.32h.94v1.5a3.21,3.21,0,0,1,2.94-1.71,3,3,0,0,1,2.66,1.34,4.64,4.64,0,0,1,.47,2.42v6h-.94v-6a3.59,3.59,0,0,0-.38-1.93,2,2,0,0,0-1.88-.94,2.51,2.51,0,0,0-2.35,1.34,5.22,5.22,0,0,0-.52,2.58v5H373Z"/><path class="cls-3" d="M388.59,586.21v8.7h-.94v-8.7h-1.06v-.89h1.06v-3.43h.94v3.43h1.67v.89Z"/><path class="cls-3" d="M399.3,585.32h.95v9.59h-.95v-1.72a4.37,4.37,0,0,1-3.73,2,4.7,4.7,0,0,1-4.68-5c0-3,1.88-5,4.68-5A4.37,4.37,0,0,1,399.3,587ZM391.88,590c0,2.16,1.34,4.23,3.76,4.23s3.71-2,3.71-4.23a3.75,3.75,0,1,0-7.47,0Z"/><path class="cls-3" d="M403,585.32h.94v1.5a3.18,3.18,0,0,1,2.94-1.71,3,3,0,0,1,2.65,1.34,4.64,4.64,0,0,1,.47,2.42v6h-.94v-6a3.5,3.5,0,0,0-.38-1.93,2,2,0,0,0-1.88-.94,2.53,2.53,0,0,0-2.35,1.34,5.22,5.22,0,0,0-.51,2.58v5H403Z"/><path class="cls-3" d="M55.1,609.28a1.76,1.76,0,0,0-1.67-1.08,1.54,1.54,0,0,0-1.62,1.53c0,.94.75,1.24,1.69,1.62A5.14,5.14,0,0,1,56,612.76a2.29,2.29,0,0,1,.49,1.55,2.92,2.92,0,0,1-3.12,3.05A3.29,3.29,0,0,1,50,614.83l.92-.29a2.45,2.45,0,0,0,2.4,1.93,2.06,2.06,0,0,0,2.14-2.11c0-1.08-.68-1.48-2.14-2.07A4.74,4.74,0,0,1,51.25,611a2,2,0,0,1-.43-1.25,2.43,2.43,0,0,1,2.56-2.46,2.58,2.58,0,0,1,2.52,1.55Z"/><path class="cls-3" d="M67.67,612.33a5,5,0,1,1-5-5A4.94,4.94,0,0,1,67.67,612.33Zm-1,0a4,4,0,1,0-4,4.14A4,4,0,0,0,66.69,612.33Zm-2-9.21-2.46,3-.71-.37,2.16-3.22Z"/><path class="cls-3" d="M70.76,600v17.14h-1V600Z"/><path class="cls-3" d="M83,612.33a5,5,0,1,1-5-5A4.94,4.94,0,0,1,83,612.33Zm-1,0a4,4,0,1,0-4,4.14A4,4,0,0,0,82,612.33Z"/><path class="cls-3" d="M91.06,613.3a3.46,3.46,0,0,0,.52,1.67,3.48,3.48,0,0,0,6.3-2.19,3.34,3.34,0,0,0-1.48-2.87,3.92,3.92,0,0,0-2-.46v-1a3.36,3.36,0,0,0,2.12-.72,3.4,3.4,0,0,0,1.15-2.57,3.08,3.08,0,0,0-5.27-2.13,3.33,3.33,0,0,0-.8,2.09h-1a4.14,4.14,0,0,1,1.15-2.82,4.14,4.14,0,0,1,7,2.79,3.93,3.93,0,0,1-2.47,3.79A3.86,3.86,0,0,1,99,612.76a4.53,4.53,0,0,1-4.61,4.6,4.43,4.43,0,0,1-3.76-2,3.87,3.87,0,0,1-.56-2Z"/><path class="cls-3" d="M114.83,607.52h.94v9.59h-.94v-1.72a4.38,4.38,0,0,1-3.74,2,4.7,4.7,0,0,1-4.68-5.05c0-3,1.88-5,4.68-5a4.37,4.37,0,0,1,3.74,1.88Zm-7.43,4.72c0,2.16,1.34,4.23,3.76,4.23s3.71-2,3.71-4.23a3.75,3.75,0,1,0-7.47,0Z"/><path class="cls-3" d="M118.52,607.52h.94V609a3.18,3.18,0,0,1,2.94-1.71,3,3,0,0,1,2.65,1.34,4.64,4.64,0,0,1,.47,2.42v6h-.94v-6a3.58,3.58,0,0,0-.37-1.93,2.06,2.06,0,0,0-1.88-.94,2.53,2.53,0,0,0-2.36,1.34,5.22,5.22,0,0,0-.51,2.58v5h-.94Zm.52-2.31a2.18,2.18,0,0,1,.54-.89,1.53,1.53,0,0,1,1.08-.44,4.75,4.75,0,0,1,1.69.51,2.8,2.8,0,0,0,1.1.31.75.75,0,0,0,.64-.28,2.36,2.36,0,0,0,.33-.59l.58.47a2.35,2.35,0,0,1-.61.94,1.67,1.67,0,0,1-1,.4,3.72,3.72,0,0,1-1.37-.4,3.67,3.67,0,0,0-1.38-.42.82.82,0,0,0-.66.28,1.41,1.41,0,0,0-.28.56Z"/><path class="cls-3" d="M137.72,612.33a5,5,0,1,1-5-5A4.95,4.95,0,0,1,137.72,612.33Zm-1,0a4,4,0,1,0-4,4.14A4,4,0,0,0,136.73,612.33Z"/><path class="cls-3" d="M144,609.28a1.76,1.76,0,0,0-1.67-1.08,1.54,1.54,0,0,0-1.62,1.53c0,.94.75,1.24,1.69,1.62a5.19,5.19,0,0,1,2.47,1.41,2.29,2.29,0,0,1,.49,1.55,2.92,2.92,0,0,1-3.12,3.05,3.29,3.29,0,0,1-3.32-2.53l.92-.29a2.45,2.45,0,0,0,2.4,1.93,2,2,0,0,0,2.13-2.11c0-1.08-.68-1.48-2.13-2.07a4.84,4.84,0,0,1-2.1-1.27,2,2,0,0,1-.42-1.25,2.43,2.43,0,0,1,2.56-2.46,2.58,2.58,0,0,1,2.52,1.55Z"/><path class="cls-3" d="M147.76,615.53a.87.87,0,1,1-.87.87A.86.86,0,0,1,147.76,615.53Z"/><line class="cls-1" x1="6.62" y1="229.39" x2="343.89" y2="229.39"/></g></g></svg>