<?xml version="1.0" encoding="utf-8"?>
<!-- Generator: Adobe Illustrator 28.0.0, SVG Export Plug-In . SVG Version: 6.00 Build 0)  -->
<svg version="1.1" id="Capa_1" xmlns="http://www.w3.org/2000/svg" xmlns:xlink="http://www.w3.org/1999/xlink" x="0px" y="0px"
	 viewBox="0 0 554.9 617.4" style="enable-background:new 0 0 554.9 617.4;" xml:space="preserve">
<style type="text/css">
	.st0{fill:#F6F4EF;}
	.st1{fill:none;stroke:#C85F71;stroke-width:0.91;stroke-miterlimit:10;}
	.st2{fill:#4D78A7;}
</style>
<g id="Capa_2_00000020376682528771373780000012172007358067996838_">
	<g id="Capa_1-2">
		<g>
			<path class="st0" d="M37.2,123.6h-8.8l4.5-5.5c0.5-0.5,1.1-1.4,1.6-2c0.4-0.5,0.7-1.1,0.7-1.9c0-1.1-0.7-2.1-2.2-2.1
				c-1.5,0-2.2,1.1-2.3,2.4h-1.9c0.1-1.3,0.6-2.3,1.1-2.9c0.5-0.5,1.4-1.3,3.1-1.3c2.8,0,4.2,1.9,4.2,3.9c0,1.1-0.4,2-0.9,2.7
				c-0.5,0.7-1.1,1.4-1.9,2.3l-2,2.4h4.9V123.6z"/>
			<path class="st0" d="M41.5,122.4c-1.4-1.6-1.7-3.6-1.7-5.3c0-1.7,0.3-3.8,1.7-5.3c0.8-0.9,1.8-1.4,3-1.4c1.2,0,2.1,0.5,3,1.4
				c1.4,1.6,1.7,3.7,1.7,5.3c0,1.7-0.3,3.8-1.7,5.3c-0.8,0.9-1.8,1.4-3,1.4C43.2,123.8,42.3,123.3,41.5,122.4z M42.7,113.2
				c-0.7,1.1-0.9,2.8-0.9,3.9c0,1.2,0.2,2.8,0.9,3.9c0.6,0.9,1.3,1.1,1.8,1.1c0.5,0,1.2-0.2,1.8-1.1c0.7-1.1,0.9-2.8,0.9-3.9
				c0-1.1-0.2-2.8-0.9-3.9c-0.6-0.9-1.3-1.1-1.8-1.1C43.9,112.1,43.2,112.3,42.7,113.2z"/>
		</g>
		<polyline class="st1" points="18,47 0.4,47 0.4,163.7 554.5,163.7 554.5,47 535.6,47 		"/>
		<path class="st2" d="M65.7,345.6h-8.9v-10.4h21v62H65.7V345.6z"/>
		<path class="st2" d="M64.4,481.7c1.1-1.3,8.4-9.6,10.6-12.9c1.7-2.5,3.6-6.3,3.6-10c0.2-5-3.6-9.2-8.6-9.4c-0.2,0-0.4,0-0.6,0
			c-6.3,0-9.7,5-9.8,10.3H47.1c0.6-12.6,9.5-20.7,21.8-20.7c14.4,0,21.8,9.9,21.8,19.7c0,9.6-6.4,16.5-11.2,21.7L68.7,492h22.4v10.4
			h-45L64.4,481.7z"/>
		<path class="st2" d="M49.2,569.9c1.1-11.3,9.6-17.6,20.2-17.6c11.9,0,19.4,6.7,19.4,17.1c0,3.3-0.7,9.4-7.2,13
			c2.5,1,9.5,4.6,9.5,14.8c0,12.7-9.9,19.9-22.1,19.9c-11.9,0-21.3-7.3-22.3-19.2h12.1c0.8,5.1,4.4,8.8,10.3,8.8
			c7,0,9.9-5.1,9.9-9.9c0-4.6-2.8-9.7-10.3-9.7h-1.6v-8.8h1.7c6,0,8.5-4.2,8.5-8.5c0-4.9-3.2-8.2-8.2-8.2c-4.5-0.2-8.4,3.4-8.6,7.9
			c0,0.1,0,0.1,0,0.2L49.2,569.9z"/>
		<path class="st0" d="M61.5,120.2h-5.7l-1.6,3.8h-1.6l6.1-14l6,14h-1.7L61.5,120.2z M61,118.8l-2.2-5.3l-2.3,5.3H61z"/>
		<path class="st0" d="M66.6,124v-13.9L77,121v-10.3h1.5v13.9l-10.4-10.9V124H66.6z M75.6,107.9c-0.1,0.3-0.3,0.6-0.5,0.8
			c-0.4,0.4-0.9,0.6-1.4,0.6c-0.5,0-0.9-0.2-1.3-0.4c-0.3-0.2-0.7-0.3-1.1-0.4c-0.2,0-0.4,0.1-0.6,0.3c-0.2,0.2-0.3,0.4-0.3,0.6
			l-0.9-0.7c0.1-0.3,0.3-0.7,0.6-0.9c0.3-0.4,0.8-0.5,1.3-0.5c0.5,0,0.9,0.2,1.4,0.4c0.3,0.2,0.7,0.4,1.1,0.4c0.2,0,0.5-0.1,0.6-0.3
			c0.2-0.2,0.3-0.4,0.4-0.6L75.6,107.9z"/>
		<path class="st0" d="M81.2,117.3c0-3.8,3.1-7,6.9-7c3.8,0,7,3.1,7,6.9c0,3.8-3.1,7-6.9,7c0,0,0,0,0,0c-3.8,0.1-6.9-2.9-6.9-6.7
			C81.2,117.5,81.2,117.4,81.2,117.3z M82.8,117.3c0,3,2.5,5.4,5.5,5.3s5.4-2.5,5.3-5.5c0-3-2.5-5.3-5.4-5.3
			C85.2,111.9,82.7,114.3,82.8,117.3C82.7,117.3,82.7,117.3,82.8,117.3z"/>
		<path class="st0" d="M103.8,113.3c-0.2-0.4-0.5-0.7-0.8-1c-0.4-0.3-1-0.5-1.5-0.5c-1.1-0.1-2.1,0.6-2.2,1.7c0,0.1,0,0.2,0,0.3
			c0,0.4,0.2,0.9,0.5,1.2c0.4,0.4,0.9,0.7,1.4,0.8l1.3,0.6c0.8,0.3,1.5,0.7,2.1,1.3c0.7,0.6,1,1.5,1,2.4c-0.1,2.4-2.1,4.2-4.5,4.1
			c-1,0-1.9-0.4-2.6-1.1c-0.6-0.7-1.1-1.5-1.2-2.4l1.4-0.4c0.1,0.6,0.4,1.2,0.8,1.7c1.1,1,2.8,1,3.9-0.1c0.5-0.5,0.7-1.1,0.7-1.8
			c0-0.6-0.2-1.2-0.7-1.6c-0.5-0.4-1-0.7-1.6-0.9l-1.2-0.6c-0.7-0.3-1.3-0.6-1.8-1.1c-0.6-0.6-1-1.4-0.9-2.2c0-1.9,1.5-3.5,3.4-3.5
			c0.1,0,0.2,0,0.3,0c0.8,0,1.5,0.2,2.1,0.6c0.5,0.4,1,0.9,1.3,1.5L103.8,113.3z"/>
		<path class="st0" d="M112.8,110.7h2.7c1.8-0.1,3.5,0.5,4.9,1.6c1.5,1.3,2.3,3.2,2.3,5.1c0.1,2-0.8,3.9-2.3,5.1
			c-1.4,1.1-3.1,1.7-4.9,1.5h-2.7L112.8,110.7z M114.3,122.6h1.3c1.4,0.1,2.7-0.4,3.8-1.2c1.2-1,1.9-2.5,1.8-4.1
			c0-3.2-2.2-5.3-5.6-5.3h-1.3V122.6z"/>
		<path class="st0" d="M132.4,112.1H127v4h5.3v1.4H127v5.2h5.4v1.4h-6.9v-13.3h6.9L132.4,112.1z"/>
		<path class="st0" d="M55.5,137.6c-0.5-0.5-1.1-0.9-1.7-1.2c-0.7-0.3-1.5-0.5-2.3-0.5c-3,0-5.5,2.5-5.5,5.5s2.5,5.5,5.5,5.5
			c0.9,0,1.7-0.2,2.5-0.6c0.6-0.3,1.1-0.7,1.5-1.1v1.8c-1.2,0.8-2.6,1.3-4,1.3c-3.8,0-6.9-3.1-6.9-6.9s3.1-6.9,6.9-6.9
			c1.4,0,2.8,0.4,3.9,1.3V137.6z"/>
		<path class="st0" d="M60.3,134.7c1.1-0.1,2.3,0.2,3.2,0.7c1.6,1.2,1.9,3.6,0.7,5.2c-0.6,0.8-1.6,1.3-2.6,1.4l4.2,6h-1.8l-4.1-5.8
			h-0.4v5.8h-1.5v-13.3H60.3z M59.7,140.8h0.9c1.8,0,2.9-0.9,2.9-2.4c0.1-0.8-0.3-1.6-1.1-2c-0.6-0.3-1.3-0.4-1.9-0.4h-0.9
			L59.7,140.8z"/>
		<path class="st0" d="M75.2,136.1h-5.4v4H75v1.4h-5.3v5.2h5.4v1.4h-6.9v-13.3h6.9V136.1z M74.6,131.3l-3.1,2.3l-0.9-0.6l2.5-2.6
			L74.6,131.3z"/>
		<path class="st0" d="M77.9,134.7h2.7c1.8-0.1,3.5,0.5,4.9,1.6c1.5,1.3,2.3,3.2,2.3,5.1c0.1,2-0.8,3.9-2.3,5.1
			c-1.4,1.1-3.1,1.7-4.9,1.5h-2.7V134.7z M79.4,146.6h1.3c1.4,0.1,2.7-0.4,3.8-1.2c1.2-1,1.9-2.5,1.8-4.1c0-3.2-2.2-5.3-5.6-5.3
			h-1.3V146.6z"/>
		<path class="st0" d="M92,134.7V148h-1.5v-13.3H92z"/>
		<path class="st0" d="M98.7,136.1V148h-1.5v-11.9H94v-1.4h8v1.4H98.7z"/>
		<path class="st0" d="M102.6,141.3c0-3.8,3.1-7,6.9-7s7,3.1,7,6.9s-3.1,7-6.9,7c0,0,0,0,0,0c-3.8,0.1-6.9-2.9-6.9-6.7
			C102.5,141.5,102.5,141.4,102.6,141.3z M104.1,141.3c0,3,2.5,5.4,5.5,5.3c3,0,5.4-2.5,5.3-5.5c0-3-2.5-5.3-5.4-5.3
			C106.5,135.9,104.1,138.3,104.1,141.3C104.1,141.3,104.1,141.3,104.1,141.3z"/>
		<path class="st0" d="M233,120.1h1.6v1.4H233v2.5h-1.5v-2.5h-6.8l8.3-11.6V120.1z M231.5,120.1v-5.9l-4.2,5.9H231.5z"/>
		<path class="st0" d="M245.4,120.3c0,2.3-1.8,4.1-4.1,4.1s-4.1-1.8-4.1-4.1c-0.1-1.4,0.7-2.7,2-3.3c-1-0.6-1.7-1.7-1.6-2.9
			c0-2,1.6-3.7,3.7-3.7c2,0,3.7,1.6,3.7,3.7c0,1.2-0.6,2.3-1.6,2.9C244.6,117.6,245.4,118.9,245.4,120.3z M243.9,120.3
			c0-1.4-1.2-2.6-2.6-2.6c-1.4,0-2.6,1.2-2.6,2.6c0,1.4,1.2,2.6,2.6,2.6C242.7,122.9,243.9,121.8,243.9,120.3z M243.6,114.2
			c0-1.3-1-2.3-2.3-2.3c-1.3,0-2.3,1-2.3,2.3c0,1.3,1,2.3,2.3,2.3C242.5,116.5,243.5,115.5,243.6,114.2
			C243.6,114.2,243.6,114.2,243.6,114.2L243.6,114.2z"/>
		<path class="st0" d="M252.9,124l2.2-14.1l5.1,11.3l5.2-11.3l2.1,14.1H266l-1.3-9.3l-4.5,9.8l-4.5-9.8l-1.3,9.3H252.9z"/>
		<path class="st0" d="M277.5,112.1h-5.4v4h5.3v1.4h-5.3v5.2h5.4v1.4h-6.9v-13.3h6.9L277.5,112.1z"/>
		<path class="st0" d="M286.2,113.3c-0.2-0.4-0.5-0.7-0.8-1c-0.4-0.3-1-0.5-1.5-0.5c-1.1-0.1-2.1,0.6-2.2,1.7c0,0.1,0,0.2,0,0.3
			c0,0.4,0.2,0.9,0.5,1.2c0.4,0.4,0.9,0.7,1.4,0.8l1.3,0.6c0.8,0.3,1.5,0.7,2.1,1.3c0.7,0.6,1,1.5,1,2.4c-0.1,2.4-2.1,4.2-4.5,4.1
			c-1,0-1.9-0.4-2.6-1.1c-0.6-0.7-1.1-1.5-1.2-2.4l1.4-0.4c0.1,0.6,0.4,1.2,0.8,1.7c1.1,1,2.8,1,3.9-0.1c0.5-0.5,0.7-1.1,0.7-1.8
			c0-0.6-0.2-1.2-0.7-1.6c-0.5-0.4-1-0.7-1.6-0.9l-1.2-0.6c-0.7-0.3-1.3-0.6-1.8-1.1c-0.6-0.6-1-1.4-0.9-2.2c0-1.9,1.5-3.5,3.4-3.5
			c0.1,0,0.2,0,0.3,0c0.8,0,1.5,0.2,2.1,0.6c0.5,0.4,1,0.9,1.3,1.5L286.2,113.3z"/>
		<path class="st0" d="M297.5,112.1h-5.4v4h5.3v1.4h-5.3v5.2h5.4v1.4h-6.9v-13.3h6.9L297.5,112.1z"/>
		<path class="st0" d="M306.2,113.3c-0.2-0.4-0.5-0.7-0.8-1c-0.4-0.3-1-0.5-1.5-0.5c-1.1-0.1-2.1,0.6-2.2,1.7c0,0.1,0,0.2,0,0.3
			c0,0.4,0.2,0.9,0.5,1.2c0.4,0.4,0.9,0.7,1.4,0.8l1.3,0.6c0.8,0.3,1.5,0.7,2.1,1.3c0.7,0.6,1,1.5,1,2.4c-0.1,2.4-2.1,4.2-4.5,4.1
			c-1,0-1.9-0.4-2.6-1.1c-0.6-0.7-1.1-1.5-1.2-2.4l1.4-0.4c0.1,0.6,0.4,1.2,0.8,1.7c1.1,1,2.8,1,3.9-0.1c0.5-0.5,0.7-1.1,0.7-1.8
			c0-0.6-0.2-1.2-0.7-1.6c-0.5-0.4-1-0.7-1.6-0.9l-1.2-0.6c-0.7-0.3-1.3-0.6-1.8-1.1c-0.6-0.6-1-1.4-0.9-2.2c0-1.9,1.5-3.5,3.4-3.5
			c0.1,0,0.2,0,0.3,0c0.8,0,1.5,0.2,2.1,0.6c0.5,0.4,1,0.9,1.3,1.5L306.2,113.3z"/>
		<path class="st0" d="M321.2,113.3c-0.2-0.4-0.5-0.7-0.8-1c-0.4-0.3-1-0.5-1.5-0.5c-1.1-0.1-2.1,0.6-2.2,1.7c0,0.1,0,0.2,0,0.3
			c0,0.4,0.2,0.9,0.5,1.2c0.4,0.4,0.9,0.7,1.4,0.8l1.3,0.6c0.8,0.3,1.5,0.7,2.1,1.3c0.7,0.6,1,1.5,1,2.4c-0.1,2.4-2.1,4.2-4.5,4.1
			c-1,0-1.9-0.4-2.6-1.1c-0.6-0.7-1.1-1.5-1.2-2.4l1.4-0.4c0.1,0.6,0.4,1.2,0.8,1.7c1.1,1,2.8,1,3.9-0.1c0.5-0.5,0.7-1.1,0.7-1.8
			c0-0.6-0.2-1.2-0.7-1.6c-0.5-0.4-1-0.7-1.6-0.9l-1.2-0.6c-0.7-0.3-1.3-0.6-1.8-1.1c-0.6-0.6-1-1.4-0.9-2.2c0-1.9,1.5-3.5,3.4-3.5
			c0.1,0,0.2,0,0.3,0c0.8,0,1.5,0.2,2.1,0.6c0.5,0.4,1,0.9,1.3,1.5L321.2,113.3z"/>
		<path class="st0" d="M327.1,110.7V124h-1.5v-13.3H327.1z"/>
		<path class="st0" d="M330.5,124v-13.9l10.4,10.9v-10.3h1.5v13.9L332,113.7V124H330.5z"/>
		<path class="st0" d="M243.2,134.7V148h-1.5v-13.3H243.2z"/>
		<path class="st0" d="M246.6,148v-13.9L257,145v-10.3h1.5v13.9l-10.4-10.9V148H246.6z"/>
		<path class="st0" d="M265.2,136.1V148h-1.5v-11.9h-3.2v-1.4h8v1.4H265.2z"/>
		<path class="st0" d="M277.4,136.1h-5.4v4h5.3v1.4h-5.3v5.2h5.4v1.4h-6.9v-13.3h6.9V136.1z"/>
		<path class="st0" d="M282.2,134.7c1.1-0.1,2.3,0.2,3.2,0.7c1.6,1.2,1.9,3.6,0.7,5.2c-0.6,0.8-1.6,1.3-2.6,1.4l4.2,6H286l-4-5.9
			h-0.4v5.8h-1.5v-13.3H282.2z M281.6,140.8h0.9c1.8,0,2.9-0.9,2.9-2.4c0.1-0.8-0.3-1.6-1.1-2c-0.6-0.3-1.3-0.4-1.9-0.4h-0.9V140.8z
			"/>
		<path class="st0" d="M297,136.1h-5.4v4h5.3v1.4h-5.3v5.2h5.4v1.4h-6.9v-13.3h6.9V136.1z"/>
		<path class="st0" d="M305.7,137.3c-0.2-0.4-0.5-0.7-0.8-1c-0.4-0.3-1-0.5-1.5-0.5c-1.1-0.1-2.1,0.6-2.2,1.7c0,0.1,0,0.2,0,0.3
			c0,0.4,0.2,0.9,0.5,1.2c0.4,0.4,0.9,0.7,1.4,0.8l1.3,0.6c0.8,0.3,1.5,0.7,2.1,1.3c0.7,0.6,1,1.5,1,2.4c-0.1,2.4-2.1,4.2-4.5,4.1
			c-1,0-1.9-0.4-2.6-1.1c-0.6-0.7-1.1-1.5-1.2-2.4l1.4-0.4c0.1,0.6,0.4,1.2,0.8,1.7c1.1,1,2.8,1,3.9-0.1c0.5-0.5,0.7-1.1,0.7-1.8
			c0-0.6-0.2-1.2-0.7-1.6c-0.5-0.4-1-0.7-1.6-0.9l-1.2-0.6c-0.7-0.3-1.3-0.6-1.8-1.1c-0.6-0.6-1-1.4-0.9-2.2c0-1.9,1.5-3.5,3.4-3.5
			c0.1,0,0.2,0,0.3,0c0.8,0,1.5,0.2,2.1,0.6c0.5,0.4,1,0.9,1.3,1.5L305.7,137.3z"/>
		<path class="st0" d="M317,136.1h-5.4v4h5.3v1.4h-5.3v5.2h5.4v1.4h-6.9v-13.3h6.9V136.1z"/>
		<path class="st0" d="M325.7,137.3c-0.2-0.4-0.5-0.7-0.8-1c-0.4-0.3-1-0.5-1.5-0.5c-1.1-0.1-2.1,0.6-2.2,1.7c0,0.1,0,0.2,0,0.3
			c0,0.4,0.2,0.9,0.5,1.2c0.4,0.4,0.9,0.7,1.4,0.8l1.3,0.6c0.8,0.3,1.5,0.7,2.1,1.3c0.7,0.6,1,1.5,1,2.4c-0.1,2.4-2.1,4.2-4.5,4.1
			c-1,0-1.9-0.4-2.6-1.1c-0.6-0.7-1.1-1.5-1.2-2.4l1.4-0.4c0.1,0.6,0.4,1.2,0.8,1.7c1.1,1,2.8,1,3.9-0.1c0.5-0.5,0.7-1.1,0.7-1.8
			c0-0.6-0.2-1.2-0.7-1.6c-0.5-0.4-1-0.7-1.6-0.9l-1.2-0.6c-0.7-0.3-1.3-0.6-1.8-1.1c-0.6-0.6-1-1.4-0.9-2.2c0-1.9,1.5-3.5,3.4-3.5
			c0.1,0,0.2,0,0.3,0c0.8,0,1.5,0.2,2.1,0.6c0.5,0.4,1,0.9,1.3,1.5L325.7,137.3z"/>
		<path class="st0" d="M422,113.3c-0.2-0.4-0.5-0.7-0.8-1c-0.4-0.3-1-0.5-1.5-0.5c-1.1-0.1-2.1,0.6-2.2,1.7c0,0.1,0,0.2,0,0.3
			c0,0.4,0.2,0.9,0.5,1.2c0.4,0.4,0.9,0.7,1.4,0.8l1.3,0.6c0.8,0.3,1.5,0.7,2.1,1.3c0.7,0.6,1,1.5,1,2.4c-0.1,2.4-2.1,4.2-4.5,4.1
			c-1,0-1.9-0.4-2.6-1.1c-0.6-0.7-1.1-1.5-1.2-2.4l1.5-0.4c0.1,0.6,0.4,1.2,0.8,1.7c1.1,1,2.8,1,3.9-0.1c0.5-0.5,0.7-1.1,0.7-1.8
			c0-0.6-0.2-1.2-0.7-1.6c-0.5-0.4-1-0.7-1.6-0.9l-1.2-0.6c-0.7-0.3-1.3-0.6-1.8-1.1c-0.6-0.6-1-1.4-0.9-2.2c0-1.9,1.5-3.5,3.4-3.5
			c0.1,0,0.2,0,0.3,0c0.8,0,1.5,0.2,2.1,0.6c0.5,0.4,1,0.9,1.3,1.5L422,113.3z"/>
		<path class="st0" d="M425.7,117.3c0-3.8,3.1-7,6.9-7c3.8,0,7,3.1,7,6.9c0,3.8-3.1,7-6.9,7c0,0,0,0,0,0c-3.8,0.1-6.9-2.9-6.9-6.7
			C425.7,117.5,425.7,117.4,425.7,117.3z M427.2,117.3c0,3,2.5,5.4,5.5,5.4c3,0,5.4-2.5,5.4-5.5c0-3-2.5-5.4-5.4-5.4
			C429.6,111.9,427.2,114.3,427.2,117.3C427.2,117.3,427.2,117.3,427.2,117.3z M435.4,107.3l-3.1,2.3l-0.9-0.6l2.5-2.6L435.4,107.3z
			"/>
		<path class="st0" d="M443.8,110.7v11.9h3.7v1.4h-5.2v-13.3H443.8z"/>
		<path class="st0" d="M448.1,117.3c0-3.8,3.1-7,6.9-7c3.8,0,7,3.1,7,6.9c0,3.8-3.1,7-6.9,7c0,0,0,0,0,0c-3.8,0.1-6.9-2.9-6.9-6.7
			C448.1,117.5,448.1,117.4,448.1,117.3z M449.6,117.3c0,3,2.5,5.4,5.5,5.3c3,0,5.4-2.5,5.3-5.5c0-3-2.5-5.3-5.4-5.3
			C452,111.9,449.6,114.3,449.6,117.3C449.6,117.3,449.6,117.3,449.6,117.3z"/>
		<path class="st0" d="M472.9,112.1h-2.2l0.8-1.4h3V124H473L472.9,112.1z"/>
		<path class="st0" d="M480,122.2c-1.8-3-1.8-6.8,0-9.8c1.1-1.9,3.4-2.6,5.3-1.5c0.6,0.4,1.2,0.9,1.5,1.5c1.8,3,1.8,6.8,0,9.8
			c-1.1,1.9-3.4,2.6-5.3,1.5C480.9,123.4,480.4,122.9,480,122.2z M481.1,113.2c-1.3,2.5-1.3,5.6,0,8.1c0.6,1.3,2.1,1.8,3.4,1.2
			c0.6-0.3,1-0.7,1.2-1.2c1.3-2.5,1.3-5.6,0-8.1c-0.6-1.3-2.1-1.8-3.4-1.2C481.8,112.2,481.4,112.7,481.1,113.2z"/>
		<path class="st0" d="M495.5,113.4c0,1.6-1.3,2.9-2.9,2.9c-1.6,0-2.9-1.3-2.9-2.9c0-1.6,1.3-2.9,2.9-2.9c0,0,0,0,0,0
			C494.2,110.5,495.5,111.8,495.5,113.4C495.5,113.4,495.5,113.4,495.5,113.4z M494.3,113.4c0-0.9-0.9-1.7-1.8-1.6
			c-0.9,0-1.7,0.9-1.6,1.8c0,0.9,0.8,1.6,1.7,1.6C493.6,115.2,494.3,114.4,494.3,113.4C494.3,113.5,494.3,113.5,494.3,113.4z
			 M499.7,110.4l0.8,0.4l-7.8,13.4l-0.8-0.5L499.7,110.4z M502.6,121.3c0,1.6-1.3,2.9-2.9,2.9s-2.9-1.3-2.9-2.9
			c0-1.6,1.3-2.9,2.9-2.9l0,0C501.3,118.4,502.6,119.6,502.6,121.3C502.6,121.2,502.6,121.2,502.6,121.3L502.6,121.3z M501.4,121.3
			c-0.1-0.9-0.9-1.7-1.8-1.6c-0.9,0.1-1.7,0.9-1.6,1.8c0.1,0.9,0.8,1.6,1.7,1.6C500.7,123.1,501.4,122.3,501.4,121.3
			C501.4,121.3,501.4,121.3,501.4,121.3L501.4,121.3z"/>
		<path class="st0" d="M509.6,110.7h2.7c1.8-0.1,3.5,0.5,4.9,1.6c1.5,1.3,2.3,3.2,2.3,5.1c0.1,2-0.8,3.9-2.3,5.1
			c-1.4,1.1-3.1,1.7-4.9,1.5h-2.7L509.6,110.7z M511.1,122.6h1.3c1.4,0.1,2.7-0.4,3.8-1.2c1.2-1,1.9-2.5,1.8-4.1
			c0-3.2-2.2-5.3-5.6-5.3h-1.3V122.6z"/>
		<path class="st0" d="M529.2,112.1h-5.4v4h5.3v1.4h-5.3v5.2h5.4v1.4h-6.9v-13.3h6.9V112.1z"/>
		<path class="st0" d="M431.4,136.1H426v4h5.3v1.4H426v5.2h5.5v1.4h-6.9v-13.3h6.9L431.4,136.1z"/>
		<path class="st0" d="M434.1,148v-13.9l10.4,10.9v-10.3h1.5v13.9l-10.4-10.9V148H434.1z"/>
		<path class="st0" d="M456.3,141.3h5.6v0.3c0,1.5-0.4,3-1.3,4.2c-1.2,1.6-3,2.5-5,2.4c-3.8,0-6.9-3.1-6.9-6.9
			c0-3.8,3.1-6.9,6.9-6.9c1.5,0,2.9,0.4,4.1,1.3c0.6,0.5,1.1,1,1.5,1.6l-1.1,1c-0.3-0.5-0.7-0.9-1.1-1.3c-0.9-0.7-2.1-1.1-3.2-1.1
			c-3,0-5.5,2.5-5.5,5.5s2.5,5.5,5.5,5.5c1.7,0,3.2-0.8,4.1-2.2c0.3-0.6,0.5-1.2,0.5-1.9h-4L456.3,141.3z"/>
		<path class="st0" d="M472,144.2h-5.7l-1.6,3.8H463l6.1-14l6,14h-1.6L472,144.2z M471.4,142.8l-2.2-5.3l-2.3,5.3H471.4z"/>
		<path class="st0" d="M477,148v-13.9l10.5,10.9v-10.3h1.5v13.9l-10.4-10.9V148H477z"/>
		<path class="st0" d="M502.6,137.6c-0.5-0.5-1.1-0.9-1.7-1.2c-0.7-0.3-1.5-0.5-2.3-0.5c-3,0-5.5,2.5-5.5,5.5s2.5,5.5,5.5,5.5
			c0.9,0,1.7-0.2,2.5-0.6c0.6-0.3,1.1-0.7,1.5-1.1v1.8c-1.2,0.8-2.6,1.3-4,1.3c-3.8,0-6.9-3.1-6.9-6.9c0-3.8,3.1-6.9,6.9-6.9
			c1.4,0,2.8,0.4,4,1.3L502.6,137.6z"/>
		<path class="st0" d="M506.8,140.1h6.8v-5.4h1.5V148h-1.5v-6.5h-6.8v6.5h-1.5v-13.3h1.5L506.8,140.1z"/>
		<path class="st0" d="M525.4,136.1H520v4h5.3v1.4H520v5.2h5.4v1.4h-6.9v-13.3h6.9V136.1z"/>
		<path class="st0" d="M97.7,26H45.1c-0.9,0-1.7,0.7-1.7,1.7v38.7c0,0.9,0.7,1.7,1.7,1.7h36.4c-0.1-0.7-0.3-1.4-0.3-2.1h-3.4v-6.4
			h3.7c0.1-0.4,0.2-0.7,0.3-1.1h-4v-6.4h7c0.3-0.4,0.6-0.7,0.9-1.1h-7.8v-6.4h9.2v5c0.5-0.5,1.1-1,1.6-1.4v-3.6h6.9
			c1.3-0.4,2.6-0.6,3.9-0.7V27.6C99.3,26.7,98.6,26,97.7,26z M54.4,66h-9.2v-6.4h9.2V66z M54.4,58.5h-9.2v-6.4h9.2V58.5z M54.4,51
			h-9.2v-6.4h9.2V51z M54.4,43.5h-9.2V37h9.2V43.5z M65.2,66H56v-6.4h9.2L65.2,66z M65.2,58.5H56v-6.4h9.2L65.2,58.5z M65.2,51H56
			v-6.4h9.2L65.2,51z M65.2,43.5H56V37h9.2L65.2,43.5z M76.1,66h-9.2v-6.4h9.2V66z M76.1,58.5h-9.2v-6.4h9.2V58.5z M76.1,51h-9.2
			v-6.4h9.2V51z M76.1,43.5h-9.2V37h9.2V43.5z M86.9,43.5h-9.2V37h9.2V43.5z M58.7,34.2v-5.5h37.9v5.5H58.7z M97.8,43.5h-9.2V37h9.2
			V43.5z"/>
		
			<rect x="60.3" y="35.6" transform="matrix(0.5703 -0.8214 0.8214 0.5703 -7.0258 67.0742)" class="st0" width="0.5" height="9.3"/>
		<rect x="56" y="40" transform="matrix(0.8217 -0.5699 0.5699 0.8217 -12.1312 41.706)" class="st0" width="9.3" height="0.5"/>
		
			<rect x="71.2" y="35.6" transform="matrix(0.5703 -0.8214 0.8214 0.5703 -2.3569 75.9974)" class="st0" width="0.5" height="9.3"/>
		<rect x="66.8" y="40" transform="matrix(0.8217 -0.5699 0.5699 0.8217 -10.1962 47.8861)" class="st0" width="9.3" height="0.5"/>
		
			<rect x="60.3" y="43.1" transform="matrix(0.5703 -0.8214 0.8214 0.5703 -13.1867 70.2999)" class="st0" width="0.5" height="9.3"/>
		<rect x="56" y="47.5" transform="matrix(0.8217 -0.5699 0.5699 0.8217 -16.4062 43.0457)" class="st0" width="9.3" height="0.5"/>
		
			<rect x="49.3" y="35.6" transform="matrix(0.5703 -0.8214 0.8214 0.5703 -11.7444 58.0531)" class="st0" width="0.5" height="9.3"/>
		<rect x="45" y="40" transform="matrix(0.8217 -0.5699 0.5699 0.8217 -14.0872 35.4469)" class="st0" width="9.3" height="0.5"/>
		
			<rect x="49.3" y="43.2" transform="matrix(0.5708 -0.8211 0.8211 0.5708 -17.9887 61.1911)" class="st0" width="0.5" height="9.2"/>
		<rect x="45" y="47.5" transform="matrix(0.8217 -0.5699 0.5699 0.8217 -18.3622 36.7866)" class="st0" width="9.3" height="0.5"/>
		
			<rect x="71.1" y="43.2" transform="matrix(0.5708 -0.8211 0.8211 0.5708 -8.6448 79.1283)" class="st0" width="0.5" height="9.2"/>
		
			<rect x="66.8" y="47.5" transform="matrix(0.8217 -0.5699 0.5699 0.8217 -14.4712 49.2258)" class="st0" width="9.3" height="0.5"/>
		<rect x="82" y="35.6" transform="matrix(0.5703 -0.8214 0.8214 0.5703 2.3067 84.907)" class="st0" width="0.5" height="9.3"/>
		<rect x="77.7" y="40" transform="matrix(0.8217 -0.5699 0.5699 0.8217 -8.2652 54.0737)" class="st0" width="9.3" height="0.5"/>
		<rect x="92.9" y="35.6" transform="matrix(0.5703 -0.8214 0.8214 0.5703 6.9621 93.8208)" class="st0" width="0.5" height="9.3"/>
		<rect x="88.5" y="40" transform="matrix(0.8217 -0.5699 0.5699 0.8217 -6.3302 60.2537)" class="st0" width="9.3" height="0.5"/>
		<path class="st0" d="M101,43.8c-0.6,0-1.1,0-1.6,0.1c-1.3,0.1-2.6,0.3-3.9,0.7c-2.5,0.7-4.8,1.9-6.9,3.5c-0.6,0.5-1.1,0.9-1.6,1.4
			C86.5,50,86,50.5,85.6,51s-0.6,0.7-0.9,1.1c-1.4,1.9-2.5,4.1-3.1,6.4c-0.1,0.4-0.2,0.7-0.3,1.1C81.1,61,81,62.4,81,63.8
			c0,0.7,0,1.5,0.1,2.2c0.1,0.7,0.2,1.4,0.3,2.1c2.4,10.8,13,17.6,23.8,15.2c10.8-2.4,17.6-13,15.2-23.8
			C118.5,50.3,110.4,43.8,101,43.8z M101,80c-7.3,0-13.7-4.9-15.6-11.9c-0.2-0.7-0.3-1.4-0.4-2.1c-0.1-0.7-0.1-1.5-0.1-2.2
			c0-1.4,0.2-2.8,0.6-4.2c0.1-0.4,0.2-0.7,0.3-1.1c0.3-0.9,0.7-1.9,1.2-2.7c0.8-1.4,1.8-2.6,2.9-3.7c0.4-0.4,0.8-0.7,1.2-1.1
			c2-1.5,4.3-2.5,6.7-3c0.5-0.1,1-0.2,1.6-0.2s1.1-0.1,1.6-0.1c8.9-0.5,16.6,6.3,17.1,15.3c0.5,8.9-6.3,16.6-15.3,17.1
			C102.2,80,101.6,80,101,80z"/>
		<polygon class="st0" points="112.3,71.6 100.2,64.2 100.2,56.1 101.8,56.1 101.8,63.3 113.2,70.2 		"/>
		<path class="st0" d="M42.2,83.9c-17-21.2-13.6-52.1,7.6-69.1s52.1-13.6,69.1,7.6c14.4,18,14.4,43.5,0,61.5h5
			c17-23.9,11.4-57.1-12.5-74.1S54.2-1.6,37.2,22.3c-13.1,18.4-13.1,43.1,0,61.5H42.2z"/>
		<path class="st0" d="M476.3,80.8c5.6,0,10.2-4.6,10.2-10.2c0-5.6-4.6-10.2-10.2-10.2c-5.6,0-10.2,4.6-10.2,10.2v0
			C466.1,76.3,470.7,80.8,476.3,80.8z M476.3,62.7c4.4,0,7.9,3.6,7.9,7.9s-3.6,7.9-7.9,7.9c-4.4,0-7.9-3.6-7.9-7.9
			C468.4,66.3,471.9,62.7,476.3,62.7C476.3,62.7,476.3,62.7,476.3,62.7z"/>
		<path class="st0" d="M474,72.9h-2.3c0,1.9,1.5,3.4,3.4,3.4v1.1h2.3v-1.1c1.9-0.1,3.3-1.7,3.2-3.6c-0.1-1.7-1.5-3.1-3.2-3.2v-2.3
			c0.6,0,1.1,0.5,1.1,1.1l0,0h2.3c0-1.9-1.5-3.4-3.4-3.4v-1.1h-2.3V65c-1.9,0-3.4,1.5-3.4,3.4s1.5,3.4,3.4,3.4V74
			C474.5,74,474,73.5,474,72.9z M474,68.4c0-0.6,0.5-1.1,1.1-1.1c0,0,0,0,0,0v2.3C474.5,69.5,474,69,474,68.4
			C474,68.4,474,68.4,474,68.4z M477.4,71.8c0.6,0.1,1.1,0.6,1,1.2c-0.1,0.5-0.5,1-1,1V71.8z"/>
		<path class="st0" d="M504.7,50.2H499v-9.1l1.7,1c0.5,0.3,1.2,0.1,1.5-0.4l3.4-5.7c0.3-0.5,0.2-1.2-0.4-1.6c0,0,0,0,0,0l-8.5-4.7
			v-8h1.1c0.6,0,1.1-0.5,1.1-1.1v-3.4c0-0.6-0.5-1.1-1.1-1.1h-11.3c-0.6,0-1.1,0.5-1.1,1.1c0,0,0,0,0,0v3.4c0,0.6,0.5,1.1,1.1,1.1
			l0,0h1.1v2.9l-15.3-8.5c-0.3-0.2-0.8-0.2-1.1,0l-32.9,18.1c-0.5,0.3-0.7,1-0.4,1.5c0,0,0,0,0,0l3.4,5.7c0.3,0.5,1,0.7,1.5,0.4
			l2.8-1.6v32.4h-2.3c-0.6,0-1.1,0.5-1.1,1.1v5.7c0,0.6,0.5,1.1,1.1,1.1l0,0h10.2v2.3c0,0.6,0.5,1.1,1.1,1.1h43.1
			c0.6,0,1.1-0.5,1.1-1.1h2.3c0.6,0,1.1-0.5,1.1-1.1v-2.3h2.3c0.6,0,1.1-0.5,1.1-1.1c0,0,0,0,0,0V51.4
			C505.8,50.7,505.3,50.2,504.7,50.2C504.7,50.2,504.7,50.2,504.7,50.2z M487.7,18.5h9.1v1.1h-9.1V18.5z M489.9,21.9h4.5v6.7
			l-4.6-2.6L489.9,21.9z M442.7,39.6l-2.2-3.7l31.3-17.3l31.3,17.3l-2.2,3.7l-28.5-16.5c-0.4-0.2-0.8-0.2-1.1,0L442.7,39.6z
			 M447.9,39.2l23.8-13.7l25,14.4v10.4h-38.6c-0.6,0-1.1,0.5-1.2,1.1c0,0,0,0,0,0v2.3h-1.1c-0.6,0-1.1,0.5-1.1,1.1V57
			c-0.6,0-1.1,0.5-1.1,1.1c0,0,0,0,0,0v14.8H448L447.9,39.2z M496.7,62.6c-1.6-0.4-2.8-1.7-3.3-3.2h3.3V62.6z M491.2,59.3
			c0.5,2.8,2.7,5.1,5.6,5.6v11.6c-2.9,0.5-5.1,2.7-5.6,5.6h-29.7c-0.5-2.9-2.7-5.1-5.6-5.6V64.9c2.9-0.5,5.1-2.7,5.6-5.6L491.2,59.3
			z M455.9,62.5v-3.2h3.2C458.7,60.9,457.5,62.1,455.9,62.5L455.9,62.5z M444.5,78.5v-3.4h9.1v3.4H444.5z M455.9,78.7
			c1.6,0.4,2.8,1.7,3.3,3.3h-3.2L455.9,78.7z M496.7,82h-3.3c0.4-1.6,1.7-2.8,3.3-3.3V82z M500.1,80.9H499V58.2
			c0-0.6-0.5-1.1-1.1-1.2c0,0,0,0,0,0H457v-1.1h43.1L500.1,80.9z M503.5,77.5h-1.1V54.8c0-0.6-0.5-1.1-1.1-1.1h-42v-1.1h44.2
			L503.5,77.5z"/>
		<path class="st0" d="M466.1,45.7h11.4c0.6,0,1.1-0.5,1.1-1.1c0,0,0,0,0,0V33.2c0-0.6-0.5-1.1-1.1-1.1h-11.4
			c-0.6,0-1.1,0.5-1.1,1.1v11.3C465,45.2,465.5,45.7,466.1,45.7z M467.2,40h3.4v3.4h-3.4V40z M472.9,43.4V40h3.4v3.4H472.9z
			 M476.3,37.7h-3.4v-3.4h3.4V37.7z M470.6,34.3v3.4h-3.4v-3.4H470.6z"/>
		<path class="st0" d="M436.2,84.9c-17-21.2-13.6-52.1,7.6-69.1C465-1.2,496,2.1,513,23.3c14.4,18,14.4,43.6,0,61.5h5
			c17-23.9,11.4-57.1-12.5-74.1s-57.1-11.4-74.1,12.5c-13.1,18.4-13.1,43.1,0,61.6H436.2z"/>
		<path class="st0" d="M245.8,84.9c-17-21.2-13.6-52.1,7.6-69.1s52.1-13.6,69.1,7.6c14.4,18,14.4,43.6,0,61.5h5
			c17-23.9,11.4-57.1-12.5-74.1s-57.1-11.4-74.1,12.5c-13.1,18.4-13.1,43.1,0,61.6H245.8z"/>
		<path class="st0" d="M250.6,84.6h33.3v-2h-32.3v-58h27.7v8.2c0,0.6,0.4,1,1,1h8.2v26.1h2V32.8c0,0,0,0,0-0.1c0-0.1,0-0.2,0-0.3
			c0,0,0-0.1,0-0.1c0-0.1-0.1-0.2-0.2-0.3l-7.5-7.5h9.8v35.3h2V24.6h2v35.3h2V23.5c0-0.6-0.4-1-1-1h-47.2c-0.6,0-1,0.4-1,1v60
			C249.6,84.1,250,84.5,250.6,84.6C250.6,84.6,250.6,84.6,250.6,84.6z M281.4,31.7V26l5.7,5.7L281.4,31.7z"/>
		<path class="st0" d="M282.4,67.9V57.2l1.6,1c0.3,0.2,0.8,0.2,1.1,0c0.3-0.2,0.5-0.6,0.5-0.9V53c0-0.4-0.2-0.7-0.5-0.9l-3.8-2.3
			v-5.4c0-0.6-0.5-1.1-1.1-1.1l0,0H276c-0.6,0-1,0.5-1,1.1v1.4l-3.7-2.3c-0.3-0.2-0.8-0.2-1.1,0L256.2,52c-0.3,0.2-0.5,0.5-0.5,0.9
			v4.3c0,0.4,0.2,0.7,0.5,0.9c0.3,0.2,0.8,0.2,1.1,0l1.6-1v10.8c0,0.6,0.4,1.1,1,1.1c0,0,0,0,0,0h21.4
			C281.9,69,282.4,68.5,282.4,67.9C282.4,67.9,282.4,67.9,282.4,67.9z M277.1,45.5h2.1v2.9l-2.1-1.3V45.5z M257.9,53.6l12.8-7.9
			l12.8,7.9v1.8l-12.2-7.5c-0.3-0.2-0.8-0.2-1.1,0l-12.3,7.5V53.6z M268.5,66.8v-6.4h4.3v6.4H268.5z M275,66.8v-7.5
			c0-0.6-0.5-1.1-1.1-1.1l0,0h-6.4c-0.6,0-1.1,0.5-1.1,1.1c0,0,0,0,0,0v7.5h-5.3v-11l9.6-5.9l9.6,5.9v11H275z"/>
		<path class="st0" d="M255.7,27.6h13.3v2.1h-13.3V27.6z"/>
		<path class="st0" d="M255.7,31.7h21.5v2.1h-21.5V31.7z"/>
		<path class="st0" d="M255.7,36.5h29.7v2.1h-29.7V36.5z"/>
		<path class="st0" d="M255.7,72.2h30.1l-0.4,2.1h-29.7V72.2z"/>
		<path class="st0" d="M255.7,76.4h6.2v2h-6.1L255.7,76.4z"/>
		<path class="st0" d="M263.9,76.4h21.1l-0.4,2h-20.8V76.4z"/>
		<path class="st0" d="M271.1,27.6h6.2v2.1h-6.2V27.6z"/>
		<path class="st0" d="M290.2,65.5h2.2l4.2,10l4.4-10h2.2l2.6,15.8h-3.1l-1.4-9.7l-4.2,9.7h-1l-4.1-9.7l-1.6,9.7h-3.1L290.2,65.5z"
			/>
		<path class="st0" d="M314.3,69.1c-0.6-0.9-1.5-1.4-2.6-1.3c-1.7,0-2.2,1-2.2,1.8c0,0.4,0.2,0.8,0.5,1.1c0.6,0.4,1.2,0.7,1.9,0.9
			c1.2,0.3,2.3,0.8,3.2,1.6c0.9,0.9,1.4,2.1,1.4,3.3c0,3.1-2.2,5.2-5.5,5.2c-2.2,0-4.3-1.1-5.5-3l2-1.9c0.6,1.3,1.9,2.1,3.3,2.1
			c1.2,0.1,2.3-0.8,2.4-2c0-0.1,0-0.1,0-0.2c0-0.5-0.2-1.1-0.6-1.4c-0.7-0.5-1.6-0.9-2.4-1.2c-1-0.3-1.9-0.7-2.6-1.4
			c-0.8-0.7-1.3-1.8-1.2-2.9c0-2.3,1.6-4.6,5.1-4.6c1.7,0,3.3,0.7,4.5,1.9L314.3,69.1z"/>
		<path class="st0" d="M320.1,65.5v15.8H317V65.5H320.1z"/>
		<rect x="287.2" y="82.5" class="st0" width="32.9" height="2.1"/>
		<rect x="287.2" y="62.1" class="st0" width="32.9" height="2.1"/>
		<path class="st0" d="M7.4,221.9v-22.6L24.3,217v-16.8h2.4v22.6L9.8,205.1v16.7H7.4z"/>
		<path class="st0" d="M45.6,215.8h-9.2l-2.6,6.1h-2.7l10-22.7l9.7,22.7h-2.7L45.6,215.8z M44.6,213.5l-3.6-8.7l-3.7,8.7L44.6,213.5
			z"/>
		<path class="st0" d="M55.1,200.2h4.4c2.9-0.2,5.7,0.7,8,2.5c2.4,2.1,3.8,5.1,3.7,8.3c0.1,3.2-1.3,6.3-3.8,8.3
			c-2,1.7-4.1,2.5-7.9,2.5h-4.4V200.2z M57.5,219.6h2.1c2.2,0.1,4.4-0.6,6.2-1.9c1.9-1.6,3-4.1,2.9-6.6c0-5.2-3.6-8.6-9.1-8.6h-2.1
			V219.6z"/>
		<path class="st0" d="M89,215.8h-9.3l-2.6,6.1h-2.7l10-22.7l9.7,22.7h-2.7L89,215.8z M88,213.5l-3.6-8.7l-3.7,8.7H88z"/>
		<path class="st0" d="M124,205c-0.8-0.8-1.8-1.5-2.8-2c-1.2-0.5-2.4-0.8-3.7-0.8c-4.9,0.2-8.8,4.3-8.6,9.2c0.2,4.7,3.9,8.5,8.6,8.6
			c1.4,0,2.8-0.4,4-1c0.9-0.5,1.8-1.1,2.5-1.8v3c-1.9,1.4-4.2,2.1-6.5,2.1c-6.2,0-11.2-5.1-11.1-11.3c0-6.2,5.1-11.2,11.3-11.1
			c2.3-0.1,4.6,0.7,6.5,2.1V205z"/>
		<path class="st0" d="M128.6,211.1c0-6.2,5-11.3,11.2-11.3c6.2,0,11.3,5,11.3,11.2c0,6.2-5,11.3-11.2,11.3c0,0,0,0-0.1,0
			c-6.1,0.1-11.2-4.7-11.3-10.9C128.6,211.3,128.6,211.2,128.6,211.1z M131,211.1c0.1,4.9,4.1,8.8,8.9,8.7c4.9-0.1,8.8-4.1,8.7-8.9
			c-0.1-4.8-4-8.7-8.8-8.7C135,202.1,131,206.1,131,211.1C131,211,131,211,131,211.1L131,211.1z"/>
		<path class="st0" d="M156.1,221.9l3.6-22.9l8.3,18.3l8.5-18.3l3.4,22.9h-2.5l-2.1-15.1l-7.4,16l-7.3-16l-2.1,15.1L156.1,221.9z"/>
		<path class="st0" d="M190.2,200.2c2.2,0,4,0.3,5.4,1.5c1.3,1.2,2,2.9,2,4.6c0,3.1-1.9,6.1-6.9,6.1h-2.1v9.4h-2.4v-21.7H190.2z
			 M188.6,210.2h2c2.9,0,4.6-1.4,4.6-3.9c0-3.4-3.2-3.8-4.8-3.8h-1.8L188.6,210.2z"/>
		<path class="st0" d="M204.8,200.2v19.4h6v2.3h-8.4v-21.7H204.8z"/>
		<path class="st0" d="M217.7,200.2v21.7h-2.4v-21.7H217.7z"/>
		<path class="st0" d="M241.2,205c-0.8-0.8-1.8-1.5-2.8-2c-1.2-0.5-2.4-0.8-3.7-0.8c-4.9,0.2-8.8,4.3-8.6,9.2
			c0.2,4.7,3.9,8.5,8.6,8.6c1.4,0,2.8-0.4,4-1c0.9-0.5,1.8-1.1,2.5-1.8v3c-1.9,1.4-4.2,2.1-6.5,2.1c-6.2,0-11.2-5.1-11.1-11.3
			c0-6.2,5.1-11.2,11.3-11.1c2.3,0,4.6,0.7,6.4,2.1L241.2,205z"/>
		<path class="st0" d="M258.9,215.8h-9.2l-2.6,6.1h-2.7l10-22.7l9.7,22.7h-2.7L258.9,215.8z M258,213.5l-3.6-8.7l-3.7,8.7H258z"/>
		<path class="st0" d="M268.5,200.2h4.4c2.9-0.2,5.7,0.7,8,2.5c2.4,2.1,3.8,5.1,3.7,8.3c0.1,3.2-1.3,6.3-3.8,8.3
			c-2,1.7-4.1,2.5-7.9,2.5h-4.4L268.5,200.2z M270.9,219.6h2.1c2.2,0.1,4.4-0.6,6.2-1.9c1.9-1.6,3-4.1,2.9-6.6
			c0-5.2-3.6-8.6-9.1-8.6h-2.1V219.6z"/>
		<path class="st0" d="M289.2,211.1c0-6.2,5-11.3,11.2-11.3c6.2,0,11.3,5,11.3,11.2c0,6.2-5,11.3-11.2,11.3c0,0-0.1,0-0.1,0
			c-6.1,0.1-11.2-4.7-11.3-10.8C289.2,211.3,289.2,211.2,289.2,211.1z M291.6,211.1c0.1,4.9,4.1,8.8,8.9,8.7
			c4.9-0.1,8.8-4.1,8.7-8.9c-0.1-4.8-4-8.7-8.8-8.7C295.6,202.1,291.6,206.1,291.6,211.1C291.6,211,291.6,211,291.6,211.1z"/>
		<path class="st0" d="M318.4,219c0.9,0,1.6,0.7,1.6,1.6c0,0.9-0.7,1.6-1.6,1.6s-1.6-0.7-1.6-1.6c0,0,0,0,0,0
			C316.8,219.7,317.5,219,318.4,219z"/>
		<path class="st0" d="M327.1,219c0.9,0,1.6,0.7,1.6,1.6c0,0.9-0.7,1.6-1.6,1.6c-0.9,0-1.6-0.7-1.6-1.6c0,0,0,0,0,0
			C325.5,219.7,326.2,219,327.1,219z"/>
		<path class="st0" d="M335.9,219c0.9,0,1.6,0.7,1.6,1.6c0,0.9-0.7,1.6-1.6,1.6s-1.6-0.7-1.6-1.6c0,0,0,0,0,0
			C334.2,219.7,335,219,335.9,219z"/>
		<path class="st0" d="M24.9,255.4c-1.8-2.2-4.5-3.4-7.3-3.4c-5.4,0-9.9,4.4-9.9,9.9c0,5.4,4.4,9.9,9.9,9.9c2.8,0,5.4-1.2,7.3-3.3
			v1.9c-2,1.7-4.6,2.7-7.2,2.7c-6.2,0-11.2-5-11.2-11.1c0-6.2,5-11.2,11.1-11.2c2.7,0,5.3,1,7.3,2.8L24.9,255.4z"/>
		<path class="st0" d="M30.3,259.4h1.3v1.7c0.5-1.2,1.6-2,2.9-2c0.5,0,1,0.1,1.4,0.3l-0.6,1.2c-0.3-0.2-0.6-0.3-1-0.3
			c-2.7,0-2.7,3.5-2.7,5.2v7.1h-1.3V259.4z"/>
		<path class="st0" d="M40.6,266.2c-0.1,2.9,2.1,5.4,5,5.6c0.1,0,0.1,0,0.2,0c2,0,3.8-1.2,4.6-3l1.1,0.6c-1.1,2.2-3.3,3.6-5.8,3.6
			c-4.1,0-6.5-3.1-6.5-6.9c0-4.6,3.2-7,6.4-7c3.6,0,6.3,2.9,6.3,7.1L40.6,266.2z M50.6,264.9c-0.2-2.6-2.3-4.6-4.9-4.6
			c-2.6,0-4.8,2-5,4.6H50.6z M48.8,253.3l-3.4,4.2l-1-0.5l3-4.4L48.8,253.3z"/>
		<path class="st0" d="M67.9,249h1.3v23.7h-1.3v-2.4c-1.1,1.7-3.1,2.7-5.1,2.7c-3.3,0-6.5-2.4-6.5-7c0-4.8,3.3-6.9,6.5-6.9
			c2-0.1,4,0.9,5.1,2.6V249z M57.6,266c0,3.9,2.5,5.9,5.2,5.9s5.1-2,5.1-5.9c0-3.1-1.9-5.6-5.2-5.6C60,260.3,57.6,262.2,57.6,266
			L57.6,266z"/>
		<path class="st0" d="M74.7,255c0-0.6,0.6-1.2,1.2-1.1c0.6,0,1.2,0.6,1.1,1.2c0,0.6-0.5,1.1-1.2,1.1
			C75.2,256.2,74.7,255.7,74.7,255C74.7,255,74.7,255,74.7,255z M76.5,259.4v13.2h-1.3v-13.3L76.5,259.4z"/>
		<path class="st0" d="M83.9,260.6v12h-1.3v-12h-1.5v-1.2h1.5v-4.8h1.3v4.8h2.3v1.2H83.9z"/>
		<path class="st0" d="M103.2,266c0,3.9-3.1,7-6.9,7c-3.9,0-7-3.1-7-6.9c0-3.9,3.1-7,6.9-7c0,0,0,0,0,0c3.8-0.1,6.9,2.9,7,6.7
			C103.2,265.9,103.2,266,103.2,266z M101.8,266c-0.1-3.1-2.6-5.5-5.7-5.5c-3.1,0.1-5.5,2.6-5.5,5.7c0.1,3,2.6,5.5,5.6,5.5
			c3.1,0,5.6-2.5,5.6-5.5C101.8,266.2,101.8,266.1,101.8,266z"/>
		<path class="st0" d="M117.8,272.6V251h4.3c3-0.1,5.9,1,8,3c4.2,4.4,4.2,11.2,0,15.6c-2.1,2-5,3.1-8,3L117.8,272.6z M119.2,271.4
			h2.8c5.7,0,9.6-3.9,9.6-9.5c0.2-5.1-3.8-9.4-8.9-9.6c-0.3,0-0.5,0-0.8,0h-2.8L119.2,271.4z"/>
		<path class="st0" d="M138.1,255c0-0.6,0.6-1.2,1.2-1.1c0.6,0,1.2,0.6,1.1,1.2c0,0.6-0.5,1.1-1.2,1.1
			C138.7,256.2,138.1,255.7,138.1,255C138.1,255,138.1,255,138.1,255z M139.9,259.4v13.2h-1.3v-13.3L139.9,259.4z"/>
		<path class="st0" d="M146,259.4h1.3v1.7c0.6-1.6,2.4-2.4,4-1.8c0.1,0,0.2,0.1,0.3,0.1l-0.6,1.2c-0.3-0.2-0.6-0.3-1-0.3
			c-2.7,0-2.7,3.5-2.7,5.2v7.1H146V259.4z"/>
		<path class="st0" d="M156.2,266.2c-0.1,2.9,2.1,5.4,5,5.6c0.1,0,0.2,0,0.2,0c2,0,3.8-1.2,4.6-3l1.1,0.6c-1.1,2.2-3.3,3.6-5.8,3.6
			c-4.1,0-6.5-3.1-6.5-6.9c0-4.6,3.2-7,6.4-7c3.6,0,6.3,2.9,6.3,7.1L156.2,266.2z M166.2,264.9c-0.2-2.6-2.3-4.6-4.9-4.6
			c-2.6,0-4.8,2-5,4.6H166.2z"/>
		<path class="st0" d="M183.4,262.5c-1.1-1.4-2.8-2.1-4.6-2.2c-3.2,0.1-5.6,2.8-5.5,5.9c0.1,3,2.5,5.4,5.4,5.5
			c1.9-0.1,3.6-0.9,4.8-2.4v1.8c-1.3,1.2-3.1,1.8-4.8,1.9c-3.8-0.5-6.6-4-6.1-7.8c0.4-3.2,3-5.8,6.2-6.1c1.7,0,3.3,0.6,4.6,1.7
			V262.5z"/>
		<path class="st0" d="M189.8,260.6v12h-1.3v-12h-1.5v-1.2h1.5v-4.8h1.3v4.8h2.3v1.2H189.8z"/>
		<path class="st0" d="M209.1,266c0,3.8-3.1,6.9-7,6.9c-3.8,0-6.9-3.1-6.9-7c0-3.8,3.1-6.9,6.9-6.9c3.8-0.1,6.9,2.9,7,6.7
			C209.1,265.9,209.1,266,209.1,266z M207.8,266c-0.1-3.1-2.6-5.5-5.7-5.5c-3.1,0.1-5.5,2.6-5.5,5.7c0.1,3,2.6,5.5,5.6,5.5
			c3.1,0,5.6-2.5,5.6-5.5C207.8,266.2,207.8,266.1,207.8,266z"/>
		<path class="st0" d="M228.8,261.8c-0.4-0.9-1.3-1.5-2.3-1.5c-1.2-0.1-2.2,0.8-2.2,2c0,0,0,0.1,0,0.1c0,1.3,1,1.7,2.3,2.2
			s2.6,0.9,3.4,2c0.5,0.6,0.7,1.4,0.7,2.1c0.1,2.2-1.6,4.1-3.9,4.2c-0.1,0-0.3,0-0.4,0c-2.2,0.1-4.1-1.4-4.6-3.5l1.3-0.4
			c0.3,1.6,1.7,2.7,3.3,2.7c1.6,0.1,2.9-1.1,2.9-2.7c0-0.1,0-0.1,0-0.2c0-1.5-0.9-2-2.9-2.9c-1.1-0.3-2.1-0.9-2.9-1.8
			c-0.4-0.5-0.6-1.1-0.6-1.7c0-1.9,1.5-3.4,3.3-3.4c0.1,0,0.1,0,0.2,0c1.5-0.1,2.9,0.8,3.5,2.1L228.8,261.8z"/>
		<path class="st0" d="M234.8,255c0-0.6,0.6-1.2,1.2-1.1c0.6,0,1.2,0.6,1.1,1.2c0,0.6-0.5,1.1-1.2,1.1
			C235.4,256.2,234.9,255.7,234.8,255C234.8,255,234.8,255,234.8,255z M236.7,259.4v13.2h-1.3v-13.3L236.7,259.4z"/>
		<path class="st0" d="M242.7,259.4h1.3v2.1c0.8-1.5,2.3-2.4,4-2.4c1.5-0.1,2.9,0.6,3.7,1.9c0.5,1,0.7,2.2,0.6,3.4v8.4H251v-8.4
			c0.1-0.9-0.1-1.8-0.5-2.7c-0.6-0.9-1.6-1.4-2.6-1.3c-1.4-0.1-2.6,0.7-3.2,1.9c-0.5,1.1-0.8,2.3-0.7,3.6v6.9h-1.3L242.7,259.4z"/>
		<path class="st0" d="M16.6,303.3l-7-10.2H9v10.2H7.5v-21.7h3.1c1.6-0.1,3.2,0.3,4.6,1.1c1.5,1.1,2.3,2.8,2.2,4.6
			c0.1,2.4-1.4,4.5-3.6,5.3c-0.9,0.3-1.8,0.4-2.7,0.4l7.1,10.2L16.6,303.3z M9,291.8h2c3.1,0,4.9-1.6,4.9-4.4c0.1-1.5-0.6-3-1.9-3.8
			c-1-0.5-2.2-0.7-3.3-0.6H9V291.8z"/>
		<path class="st0" d="M22.6,296.9c-0.1,2.9,2.1,5.4,5,5.6c0.1,0,0.1,0,0.2,0c2,0,3.8-1.2,4.6-3l1.1,0.6c-1.1,2.2-3.3,3.6-5.8,3.6
			c-4.1,0-6.5-3-6.5-6.9c0-4.6,3.2-7,6.4-7c3.6,0,6.3,2.9,6.3,7.1L22.6,296.9z M32.6,295.6c-0.2-2.6-2.3-4.6-4.9-4.6
			c-2.6,0-4.8,2-5,4.6L32.6,295.6z"/>
		<path class="st0" d="M37.8,290.1l4.7,11l4.6-11h1.4l-6,14.1l-6.1-14.1H37.8z"/>
		<path class="st0" d="M51.9,285.6c0-0.6,0.6-1.2,1.2-1.1c0.6,0,1.2,0.6,1.1,1.2c0,0.6-0.5,1.1-1.2,1.1
			C52.5,286.9,51.9,286.4,51.9,285.6C51.9,285.7,51.9,285.7,51.9,285.6z M53.7,290.1v13.2h-1.3v-13.2H53.7z"/>
		<path class="st0" d="M65.4,292.5c-0.4-0.9-1.3-1.5-2.3-1.5c-1.2-0.1-2.2,0.8-2.2,2c0,0,0,0.1,0,0.1c0,1.3,1,1.7,2.3,2.2
			s2.6,0.9,3.4,2c0.5,0.6,0.7,1.4,0.7,2.1c0.1,2.2-1.6,4.1-3.8,4.2c-0.2,0-0.4,0-0.5,0c-2.2,0.1-4.1-1.4-4.6-3.5l1.3-0.4
			c0.3,1.6,1.7,2.7,3.3,2.7c1.6,0.1,2.9-1.1,3-2.7c0-0.1,0-0.2,0-0.3c0-1.5-0.9-2-3-2.9c-1.1-0.3-2.1-0.9-2.9-1.8
			c-0.4-0.5-0.6-1.1-0.6-1.7c0-1.9,1.5-3.4,3.3-3.4c0.1,0,0.1,0,0.2,0c1.5-0.1,2.9,0.8,3.5,2.1L65.4,292.5z"/>
		<path class="st0" d="M71.4,285.6c0-0.6,0.6-1.2,1.2-1.1c0.6,0,1.2,0.6,1.1,1.2c0,0.6-0.5,1.1-1.2,1.1
			C71.9,286.9,71.4,286.4,71.4,285.6C71.4,285.7,71.4,285.7,71.4,285.6z M73.2,290.1v13.2h-1.3v-13.2H73.2z"/>
		<path class="st0" d="M92.3,296.7c0,3.9-3.1,7-7,7s-7-3.1-7-7s3.1-7,7-7c3.8-0.1,6.9,2.9,7,6.7C92.3,296.5,92.3,296.6,92.3,296.7z
			 M90.9,296.7c-0.1-3.1-2.6-5.5-5.7-5.5c-3.1,0.1-5.5,2.6-5.5,5.7c0.1,3,2.6,5.5,5.6,5.5c3.1,0,5.6-2.5,5.6-5.5
			C90.9,296.9,90.9,296.8,90.9,296.7z M88.2,284l-3.4,4.2l-1-0.5l3-4.5L88.2,284z"/>
		<path class="st0" d="M97.5,290.1h1.3v2.1c0.8-1.5,2.4-2.4,4.1-2.4c1.5-0.1,2.9,0.6,3.7,1.9c0.5,1,0.7,2.2,0.7,3.3v8.4h-1.3V295
			c0.1-0.9-0.1-1.8-0.5-2.7c-0.6-0.9-1.6-1.4-2.6-1.3c-1.3-0.1-2.6,0.7-3.2,1.9c-0.5,1.1-0.8,2.3-0.7,3.6v6.9h-1.3V290.1z"/>
		<path class="st0" d="M132.8,279.6h1.3v23.7h-1.3V301c-1.1,1.7-3.1,2.8-5.1,2.7c-3.3,0-6.5-2.4-6.5-7c0-4.8,3.3-6.9,6.5-6.9
			c2-0.1,4,0.9,5.1,2.6V279.6z M122.6,296.6c0,3.9,2.5,5.9,5.2,5.9c2.7,0,5.1-2,5.1-5.9c0-3.1-1.9-5.6-5.2-5.6
			C125,291,122.6,292.9,122.6,296.6L122.6,296.6z"/>
		<path class="st0" d="M140.6,296.9c-0.1,2.9,2.1,5.4,5,5.6c0.1,0,0.2,0,0.2,0c2,0,3.8-1.2,4.6-3l1.1,0.6c-1.1,2.2-3.3,3.6-5.8,3.6
			c-4.1,0-6.5-3-6.5-6.9c0-4.6,3.2-7,6.4-7c3.6,0,6.3,2.9,6.3,7.1L140.6,296.9z M150.6,295.6c-0.2-2.6-2.3-4.6-4.9-4.6
			c-2.6,0-4.8,2-5,4.6H150.6z"/>
		<path class="st0" d="M166.6,281.7h4.7c3.8,0,6,2.2,6,5.4c0.1,1.9-0.9,3.7-2.5,4.7c2.7,0.4,4.6,2.7,4.5,5.4c0,3.8-2.8,6.1-6.7,6.1
			h-5.9L166.6,281.7z M168.1,291.5h3.4c1.1,0.1,2.2-0.2,3-0.9c1-0.8,1.5-2.1,1.4-3.3c0.1-1.3-0.5-2.5-1.5-3.4
			c-1.1-0.7-2.3-1-3.6-0.9h-2.8L168.1,291.5z M168.1,302h3.6c1.7,0.2,3.4-0.3,4.7-1.3c0.9-0.8,1.5-2.1,1.4-3.3
			c0.2-1.7-0.8-3.3-2.3-4c-1.3-0.5-2.7-0.7-4.1-0.6h-3.4L168.1,302z"/>
		<path class="st0" d="M186,290.1v8c-0.1,1.2,0.2,2.3,0.8,3.3c1.5,1.4,3.8,1.4,5.3,0c0.7-1,1-2.1,0.9-3.3v-8h1.3v8.4
			c0.1,1.3-0.3,2.6-1,3.6c-2,2.1-5.3,2.2-7.4,0.2c-0.1-0.1-0.1-0.1-0.2-0.2c-0.7-1.1-1.1-2.3-1-3.6v-8.4H186z"/>
		<path class="st0" d="M200.3,290.1h1.3v1.7c0.5-1.2,1.6-2,2.9-2c0.5,0,1,0.1,1.4,0.3l-0.6,1.2c-0.3-0.2-0.6-0.3-1-0.3
			c-2.7,0-2.7,3.5-2.7,5.2v7.1h-1.3L200.3,290.1z"/>
		<path class="st0" d="M222.4,296.7c0,3.9-3.1,7-7,7c-3.9,0-7-3.1-7-7s3.1-7,7-7c0,0,0,0,0,0c3.8-0.1,6.9,3,7,6.7
			C222.4,296.5,222.4,296.6,222.4,296.7z M221.1,296.7c-0.1-3.1-2.6-5.5-5.7-5.5c-3.1,0.1-5.5,2.6-5.5,5.7c0.1,3,2.6,5.5,5.6,5.5
			c3.1,0,5.6-2.5,5.6-5.5C221.1,296.9,221.1,296.8,221.1,296.7z M218.3,284l-3.4,4.2l-1-0.5l3-4.5L218.3,284z"/>
		<path class="st0" d="M52.5,359.4v15.7h-1v-15.7H52.5z"/>
		<path class="st0" d="M55.6,365.5h0.9v1.5c0.6-1.1,1.7-1.7,2.9-1.7c1.1-0.1,2.1,0.5,2.7,1.3c0.4,0.7,0.5,1.6,0.5,2.4v6h-0.9v-6
			c0.1-0.7-0.1-1.3-0.4-1.9c-0.4-0.6-1.1-1-1.9-0.9c-1,0-1.9,0.5-2.3,1.3c-0.4,0.8-0.6,1.7-0.5,2.6v5h-0.9V365.5z"/>
		<path class="st0" d="M64.9,365.5l3.4,8l3.3-8h1l-4.3,10.2l-4.4-10.2H64.9z"/>
		<path class="st0" d="M73.6,362.3c-0.1-0.5,0.3-0.9,0.8-0.9s0.9,0.3,0.9,0.8c0,0.1,0,0.1,0,0.2c0.1,0.5-0.3,0.9-0.8,0.9
			s-0.9-0.3-0.9-0.8C73.5,362.5,73.5,362.4,73.6,362.3z M74.9,365.5v9.6h-0.9v-9.6H74.9z"/>
		<path class="st0" d="M78,370.4c-0.1,2.1,1.6,3.9,3.7,4c0,0,0.1,0,0.1,0c1.4,0,2.8-0.9,3.3-2.2l0.8,0.5c-0.8,1.6-2.4,2.6-4.2,2.6
			c-3,0-4.7-2.2-4.7-5c0-3.3,2.3-5,4.7-5c2.6,0,4.5,2.1,4.5,5.1L78,370.4z M85.2,369.5c-0.1-1.9-1.7-3.3-3.6-3.3
			c-1.9,0-3.4,1.5-3.6,3.3H85.2z"/>
		<path class="st0" d="M88.3,365.5h0.9v1.2c0.3-0.9,1.2-1.5,2.1-1.5c0.3,0,0.7,0.1,1,0.2l-0.5,0.9c-0.2-0.1-0.5-0.2-0.7-0.2
			c-1.9,0-2,2.6-2,3.8v5.1h-0.9L88.3,365.5z"/>
		<path class="st0" d="M94.8,366.4v8.7h-0.9v-8.7h-1v-0.9h1v-3.4h0.9v3.4h1.7v0.9H94.8z"/>
		<path class="st0" d="M98.1,370.4c-0.1,2.1,1.6,3.9,3.7,4c0,0,0.1,0,0.1,0c1.4,0,2.8-0.9,3.3-2.2l0.8,0.5c-0.8,1.6-2.4,2.6-4.2,2.6
			c-3,0-4.7-2.2-4.7-5c0-3.3,2.3-5,4.7-5c2.6,0,4.5,2.1,4.5,5.1L98.1,370.4z M105.3,369.5c-0.1-1.9-1.7-3.3-3.6-3.3
			c-1.9,0-3.4,1.5-3.6,3.3H105.3z"/>
		<path class="st0" d="M121.1,358h0.9v17.1h-0.9v-1.7c-0.8,1.3-2.2,2-3.7,2c-2.4,0-4.7-1.7-4.7-5.1s2.4-5,4.7-5
			c1.5,0,2.9,0.7,3.7,1.9L121.1,358z M113.7,370.3c0,2.8,1.8,4.2,3.8,4.2s3.7-1.4,3.7-4.2c0.1-2.1-1.4-3.8-3.4-4c-0.1,0-0.2,0-0.3,0
			C115.4,366.2,113.7,367.6,113.7,370.3L113.7,370.3z"/>
		<path class="st0" d="M125.2,370.4c-0.1,2.1,1.6,3.9,3.7,4c0,0,0.1,0,0.1,0c1.4,0,2.8-0.9,3.3-2.2l0.8,0.5
			c-0.8,1.6-2.4,2.6-4.2,2.6c-3,0-4.7-2.2-4.7-5c0-3.3,2.3-5,4.6-5c2.6,0,4.5,2.1,4.5,5.1L125.2,370.4z M132.4,369.5
			c-0.1-1.9-1.7-3.3-3.6-3.3c-1.9,0-3.4,1.5-3.6,3.3H132.4z"/>
		<path class="st0" d="M140,362.3c0-0.5,0.4-0.8,0.9-0.8s0.8,0.4,0.8,0.9c0,0.5-0.4,0.8-0.9,0.8C140.4,363.2,140,362.8,140,362.3
			C140,362.4,140,362.3,140,362.3z M141.3,365.5v9.6h-0.9v-9.6H141.3z"/>
		<path class="st0" d="M144,365.5h1v1.5c0.6-1.1,1.7-1.7,2.9-1.7c1.1-0.1,2.1,0.5,2.7,1.3c0.4,0.7,0.5,1.6,0.5,2.4v6h-0.9v-6
			c0.1-0.7-0.1-1.3-0.4-1.9c-0.4-0.6-1.1-1-1.9-0.9c-1,0-1.9,0.5-2.4,1.3c-0.4,0.8-0.6,1.7-0.5,2.6v5h-1V365.5z"/>
		<path class="st0" d="M153.8,365.5h0.9v1.2c0.5-0.9,1.5-1.4,2.5-1.4c1.2-0.1,2.3,0.6,2.7,1.7c0.5-1.1,1.6-1.8,2.8-1.7
			c0.8,0,1.6,0.2,2.2,0.8c0.6,0.7,0.9,1.7,0.8,2.6v6.4h-0.9v-6.4c0.1-0.7-0.1-1.4-0.6-2c-0.4-0.4-0.9-0.6-1.4-0.5
			c-2.5,0-2.6,2.5-2.6,3.1v5.8h-0.9V369c0-0.6-0.1-2.8-2.1-2.8c-1.7,0-2.4,1.5-2.4,3.4v5.5h-0.9L153.8,365.5z"/>
		<path class="st0" d="M168.9,370.4c-0.1,2.1,1.6,3.9,3.7,4c0,0,0.1,0,0.1,0c1.4,0,2.7-0.8,3.3-2.1l0.8,0.5
			c-0.8,1.6-2.4,2.6-4.2,2.6c-3,0-4.7-2.2-4.7-5c0-3.3,2.3-5,4.6-5c2.6,0,4.5,2.1,4.5,5.1L168.9,370.4z M176.1,369.5
			c-0.1-1.9-1.7-3.3-3.6-3.3c-1.9,0-3.4,1.5-3.6,3.3H176.1z"/>
		<path class="st0" d="M187,358h1v17.1h-1v-1.7c-0.8,1.3-2.2,2-3.7,2c-2.4,0-4.7-1.7-4.7-5.1s2.4-5,4.7-5c1.5,0,2.9,0.7,3.7,1.9V358
			z M179.6,370.3c0,2.8,1.8,4.2,3.8,4.2s3.7-1.4,3.7-4.2c0.2-2-1.4-3.8-3.4-4c-0.1,0-0.2,0-0.3,0
			C181.3,366.2,179.6,367.6,179.6,370.3L179.6,370.3z"/>
		<path class="st0" d="M190.3,362.3c0-0.5,0.4-0.8,0.9-0.8c0.5,0,0.8,0.4,0.8,0.9c0,0.5-0.4,0.8-0.8,0.8
			C190.7,363.2,190.3,362.8,190.3,362.3C190.3,362.4,190.3,362.3,190.3,362.3z M191.6,365.5v9.6h-0.9v-9.6H191.6z"/>
		<path class="st0" d="M202.2,365.5h0.9v9.6h-0.9v-1.7c-0.8,1.3-2.2,2-3.7,2c-2.6,0-4.7-2.1-4.7-4.7c0-0.1,0-0.2,0-0.3
			c0-3,1.9-5,4.7-5c1.5,0,2.9,0.7,3.7,1.9V365.5z M194.8,370.2c0,2.2,1.3,4.2,3.8,4.2s3.7-2,3.7-4.2c0.2-2.1-1.3-3.9-3.4-4.1
			s-3.9,1.3-4.1,3.4C194.8,369.8,194.8,370,194.8,370.2z"/>
		<path class="st0" d="M206.9,366.4v8.7H206v-8.7h-1.1v-0.9h1.1v-3.4h0.9v3.4h1.7v0.9H206.9z"/>
		<path class="st0" d="M219.3,370.4c0,2.8-2.2,5-5,5s-5-2.2-5-5s2.2-5,5-5S219.3,367.6,219.3,370.4z M218.3,370.4
			c-0.1-2.2-1.9-3.9-4.1-3.9c-2.2,0.1-3.9,1.9-3.9,4.1c0.1,2.2,1.8,3.9,4,3.9c2.2,0,4-1.8,4-4C218.3,370.4,218.3,370.4,218.3,370.4
			L218.3,370.4z"/>
		<path class="st0" d="M233.9,367.8c-0.8-1-2-1.6-3.3-1.6c-2.3,0.1-4.1,2-4,4.3c0.1,2.1,1.8,3.8,3.9,4c1.3-0.1,2.6-0.7,3.5-1.7v1.2
			c-1,0.9-2.2,1.3-3.5,1.3c-2.8,0-5-2.3-5-5.1s2.3-5,5.1-5c1.2,0,2.4,0.4,3.3,1.2V367.8z"/>
		<path class="st0" d="M245.4,370.4c0,2.8-2.2,5-5,5s-5-2.2-5-5s2.2-5,5-5c2.7,0,5,2.2,5,4.9C245.4,370.3,245.4,370.3,245.4,370.4z
			 M244.4,370.4c-0.1-2.2-1.9-3.9-4.1-3.9c-2.2,0.1-3.9,1.9-3.9,4.1c0.1,2.2,1.8,3.9,4,3.9c2.2,0,4-1.8,4-4
			C244.5,370.4,244.5,370.4,244.4,370.4L244.4,370.4z"/>
		<path class="st0" d="M247.6,365.5h0.9v1.5c0.6-1.1,1.7-1.7,2.9-1.7c1.1-0.1,2.1,0.5,2.6,1.3c0.4,0.7,0.5,1.6,0.5,2.4v6h-0.9v-6
			c0.1-0.7-0.1-1.3-0.4-1.9c-0.4-0.6-1.1-1-1.9-0.9c-1,0-1.9,0.5-2.4,1.3c-0.4,0.8-0.6,1.7-0.5,2.6v5h-0.9L247.6,365.5z"/>
		<path class="st0" d="M266.3,367.3c-0.3-0.7-0.9-1.1-1.7-1.1c-0.8,0-1.6,0.6-1.6,1.5c0,0,0,0,0,0.1c0,0.9,0.8,1.2,1.7,1.6
			c0.9,0.2,1.8,0.7,2.5,1.4c0.3,0.4,0.5,1,0.5,1.5c0.1,1.6-1.2,3-2.8,3.1c-0.1,0-0.2,0-0.3,0c-1.6,0.1-3-1-3.3-2.5l0.9-0.3
			c0.2,1.1,1.2,1.9,2.4,1.9c1.1,0.1,2.1-0.8,2.1-2c0-0.1,0-0.1,0-0.2c0-1.1-0.7-1.5-2.1-2.1c-0.8-0.2-1.5-0.7-2.1-1.3
			c-0.3-0.4-0.4-0.8-0.4-1.2c0-1.3,1-2.4,2.4-2.5c0.1,0,0.1,0,0.2,0c1.1-0.1,2.1,0.6,2.5,1.5L266.3,367.3z"/>
		<path class="st0" d="M278.8,370.4c0,2.8-2.2,5-5,5s-5-2.2-5-5s2.2-5,5-5S278.8,367.6,278.8,370.4z M277.8,370.4
			c-0.1-2.2-1.9-3.9-4.1-3.9c-2.2,0.1-3.9,1.9-3.9,4.1c0.1,2.2,1.8,3.9,4,3.9c2.2,0,4-1.8,4-4C277.9,370.4,277.9,370.4,277.8,370.4
			L277.8,370.4z M275.8,361.1l-2.5,3l-0.7-0.4l2.2-3.2L275.8,361.1z"/>
		<path class="st0" d="M281.9,358v17.1H281V358H281.9z"/>
		<path class="st0" d="M294.1,370.4c0,2.8-2.2,5-5,5s-5-2.2-5-5s2.2-5,5-5S294.1,367.6,294.1,370.4z M293.1,370.4
			c-0.1-2.2-1.9-3.9-4.1-3.9c-2.2,0.1-3.9,1.9-3.9,4.1c0.1,2.2,1.8,3.9,4,3.9c2.2,0,4-1.8,4-4C293.1,370.4,293.1,370.4,293.1,370.4
			L293.1,370.4z"/>
		<path class="st0" d="M301.5,370.4c-0.1,2.1,1.6,3.9,3.7,4c0,0,0.1,0,0.1,0c1.4,0,2.8-0.9,3.3-2.2l0.8,0.5
			c-0.8,1.6-2.4,2.6-4.2,2.6c-3,0-4.7-2.2-4.7-5c0-3.3,2.3-5,4.6-5c2.6,0,4.5,2.1,4.5,5.1L301.5,370.4z M308.7,369.5
			c-0.1-1.9-1.7-3.3-3.5-3.3c-1.9,0-3.4,1.5-3.6,3.3H308.7z"/>
		<path class="st0" d="M312.8,358v17.1h-0.9V358H312.8z"/>
		<path class="st0" d="M324.5,361.6h-2.7l1.3-2.2h3.8v15.7h-2.4L324.5,361.6z"/>
		<path class="st0" d="M332.7,373.7c-1.4-1.8-2.1-4.1-2-6.4c-0.1-2.3,0.6-4.6,2-6.4c1.6-2,4.5-2.3,6.4-0.7c0.2,0.2,0.5,0.4,0.7,0.7
			c1.4,1.8,2.1,4.1,2,6.4c0.1,2.3-0.6,4.6-2,6.4c-1.6,2-4.5,2.3-6.4,0.7C333.2,374.2,332.9,373.9,332.7,373.7z M334.2,362.6
			c-1.4,3-1.4,6.4,0,9.4c0.6,1.2,2,1.6,3.2,1c0.4-0.2,0.8-0.6,1-1c1.4-3,1.4-6.4,0-9.4c-0.6-1.2-2-1.6-3.2-1
			C334.8,361.8,334.4,362.2,334.2,362.6z"/>
		<path class="st0" d="M350.7,363c0.1,2.1-1.6,3.8-3.7,3.9c-2.1,0.1-3.8-1.6-3.9-3.7c-0.1-2.1,1.6-3.8,3.7-3.9c0,0,0.1,0,0.1,0
			C348.9,359.3,350.6,360.9,350.7,363z M348.8,363c0-1.1-0.9-2-2-2c-1.1,0-2,0.9-2,2c0,1.1,0.9,2,2,2c0,0,0,0,0,0
			C348,365,348.8,364.1,348.8,363L348.8,363z M355.8,359.2l1.1,0.6l-9,15.6l-1.1-0.7L355.8,359.2z M360.6,371.6
			c0.1,2.1-1.6,3.8-3.7,3.9c-2.1,0.1-3.8-1.6-3.9-3.7c-0.1-2.1,1.6-3.8,3.7-3.9c0,0,0.1,0,0.1,0
			C358.9,367.9,360.5,369.5,360.6,371.6L360.6,371.6z M358.8,371.6c0-1.1-0.9-2-2-2s-2,0.9-2,2s0.9,2,2,2S358.8,372.7,358.8,371.6
			C358.8,371.6,358.8,371.6,358.8,371.6L358.8,371.6z"/>
		<path class="st0" d="M374.3,358h2.3v17.1h-2.3v-1c-0.7,0.9-1.8,1.4-3,1.3c-3.1,0-4.8-2.5-4.8-5.3c-0.2-2.7,1.8-5,4.5-5.2
			c0.1,0,0.2,0,0.4,0c1.1,0,2.2,0.5,2.9,1.4L374.3,358z M368.9,370.2c-0.1,1.6,1,3,2.6,3.1c0,0,0.1,0,0.1,0c1.6,0,2.8-1.3,2.8-2.8
			c0-0.1,0-0.2,0-0.3c0-2.2-1.3-3.2-2.8-3.2C370,367,368.9,368.4,368.9,370.2L368.9,370.2z"/>
		<path class="st0" d="M387.7,372.9c-0.4,0.7-1,1.3-1.7,1.8c-0.9,0.5-1.9,0.8-2.9,0.8c-1.2,0.1-2.5-0.4-3.3-1.3
			c-1-1-1.5-2.4-1.5-3.8c0-1.5,0.5-3,1.6-4.1c0.9-0.9,2.1-1.4,3.3-1.3c1.2,0,2.3,0.4,3.2,1.3c1,1.2,1.5,2.7,1.4,4.2v0.3h-7.1
			c0,0.7,0.3,1.5,0.9,2c0.5,0.4,1.1,0.7,1.8,0.6c0.6,0,1.1-0.1,1.6-0.5c0.4-0.3,0.7-0.7,0.9-1.1L387.7,372.9z M385.4,368.9
			c-0.1-0.5-0.3-1-0.7-1.3c-0.9-0.8-2.3-0.7-3.2,0.1c-0.4,0.3-0.6,0.8-0.7,1.3H385.4z"/>
		<path class="st0" d="M59.8,383.9h-6.2v4h6.1v2.3h-6.1v4.9h6.2v2.3h-8.6v-15.7h8.6V383.9z"/>
		<path class="st0" d="M61.9,387.4h2.3v0.9c0.7-0.8,1.7-1.2,2.7-1.2c1.1-0.1,2.2,0.4,2.9,1.3c0.5,0.8,0.7,1.8,0.6,2.7v6.1h-2.3v-5.5
			c0-2.5-0.9-2.6-1.8-2.6c-1,0-2.1,0.1-2.1,3.3v4.8h-2.3V387.4z"/>
		<path class="st0" d="M79.9,387.4h2.3v9.1c0,2.3-0.3,4-1.6,5.1c-0.9,0.7-2.1,1.1-3.3,1.1c-1.2,0.1-2.4-0.4-3.2-1.2
			c-0.8-0.8-1.3-1.9-1.5-3.1h2.2c0.1,0.6,0.4,1.1,0.7,1.5c0.5,0.5,1.1,0.7,1.8,0.7c0.7,0,1.3-0.2,1.8-0.6c0.6-0.7,0.9-1.6,0.8-2.5
			v-1.3c-0.7,0.9-1.8,1.5-3,1.4c-1.2,0.1-2.4-0.4-3.3-1.3c-1-1.1-1.5-2.5-1.5-3.9c-0.1-1.4,0.5-2.8,1.5-3.8c0.9-0.9,2.1-1.4,3.4-1.4
			c1.1,0,2.2,0.5,2.9,1.3L79.9,387.4z M75.5,389.9c-0.7,0.7-1,1.6-1,2.5c0,0.9,0.3,1.8,1,2.5c0.5,0.4,1.1,0.6,1.8,0.6
			c0.7,0,1.4-0.3,1.9-0.8c1.2-1.4,1.2-3.5-0.1-4.8c-0.5-0.5-1.2-0.7-1.9-0.7C76.6,389.2,76,389.4,75.5,389.9z"/>
		<path class="st0" d="M91.7,387.4H94v9.9h-2.3v-1c-0.7,0.9-1.8,1.4-3,1.3c-3.1,0-4.8-2.5-4.8-5.3c-0.2-2.7,1.8-5,4.5-5.2
			c0.1,0,0.2,0,0.4,0c1.1,0,2.2,0.5,2.9,1.4L91.7,387.4z M86.3,392.4c-0.1,1.6,1,3,2.6,3.1c0,0,0.1,0,0.1,0c1.6,0,2.8-1.3,2.8-2.8
			c0-0.1,0-0.2,0-0.3c0-2.2-1.3-3.2-2.8-3.2C87.4,389.2,86.3,390.6,86.3,392.4L86.3,392.4z"/>
		<path class="st0" d="M96.3,387.4h2.3v0.9c0.7-0.8,1.6-1.2,2.7-1.2c1.1-0.1,2.2,0.4,2.9,1.3c0.5,0.8,0.7,1.8,0.6,2.7v6.1h-2.3v-5.5
			c0-2.5-0.9-2.6-1.8-2.6c-1,0-2.1,0.1-2.1,3.3v4.8h-2.3V387.4z"/>
		<path class="st0" d="M114.7,390.5c-0.7-0.8-1.7-1.2-2.8-1.2c-0.8,0-1.6,0.3-2.2,0.9c-0.6,0.6-0.9,1.4-0.8,2.3
			c0,0.9,0.3,1.7,0.9,2.4c0.6,0.5,1.3,0.8,2.1,0.8c1.1,0,2.1-0.5,2.8-1.3v2.6c-0.9,0.5-1.9,0.8-3,0.8c-1.4,0.1-2.8-0.4-3.8-1.5
			c-0.9-1-1.5-2.3-1.4-3.7c0-1.4,0.5-2.8,1.5-3.8c1.1-1,2.5-1.5,4-1.5c0.9,0,1.9,0.2,2.7,0.7L114.7,390.5z"/>
		<path class="st0" d="M116.3,380.2h2.3v8.1c0.7-0.7,1.7-1.1,2.7-1.1c1.1-0.1,2.2,0.4,2.9,1.3c0.5,0.8,0.7,1.8,0.6,2.7v6.1h-2.3
			v-5.9c0.1-0.6-0.1-1.2-0.4-1.7c-0.3-0.3-0.8-0.5-1.3-0.5c-0.7,0-1.3,0.3-1.7,0.8c-0.4,0.8-0.6,1.6-0.5,2.5v4.8h-2.3L116.3,380.2z"
			/>
		<path class="st0" d="M135.7,395.1c-0.4,0.7-1,1.4-1.7,1.8c-0.9,0.5-1.9,0.8-2.9,0.8c-1.2,0.1-2.5-0.4-3.3-1.3
			c-1-1-1.5-2.4-1.5-3.8c0-1.5,0.5-3,1.6-4.1c0.9-0.9,2.1-1.4,3.3-1.3c1.2,0,2.3,0.4,3.2,1.3c1,1.2,1.5,2.7,1.4,4.2v0.3h-7.1
			c0,0.7,0.3,1.4,0.9,2c0.5,0.4,1.1,0.7,1.8,0.6c0.6,0,1.1-0.1,1.6-0.5c0.4-0.3,0.7-0.7,0.9-1.1L135.7,395.1z M133.4,391.1
			c-0.1-0.5-0.3-1-0.7-1.3c-0.4-0.4-1-0.6-1.6-0.6c-0.6,0-1.2,0.2-1.6,0.6c-0.3,0.3-0.6,0.8-0.7,1.3H133.4z"/>
		<path class="st0" d="M146.7,389.5c-0.3-0.7-0.9-1.1-1.7-1.1c-0.8,0-1.6,0.6-1.6,1.5c0,0,0,0,0,0.1c0,0.9,0.8,1.2,1.7,1.6
			c0.9,0.2,1.8,0.7,2.5,1.4c0.3,0.4,0.5,1,0.5,1.5c0.1,1.6-1.2,3-2.8,3.1c-0.1,0-0.2,0-0.3,0c-1.6,0.1-3-1-3.3-2.5l0.9-0.3
			c0.2,1.1,1.2,1.9,2.4,1.9c1.1,0,2.1-0.8,2.1-2c0,0,0-0.1,0-0.1c0-1.1-0.7-1.5-2.1-2.1c-0.8-0.2-1.5-0.7-2.1-1.3
			c-0.3-0.4-0.4-0.8-0.4-1.2c0-1.3,1.1-2.5,2.4-2.5c0.1,0,0.1,0,0.2,0c1.1-0.1,2.1,0.6,2.5,1.5L146.7,389.5z"/>
		<path class="st0" d="M159.3,392.5c0,2.8-2.2,5-5,5s-5-2.2-5-5s2.2-5,5-5c2.7,0,5,2.2,5,4.9C159.3,392.5,159.3,392.5,159.3,392.5z
			 M158.3,392.5c-0.1-2.2-1.9-3.9-4.1-3.9c-2.2,0.1-3.9,1.9-3.9,4.1c0.1,2.2,1.8,3.9,4,3.9c2.2,0,4-1.8,4-4
			C158.3,392.7,158.3,392.6,158.3,392.5L158.3,392.5z"/>
		<path class="st0" d="M162.4,380.2v9.2c0.9-1.2,2.3-1.9,3.8-1.9c2.9,0,4.7,2.2,4.7,4.9s-1.8,5.1-4.7,5.1c-1.5,0.1-2.9-0.7-3.7-2
			v1.7h-0.9v-17.1H162.4z M169.8,392.5c0.2-2.1-1.3-3.9-3.4-4.1s-3.9,1.3-4.1,3.4c0,0.2,0,0.4,0,0.7c0,2.4,1.3,4.3,3.7,4.3
			S169.8,394.8,169.8,392.5z"/>
		<path class="st0" d="M172.9,387.7h0.9v1.3c0.3-0.9,1.2-1.5,2.1-1.5c0.3,0,0.7,0.1,1,0.2l-0.5,0.9c-0.2-0.1-0.5-0.2-0.7-0.2
			c-1.9,0-2,2.6-2,3.8v5.1h-0.9L172.9,387.7z"/>
		<path class="st0" d="M178.8,392.6c-0.1,2.1,1.6,3.9,3.7,4c0,0,0.1,0,0.1,0c1.4,0,2.8-0.9,3.3-2.2l0.8,0.5
			c-0.8,1.6-2.4,2.6-4.2,2.6c-3,0-4.7-2.2-4.7-5c0-3.3,2.3-5,4.6-5c2.6,0,4.5,2.1,4.5,5.1L178.8,392.6z M186,391.8
			c-0.1-1.9-1.7-3.3-3.6-3.3c-1.9,0-3.4,1.5-3.6,3.3H186z"/>
		<path class="st0" d="M194.3,392.6c-0.1,2.1,1.6,3.9,3.7,4c0,0,0.1,0,0.1,0c1.4,0,2.8-0.9,3.3-2.2l0.8,0.5
			c-0.8,1.6-2.4,2.6-4.2,2.6c-3,0-4.7-2.2-4.7-5c0-3.3,2.3-5,4.6-5c2.6,0,4.5,2.1,4.5,5.1L194.3,392.6z M201.5,391.8
			c-0.1-1.9-1.7-3.3-3.6-3.3c-1.9,0-3.4,1.5-3.6,3.3H201.5z"/>
		<path class="st0" d="M205.6,380.2v17.1h-0.9v-17.1H205.6z"/>
		<path class="st0" d="M214.1,402.7h-0.9v-15h0.9v1.7c0.9-1.2,2.3-1.9,3.8-1.9c2.9,0,4.6,2.2,4.6,4.9s-1.8,5.1-4.7,5.1
			c-1.5,0.1-2.9-0.7-3.7-2L214.1,402.7z M221.6,392.5c0.2-2.1-1.3-3.9-3.4-4.1s-3.9,1.3-4.1,3.4c0,0.2,0,0.4,0,0.7
			c0,2.4,1.3,4.3,3.7,4.3S221.6,394.8,221.6,392.5z"/>
		<path class="st0" d="M224.7,387.7h0.9v1.3c0.3-0.9,1.2-1.5,2.1-1.5c0.3,0,0.7,0.1,1,0.2l-0.5,0.9c-0.2-0.1-0.5-0.2-0.7-0.2
			c-1.9,0-2,2.6-2,3.8v5.1h-0.9L224.7,387.7z"/>
		<path class="st0" d="M230.5,392.6c-0.1,2.1,1.6,3.9,3.7,4c0,0,0.1,0,0.1,0c1.4,0,2.8-0.9,3.3-2.2l0.8,0.5
			c-0.8,1.6-2.4,2.6-4.2,2.6c-3,0-4.7-2.2-4.7-5c0-3.3,2.3-5,4.6-5c2.6,0,4.5,2.1,4.5,5.1L230.5,392.6z M237.8,391.8
			c-0.1-1.9-1.7-3.3-3.6-3.3c-1.9,0-3.4,1.5-3.6,3.3H237.8z"/>
		<path class="st0" d="M248.6,390c-0.8-1-2-1.6-3.3-1.6c-2.3,0.1-4,2.1-3.9,4.3c0.1,2.1,1.8,3.8,3.9,3.9c1.3-0.1,2.6-0.7,3.5-1.7
			v1.3c-1,0.9-2.2,1.3-3.5,1.3c-2.8,0-5-2.3-5-5.1s2.3-5,5.1-5c1.2,0,2.4,0.4,3.3,1.2L248.6,390z"/>
		<path class="st0" d="M250.3,384.5c0-0.5,0.4-0.8,0.9-0.8c0.5,0,0.8,0.4,0.8,0.9c0,0.5-0.4,0.8-0.8,0.8
			C250.6,385.4,250.3,385,250.3,384.5C250.3,384.6,250.3,384.5,250.3,384.5z M251.6,387.7v9.6h-0.9v-9.6H251.6z"/>
		<path class="st0" d="M263.8,392.5c0,2.8-2.2,5-5,5s-5-2.2-5-5s2.2-5,5-5S263.8,389.8,263.8,392.5z M262.8,392.5
			c-0.1-2.2-1.9-3.9-4.1-3.9c-2.2,0.1-3.9,1.9-3.9,4.1c0.1,2.2,1.8,3.9,4,3.9c2.2,0,4-1.8,4-4C262.8,392.6,262.8,392.6,262.8,392.5
			L262.8,392.5z"/>
		<path class="st0" d="M271.8,388.6v8.7h-0.9v-8.7h-1.1v-0.9h1.1v-3.4h0.9v3.4h1.7v0.9H271.8z"/>
		<path class="st0" d="M284.1,392.5c0,2.8-2.2,5-5,5s-5-2.2-5-5s2.2-5,5-5c2.7,0,5,2.2,5,4.9C284.1,392.5,284.1,392.5,284.1,392.5z
			 M283.1,392.5c-0.1-2.2-1.9-3.9-4.1-3.9c-2.2,0.1-3.9,1.9-3.9,4.1c0.1,2.2,1.8,3.9,4,3.9c2.2,0,4-1.8,4-4
			C283.1,392.6,283.1,392.6,283.1,392.5L283.1,392.5z"/>
		<path class="st0" d="M287.3,388.6v8.7h-0.9v-8.7h-1v-0.9h1v-3.4h0.9v3.4h1.7v0.9H287.3z"/>
		<path class="st0" d="M298,387.7h0.9v9.6H298v-1.7c-0.8,1.3-2.2,2-3.7,2c-2.6,0-4.7-2.1-4.7-4.7c0-0.1,0-0.2,0-0.3c0-3,1.9-5,4.7-5
			c1.5-0.1,2.9,0.6,3.7,1.9V387.7z M290.6,392.5c0,2.2,1.3,4.2,3.8,4.2s3.7-2,3.7-4.2c0.2-2.1-1.4-3.9-3.5-4c-2.1-0.2-3.9,1.4-4,3.5
			C290.6,392.1,290.6,392.3,290.6,392.5z"/>
		<path class="st0" d="M302.6,380.2v17.1h-0.9v-17.1H302.6z"/>
		<path class="st0" d="M318,380.2h1v17.1h-1v-1.7c-0.8,1.3-2.2,2-3.7,2c-2.4,0-4.7-1.7-4.7-5.1s2.4-5,4.7-5c1.5,0,2.9,0.7,3.7,1.9
			V380.2z M310.6,392.5c0,2.8,1.8,4.2,3.8,4.2s3.7-1.4,3.7-4.2c0.2-2-1.4-3.8-3.4-4c-0.1,0-0.2,0-0.3,0
			C312.3,388.4,310.6,389.8,310.6,392.5L310.6,392.5z"/>
		<path class="st0" d="M322.1,392.6c-0.1,2.1,1.6,3.9,3.7,4c0,0,0.1,0,0.1,0c1.4,0,2.8-0.9,3.3-2.2l0.8,0.5
			c-0.8,1.6-2.4,2.6-4.2,2.6c-3,0-4.7-2.2-4.7-5c0-3.3,2.3-5,4.6-5c2.6,0,4.5,2.1,4.5,5.1L322.1,392.6z M329.3,391.8
			c-0.1-1.9-1.7-3.3-3.5-3.3c-1.9,0-3.4,1.5-3.6,3.3H329.3z"/>
		<path class="st0" d="M338.3,388.6v8.7h-0.9v-8.7h-1.1v-0.9h1.1v-3.4h0.9v3.4h1.7v0.9H338.3z"/>
		<path class="st0" d="M342.1,387.7v5.8c-0.1,0.8,0.1,1.7,0.6,2.4c1.1,1,2.7,1,3.8,0c0.5-0.7,0.7-1.6,0.6-2.4v-5.8h0.9v6
			c0.1,0.9-0.2,1.9-0.7,2.6c-1.4,1.5-3.8,1.6-5.3,0.2c-0.1-0.1-0.1-0.1-0.2-0.2c-0.5-0.8-0.8-1.7-0.7-2.6v-6H342.1z"/>
		<path class="st0" d="M359.4,382.6v14.7h-1v-14.7h-4.1v-0.9h9.2v0.9H359.4z"/>
		<path class="st0" d="M363.4,392.6c-0.1,2.1,1.6,3.9,3.7,4c0,0,0.1,0,0.1,0c1.4,0,2.8-0.9,3.3-2.2l0.8,0.5
			c-0.8,1.6-2.4,2.6-4.2,2.6c-3,0-4.7-2.2-4.7-5c0-3.3,2.3-5,4.6-5c2.6,0,4.5,2.1,4.5,5.1L363.4,392.6z M370.6,391.8
			c-0.1-1.9-1.7-3.3-3.5-3.3c-1.9,0-3.4,1.5-3.6,3.3H370.6z"/>
		<path class="st0" d="M373.7,387.7h0.9v1.3c0.3-0.9,1.2-1.5,2.1-1.5c0.3,0,0.7,0.1,1,0.2l-0.5,0.9c-0.2-0.1-0.5-0.2-0.7-0.2
			c-1.9,0-2,2.6-2,3.8v5.1h-0.9L373.7,387.7z"/>
		<path class="st0" d="M379.2,387.7h0.9v1.3c0.3-0.9,1.2-1.5,2.1-1.5c0.3,0,0.7,0.1,1,0.2l-0.5,0.9c-0.2-0.1-0.5-0.2-0.7-0.2
			c-1.9,0-2,2.6-2,3.8v5.1h-0.9L379.2,387.7z"/>
		<path class="st0" d="M385.1,392.6c-0.1,2.1,1.6,3.9,3.7,4c0,0,0.1,0,0.1,0c1.4,0,2.8-0.9,3.3-2.2l0.8,0.5
			c-0.8,1.6-2.4,2.6-4.2,2.6c-3,0-4.7-2.2-4.7-5c0-3.3,2.3-5,4.6-5c2.6,0,4.5,2.1,4.5,5.1L385.1,392.6z M392.3,391.8
			c-0.1-1.9-1.7-3.3-3.5-3.3c-1.9,0-3.4,1.5-3.6,3.3H392.3z"/>
		<path class="st0" d="M395.4,387.7h0.9v1.5c0.6-1.1,1.7-1.7,2.9-1.7c1.1-0.1,2.1,0.5,2.7,1.3c0.4,0.7,0.5,1.6,0.5,2.4v6h-0.9v-6
			c0.1-0.7-0.1-1.3-0.4-1.9c-0.4-0.6-1.1-1-1.9-0.9c-1,0-1.9,0.5-2.4,1.3c-0.4,0.8-0.6,1.7-0.5,2.6v5h-0.9V387.7z"/>
		<path class="st0" d="M414.6,392.5c0,2.8-2.2,5-5,5s-5-2.2-5-5s2.2-5,5-5S414.6,389.8,414.6,392.5z M413.6,392.5
			c-0.1-2.2-1.9-3.9-4.1-3.9c-2.2,0.1-3.9,1.9-3.9,4.1c0.1,2.2,1.8,3.9,4,3.9c2.2,0,4-1.8,4-4C413.6,392.6,413.6,392.6,413.6,392.5
			L413.6,392.5z"/>
		<path class="st0" d="M417.4,395.7c0.5,0,0.9,0.4,0.9,0.9c0,0.5-0.4,0.9-0.9,0.9c-0.5,0-0.9-0.4-0.9-0.9
			C416.6,396.1,416.9,395.7,417.4,395.7C417.4,395.7,417.4,395.7,417.4,395.7z"/>
		<path class="st0" d="M60.4,476.3h-6.7L52,480h-2.6l7.8-16.6l7.4,16.6h-2.6L60.4,476.3z M59.4,474l-2.3-5.3l-2.4,5.3L59.4,474z"/>
		<path class="st0" d="M67.9,485.4h-2.3v-15.3h2.3v1.1c0.7-0.9,1.8-1.4,2.9-1.3c2.7,0,4.8,2.2,4.8,4.9c0,0.1,0,0.2,0,0.3
			c0.2,2.8-1.9,5.1-4.7,5.3c0,0-0.1,0-0.1,0c-1.2,0-2.3-0.6-3-1.5L67.9,485.4z M67.7,475.2c-0.2,1.6,1,2.9,2.5,3.1
			c0.1,0,0.2,0,0.3,0c1.7-0.2,3-1.9,2.7-3.6c-0.2-1.4-1.3-2.5-2.7-2.7C69.1,472,67.7,473,67.7,475.2z"/>
		<path class="st0" d="M84.6,470.2h2.3v9.9h-2.3v-1c-0.7,0.9-1.8,1.4-3,1.3c-3,0-4.8-2.5-4.8-5.3c-0.2-2.7,1.8-5,4.5-5.2
			c0.1,0,0.2,0,0.4,0c1.1,0,2.2,0.5,2.9,1.4L84.6,470.2z M79.2,475.2c-0.1,1.6,1,3,2.6,3.1c0,0,0.1,0,0.1,0c1.6,0,2.8-1.3,2.8-2.9
			c0-0.1,0-0.2,0-0.3c0-2.2-1.4-3.2-2.8-3.2c-1.6,0-2.8,1.4-2.8,3C79.2,475,79.2,475.1,79.2,475.2L79.2,475.2z"/>
		<path class="st0" d="M89.2,470.2h2.3v0.9c0.3-0.3,0.6-0.6,1-0.8c0.4-0.2,0.9-0.4,1.4-0.3c0.6,0,1.3,0.1,1.8,0.5l-0.9,2.1
			c-0.3-0.2-0.8-0.4-1.2-0.4c-0.5,0-1.1,0.2-1.4,0.5c-0.5,0.7-0.7,1.5-0.6,2.3v5.1h-2.3L89.2,470.2z"/>
		<path class="st0" d="M99.2,472.3v7.8h-2.3v-7.8H96v-2.1h1v-3.6h2.3v3.6h1.7v2.1H99.2z"/>
		<path class="st0" d="M109.1,470.2h2.3v9.9h-2.3v-1c-0.7,0.9-1.8,1.4-3,1.3c-3.1,0-4.8-2.5-4.8-5.3c-0.2-2.7,1.8-5,4.5-5.2
			c0.1,0,0.2,0,0.4,0c1.1,0,2.2,0.5,2.9,1.4L109.1,470.2z M103.7,475.2c-0.1,1.6,1,3,2.6,3.1c0,0,0.1,0,0.1,0c1.6,0,2.8-1.3,2.8-2.8
			c0-0.1,0-0.2,0-0.3c0-2.2-1.3-3.2-2.8-3.2c-1.6,0.1-2.8,1.4-2.8,3C103.7,475,103.7,475.1,103.7,475.2L103.7,475.2z"/>
		<path class="st0" d="M119.8,471.4v8.7h-0.9v-8.7h-1.1v-0.9h1.1V467h0.9v3.4h1.7v0.9L119.8,471.4z"/>
		<path class="st0" d="M123.7,470.5v5.8c-0.1,0.8,0.1,1.7,0.6,2.4c1.1,1,2.7,1,3.8,0c0.5-0.7,0.7-1.5,0.6-2.4v-5.8h0.9v6
			c0.1,0.9-0.2,1.9-0.7,2.6c-1.4,1.5-3.8,1.6-5.3,0.1c0,0-0.1-0.1-0.1-0.1c-0.5-0.8-0.8-1.7-0.7-2.6v-6H123.7z"/>
		<path class="st0" d="M138.2,471.4v8.7h-0.9v-8.7h-1.1v-0.9h1.1V467h0.9v3.4h1.7v0.9L138.2,471.4z"/>
		<path class="st0" d="M141.5,475.4c-0.1,2.1,1.6,3.9,3.7,4c0,0,0.1,0,0.1,0c1.4,0,2.8-0.9,3.3-2.2l0.8,0.5
			c-0.8,1.6-2.4,2.6-4.2,2.6c-3,0-4.7-2.2-4.7-5c0-3.3,2.3-5.1,4.6-5.1c2.6,0,4.5,2.1,4.5,5.1L141.5,475.4z M148.7,474.5
			c-0.1-1.9-1.7-3.3-3.6-3.3c-1.9,0-3.4,1.5-3.6,3.3H148.7z"/>
		<path class="st0" d="M151.9,470.5h0.9v1.2c0.4-1.2,1.7-1.8,2.9-1.3c0.1,0,0.1,0.1,0.2,0.1l-0.5,0.8c-0.2-0.1-0.5-0.2-0.7-0.2
			c-1.9,0-1.9,2.6-1.9,3.8v5.1h-0.9V470.5z"/>
		<path class="st0" d="M157.4,470.5h0.9v1.2c0.3-0.9,1.2-1.5,2.1-1.5c0.3,0,0.7,0.1,1,0.2l-0.5,0.8c-0.2-0.1-0.5-0.2-0.7-0.2
			c-1.9,0-2,2.6-2,3.8v5.1h-0.9L157.4,470.5z"/>
		<path class="st0" d="M163.2,475.4c-0.1,2.1,1.6,3.9,3.7,4c0,0,0.1,0,0.1,0c1.4,0,2.8-0.9,3.3-2.2l0.8,0.5
			c-0.8,1.6-2.4,2.6-4.2,2.6c-3,0-4.7-2.2-4.7-5c-0.2-2.6,1.7-4.8,4.3-5c0.1,0,0.3,0,0.4,0c2.6,0,4.5,2.1,4.5,5.1L163.2,475.4z
			 M170.4,474.5c-0.1-1.9-1.7-3.3-3.5-3.3c-1.9,0-3.4,1.5-3.6,3.3H170.4z"/>
		<path class="st0" d="M173.5,470.5h0.9v1.5c0.6-1.1,1.7-1.8,2.9-1.7c1.1-0.1,2.1,0.5,2.6,1.3c0.4,0.7,0.5,1.6,0.5,2.4v6h-0.9v-6
			c0.1-0.7-0.1-1.3-0.4-1.9c-0.4-0.6-1.1-1-1.9-0.9c-1,0-1.9,0.5-2.4,1.3c-0.4,0.8-0.6,1.7-0.5,2.6v5h-0.9L173.5,470.5z"/>
		<path class="st0" d="M192.7,475.3c0,2.8-2.2,5-5,5s-5-2.2-5-5s2.2-5,5-5c2.7,0,5,2.2,5,4.9C192.7,475.2,192.7,475.2,192.7,475.3z
			 M191.7,475.3c-0.1-2.2-1.9-3.9-4.1-3.9c-2.2,0.1-3.9,1.9-3.9,4.1c0.1,2.2,1.8,3.9,4,3.9c2.2,0,4-1.8,4-4
			C191.8,475.4,191.8,475.3,191.7,475.3L191.7,475.3z"/>
		<path class="st0" d="M207.4,472.7c-0.8-1-2-1.6-3.3-1.6c-2.3,0.1-4,2.1-3.9,4.3c0.1,2.1,1.8,3.8,3.9,3.9c1.3-0.1,2.6-0.7,3.5-1.7
			v1.3c-1,0.9-2.2,1.3-3.5,1.3c-2.8,0-5-2.3-5-5.1s2.3-5,5.1-5c1.2,0,2.4,0.4,3.3,1.2L207.4,472.7z"/>
		<path class="st0" d="M218.9,475.3c0,2.8-2.2,5-5,5s-5-2.2-5-5s2.2-5,5-5c2.7,0,5,2.2,5,4.9C218.9,475.2,218.9,475.2,218.9,475.3z
			 M217.9,475.3c-0.1-2.2-1.9-3.9-4.1-3.9c-2.2,0.1-3.9,1.9-3.9,4.1c0.1,2.2,1.8,3.9,4,3.9c2.2,0,4-1.8,4-4
			C217.9,475.4,217.9,475.3,217.9,475.3L217.9,475.3z"/>
		<path class="st0" d="M221.1,470.5h0.9v1.5c0.6-1.1,1.7-1.8,2.9-1.7c1.1-0.1,2.1,0.5,2.6,1.3c0.4,0.7,0.5,1.6,0.5,2.4v6h-0.9v-6
			c0.1-0.7-0.1-1.3-0.4-1.9c-0.4-0.6-1.1-1-1.9-0.9c-1,0-1.9,0.5-2.4,1.3c-0.4,0.8-0.6,1.7-0.5,2.6v5h-0.9L221.1,470.5z"/>
		<path class="st0" d="M243.2,467.9c-0.1-0.4-0.4-0.7-0.7-1c-0.5-0.4-1.1-0.6-1.7-0.6c-0.6,0-1.3,0.2-1.7,0.6
			c-0.7,0.7-0.6,1.8,0.1,2.4c0,0,0,0,0.1,0.1c0.5,0.3,0.9,0.6,1.5,0.8l1.2,0.5c1,0.3,1.9,0.9,2.6,1.6c0.7,0.8,1.1,1.9,1.1,3
			c0,1.3-0.5,2.6-1.4,3.6c-0.7,0.7-1.6,1.2-2.6,1.4v2.4h-1.7v-2.3c-1.2-0.1-2.3-0.6-3-1.5c-0.8-0.8-1.2-1.9-1.3-3l2.4-0.5
			c0,0.7,0.2,1.4,0.6,2c0.5,0.6,1.2,1,2,0.9c0.7,0,1.4-0.2,1.9-0.8c0.5-0.5,0.8-1.2,0.7-1.9c0-0.6-0.2-1.3-0.7-1.7
			c-0.4-0.4-1-0.8-1.6-1l-1.5-0.6c-0.8-0.4-1.6-0.8-2.2-1.4c-0.6-0.6-1-1.5-1-2.4c0-1.1,0.4-2.2,1.2-3c0.7-0.6,1.5-1,2.5-1.2v-2.1
			h1.7v2.1c0.7,0.1,1.5,0.3,2.1,0.8c0.6,0.5,1.1,1.1,1.5,1.8L243.2,467.9z"/>
		<path class="st0" d="M252.6,466.6h-2.7l1.3-2.2h3.9v15.7h-2.4L252.6,466.6z"/>
		<path class="st0" d="M260.8,478.6c-1.4-1.8-2.1-4.1-2-6.4c-0.1-2.3,0.6-4.6,2-6.4c1.6-2,4.5-2.3,6.4-0.7c0.2,0.2,0.5,0.4,0.7,0.7
			c1.4,1.8,2.1,4.1,2,6.4c0.1,2.3-0.6,4.6-2,6.4c-1.6,2-4.5,2.3-6.4,0.7C261.2,479.1,261,478.9,260.8,478.6z M262.2,467.5
			c-1.4,3-1.4,6.4,0,9.4c0.6,1.2,2,1.6,3.2,1c0.5-0.2,0.8-0.6,1-1c1.4-3,1.4-6.4,0-9.4c-0.6-1.2-2-1.6-3.2-1
			C262.8,466.7,262.4,467.1,262.2,467.5z"/>
		<path class="st0" d="M273,477.1l2.1,0.8l-2.9,5.8l-1.5-0.6L273,477.1z"/>
		<path class="st0" d="M280.4,478.6c-1.4-1.8-2.1-4.1-2-6.4c-0.1-2.3,0.6-4.6,2-6.4c1.6-2,4.5-2.3,6.4-0.7c0.2,0.2,0.5,0.4,0.7,0.7
			c1.4,1.8,2.1,4.1,2,6.4c0.1,2.3-0.6,4.6-2,6.4c-1.6,2-4.5,2.3-6.4,0.7C280.8,479.1,280.6,478.9,280.4,478.6z M281.8,467.5
			c-1.4,3-1.4,6.4,0,9.4c0.6,1.2,2,1.6,3.2,1c0.5-0.2,0.8-0.6,1-1c1.4-3,1.4-6.4,0-9.4c-0.6-1.2-2-1.6-3.2-1
			C282.4,466.7,282,467.1,281.8,467.5z"/>
		<path class="st0" d="M293.1,478.6c-1.4-1.8-2.1-4.1-2-6.4c-0.1-2.3,0.6-4.6,2-6.4c1.6-2,4.5-2.3,6.4-0.7c0.2,0.2,0.5,0.4,0.7,0.7
			c1.4,1.8,2.1,4.1,2,6.4c0.1,2.3-0.6,4.6-2,6.4c-1.6,2-4.5,2.3-6.4,0.7C293.5,479.1,293.3,478.9,293.1,478.6z M294.5,467.5
			c-1.4,3-1.4,6.4,0,9.4c0.6,1.2,2,1.6,3.2,1c0.5-0.2,0.8-0.6,1-1c1.4-3,1.4-6.4,0-9.4c-0.6-1.2-2-1.6-3.2-1
			C295.1,466.7,294.7,467.1,294.5,467.5z"/>
		<path class="st0" d="M305.8,478.6c-1.4-1.8-2.1-4.1-2-6.4c-0.1-2.3,0.6-4.6,2-6.4c1.6-2,4.5-2.3,6.4-0.7c0.2,0.2,0.5,0.4,0.7,0.7
			c1.4,1.8,2.1,4.1,2,6.4c0.1,2.3-0.6,4.6-2,6.4c-1.6,2-4.5,2.3-6.4,0.7C306.2,479.1,306,478.9,305.8,478.6z M307.2,467.5
			c-1.4,3-1.4,6.4,0,9.4c0.4,0.8,1.2,1.3,2.1,1.3c0.9,0,1.7-0.5,2.1-1.3c1.5-3,1.5-6.4,0-9.4c-0.4-0.8-1.2-1.3-2.1-1.3
			C308.5,466.3,307.7,466.8,307.2,467.5L307.2,467.5z"/>
		<path class="st0" d="M322.9,485.5h-0.9v-15h0.9v1.7c0.9-1.2,2.3-1.9,3.8-1.9c2.9,0,4.6,2.2,4.6,4.9s-1.8,5.1-4.7,5.1
			c-1.5,0.1-2.9-0.7-3.7-2V485.5z M330.3,475.2c0.1-2.1-1.5-3.8-3.5-4c-2.1-0.1-3.8,1.5-4,3.5c0,0.1,0,0.3,0,0.4
			c0,2.4,1.3,4.3,3.7,4.3S330.3,477.5,330.3,475.2z"/>
		<path class="st0" d="M333.8,475.4c-0.1,2.1,1.6,3.9,3.7,4c0,0,0.1,0,0.1,0c1.4,0,2.8-0.9,3.3-2.2l0.8,0.5
			c-0.8,1.6-2.4,2.6-4.2,2.6c-3,0-4.7-2.2-4.7-5c0-3.3,2.3-5.1,4.6-5.1c2.6,0,4.5,2.1,4.5,5.1L333.8,475.4z M341,474.5
			c-0.1-1.9-1.7-3.3-3.5-3.3c-1.9,0-3.4,1.5-3.6,3.3H341z"/>
		<path class="st0" d="M348.2,472.2c-0.3-0.7-0.9-1.1-1.7-1.1c-0.8,0-1.6,0.6-1.6,1.5c0,0,0,0,0,0.1c0,0.9,0.8,1.2,1.7,1.6
			c0.9,0.2,1.8,0.7,2.5,1.4c0.3,0.4,0.5,1,0.5,1.6c0.1,1.6-1.2,3-2.8,3.1c-0.1,0-0.2,0-0.3,0c-1.6,0.1-3-1-3.3-2.5l0.9-0.3
			c0.2,1.1,1.2,1.9,2.4,1.9c1.1,0.1,2.1-0.8,2.1-2c0-0.1,0-0.1,0-0.2c0-1.1-0.7-1.5-2.1-2.1c-0.8-0.2-1.5-0.7-2.1-1.3
			c-0.3-0.4-0.4-0.8-0.4-1.2c0-1.3,1-2.4,2.4-2.5c0.1,0,0.1,0,0.2,0c1.1,0,2.1,0.6,2.5,1.5L348.2,472.2z"/>
		<path class="st0" d="M360.8,475.3c0,2.8-2.2,5-5,5s-5-2.2-5-5s2.2-5,5-5c2.7,0,5,2.2,5,4.9C360.8,475.2,360.8,475.2,360.8,475.3z
			 M359.8,475.3c-0.1-2.2-1.9-3.9-4.1-3.9c-2.2,0.1-3.9,1.9-3.9,4.1c0.1,2.2,1.8,3.9,4,3.9c2.2,0,4-1.8,4-4
			C359.8,475.4,359.8,475.3,359.8,475.3L359.8,475.3z"/>
		<path class="st0" d="M367,472.2c-0.3-0.7-0.9-1.1-1.7-1.1c-0.8,0-1.6,0.6-1.6,1.5c0,0,0,0,0,0.1c0,0.9,0.8,1.2,1.7,1.6
			c0.9,0.2,1.8,0.7,2.5,1.4c0.3,0.4,0.5,1,0.5,1.6c0.1,1.6-1.2,3-2.8,3.1c-0.1,0-0.2,0-0.3,0c-1.6,0.1-3-1-3.3-2.5l0.9-0.3
			c0.2,1.1,1.2,1.9,2.4,1.9c1.1,0,2.1-0.8,2.1-2c0,0,0-0.1,0-0.1c0-1.1-0.7-1.5-2.1-2.1c-0.8-0.2-1.5-0.7-2.1-1.3
			c-0.3-0.4-0.4-0.8-0.4-1.2c0-1.3,1.1-2.5,2.4-2.5c0.1,0,0.1,0,0.2,0c1.1-0.1,2.1,0.6,2.5,1.5L367,472.2z"/>
		<path class="st0" d="M378,480.2l-4.5-9.8h1.1l4,8.5l3.5-8.5h1.1l-6.3,15h-1.1L378,480.2z"/>
		<path class="st0" d="M58.7,494.9c-0.8-1-2-1.6-3.3-1.6c-2.3,0.1-4,2.1-3.9,4.3c0.1,2.1,1.8,3.8,3.9,3.9c1.3-0.1,2.6-0.7,3.5-1.7
			v1.3c-1,0.9-2.2,1.3-3.5,1.3c-2.8,0-5-2.3-5-5.1s2.3-5,5.1-5c1.2,0,2.4,0.4,3.3,1.2L58.7,494.9z"/>
		<path class="st0" d="M70.2,497.5c0,2.8-2.2,5-5,5c-2.8,0-5-2.2-5-5s2.2-5,5-5c2.7,0,5,2.2,5,4.9C70.2,497.4,70.2,497.4,70.2,497.5
			z M69.2,497.5c-0.1-2.2-1.9-3.9-4.1-3.9c-2.2,0.1-3.9,1.9-3.9,4.1c0.1,2.2,1.8,3.9,4,3.9c2.2,0,4-1.8,4-4
			C69.2,497.6,69.2,497.5,69.2,497.5L69.2,497.5z"/>
		<path class="st0" d="M72.3,492.7h0.9v1.2c0.5-0.9,1.5-1.4,2.5-1.4c1.2-0.1,2.3,0.6,2.7,1.7c0.5-1.1,1.6-1.8,2.8-1.7
			c0.8,0,1.6,0.3,2.2,0.8c0.6,0.7,0.9,1.7,0.8,2.6v6.4h-0.9v-6.4c0.1-0.7-0.1-1.4-0.6-2c-0.4-0.4-0.9-0.6-1.4-0.5
			c-2.5,0-2.6,2.5-2.6,3.1v5.8h-0.9v-6.1c0-0.6,0-2.8-2.1-2.8c-1.7,0-2.4,1.5-2.4,3.4v5.5h-0.9V492.7z"/>
		<path class="st0" d="M86.7,489.5c0-0.5,0.4-0.8,0.9-0.8c0.5,0,0.8,0.4,0.8,0.9c0,0.5-0.4,0.8-0.9,0.8
			C87.1,490.3,86.7,490,86.7,489.5C86.7,489.5,86.7,489.5,86.7,489.5z M88,492.7v9.6h-1v-9.6H88z"/>
		<path class="st0" d="M91.1,497.6c-0.1,2.1,1.6,3.9,3.7,4c0,0,0.1,0,0.1,0c1.4,0,2.8-0.9,3.3-2.2l0.8,0.5c-0.8,1.6-2.4,2.6-4.2,2.6
			c-3,0-4.7-2.2-4.7-5c-0.2-2.6,1.7-4.8,4.3-5c0.1,0,0.3,0,0.4,0c2.6,0,4.5,2.1,4.5,5.1L91.1,497.6z M98.3,496.7
			c-0.1-1.9-1.7-3.3-3.5-3.3c-1.9,0-3.4,1.5-3.6,3.3H98.3z"/>
		<path class="st0" d="M101.4,492.7h0.9v1.5c0.6-1.1,1.7-1.8,2.9-1.7c1.1-0.1,2.1,0.5,2.7,1.3c0.4,0.7,0.5,1.6,0.5,2.4v6h-0.9v-6
			c0.1-0.7-0.1-1.3-0.4-1.9c-0.4-0.6-1.1-1-1.9-0.9c-1,0-1.9,0.5-2.3,1.3c-0.4,0.8-0.6,1.7-0.5,2.6v5h-0.9L101.4,492.7z"/>
		<path class="st0" d="M112,501.4h7.7v0.9H110l7.8-8.7h-6.6v-0.9h8.6L112,501.4z"/>
		<path class="st0" d="M128.3,492.7h0.9v9.6h-0.9v-1.7c-0.8,1.3-2.2,2-3.7,2c-2.6,0-4.7-2.1-4.7-4.7c0-0.1,0-0.2,0-0.3
			c0-3,1.9-5,4.7-5c1.5,0,2.9,0.7,3.7,1.9V492.7z M120.8,497.4c0,2.2,1.3,4.2,3.8,4.2s3.7-2,3.7-4.2c0.2-2.1-1.4-3.9-3.5-4
			c-2.1-0.2-3.9,1.4-4,3.5C120.8,497,120.8,497.2,120.8,497.4z"/>
		<path class="st0" d="M137.7,485.1v17.1h-0.9v-17.1H137.7z"/>
		<path class="st0" d="M148.3,492.7h0.9v9.6h-0.9v-1.7c-0.8,1.3-2.2,2-3.7,2c-2.6,0-4.7-2.1-4.7-4.7c0-0.1,0-0.2,0-0.3
			c0-3,1.9-5,4.7-5c1.5,0,2.9,0.7,3.7,1.9V492.7z M140.9,497.4c0,2.2,1.3,4.2,3.8,4.2s3.7-2,3.7-4.2c0.2-2.1-1.3-3.9-3.4-4.1
			s-3.9,1.3-4.1,3.4C140.9,496.9,140.9,497.2,140.9,497.4z"/>
		<path class="st0" d="M156.8,492.7h0.9v1.5c0.6-1.1,1.7-1.8,2.9-1.7c1.1-0.1,2.1,0.5,2.6,1.3c0.4,0.7,0.5,1.6,0.5,2.4v6h-0.9v-6
			c0.1-0.7-0.1-1.3-0.4-1.9c-0.4-0.6-1.1-1-1.9-0.9c-1,0-1.9,0.5-2.4,1.3c-0.4,0.8-0.6,1.7-0.5,2.6v5h-0.9L156.8,492.7z"/>
		<path class="st0" d="M167.5,492.7v5.8c-0.1,0.8,0.1,1.7,0.6,2.4c1.1,1,2.7,1,3.8,0c0.5-0.7,0.7-1.5,0.6-2.4v-5.8h0.9v6
			c0.1,0.9-0.2,1.9-0.7,2.6c-1.4,1.5-3.8,1.6-5.3,0.1c0,0-0.1-0.1-0.1-0.1c-0.5-0.8-0.8-1.7-0.7-2.6v-6H167.5z"/>
		<path class="st0" d="M176.6,497.6c-0.1,2.1,1.6,3.9,3.7,4c0,0,0.1,0,0.1,0c1.4,0,2.8-0.9,3.3-2.2l0.8,0.5
			c-0.8,1.6-2.4,2.6-4.2,2.6c-3,0-4.7-2.2-4.7-5c-0.2-2.6,1.7-4.8,4.3-5c0.1,0,0.3,0,0.4,0c2.6,0,4.5,2.1,4.5,5.1L176.6,497.6z
			 M183.8,496.7c-0.1-1.9-1.7-3.3-3.6-3.3c-1.9,0-3.4,1.5-3.6,3.3H183.8z"/>
		<path class="st0" d="M186,492.7l3.4,8l3.3-8h1l-4.4,10.2l-4.4-10.2H186z"/>
		<path class="st0" d="M202.8,492.7h0.9v9.6h-0.9v-1.7c-0.8,1.3-2.2,2-3.7,2c-2.6,0-4.7-2.1-4.7-4.7c0-0.1,0-0.2,0-0.3
			c0-3,1.9-5,4.7-5c1.5,0,2.9,0.7,3.7,1.9V492.7z M195.4,497.4c0,2.2,1.3,4.2,3.8,4.2s3.7-2,3.7-4.2c0.2-2.1-1.3-3.9-3.4-4.1
			s-3.9,1.3-4.1,3.4C195.4,496.9,195.4,497.2,195.4,497.4z"/>
		<path class="st0" d="M211.3,485.1h0.9v9c0.6-1.1,1.7-1.8,2.9-1.7c1.1-0.1,2.1,0.5,2.7,1.3c0.4,0.7,0.5,1.6,0.5,2.4v6h-0.9v-6
			c0.1-0.7-0.1-1.3-0.4-1.9c-0.4-0.6-1.1-1-1.9-0.9c-1,0-1.9,0.5-2.4,1.3c-0.4,0.8-0.6,1.7-0.5,2.6v5h-0.9L211.3,485.1z"/>
		<path class="st0" d="M220.5,489.5c0-0.5,0.4-0.8,0.9-0.8c0.5,0,0.8,0.4,0.8,0.9c0,0.5-0.4,0.8-0.8,0.8
			C220.9,490.3,220.5,490,220.5,489.5C220.5,489.5,220.5,489.5,220.5,489.5z M221.8,492.7v9.6h-0.9v-9.6H221.8z"/>
		<path class="st0" d="M228.6,494.4c-0.3-0.7-0.9-1.1-1.7-1.1c-0.8,0-1.6,0.6-1.6,1.5c0,0,0,0,0,0.1c0,0.9,0.8,1.2,1.7,1.6
			c0.9,0.2,1.8,0.7,2.5,1.4c0.3,0.4,0.5,1,0.5,1.5c0.1,1.6-1.2,3-2.8,3.1c-0.1,0-0.2,0-0.3,0c-1.6,0.1-3-1-3.3-2.5l0.9-0.3
			c0.2,1.1,1.2,1.9,2.4,1.9c1.1,0,2.1-0.9,2.1-2c0,0,0-0.1,0-0.1c0-1.1-0.7-1.5-2.1-2.1c-0.8-0.2-1.5-0.7-2.1-1.3
			c-0.3-0.4-0.4-0.8-0.4-1.2c0-1.3,1-2.4,2.4-2.5c0.1,0,0.1,0,0.2,0c1.1-0.1,2.1,0.6,2.5,1.5L228.6,494.4z"/>
		<path class="st0" d="M232.8,493.6v8.7h-0.9v-8.7h-1.1v-0.9h1.1v-3.4h0.9v3.4h1.7v0.9H232.8z"/>
		<path class="st0" d="M245.1,497.5c0,2.8-2.2,5-5,5s-5-2.2-5-5s2.2-5,5-5c2.7,0,5,2.2,5,4.9C245.1,497.4,245.1,497.4,245.1,497.5z
			 M244.1,497.5c-0.1-2.2-1.9-3.9-4.1-3.9c-2.2,0.1-3.9,1.9-3.9,4.1c0.1,2.2,1.8,3.9,4,3.9c2.2,0,4-1.8,4-4
			C244.2,497.6,244.2,497.5,244.1,497.5L244.1,497.5z"/>
		<path class="st0" d="M247.3,492.7h0.9v1.2c0.3-0.9,1.2-1.5,2.1-1.5c0.3,0,0.7,0.1,1,0.2l-0.5,0.9c-0.2-0.1-0.5-0.2-0.7-0.2
			c-1.9,0-1.9,2.6-1.9,3.8v5.1h-0.9L247.3,492.7z"/>
		<path class="st0" d="M252.4,489.5c0-0.5,0.4-0.8,0.9-0.8s0.8,0.4,0.8,0.9c0,0.5-0.4,0.8-0.9,0.8
			C252.8,490.3,252.4,490,252.4,489.5C252.4,489.5,252.4,489.5,252.4,489.5z M253.7,492.7v9.6h-0.9v-9.6H253.7z"/>
		<path class="st0" d="M264.2,492.7h0.9v9.6h-0.9v-1.7c-0.8,1.3-2.2,2-3.7,2c-2.6,0-4.7-2.1-4.7-4.7c0-0.1,0-0.2,0-0.3
			c0-3,1.9-5,4.7-5c1.5,0,2.9,0.7,3.7,1.9V492.7z M256.8,497.4c0,2.2,1.3,4.2,3.8,4.2s3.7-2,3.7-4.2c0.2-2.1-1.3-3.9-3.4-4.1
			s-3.9,1.3-4.1,3.4C256.8,496.9,256.8,497.2,256.8,497.4z"/>
		<path class="st0" d="M280.6,485.1h0.9v17.1h-0.9v-1.7c-0.8,1.3-2.2,2-3.7,2c-2.4,0-4.7-1.7-4.7-5.1s2.4-5,4.7-5
			c1.5,0,2.9,0.7,3.7,1.9V485.1z M273.1,497.4c0,2.8,1.8,4.2,3.8,4.2s3.7-1.4,3.7-4.2c0.1-2.1-1.4-3.8-3.4-4c-0.1,0-0.2,0-0.3,0
			C274.9,493.4,273.1,494.7,273.1,497.4L273.1,497.4z"/>
		<path class="st0" d="M284.6,497.6c-0.1,2.1,1.6,3.9,3.7,4c0,0,0.1,0,0.1,0c1.4,0,2.8-0.9,3.3-2.2l0.8,0.5
			c-0.8,1.6-2.4,2.6-4.2,2.6c-3,0-4.7-2.2-4.7-5c0-3.3,2.3-5.1,4.6-5.1c2.6,0,4.5,2.1,4.5,5.1L284.6,497.6z M291.9,496.7
			c-0.1-1.9-1.7-3.3-3.5-3.3c-1.9,0-3.4,1.5-3.6,3.3H291.9z"/>
		<path class="st0" d="M300.8,493.6v8.7h-0.9v-8.7h-1v-0.9h1v-3.4h0.9v3.4h1.7v0.9H300.8z"/>
		<path class="st0" d="M304.7,492.7v5.8c-0.1,0.8,0.1,1.7,0.6,2.4c1.1,1,2.8,1,3.8,0c0.5-0.7,0.7-1.5,0.6-2.4v-5.8h0.9v6
			c0.1,0.9-0.2,1.9-0.7,2.6c-1.4,1.5-3.8,1.6-5.3,0.1c0,0-0.1-0.1-0.1-0.1c-0.5-0.8-0.8-1.7-0.7-2.6v-6H304.7z"/>
		<path class="st0" d="M317.5,494.4c-0.3-0.7-0.9-1.1-1.7-1.1c-0.8,0-1.6,0.6-1.6,1.5c0,0,0,0,0,0.1c0,0.9,0.8,1.2,1.7,1.6
			c0.9,0.2,1.8,0.7,2.5,1.4c0.3,0.4,0.5,1,0.5,1.5c0.1,1.6-1.2,3-2.8,3.1c-0.1,0-0.2,0-0.3,0c-1.6,0.1-3-1-3.3-2.5l0.9-0.3
			c0.2,1.1,1.2,1.9,2.4,1.9c1.1,0,2.1-0.8,2.1-2c0-0.1,0-0.1,0-0.2c0-1.1-0.7-1.5-2.1-2.1c-0.8-0.2-1.5-0.7-2.1-1.3
			c-0.3-0.4-0.4-0.8-0.4-1.2c0-1.3,1.1-2.5,2.4-2.5c0.1,0,0.1,0,0.2,0c1.1-0.1,2.1,0.6,2.5,1.5L317.5,494.4z"/>
		<path class="st0" d="M329.6,494.4c-0.3-0.7-0.9-1.1-1.7-1.1c-0.8,0-1.6,0.6-1.6,1.5c0,0,0,0,0,0.1c0,0.9,0.8,1.2,1.7,1.6
			c0.9,0.2,1.8,0.7,2.5,1.4c0.4,0.4,0.5,1,0.5,1.5c0.1,1.6-1.2,3-2.8,3.1c-0.1,0-0.2,0-0.3,0c-1.6,0.1-3-1-3.3-2.5l0.9-0.3
			c0.2,1.1,1.2,1.9,2.4,1.9c1.1,0,2.1-0.8,2.1-2c0,0,0-0.1,0-0.1c0-1.1-0.7-1.5-2.1-2.1c-0.8-0.2-1.5-0.7-2.1-1.3
			c-0.3-0.4-0.4-0.8-0.4-1.2c0-1.3,1-2.4,2.4-2.5c0.1,0,0.1,0,0.2,0c1.1-0.1,2.1,0.6,2.5,1.5L329.6,494.4z"/>
		<path class="st0" d="M333.6,492.7v5.8c-0.1,0.8,0.1,1.7,0.6,2.4c1.1,1,2.8,1,3.8,0c0.5-0.7,0.7-1.5,0.6-2.4v-5.8h0.9v6
			c0.1,0.9-0.2,1.9-0.7,2.6c-1.4,1.5-3.8,1.6-5.3,0.1c0,0-0.1-0.1-0.1-0.1c-0.5-0.8-0.8-1.7-0.7-2.6v-6H333.6z"/>
		<path class="st0" d="M342.7,497.6c-0.1,2.1,1.6,3.9,3.7,4c0,0,0.1,0,0.1,0c1.4,0,2.8-0.9,3.3-2.2l0.8,0.5
			c-0.8,1.6-2.4,2.6-4.2,2.6c-3,0-4.7-2.2-4.7-5c0-3.3,2.3-5.1,4.6-5.1c2.6,0,4.5,2.1,4.5,5.1L342.7,497.6z M349.9,496.7
			c-0.1-1.9-1.7-3.3-3.5-3.3c-1.9,0-3.4,1.5-3.6,3.3H349.9z"/>
		<path class="st0" d="M353.1,492.7h0.9v1.5c0.6-1.1,1.7-1.8,2.9-1.7c1.1-0.1,2.1,0.5,2.6,1.3c0.4,0.7,0.5,1.6,0.5,2.4v6h-0.9v-6
			c0.1-0.7-0.1-1.3-0.4-1.9c-0.4-0.6-1.1-1-1.9-0.9c-1,0-1.9,0.5-2.4,1.3c-0.4,0.8-0.6,1.7-0.5,2.6v5h-0.9L353.1,492.7z
			 M353.6,490.4c0.1-0.3,0.3-0.6,0.5-0.9c0.3-0.3,0.7-0.5,1.1-0.5c0.6,0.1,1.2,0.2,1.7,0.5c0.3,0.2,0.7,0.3,1.1,0.3
			c0.2,0,0.5-0.1,0.6-0.3c0.1-0.2,0.3-0.4,0.4-0.6l0.6,0.5c-0.1,0.4-0.3,0.7-0.6,0.9c-0.3,0.3-0.7,0.4-1,0.4c-0.5,0-0.9-0.2-1.4-0.4
			c-0.4-0.2-0.9-0.4-1.4-0.4c-0.3,0-0.5,0.1-0.7,0.3c-0.1,0.2-0.2,0.4-0.3,0.6L353.6,490.4z"/>
		<path class="st0" d="M372.3,497.5c0,2.8-2.2,5-5,5s-5-2.2-5-5s2.2-5,5-5c2.7,0,5,2.2,5,4.9C372.3,497.4,372.3,497.4,372.3,497.5z
			 M371.3,497.5c-0.1-2.2-1.9-3.9-4.1-3.9c-2.2,0.1-3.9,1.9-3.9,4.1c0.1,2.2,1.8,3.9,4,3.9c2.2,0,4-1.8,4-4
			C371.3,497.6,371.3,497.5,371.3,497.5L371.3,497.5z"/>
		<path class="st0" d="M378.5,494.4c-0.3-0.7-0.9-1.1-1.7-1.1c-0.8,0-1.6,0.6-1.6,1.5c0,0,0,0,0,0.1c0,0.9,0.8,1.2,1.7,1.6
			c0.9,0.2,1.8,0.7,2.5,1.4c0.3,0.4,0.5,1,0.5,1.5c0.1,1.6-1.2,3-2.8,3.1c-0.1,0-0.2,0-0.3,0c-1.6,0.1-3-1-3.3-2.5l0.9-0.3
			c0.2,1.1,1.2,1.9,2.4,1.9c1.1,0,2.1-0.8,2.1-2c0,0,0-0.1,0-0.1c0-1.1-0.7-1.5-2.1-2.1c-0.8-0.2-1.5-0.7-2.1-1.3
			c-0.3-0.4-0.4-0.8-0.4-1.2c0-1.3,1.1-2.5,2.4-2.5c0.1,0,0.1,0,0.2,0c1.1-0.1,2.1,0.6,2.5,1.6L378.5,494.4z"/>
		<path class="st0" d="M382.3,500.7c0.5,0,0.9,0.4,0.9,0.9s-0.4,0.9-0.9,0.9c-0.5,0-0.9-0.4-0.9-0.9l0,0
			C381.4,501.1,381.8,500.7,382.3,500.7C382.3,500.7,382.3,500.7,382.3,500.7z"/>
		<path class="st0" d="M52.5,557v9.8c-0.1,1.2,0.1,2.3,0.7,3.4c1.5,2,4.4,2.4,6.4,0.9c0.3-0.3,0.6-0.5,0.9-0.9
			c0.6-1,0.8-2.2,0.7-3.4V557h1v9.8c0.1,1.4-0.2,2.8-0.9,4c-2,2.5-5.6,2.8-8.1,0.8c-0.3-0.2-0.6-0.5-0.8-0.8c-0.7-1.2-1-2.6-0.9-4
			V557H52.5z"/>
		<path class="st0" d="M65.3,563.1h0.9v1.5c0.6-1.1,1.7-1.7,2.9-1.7c1.1-0.1,2.1,0.5,2.7,1.3c0.4,0.7,0.5,1.6,0.5,2.4v6h-0.9v-6
			c0.1-0.7-0.1-1.3-0.4-1.9c-0.4-0.6-1.1-1-1.9-0.9c-1,0-1.9,0.5-2.3,1.3c-0.4,0.8-0.6,1.7-0.5,2.6v5h-0.9L65.3,563.1z"/>
		<path class="st0" d="M82.8,563.1h0.9v9.6h-0.9V571c-0.8,1.3-2.2,2-3.7,2c-2.6,0-4.7-2.1-4.7-4.7c0-0.1,0-0.2,0-0.3
			c0-3,1.9-5,4.7-5c1.5-0.1,2.9,0.7,3.7,1.9V563.1z M75.4,567.8c0,2.2,1.3,4.2,3.8,4.2s3.7-2,3.7-4.2c0.2-2.1-1.3-3.9-3.4-4.1
			s-3.9,1.3-4.1,3.4C75.4,567.4,75.4,567.6,75.4,567.8z"/>
		<path class="st0" d="M94,557v15.7h-2.4V557H94z"/>
		<path class="st0" d="M96.6,562.8h2.3v0.9c0.7-0.8,1.7-1.2,2.7-1.2c1.1-0.1,2.2,0.4,2.9,1.3c0.5,0.8,0.7,1.8,0.6,2.8v6.1h-2.3v-5.5
			c0-2.5-0.9-2.6-1.8-2.6c-1,0-2.1,0.1-2.1,3.3v4.8h-2.3V562.8z"/>
		<path class="st0" d="M108.4,562.8l2.5,5.6l2.5-5.6h2.6l-5.1,10.6l-5.1-10.6H108.4z"/>
		<path class="st0" d="M125.6,570.5c-0.4,0.7-1,1.3-1.7,1.8c-0.9,0.5-1.9,0.8-2.9,0.8c-1.2,0.1-2.5-0.4-3.3-1.3
			c-1-1-1.5-2.4-1.5-3.8c0-1.5,0.5-3,1.6-4.1c0.9-0.9,2.1-1.4,3.3-1.3c1.2,0,2.3,0.4,3.2,1.3c1,1.2,1.5,2.7,1.4,4.2v0.3h-7.1
			c0,0.7,0.3,1.5,0.8,2c0.5,0.4,1.1,0.7,1.8,0.6c0.6,0,1.1-0.1,1.6-0.5c0.4-0.3,0.7-0.7,0.9-1.1L125.6,570.5z M123.4,566.5
			c-0.1-0.5-0.3-1-0.7-1.3c-0.4-0.4-1-0.6-1.6-0.6c-0.6,0-1.2,0.2-1.6,0.6c-0.4,0.3-0.6,0.8-0.7,1.3H123.4z"/>
		<path class="st0" d="M127.5,562.8h2.3v0.9c0.3-0.3,0.6-0.6,1-0.8c0.4-0.2,0.9-0.4,1.4-0.3c0.6,0,1.3,0.1,1.8,0.5l-0.9,2.1
			c-0.3-0.2-0.8-0.4-1.2-0.4c-0.5,0-1.1,0.2-1.4,0.5c-0.5,0.6-0.7,1.5-0.6,2.3v5.1h-2.3L127.5,562.8z"/>
		<path class="st0" d="M138.5,565.4c-0.3-0.5-0.8-0.8-1.4-0.8c-0.3,0-0.5,0.1-0.7,0.2c-0.1,0.1-0.2,0.3-0.2,0.5
			c0,0.2,0.1,0.4,0.3,0.6c0.2,0.1,0.5,0.3,0.8,0.4l1.2,0.6c0.5,0.2,1,0.5,1.4,0.9c0.5,0.5,0.7,1.1,0.7,1.8c0,0.8-0.3,1.6-0.9,2.3
			c-0.7,0.8-1.7,1.2-2.8,1.1c-0.8,0-1.5-0.2-2.1-0.6c-0.6-0.5-1-1.1-1.3-1.8l1.9-0.9c0.1,0.3,0.3,0.7,0.5,0.9c0.6,0.5,1.4,0.5,1.9,0
			c0.2-0.2,0.3-0.5,0.3-0.8c0-0.3-0.1-0.6-0.3-0.8c-0.3-0.3-0.6-0.5-1-0.6l-0.8-0.4c-0.5-0.2-1-0.5-1.4-0.8c-0.5-0.4-0.7-1-0.7-1.7
			c0-0.8,0.3-1.5,0.8-2.1c0.6-0.6,1.5-1,2.4-0.9c0.6,0,1.3,0.2,1.8,0.5c0.5,0.3,0.9,0.7,1.1,1.2L138.5,565.4z"/>
		<path class="st0" d="M143.1,557.2c0.8,0,1.5,0.7,1.5,1.5c0,0.8-0.7,1.5-1.5,1.5c-0.8,0-1.5-0.7-1.5-1.5l0,0
			C141.7,557.9,142.3,557.3,143.1,557.2C143.1,557.2,143.1,557.2,143.1,557.2z M144.3,562.8v9.9H142v-9.9H144.3z"/>
		<path class="st0" d="M156.6,567.8c0,2.9-2.3,5.3-5.2,5.4c-2.9,0-5.3-2.3-5.4-5.2s2.3-5.3,5.2-5.4c0,0,0,0,0.1,0
			c2.8-0.1,5.2,2.1,5.3,5C156.6,567.6,156.6,567.7,156.6,567.8z M154.3,567.8c-0.1-1.6-1.5-2.8-3.1-2.7c-1.6,0.1-2.8,1.5-2.7,3.1
			c0.1,1.5,1.4,2.7,2.9,2.7c1.6,0.1,2.9-1.2,3-2.8C154.3,568,154.3,567.9,154.3,567.8L154.3,567.8z M154.8,557.9l-3.7,3.4l-1.3-0.8
			l2.8-3.7L154.8,557.9z"/>
		<path class="st0" d="M158.4,562.8h2.3v0.9c0.7-0.8,1.7-1.2,2.7-1.2c1.1-0.1,2.2,0.4,2.9,1.3c0.5,0.8,0.7,1.8,0.6,2.8v6.1h-2.3
			v-5.5c0-2.5-0.9-2.6-1.8-2.6c-1,0-2.1,0.1-2.1,3.3v4.8h-2.3L158.4,562.8z"/>
		<path class="st0" d="M176.8,557v15.7h-2.4V557H176.8z"/>
		<path class="st0" d="M179.5,562.8h2.3v0.9c0.7-0.8,1.7-1.2,2.7-1.2c1.1-0.1,2.2,0.4,2.9,1.3c0.5,0.8,0.7,1.8,0.6,2.8v6.1h-2.3
			v-5.5c0-2.5-0.9-2.6-1.8-2.6c-1,0-2.1,0.1-2.1,3.3v4.8h-2.3L179.5,562.8z"/>
		<path class="st0" d="M192.7,564.9v7.8h-2.3v-7.8h-1v-2.1h1v-3.6h2.3v3.6h1.8v2.1H192.7z"/>
		<path class="st0" d="M204.2,570.5c-0.4,0.7-1,1.3-1.7,1.8c-0.9,0.5-1.9,0.8-2.9,0.8c-1.2,0.1-2.5-0.4-3.3-1.3
			c-1-1-1.5-2.4-1.4-3.8c0-1.5,0.5-3,1.6-4.1c0.9-0.9,2.1-1.4,3.3-1.3c1.2,0,2.3,0.4,3.2,1.3c1,1.2,1.5,2.7,1.4,4.2v0.3h-7.1
			c0,0.7,0.3,1.5,0.8,2c0.5,0.4,1.1,0.7,1.8,0.6c0.6,0,1.1-0.1,1.6-0.5c0.4-0.3,0.7-0.7,0.9-1.1L204.2,570.5z M201.9,566.5
			c-0.1-0.5-0.3-1-0.7-1.3c-0.9-0.8-2.3-0.7-3.2,0.1c-0.4,0.3-0.6,0.8-0.7,1.3H201.9z"/>
		<path class="st0" d="M208.4,555.6v17.1h-2.3v-17.1H208.4z"/>
		<path class="st0" d="M211.8,557.2c0.8,0,1.5,0.7,1.5,1.5c0,0.8-0.7,1.5-1.5,1.5c-0.8,0-1.5-0.7-1.5-1.5l0,0
			C210.3,557.9,210.9,557.3,211.8,557.2C211.7,557.2,211.8,557.2,211.8,557.2z M212.9,562.8v9.9h-2.3v-9.9H212.9z"/>
		<path class="st0" d="M222.4,562.8h2.3v9.1c0,2.3-0.3,4-1.6,5.1c-0.9,0.7-2.1,1.1-3.3,1.1c-1.2,0.1-2.4-0.4-3.2-1.2
			c-0.8-0.9-1.3-1.9-1.5-3.1h2.2c0.1,0.6,0.3,1.1,0.7,1.5c0.5,0.5,1.1,0.7,1.8,0.7c0.7,0,1.3-0.2,1.8-0.7c0.6-0.7,0.9-1.6,0.8-2.5
			v-1.3c-0.7,0.9-1.8,1.5-3,1.4c-1.2,0.1-2.4-0.4-3.3-1.3c-1-1.1-1.5-2.5-1.5-3.9c-0.1-1.4,0.5-2.8,1.4-3.8c0.9-0.9,2.1-1.4,3.4-1.4
			c1.1,0,2.2,0.5,2.9,1.3L222.4,562.8z M218.1,565.3c-1.3,1.4-1.3,3.6,0,5c0.5,0.4,1.1,0.6,1.8,0.7c0.7,0,1.4-0.3,1.9-0.8
			c0.6-0.6,0.9-1.5,0.9-2.3c0.1-0.9-0.3-1.8-0.9-2.5C220.7,564.4,219.1,564.4,218.1,565.3L218.1,565.3z"/>
		<path class="st0" d="M235.9,570.5c-0.4,0.7-1,1.3-1.7,1.8c-0.9,0.5-1.9,0.8-2.9,0.8c-1.2,0.1-2.5-0.4-3.3-1.3
			c-1-1-1.5-2.4-1.5-3.8c0-1.5,0.5-3,1.6-4.1c0.9-0.9,2.1-1.4,3.3-1.3c1.2,0,2.3,0.4,3.2,1.3c1,1.2,1.5,2.6,1.4,4.2v0.3h-7.1
			c0,0.7,0.3,1.5,0.9,2c0.5,0.4,1.1,0.7,1.8,0.6c0.6,0,1.1-0.1,1.6-0.5c0.4-0.3,0.7-0.7,0.9-1.1L235.9,570.5z M233.6,566.5
			c-0.1-0.5-0.3-1-0.7-1.3c-0.4-0.4-1-0.6-1.6-0.6c-0.6,0-1.2,0.2-1.6,0.6c-0.4,0.3-0.6,0.8-0.7,1.3H233.6z"/>
		<path class="st0" d="M237.7,562.8h2.3v0.9c0.7-0.8,1.7-1.2,2.7-1.2c1.1-0.1,2.2,0.4,2.9,1.3c0.5,0.8,0.7,1.8,0.6,2.8v6.1h-2.3
			v-5.5c0-2.5-0.9-2.6-1.8-2.6c-1,0-2.1,0.1-2.1,3.3v4.8h-2.3L237.7,562.8z"/>
		<path class="st0" d="M250.9,564.9v7.8h-2.3v-7.8h-1v-2.1h1v-3.6h2.3v3.6h1.8v2.1H250.9z"/>
		<path class="st0" d="M262.4,570.5c-0.4,0.7-1,1.4-1.7,1.8c-0.9,0.5-1.9,0.8-2.9,0.8c-1.2,0.1-2.5-0.4-3.3-1.3
			c-1-1-1.5-2.3-1.5-3.7c0-1.5,0.5-3,1.6-4.1c0.9-0.9,2.1-1.4,3.3-1.3c1.2,0,2.3,0.4,3.2,1.3c1,1.2,1.5,2.7,1.4,4.2v0.3h-7.1
			c0,0.7,0.3,1.4,0.9,2c0.5,0.4,1.1,0.7,1.8,0.6c0.6,0,1.1-0.1,1.6-0.5c0.4-0.3,0.7-0.7,0.9-1.1L262.4,570.5z M260.1,566.5
			c-0.1-0.5-0.3-1-0.7-1.3c-0.4-0.4-1-0.6-1.6-0.6c-0.6,0-1.2,0.2-1.6,0.6c-0.3,0.3-0.6,0.8-0.7,1.3H260.1z"/>
		<path class="st0" d="M265.1,571.2l0.9,0.3l-1.7,4.7l-0.6-0.2L265.1,571.2z"/>
		<path class="st0" d="M275.1,564v8.7h-0.9V564h-1.1v-0.9h1.1v-3.4h0.9v3.4h1.7v0.9H275.1z"/>
		<path class="st0" d="M278.4,568c-0.1,2.1,1.6,3.9,3.7,4c0,0,0.1,0,0.1,0c1.4,0,2.8-0.9,3.3-2.2l0.8,0.5c-0.8,1.6-2.4,2.6-4.2,2.6
			c-3,0-4.7-2.2-4.7-5c0-3.3,2.3-5,4.6-5c2.6,0,4.5,2.1,4.5,5.1L278.4,568z M285.6,567.1c-0.1-1.9-1.7-3.3-3.6-3.3
			c-1.9,0-3.4,1.5-3.6,3.3L285.6,567.1z"/>
		<path class="st0" d="M293.9,568c-0.1,2.1,1.6,3.9,3.7,4c0,0,0.1,0,0.1,0c1.4,0,2.8-0.9,3.3-2.2l0.8,0.5c-0.8,1.6-2.4,2.6-4.2,2.6
			c-3,0-4.7-2.2-4.7-5c0-3.3,2.3-5,4.6-5c2.6,0,4.5,2.1,4.5,5.1L293.9,568z M301.1,567.1c-0.1-1.9-1.7-3.3-3.5-3.3
			c-1.9,0-3.4,1.5-3.6,3.3H301.1z"/>
		<path class="st0" d="M304.2,563.1h0.9v1.5c0.6-1.1,1.7-1.7,2.9-1.7c1.1-0.1,2.1,0.5,2.6,1.3c0.4,0.7,0.5,1.6,0.5,2.4v6h-0.9v-6
			c0.1-0.7-0.1-1.3-0.4-1.9c-0.4-0.6-1.1-1-1.9-0.9c-1,0-1.9,0.5-2.4,1.3c-0.4,0.8-0.6,1.7-0.5,2.6v5h-0.9V563.1z"/>
		<path class="st0" d="M315,564v8.7h-0.9V564H313v-0.9h1.1v-3.4h0.9v3.4h1.7v0.9H315z"/>
		<path class="st0" d="M317.9,563.1h0.9v1.2c0.3-0.9,1.2-1.5,2.1-1.5c0.3,0,0.7,0.1,1,0.2l-0.5,0.8c-0.2-0.1-0.5-0.2-0.7-0.2
			c-1.9,0-2,2.6-2,3.8v5.2h-0.9L317.9,563.1z"/>
		<path class="st0" d="M323.8,568c-0.1,2.1,1.6,3.9,3.7,4c0,0,0.1,0,0.1,0c1.4,0,2.8-0.9,3.3-2.2l0.8,0.5c-0.8,1.6-2.4,2.6-4.2,2.6
			c-3,0-4.7-2.2-4.7-5c0-3.3,2.3-5,4.6-5c2.6,0.1,4.6,2.2,4.6,5.2H323.8z M331,567.1c-0.1-1.9-1.7-3.3-3.5-3.3
			c-1.9,0-3.4,1.5-3.6,3.3H331z"/>
		<path class="st0" d="M343,563.1v9.3c0,3.6-1.8,5.7-4.8,5.7c-2.5,0-4.6-1.5-4.7-4.1h1c0.1,1.9,1.8,3.3,3.7,3.2c0,0,0,0,0,0
			c3.8,0,3.9-3.8,3.9-4.8v-1.4c-0.9,1.2-2.3,1.9-3.8,1.9c-2.8,0-5-2.3-5-5.1c0-2.8,2.3-5,5.1-5c1.5,0,2.8,0.7,3.7,1.9v-1.7
			L343,563.1z M334.5,568c0,2.3,1.5,4.1,3.7,4.1s3.9-1.9,3.9-4.2c0.1-2.1-1.4-3.9-3.5-4.1c-0.1,0-0.2,0-0.3,0
			C335.9,563.8,334.5,565.8,334.5,568z"/>
		<path class="st0" d="M353.5,563.1h0.9v9.6h-0.9V571c-0.8,1.3-2.2,2-3.7,2c-2.6,0-4.7-2.1-4.7-4.7c0-0.1,0-0.2,0-0.3
			c0-3,1.9-5,4.7-5c1.5-0.1,2.9,0.7,3.7,1.9V563.1z M346.1,567.8c0,2.2,1.3,4.2,3.8,4.2s3.7-2,3.7-4.2c0.2-2.1-1.3-3.9-3.4-4.1
			s-3.9,1.3-4.1,3.4C346.1,567.4,346.1,567.6,346.1,567.8z"/>
		<path class="st0" d="M357.2,563.1h0.9v1.2c0.5-0.9,1.5-1.5,2.5-1.4c1.2-0.1,2.3,0.6,2.7,1.7c0.5-1.1,1.6-1.8,2.8-1.7
			c0.8,0,1.6,0.2,2.2,0.8c0.6,0.7,0.9,1.7,0.8,2.6v6.4h-0.9v-6.4c0.1-0.7-0.1-1.4-0.6-2c-0.4-0.4-0.9-0.6-1.4-0.5
			c-2.5,0-2.6,2.5-2.6,3.1v5.8h-0.9v-6.2c0-0.6,0-2.8-2.1-2.8c-1.7,0-2.4,1.5-2.4,3.4v5.5h-0.9V563.1z"/>
		<path class="st0" d="M381.3,567.9c0,2.8-2.2,5-5,5s-5-2.2-5-5s2.2-5,5-5c2.7,0,5,2.2,5,4.9C381.3,567.9,381.3,567.9,381.3,567.9z
			 M380.3,567.9c-0.1-2.2-1.9-3.9-4.1-3.9c-2.2,0.1-3.9,1.9-3.9,4.1c0.1,2.1,1.8,3.8,3.9,3.9c2.2,0,4-1.7,4.1-3.9
			C380.4,568.1,380.4,568,380.3,567.9L380.3,567.9z"/>
		<path class="st0" d="M387.6,564.9c-0.3-0.7-0.9-1.1-1.7-1.1c-0.9,0-1.6,0.6-1.6,1.5c0,0,0,0,0,0.1c0,0.9,0.8,1.2,1.7,1.6
			c0.9,0.2,1.8,0.7,2.5,1.4c0.4,0.4,0.5,1,0.5,1.5c0.1,1.6-1.2,3-2.8,3.1c-0.1,0-0.2,0-0.3,0c-1.6,0.1-3-1-3.3-2.5l0.9-0.3
			c0.2,1.1,1.2,1.9,2.4,1.9c1.1,0.1,2.1-0.8,2.2-1.9c0,0,0-0.1,0-0.1c0-1.1-0.7-1.5-2.1-2.1c-0.8-0.2-1.5-0.7-2.1-1.3
			c-0.3-0.4-0.4-0.8-0.4-1.2c0-1.3,1.1-2.4,2.4-2.5c0.1,0,0.1,0,0.2,0c1.1-0.1,2.1,0.6,2.5,1.5L387.6,564.9z"/>
		<path class="st0" d="M396.5,564v8.7h-0.9V564h-1v-0.9h1v-3.4h0.9v3.4h1.7v0.9H396.5z"/>
		<path class="st0" d="M400.4,563.1v5.8c-0.1,0.8,0.1,1.7,0.6,2.4c1.1,1,2.7,1,3.8,0c0.5-0.7,0.7-1.6,0.6-2.4v-5.8h0.9v6
			c0.1,0.9-0.2,1.9-0.7,2.6c-1.4,1.5-3.8,1.6-5.3,0.1c0,0-0.1-0.1-0.1-0.1c-0.5-0.8-0.8-1.7-0.7-2.6v-6H400.4z"/>
		<path class="st0" d="M52,586.2v8.7h-0.9v-8.7H50v-0.9h1.1v-3.4H52v3.4h1.7v0.9H52z"/>
		<path class="st0" d="M55.3,590.2c-0.1,2.1,1.6,3.9,3.7,4c0,0,0.1,0,0.1,0c1.4,0,2.8-0.9,3.3-2.2l0.8,0.5c-0.8,1.6-2.4,2.6-4.2,2.6
			c-3,0-4.7-2.2-4.7-5c0-3.3,2.3-5,4.7-5c2.6,0,4.5,2.1,4.5,5.1L55.3,590.2z M62.5,589.3c-0.1-1.9-1.7-3.3-3.5-3.3
			c-1.9,0-3.4,1.5-3.6,3.3L62.5,589.3z"/>
		<path class="st0" d="M65.7,585.3h0.9v1.2c0.3-0.9,1.2-1.5,2.1-1.5c0.3,0,0.7,0.1,1,0.2l-0.5,0.8c-0.2-0.1-0.5-0.2-0.7-0.2
			c-1.9,0-2,2.6-2,3.8v5.2h-0.9L65.7,585.3z"/>
		<path class="st0" d="M71.1,585.3h0.9v1.2c0.3-0.9,1.2-1.5,2.1-1.5c0.3,0,0.7,0.1,1,0.2l-0.5,0.8c-0.2-0.1-0.5-0.2-0.7-0.2
			c-1.9,0-2,2.6-2,3.8v5.2h-0.9L71.1,585.3z"/>
		<path class="st0" d="M77,590.2c-0.1,2.1,1.6,3.9,3.7,4c0,0,0.1,0,0.1,0c1.4,0,2.8-0.9,3.3-2.2l0.8,0.5c-0.8,1.6-2.4,2.6-4.2,2.6
			c-3,0-4.7-2.2-4.7-5c0-3.3,2.3-5,4.7-5c2.6,0,4.5,2.1,4.5,5.1L77,590.2z M84.2,589.3c-0.1-1.9-1.7-3.3-3.6-3.3
			c-1.9,0-3.4,1.5-3.6,3.3L84.2,589.3z"/>
		<path class="st0" d="M87.3,585.3h0.9v1.5c0.6-1.1,1.7-1.8,2.9-1.7c1.1-0.1,2.1,0.5,2.7,1.3c0.4,0.7,0.5,1.6,0.5,2.4v6h-0.9v-6
			c0.1-0.7-0.1-1.3-0.4-1.9c-0.4-0.6-1.1-1-1.9-0.9c-1,0-1.9,0.5-2.3,1.3c-0.4,0.8-0.6,1.7-0.5,2.6v5h-0.9L87.3,585.3z"/>
		<path class="st0" d="M106.5,590.1c0,2.8-2.2,5-5,5s-5-2.2-5-5s2.2-5,5-5c2.7,0,5,2.2,5,4.9C106.5,590.1,106.5,590.1,106.5,590.1z
			 M105.5,590.1c-0.1-2.2-1.9-3.9-4.1-3.9c-2.2,0.1-3.9,1.9-3.9,4.1c0.1,2.2,1.8,3.9,4,3.9c2.2,0,4-1.8,4-4
			C105.5,590.2,105.5,590.2,105.5,590.1L105.5,590.1z"/>
		<path class="st0" d="M114.4,585.3v5.8c-0.1,0.8,0.1,1.7,0.6,2.4c1.1,1,2.7,1,3.8,0c0.5-0.7,0.7-1.6,0.6-2.4v-5.8h0.9v6
			c0.1,0.9-0.2,1.9-0.7,2.6c-1.4,1.5-3.8,1.6-5.3,0.1c0,0-0.1-0.1-0.1-0.1c-0.5-0.8-0.8-1.7-0.7-2.6v-6H114.4z"/>
		<path class="st0" d="M123.2,585.3h0.9v1.2c0.3-0.9,1.2-1.5,2.1-1.5c0.3,0,0.7,0.1,1,0.2l-0.5,0.8c-0.2-0.1-0.5-0.2-0.7-0.2
			c-1.9,0-2,2.6-2,3.8v5.2h-0.9L123.2,585.3z"/>
		<path class="st0" d="M129.6,577.8v9.2c0.9-1.2,2.3-1.9,3.8-1.9c2.9,0,4.6,2.2,4.6,4.9s-1.8,5.1-4.7,5.1c-1.5,0.1-2.9-0.7-3.7-2
			v1.7h-0.9v-17.1H129.6z M137,590c0.1-2.1-1.5-3.8-3.5-3.9c-2.1-0.1-3.8,1.5-3.9,3.5c0,0.1,0,0.3,0,0.4c0,2.4,1.3,4.3,3.7,4.3
			S137,592.4,137,590z"/>
		<path class="st0" d="M147.9,585.3h0.9v9.6h-0.9v-1.7c-0.8,1.3-2.2,2-3.7,2c-2.6,0-4.7-2.1-4.7-4.7c0-0.1,0-0.2,0-0.3
			c0-3,1.9-5,4.7-5c1.5,0,2.9,0.7,3.7,1.9V585.3z M140.5,590c0,2.2,1.3,4.2,3.8,4.2s3.7-2,3.7-4.2c0.2-2.1-1.3-3.9-3.4-4.1
			s-3.9,1.3-4.1,3.4C140.5,589.6,140.5,589.8,140.5,590z"/>
		<path class="st0" d="M151.6,585.3h0.9v1.5c0.6-1.1,1.7-1.7,2.9-1.7c1.1-0.1,2.1,0.5,2.7,1.3c0.4,0.7,0.5,1.6,0.5,2.4v6h-0.9v-6
			c0.1-0.7-0.1-1.3-0.4-1.9c-0.4-0.6-1.1-1-1.9-0.9c-1,0-1.9,0.5-2.4,1.3c-0.4,0.8-0.6,1.7-0.5,2.6v5h-0.9L151.6,585.3z"/>
		<path class="st0" d="M161,582.1c0-0.5,0.4-0.8,0.9-0.8c0.5,0,0.8,0.4,0.8,0.9c0,0.5-0.4,0.8-0.8,0.8
			C161.4,583,161,582.6,161,582.1C161,582.1,161,582.1,161,582.1z M162.3,585.3v9.6h-0.9v-9.6H162.3z"/>
		<path class="st0" d="M165.3,594h7.7v0.9h-9.7l7.9-8.7h-6.6v-0.9h8.6L165.3,594z"/>
		<path class="st0" d="M181.6,585.3h0.9v9.6h-0.9v-1.7c-0.8,1.3-2.2,2-3.7,2c-2.6,0-4.7-2.1-4.7-4.7c0-0.1,0-0.2,0-0.3
			c0-3,1.9-5,4.7-5c1.5,0,2.9,0.7,3.7,1.9V585.3z M174.2,590c0,2.2,1.3,4.2,3.8,4.2s3.7-2,3.7-4.2c0.2-2.1-1.4-3.9-3.5-4
			c-2.1-0.2-3.9,1.4-4,3.5C174.2,589.6,174.2,589.8,174.2,590z"/>
		<path class="st0" d="M193.1,577.8h0.9v17.1h-0.9v-1.7c-0.8,1.3-2.2,2-3.7,2c-2.4,0-4.7-1.7-4.7-5.1c0-3.5,2.4-5,4.7-5
			c1.5,0,2.9,0.7,3.7,1.9V577.8z M185.7,590c0,2.8,1.8,4.2,3.8,4.2s3.7-1.4,3.7-4.2c0.1-2.1-1.4-3.8-3.4-4c-0.1,0-0.2,0-0.3,0
			C187.5,586,185.7,587.4,185.7,590z"/>
		<path class="st0" d="M206.3,590.1c0,2.8-2.2,5-5,5s-5-2.2-5-5s2.2-5,5-5c2.7,0,5,2.2,5,4.9C206.3,590.1,206.3,590.1,206.3,590.1z
			 M205.3,590.1c-0.1-2.2-1.9-3.9-4.1-3.9c-2.2,0.1-3.9,1.9-3.9,4.1c0.1,2.1,1.8,3.8,3.9,3.9c2.2,0,4-1.7,4.1-3.9
			C205.3,590.3,205.3,590.2,205.3,590.1L205.3,590.1z"/>
		<path class="st0" d="M216.3,595.1l-4.6-9.8h1.1l4,8.5l3.5-8.5h1.1l-6.3,15H214L216.3,595.1z"/>
		<path class="st0" d="M228.5,577.8v17.1h-0.9v-17.1H228.5z"/>
		<path class="st0" d="M230.9,582.1c0-0.5,0.4-0.8,0.9-0.8s0.8,0.4,0.8,0.9c0,0.5-0.4,0.8-0.9,0.8
			C231.2,583,230.9,582.6,230.9,582.1C230.8,582.2,230.8,582.1,230.9,582.1z M232.2,585.3v9.6h-0.9v-9.6H232.2z"/>
		<path class="st0" d="M239,587.1c-0.3-0.7-0.9-1.1-1.7-1.1c-0.9,0-1.6,0.6-1.6,1.5c0,0,0,0,0,0.1c0,0.9,0.8,1.2,1.7,1.6
			c0.9,0.2,1.8,0.7,2.5,1.4c0.4,0.4,0.5,1,0.5,1.5c0,1.6-1.2,3-2.9,3c-0.1,0-0.2,0-0.3,0c-1.6,0.1-3-1-3.3-2.5l0.9-0.3
			c0.2,1.1,1.2,1.9,2.4,1.9c1.1,0,2.1-0.8,2.1-2c0,0,0-0.1,0-0.1c0-1.1-0.7-1.5-2.1-2.1c-0.8-0.2-1.5-0.7-2.1-1.3
			c-0.3-0.4-0.4-0.8-0.4-1.2c0-1.3,1.1-2.4,2.4-2.5c0.1,0,0.1,0,0.2,0c1.1-0.1,2.1,0.6,2.5,1.5L239,587.1z"/>
		<path class="st0" d="M243.1,586.2v8.7h-0.9v-8.7h-1.1v-0.9h1.1v-3.4h0.9v3.4h1.7v0.9H243.1z"/>
		<path class="st0" d="M255.5,590.1c0,2.8-2.2,5-5,5s-5-2.2-5-5s2.2-5,5-5c2.7,0,5,2.2,5,4.9C255.5,590.1,255.5,590.1,255.5,590.1z
			 M254.5,590.1c-0.1-2.2-1.9-3.9-4.1-3.9c-2.2,0.1-3.9,1.9-3.9,4.1c0.1,2.2,1.8,3.9,4,3.9c2.2,0,4-1.8,4-4
			C254.5,590.2,254.5,590.2,254.5,590.1L254.5,590.1z"/>
		<path class="st0" d="M263.4,600.3h-0.9v-15h0.9v1.7c0.9-1.2,2.3-1.9,3.8-1.9c2.9,0,4.7,2.2,4.7,4.9s-1.8,5.1-4.7,5.1
			c-1.5,0.1-2.9-0.7-3.7-2V600.3z M270.9,590c0.1-2.1-1.5-3.8-3.5-3.9c-2.1-0.1-3.8,1.5-3.9,3.5c0,0.1,0,0.3,0,0.4
			c0,2.4,1.3,4.3,3.7,4.3S270.9,592.4,270.9,590z"/>
		<path class="st0" d="M281.8,585.3h0.9v9.6h-0.9v-1.7c-0.8,1.3-2.2,2-3.7,2c-2.6,0-4.7-2.1-4.7-4.7c0-0.1,0-0.2,0-0.3
			c0-3,1.9-5,4.7-5c1.5,0,2.9,0.7,3.7,1.9V585.3z M274.4,590c0,2.2,1.3,4.2,3.8,4.2s3.7-2,3.7-4.2c0.2-2.1-1.3-3.9-3.4-4.1
			s-3.9,1.3-4.1,3.4C274.3,589.6,274.3,589.8,274.4,590z"/>
		<path class="st0" d="M285.5,585.3h0.9v1.2c0.3-0.9,1.2-1.5,2.1-1.5c0.3,0,0.7,0.1,1,0.2l-0.5,0.8c-0.2-0.1-0.5-0.2-0.7-0.2
			c-1.9,0-2,2.6-2,3.8v5.2h-0.9L285.5,585.3z"/>
		<path class="st0" d="M298.5,585.3h0.9v9.6h-0.9v-1.7c-0.8,1.3-2.2,2-3.7,2c-2.6,0-4.7-2.1-4.7-4.7c0-0.1,0-0.2,0-0.3
			c0-3,1.9-5,4.7-5c1.5,0,2.9,0.7,3.7,1.9V585.3z M291.1,590c0,2.2,1.3,4.2,3.8,4.2s3.7-2,3.7-4.2c0.2-2.1-1.3-3.9-3.4-4.1
			s-3.9,1.3-4.1,3.4C291.1,589.6,291.1,589.8,291.1,590z"/>
		<path class="st0" d="M308,585.3v5.8c-0.1,0.8,0.1,1.7,0.6,2.4c1.1,1,2.7,1,3.8,0c0.5-0.7,0.7-1.6,0.6-2.4v-5.8h0.9v6
			c0.1,0.9-0.2,1.9-0.7,2.6c-1.4,1.5-3.8,1.6-5.3,0.1c0,0-0.1-0.1-0.1-0.1c-0.5-0.8-0.8-1.7-0.7-2.6v-6H308z"/>
		<path class="st0" d="M317.7,586.2v8.7h-0.9v-8.7h-1.1v-0.9h1.1v-3.4h0.9v3.4h1.7v0.9H317.7z"/>
		<path class="st0" d="M320.2,582.1c0-0.5,0.4-0.8,0.9-0.8s0.8,0.4,0.8,0.9c0,0.5-0.4,0.8-0.9,0.8
			C320.6,583,320.2,582.6,320.2,582.1C320.2,582.2,320.2,582.1,320.2,582.1z M321.5,585.3v9.6h-0.9v-9.6H321.5z"/>
		<path class="st0" d="M325.2,577.8v17.1h-0.9v-17.1H325.2z"/>
		<path class="st0" d="M327.6,582.1c0-0.5,0.4-0.8,0.9-0.8s0.8,0.4,0.8,0.9c0,0.5-0.4,0.8-0.9,0.8C328,583,327.6,582.6,327.6,582.1
			C327.6,582.2,327.6,582.1,327.6,582.1z M328.9,585.3v9.6H328v-9.6H328.9z"/>
		<path class="st0" d="M331.9,594h7.7v0.9h-9.7l7.9-8.7h-6.6v-0.9h8.6L331.9,594z"/>
		<path class="st0" d="M348.2,585.3h0.9v9.6h-0.9v-1.7c-0.8,1.3-2.2,2-3.7,2c-2.6,0-4.7-2.1-4.7-4.7c0-0.1,0-0.2,0-0.3
			c0-3,1.9-5,4.7-5c1.5,0,2.9,0.7,3.7,1.9V585.3z M340.8,590c0,2.2,1.3,4.2,3.8,4.2s3.7-2,3.7-4.2c0.2-2.1-1.3-3.9-3.4-4.1
			s-3.9,1.3-4.1,3.4C340.8,589.6,340.8,589.8,340.8,590z"/>
		<path class="st0" d="M352,585.3h0.9v1.2c0.3-0.9,1.2-1.5,2.1-1.5c0.3,0,0.7,0.1,1,0.2l-0.5,0.8c-0.2-0.1-0.5-0.2-0.7-0.2
			c-1.9,0-2,2.6-2,3.8v5.2H352V585.3z"/>
		<path class="st0" d="M362.6,590.2c-0.1,2.1,1.6,3.9,3.7,4c0,0,0.1,0,0.1,0c1.4,0,2.8-0.9,3.3-2.2l0.8,0.5
			c-0.8,1.6-2.4,2.6-4.2,2.6c-3,0-4.7-2.2-4.7-5c-0.2-2.6,1.8-4.8,4.3-5c0.1,0,0.2,0,0.3,0c2.6,0,4.5,2.1,4.5,5.1L362.6,590.2z
			 M369.9,589.3c-0.1-1.9-1.7-3.3-3.5-3.3c-1.9,0-3.4,1.5-3.6,3.3H369.9z"/>
		<path class="st0" d="M373,585.3h0.9v1.5c0.6-1.1,1.7-1.7,2.9-1.7c1.1-0.1,2.1,0.5,2.7,1.3c0.4,0.7,0.5,1.6,0.5,2.4v6h-0.9v-6
			c0.1-0.7-0.1-1.3-0.4-1.9c-0.4-0.6-1.1-1-1.9-0.9c-1,0-1.9,0.5-2.4,1.3c-0.4,0.8-0.6,1.7-0.5,2.6v5H373V585.3z"/>
		<path class="st0" d="M388.6,586.2v8.7h-0.9v-8.7h-1.1v-0.9h1.1v-3.4h0.9v3.4h1.7v0.9H388.6z"/>
		<path class="st0" d="M399.3,585.3h1v9.6h-1v-1.7c-0.8,1.3-2.2,2-3.7,2c-2.6,0-4.7-2.1-4.7-4.7c0-0.1,0-0.2,0-0.3c0-3,1.9-5,4.7-5
			c1.5-0.1,2.9,0.6,3.7,1.8V585.3z M391.9,590c0,2.2,1.3,4.2,3.8,4.2s3.7-2,3.7-4.2c0.2-2.1-1.3-3.9-3.4-4.1s-3.9,1.3-4.1,3.4
			C391.9,589.6,391.9,589.8,391.9,590z"/>
		<path class="st0" d="M403,585.3h0.9v1.5c0.6-1.1,1.7-1.8,2.9-1.7c1.1-0.1,2.1,0.5,2.6,1.3c0.4,0.7,0.5,1.6,0.5,2.4v6h-0.9v-6
			c0.1-0.7-0.1-1.3-0.4-1.9c-0.4-0.6-1.1-1-1.9-0.9c-1,0-1.9,0.5-2.4,1.3c-0.4,0.8-0.6,1.7-0.5,2.6v5H403V585.3z"/>
		<path class="st0" d="M55.1,609.3c-0.3-0.7-0.9-1.1-1.7-1.1c-0.8,0-1.6,0.6-1.6,1.5c0,0,0,0,0,0.1c0,0.9,0.8,1.2,1.7,1.6
			c1,0.2,1.8,0.7,2.5,1.4c0.3,0.4,0.5,1,0.5,1.5c0.1,1.6-1.2,3-2.8,3.1c-0.1,0-0.2,0-0.3,0c-1.6,0.1-3-1-3.4-2.5l0.9-0.3
			c0.2,1.1,1.2,1.9,2.4,1.9c1.1,0,2.1-0.8,2.1-2c0,0,0-0.1,0-0.1c0-1.1-0.7-1.5-2.1-2.1c-0.8-0.2-1.5-0.7-2.1-1.3
			c-0.3-0.4-0.4-0.8-0.4-1.2c0-1.3,1.1-2.4,2.4-2.5c0.1,0,0.1,0,0.2,0c1.1-0.1,2.1,0.6,2.5,1.5L55.1,609.3z"/>
		<path class="st0" d="M67.7,612.3c0,2.8-2.2,5-5,5c-2.8,0-5-2.2-5-5s2.2-5,5-5c2.7,0,5,2.2,5,4.9C67.7,612.2,67.7,612.3,67.7,612.3
			z M66.7,612.3c-0.1-2.2-1.9-3.9-4.1-3.9c-2.2,0.1-3.9,1.9-3.9,4.1c0.1,2.2,1.8,3.9,4,3.9c2.2,0,4-1.8,4-4
			C66.7,612.4,66.7,612.4,66.7,612.3L66.7,612.3z M64.7,603.1l-2.5,3l-0.7-0.4l2.2-3.2L64.7,603.1z"/>
		<path class="st0" d="M70.8,600v17.1h-1V600H70.8z"/>
		<path class="st0" d="M83,612.3c0,2.8-2.2,5-5,5s-5-2.2-5-5s2.2-5,5-5c2.7,0,5,2.2,5,4.9C83,612.2,83,612.3,83,612.3z M82,612.3
			c-0.1-2.2-1.9-3.9-4.1-3.9s-3.9,1.9-3.9,4.1c0.1,2.2,1.8,3.9,4,3.9c2.2,0,4-1.8,4-4C82,612.4,82,612.4,82,612.3z"/>
		<path class="st0" d="M91.1,613.3c0,0.6,0.2,1.2,0.5,1.7c1.1,1.6,3.3,1.9,4.9,0.8c1-0.7,1.5-1.8,1.4-3c0-1.1-0.5-2.2-1.5-2.9
			c-0.6-0.3-1.3-0.5-2-0.5v-1c0.8,0,1.5-0.2,2.1-0.7c0.7-0.7,1.2-1.6,1.2-2.6c0-1.7-1.4-3.1-3.1-3c-0.8,0-1.6,0.3-2.2,0.9
			c-0.5,0.6-0.8,1.3-0.8,2.1h-1c0-1.1,0.4-2.1,1.2-2.8c1.7-1.6,4.3-1.5,5.9,0.1c0.7,0.7,1.1,1.7,1.1,2.7c0.1,1.7-0.9,3.2-2.5,3.8
			c1.7,0.5,2.8,2.1,2.7,3.9c0,2.5-2,4.6-4.5,4.6c-0.1,0-0.1,0-0.2,0c-1.5,0-2.9-0.7-3.8-2c-0.4-0.6-0.6-1.3-0.6-2L91.1,613.3z"/>
		<path class="st0" d="M114.8,607.5h0.9v9.6h-0.9v-1.7c-0.8,1.3-2.2,2-3.7,2c-2.6,0-4.7-2.1-4.7-4.7c0-0.1,0-0.2,0-0.3
			c0-3,1.9-5,4.7-5c1.5,0,2.9,0.7,3.7,1.9V607.5z M107.4,612.2c0,2.2,1.3,4.2,3.8,4.2s3.7-2,3.7-4.2c0.2-2.1-1.3-3.9-3.4-4.1
			s-3.9,1.3-4.1,3.4C107.4,611.8,107.4,612,107.4,612.2z"/>
		<path class="st0" d="M118.5,607.5h0.9v1.5c0.6-1.1,1.7-1.8,2.9-1.7c1.1-0.1,2.1,0.5,2.7,1.3c0.4,0.7,0.5,1.6,0.5,2.4v6h-0.9v-6
			c0.1-0.7-0.1-1.3-0.4-1.9c-0.4-0.6-1.1-1-1.9-0.9c-1,0-1.9,0.5-2.4,1.3c-0.4,0.8-0.6,1.7-0.5,2.6v5h-0.9V607.5z M119,605.2
			c0.1-0.3,0.3-0.6,0.5-0.9c0.3-0.3,0.7-0.4,1.1-0.4c0.6,0.1,1.2,0.2,1.7,0.5c0.3,0.2,0.7,0.3,1.1,0.3c0.2,0,0.5-0.1,0.6-0.3
			c0.1-0.2,0.2-0.4,0.3-0.6l0.6,0.5c-0.1,0.4-0.3,0.7-0.6,0.9c-0.3,0.2-0.6,0.4-1,0.4c-0.5,0-0.9-0.2-1.4-0.4
			c-0.4-0.2-0.9-0.4-1.4-0.4c-0.3,0-0.5,0.1-0.7,0.3c-0.1,0.2-0.2,0.4-0.3,0.6L119,605.2z"/>
		<path class="st0" d="M137.7,612.3c0,2.8-2.2,5-5,5s-5-2.2-5-5s2.2-5,5-5c2.7,0,5,2.2,5,4.9C137.7,612.3,137.7,612.3,137.7,612.3z
			 M136.7,612.3c-0.1-2.2-1.9-3.9-4.1-3.9c-2.2,0.1-3.9,1.9-3.9,4.1c0.1,2.2,1.8,3.9,4,3.9c2.2,0,4-1.8,4-4
			C136.7,612.4,136.7,612.4,136.7,612.3L136.7,612.3z"/>
		<path class="st0" d="M144,609.3c-0.3-0.7-0.9-1.1-1.7-1.1c-0.8,0-1.6,0.6-1.6,1.5c0,0,0,0,0,0.1c0,0.9,0.8,1.2,1.7,1.6
			c0.9,0.2,1.8,0.7,2.5,1.4c0.3,0.4,0.5,1,0.5,1.5c0.1,1.6-1.2,3-2.8,3.1c-0.1,0-0.2,0-0.3,0c-1.6,0.1-3-1-3.3-2.5l0.9-0.3
			c0.2,1.1,1.2,1.9,2.4,1.9c1.1,0.1,2.1-0.8,2.1-1.9c0-0.1,0-0.2,0-0.2c0-1.1-0.7-1.5-2.1-2.1c-0.8-0.2-1.5-0.7-2.1-1.3
			c-0.3-0.4-0.4-0.8-0.4-1.2c0-1.3,1.1-2.4,2.4-2.5c0.1,0,0.1,0,0.2,0c1.1-0.1,2.1,0.6,2.5,1.5L144,609.3z"/>
		<path class="st0" d="M147.8,615.5c0.5,0,0.9,0.4,0.9,0.9c0,0.5-0.4,0.9-0.9,0.9c-0.5,0-0.9-0.4-0.9-0.9l0,0
			C146.9,615.9,147.3,615.5,147.8,615.5C147.7,615.5,147.8,615.5,147.8,615.5z"/>
		<line class="st1" x1="6.6" y1="229.4" x2="343.9" y2="229.4"/>
	</g>
</g>
</svg>
