<svg xmlns="http://www.w3.org/2000/svg" viewBox="0 0 356.52 51.89"><defs><style>.cls-1{fill:#002B53;}</style></defs><title>operacion</title><g id="Capa_2" data-name="Capa 2"><g id="Capa_1-2" data-name="Capa 1"><polygon class="cls-1" points="327.88 5.25 316.56 16.54 317.59 17.57 327.88 7.31 343.9 23.33 333.13 34.1 329.36 30.33 328.33 31.36 333.13 36.16 345.96 23.33 327.88 5.25"/><polygon class="cls-1" points="338.16 18.53 322.59 34.1 311.83 23.33 315.61 19.55 314.58 18.52 309.77 23.33 322.59 36.16 339.19 19.56 338.16 18.53"/><polygon class="cls-1" points="327.39 28.35 314.51 15.43 327.88 2.06 341.26 15.43 340.13 16.56 341.16 17.59 343.32 15.43 327.88 0 312.45 15.43 326.37 29.38 327.39 28.35"/><rect class="cls-1" x="326.24" y="11.21" width="3.27" height="3.27" transform="translate(86.95 235.61) rotate(-45)"/><path class="cls-1" d="M299.26,38.81v-.06h1.57a2.14,2.14,0,0,1,.7.11,1.53,1.53,0,0,1,.5.29,1.27,1.27,0,0,1,.29.42,1.19,1.19,0,0,1,.1.49,1.28,1.28,0,0,1-.09.48A1.06,1.06,0,0,1,302,41a1.36,1.36,0,0,1-.52.29,2.35,2.35,0,0,1-.74.11,4.74,4.74,0,0,1-.51,0V43a.48.48,0,0,0,.52.53v0h-1.53v0a.61.61,0,0,0,.37-.13.49.49,0,0,0,.15-.4V39.34a.54.54,0,0,0-.06-.27.3.3,0,0,0-.12-.16.41.41,0,0,0-.15-.07l-.12,0Zm1,.11v2.26a2.7,2.7,0,0,0,.49,0,1.3,1.3,0,0,0,.79-.24,1,1,0,0,0,.32-.88,1.33,1.33,0,0,0-.28-.88,1.05,1.05,0,0,0-.86-.34A2.38,2.38,0,0,0,300.27,38.92Z"/><path class="cls-1" d="M308.2,41.15A2.51,2.51,0,0,1,307,43.32a2.42,2.42,0,0,1-1.27.34,2.49,2.49,0,0,1-1.29-.34,2.49,2.49,0,0,1-1.25-2.19,2.47,2.47,0,0,1,.75-1.79,2.78,2.78,0,0,1,.82-.54,2.65,2.65,0,0,1,1-.19,2.5,2.5,0,0,1,.94.18,2.32,2.32,0,0,1,.81.53,2.43,2.43,0,0,1,.57.8A2.7,2.7,0,0,1,308.2,41.15Zm-.57,0a2.76,2.76,0,0,0-.34-1.49,1.66,1.66,0,0,0-.78-.72,2,2,0,0,0-.83-.19,2.29,2.29,0,0,0-.62.1,2,2,0,0,0-.64.36,2.05,2.05,0,0,0-.5.74,3.16,3.16,0,0,0-.2,1.18,3.46,3.46,0,0,0,.16,1.08,1.87,1.87,0,0,0,.46.75,1.83,1.83,0,0,0,.63.42,2,2,0,0,0,.72.13,2.08,2.08,0,0,0,.68-.12A1.79,1.79,0,0,0,307,43a1.86,1.86,0,0,0,.46-.72A3.11,3.11,0,0,0,307.63,41.16Z"/><path class="cls-1" d="M309,38.82H309v-.07h1.66a1.51,1.51,0,0,1,.67.13,1.12,1.12,0,0,1,.44.31,1.44,1.44,0,0,1,.22.4A1.52,1.52,0,0,1,312,40a1.1,1.1,0,0,1-.11.5,1.15,1.15,0,0,1-.33.41,1.35,1.35,0,0,1-.56.23h0a2.05,2.05,0,0,1,.79.83l.43.73a2.37,2.37,0,0,0,.47.62.76.76,0,0,0,.35.15v0h-.87l-.1-.14-.11-.14-.09-.15-.08-.11-.57-1a2.73,2.73,0,0,0-.35-.47,1.52,1.52,0,0,0-.34-.25.73.73,0,0,0-.28-.1l-.3,0V43a.48.48,0,0,0,.52.53v0H309v0a.83.83,0,0,0,.25-.06.37.37,0,0,0,.19-.16.57.57,0,0,0,.07-.31V39.34a.51.51,0,0,0-.14-.4A.44.44,0,0,0,309,38.82Zm.93,2.26h.28A1.76,1.76,0,0,0,311,41a.82.82,0,0,0,.4-.35,1.22,1.22,0,0,0,.12-.56,1.41,1.41,0,0,0-.11-.54,1,1,0,0,0-.37-.45,1.28,1.28,0,0,0-.72-.18,1.26,1.26,0,0,0-.3,0Z"/><path class="cls-1" d="M319.75,38.52a.59.59,0,0,1-.48.23h-5.9l-.15,0-.1-.06-.09-.12h0v1.17h0c0-.32.12-.52.28-.61a1.13,1.13,0,0,1,.58-.14h.95v4a.48.48,0,0,1-.15.4.63.63,0,0,1-.36.13v0h1.52v0a.48.48,0,0,1-.52-.53v-4h2.12v4a.48.48,0,0,1-.15.4.63.63,0,0,1-.36.13v0h1.52v0a.48.48,0,0,1-.52-.53v-4h.95a1.2,1.2,0,0,1,.59.14.72.72,0,0,1,.27.61h.05V38.52Z"/><path class="cls-1" d="M325.34,41.15A2.37,2.37,0,0,1,325,42.4a2.48,2.48,0,0,1-.9.92,2.45,2.45,0,0,1-1.28.34,2.53,2.53,0,0,1-2.2-1.26,2.44,2.44,0,0,1-.34-1.27,2.54,2.54,0,0,1,.2-1,2.27,2.27,0,0,1,.56-.8,2.66,2.66,0,0,1,.82-.54,2.57,2.57,0,0,1,1-.19,2.48,2.48,0,0,1,1.75.71,2.27,2.27,0,0,1,.56.8A2.53,2.53,0,0,1,325.34,41.15Zm-.57,0a2.86,2.86,0,0,0-.34-1.49,1.76,1.76,0,0,0-.78-.72,2.07,2.07,0,0,0-.83-.19,2.42,2.42,0,0,0-.63.1,1.83,1.83,0,0,0-.63.36,2.07,2.07,0,0,0-.51.74,3.74,3.74,0,0,0,0,2.26,2,2,0,0,0,.45.75,1.83,1.83,0,0,0,.63.42,2,2,0,0,0,.72.13,2,2,0,0,0,.68-.12,1.74,1.74,0,0,0,.63-.39,2,2,0,0,0,.46-.72A3.11,3.11,0,0,0,324.77,41.16Z"/><path class="cls-1" d="M330.31,43.54h-1.79v0h.06a.41.41,0,0,0,.31-.14A.51.51,0,0,0,329,43V39.35a.55.55,0,0,0-.13-.4.42.42,0,0,0-.33-.14h-.05v-.06h1.56a1.79,1.79,0,0,1,.57.09,1.26,1.26,0,0,1,.44.25,1,1,0,0,1,.27.36.88.88,0,0,1,.1.43.91.91,0,0,1-.28.7,1.68,1.68,0,0,1-.75.4h0l.41.07a1.17,1.17,0,0,1,.36.13,1,1,0,0,1,.3.21,1.27,1.27,0,0,1,.22.25,1.69,1.69,0,0,1,.13.31,1.24,1.24,0,0,1,0,.33,1.08,1.08,0,0,1-.19.65,1.42,1.42,0,0,1-.44.41A2.08,2.08,0,0,1,330.31,43.54ZM329.52,41h.31a1.41,1.41,0,0,0,.55-.08.85.85,0,0,0,.21-.14.88.88,0,0,0,.22-.29,1,1,0,0,0,.1-.47,1.14,1.14,0,0,0-.07-.41,1,1,0,0,0-.2-.34,1,1,0,0,0-.69-.32,1.82,1.82,0,0,0-.43.07Zm.49.15h-.49v1.72a1.23,1.23,0,0,0,0,.29.45.45,0,0,0,.19.2,1.1,1.1,0,0,0,.47.08,1,1,0,0,0,.94-.44,1.2,1.2,0,0,0,.19-.68,1.3,1.3,0,0,0-.09-.49,1.14,1.14,0,0,0-.27-.37,1.2,1.2,0,0,0-.42-.23A1.63,1.63,0,0,0,330,41.1Z"/><path class="cls-1" d="M332.53,43.49h.06a.43.43,0,0,0,.31-.14A.53.53,0,0,0,333,43V39.35a.51.51,0,0,0-.15-.42.56.56,0,0,0-.36-.12v-.06h1.53v.06a.56.56,0,0,0-.36.12.49.49,0,0,0-.16.42v3.49a.52.52,0,0,0,.16.43.83.83,0,0,0,.51.12h.41a1.23,1.23,0,0,0,.43-.06.59.59,0,0,0,.26-.2,2.66,2.66,0,0,0,.19-.38h.06l-.19.79h-2.84Z"/><path class="cls-1" d="M338.21,38.7l1.44,4.09a1.77,1.77,0,0,0,.21.47.62.62,0,0,0,.19.18,1.11,1.11,0,0,0,.24.05v0h-1.56v0a1.18,1.18,0,0,0,.37-.05c.08,0,.13-.11.13-.25a.79.79,0,0,0-.07-.29s0,0,0,0l-.42-1.27h-1.66l-.38,1.17a1.41,1.41,0,0,0-.08.39.32.32,0,0,0,.1.27.56.56,0,0,0,.29.07v0h-1.13v0a.61.61,0,0,0,.39-.19,1.24,1.24,0,0,0,.25-.49l1.35-4.11Zm-1.09,2.72h1.53l-.78-2.27h0Z"/><path class="cls-1" d="M345.75,38.75v.06a1,1,0,0,0-.29.07.32.32,0,0,0-.16.18,1.09,1.09,0,0,0-.06.4v4.2h0l-3.68-4.1V42.5a3.63,3.63,0,0,0,0,.55.55.55,0,0,0,.09.25.5.5,0,0,0,.42.19v0h-1.2v0a.63.63,0,0,0,.31-.09.4.4,0,0,0,.16-.28,2.94,2.94,0,0,0,.05-.61V39.39l-.16-.18a1.67,1.67,0,0,0-.34-.31,1.14,1.14,0,0,0-.31-.09v-.06h.89l3.62,4.06V39.72c0-.23,0-.41,0-.52a.45.45,0,0,0-.15-.28.6.6,0,0,0-.37-.11v-.06Z"/><path class="cls-1" d="M350.71,39.83h-.06a1,1,0,0,0-.33-.6,1.62,1.62,0,0,0-.61-.35,2,2,0,0,0-.65-.12,1.81,1.81,0,0,0-1.4.67,2.06,2.06,0,0,0-.41.76,2.93,2.93,0,0,0-.15,1,3,3,0,0,0,.14.93,2.26,2.26,0,0,0,.41.75,2,2,0,0,0,.63.48,1.91,1.91,0,0,0,.8.16,2.43,2.43,0,0,0,.79-.15,1.94,1.94,0,0,0,.79-.49V43a4.28,4.28,0,0,1-.79.49,2.33,2.33,0,0,1-.89.15,2.51,2.51,0,0,1-1-.2,2.36,2.36,0,0,1-.78-.56,2.33,2.33,0,0,1-.49-.79,2.52,2.52,0,0,1-.17-.9,2.56,2.56,0,0,1,.35-1.3,2.65,2.65,0,0,1,.93-.95,2.49,2.49,0,0,1,1.28-.35,3.76,3.76,0,0,1,.9.13l.34.09a.56.56,0,0,0,.17,0,.28.28,0,0,0,.16,0,.3.3,0,0,0,.07-.14h.05Z"/><path class="cls-1" d="M356.52,41.15a2.46,2.46,0,0,1-.33,1.25,2.51,2.51,0,0,1-.91.92,2.42,2.42,0,0,1-1.27.34,2.49,2.49,0,0,1-1.29-.34,2.46,2.46,0,0,1-.92-.92,2.55,2.55,0,0,1-.14-2.26,2.41,2.41,0,0,1,.56-.8,2.55,2.55,0,0,1,1.78-.73,2.5,2.5,0,0,1,.94.18,2.52,2.52,0,0,1,.81.53,2.43,2.43,0,0,1,.57.8A2.7,2.7,0,0,1,356.52,41.15Zm-.57,0a2.76,2.76,0,0,0-.34-1.49,1.66,1.66,0,0,0-.78-.72,2,2,0,0,0-.83-.19,2.42,2.42,0,0,0-.63.1,1.79,1.79,0,0,0-1.13,1.1,3.65,3.65,0,0,0,0,2.26,1.84,1.84,0,0,0,1.09,1.17,2,2,0,0,0,.72.13,2,2,0,0,0,.67-.12,1.74,1.74,0,0,0,.63-.39,2,2,0,0,0,.46-.72A3.11,3.11,0,0,0,356,41.16Z"/><path class="cls-1" d="M302.47,48.89a1.69,1.69,0,0,0-1.26-.57,1.64,1.64,0,1,0,0,3.28,1.76,1.76,0,0,0,1.25-.54v.31a1.94,1.94,0,0,1-1.24.45,1.86,1.86,0,1,1,0-3.71,1.82,1.82,0,0,1,1.25.47Z"/><path class="cls-1" d="M307.42,48.15v3.61h-.25V48.15Z"/><path class="cls-1" d="M312.29,51.76l.42-3.73,1.62,3.33L315.94,48l.42,3.73h-.24l-.33-2.9-1.46,3-1.47-3-.33,2.9Z"/><path class="cls-1" d="M323.1,50.58h-1.58l-.5,1.18h-.27l1.57-3.71,1.54,3.71h-.26Zm-.09-.22-.7-1.71-.7,1.71Z"/><path class="cls-1" d="M328.85,48.37v3.39h-.25V48.37h-1v-.22h2.17v.22Z"/><path class="cls-1" d="M335.93,50.58h-1.58l-.5,1.18h-.27l1.57-3.71,1.54,3.71h-.26Zm-.09-.22-.7-1.71-.7,1.71Z"/><path class="cls-1" d="M342.74,51.76l-1.2-1.7h-.12v1.7h-.24V48.15h.53a1.35,1.35,0,0,1,.79.19.94.94,0,0,1-.24,1.65,1.59,1.59,0,0,1-.46.07l1.22,1.7Zm-1.32-1.92h.36c.53,0,.85-.27.85-.73a.65.65,0,0,0-.33-.63,1.31,1.31,0,0,0-.57-.11h-.31Z"/><path class="cls-1" d="M347.94,48.15v3.61h-.25V48.15Z"/><path class="cls-1" d="M356.51,50a1.93,1.93,0,1,1-1.93-1.85A1.87,1.87,0,0,1,356.51,50Zm-.26,0a1.68,1.68,0,1,0-1.67,1.64A1.62,1.62,0,0,0,356.25,50Z"/><polygon class="cls-1" points="356.51 45.5 299.96 45.5 299.27 46.19 355.82 46.19 356.51 45.5"/><path class="cls-1" d="M11,30.8a6.94,6.94,0,0,1-4,1.22,6.9,6.9,0,1,1,0-13.8,6.82,6.82,0,0,1,6.94,6.9A6.72,6.72,0,0,1,12,29.9l2,2H12Zm0-2a5.31,5.31,0,0,0,1.42-3.7A5.42,5.42,0,1,0,9.9,29.74L6.68,26.42H8.6Z"/><path class="cls-1" d="M17.68,28.32a2.83,2.83,0,0,0,.4,1.78,1.76,1.76,0,0,0,1.46.64A1.76,1.76,0,0,0,21,30.1a2.83,2.83,0,0,0,.4-1.78V23.48h1.44v5a3.3,3.3,0,0,1-.76,2.5A3.62,3.62,0,0,1,17,31a3.3,3.3,0,0,1-.76-2.5v-5h1.44Z"/><path class="cls-1" d="M32.92,29.66a5,5,0,0,1-1,1.34,4,4,0,0,1-2.76,1A4,4,0,0,1,25,27.68c0-2.48,1.52-4.4,4-4.4A3.71,3.71,0,0,1,32.2,24.8,5.57,5.57,0,0,1,33,27.92H26.52a2.66,2.66,0,0,0,2.64,2.82,2.52,2.52,0,0,0,1.7-.6A3.31,3.31,0,0,0,31.72,29ZM31.5,26.72a2.48,2.48,0,0,0-2.44-2.16,2.52,2.52,0,0,0-2.44,2.16Z"/><path class="cls-1" d="M35.18,23.48h1.44v.9a2.31,2.31,0,0,1,1.88-1.1,3,3,0,0,1,1.28.34l-.68,1.3a1.48,1.48,0,0,0-.84-.28,1.39,1.39,0,0,0-1.16.52,3.58,3.58,0,0,0-.48,2.24v4.38H35.18Z"/><path class="cls-1" d="M48,29.66A5,5,0,0,1,47,31a4,4,0,0,1-2.76,1,4,4,0,0,1-4.1-4.34c0-2.48,1.52-4.4,4-4.4a3.71,3.71,0,0,1,3.14,1.52A5.57,5.57,0,0,1,48,27.92H41.58a2.66,2.66,0,0,0,2.64,2.82,2.52,2.52,0,0,0,1.7-.6A3.31,3.31,0,0,0,46.78,29Zm-1.42-2.94a2.48,2.48,0,0,0-2.44-2.16,2.52,2.52,0,0,0-2.44,2.16Zm0-7.58-2.68,2.7-.9-.48,2.1-2.9Z"/><path class="cls-1" d="M51.72,24.8v7H50.28v-7H49.4V23.48h.88v-3h1.44v3h1.44V24.8Z"/><path class="cls-1" d="M60.88,23.48h1.44v8.3H60.88V30.62A3.5,3.5,0,0,1,58,32c-2.1,0-4-1.48-4-4.4a4,4,0,0,1,4-4.34,3.43,3.43,0,0,1,2.84,1.38Zm-5.4,4.14c0,1.78,1,3.12,2.72,3.12A2.84,2.84,0,0,0,61,27.64a2.81,2.81,0,0,0-2.76-3.08A2.76,2.76,0,0,0,55.48,27.62Z"/><path class="cls-1" d="M65,23.48h1.44v.9a2.31,2.31,0,0,1,1.88-1.1,3,3,0,0,1,1.28.34L69,24.92a1.48,1.48,0,0,0-.84-.28,1.39,1.39,0,0,0-1.16.52,3.58,3.58,0,0,0-.48,2.24v4.38H65Z"/><path class="cls-1" d="M70,27.66A4.4,4.4,0,1,1,74.36,32,4.26,4.26,0,0,1,70,27.66Zm1.48,0a2.92,2.92,0,1,0,5.84,0,2.93,2.93,0,1,0-5.84,0Z"/><path class="cls-1" d="M142.64,31.78V17.88L153,28.78V18.44h1.48V32.38l-10.4-10.9v10.3Z"/><path class="cls-1" d="M164,23.48h1.44v8.3H164V30.62a3.5,3.5,0,0,1-2.84,1.4c-2.1,0-4.05-1.48-4.05-4.4a4,4,0,0,1,4.05-4.34A3.43,3.43,0,0,1,164,24.66Zm-5.4,4.14c0,1.78,1,3.12,2.72,3.12a2.84,2.84,0,0,0,2.76-3.1,2.81,2.81,0,0,0-2.76-3.08A2.76,2.76,0,0,0,158.56,27.62Z"/><path class="cls-1" d="M169.6,24.8v7h-1.45v-7h-.88V23.48h.88v-3h1.45v3H171V24.8Z"/><path class="cls-1" d="M173.83,28.32a2.83,2.83,0,0,0,.4,1.78,2,2,0,0,0,2.92,0,2.77,2.77,0,0,0,.41-1.78V23.48H179v5a3.27,3.27,0,0,1-.77,2.5,3.62,3.62,0,0,1-5.08,0,3.3,3.3,0,0,1-.76-2.5v-5h1.44Z"/><path class="cls-1" d="M181.71,23.48h1.44v.9a2.31,2.31,0,0,1,1.88-1.1,3,3,0,0,1,1.28.34l-.68,1.3a1.48,1.48,0,0,0-.84-.28,1.39,1.39,0,0,0-1.16.52,3.58,3.58,0,0,0-.48,2.24v4.38h-1.44Z"/><path class="cls-1" d="M193.57,23.48H195v8.3h-1.45V30.62a3.5,3.5,0,0,1-2.84,1.4c-2.1,0-4-1.48-4-4.4a4,4,0,0,1,4-4.34,3.43,3.43,0,0,1,2.84,1.38Zm-5.4,4.14c0,1.78,1,3.12,2.72,3.12a2.84,2.84,0,0,0,2.76-3.1,2.81,2.81,0,0,0-2.76-3.08A2.76,2.76,0,0,0,188.17,27.62Z"/><path class="cls-1" d="M199.17,17.2V31.78h-1.44V17.2Z"/><path class="cls-1" d="M209.25,29.66a5,5,0,0,1-1,1.34,4,4,0,0,1-2.76,1,4,4,0,0,1-4.1-4.34c0-2.48,1.52-4.4,4-4.4a3.71,3.71,0,0,1,3.14,1.52,5.57,5.57,0,0,1,.78,3.12h-6.46a2.66,2.66,0,0,0,2.64,2.82,2.52,2.52,0,0,0,1.7-.6,3.31,3.31,0,0,0,.86-1.14Zm-1.42-2.94a2.48,2.48,0,0,0-2.44-2.16A2.52,2.52,0,0,0,203,26.72Z"/><path class="cls-1" d="M213,30.46h5.76v1.32h-8.64l6-7h-4.84V23.48H219Z"/><path class="cls-1" d="M226.68,23.48h1.44v8.3h-1.44V30.62a3.52,3.52,0,0,1-2.85,1.4c-2.1,0-4-1.48-4-4.4a4,4,0,0,1,4-4.34,3.44,3.44,0,0,1,2.85,1.38Zm-5.41,4.14c0,1.78,1,3.12,2.72,3.12a2.84,2.84,0,0,0,2.77-3.1A2.82,2.82,0,0,0,224,24.56,2.76,2.76,0,0,0,221.27,27.62Z"/><path class="cls-1" d="M101.32,23.14h6.83V16.66h2.72v6.48h6.82v2.49h-6.82v6.49h-2.72V25.63h-6.83Z"/><path class="cls-1" d="M255.93,20H272.3v2.49H255.93Zm0,5.81H272.3v2.48H255.93Z"/></g></g></svg>