<?xml version="1.0" encoding="utf-8"?>
<!-- Generator: Adobe Illustrator 24.2.3, SVG Export Plug-In . SVG Version: 6.00 Build 0)  -->
<svg version="1.1" id="Capa_1" xmlns="http://www.w3.org/2000/svg" xmlns:xlink="http://www.w3.org/1999/xlink" x="0px" y="0px"
	 viewBox="0 0 420 379" style="enable-background:new 0 0 420 379;" xml:space="preserve">
<style type="text/css">
	.st0{fill:#282C53;}
	.st1{fill:#29235C;}
	.st2{fill:#00A4CC;}
</style>
<g>
	<g>
		<g>
			<g>
				<g>
					<path class="st0" d="M209.9,38.2l130.4,130.4l-91.9,91.9l-35.2-35.2l5.3-5.3l28.7,28.7l1.1,1.1l1.1-1.1l79-79l1.1-1.1l-1.1-1.1
						L211,50l-1.1-1.1l-1.1,1.1l-76.6,76.4l-5.3-5.3L209.9,38.2"/>
				</g>
				<g>
					<path class="st0" d="M114.6,133.3l5.3,5.3l-28.8,28.8l-1.1,1.1l1.1,1.1l79,79l1.1,1.1l1.1-1.1l115.3-115.3l5.4,5.4L171.1,260.5
						l-91.9-91.9L114.6,133.3z"/>
				</g>
				<g>
					<path class="st0" d="M209.9-0.3l111,111l-15.8,15.8l-5.4-5.4l9.3-9.3l1.1-1.1l-1.1-1.1L211,11.5l-1.1-1.1l-1.1,1.1l-98.1,98.1
						l-1.1,1.1l1.1,1.1l95.7,95.8L201,213L98.9,110.7L209.9-0.3"/>
				</g>
				<g>
					<path class="st0" d="M209.9,77l14.8,14.8l-14.8,14.8l-14.8-14.8L209.9,77"/>
				</g>
			</g>
			<g>
				<path class="st1" d="M0,282.1v-0.4h11.5c1.9,0,3.6,0.3,5.1,0.8c1.5,0.5,2.7,1.2,3.7,2.1c1,0.9,1.7,1.9,2.2,3.1
					c0.5,1.1,0.7,2.3,0.7,3.6c0,1.2-0.2,2.4-0.7,3.5c-0.4,1.1-1.2,2.1-2.1,3c-1,0.9-2.2,1.6-3.8,2.1c-1.6,0.5-3.4,0.8-5.4,0.8
					c-0.7,0-1.9-0.1-3.8-0.3v12.1c0,2.5,1.3,3.8,3.8,3.9v0.4H0v-0.4c1.1,0,2-0.3,2.7-0.9c0.7-0.6,1.1-1.6,1.1-2.9V286
					c0-0.8-0.1-1.5-0.4-2s-0.6-0.9-0.9-1.2c-0.3-0.2-0.7-0.4-1.1-0.5c-0.4-0.1-0.7-0.2-0.9-0.2L0,282.1L0,282.1z M7.4,283v16.5
					c1.2,0.2,2.4,0.3,3.6,0.3c2.3,0,4.2-0.6,5.8-1.7c1.6-1.2,2.4-3.3,2.4-6.5c0-2.6-0.7-4.7-2.1-6.4c-1.4-1.7-3.5-2.5-6.3-2.5
					C9.6,282.7,8.5,282.8,7.4,283z"/>
				<path class="st1" d="M65.6,299.3c0,3.3-0.8,6.3-2.4,9.2c-1.6,2.8-3.8,5.1-6.7,6.8c-2.8,1.7-5.9,2.5-9.3,2.5
					c-3.4,0-6.6-0.8-9.4-2.5c-2.9-1.7-5.1-3.9-6.8-6.8c-1.6-2.8-2.5-5.9-2.5-9.3c0-2.6,0.5-5,1.5-7.3c1-2.3,2.3-4.2,4.1-5.9
					c1.7-1.7,3.8-3,6-3.9c2.3-0.9,4.6-1.4,7-1.4c2.4,0,4.7,0.4,6.9,1.3c2.2,0.9,4.2,2.2,5.9,3.8c1.7,1.7,3.1,3.6,4.1,5.9
					C65.1,294.1,65.6,296.6,65.6,299.3z M61.4,299.4c0-4.7-0.8-8.3-2.5-11c-1.6-2.6-3.6-4.4-5.7-5.3c-2.2-0.9-4.2-1.3-6.1-1.3
					c-1.5,0-3,0.2-4.6,0.7c-1.6,0.5-3.1,1.4-4.6,2.7c-1.5,1.3-2.7,3.1-3.7,5.4c-1,2.3-1.5,5.2-1.5,8.7c0,3,0.4,5.6,1.2,7.9
					c0.8,2.3,1.9,4.1,3.3,5.5c1.4,1.4,2.9,2.4,4.6,3.1c1.7,0.6,3.5,0.9,5.3,0.9c1.6,0,3.3-0.3,5-0.9c1.7-0.6,3.2-1.5,4.6-2.8
					c1.4-1.3,2.5-3.1,3.4-5.3C61,305.4,61.4,302.6,61.4,299.4z"/>
				<path class="st1" d="M71.7,282.2h-0.5v-0.5h12.1c2,0,3.6,0.3,5,0.9s2.4,1.4,3.2,2.3c0.8,0.9,1.3,1.9,1.6,2.9
					c0.3,1,0.5,2.1,0.5,3c0,1.3-0.3,2.5-0.8,3.7c-0.5,1.2-1.4,2.2-2.5,3c-1.1,0.8-2.5,1.4-4.1,1.7v0.1c2.1,1,4,3,5.8,6.1l3.2,5.4
					c1.4,2.4,2.6,3.9,3.4,4.6c0.9,0.6,1.7,1,2.6,1.1v0.4h-6.4c-0.3-0.3-0.5-0.7-0.8-1c-0.2-0.3-0.5-0.7-0.8-1
					c-0.2-0.2-0.4-0.6-0.7-1.1c-0.3-0.5-0.5-0.8-0.6-0.8l-4.2-6.9c-0.8-1.4-1.7-2.6-2.6-3.4c-0.9-0.9-1.7-1.5-2.5-1.9
					c-0.8-0.4-1.5-0.6-2.1-0.7c-0.6-0.1-1.3-0.1-2.2-0.1v12.8c0,2.5,1.3,3.8,3.8,3.9v0.4H71.2v-0.4c0.7,0,1.3-0.2,1.9-0.4
					c0.5-0.2,1-0.6,1.3-1.2c0.4-0.6,0.5-1.3,0.5-2.3V286c0-1.4-0.3-2.4-1-2.9C73.2,282.5,72.5,282.2,71.7,282.2z M78.6,298.8h2
					c2.1,0,3.8-0.3,5.2-0.9c1.3-0.6,2.3-1.5,2.9-2.6c0.6-1.1,0.9-2.5,0.9-4.1c0-1.4-0.3-2.7-0.8-4c-0.5-1.3-1.5-2.4-2.8-3.3
					c-1.3-0.9-3-1.3-5.2-1.3c-0.9,0-1.6,0.1-2.2,0.2V298.8z"/>
				<path class="st1" d="M150.3,280c-0.8,1.2-2,1.7-3.5,1.7h-19.1H124h-19.1c-0.6,0-1,0-1.4-0.1s-0.8-0.2-1.1-0.3
					c-0.3-0.1-0.5-0.3-0.7-0.5c-0.2-0.2-0.4-0.5-0.7-0.9h-0.4v8.6h0.4c0.2-2.3,0.9-3.8,2-4.4c1.1-0.7,2.6-1,4.3-1h7v29.5
					c0,1.4-0.4,2.4-1.1,2.9c-0.7,0.6-1.6,0.9-2.7,0.9v0.4h11.2v-0.4c-2.5-0.1-3.8-1.4-3.8-3.9v-29.5h8.5h1.9h5.1v29.5
					c0,1.4-0.4,2.4-1.1,2.9c-0.7,0.6-1.6,0.9-2.7,0.9v0.4h11.2v-0.4c-2.5-0.1-3.8-1.4-3.8-3.9v-29.5h7c1.7,0,3.1,0.3,4.3,1
					c1.2,0.7,1.8,2.2,2,4.4h0.4V280L150.3,280L150.3,280z"/>
				<path class="st1" d="M191.3,299.3c0,3.3-0.8,6.3-2.4,9.2c-1.6,2.8-3.8,5.1-6.7,6.8c-2.8,1.7-5.9,2.5-9.3,2.5
					c-3.4,0-6.6-0.8-9.4-2.5c-2.9-1.7-5.1-3.9-6.8-6.8c-1.6-2.8-2.5-5.9-2.5-9.3c0-2.6,0.5-5,1.5-7.3s2.3-4.2,4.1-5.9
					c1.7-1.7,3.8-3,6-3.9c2.3-0.9,4.6-1.4,7-1.4c2.4,0,4.7,0.4,6.9,1.3c2.2,0.9,4.2,2.2,5.9,3.8c1.7,1.7,3.1,3.6,4.1,5.9
					C190.8,294.1,191.3,296.6,191.3,299.3z M187.1,299.4c0-4.7-0.8-8.3-2.5-11c-1.6-2.6-3.6-4.4-5.7-5.3c-2.2-0.9-4.2-1.3-6.1-1.3
					c-1.5,0-3,0.2-4.6,0.7c-1.6,0.5-3.1,1.4-4.6,2.7c-1.5,1.3-2.7,3.1-3.7,5.4c-1,2.3-1.5,5.2-1.5,8.7c0,3,0.4,5.6,1.2,7.9
					c0.8,2.3,1.9,4.1,3.3,5.5c1.4,1.4,2.9,2.4,4.6,3.1c1.7,0.6,3.5,0.9,5.3,0.9c1.6,0,3.3-0.3,5-0.9c1.7-0.6,3.2-1.5,4.6-2.8
					c1.4-1.3,2.5-3.1,3.4-5.3C186.6,305.4,187.1,302.6,187.1,299.4z"/>
				<path class="st1" d="M227.7,316.8h-13.1v-0.4h0.5c0.9,0,1.7-0.3,2.3-1c0.6-0.6,1-1.6,1-2.9v-26.5c0-1.3-0.3-2.2-0.9-2.9
					c-0.6-0.7-1.4-1-2.4-1h-0.4v-0.4H226c1.5,0,2.9,0.2,4.2,0.7c1.3,0.4,2.3,1,3.2,1.8c0.9,0.8,1.6,1.6,2,2.6c0.5,1,0.7,2,0.7,3.2
					c0,2.1-0.7,3.8-2.1,5.1c-1.4,1.3-3.2,2.3-5.5,2.9v0.1c1,0.1,2.1,0.3,3,0.5c1,0.2,1.8,0.5,2.6,0.9c0.8,0.4,1.5,0.9,2.2,1.6
					c0.6,0.6,1.1,1.2,1.6,1.9c0.4,0.7,0.8,1.4,1,2.2s0.3,1.6,0.3,2.5c0,1.8-0.5,3.4-1.4,4.7c-1,1.3-2,2.3-3.2,3
					C233,316.3,230.7,316.8,227.7,316.8z M221.9,297.8h2.3c1.9,0,3.2-0.2,4-0.6c0.5-0.3,1-0.6,1.6-1c0.5-0.4,1.1-1.1,1.6-2.1
					c0.5-1,0.8-2.1,0.8-3.5c0-1-0.2-2-0.5-3c-0.3-1-0.8-1.8-1.5-2.5s-1.4-1.3-2.3-1.7c-0.9-0.4-1.8-0.6-2.9-0.6
					c-0.9,0-1.9,0.2-3.1,0.5L221.9,297.8L221.9,297.8z M225.5,298.9h-3.6v12.6c0,0.8,0.1,1.6,0.3,2.1c0.2,0.6,0.6,1,1.4,1.5
					c0.7,0.4,1.9,0.6,3.5,0.6c3.2,0,5.5-1.1,6.9-3.2c0.9-1.5,1.4-3.1,1.4-5c0-1.3-0.2-2.5-0.7-3.6c-0.5-1.1-1.1-2-1.9-2.7
					c-0.8-0.7-1.8-1.3-3.1-1.7C228.4,299.1,227,298.9,225.5,298.9z"/>
				<path class="st1" d="M244,316.4h0.5c0.9,0,1.6-0.3,2.3-1c0.7-0.7,1-1.6,1-2.9v-26.5c0-1.5-0.4-2.5-1.1-3
					c-0.7-0.6-1.6-0.9-2.6-0.9v-0.4h11.2v0.4c-1,0-1.9,0.3-2.6,0.9s-1.1,1.6-1.1,3.1v25.6c0,1.5,0.4,2.6,1.1,3.2
					c0.8,0.6,2,0.9,3.7,0.9h3c1.3,0,2.4-0.2,3.2-0.5c0.8-0.3,1.4-0.8,1.9-1.5s0.9-1.6,1.4-2.8h0.4l-1.3,5.8H244L244,316.4L244,316.4
					z"/>
				<path class="st1" d="M285.7,281.3l10.5,30.1c0.6,1.6,1.1,2.7,1.6,3.4s1,1.1,1.4,1.3s1,0.3,1.7,0.4v0.4h-11.5v-0.4
					c1.2,0,2.1-0.1,2.7-0.3c0.6-0.2,1-0.8,1-1.8c0-0.5-0.2-1.3-0.4-2.2c-0.1-0.1-0.1-0.2-0.1-0.3l-3.1-9.3h-12.1l-2.8,8.6
					c-0.4,1.2-0.6,2.1-0.6,2.8c0,1,0.3,1.6,0.7,2c0.5,0.3,1.2,0.5,2.1,0.5v0.4h-8.2v-0.4c1.2-0.1,2.1-0.6,2.8-1.3
					c0.7-0.8,1.3-2,1.8-3.6l9.9-30.2L285.7,281.3L285.7,281.3z M277.7,301.3h11.2l-5.7-16.7h-0.1L277.7,301.3z"/>
				<path class="st1" d="M341,281.7v0.4c-0.9,0.1-1.6,0.3-2.1,0.5c-0.5,0.2-0.9,0.7-1.2,1.4c-0.3,0.7-0.4,1.6-0.4,2.9v30.8H337
					l-26.9-30.1v21.6c0,1.8,0.1,3.1,0.2,4c0.1,0.9,0.3,1.5,0.6,1.9c0.6,0.8,1.6,1.3,3.1,1.3v0.4h-8.8v-0.4c1,0,1.7-0.3,2.3-0.6
					c0.5-0.4,0.9-1.1,1.2-2.1c0.2-1,0.3-2.5,0.3-4.5v-22.9l-1.2-1.3c-1-1.2-1.9-1.9-2.5-2.2c-0.6-0.3-1.4-0.5-2.3-0.7v-0.4h6.6
					l26.5,29.7v-22.7c0-1.7-0.1-3-0.2-3.8c-0.1-0.8-0.5-1.5-1.1-2c-0.6-0.5-1.5-0.8-2.7-0.8v-0.4L341,281.7L341,281.7z"/>
				<path class="st1" d="M377.3,289.6h-0.4c-0.3-1.7-1.1-3.2-2.4-4.4c-1.3-1.2-2.8-2.1-4.5-2.6c-1.7-0.5-3.3-0.8-4.8-0.8
					c-2,0-3.9,0.4-5.7,1.3c-1.8,0.9-3.3,2.1-4.6,3.6c-1.3,1.6-2.3,3.4-3,5.6c-0.7,2.2-1.1,4.5-1.1,7.1c0,2.5,0.3,4.8,1,6.8
					c0.7,2.1,1.7,3.9,3,5.5c1.3,1.6,2.9,2.7,4.6,3.5c1.7,0.8,3.7,1.2,5.8,1.2c1.8,0,3.7-0.4,5.9-1.1s4.1-1.9,5.8-3.6v1.4
					c-2.1,1.6-4.1,2.8-5.8,3.6c-1.7,0.8-3.9,1.1-6.6,1.1c-2.8,0-5.3-0.5-7.6-1.5c-2.3-1-4.2-2.4-5.8-4.1c-1.6-1.7-2.8-3.6-3.6-5.8
					c-0.8-2.1-1.2-4.3-1.2-6.6c0-3.4,0.8-6.6,2.5-9.5c1.7-2.9,4-5.3,6.8-7s6-2.6,9.4-2.6c2.1,0,4.3,0.3,6.7,0.9l2.5,0.7
					c0.5,0.1,0.9,0.1,1.2,0.1c0.6,0,1-0.1,1.2-0.3c0.2-0.2,0.4-0.5,0.5-1h0.4L377.3,289.6z"/>
				<path class="st1" d="M420,299.3c0,3.3-0.8,6.3-2.4,9.2c-1.6,2.8-3.8,5.1-6.7,6.8c-2.8,1.7-5.9,2.5-9.3,2.5
					c-3.4,0-6.6-0.8-9.4-2.5c-2.9-1.7-5.1-3.9-6.8-6.8c-1.6-2.8-2.5-5.9-2.5-9.3c0-2.6,0.5-5,1.5-7.3c1-2.3,2.3-4.2,4.1-5.9
					c1.7-1.7,3.8-3,6-3.9c2.3-0.9,4.6-1.4,7-1.4c2.4,0,4.7,0.4,6.9,1.3c2.2,0.9,4.2,2.2,5.9,3.8c1.7,1.7,3.1,3.6,4.1,5.9
					C419.5,294.1,420,296.6,420,299.3z M415.8,299.4c0-4.7-0.8-8.3-2.5-11c-1.6-2.6-3.6-4.4-5.7-5.3c-2.2-0.9-4.2-1.3-6.1-1.3
					c-1.5,0-3,0.2-4.6,0.7c-1.6,0.5-3.1,1.4-4.6,2.7c-1.5,1.3-2.7,3.1-3.7,5.4c-1,2.3-1.5,5.2-1.5,8.7c0,3,0.4,5.6,1.2,7.9
					c0.8,2.3,1.9,4.1,3.3,5.5c1.4,1.4,2.9,2.4,4.6,3.1c1.7,0.6,3.5,0.9,5.3,0.9c1.6,0,3.3-0.3,5-0.9c1.7-0.6,3.2-1.5,4.6-2.8
					c1.4-1.3,2.5-3.1,3.4-5.3C415.4,305.4,415.8,302.6,415.8,299.4z"/>
			</g>
		</g>
		<g>
			<polygon class="st2" points="419.9,331.2 5.1,331.2 0.1,336.3 414.9,336.3 			"/>
		</g>
	</g>
	<g>
		<path class="st1" d="M13.7,356.6c-1.6-3.1-4.5-3.2-5.2-3.2c-3.2,0-5,2.2-5,4.8c0,2.8,2,3.7,4.7,5c2.6,1.2,4,1.8,5.3,2.7
			c1.2,0.8,2.8,2.1,2.8,5c0,4.3-3.8,7.6-8.3,7.6c-3.4,0-5.2-1.6-6.2-2.7c-1-1.2-1.5-2.2-1.7-2.8l1.5-0.7c0.4,1,1,2,1.4,2.5
			c1.2,1.5,3.2,2.2,5,2.2c3.6,0,6.4-2.6,6.4-6c0-1.4-0.6-2.9-2.6-4.1c-0.8-0.4-2.3-1.2-4.5-2.3c-2.6-1.2-4-1.9-4.9-3.4
			c-0.6-1-0.8-1.9-0.8-2.9c0-3,2.1-6.4,6.8-6.4c2.7,0,5.1,1.2,6.5,3.7L13.7,356.6z"/>
		<path class="st1" d="M45.5,369.6H34.1l-3.6,8.5h-1.9l11.3-26.7L51,378.1h-1.9L45.5,369.6z M44.8,368l-5-12.3L34.8,368H44.8z"/>
		<path class="st1" d="M64.7,378.1v-26.1l22.4,22.7v-22.5h1.8v26.5L66.5,356v22.1L64.7,378.1L64.7,378.1z"/>
		<path class="st1" d="M126.3,352.2v24.3h7.4v1.6h-9.2v-25.9L126.3,352.2L126.3,352.2z"/>
		<path class="st1" d="M149.3,352.2v16.2c0,2.4,0.1,4,1.1,5.6c1.6,2.4,4.5,3,6.2,3c1.7,0,4.6-0.5,6.2-3c1-1.6,1.1-3.1,1.1-5.6v-16.2
			h1.8v16.2c0,2.8-0.2,4.7-1.5,6.6c-2,2.8-5.2,3.5-7.6,3.5s-5.6-0.7-7.6-3.5c-1.4-1.9-1.5-3.8-1.5-6.6v-16.2H149.3z"/>
		<path class="st1" d="M184.2,352.2v25.9h-1.8v-25.9H184.2z"/>
		<path class="st1" d="M213.2,356.6c-1.6-3.1-4.5-3.2-5.2-3.2c-3.2,0-5,2.2-5,4.8c0,2.8,2,3.7,4.7,5c2.6,1.2,4,1.8,5.3,2.7
			c1.2,0.8,2.8,2.1,2.8,5c0,4.3-3.8,7.6-8.3,7.6c-3.4,0-5.2-1.6-6.2-2.7c-1-1.2-1.5-2.2-1.7-2.8l1.5-0.7c0.4,1,1,2,1.4,2.5
			c1.2,1.5,3.2,2.2,5,2.2c3.6,0,6.4-2.6,6.4-6c0-1.4-0.6-2.9-2.6-4.1c-0.8-0.4-2.3-1.2-4.5-2.3c-2.6-1.2-4-1.9-4.9-3.4
			c-0.6-1-0.8-1.9-0.8-2.9c0-3,2.1-6.4,6.8-6.4c2.7,0,5.1,1.2,6.5,3.7L213.2,356.6z"/>
		<path class="st1" d="M251.8,365.8v12.3h-1.8v-25.9h5.2c4.4,0,7.8,2.3,7.8,6.8c0,4.3-3.2,6.8-7.8,6.8L251.8,365.8L251.8,365.8z
			 M251.8,364.2h3.5c3.5,0,5.8-2,5.8-5.2c0-3.2-2.3-5.2-6.1-5.2h-3.2L251.8,364.2L251.8,364.2z"/>
		<path class="st1" d="M303.8,365.2c0,7.4-6.1,13.3-13.9,13.3c-7.9,0-13.9-5.9-13.9-13.3s6.1-13.3,13.9-13.3
			C297.7,351.8,303.8,357.7,303.8,365.2z M301.9,365.2c0-6.6-5.1-11.8-12-11.8s-12,5.2-12,11.8c0,6.6,5.1,11.8,12,11.8
			C296.8,376.9,301.9,371.8,301.9,365.2z"/>
		<path class="st1" d="M323.5,353.7v24.3h-1.8v-24.3h-6.9v-1.6h15.6v1.6H323.5z"/>
		<path class="st1" d="M369.2,365.2c0,7.4-6.1,13.3-13.9,13.3c-7.9,0-13.8-5.9-13.8-13.3s6.1-13.3,13.8-13.3
			C363.1,351.8,369.2,357.7,369.2,365.2z M367.4,365.2c0-6.6-5.1-11.8-12-11.8s-12,5.2-12,11.8c0,6.6,5.1,11.8,12,11.8
			S367.4,371.8,367.4,365.2z"/>
		<path class="st1" d="M396.7,356.6c-1.6-3.1-4.5-3.2-5.2-3.2c-3.2,0-5,2.2-5,4.8c0,2.8,2,3.7,4.7,5c2.6,1.2,4,1.8,5.3,2.7
			c1.2,0.8,2.8,2.1,2.8,5c0,4.3-3.8,7.6-8.3,7.6c-3.4,0-5.2-1.6-6.2-2.7c-1-1.2-1.5-2.2-1.7-2.8l1.5-0.7c0.4,1,1,2,1.4,2.5
			c1.2,1.5,3.2,2.2,5,2.2c3.6,0,6.4-2.6,6.4-6c0-1.4-0.6-2.9-2.6-4.1c-0.8-0.4-2.3-1.2-4.5-2.3c-2.6-1.2-4-1.9-4.9-3.4
			c-0.6-1-0.8-1.9-0.8-2.9c0-3,2.1-6.4,6.8-6.4c2.7,0,5.1,1.2,6.5,3.7L396.7,356.6z"/>
		<path class="st1" d="M419.8,345.6l-4.2,5.2l-1.6-0.6l3.6-5.3L419.8,345.6z M416.5,352.2v25.9h-1.8v-25.9H416.5z"/>
	</g>
</g>
</svg>
