<?xml version="1.0" encoding="utf-8"?>
<!-- Generator: Adobe Illustrator 28.0.0, SVG Export Plug-In . SVG Version: 6.00 Build 0)  -->
<svg version="1.1" id="Capa_1" xmlns="http://www.w3.org/2000/svg" xmlns:xlink="http://www.w3.org/1999/xlink" x="0px" y="0px"
	 viewBox="0 0 275 205" style="enable-background:new 0 0 275 205;" xml:space="preserve">
<style type="text/css">
	.st0{fill:#FFFFFF;}
	.st1{fill:none;stroke:#FFFFFF;stroke-width:2;stroke-miterlimit:10;}
</style>
<g>
	<g>
		<path class="st0" d="M19.4,26.2h12.7V14h7.4v31.9h-7.4V32.4H19.4v13.5H12V14h7.4V26.2z"/>
		<path class="st0" d="M63.9,39.9h-12l-2.4,6h-7.6L54.6,14h6.7l12.6,31.9h-7.6L63.9,39.9z M61.9,34.2L58,23.5l-4,10.7H61.9z"/>
		<path class="st0" d="M92.7,21.8c-2.4-2.1-4.4-2.3-5.4-2.3s-2.2,0.1-3.1,1.1c-0.5,0.5-0.8,1.2-0.8,2s0.2,1.3,0.7,1.8
			c0.8,0.7,1.9,1,4,1.8l2.4,0.9c1.4,0.5,3.1,1.2,4.3,2.4c1.9,1.8,2.3,4.1,2.3,5.9c0,3.3-1.1,6.2-2.8,7.9c-2.8,3-6.9,3.2-9,3.2
			c-2.3,0-4.3-0.3-6.3-1.3c-1.6-0.8-3.5-2.3-4.7-3.5l3.8-5.3c0.8,0.8,2.1,1.9,3,2.4c1.2,0.8,2.5,1.1,4,1.1c1,0,2.3-0.2,3.3-1.1
			c0.6-0.5,1.1-1.4,1.1-2.6c0-1.1-0.4-1.7-1.1-2.3c-0.9-0.7-2.8-1.4-3.7-1.8l-2.6-0.9c-1.5-0.5-3.2-1.2-4.4-2.5
			c-1.7-1.8-1.9-4-1.9-5.5c0-2.8,0.9-5.2,2.8-7.2c2.2-2.3,4.9-2.9,7.9-2.9c2.2,0,5.7,0.4,9.5,3.2L92.7,21.8z"/>
		<path class="st0" d="M112.5,20.2v25.7h-7.4V20.2h-6.9V14h21.2v6.2H112.5z"/>
		<path class="st0" d="M138.7,39.9h-12l-2.4,6h-7.6L129.5,14h6.7l12.6,31.9h-7.6L138.7,39.9z M136.7,34.2l-3.9-10.7l-4,10.7H136.7z"
			/>
	</g>
	<g>
		<path class="st0" d="M60.8,120.6h-50l19.6-21.4C33.8,95.4,39,89,41.1,85.9c1.5-2.4,3.9-6.6,3.9-11.1c0-2.5-1-5-2.5-6.5
			c-1.3-1.2-3.4-1.9-6-1.9c-2.8,0-4.7,1-6,2.4c-1.8,2-2.7,5.5-2.7,8H12.7c0.5-5.7,2.7-12.2,6.8-16.4c3.1-3.3,8.7-6.8,18-6.8
			c9.5,0,14.6,3.9,17,6.2c3.5,3.5,6.1,8.9,6.1,15.7c0,5.8-1.8,10-4.9,14.4c-2.8,3.9-6.3,7.3-10.5,11.3l-6.9,6.6h22.5L60.8,120.6
			L60.8,120.6z"/>
		<path class="st0" d="M111.6,115.3c-3.8,3.7-9.5,6.8-17.5,6.8c-7.8,0-13.4-2.9-17.3-6.8c-6.4-6.3-9.4-16.2-9.4-27.3
			c0-11.3,3-21.3,9.4-27.4c3.9-3.8,9.5-6.8,17.3-6.8c8,0,13.7,3,17.5,6.8C118,66.8,121,76.8,121,88S118,109.1,111.6,115.3z
			 M88.1,69.2c-4.8,4.7-5.5,14.1-5.5,18.7c0,5.1,0.9,14.3,5.5,18.8c1.8,1.7,3.5,2.5,6.1,2.5c2.5,0,4.3-0.8,6.1-2.5
			c4.6-4.5,5.5-13.7,5.5-18.8c0-4.6-0.7-14-5.5-18.7c-1.8-1.7-3.5-2.5-6.1-2.5S89.9,67.5,88.1,69.2z"/>
		<path class="st0" d="M153.5,114.2h-11.4l-2.9,6.4h-4.4l13.3-28.2l12.6,28.2h-4.4L153.5,114.2z M151.9,110.4l-4-9l-4.1,9H151.9z"/>
		<path class="st0" d="M163,120.6V92.1l19.4,20.3V94h4.1v28.3L167.1,102v18.6H163z M182.2,88c-0.9,1.9-2.3,3.4-4.6,3.4
			c-1,0-1.5-0.2-2.2-0.5c-1.2-0.6-1.2-0.6-1.7-0.8c-0.4-0.2-1-0.4-1.5-0.4c-0.6,0-1.5,0.2-2,1.7l-2.4-1.6c0.4-0.6,1-1.6,1.7-2.2
			c1.1-0.9,2.2-1.1,2.8-1.1s1.4,0.2,2,0.4c0.3,0.1,0.8,0.3,1.8,0.8c0.5,0.2,1,0.6,1.6,0.6c0.9,0,1.8-0.7,2.2-2.1L182.2,88z"/>
		<path class="st0" d="M218.3,107.3c0,7.8-5.9,13.8-13.9,13.8s-13.9-6-13.9-13.8s5.9-13.8,13.9-13.8S218.3,99.5,218.3,107.3z
			 M214.2,107.3c0-5.9-4.1-10.1-9.8-10.1s-9.8,4.2-9.8,10.1s4.1,10.1,9.8,10.1S214.2,113.2,214.2,107.3z"/>
		<path class="st0" d="M233.9,99.9c-0.2-0.6-0.6-1.2-1.2-1.7c-0.8-0.7-1.7-1-2.9-1c-2.5,0-3.8,1.5-3.8,3.2c0,0.8,0.3,2.2,2.9,3.2
			l2.7,1.1c4.9,2,6.3,4.8,6.3,7.8c0,5.1-3.6,8.6-8.6,8.6c-3.1,0-4.9-1.2-6.3-2.7c-1.4-1.6-2.1-3.4-2.2-5.2l4-0.9
			c0,1.3,0.5,2.6,1.1,3.4c0.8,1,1.9,1.6,3.5,1.6c2.5,0,4.4-1.8,4.4-4.5s-2.1-3.8-3.8-4.6l-2.6-1.1c-2.2-0.9-5.4-2.8-5.4-6.8
			c0-3.6,2.8-7,7.8-7c2.9,0,4.5,1.1,5.4,1.8c0.7,0.6,1.5,1.6,2,2.7L233.9,99.9z"/>
	</g>
	<g>
		<path class="st0" d="M20.1,141.9c3.8,0,6.9,0.4,9.4,2.6c2.7,2.4,3.4,5.7,3.4,8c0,5.3-3.3,10.5-11.8,10.5h-3.6v16.2h-4.1v-37.4h6.7
			V141.9z M17.5,159.1h3.4c4.9,0,7.9-2.5,7.9-6.8c0-5.9-5.5-6.5-8.2-6.5h-3.1C17.5,145.8,17.5,159.1,17.5,159.1z"/>
		<path class="st0" d="M53.4,156h4v23.2h-4V176c-1.3,1.7-3.9,3.9-8,3.9c-5.9,0-11.3-4.1-11.3-12.3c0-8,5.4-12.2,11.3-12.2
			c4.5,0,6.9,2.5,8,3.9V156z M38.3,167.6c0,5,2.8,8.7,7.6,8.7c4.9,0,7.7-4.1,7.7-8.7c0-6-4.1-8.6-7.7-8.6
			C41.9,159.1,38.3,162,38.3,167.6z"/>
		<path class="st0" d="M64,156h4v2.5c0.4-0.6,2.1-3.1,5.3-3.1c1.2,0,2.6,0.4,3.6,1L75,160c-0.9-0.6-1.7-0.8-2.4-0.8
			c-1.6,0-2.6,0.7-3.2,1.5c-0.7,0.9-1.3,2.5-1.3,6.3v12.3h-4V156H64z"/>
		<path class="st0" d="M96,156h4v23.2h-4V176c-1.3,1.7-3.9,3.9-8,3.9c-5.9,0-11.3-4.1-11.3-12.3c0-8,5.4-12.2,11.3-12.2
			c4.5,0,6.9,2.5,8,3.9V156z M80.9,167.6c0,5,2.8,8.7,7.6,8.7c4.9,0,7.7-4.1,7.7-8.7c0-6-4.1-8.6-7.7-8.6
			C84.6,159.1,80.9,162,80.9,167.6z"/>
		<path class="st0" d="M122.5,192.2h-4V156h4v3.2c2.7-3.4,6.3-3.8,8-3.8c7.3,0,11.3,6,11.3,12.3c0,6.4-4.1,12.2-11.1,12.2
			c-3.8,0-6.4-1.7-8.1-3.9L122.5,192.2L122.5,192.2z M137.6,167.8c0-5.7-3.9-8.7-7.6-8.7s-7.7,3.1-7.7,8.7c0,4.8,3,8.6,7.8,8.6
			C134.8,176.4,137.6,172.5,137.6,167.8z"/>
		<path class="st0" d="M164.6,156h4v23.2h-4V176c-1.3,1.7-3.9,3.9-8,3.9c-5.9,0-11.3-4.1-11.3-12.3c0-8,5.4-12.2,11.3-12.2
			c4.5,0,6.9,2.5,8,3.9V156z M149.5,167.6c0,5,2.8,8.7,7.6,8.7c4.9,0,7.7-4.1,7.7-8.7c0-6-4.1-8.6-7.7-8.6
			C153.2,159.1,149.5,162,149.5,167.6z"/>
		<path class="st0" d="M193,156h4v22.7c0,2.5,0,6.1-2.2,9.1c-1.7,2.4-4.9,4.3-9.3,4.3c-4,0-6.7-1.6-8.3-3.1c-1.6-1.6-3-4.1-3-7.5h4
			c0,2,0.8,3.7,1.8,4.8c1.7,1.8,3.8,2.2,5.6,2.2c2.9,0,4.8-1,6.2-3.2c1.2-1.9,1.3-4,1.3-5.9V176c-1.3,1.7-3.9,3.9-8,3.9
			c-3.4,0-6.2-1.3-8-3.1c-1.6-1.6-3.4-4.5-3.4-9.2c0-4.5,1.7-7.3,3.4-9c2-1.9,4.8-3.1,8-3.1c3.4,0,6.1,1.5,8,3.9V156H193z
			 M180.2,161.3c-2,2-2.4,4.5-2.4,6.4c0,2,0.4,4.8,2.6,6.8c1.3,1.2,2.9,1.9,5,1.9s3.8-0.7,5.1-2c1.6-1.5,2.6-4,2.6-6.7
			s-1-5.2-2.5-6.6c-1.3-1.3-3.2-2.1-5.3-2.1C183,159.1,181.3,160.1,180.2,161.3z"/>
		<path class="st0" d="M221.3,156h4v23.2h-4V176c-1.3,1.7-3.9,3.9-8,3.9c-5.9,0-11.3-4.1-11.3-12.3c0-8,5.4-12.2,11.3-12.2
			c4.5,0,6.9,2.5,8,3.9V156z M206.2,167.6c0,5,2.8,8.7,7.6,8.7c4.9,0,7.7-4.1,7.7-8.7c0-6-4.1-8.6-7.7-8.6
			C209.8,159.1,206.2,162,206.2,167.6z"/>
		<path class="st0" d="M231.8,156h4v2.5c0.4-0.6,2.1-3.1,5.3-3.1c1.2,0,2.6,0.4,3.6,1l-1.9,3.6c-0.9-0.6-1.7-0.8-2.4-0.8
			c-1.6,0-2.6,0.7-3.2,1.5c-0.7,0.9-1.3,2.5-1.3,6.3v12.3h-4V156H231.8z"/>
	</g>
	<line class="st1" x1="8.5" y1="132.5" x2="262" y2="132.5"/>
</g>
</svg>
