<svg xmlns="http://www.w3.org/2000/svg" viewBox="0 0 130.1 55.56"><defs><style>.cls-1{fill:#f6f4ef;}</style></defs><title>promo-msi_1</title><g id="Capa_2" data-name="Capa 2"><g id="Capa_1-2" data-name="Capa 1"><rect class="cls-1" y="34.59" width="130.1" height="0.72"/><path class="cls-1" d="M16.3,0h5.77V19.58h2.71v5.35H22.07v6.25H16.4V24.93H3.13V19.58Zm.1,19.58V9.39L9.46,19.58Z"/><path class="cls-1" d="M50.84,14.69A9.19,9.19,0,0,1,54,18.09a9.33,9.33,0,0,1,1.13,4.5,9.47,9.47,0,0,1-1.31,4.86,8.6,8.6,0,0,1-3.53,3.37,12.39,12.39,0,0,1-5.64,1.12,13.22,13.22,0,0,1-5.85-1.08,8.34,8.34,0,0,1-3.48-3.29,9.68,9.68,0,0,1-1.3-5,9.13,9.13,0,0,1,1.05-4.37,10.48,10.48,0,0,1,3.13-3.53,9.93,9.93,0,0,1-2.06-2.95,8,8,0,0,1-.69-3.29,8.35,8.35,0,0,1,1.15-4.33,7.91,7.91,0,0,1,3.21-3A10.18,10.18,0,0,1,44.62,0a9.73,9.73,0,0,1,4.69,1.1A8.06,8.06,0,0,1,52.5,4.2a8.51,8.51,0,0,1,1.17,4.33,7.42,7.42,0,0,1-.61,3A11.8,11.8,0,0,1,50.84,14.69Zm-6.18,3.09a5.08,5.08,0,0,0-3.52,1.27,3.93,3.93,0,0,0-1.42,3,4.1,4.1,0,0,0,1.34,3.11,4.93,4.93,0,0,0,3.54,1.27,5.06,5.06,0,0,0,3.52-1.18,4,4,0,0,0,1.31-3.07,4.14,4.14,0,0,0-1.36-3.16A4.8,4.8,0,0,0,44.66,17.78Zm-.23-12.2a3.19,3.19,0,0,0-2.35.94,3.31,3.31,0,0,0-.92,2.4,3.42,3.42,0,0,0,1,2.46,3.27,3.27,0,0,0,2.4,1,3.23,3.23,0,0,0,2.41-1,3.47,3.47,0,0,0,.94-2.52,3.14,3.14,0,0,0-1-2.38A3.46,3.46,0,0,0,44.43,5.58Z"/><path class="cls-1" d="M59.42,31l2.49-17.4h.29l7.07,14.27,7-14.27h.28L79.05,31h-1.7L75.63,18.52,69.48,31H69L62.81,18.42,61.1,31Z"/><path class="cls-1" d="M82.48,13.56h10v1.7H84.22v5.45h8.16v1.71H84.22v6.83h8.16V31h-9.9Z"/><path class="cls-1" d="M93.66,27.71l1.47-.88q1.58,2.87,3.61,2.87a3.35,3.35,0,0,0,1.64-.41,2.84,2.84,0,0,0,1.18-1.09,2.91,2.91,0,0,0,.4-1.45,3,3,0,0,0-.59-1.72,14.52,14.52,0,0,0-3-2.79,15.21,15.21,0,0,1-2.71-2.38,4.3,4.3,0,0,1-.92-2.66,4.1,4.1,0,0,1,.54-2.07,3.87,3.87,0,0,1,1.53-1.47A4.4,4.4,0,0,1,99,13.12a4.66,4.66,0,0,1,2.3.61A7.87,7.87,0,0,1,103.54,16l-1.42,1.08a6.82,6.82,0,0,0-1.67-1.72,2.93,2.93,0,0,0-1.51-.41,2.38,2.38,0,0,0-1.72.64,2.1,2.1,0,0,0-.67,1.57,2.63,2.63,0,0,0,.24,1.1,4.2,4.2,0,0,0,.86,1.16q.34.33,2.25,1.74a12.51,12.51,0,0,1,3.1,3,4.74,4.74,0,0,1,.84,2.61A4.44,4.44,0,0,1,102.4,30a4.82,4.82,0,0,1-3.49,1.39A5.16,5.16,0,0,1,96,30.55,7.71,7.71,0,0,1,93.66,27.71Z"/><path class="cls-1" d="M107.53,13.56h10v1.7h-8.23v5.45h8.15v1.71h-8.15v6.83h8.15V31h-9.89Z"/><path class="cls-1" d="M118.7,27.71l1.48-.88q1.56,2.87,3.61,2.87a3.35,3.35,0,0,0,1.64-.41,2.87,2.87,0,0,0,1.17-1.09,2.81,2.81,0,0,0,.4-1.45,2.91,2.91,0,0,0-.59-1.72,14.26,14.26,0,0,0-3-2.79,15.6,15.6,0,0,1-2.71-2.38,4.36,4.36,0,0,1-.92-2.66,4,4,0,0,1,.55-2.07,3.87,3.87,0,0,1,1.53-1.47,4.36,4.36,0,0,1,2.14-.54,4.63,4.63,0,0,1,2.3.61A7.88,7.88,0,0,1,128.59,16l-1.42,1.08a7,7,0,0,0-1.67-1.72,3,3,0,0,0-1.51-.41,2.36,2.36,0,0,0-1.72.64,2.06,2.06,0,0,0-.67,1.57,2.63,2.63,0,0,0,.24,1.1,3.83,3.83,0,0,0,.86,1.16q.35.33,2.25,1.74a12.61,12.61,0,0,1,3.09,3,4.74,4.74,0,0,1,.84,2.61A4.46,4.46,0,0,1,127.45,30a4.84,4.84,0,0,1-3.5,1.39,5.16,5.16,0,0,1-2.87-.84A7.82,7.82,0,0,1,118.7,27.71Z"/><path class="cls-1" d="M5.89,52.43l1.26-.76c.89,1.63,1.91,2.45,3.07,2.45a2.94,2.94,0,0,0,1.4-.35,2.44,2.44,0,0,0,1-.93A2.39,2.39,0,0,0,13,51.6a2.55,2.55,0,0,0-.5-1.46,11.76,11.76,0,0,0-2.54-2.37,13.06,13.06,0,0,1-2.3-2,3.66,3.66,0,0,1-.79-2.26,3.54,3.54,0,0,1,.46-1.77A3.36,3.36,0,0,1,8.6,40.46,3.71,3.71,0,0,1,10.43,40a3.93,3.93,0,0,1,2,.52,6.73,6.73,0,0,1,1.93,1.91l-1.21.92a5.61,5.61,0,0,0-1.42-1.46,2.4,2.4,0,0,0-1.28-.36,2,2,0,0,0-1.47.55,1.78,1.78,0,0,0-.57,1.34,2.32,2.32,0,0,0,.2.93,3.61,3.61,0,0,0,.74,1c.19.19.83.68,1.91,1.48a10.92,10.92,0,0,1,2.64,2.53,4.1,4.1,0,0,1,.71,2.22,3.75,3.75,0,0,1-1.22,2.8,4.14,4.14,0,0,1-3,1.19,4.36,4.36,0,0,1-2.44-.72A6.7,6.7,0,0,1,5.89,52.43Z"/><path class="cls-1" d="M18,39.72a1.09,1.09,0,0,1,.82.34,1.13,1.13,0,0,1,.34.83,1.09,1.09,0,0,1-.34.81,1.12,1.12,0,0,1-1.63,0,1.09,1.09,0,0,1-.34-.81,1.13,1.13,0,0,1,.34-.83A1.1,1.1,0,0,1,18,39.72Zm-.7,4.51h1.41v11H17.25Z"/><path class="cls-1" d="M21.59,44.23H23v2a5.86,5.86,0,0,1,1.87-1.68A4.65,4.65,0,0,1,27.11,44a3.94,3.94,0,0,1,2.18.62,3.76,3.76,0,0,1,1.4,1.68,9,9,0,0,1,.46,3.3v5.64H29.74V50a13.2,13.2,0,0,0-.16-2.53,2.76,2.76,0,0,0-.94-1.63,2.81,2.81,0,0,0-1.81-.55,3.47,3.47,0,0,0-2.29.84,4,4,0,0,0-1.34,2.1,14.91,14.91,0,0,0-.2,3v4H21.59Z"/><path class="cls-1" d="M39.86,40.44h1.48V55.25H39.86Z"/><path class="cls-1" d="M44.5,44.3h1.41v2a5.86,5.86,0,0,1,1.87-1.68A4.54,4.54,0,0,1,50,44a3.94,3.94,0,0,1,2.18.62,3.76,3.76,0,0,1,1.4,1.68,9,9,0,0,1,.46,3.3v5.63H52.65V50a13.2,13.2,0,0,0-.16-2.53,2.76,2.76,0,0,0-.94-1.63,2.81,2.81,0,0,0-1.81-.55,3.47,3.47,0,0,0-2.29.84,4,4,0,0,0-1.34,2.1,14.84,14.84,0,0,0-.2,3v4H44.5Z"/><path class="cls-1" d="M58.3,40.23h1.41V44.3H62v1.22H59.71v9.73H58.3V45.52H56.38V44.3H58.3Z"/><path class="cls-1" d="M73.29,51.62l1.18.62a6.47,6.47,0,0,1-1.35,1.86,5.4,5.4,0,0,1-1.72,1.07,6.13,6.13,0,0,1-2.17.37A5.25,5.25,0,0,1,65,53.78a6,6,0,0,1-.23-7.69A5.23,5.23,0,0,1,69.15,44a5.43,5.43,0,0,1,4.48,2.12,6,6,0,0,1,1.21,3.75H65A4.48,4.48,0,0,0,66.2,53a3.91,3.91,0,0,0,2.91,1.22A4.79,4.79,0,0,0,70.74,54a4.24,4.24,0,0,0,1.35-.78A6.41,6.41,0,0,0,73.29,51.62Zm0-2.95a4.7,4.7,0,0,0-.83-1.8A3.93,3.93,0,0,0,71,45.78a4.47,4.47,0,0,0-1.87-.41,4,4,0,0,0-2.77,1,4.76,4.76,0,0,0-1.28,2.27Z"/><path class="cls-1" d="M76.93,44.3h1.44v1.6a5,5,0,0,1,1.36-1.41A2.62,2.62,0,0,1,81.22,44a2.57,2.57,0,0,1,1.25.37l-.74,1.19a1.87,1.87,0,0,0-.74-.19,2,2,0,0,0-1.36.58,3.6,3.6,0,0,0-1,1.79,17.66,17.66,0,0,0-.26,3.79v3.7H76.93Z"/><path class="cls-1" d="M92.89,51.62l1.19.62a6.47,6.47,0,0,1-1.35,1.86A5.45,5.45,0,0,1,91,55.17a6.11,6.11,0,0,1-2.16.37,5.26,5.26,0,0,1-4.2-1.76,6,6,0,0,1-1.51-4,5.89,5.89,0,0,1,1.28-3.72A5.24,5.24,0,0,1,88.76,44a5.43,5.43,0,0,1,4.47,2.12,5.93,5.93,0,0,1,1.21,3.75H84.58A4.52,4.52,0,0,0,85.8,53a3.92,3.92,0,0,0,2.92,1.22A4.73,4.73,0,0,0,90.34,54a4.24,4.24,0,0,0,1.35-.78A6.41,6.41,0,0,0,92.89,51.62Zm0-2.95a4.7,4.7,0,0,0-.82-1.8,4,4,0,0,0-1.43-1.09,4.42,4.42,0,0,0-1.86-.41,4,4,0,0,0-2.78,1,4.76,4.76,0,0,0-1.28,2.27Z"/><path class="cls-1" d="M102.57,45.5l-.9.94a3.24,3.24,0,0,0-2.21-1.1,1.69,1.69,0,0,0-1.18.45,1.38,1.38,0,0,0-.49,1.06,1.56,1.56,0,0,0,.41,1A5.45,5.45,0,0,0,99.89,49,6.5,6.5,0,0,1,102,50.59a2.87,2.87,0,0,1,.55,1.72,3.09,3.09,0,0,1-.94,2.29,3.28,3.28,0,0,1-2.37.94,4,4,0,0,1-1.81-.42A3.89,3.89,0,0,1,96,54l.89-1a3.09,3.09,0,0,0,2.29,1.22,2,2,0,0,0,1.44-.55,1.67,1.67,0,0,0,.6-1.28,1.63,1.63,0,0,0-.4-1.07,6.23,6.23,0,0,0-1.77-1.17,5.59,5.59,0,0,1-2-1.51,2.82,2.82,0,0,1-.54-1.7,2.78,2.78,0,0,1,.86-2.08A2.94,2.94,0,0,1,99.53,44,4.43,4.43,0,0,1,102.57,45.5Z"/><path class="cls-1" d="M114.29,51.62l1.19.62a6.47,6.47,0,0,1-1.35,1.86,5.4,5.4,0,0,1-1.72,1.07,6.13,6.13,0,0,1-2.17.37,5.24,5.24,0,0,1-4.19-1.76,5.92,5.92,0,0,1-1.51-4,5.83,5.83,0,0,1,1.28-3.72A5.23,5.23,0,0,1,110.16,44a5.4,5.4,0,0,1,4.47,2.12,5.88,5.88,0,0,1,1.21,3.75H106A4.43,4.43,0,0,0,107.21,53a3.88,3.88,0,0,0,2.91,1.22,4.79,4.79,0,0,0,1.63-.29,4.19,4.19,0,0,0,1.34-.78A6.41,6.41,0,0,0,114.29,51.62Zm0-2.95a4.55,4.55,0,0,0-.82-1.8,3.93,3.93,0,0,0-1.42-1.09,4.5,4.5,0,0,0-1.87-.41,4,4,0,0,0-2.77,1,4.68,4.68,0,0,0-1.28,2.27Z"/><path class="cls-1" d="M124,45.5l-.91.94a3.22,3.22,0,0,0-2.21-1.1,1.66,1.66,0,0,0-1.17.45,1.38,1.38,0,0,0-.49,1.06,1.55,1.55,0,0,0,.4,1A5.52,5.52,0,0,0,121.3,49a6.43,6.43,0,0,1,2.13,1.57,2.88,2.88,0,0,1,.56,1.72A3.1,3.1,0,0,1,123,54.6a3.25,3.25,0,0,1-2.37.94,4.1,4.1,0,0,1-1.81-.42A3.85,3.85,0,0,1,117.44,54l.88-1a3.09,3.09,0,0,0,2.29,1.22,2,2,0,0,0,1.44-.55,1.67,1.67,0,0,0,.6-1.28,1.62,1.62,0,0,0-.39-1.07,6.48,6.48,0,0,0-1.78-1.17,5.68,5.68,0,0,1-2-1.51,2.88,2.88,0,0,1-.53-1.7,2.77,2.77,0,0,1,.85-2.08,3,3,0,0,1,2.15-.82A4.45,4.45,0,0,1,124,45.5Z"/></g></g></svg>