<svg xmlns="http://www.w3.org/2000/svg" viewBox="0 0 45.86 36.2"><defs><style>.cls-1{fill:#fff;}</style></defs><g id="Capa_2" data-name="Capa 2"><g id="Capa_1-2" data-name="Capa 1"><path class="cls-1" d="M6.38,36.2A21.22,21.22,0,1,1,44.16,22.93,21.09,21.09,0,0,1,39.49,36.2h2.14A22.93,22.93,0,1,0,0,22.93,22.76,22.76,0,0,0,4.24,36.2Z"/><path class="cls-1" d="M27.58,7.62c-.47.58-.91,1.18-1.28,1.74a5.52,5.52,0,0,0-1.19-1.84c.28-1.7.58-1.91.58-1.93.53,0,1.25.85,1.89,2"/><path class="cls-1" d="M29.23,9.47a.7.7,0,0,0-.41-.28h-.11a.75.75,0,0,0-.39.1,1.27,1.27,0,0,0-.22.13,5.27,5.27,0,0,0-1.05,1.12l-.17.23a1.46,1.46,0,0,0-.07-.19c0-.11-.08-.23-.13-.35A19.43,19.43,0,0,1,28,8.41l.27-.35c.1-.11.19-.23.28-.34,1-1.13,1.9-2,2.26-2h0A.45.45,0,0,1,31,6a6.61,6.61,0,0,1-.1,3c-.49.28-1,.58-1.43.88l-.08.05"/><path class="cls-1" d="M23.89,7.8a11.71,11.71,0,0,0-1.52,4.83l-.43-.05c-.11-.38-.2-.75-.27-1.09-.38-1.81.49-5.4,1-5.57.33,0,.79.35,1.21,1.88"/><path class="cls-1" d="M32.83,12.13h0l-.09.18a.2.2,0,0,0,0-.11.61.61,0,0,0-.16-.31c-.13-.13-.51-.5-2.52.44,0-.38-.11-.75-.17-1.09s-.1-.42-.15-.62l.88-.56.5-.3.48-.27c1.18-.64,2-.94,2.24-.79.4.37-.34,2.1-1,3.42"/><path class="cls-1" d="M35.21,11.79a10.66,10.66,0,0,1-3,4.67c-.3.21-.77.47-1.3.76A13.62,13.62,0,0,0,32.48,14a2.46,2.46,0,0,1,.16-.58,1.77,1.77,0,0,0,0-.2l.09-.06c.23-.16.46-.3.67-.43h0a9.66,9.66,0,0,1,1.77-.9"/><path class="cls-1" d="M26.33,11.61a12.63,12.63,0,0,0-1,1.9,10.06,10.06,0,0,0-2.21-.73A12.67,12.67,0,0,1,24.1,9a2,2,0,0,1,.2-.43l.13-.24h0a1.31,1.31,0,0,1,.18-.23,0,0,0,0,1,0,0,2.12,2.12,0,0,1,.22.25,1.4,1.4,0,0,1,.12.18,10.31,10.31,0,0,1,.83,1.62h0a4.89,4.89,0,0,1,.19.46h0l0,.06c.06.15.11.3.17.46,0,0,0,0,0,0s.09.28.14.43"/><path class="cls-1" d="M32,12.51a3.54,3.54,0,0,1-.2,1.06l-.16.47a10.21,10.21,0,0,1-1.8,3.25c-.06-.1-.13-.19-.2-.29A5.61,5.61,0,0,0,30,15.9a9.81,9.81,0,0,0,.09-2.72c.19-.1.37-.18.53-.25A5,5,0,0,1,32,12.51"/><path class="cls-1" d="M29.26,15.72a3.43,3.43,0,0,1-.2.59,10.44,10.44,0,0,0-3-2.45,12.2,12.2,0,0,1,.58-1.23,15.75,15.75,0,0,1,.89-1.42,8.59,8.59,0,0,1,.66-.83,1.62,1.62,0,0,1,.37-.35l.06,0a1.38,1.38,0,0,1,.15.3h0v0c0,.11.08.23.12.37h0c0,.13.07.26.1.41l0,.14c.06.25.11.54.15.83l.19,2a7.21,7.21,0,0,1-.12,1.69"/><path class="cls-1" d="M29.46,35c1.64-2.4,1.91-5.88,1.91-9.11a21.41,21.41,0,0,0-.2-3l0,.18a17,17,0,0,1-2.54,7.07A10.75,10.75,0,0,0,26.83,35H26a10.78,10.78,0,0,1,1.61-4.77l-.65-1,.72.26.08-1.12.43.89A16,16,0,0,0,30.35,23a10.29,10.29,0,0,0-.81-5h0A8.75,8.75,0,0,0,28,16a8,8,0,0,1,.33,2.61,22.09,22.09,0,0,1-2,9.12A15.24,15.24,0,0,0,24.81,35H24a16.1,16.1,0,0,1,1.58-7.57,21.4,21.4,0,0,0,1.93-8.65l-.3-.28h0v0l-.6-.59.6,0,0-1.12.3.44A4,4,0,0,0,26.57,15a10,10,0,0,1-2.43,0,6.86,6.86,0,0,1-.3,2.17,30.35,30.35,0,0,1-1.6,3.65,25.22,25.22,0,0,0-1.92,4.6l.51-.19-.42.61,1.14.12-1.48.65a10.42,10.42,0,0,0-.14,1.69A22.69,22.69,0,0,0,21.11,35h-.82a23.1,23.1,0,0,1-1.16-6.73,11.45,11.45,0,0,1,.28-2.52l0-.05a23.34,23.34,0,0,1,2.09-5.28,30.21,30.21,0,0,0,1.57-3.54,6.62,6.62,0,0,0,.26-2l-.26-.05c-.67-.09-1.29-.21-1.83-.33a17.13,17.13,0,0,0-3.78,4.64l0,0a12.46,12.46,0,0,0-1,2.49,23.52,23.52,0,0,0-.66,9.51v0c0,.28.06.55.09.79a29,29,0,0,0,.5,3h-.82c-.2-1-.4-2.08-.48-2.94l0-.31-1-.74h.77L14.46,30l.45.43a23.43,23.43,0,0,1,.77-8.9,13.11,13.11,0,0,1,.86-2.25l-.46-.92.62.32L17,17.58l.16.55a18.27,18.27,0,0,1,3.18-3.85,2.67,2.67,0,0,1-.82-.37c-4.33,1.07-7,5.56-7,12,0,4.24.64,7.16,2,9.11H8.63V36.2H37.24V35Z"/></g></g></svg>