<svg xmlns="http://www.w3.org/2000/svg" viewBox="0 0 42.74 33.74"><defs><style>.cls-1{fill:#fff;}</style></defs><g id="Capa_2" data-name="Capa 2"><g id="Capa_1-2" data-name="Capa 1"><path class="cls-1" d="M21.37,0A21.36,21.36,0,0,0,4,33.74h2a19.78,19.78,0,1,1,30.86,0h2A21.36,21.36,0,0,0,21.37,0"/><path class="cls-1" d="M20.75,2.46v0Z"/><path class="cls-1" d="M21.8,2.46h0s0,0,0,0Z"/><path class="cls-1" d="M35.28,15a14.27,14.27,0,0,0-7-2,14.42,14.42,0,0,0-7.17,1.77,15.34,15.34,0,0,0-6.84-1.62H14A15.28,15.28,0,0,0,7,15l-.46.25V32.57H18.1a4.45,4.45,0,0,0,3,1.17h.13a4.46,4.46,0,0,0,2.85-1.17H35.71V15.22Zm-1.34,1.28V28.14a14,14,0,0,0-5.56-1.34A14.24,14.24,0,0,0,22,28.14V16.25a12.16,12.16,0,0,1,6.22-1.52,12.51,12.51,0,0,1,5.73,1.52M14,14.88a13.63,13.63,0,0,1,6.18,1.4V28.15a14.23,14.23,0,0,0-12,0V16.27A13.56,13.56,0,0,1,14,14.88m9.25,15.91-.26.3a2.69,2.69,0,0,1-1.87.88,2.79,2.79,0,0,1-2-.88l-.27-.3H8.26v-.66a12.52,12.52,0,0,1,12.38.24l.46.27.46-.27a12.24,12.24,0,0,1,6.77-1.79,12.39,12.39,0,0,1,5.61,1.54v.67Z"/><polygon class="cls-1" points="35.96 14.18 20.98 6.63 6.24 14.17 6.24 12.18 20.98 4.64 35.96 12.18 35.96 14.18"/></g></g></svg>