<svg xmlns="http://www.w3.org/2000/svg" viewBox="0 0 42.74 33.74"><defs><style>.cls-1{fill:#fff;}</style></defs><g id="Capa_2" data-name="Capa 2"><g id="Capa_1-2" data-name="Capa 1"><path class="cls-1" d="M5.94,33.74a19.78,19.78,0,1,1,30.86,0h2A21.37,21.37,0,1,0,0,21.37,21.22,21.22,0,0,0,4,33.74Z"/><path class="cls-1" d="M34.1,11.9a.9.9,0,0,0-.89-.84H28.35V9.73c0-.08,0-.17,0-.25a5.66,5.66,0,0,0-10.71-2.3,5.64,5.64,0,0,0-3.13,3.88H12.2a.91.91,0,0,0-.9.84l-.06.75h3.11v1H9.53a.91.91,0,0,0-.9.84L7.24,32.77a.9.9,0,0,0,.9,1h23.8a.9.9,0,0,0,.89-1l-.12-1.61H34.6a.9.9,0,0,0,.9-1ZM22.69,5.84A4.27,4.27,0,0,1,27,10.11v1.33H25.61a5.67,5.67,0,0,0-5.43-4.79,4.25,4.25,0,0,1,2.51-.81m-4.28,4.27a4.21,4.21,0,0,1,.46-1.91A4.32,4.32,0,0,1,20,8a4.27,4.27,0,0,1,4.18,3.4H18.41ZM17,9.25c0,.08,0,.16,0,.23s0,.17,0,.25v1.33H15.93A4.24,4.24,0,0,1,17,9.25m-1.29,3.4h8.54v1H15.75ZM10,15.93a.78.78,0,0,1,.79-.7h3.61V18.4a1.31,1.31,0,1,0,2,1.1,1.29,1.29,0,0,0-.64-1.12V15.23h8.54V18.4a1.32,1.32,0,1,0,1.39,0V15.23h3.65a.79.79,0,0,1,.8.7l1.08,13.48H8.87ZM30.57,32.16H9.51a.77.77,0,0,1-.79-.82l0-.5H31.32l0,.5a.78.78,0,0,1-.79.82m.87-17.68a.91.91,0,0,0-.9-.84H25.68v-1H32a.77.77,0,0,1,.79.7l1.08,13.48H32.38Zm1.79,15.1h-.64l-.1-1.32H34l0,.5a.78.78,0,0,1-.8.82"/></g></g></svg>