<svg xmlns="http://www.w3.org/2000/svg" viewBox="0 0 42.74 33.74"><defs><style>.cls-1{fill:#fff;}</style></defs><g id="Capa_2" data-name="Capa 2"><g id="Capa_1-2" data-name="Capa 1"><path class="cls-1" d="M21.37,0A21.36,21.36,0,0,0,4,33.74h2a19.78,19.78,0,1,1,30.86,0h2A21.36,21.36,0,0,0,21.37,0"/><path class="cls-1" d="M13.72,33.74h0a2.34,2.34,0,0,1-2.33-2.33v-16a2.33,2.33,0,0,1,4.66,0v16a2.34,2.34,0,0,1-2.33,2.33"/><path class="cls-1" d="M8.33,31.79h0A1.89,1.89,0,0,1,6.44,29.9v-13a1.89,1.89,0,0,1,3.78,0v13a1.9,1.9,0,0,1-1.89,1.89"/><path class="cls-1" d="M5.91,26.08h0a1.6,1.6,0,0,1-1.6-1.6V22.31a1.6,1.6,0,1,1,3.19,0v2.17a1.6,1.6,0,0,1-1.59,1.6"/><path class="cls-1" d="M29,13.05h0a2.34,2.34,0,0,1,2.33,2.33v16a2.33,2.33,0,0,1-4.66,0v-16A2.34,2.34,0,0,1,29,13.05"/><path class="cls-1" d="M34.42,15h0a1.89,1.89,0,0,1,1.89,1.89v13a1.89,1.89,0,0,1-3.78,0v-13A1.89,1.89,0,0,1,34.42,15"/><path class="cls-1" d="M36.84,20.71h0a1.6,1.6,0,0,1,1.59,1.6v2.17a1.6,1.6,0,1,1-3.19,0V22.31a1.6,1.6,0,0,1,1.6-1.6"/><path class="cls-1" d="M27.83,25.59h-13a1.93,1.93,0,0,1-1.92-1.93v-.53a1.92,1.92,0,0,1,1.92-1.92H27.83a1.93,1.93,0,0,1,1.93,1.92v.53a1.94,1.94,0,0,1-1.93,1.93"/></g></g></svg>