<svg xmlns="http://www.w3.org/2000/svg" viewBox="0 0 43.82 34.59"><defs><style>.cls-1{fill:#fff;}</style></defs><g id="Capa_2" data-name="Capa 2"><g id="Capa_1-2" data-name="Capa 1"><path class="cls-1" d="M6.09,34.59a20.28,20.28,0,1,1,36.1-12.68,20.17,20.17,0,0,1-4.46,12.68h2A21.91,21.91,0,1,0,0,21.91,21.77,21.77,0,0,0,4.05,34.59Z"/><path class="cls-1" d="M20.85,25.54v8.31H30.91V28.21h2.46v5.64h2.69V25.54ZM24,28.11h3.72v2.28H24Zm4.65,3.18H23.08v-.35h5.58Z"/><polygon class="cls-1" points="36.06 16.42 21.44 14.34 6.83 16.42 6.83 17.88 21.44 16.07 36.06 17.88 36.06 16.42"/><path class="cls-1" d="M34.87,23.38v-4.8L21.48,17h-.07L8,18.58v4.8L8,33.85H20V24.78H37v-1.4ZM11.33,20H31.42v1.7H11.33Z"/></g></g></svg>