<svg xmlns="http://www.w3.org/2000/svg" viewBox="0 0 43.82 34.98"><defs><style>.cls-1{fill:#fff;}</style></defs><g id="Capa_2" data-name="Capa 2"><g id="Capa_1-2" data-name="Capa 1"><path class="cls-1" d="M6.09,34.59a20.28,20.28,0,1,1,36.1-12.68,20.17,20.17,0,0,1-4.46,12.68h2A21.91,21.91,0,1,0,0,21.91,21.77,21.77,0,0,0,4.05,34.59Z"/><path class="cls-1" d="M37.44,19.24A3.78,3.78,0,0,0,36,17a4.86,4.86,0,0,0-.28-3.84C34.07,10.23,29,9.94,23.21,12.06A24.88,24.88,0,0,0,19.08,9c-3-1.75-5.52-2.06-7.06-.86A4,4,0,0,0,10.61,11L9.14,10.5l.49,5.42L11,14.83a19.64,19.64,0,0,0,.8,2.43c-4.61,2-7.42,4.68-7,7.25.21,1.33,1.26,2.46,3,3.28A4.13,4.13,0,0,0,8.26,29c.92,1.59,2.89,2.44,5.62,2.44q.61,0,1.29-.06a22.23,22.23,0,0,0,5.61-1.32c.72.67,1.45,1.29,2.16,1.83l.44,2.71,3.15-.5A8.68,8.68,0,0,0,30,35a3.6,3.6,0,0,0,2.29-.72c1.54-1.19,1.87-3.7.93-7-.17-.58-.37-1.18-.6-1.79A7.69,7.69,0,0,0,33.3,25c3-1.8,4.45-3.86,4.14-5.79m-7.28-7.55c2.26,0,4,.63,4.73,1.93a3.69,3.69,0,0,1,.28,2.74,12.18,12.18,0,0,0-3.48-1.31,26.42,26.42,0,0,0-6.06-.58c-.52-.57-1.05-1.11-1.59-1.63a19.5,19.5,0,0,1,6.12-1.15m1.08,10.72c-.33-.62-.68-1.25-1.06-1.88A2,2,0,0,0,30.85,19a2,2,0,0,0-3-1.83l-.21-.28c-.39-.49-.78-1-1.18-1.44a23.64,23.64,0,0,1,5,.54,10.94,10.94,0,0,1,3.39,1.32,11.53,11.53,0,0,1-1.31,2.4,20.63,20.63,0,0,1-2.31,2.68M31.36,25a26.67,26.67,0,0,1-3.45,1.41A30.56,30.56,0,0,0,31,24c.14.32.28.63.41.94m-7-10.46A38.69,38.69,0,0,0,20,15l-1.11.2A30.51,30.51,0,0,1,23,13.22q.66.62,1.32,1.29M11.56,11.37a3.21,3.21,0,0,1,1.07-2.46,2.7,2.7,0,0,1,1.69-.51,9,9,0,0,1,4.27,1.45,23.93,23.93,0,0,1,3.59,2.62,32,32,0,0,0-4,2c-.78.45-1.53.92-2.23,1.41a32,32,0,0,0-3.22,1.05,18.84,18.84,0,0,1-.88-2.75l2.3-1.84Zm2,6.27-.39.33a1.11,1.11,0,0,0-.07-.16l.46-.17m-5.85,9a3.46,3.46,0,0,1-1.95-2.28c-.33-2.07,2.29-4.4,6.42-6.16l.22.49c-2.87,2.7-4.58,5.57-4.69,8m1,.48c-.12-2.09,1.46-4.85,4.15-7.48a37.4,37.4,0,0,0,3.75,5.85c.75,1,1.52,1.87,2.29,2.7a27.64,27.64,0,0,1-8.15-.44,15,15,0,0,1-2-.63m6.36,3.28c-3,.26-5.1-.41-6-1.89L9,28.27c.48.16,1,.3,1.54.43a25.57,25.57,0,0,0,5.68.58c1.15,0,2.35-.07,3.56-.19.07.07.14.13.2.2a21.48,21.48,0,0,1-4.9,1.1m5.09-2.33a38,38,0,0,1-2.77-3.18,36,36,0,0,1-3.76-6,27.93,27.93,0,0,1,2.73-2.16A36.23,36.23,0,0,1,20.16,16a37.37,37.37,0,0,1,5-.47c.58.65,1.15,1.33,1.7,2l.24.32A2,2,0,0,0,26.76,19a2,2,0,0,0,2,2,2,2,0,0,0,.5-.06c.44.71.83,1.41,1.19,2.11a30.36,30.36,0,0,1-5.15,3.72l-1,.53q-1.14.26-2.31.45c-.63.1-1.27.18-1.9.25m11.5,5.42c-1.1.86-2.93.62-5.07-.46l-.38-2.35-2.65.42a22.08,22.08,0,0,1-1.74-1.44c1-.39,1.93-.84,2.9-1.35a32.46,32.46,0,0,0,7-2.41c.2.54.38,1.07.52,1.59.82,2.89.61,5.08-.58,6m.57-9c-.17-.38-.34-.77-.53-1.16a21.56,21.56,0,0,0,2.65-3.05A12.84,12.84,0,0,0,35.67,18a2.61,2.61,0,0,1,.79,1.43c.24,1.48-1.1,3.23-3.67,4.79l-.55.31"/></g></g></svg>