<svg xmlns="http://www.w3.org/2000/svg" viewBox="0 0 42.74 33.76"><defs><style>.cls-1{fill:#fff;}</style></defs><g id="Capa_2" data-name="Capa 2"><g id="Capa_1-2" data-name="Capa 1"><path class="cls-1" d="M22.58,3.85a1,1,0,0,1,0-.17,1.31,1.31,0,0,0,0,.17"/><path class="cls-1" d="M29.84,5.12h0Z"/><path class="cls-1" d="M29.84,5.12l-.21.4a4.66,4.66,0,0,0-.36,1.8,4.79,4.79,0,0,0,.41,1.94l.06.12-.12.07a5.7,5.7,0,0,0-2.85,4.94,5.61,5.61,0,0,0,.74,2.8l.07.13-.13.07a5.71,5.71,0,0,0-1.59,1.31,14.15,14.15,0,0,1-2,.71l-.05,0a3.69,3.69,0,0,1-5.11-3.38,3.69,3.69,0,0,1,1.9-3.22l.93-.52L21,11.38a3.74,3.74,0,0,1-.48-1.81,3.64,3.64,0,0,1,1.84-3.18l.84-.49L22.83,5a2.7,2.7,0,0,1-.25-1.17,1.31,1.31,0,0,1,0-.17.62.62,0,0,1,0-.13h0c0-.18,0-.38,0-.45"/><path class="cls-1" d="M22.64,3.09h0l.29,0-.29,0"/><path class="cls-1" d="M29.27,7.32a4.66,4.66,0,0,1,.36-1.8l.21-.4h0a18.21,18.21,0,0,0-6.89-2l-.29,0c0,.07,0,.27,0,.45a.62.62,0,0,0,0,.13c0,.06,0,.12,0,.17A2.7,2.7,0,0,0,22.83,5l.4.88-.83.49a3.66,3.66,0,0,0-1.37,5l.52.94-.93.51a3.68,3.68,0,0,0,3.21,6.6l.05,0a14.65,14.65,0,0,0,2-.71,5.86,5.86,0,0,1,1.59-1.31l.13-.07-.07-.13a5.61,5.61,0,0,1-.74-2.8,5.7,5.7,0,0,1,2.85-4.94l.12-.07-.06-.12a4.79,4.79,0,0,1-.41-1.94"/><path class="cls-1" d="M22.6,3.55a.62.62,0,0,0,0,.13.62.62,0,0,1,0-.13Z"/><path class="cls-1" d="M39.74,21.41A18.33,18.33,0,0,0,32.28,6.64a19.47,19.47,0,0,0-1.65-1.08l-.4-.24a4.24,4.24,0,0,0-.5,2,4.06,4.06,0,0,0,.38,1.75l.22.5-.48.27a5.29,5.29,0,0,0-2.62,4.55A5.21,5.21,0,0,0,27.91,17l.3.53-.53.29a5.33,5.33,0,0,0-1.53,1.29,4.82,4.82,0,0,0-.48.7A5.21,5.21,0,0,0,25,22.39a5.26,5.26,0,0,0,5.25,5.25,4.05,4.05,0,0,0,1.92-.36l.06,0V23.6a6,6,0,0,1-2.79-3.48l-.29-1L32,18.3l.3.76-.06-.83V15.84H35.9v9.22a1.32,1.32,0,0,0,1.28,1c1.72-.07,2.2-.86,2.17-.86a18.76,18.76,0,0,0,.39-3.77"/><path class="cls-1" d="M32.56,20.19c-.18-.26-.56-.54-.66-.85l-.15-.53-2.1.64.16.52a5.86,5.86,0,0,0,2.75,3.27V33.76h2.88V16.27H32.56Z"/><path class="cls-1" d="M5.94,33.74a19.78,19.78,0,1,1,30.86,0h2A21.37,21.37,0,1,0,0,21.37,21.22,21.22,0,0,0,4,33.74Z"/><rect class="cls-1" x="7.02" y="14.85" width="1.54" height="18.87"/><path class="cls-1" d="M31.49,33.72H30V28.17a6.44,6.44,0,0,0,.81,0,5.39,5.39,0,0,0,.73-.13Z"/><rect class="cls-1" x="8.56" y="16.33" width="3.19" height="0.38"/><rect class="cls-1" x="12.9" y="16.33" width="3.48" height="0.38"/><path class="cls-1" d="M18.46,16.33a1.23,1.23,0,0,0,0,.18,1.77,1.77,0,0,0,0,.2h-1v-.38Z"/><rect class="cls-1" x="12.14" y="15.72" width="0.38" height="12.09"/><rect class="cls-1" x="16.77" y="15.72" width="0.39" height="12.09"/><rect class="cls-1" x="12.08" y="28.13" width="5.15" height="1"/><rect class="cls-1" x="11.61" y="29.37" width="6.08" height="0.62"/><path class="cls-1" d="M21.75,27.81h-.39V19.94a1,1,0,0,0,.19,0,.76.76,0,0,0,.2,0Z"/><path class="cls-1" d="M26.38,27.81H26V26l.19.26.2.16Z"/><rect class="cls-1" x="21.3" y="28.13" width="5.15" height="1"/><rect class="cls-1" x="20.83" y="29.37" width="6.08" height="0.62"/></g></g></svg>