<svg xmlns="http://www.w3.org/2000/svg" viewBox="0 0 43.82 34.59"><defs><style>.cls-1{fill:#fff;}</style></defs><g id="Capa_2" data-name="Capa 2"><g id="Capa_1-2" data-name="Capa 1"><path class="cls-1" d="M35.3,34.59v0a7.53,7.53,0,0,0-6-7.38,4.24,4.24,0,1,0-3.08,0,7.54,7.54,0,0,0-6,7.38v0Z"/><path class="cls-1" d="M35.3,34.59v0a7.53,7.53,0,0,0-6-7.38,4.24,4.24,0,1,0-3.08,0,7.54,7.54,0,0,0-6,7.38v0Z"/><path class="cls-1" d="M6.09,34.59a20.28,20.28,0,1,1,36.1-12.68,20.17,20.17,0,0,1-4.46,12.68h2A21.91,21.91,0,1,0,0,21.91,21.77,21.77,0,0,0,4.05,34.59Z"/><path class="cls-1" d="M32.93,24.5a5.21,5.21,0,0,1-1.28,2.35,8.49,8.49,0,0,1,2.59,2V24.5ZM22.65,27.63a8.25,8.25,0,0,1,1.23-.78A5,5,0,0,1,22.6,24.5H15.76V34.59h3.39a8.66,8.66,0,0,1,.57-3.1l.18-.43a6.72,6.72,0,0,1,.32-.66H19.6V27.63Z"/><polygon class="cls-1" points="7.9 12.84 7.9 10.7 26.92 13.41 26.92 15.18 7.9 12.84"/><path class="cls-1" d="M32.91,21.86a5.51,5.51,0,0,1,.17,1.36c0,.12,0,.23,0,.35h2.84V21.86ZM9.11,14.05V34.59H14.8v-11h7.66c0-.12,0-.23,0-.35a5.33,5.33,0,0,1,3-4.81V16Zm12.34,5.72H13.14V17.71h8.31Z"/></g></g></svg>