<svg xmlns="http://www.w3.org/2000/svg" viewBox="0 0 42.74 33.74"><defs><style>.cls-1{fill:#fff;}</style></defs><g id="Capa_2" data-name="Capa 2"><g id="Capa_1-2" data-name="Capa 1"><path class="cls-1" d="M21.37,0A21.36,21.36,0,0,0,4,33.74h2a19.78,19.78,0,1,1,30.86,0h2A21.36,21.36,0,0,0,21.37,0"/><path class="cls-1" d="M28.75,10.77a3.67,3.67,0,0,1-.41.49,3.55,3.55,0,0,1-6-2.86A3.37,3.37,0,0,1,22.74,7a3.19,3.19,0,0,1,.83-1.44,3.24,3.24,0,0,1,4.57,0A3.13,3.13,0,0,1,29,7.16a3.55,3.55,0,0,1-.26,3.61"/><path class="cls-1" d="M19.42,11.26a3.56,3.56,0,0,1-5,0,3.39,3.39,0,0,1-.35-.42A3.53,3.53,0,0,1,13.82,7a3.19,3.19,0,0,1,.83-1.44,3.23,3.23,0,0,1,5.44,1.6,3.51,3.51,0,0,1,.36,1.25,3.57,3.57,0,0,1-1,2.85"/><path class="cls-1" d="M14.23,15a3.55,3.55,0,0,1-6.92,1.13,3.23,3.23,0,0,1,4.33-4.55,3.21,3.21,0,0,1,1,.49A3.52,3.52,0,0,1,14.23,15"/><path class="cls-1" d="M28.51,15a3.55,3.55,0,0,0,3.55,3.55,3.48,3.48,0,0,0,1.18-.2,3.55,3.55,0,0,0,2.19-2.22A3.16,3.16,0,0,0,36,14.36a3.23,3.23,0,0,0-3.23-3.23,3.29,3.29,0,0,0-1.62.43,3.42,3.42,0,0,0-1,.49A3.54,3.54,0,0,0,28.51,15"/><path class="cls-1" d="M32.06,26.63A7.11,7.11,0,0,1,25,33.74a7.42,7.42,0,0,1-1.78-.22h0a7,7,0,0,0-3.31-.06h0l-.46.12h0a7.11,7.11,0,0,1-8.65-6.94,8.33,8.33,0,0,1,.05-.88h0a7.08,7.08,0,0,1,2-4.11s0,0,0,0a4,4,0,0,0,.3-.28h0A7.07,7.07,0,0,0,14.61,19h0c.06-.15.11-.3.16-.46h0a7.12,7.12,0,0,1,13.26.21,0,0,0,0,1,0,0,7.07,7.07,0,0,0,1.74,2.68l.06.06A7.1,7.1,0,0,1,32,25.94q0,.33,0,.69"/></g></g></svg>