<svg xmlns="http://www.w3.org/2000/svg" viewBox="0 0 42.72 33.82"><defs><style>.cls-1{fill:#fff;}</style></defs><g id="Capa_2" data-name="Capa 2"><g id="Capa_1-2" data-name="Capa 1"><path class="cls-1" d="M21.36,0A21.36,21.36,0,0,0,4,33.73h2a19.77,19.77,0,1,1,30.84,0h2A21.36,21.36,0,0,0,21.36,0"/><polygon class="cls-1" points="20.7 6.81 13.46 14.03 14.12 14.69 20.7 8.13 30.94 18.36 24.06 25.25 21.64 22.84 20.99 23.5 24.06 26.56 32.26 18.36 20.7 6.81"/><polygon class="cls-1" points="27.27 15.29 17.32 25.25 10.44 18.36 12.86 15.94 12.2 15.29 9.12 18.36 17.32 26.56 27.93 15.95 27.27 15.29"/><polygon class="cls-1" points="20.39 21.57 12.15 13.31 20.7 4.77 29.25 13.31 28.53 14.04 29.19 14.7 30.57 13.31 20.7 3.45 10.83 13.31 19.73 22.23 20.39 21.57"/><rect class="cls-1" x="19.65" y="10.62" width="2.09" height="2.09" transform="translate(-2.19 18.03) rotate(-44.95)"/><path class="cls-1" d="M16.34,33.55a3.54,3.54,0,0,1-1.51.27A2.67,2.67,0,0,1,12,30.92a2.85,2.85,0,0,1,3-3,3.12,3.12,0,0,1,1.36.25l-.19.61A2.51,2.51,0,0,0,15,28.53a2.13,2.13,0,0,0-2.24,2.36,2.08,2.08,0,0,0,2.2,2.3A3.07,3.07,0,0,0,16.2,33Z"/><polygon class="cls-1" points="17.27 28 18.02 28 18.02 33.11 20.46 33.11 20.46 33.73 17.27 33.73 17.27 28"/><path class="cls-1" d="M21.72,28v3.4c0,1.28.57,1.82,1.33,1.82s1.4-.56,1.4-1.82V28h.74v3.35c0,1.76-.92,2.47-2.16,2.47S21,33.16,21,31.38V28Z"/><path class="cls-1" d="M26.48,28.09A6.22,6.22,0,0,1,27.83,28a2.31,2.31,0,0,1,1.56.42,1.22,1.22,0,0,1,.48,1,1.36,1.36,0,0,1-1,1.26v0a1.46,1.46,0,0,1,1.18,1.43,1.52,1.52,0,0,1-.49,1.15,2.85,2.85,0,0,1-2,.53,7.47,7.47,0,0,1-1.14-.07Zm.73,2.34h.67c.78,0,1.24-.41,1.24-1s-.5-.93-1.25-.93a3.76,3.76,0,0,0-.66,0Zm0,2.74a5.11,5.11,0,0,0,.62,0c.77,0,1.47-.28,1.47-1.11S28.63,31,27.83,31h-.62Z"/></g></g></svg>