<svg xmlns="http://www.w3.org/2000/svg" viewBox="0 0 42.74 33.74"><defs><style>.cls-1{fill:#fff;}</style></defs><g id="Capa_2" data-name="Capa 2"><g id="Capa_1-2" data-name="Capa 1"><path class="cls-1" d="M21.37,0A21.36,21.36,0,0,0,4,33.74h2a19.78,19.78,0,1,1,30.86,0h2A21.36,21.36,0,0,0,21.37,0"/><path class="cls-1" d="M30.07,8l-4.41,4.58,3,3.1L33.35,11s2.33,4.67-1.8,7.88C30,21,25.66,20.33,25.66,20.33L13.37,32.8a2.8,2.8,0,0,1-3.9.09l-.71-.65a2.85,2.85,0,0,1-.06-4.11L21.24,15.75s-1-3.89,1.14-6.06C26.82,5.54,30.07,8,30.07,8"/><polygon class="cls-1" points="10.03 7.28 14.27 9.48 15.37 12.77 18.04 15.49 16 17.66 13.27 14.94 10.03 13.9 7.85 9.46 10.03 7.28"/><path class="cls-1" d="M22.48,26.63l6,6.17A3.12,3.12,0,0,0,33,32.74l.17-.18a3.16,3.16,0,0,0-.08-4.4l-5.51-5.48H26.34Z"/></g></g></svg>