<svg xmlns="http://www.w3.org/2000/svg" viewBox="0 0 43.82 34.78"><defs><style>.cls-1{fill:#fff;}</style></defs><g id="Capa_2" data-name="Capa 2"><g id="Capa_1-2" data-name="Capa 1"><path class="cls-1" d="M25.83,28.9a14.1,14.1,0,0,0,6-2.86l-1.71-12.8H27c-.18-3.4-2.39-6.09-5.08-6.09h0a4.6,4.6,0,0,0-3.62,2,7.46,7.46,0,0,0-1.37,4.08h-3.2l-1.87,14A22.85,22.85,0,0,0,25.83,28.9m.49-13.56a.82.82,0,1,1-.81.81.81.81,0,0,1,.81-.81m-7-5.4a3.32,3.32,0,0,1,2.59-1.48h0c2,0,3.6,2.11,3.76,4.78H18.16a6,6,0,0,1,1.11-3.3m-1.78,7a.82.82,0,1,1,.82-.82.82.82,0,0,1-.82.82"/><path class="cls-1" d="M24.77,30.93a14,14,0,0,0,6.31-3.09,17.89,17.89,0,0,1-9.56,2.53,25.4,25.4,0,0,1-9.87-2.09l-.18,1.33a22.68,22.68,0,0,0,13.3,1.32"/><path class="cls-1" d="M32.16,28.17c-2.58,2.59-6.78,4.23-11.7,4.23a25.1,25.1,0,0,1-9.13-1.79l-.55,4.17H33Z"/><path class="cls-1" d="M6.09,34.59a20.28,20.28,0,1,1,36.1-12.68,20.17,20.17,0,0,1-4.46,12.68h2A21.91,21.91,0,1,0,0,21.91,21.77,21.77,0,0,0,4.05,34.59Z"/></g></g></svg>