<svg xmlns="http://www.w3.org/2000/svg" viewBox="0 0 43.82 34.59"><defs><style>.cls-1{fill:#fff;}</style></defs><g id="Capa_2" data-name="Capa 2"><g id="Capa_1-2" data-name="Capa 1"><path class="cls-1" d="M6.09,34.59a20.28,20.28,0,1,1,36.1-12.68,20.17,20.17,0,0,1-4.46,12.68h2A21.91,21.91,0,1,0,0,21.91,21.77,21.77,0,0,0,4.05,34.59Z"/><path class="cls-1" d="M13.13,9.08a1.4,1.4,0,0,0-.4.41c.13-.14.26-.28.4-.41"/><path class="cls-1" d="M12.61,10.71C13.55,9.8,20.1,9.1,28.05,9.1c2.86,0,5.54.09,7.84.25A15.78,15.78,0,0,0,33,7c-1.52-.1-3.14-.15-4.83-.15-7.21,0-13.27.94-15,2.21l-.41.41a.66.66,0,0,0-.11.35Z"/><path class="cls-1" d="M34.25,28.38C37.79,28,39,28.26,41,26.87v-.74C39.67,27.69,30,27.84,28.47,27.89a46.28,46.28,0,0,0-7.43.85l.46-1.43c-.91.54-4,.93-7.62.93s-6.72-.39-7.63-.93l2.34,7.28H35.44s4.66-2.3,1.29-3.48c-3.76-1.31-9-2.08-2.48-2.73m-15,6.08L20.32,31c3.31.59,10,.5,9.81,1.15S22,34.07,19.21,34.46"/><path class="cls-1" d="M6.54,26.75c.87.46,3.81.8,7.3.8l.11,0h.1c3.46,0,6.35-.34,7.21-.8.17-.09.26-.19.26-.28a.24.24,0,0,0-.1-.18,1.7,1.7,0,0,0-.59-.28,13.75,13.75,0,0,0-2.44-.42l1.13-4.44,3.41,7,.89-.43-3.93-8,1.55-6.08c1.47.08,3.07.14,4.76.16.66,0,1.32.05,2,.05s1.46,0,2.19-.06c1.15,0,2.25-.05,3.3-.1l2.68,7.46L34.5,26.88l.63.2,1.57-5,1.62,4.5.93-.34-2.06-5.71,2-6.32c-.14-.29-.27-.58-.42-.87l-2,6.16-2.14-5.95c1.49-.08,2.85-.2,4-.33a16.53,16.53,0,0,0-1.88-2.85c-2.5-.21-5.53-.32-8.8-.32-7.95,0-14.5.7-15.44,1.61a.31.31,0,0,0-.12.22c0,.41,1.13.79,3,1.1l3.54,7.21-1.34,5.3-.88-.07.08-.1a6,6,0,0,0,.8-3.25.53.53,0,0,0-.22-.4c-.11-.07-.32-.21-.9.36,0-.66,0-1.47-.39-1.64s-.8.22-1.27.68a3,3,0,0,0-.5-1.47.63.63,0,0,0-.43-.26.55.55,0,0,0-.41.16,5.29,5.29,0,0,0-.95,1.56c-.53-.56-1.12-1-1.46-.85s-.35,1.1-.33,1.55c-.53-.81-.83-1-1.13-.87a.59.59,0,0,0-.27.39,6,6,0,0,0,.48,3.3,5.17,5.17,0,0,0,.73.86A18.61,18.61,0,0,0,7,26a1.7,1.7,0,0,0-.59.28.24.24,0,0,0-.1.18c0,.09.09.19.26.28M16.71,13.19c1.17.14,2.54.26,4.06.36l-1.33,5.2ZM16.3,23.35a7.79,7.79,0,0,1,.87-1A5.7,5.7,0,0,1,16.45,25a3.53,3.53,0,0,1-.29.35,6.68,6.68,0,0,0,.14-2m-2.4,2h-.77a.43.43,0,0,1,0-.05,5.65,5.65,0,0,1,.53-2.78,6.72,6.72,0,0,1,1.19,2.65v.18H13.9m1.64,0h-.11a1.13,1.13,0,0,0,0-.26A5.47,5.47,0,0,0,15,23.78a4.45,4.45,0,0,1,.66-.55,5.87,5.87,0,0,1-.14,2.17m.4-4.35a5.48,5.48,0,0,1,.05,1.6l0,0c-.12-.06-.38-.18-1.2.58a5.77,5.77,0,0,0-.35-.61,8.25,8.25,0,0,1,1.53-1.55M14,20a2.84,2.84,0,0,1,.38,1.75c-.12.13-.22.26-.31.37l-.11-.1a.46.46,0,0,0-.37-.12.59.59,0,0,0-.38.27,2.88,2.88,0,0,0-.34.76l-.1-.11A6.94,6.94,0,0,1,14,20m-2.47.88a5.14,5.14,0,0,1,.91.84,4.85,4.85,0,0,0-.17.55,2.82,2.82,0,0,0-.79-.57,7,7,0,0,1,0-.82m-.16,1.41a6.23,6.23,0,0,1,1.3,1.35,5.2,5.2,0,0,0-.12,1.75l-.76,0a2.23,2.23,0,0,1-.2-.3,5.66,5.66,0,0,1-.22-2.83m-.89,2A5.92,5.92,0,0,1,10,21.63a7.91,7.91,0,0,1,.68,1,7.21,7.21,0,0,0,.15,2.16,3.9,3.9,0,0,1-.38-.49"/></g></g></svg>