<svg xmlns="http://www.w3.org/2000/svg" viewBox="0 0 42.74 33.74"><defs><style>.cls-1{fill:#fff;}</style></defs><g id="Capa_2" data-name="Capa 2"><g id="Capa_1-2" data-name="Capa 1"><path class="cls-1" d="M5.94,33.74a19.78,19.78,0,1,1,30.86,0h2A21.37,21.37,0,1,0,0,21.37,21.22,21.22,0,0,0,4,33.74Z"/><path class="cls-1" d="M31.77,29.4a6.21,6.21,0,0,0,.69.29c.65.22,1.32.65,1.31.59a1.14,1.14,0,0,0-.73-.8c-.58-.21-.59-.28-.43-.28s.27-.06.27-.37a3.65,3.65,0,0,0-.11-1c-.07-.15-.19,0-1.44,0-.44,0-.71,0-.87,0L29.71,27a1.27,1.27,0,0,1-.13-.19l-.5-.82c-.08-.14-.15-.28-.22-.42s-.23-.44-.36-.66l-.43-.63-.56-.75c-.1-.14-.22-.26-.33-.39l-.5-.57c-.07-.08-.15-.15-.22-.22-.29-.29-.11-.74-.05-1.08s.09-.9.12-1.35.07-.77.12-1.14a16.69,16.69,0,0,0,.26-2.2c0-.2,0-.39,0-.58s0-.24-.05-.37a1.14,1.14,0,0,0-.1-.36,1.39,1.39,0,0,0-.28-.43,3,3,0,0,0-1.69-.75,5.7,5.7,0,0,1-1.09-.32,1.57,1.57,0,0,1-1-1.22,3.06,3.06,0,0,1,.19-.49,10.7,10.7,0,0,0,.52-1.6.72.72,0,0,0,.29-.45,2.05,2.05,0,0,0,.26-1,.33.33,0,0,0-.24-.27,7.94,7.94,0,0,0,.06-1,2.57,2.57,0,0,0-2-2.62.35.35,0,0,0,0-.14.46.46,0,0,0-.91,0,.25.25,0,0,0,0,.14,2.56,2.56,0,0,0-2,2.62,7.94,7.94,0,0,0,.06,1,.33.33,0,0,0-.24.27,2.05,2.05,0,0,0,.26,1,.72.72,0,0,0,.3.45,9.83,9.83,0,0,0,.51,1.6,1.19,1.19,0,0,1,.16.68,1.35,1.35,0,0,1-.85,1,5.7,5.7,0,0,1-1.09.32,3,3,0,0,0-1.69.75,1.39,1.39,0,0,0-.28.43,1.14,1.14,0,0,0-.1.36c0,.13,0,.25-.05.37s0,.38,0,.58a16.69,16.69,0,0,0,.26,2.2c.05.37.1.76.12,1.14s.05.9.12,1.35.24.79,0,1.08a2.39,2.39,0,0,0-.23.22l-.5.57c-.11.13-.22.25-.32.39s-.38.5-.57.75l-.43.63q-.2.33-.36.66c-.07.14-.14.28-.22.42l-.5.82A1.27,1.27,0,0,1,13,27a1.7,1.7,0,0,1-.5.34.45.45,0,0,1-.12.06l-.18.29-.06,0c-.15.12,0,.14-1.23.12s-1.38-.14-1.44,0a3.71,3.71,0,0,0-.11,1c0,.31.11.37.27.37s.15.07-.43.28a1.13,1.13,0,0,0-.73.8c0,.07.66-.37,1.31-.58s1.37-.72,1.34-.49h0l0,0,0,0,0,0,0,.05a.31.31,0,0,1,0,.09.34.34,0,0,1-.08.09v0l-.2.22a2.3,2.3,0,0,0-.49,1.74,1.74,1.74,0,0,0,1.1,1.25,7.6,7.6,0,0,0,.92.3,6.32,6.32,0,0,0,2.17.17h.09c.43-.06.82-.17,1.24-.27s.59-.16.89-.26c.59-.18,1.17-.39,1.75-.6.79-.3,1.62-.49,2.39-.84A4.53,4.53,0,0,0,21.3,31l.08,0c.2.11.39.21.6.3.78.35,1.6.54,2.39.84.58.21,1.17.42,1.75.6.3.1.59.19.89.26s.81.21,1.24.27h.1a6.29,6.29,0,0,0,2.16-.17,7.6,7.6,0,0,0,.92-.3,1.74,1.74,0,0,0,1.1-1.25A2.3,2.3,0,0,0,32,29.78c-.07-.07-.13-.15-.19-.22l0,0a.18.18,0,0,1-.07-.1h0s0,0,0,0M9.93,29c-.29,0-.23-.41-.2-.71,0,0,.92,0,.88.29s-.4.42-.68.42m8.55-5.48a1.82,1.82,0,0,1-.17.56l-.12.27-.06.12c-.07.11-.12.23-.19.33s-.11.19-.17.28l-.24.41c-.12.2-.25.39-.35.6s-.11.21-.17.32a.08.08,0,0,1,0,0l-.14.29a2.85,2.85,0,0,0-.12.31l-.07.15a1,1,0,0,1-.27.33.48.48,0,0,1-.19.09l-.13.07c-.08,0-.14.1-.21.14a.21.21,0,0,1-.1,0,6,6,0,0,0-.61.13l-.26.08-.26.08a.43.43,0,0,0-.21.11.19.19,0,0,1-.1.05h-.19l-.2,0-.33.07-.17.05-.43.12h0l0-.07c.09-.11.19-.21.27-.33s.19-.22.28-.33a.9.9,0,0,1,.18-.16,1.06,1.06,0,0,1,.21-.16,1.81,1.81,0,0,0,.21-.18l.33-.29.26-.22.25-.19.29-.24.3-.29.26-.25c.14-.14.3-.27.45-.41s.3-.33.45-.5a.44.44,0,0,1,.09-.11,2,2,0,0,0,.2-.28,1.09,1.09,0,0,1,.13-.17,3,3,0,0,0,.23-.38c.11-.17.2-.34.3-.51a1.26,1.26,0,0,0,.16-.33l.18-.52a3,3,0,0,0,.07-.32v0a1.68,1.68,0,0,0,.06-.45,1.64,1.64,0,0,1,0-.22c0-.08,0-.16,0-.24a2.7,2.7,0,0,1,0-.28.37.37,0,0,0,0-.18s0,0,0-.05h0c0,.13,0,.25.07.39s0,.31.07.46,0,.25,0,.37a2.83,2.83,0,0,0,0,.29c0,.15,0,.3,0,.45s0,.24,0,.36a1.27,1.27,0,0,1,0,.28m14.06,4.76c0,.3.08.71-.2.71s-.64-.1-.68-.43.88-.28.88-.28m-2.8.32-.43-.12-.17-.05-.33-.07-.2,0h-.19a.19.19,0,0,1-.1-.05.43.43,0,0,0-.21-.11l-.26-.08L27.59,28c-.2,0-.4-.1-.6-.13a.15.15,0,0,1-.1,0c-.08,0-.14-.1-.22-.14l-.13-.07a.48.48,0,0,1-.19-.09,1,1,0,0,1-.27-.33L26,27a2.85,2.85,0,0,0-.12-.31l-.14-.29a.08.08,0,0,1,0,0c-.06-.11-.12-.21-.17-.32a5.2,5.2,0,0,0-.35-.6L25,25.05c-.06-.09-.1-.19-.17-.28s-.12-.22-.19-.33l-.06-.12-.12-.27a1.82,1.82,0,0,1-.17-.56.87.87,0,0,1,0-.28v-.36c0-.15,0-.3,0-.45a2.83,2.83,0,0,0,0-.29c0-.12,0-.25,0-.37s0-.31.07-.46.05-.26.07-.39h0s0,0,0,.05a.37.37,0,0,0,0,.18,2.7,2.7,0,0,1,0,.28c0,.08,0,.16,0,.24l0,.22a1.35,1.35,0,0,0,.05.45v0a1.67,1.67,0,0,0,.08.32c0,.18.11.35.17.52a1.26,1.26,0,0,0,.16.33l.3.51a3,3,0,0,0,.23.38,1.09,1.09,0,0,1,.13.17,1.14,1.14,0,0,0,.21.28l.09.11a5.24,5.24,0,0,0,.44.5l.46.41.25.25.3.29.29.24.25.19.26.22.33.29a1.81,1.81,0,0,0,.21.18,1.06,1.06,0,0,1,.21.16.9.9,0,0,1,.18.16c.09.11.2.21.28.33s.18.22.27.33l.05.07h0"/></g></g></svg>