<svg xmlns="http://www.w3.org/2000/svg" viewBox="0 0 174.2 57.92"><defs><style>.cls-1{fill:#002c55;}.cls-2{fill:#1f49b6;}</style></defs><title>logo-navetec</title><g id="Capa_2" data-name="Capa 2"><g id="Capa_1-2" data-name="Capa 1"><polygon class="cls-1" points="57.91 17.05 48.56 40.9 41.9 57.92 33.27 57.92 28.14 40.9 20.95 17.05 19.6 12.56 17.87 17.05 8.63 40.9 0 40.9 9.24 17.05 15.83 0.02 15.84 0 24.47 0 29.59 17.05 36.77 40.9 38.14 45.47 39.93 40.9 49.28 17.05 57.91 17.05"/><path class="cls-2" d="M99.27,17.05h14.4v3.79H104.2V27h7.26v3.74H104.2V37h10.47v3.89H99.27Z"/><path class="cls-2" d="M123,20.84h-6.77V17.05h18.46v3.79H128V40.91h-5Z"/><path class="cls-2" d="M138.11,17.05h14.4v3.79h-9.46V27h7.26v3.74h-7.26V37h10.47v3.89H138.11Z"/><path class="cls-2" d="M156.2,28.93a13.36,13.36,0,0,1,.9-5,10.75,10.75,0,0,1,2.47-3.75,11.27,11.27,0,0,1,8.21-3.11,20.9,20.9,0,0,1,5.27.65c.39.11.78.2,1.15.27l-.72,4.34A9.51,9.51,0,0,0,168.39,21a7.69,7.69,0,0,0-3,.53A6.15,6.15,0,0,0,163.25,23a8.16,8.16,0,0,0-2,5.74,9.12,9.12,0,0,0,1.89,6,6.52,6.52,0,0,0,5.28,2.37,11.51,11.51,0,0,0,4.57-1,4.47,4.47,0,0,0,.9-.48l0,4a16.34,16.34,0,0,1-3.58,1.07,19.13,19.13,0,0,1-2.38.17,11.53,11.53,0,0,1-8.62-3.29A11.89,11.89,0,0,1,156.2,28.93Z"/><path class="cls-2" d="M73.86,17.06h5.29l4.41,13,1.25,4.54,1.27-4.54,4.18-13h5.26L86.83,40.92H82.64Z"/><path class="cls-2" d="M76.65,40.92H71.36l-4.4-13L65.7,23.38l-1.27,4.53-4.17,13H55l8.68-23.86h4.19Z"/></g></g></svg>