<svg xmlns="http://www.w3.org/2000/svg" viewBox="0 0 88.52 69.13"><defs><style>.cls-1{fill:#002c55;}.cls-2{fill:#567bc6;}</style></defs><title>loco-construye</title><g id="Capa_2" data-name="Capa 2"><g id="Capa_1-2" data-name="Capa 1"><path class="cls-1" d="M4.93,62a2.71,2.71,0,0,1,2.53-1.6,3.05,3.05,0,0,1,1.73.48,2.88,2.88,0,0,1,1.06,1.34h2.19a4.75,4.75,0,0,0-1.7-2.74,5.07,5.07,0,0,0-3.25-1,5.09,5.09,0,0,0-2.65.67A4.61,4.61,0,0,0,3.07,61a5.74,5.74,0,0,0-.58,1.91H4.63A3.45,3.45,0,0,1,4.93,62Z"/><path class="cls-1" d="M9.19,66.7a3.06,3.06,0,0,1-1.73.49,2.76,2.76,0,0,1-2.53-1.6,3.34,3.34,0,0,1-.31-1.06H2.48a5.44,5.44,0,0,0,.59,2,4.57,4.57,0,0,0,1.78,1.89,5.08,5.08,0,0,0,2.64.67,5.12,5.12,0,0,0,3.25-1,4.81,4.81,0,0,0,1.7-2.75H10.25A2.88,2.88,0,0,1,9.19,66.7Z"/><path class="cls-1" d="M21.58,59.1A4.91,4.91,0,0,1,23.46,61a5.89,5.89,0,0,1,0,5.53,5,5,0,0,1-1.88,1.92,5.34,5.34,0,0,1-2.66.68,5.29,5.29,0,0,1-2.66-.68,5,5,0,0,1-1.89-1.92,6,6,0,0,1,0-5.53,4.86,4.86,0,0,1,1.89-1.9,5.2,5.2,0,0,1,2.66-.69A5.25,5.25,0,0,1,21.58,59.1ZM17.3,60.76A2.8,2.8,0,0,0,16.21,62a4,4,0,0,0-.39,1.81,4,4,0,0,0,.39,1.82,2.86,2.86,0,0,0,1.09,1.19,3.32,3.32,0,0,0,3.23,0,2.8,2.8,0,0,0,1.09-1.19A4,4,0,0,0,22,63.76,4,4,0,0,0,21.62,62a2.74,2.74,0,0,0-1.09-1.19,3.32,3.32,0,0,0-3.23,0Z"/><path class="cls-1" d="M34.58,69H32.49l-4.68-7.11V69H25.72V58.56h2.09l4.68,7.17V58.56h2.09Z"/><path class="cls-1" d="M43.26,67.64a2.82,2.82,0,0,1-1.18,1.08,4.16,4.16,0,0,1-1.92.41,5,5,0,0,1-2-.38,3.39,3.39,0,0,1-1.4-1.09,3.15,3.15,0,0,1-.6-1.66H38.4a1.69,1.69,0,0,0,.51,1.06,1.61,1.61,0,0,0,1.17.42,1.34,1.34,0,0,0,1-.35,1.21,1.21,0,0,0,.34-.89,1.16,1.16,0,0,0-.28-.81,2,2,0,0,0-.71-.51c-.29-.13-.68-.28-1.18-.45a10.57,10.57,0,0,1-1.6-.64,2.85,2.85,0,0,1-1.06-.93,2.64,2.64,0,0,1-.44-1.58,2.58,2.58,0,0,1,1-2.13,4,4,0,0,1,2.57-.78,4.11,4.11,0,0,1,2.65.8,3,3,0,0,1,1.11,2.14H41.2a1.6,1.6,0,0,0-.47-.93,1.49,1.49,0,0,0-1-.36,1.41,1.41,0,0,0-.94.3A1.26,1.26,0,0,0,38.66,62a2,2,0,0,0,.7.49,9,9,0,0,0,1.15.43,15.23,15.23,0,0,1,1.63.67,3,3,0,0,1,1.08.93,3.09,3.09,0,0,1,0,3.11Z"/><path class="cls-1" d="M52.32,58.56v1.66H49.43V69H47.34v-8.8H44.46V58.56Z"/><path class="cls-1" d="M58.92,69,56.48,65h-.92V69H53.47V58.56h4a4,4,0,0,1,2.78.89,3.34,3.34,0,0,1,.29,4.33,3.28,3.28,0,0,1-1.9,1.07L61.24,69Zm-3.36-5.51h1.72c1.19,0,1.79-.53,1.79-1.58a1.56,1.56,0,0,0-.43-1.18,1.93,1.93,0,0,0-1.36-.42H55.56Z"/><path class="cls-1" d="M64.61,58.56V64.7a2.66,2.66,0,0,0,.55,1.84,2.26,2.26,0,0,0,3.11,0,2.71,2.71,0,0,0,.54-1.84V58.56h2.07V64.7a5.13,5.13,0,0,1-.54,2.45,3.48,3.48,0,0,1-1.5,1.49,4.75,4.75,0,0,1-2.17.49,4.06,4.06,0,0,1-3-1.13,4.43,4.43,0,0,1-1.13-3.3V58.56Z"/><path class="cls-1" d="M81.15,58.56l-3.54,6.8V69h-2.1V65.36L72,58.56h2.4l2.22,4.58,2.22-4.58Z"/><rect class="cls-1" x="82.28" y="62.93" width="5.79" height="1.6"/><rect class="cls-1" x="82.28" y="67.35" width="6.24" height="1.67"/><rect class="cls-1" x="82.28" y="58.56" width="6.24" height="1.66"/><path class="cls-1" d="M88.52,0H42.43A31.46,31.46,0,0,1,54.15,11.3H88.52Z"/><path class="cls-1" d="M42.43,54.71H88.52V43.4H54.15A31.34,31.34,0,0,1,42.43,54.71Z"/><path class="cls-1" d="M.61,21.7A27.13,27.13,0,0,0,0,27.44,27.62,27.62,0,0,0,.57,33h84.9V21.7Z"/><path class="cls-2" d="M40.07,36.86a15.86,15.86,0,0,1-25.24-.09A14.3,14.3,0,0,1,13.65,35H1.1c.17.61.36,1.22.58,1.8A27.36,27.36,0,0,0,53,36.86Z"/><path class="cls-2" d="M53,17.85H40.31a15.87,15.87,0,0,0-25.65,0,15.21,15.21,0,0,0-1.18,1.88H1.1c.18-.63.38-1.27.61-1.88a27.36,27.36,0,0,1,51.31,0Z"/></g></g></svg>