<svg xmlns="http://www.w3.org/2000/svg" viewBox="0 0 132.61 59.51"><defs><style>.cls-1{fill:#002c55;}.cls-2{fill:#567bc6;}.cls-3{fill:#e6b54a;}</style></defs><title>logo-rent</title><g id="Capa_2" data-name="Capa 2"><g id="Capa_1-2" data-name="Capa 1"><path class="cls-1" d="M20.25,38.34l-9-14.93H7.92V38.34H.27V0h14.6q6.69,0,10.18,3.26a11.15,11.15,0,0,1,3.51,8.58,11,11,0,0,1-2.42,7.27,11.89,11.89,0,0,1-7,3.91l9.56,15.32ZM7.92,18.14h6.3q6.57,0,6.57-5.81A5.71,5.71,0,0,0,19.19,8c-1.07-1-2.72-1.54-5-1.54H7.92Z"/><path class="cls-1" d="M41.37,6.08V16H55v5.86H41.37V32.2h15.2v6.14H33.71V0H56.57V6.08Z"/><path class="cls-1" d="M94.69,38.34H87L69.88,12.27V38.34H62.22V0h7.66L87,26.28V0h7.66Z"/><path class="cls-1" d="M127.7,0V6.08H117.11V38.34h-7.65V6.08H98.92V0Z"/><path class="cls-2" d="M11.23,57.16a4.51,4.51,0,0,1-1.87,1.71,6.48,6.48,0,0,1-3,.64,7.77,7.77,0,0,1-3.13-.6A5.24,5.24,0,0,1,1,57.19a5,5,0,0,1-.94-2.62H3.56a2.67,2.67,0,0,0,.8,1.68,2.56,2.56,0,0,0,1.84.66,2.12,2.12,0,0,0,1.58-.55,2.08,2.08,0,0,0,.11-2.69,3.52,3.52,0,0,0-1.13-.81c-.45-.2-1.07-.43-1.87-.7a17.8,17.8,0,0,1-2.53-1A4.64,4.64,0,0,1,.69,49.68,4.18,4.18,0,0,1,0,47.18a4.08,4.08,0,0,1,1.53-3.36,6.3,6.3,0,0,1,4.06-1.23,6.4,6.4,0,0,1,4.18,1.27,4.78,4.78,0,0,1,1.77,3.37H8a2.46,2.46,0,0,0-.75-1.47,2.34,2.34,0,0,0-1.66-.57,2.21,2.21,0,0,0-1.48.48A1.95,1.95,0,0,0,4,48.27a3.12,3.12,0,0,0,1.1.78,18.68,18.68,0,0,0,1.81.68,22.52,22.52,0,0,1,2.58,1.05,4.52,4.52,0,0,1,1.7,1.48,4.3,4.3,0,0,1,.7,2.57A4.5,4.5,0,0,1,11.23,57.16Z"/><path class="cls-2" d="M26.24,43.67a7.74,7.74,0,0,1,3,3A8.66,8.66,0,0,1,30.3,51a8.79,8.79,0,0,1-1.09,4.38,7.68,7.68,0,0,1-3,3,8.71,8.71,0,0,1-8.4,0,7.74,7.74,0,0,1-3-3A8.79,8.79,0,0,1,13.78,51a8.66,8.66,0,0,1,1.09-4.36,7.81,7.81,0,0,1,3-3,8.71,8.71,0,0,1,8.4,0Zm-6.75,2.62a4.48,4.48,0,0,0-1.72,1.88,7,7,0,0,0,0,5.74,4.54,4.54,0,0,0,1.72,1.88,4.84,4.84,0,0,0,2.55.65,4.84,4.84,0,0,0,2.55-.65,4.54,4.54,0,0,0,1.72-1.88,7,7,0,0,0,0-5.74,4.48,4.48,0,0,0-1.72-1.88,5.26,5.26,0,0,0-5.1,0Z"/><path class="cls-2" d="M36.08,56.82h5.55v2.53H32.78V42.83h3.3Z"/><path class="cls-2" d="M46.77,42.83v9.68a4.31,4.31,0,0,0,.86,2.92,3.14,3.14,0,0,0,2.47,1,3.1,3.1,0,0,0,2.44-1,4.31,4.31,0,0,0,.86-2.92V42.83h3.27v9.68a8.09,8.09,0,0,1-.85,3.88,5.54,5.54,0,0,1-2.37,2.35,7.45,7.45,0,0,1-3.42.77,6.38,6.38,0,0,1-4.75-1.78,7,7,0,0,1-1.78-5.22V42.83Z"/><path class="cls-2" d="M70.8,42.83v2.62H66.24v13.9h-3.3V45.45H58.4V42.83Z"/><path class="cls-2" d="M75.93,42.83V59.35h-3.3V42.83Z"/><path class="cls-2" d="M90.87,43.67a7.88,7.88,0,0,1,3,3A8.76,8.76,0,0,1,94.93,51a8.89,8.89,0,0,1-1.09,4.38,7.81,7.81,0,0,1-3,3,8.71,8.71,0,0,1-8.4,0,7.68,7.68,0,0,1-3-3A8.79,8.79,0,0,1,78.41,51a8.66,8.66,0,0,1,1.09-4.36,7.74,7.74,0,0,1,3-3,8.71,8.71,0,0,1,8.4,0Zm-6.75,2.62a4.42,4.42,0,0,0-1.72,1.88,7,7,0,0,0,0,5.74,4.48,4.48,0,0,0,1.72,1.88,4.84,4.84,0,0,0,2.55.65,4.89,4.89,0,0,0,2.55-.65,4.61,4.61,0,0,0,1.72-1.88,7,7,0,0,0,0-5.74,4.55,4.55,0,0,0-1.72-1.88,4.89,4.89,0,0,0-2.55-.66A4.84,4.84,0,0,0,84.12,46.29Z"/><path class="cls-2" d="M111.4,59.35h-3.3l-7.39-11.23V59.35h-3.3V42.83h3.3l7.39,11.32V42.83h3.3Z"/><path class="cls-2" d="M125.11,57.16a4.51,4.51,0,0,1-1.87,1.71,6.48,6.48,0,0,1-3,.64,7.77,7.77,0,0,1-3.13-.6,5.24,5.24,0,0,1-2.22-1.72,4.92,4.92,0,0,1-.94-2.62h3.51a2.67,2.67,0,0,0,.8,1.68,2.56,2.56,0,0,0,1.84.66,2.12,2.12,0,0,0,1.58-.55,1.89,1.89,0,0,0,.55-1.41,1.85,1.85,0,0,0-.45-1.28,3.37,3.37,0,0,0-1.12-.81c-.45-.2-1.07-.43-1.87-.7a17.8,17.8,0,0,1-2.53-1,4.64,4.64,0,0,1-1.67-1.46,4.18,4.18,0,0,1-.69-2.5,4.08,4.08,0,0,1,1.53-3.36,6.3,6.3,0,0,1,4.06-1.23,6.4,6.4,0,0,1,4.18,1.27,4.74,4.74,0,0,1,1.76,3.37h-3.55a2.51,2.51,0,0,0-.75-1.47,2.34,2.34,0,0,0-1.66-.57,2.21,2.21,0,0,0-1.48.48,1.95,1.95,0,0,0-.12,2.6,3.12,3.12,0,0,0,1.1.78,17.72,17.72,0,0,0,1.81.68,22.52,22.52,0,0,1,2.58,1.05,4.52,4.52,0,0,1,1.7,1.48,4.3,4.3,0,0,1,.7,2.57A4.5,4.5,0,0,1,125.11,57.16Z"/><polygon class="cls-3" points="122.79 32.04 122.79 12.4 132.61 22.22 122.79 32.04"/></g></g></svg>