<svg xmlns="http://www.w3.org/2000/svg" viewBox="0 0 83.39 102.92"><defs><style>.cls-1{font-size:13.51px;font-family:FuturaPT-Medium, Futura PT;font-weight:500;}.cls-1,.cls-6{fill:#fff;}.cls-2{letter-spacing:-0.03em;}.cls-3{letter-spacing:-0.07em;}.cls-4{letter-spacing:-0.01em;}.cls-5{letter-spacing:0em;}</style></defs><g id="Capa_2" data-name="Capa 2"><g id="Capa_1-2" data-name="Capa 1"><text class="cls-1" transform="translate(0 83.06)">SÓ<tspan class="cls-2" x="17.64" y="0">L</tspan><tspan x="22.56" y="0">O </tspan><tspan class="cls-3" x="36.37" y="0">1</tspan><tspan x="43.03" y="0">0% DE </tspan><tspan x="5.32" y="16.21">EN</tspan><tspan class="cls-4" x="22.15" y="16.21">G</tspan><tspan class="cls-5" x="32.08" y="16.21">ANCHE </tspan></text><path class="cls-6" d="M42.85,53.92A6.9,6.9,0,1,0,36,47,6.89,6.89,0,0,0,42.85,53.92Zm0-12.25A5.36,5.36,0,1,1,37.48,47,5.36,5.36,0,0,1,42.85,41.67Z"/><path class="cls-6" d="M41.31,48.56H39.78a2.3,2.3,0,0,0,2.3,2.3v.77h1.53v-.77a2.3,2.3,0,0,0,0-4.6V44.73a.76.76,0,0,1,.77.77h1.53a2.3,2.3,0,0,0-2.3-2.3v-.77H42.08v.77a2.3,2.3,0,1,0,0,4.59v1.54A.78.78,0,0,1,41.31,48.56Zm0-3.06a.77.77,0,0,1,.77-.77v1.53A.77.77,0,0,1,41.31,45.5Zm2.3,2.29a.77.77,0,1,1,0,1.54Z"/><path class="cls-6" d="M62,33.24H58.17V27.11l1.15.66a.77.77,0,0,0,1-.27l2.29-3.83a.76.76,0,0,0,.09-.59.79.79,0,0,0-.37-.47l-5.74-3.16V14.09h.77a.77.77,0,0,0,.77-.77V11a.77.77,0,0,0-.77-.76H49.74A.77.77,0,0,0,49,11v2.3a.77.77,0,0,0,.77.77h.77v2L40.15,10.35a.81.81,0,0,0-.74,0L17.2,22.61a.73.73,0,0,0-.37.47.75.75,0,0,0,.08.6l2.3,3.83a.77.77,0,0,0,1,.26l1.91-1.1V48.56H20.63a.76.76,0,0,0-.76.77v3.83a.76.76,0,0,0,.76.76h6.9v1.53a.76.76,0,0,0,.76.77H57.4a.77.77,0,0,0,.77-.77H59.7a.76.76,0,0,0,.76-.76V53.16H62a.77.77,0,0,0,.76-.77V34A.76.76,0,0,0,62,33.24ZM50.51,11.79h6.12v.77H50.51ZM52,14.09H55.1V18.6L52,16.91Zm-31.91,12-1.5-2.5L39.78,11.9,60.93,23.57l-1.5,2.5L40.16,15a.74.74,0,0,0-.76,0Zm3.57-.28L39.78,16.5l16.85,9.73v7h-26a.77.77,0,0,0-.77.77v1.53h-.76a.76.76,0,0,0-.77.76v1.54a.76.76,0,0,0-.76.76v10H23.7ZM56.63,41.57a3.1,3.1,0,0,1-2.2-2.2h2.2Zm-3.76-2.2a4.61,4.61,0,0,0,3.76,3.76v7.8a4.6,4.6,0,0,0-3.76,3.76h-20a4.6,4.6,0,0,0-3.76-3.76v-7.8a4.61,4.61,0,0,0,3.76-3.76ZM29.06,41.56V39.37h2.19A3.07,3.07,0,0,1,29.06,41.56ZM21.4,52.39v-2.3h6.13v2.3Zm7.66.11a3.07,3.07,0,0,1,2.19,2.19H29.06Zm27.57,2.19h-2.2a3.08,3.08,0,0,1,2.2-2.2Zm2.3-.77h-.76V38.6a.77.77,0,0,0-.77-.76H29.82v-.77H58.93Zm2.3-2.29h-.77V36.3a.76.76,0,0,0-.76-.76H31.36v-.77H61.23Z"/><path class="cls-6" d="M36,30.18h7.66a.77.77,0,0,0,.77-.77V21.75a.77.77,0,0,0-.77-.77H36a.77.77,0,0,0-.76.77v7.66A.77.77,0,0,0,36,30.18Zm.77-3.83H39v2.29h-2.3Zm3.83,2.29V26.35h2.3v2.29Zm2.3-3.83h-2.3V22.52h2.3ZM39,22.52v2.29h-2.3V22.52Z"/><path class="cls-6" d="M15.79,56.64a33.2,33.2,0,1,1,51.8,0h3.35a35.88,35.88,0,1,0-58.49,0Z"/></g></g></svg>