<svg xmlns="http://www.w3.org/2000/svg" viewBox="0 0 81.17 102.92"><defs><style>.cls-1{font-size:13.51px;font-family:FuturaPT-Medium, Futura PT;font-weight:500;}.cls-1,.cls-2{fill:#fff;}</style></defs><g id="Capa_2" data-name="Capa 2"><g id="Capa_1-2" data-name="Capa 1"><text class="cls-1" transform="translate(0 83.06)">48 MESES SIN<tspan x="10.18" y="16.21">INTERESES</tspan></text><path class="cls-2" d="M14.68,56.64a33.21,33.21,0,1,1,51.8,0h3.35a35.88,35.88,0,1,0-58.49,0Z"/><path class="cls-2" d="M17.9,56.43H40.41V55.05H18.6V15.91H37.3v5.54a.69.69,0,0,0,.69.69h5.55v17.6h1.38V21.45s0,0,0,0a.57.57,0,0,0,0-.18l0-.07a.86.86,0,0,0-.13-.2l-5-5.05h6.64V39.74h1.38V15.91h1.39V39.74h1.38V15.22a.69.69,0,0,0-.69-.7H17.9a.69.69,0,0,0-.69.7V55.74A.69.69,0,0,0,17.9,56.43ZM38.69,20.76V16.89l3.87,3.87Z"/><path class="cls-2" d="M39.4,45.18V37.93l1.06.65a.71.71,0,0,0,.73,0,.72.72,0,0,0,.37-.63V35.09a.72.72,0,0,0-.34-.62l-2.54-1.56V29.32a.73.73,0,0,0-.73-.73H35.07a.73.73,0,0,0-.72.73v.92L31.84,28.7a.72.72,0,0,0-.75,0l-9.38,5.77a.72.72,0,0,0-.34.62V38a.72.72,0,0,0,.37.63.71.71,0,0,0,.73,0l1.06-.65v7.25a.72.72,0,0,0,.72.72H38.68A.72.72,0,0,0,39.4,45.18ZM35.79,30h1.44v2l-1.44-.89Zm-13,5.45,8.65-5.33,8.66,5.33v1.19l-8.28-5.09a.68.68,0,0,0-.75,0l-8.28,5.09Zm7.21,9V40.13h2.89v4.33Zm4.33,0V39.41a.72.72,0,0,0-.72-.72H29.3a.72.72,0,0,0-.72.72v5.05H25V37l6.49-4L38,37v7.42Z"/><path class="cls-2" d="M21.37,18h9v1.38h-9Z"/><path class="cls-2" d="M21.37,20.76H35.92v1.38H21.37Z"/><path class="cls-2" d="M21.37,24H41.45v1.38H21.37Z"/><path class="cls-2" d="M21.37,48.12H41.72l-.28,1.38H21.37Z"/><path class="cls-2" d="M21.37,50.89h4.15v1.39H21.37Z"/><path class="cls-2" d="M26.91,50.89H41.17l-.25,1.39h-14Z"/><path class="cls-2" d="M31.76,18h4.16v1.38H31.76Z"/><path class="cls-2" d="M44.66,43.54h1.5L49,50.32l3-6.78h1.51l1.79,10.67H53.14l-1-6.57-2.86,6.57h-.71l-2.73-6.57-1.09,6.57H42.68Z"/><path class="cls-2" d="M60.91,46a2.08,2.08,0,0,0-1.74-.91c-1.12,0-1.47.7-1.47,1.25A.93.93,0,0,0,58,47a3.69,3.69,0,0,0,1.28.61,6,6,0,0,1,2.16,1.07A2.9,2.9,0,0,1,62.38,51a3.43,3.43,0,0,1-3.71,3.5,4.4,4.4,0,0,1-3.68-2l1.36-1.29a2.5,2.5,0,0,0,2.24,1.42,1.49,1.49,0,0,0,1.65-1.47,1.24,1.24,0,0,0-.42-1,4.8,4.8,0,0,0-1.64-.78,5.18,5.18,0,0,1-1.78-.93,2.49,2.49,0,0,1-.85-2A3.11,3.11,0,0,1,59,43.3a4.11,4.11,0,0,1,3,1.25Z"/><path class="cls-2" d="M64.82,43.54V54.21H62.74V43.54Z"/><rect class="cls-2" x="42.6" y="55.05" width="22.18" height="1.45"/><rect class="cls-2" x="42.6" y="41.29" width="22.18" height="1.45"/></g></g></svg>