<svg xmlns="http://www.w3.org/2000/svg" viewBox="0 0 123.75 124.67"><defs><style>.cls-1{font-size:13.51px;font-family:FuturaPT-Medium, Futura PT;font-weight:500;}.cls-1,.cls-6{fill:#fff;}.cls-2{letter-spacing:-0.05em;}.cls-3{letter-spacing:-0.07em;}.cls-4{letter-spacing:-0.03em;}.cls-5{letter-spacing:-0.02em;}</style></defs><g id="Capa_2" data-name="Capa 2"><g id="Capa_1-2" data-name="Capa 1"><text class="cls-1" transform="translate(10.16 80.67)"><tspan class="cls-2">SIN PENALIZ</tspan><tspan class="cls-3" x="64.82" y="0">A</tspan><tspan class="cls-2" x="72.8" y="0">CIÓN</tspan><tspan x="102.75" y="0"> </tspan><tspan x="16.72" y="16.21">POR </tspan><tspan class="cls-4" x="44.23" y="16.21">P</tspan><tspan class="cls-5" x="50.31" y="16.21">A</tspan><tspan x="58.97" y="16.21">GOS </tspan><tspan x="10.99" y="32.42">ANTICI</tspan><tspan class="cls-4" x="51.16" y="32.42">P</tspan><tspan x="57.24" y="32.42">ADOS</tspan></text><path class="cls-6" d="M61.31,29.49a9.8,9.8,0,1,0,9.79,9.8A9.8,9.8,0,0,0,61.31,29.49Zm0,17.41a7.62,7.62,0,1,1,7.62-7.61A7.62,7.62,0,0,1,61.31,46.9Z"/><path class="cls-6" d="M63.68,37.19h2.18a3.26,3.26,0,0,0-3.26-3.26V32.84H60.42v1.09a3.27,3.27,0,1,0,0,6.53v2.17a1.09,1.09,0,0,1-1.09-1.09H57.15a3.27,3.27,0,0,0,3.27,3.27V45.9H62.6V44.81a3.27,3.27,0,0,0,0-6.53V36.1A1.08,1.08,0,0,1,63.68,37.19Zm-3.26,1.09a1.09,1.09,0,1,1,0-2.18Zm3.26,3.26a1.08,1.08,0,0,1-1.08,1.09V40.46A1.08,1.08,0,0,1,63.68,41.54Z"/><path class="cls-6" d="M87,19.7H42.35a1.09,1.09,0,0,0-1.09,1.09V23H40.18a1.09,1.09,0,0,0-1.1,1.08v2.18A1.09,1.09,0,0,0,38,27.31v24a1.08,1.08,0,0,0,1.08,1.08H80.44a1.08,1.08,0,0,0,1.08-1.08H83.7a1.09,1.09,0,0,0,1.09-1.09V48H87a1.09,1.09,0,0,0,1.09-1.1V20.79A1.09,1.09,0,0,0,87,19.7ZM40.18,28.41h3.1a4.31,4.31,0,0,1-3.1,3.1Zm0,21.76V47.06a4.34,4.34,0,0,1,3.1,3.11Zm39.16,0H76.22a4.36,4.36,0,0,1,3.12-3.12Zm0-5.34A6.51,6.51,0,0,0,74,50.17H45.52a6.54,6.54,0,0,0-5.34-5.34V33.75a6.55,6.55,0,0,0,5.34-5.34H74a6.52,6.52,0,0,0,5.33,5.34Zm0-13.31a4.36,4.36,0,0,1-3.12-3.11h3.12Zm3.28,17.56h-1.1V27.31a1.08,1.08,0,0,0-1.08-1.08H41.26V25.14H82.62Zm3.26-3.26H84.79V24.05A1.09,1.09,0,0,0,83.7,23H43.44v-1.1H85.88Z"/><path class="cls-6" d="M36,56.64a33.2,33.2,0,1,1,51.8,0h3.35a35.88,35.88,0,1,0-58.49,0Z"/></g></g></svg>