<svg xmlns="http://www.w3.org/2000/svg" viewBox="0 0 69.45 56.54"><defs><style>.cls-1{fill:#f6f4ef;}</style></defs><title>promo-hook_1</title><g id="Capa_2" data-name="Capa 2"><g id="Capa_1-2" data-name="Capa 1"><rect class="cls-1" y="37.64" width="69.39" height="0.66"/><path class="cls-1" d="M2.16,43.27h5.9v1H3.19V47.5H8v1H3.19v4H8v1H2.16Z"/><path class="cls-1" d="M9.3,46h1v1.36a4.17,4.17,0,0,1,1.3-1.17,3.21,3.21,0,0,1,1.55-.39,2.71,2.71,0,0,1,1.52.44,2.53,2.53,0,0,1,1,1.16,6.23,6.23,0,0,1,.31,2.29v3.92H15V49.93a9.21,9.21,0,0,0-.11-1.76A1.9,1.9,0,0,0,14.2,47a1.94,1.94,0,0,0-1.26-.39,2.43,2.43,0,0,0-1.59.59,2.75,2.75,0,0,0-.93,1.46,10.25,10.25,0,0,0-.14,2.07v2.79h-1Z"/><path class="cls-1" d="M24.22,46h1V52a7,7,0,0,1-.28,2.34A3,3,0,0,1,23.59,56a4.4,4.4,0,0,1-2.29.57,5.37,5.37,0,0,1-1.76-.28,3.49,3.49,0,0,1-1.27-.74,4.64,4.64,0,0,1-.9-1.37h1.06a2.8,2.8,0,0,0,1.12,1.12,3.67,3.67,0,0,0,1.71.36A3.52,3.52,0,0,0,23,55.26a2.29,2.29,0,0,0,1-.94,4.1,4.1,0,0,0,.29-1.82v-.39a3.53,3.53,0,0,1-1.35,1.07,3.91,3.91,0,0,1-1.69.38,4,4,0,0,1-2-.52,3.66,3.66,0,0,1-1.43-1.41,3.76,3.76,0,0,1-.51-1.93,4,4,0,0,1,2-3.42,3.93,3.93,0,0,1,2-.53,3.57,3.57,0,0,1,1.59.36,4.25,4.25,0,0,1,1.42,1.16Zm-2.88.75a3.09,3.09,0,0,0-1.55.4,3,3,0,0,0-1.12,1.11,3.05,3.05,0,0,0-.4,1.54,2.78,2.78,0,0,0,.84,2.07,3,3,0,0,0,2.17.81,3,3,0,0,0,2.17-.81,2.85,2.85,0,0,0,.82-2.13,3.13,3.13,0,0,0-.37-1.54,2.87,2.87,0,0,0-1.07-1.06A3,3,0,0,0,21.34,46.7Z"/><path class="cls-1" d="M34.51,46v7.61h-1V52.25a4.3,4.3,0,0,1-1.38,1.13,3.79,3.79,0,0,1-1.68.37,3.71,3.71,0,0,1-2.76-1.17,3.93,3.93,0,0,1-1.14-2.85,3.86,3.86,0,0,1,1.15-2.81,3.77,3.77,0,0,1,2.78-1.17,3.51,3.51,0,0,1,1.69.4,4,4,0,0,1,1.34,1.2V46Zm-3.91.75A2.94,2.94,0,0,0,28,48.23a3.08,3.08,0,0,0-.41,1.53A3.14,3.14,0,0,0,28,51.3a3,3,0,0,0,1.11,1.14,2.91,2.91,0,0,0,1.49.41,3,3,0,0,0,1.52-.4,2.86,2.86,0,0,0,1.11-1.1,3.11,3.11,0,0,0,.39-1.56,3,3,0,0,0-.87-2.21A2.87,2.87,0,0,0,30.6,46.7Z"/><path class="cls-1" d="M36.34,46h1v1.36a4.17,4.17,0,0,1,1.3-1.17,3.22,3.22,0,0,1,1.56-.39,2.68,2.68,0,0,1,1.51.44,2.53,2.53,0,0,1,1,1.16A6.23,6.23,0,0,1,43,49.64v3.92H42V49.93a9.21,9.21,0,0,0-.11-1.76A1.9,1.9,0,0,0,41.24,47,1.94,1.94,0,0,0,40,46.65a2.43,2.43,0,0,0-1.59.59,2.75,2.75,0,0,0-.93,1.46,10.25,10.25,0,0,0-.14,2.07v2.79h-1Z"/><path class="cls-1" d="M52.09,47.53l-.78.48a3.25,3.25,0,0,0-2.74-1.34,3.16,3.16,0,0,0-2.31.9,2.93,2.93,0,0,0-.92,2.17,3.11,3.11,0,0,0,.42,1.57,3,3,0,0,0,1.16,1.14,3.42,3.42,0,0,0,1.66.4,3.32,3.32,0,0,0,2.73-1.33l.78.51a3.68,3.68,0,0,1-1.46,1.27,4.76,4.76,0,0,1-2.1.45,4.14,4.14,0,0,1-3-1.14,3.76,3.76,0,0,1-1.19-2.79,4,4,0,0,1,.55-2.06,4.1,4.1,0,0,1,1.53-1.48,4.54,4.54,0,0,1,2.18-.53,4.79,4.79,0,0,1,1.46.23,4.42,4.42,0,0,1,1.19.6A3.33,3.33,0,0,1,52.09,47.53Z"/><path class="cls-1" d="M53.6,43h1v4.3a4.2,4.2,0,0,1,1.31-1.17,3.15,3.15,0,0,1,1.54-.39,2.71,2.71,0,0,1,1.52.44,2.51,2.51,0,0,1,1,1.16,6.15,6.15,0,0,1,.32,2.29v3.92h-1V49.93a9.21,9.21,0,0,0-.11-1.76A2,2,0,0,0,58.49,47a1.91,1.91,0,0,0-1.25-.39,2.43,2.43,0,0,0-1.59.59,2.75,2.75,0,0,0-.93,1.46,10.25,10.25,0,0,0-.14,2.07v2.79h-1Z"/><path class="cls-1" d="M68.37,51l.83.44a4.67,4.67,0,0,1-.94,1.28,3.78,3.78,0,0,1-1.2.75,4.16,4.16,0,0,1-1.51.25,3.61,3.61,0,0,1-2.91-1.22,4.17,4.17,0,0,1-.16-5.34,3.64,3.64,0,0,1,3-1.44,3.75,3.75,0,0,1,3.11,1.48,4.11,4.11,0,0,1,.84,2.6H62.6A3.08,3.08,0,0,0,63.45,52a2.67,2.67,0,0,0,2,.85,3.32,3.32,0,0,0,1.13-.2,3,3,0,0,0,.94-.54A4.66,4.66,0,0,0,68.37,51Zm0-2.05a3.22,3.22,0,0,0-.57-1.25,2.71,2.71,0,0,0-1-.75,3,3,0,0,0-1.3-.29,2.78,2.78,0,0,0-1.92.72A3.18,3.18,0,0,0,62.7,49Z"/><path class="cls-1" d="M7,33.46V15.53H2.6l1.83-3.66h6.93V33.46Z"/><path class="cls-1" d="M36.94,22.73c0,3.55-.71,6.33-2.13,8.32a6.86,6.86,0,0,1-5.92,3,6.85,6.85,0,0,1-5.93-3q-2.13-3-2.13-8.34c0-3.54.72-6.31,2.14-8.3a6.87,6.87,0,0,1,5.92-3,6.88,6.88,0,0,1,5.94,3C36.23,16.36,36.94,19.14,36.94,22.73Zm-11.59,0a12.67,12.67,0,0,0,.91,5.4,2.77,2.77,0,0,0,5.24,0,13.15,13.15,0,0,0,.89-5.46,12.92,12.92,0,0,0-.89-5.41,2.77,2.77,0,0,0-5.24,0A12.76,12.76,0,0,0,25.35,22.75Z"/><path class="cls-1" d="M54.91,21.54a3,3,0,1,1-3-2.88A2.79,2.79,0,0,1,54.91,21.54Zm-.88,0a2.09,2.09,0,1,0-2.09,2.09A2,2,0,0,0,54,21.54Zm4.89-3.08.66.35-8.67,15-.66-.35Zm1.93,12.25a3,3,0,1,1-3-2.88A2.8,2.8,0,0,1,60.85,30.71Zm-.88,0a2.09,2.09,0,1,0-2.09,2.09A2,2,0,0,0,60,30.71Z"/><path class="cls-1" d="M10.24,2.72A4.28,4.28,0,0,0,9,1.91a3.6,3.6,0,0,0-1.4-.26,3.25,3.25,0,0,0-2.43.91A3.32,3.32,0,0,0,4.22,5a3.34,3.34,0,0,0,.84,2.4,3,3,0,0,0,2.3.88A4.09,4.09,0,0,0,8.9,8a4,4,0,0,0,1.32-.83v2.1a5.45,5.45,0,0,1-1.37.57,5.73,5.73,0,0,1-1.51.19A5.16,5.16,0,0,1,3.58,8.63,4.81,4.81,0,0,1,2.11,5a4.77,4.77,0,0,1,1.47-3.6A5.23,5.23,0,0,1,7.37,0,6.85,6.85,0,0,1,8.88.16a6.62,6.62,0,0,1,1.43.51Z"/><path class="cls-1" d="M22.23,5A5,5,0,0,1,21.85,7a4.81,4.81,0,0,1-1.1,1.61,5.22,5.22,0,0,1-1.68,1.09,5.09,5.09,0,0,1-3.65.08,5.17,5.17,0,0,1-2.93-2.57A4.87,4.87,0,0,1,12,5a5,5,0,0,1,.38-1.94A5.16,5.16,0,0,1,13.5,1.48,5.33,5.33,0,0,1,15.17.4a5.15,5.15,0,0,1,2-.39A5.07,5.07,0,0,1,19.08.4a5.45,5.45,0,0,1,1.67,1.08,4.9,4.9,0,0,1,1.1,1.62A5,5,0,0,1,22.23,5Zm-5.1,3.2a2.84,2.84,0,0,0,2.15-.91A3.26,3.26,0,0,0,20.13,5a3.23,3.23,0,0,0-.86-2.28,2.78,2.78,0,0,0-2.14-.93A2.83,2.83,0,0,0,15,2.74,3.21,3.21,0,0,0,14.12,5,3.22,3.22,0,0,0,15,7.32,2.82,2.82,0,0,0,17.13,8.23Z"/><path class="cls-1" d="M24.25,9.8V.23h2.12L30.61,5.8a4.36,4.36,0,0,1,.4.66c.15.29.3.62.46,1a8,8,0,0,1-.11-.84q0-.42,0-1V.23h2V9.8h-2L26.92,4.13a4.11,4.11,0,0,1-.39-.67c-.15-.28-.3-.63-.46-1a7.53,7.53,0,0,1,.1.83c0,.28,0,.64,0,1.06V9.8Z"/></g></g></svg>