<svg xmlns="http://www.w3.org/2000/svg" viewBox="0 0 89.94 56.64"><defs><style>.cls-1{fill:#f6f4ef;}</style></defs><title>promo-plazo_1</title><g id="Capa_2" data-name="Capa 2"><g id="Capa_1-2" data-name="Capa 1"><path class="cls-1" d="M1.33,9.8V.23H3.38V4.07H7.53V.23h2V9.8h-2v-4H3.38v4Z"/><path class="cls-1" d="M10.86,9.8,14.5.23h2.34L20.53,9.8H18.21l-.78-2H13.72l-.66,2ZM17,6.16,15.88,3.07c0-.1-.07-.25-.12-.48s-.1-.49-.15-.81c-.06.31-.11.59-.16.83a3.78,3.78,0,0,1-.12.49l-1,3.06Z"/><path class="cls-1" d="M21.22,8.58l1.14-1.29a1.73,1.73,0,0,0,.69.84,2,2,0,0,0,1.07.3,1.74,1.74,0,0,0,1.14-.34,1.1,1.1,0,0,0,.42-.91c0-.46-.47-.91-1.4-1.36l-.71-.35a5.34,5.34,0,0,1-1.74-1.28,2.35,2.35,0,0,1-.48-1.48A2.4,2.4,0,0,1,22.29.76,3.7,3.7,0,0,1,24.72,0a3.46,3.46,0,0,1,1.5.3,3.22,3.22,0,0,1,1.12,1L26.13,2.41a1.5,1.5,0,0,0-.57-.62,1.69,1.69,0,0,0-.86-.21,1.44,1.44,0,0,0-1,.31,1,1,0,0,0-.38.78c0,.51.5,1,1.48,1.39l.45.19a5.12,5.12,0,0,1,1.8,1.26,2.44,2.44,0,0,1,.59,1.6,2.7,2.7,0,0,1-.92,2.14,3.6,3.6,0,0,1-2.47.8,4.18,4.18,0,0,1-1.88-.38A2.53,2.53,0,0,1,21.22,8.58Z"/><path class="cls-1" d="M33.2,2V9.8H31.15V2H28.81V.23h6.73V2Z"/><path class="cls-1" d="M35.31,9.8,39,.23h2.34L45,9.8H42.65l-.78-2h-3.7l-.67,2ZM41.4,6.16,40.32,3.07c0-.1-.06-.25-.11-.48s-.1-.49-.15-.81c-.06.31-.11.59-.17.83s-.09.41-.11.49l-1,3.06Z"/><path class="cls-1" d="M1.5,43.38H3.55a12.08,12.08,0,0,1,2.38.15,2.54,2.54,0,0,1,2,2.59,2.55,2.55,0,0,1-.55,1.69,2.61,2.61,0,0,1-1.5.9,13.33,13.33,0,0,1-2.61.17H2.53v4.78h-1Zm1,1v3.49l1.74,0a4.53,4.53,0,0,0,1.55-.19,1.62,1.62,0,0,0,.77-.62,1.77,1.77,0,0,0,0-1.91,1.57,1.57,0,0,0-.74-.61,4.51,4.51,0,0,0-1.5-.18Z"/><path class="cls-1" d="M17,46.05v7.61h-1v-1.3a4.27,4.27,0,0,1-1.38,1.12,3.86,3.86,0,0,1-4.44-.79,3.93,3.93,0,0,1-1.14-2.85A3.86,3.86,0,0,1,10.26,47,3.77,3.77,0,0,1,13,45.86a3.55,3.55,0,0,1,1.7.4,3.82,3.82,0,0,1,1.33,1.19v-1.4Zm-3.92.75a2.94,2.94,0,0,0-2.61,1.53,3.14,3.14,0,0,0-.41,1.54,3.08,3.08,0,0,0,.42,1.54,3,3,0,0,0,1.1,1.14,2.93,2.93,0,0,0,1.49.41,3.08,3.08,0,0,0,1.53-.41,2.84,2.84,0,0,0,1.11-1.09,3.27,3.27,0,0,0,.38-1.56,3,3,0,0,0-.87-2.21A2.88,2.88,0,0,0,13.12,46.8Z"/><path class="cls-1" d="M18.5,46.05h1v1.12a3.46,3.46,0,0,1,.94-1,1.92,1.92,0,0,1,1-.32,1.7,1.7,0,0,1,.86.26l-.51.82a1.31,1.31,0,0,0-.52-.13,1.4,1.4,0,0,0-.94.4,2.61,2.61,0,0,0-.69,1.25,12.07,12.07,0,0,0-.18,2.63v2.57h-1Z"/><path class="cls-1" d="M30.38,46.05v7.61h-1v-1.3A4.27,4.27,0,0,1,28,53.48a3.86,3.86,0,0,1-4.44-.79,3.93,3.93,0,0,1-1.14-2.85A3.83,3.83,0,0,1,23.61,47a3.77,3.77,0,0,1,2.78-1.17,3.55,3.55,0,0,1,1.7.4,3.82,3.82,0,0,1,1.33,1.19v-1.4Zm-3.91.75a3,3,0,0,0-1.51.4,3,3,0,0,0-1.1,1.13,3.14,3.14,0,0,0-.41,1.54,3.08,3.08,0,0,0,.42,1.54A3,3,0,0,0,25,52.55a2.93,2.93,0,0,0,1.49.41A3.08,3.08,0,0,0,28,52.55a2.75,2.75,0,0,0,1.1-1.09,3.17,3.17,0,0,0,.39-1.56,3,3,0,0,0-.87-2.21A2.88,2.88,0,0,0,26.47,46.8Z"/><path class="cls-1" d="M35.82,46.05h1v1.4a3.85,3.85,0,0,1,1.34-1.19,3.48,3.48,0,0,1,1.68-.4A3.73,3.73,0,0,1,42.59,47a3.83,3.83,0,0,1,1.16,2.81,3.9,3.9,0,0,1-1.15,2.85,3.83,3.83,0,0,1-4.42.79,4.27,4.27,0,0,1-1.38-1.12v4.09h-1Zm3.92.75a2.88,2.88,0,0,0-2.14.89,3,3,0,0,0-.87,2.21,3.17,3.17,0,0,0,.39,1.56,2.84,2.84,0,0,0,1.11,1.09,3.07,3.07,0,0,0,1.52.41,2.93,2.93,0,0,0,1.49-.41,3,3,0,0,0,1.1-1.14,3.07,3.07,0,0,0,.41-1.54,3.13,3.13,0,0,0-.4-1.54,2.94,2.94,0,0,0-2.61-1.53Z"/><path class="cls-1" d="M52.79,46.05v7.61h-1v-1.3a4.27,4.27,0,0,1-1.38,1.12,3.76,3.76,0,0,1-1.67.38A3.71,3.71,0,0,1,46,52.69a3.94,3.94,0,0,1-1.15-2.85A3.83,3.83,0,0,1,46,47a3.76,3.76,0,0,1,2.78-1.17,3.51,3.51,0,0,1,1.69.4,3.74,3.74,0,0,1,1.33,1.19v-1.4Zm-3.91.75a3.06,3.06,0,0,0-3,3.07,3.17,3.17,0,0,0,.41,1.54,3,3,0,0,0,1.11,1.14,2.91,2.91,0,0,0,1.49.41,3.07,3.07,0,0,0,1.52-.41,2.84,2.84,0,0,0,1.11-1.09,3.17,3.17,0,0,0,.39-1.56A3,3,0,0,0,51,47.69,2.9,2.9,0,0,0,48.88,46.8Z"/><path class="cls-1" d="M61.18,46.05h1v6.07a7,7,0,0,1-.28,2.34,3.06,3.06,0,0,1-1.34,1.62,4.43,4.43,0,0,1-2.28.56,5.33,5.33,0,0,1-1.76-.27,3.56,3.56,0,0,1-1.27-.75,4.22,4.22,0,0,1-.9-1.36h1.06a2.87,2.87,0,0,0,1.12,1.12,3.62,3.62,0,0,0,1.7.36,3.49,3.49,0,0,0,1.69-.37,2.32,2.32,0,0,0,1-.94,4.28,4.28,0,0,0,.29-1.82v-.4a3.72,3.72,0,0,1-1.35,1.08,4,4,0,0,1-3.67-.15,3.7,3.7,0,0,1-1.43-1.4,4,4,0,0,1,0-3.91,3.81,3.81,0,0,1,1.46-1.44,3.89,3.89,0,0,1,1.95-.53,3.78,3.78,0,0,1,1.6.35,4.4,4.4,0,0,1,1.42,1.17Zm-2.89.75a3.16,3.16,0,0,0-1.54.4,2.87,2.87,0,0,0-1.12,1.12,3,3,0,0,0-.41,1.53,2.75,2.75,0,0,0,.84,2.07,3.31,3.31,0,0,0,4.35,0,2.86,2.86,0,0,0,.82-2.14,3.1,3.1,0,0,0-.38-1.53,2.75,2.75,0,0,0-1.07-1.07A3,3,0,0,0,58.29,46.8Z"/><path class="cls-1" d="M71.47,46.05v7.61h-1v-1.3a4.27,4.27,0,0,1-1.38,1.12,3.76,3.76,0,0,1-1.67.38,3.71,3.71,0,0,1-2.76-1.17,3.9,3.9,0,0,1-1.15-2.85A3.83,3.83,0,0,1,64.7,47a3.75,3.75,0,0,1,2.77-1.17,3.55,3.55,0,0,1,1.7.4,3.74,3.74,0,0,1,1.33,1.19v-1.4Zm-3.92.75a2.94,2.94,0,0,0-2.61,1.53,3.13,3.13,0,0,0-.4,1.54A3.07,3.07,0,0,0,65,51.41a3,3,0,0,0,1.11,1.14,2.91,2.91,0,0,0,1.49.41,3.07,3.07,0,0,0,1.52-.41,2.84,2.84,0,0,0,1.11-1.09,3.16,3.16,0,0,0,.38-1.56,3.06,3.06,0,0,0-.86-2.21A2.9,2.9,0,0,0,67.55,46.8Z"/><path class="cls-1" d="M72.93,46.05h1v1.12a3.6,3.6,0,0,1,.94-1,1.92,1.92,0,0,1,1-.32,1.67,1.67,0,0,1,.86.26l-.51.82a1.27,1.27,0,0,0-.51-.13,1.4,1.4,0,0,0-1,.4,2.61,2.61,0,0,0-.69,1.25,12.07,12.07,0,0,0-.18,2.63v2.57h-1Z"/><path class="cls-1" d="M4.36,34.38V16.45H0l1.83-3.67H8.76v21.6Z"/><path class="cls-1" d="M19.25,29.66a11,11,0,0,0,2.64,1.39,7.35,7.35,0,0,0,2.39.37,5,5,0,0,0,3.4-1.07,3.63,3.63,0,0,0,1.24-2.89,3.66,3.66,0,0,0-1.21-2.94,5.21,5.21,0,0,0-3.46-1,7.36,7.36,0,0,0-2.2.32,6.32,6.32,0,0,0-1.86,1l-1-.64,2.71-11.35H33.12v3.67H24.7l-1.06,4.42a11,11,0,0,1,1.46-.35,9.33,9.33,0,0,1,1.4-.11,6.85,6.85,0,0,1,5,1.94,6.72,6.72,0,0,1,2,5,7,7,0,0,1-2.38,5.57A9.68,9.68,0,0,1,24.58,35a12.39,12.39,0,0,1-3.37-.43,10.1,10.1,0,0,1-2.91-1.34Z"/><path class="cls-1" d="M42.55,31.64H39l-1.11,2.74h-.6L40.8,25.8l3.46,8.58h-.6Zm-.2-.49L40.79,27.2,39.2,31.15Z"/><path class="cls-1" d="M44.84,34.38V26l7,7.32V26.05h.55v8.54l-7-7.32v7.11ZM47,25.15a1.86,1.86,0,0,1,.29-.48.79.79,0,0,1,.56-.27,2.15,2.15,0,0,1,.8.21,2.21,2.21,0,0,0,.74.22.39.39,0,0,0,.31-.15,1,1,0,0,0,.19-.32l.36.27a1.36,1.36,0,0,1-.35.54.85.85,0,0,1-.58.21,1.84,1.84,0,0,1-.72-.21,2.1,2.1,0,0,0-.73-.22.44.44,0,0,0-.35.17,1.68,1.68,0,0,0-.16.3Z"/><path class="cls-1" d="M62.11,30.23a4.33,4.33,0,1,1-4.32-4.3A4.26,4.26,0,0,1,62.11,30.23Zm-.57,0A3.75,3.75,0,1,0,57.79,34,3.71,3.71,0,0,0,61.54,30.23Z"/><path class="cls-1" d="M67,27.46a1.79,1.79,0,0,0-1.64-1A1.48,1.48,0,0,0,63.8,28c0,.9.63,1.2,1.46,1.62a11,11,0,0,1,1.67.87,1.84,1.84,0,0,1,.88,1.61,2.49,2.49,0,0,1-2.6,2.44,2.35,2.35,0,0,1-1.93-.88,2.56,2.56,0,0,1-.54-.91l.47-.22a3.34,3.34,0,0,0,.45.8,2,2,0,0,0,1.57.71,1.94,1.94,0,0,0,2-1.93,1.48,1.48,0,0,0-.81-1.31L65,30.06A3.19,3.19,0,0,1,63.49,29a1.77,1.77,0,0,1-.26-.95,2,2,0,0,1,2.13-2.08,2.24,2.24,0,0,1,2,1.19Z"/><rect class="cls-1" x="0.92" y="37.74" width="89.03" height="0.66"/></g></g></svg>