<svg xmlns="http://www.w3.org/2000/svg" viewBox="0 0 75.28 119.8"><defs><style>.cls-1{font-size:13.51px;font-family:FuturaPT-Medium, Futura PT;font-weight:500;}.cls-1,.cls-4{fill:#fff;}.cls-2{letter-spacing:-0.11em;}.cls-3{letter-spacing:-0.02em;}</style></defs><g id="Capa_2" data-name="Capa 2"><g id="Capa_1-2" data-name="Capa 1"><text class="cls-1" transform="translate(0 83.74)"><tspan class="cls-2">1</tspan><tspan x="6.15" y="0">5 AÑOS DE </tspan><tspan x="12.26" y="16.21">CRÉDI</tspan><tspan class="cls-3" x="46.84" y="16.21">T</tspan><tspan x="52.35" y="16.21">O</tspan></text><path class="cls-4" d="M49.25,17.53H13.71a1.13,1.13,0,0,0-1.13,1.12V44.83A1.13,1.13,0,0,0,13.71,46H38.27a13.18,13.18,0,0,1-.23-1.4H35.76V40.23h2.5c.05-.25.12-.5.18-.75H35.76V35.16h4.76c.19-.26.38-.51.58-.75H35.76V30.09H42v3.36c.35-.34.72-.67,1.11-1V30.09h4.64a12.69,12.69,0,0,1,2.64-.48v-11A1.13,1.13,0,0,0,49.25,17.53ZM20,44.56H13.76V40.23H20Zm0-5.08H13.76V35.16H20Zm0-5.07H13.76V30.09H20Zm0-5.07H13.76V25H20Zm7.33,15.22H21.09V40.23h6.23Zm0-5.08H21.09V35.16h6.23Zm0-5.07H21.09V30.09h6.23Zm0-5.07H21.09V25h6.23Zm7.34,15.22H28.43V40.23h6.23Zm0-5.08H28.43V35.16h6.23Zm0-5.07H28.43V30.09h6.23Zm0-5.07H28.43V25h6.23Zm7.33,0H35.76V25H42Zm-19-6.26V19.34H48.51v3.74Zm26.39,6.26H43.1V25h6.23Z"/><rect class="cls-4" x="24.02" y="24.05" width="0.37" height="6.25" transform="translate(-11.93 31.56) rotate(-55.23)"/><rect class="cls-4" x="21.07" y="26.99" width="6.25" height="0.37" transform="matrix(0.82, -0.57, 0.57, 0.82, -11.16, 18.59)"/><rect class="cls-4" x="31.34" y="24.05" width="0.37" height="6.25" transform="translate(-8.78 37.58) rotate(-55.24)"/><rect class="cls-4" x="28.4" y="26.99" width="6.25" height="0.37" transform="translate(-9.87 22.85) rotate(-34.79)"/><rect class="cls-4" x="24.02" y="29.11" width="0.37" height="6.25" transform="translate(-16.08 33.73) rotate(-55.24)"/><rect class="cls-4" x="21.07" y="32.05" width="6.25" height="0.37" transform="translate(-14.04 19.49) rotate(-34.67)"/><polygon class="cls-4" points="19.25 29.11 14.11 25.55 14.32 25.25 19.45 28.81 19.25 29.11"/><polygon class="cls-4" points="14.32 29.11 14.11 28.81 19.25 25.25 19.45 25.55 14.32 29.11"/><polygon class="cls-4" points="19.25 34.17 14.11 30.61 14.32 30.31 19.45 33.87 19.25 34.17"/><polygon class="cls-4" points="14.32 34.17 14.11 33.87 19.25 30.31 19.45 30.61 14.32 34.17"/><rect class="cls-4" x="31.34" y="29.11" width="0.37" height="6.25" transform="translate(-12.93 39.76) rotate(-55.24)"/><rect class="cls-4" x="28.4" y="32.05" width="6.25" height="0.37" transform="translate(-12.76 23.76) rotate(-34.8)"/><rect class="cls-4" x="38.67" y="24.05" width="0.37" height="6.25" transform="translate(-5.63 43.6) rotate(-55.24)"/><rect class="cls-4" x="35.73" y="26.99" width="6.25" height="0.37" transform="translate(-8.56 27.03) rotate(-34.79)"/><rect class="cls-4" x="46" y="24.05" width="0.37" height="6.25" transform="translate(-2.48 49.62) rotate(-55.24)"/><rect class="cls-4" x="43.06" y="26.99" width="6.25" height="0.37" transform="translate(-7.25 31.21) rotate(-34.79)"/><path class="cls-4" d="M51.48,29.56c-.38,0-.74,0-1.1.05a12.69,12.69,0,0,0-2.64.48,13.54,13.54,0,0,0-4.64,2.38c-.39.31-.76.64-1.11,1s-.61.63-.89,1-.39.49-.58.75a13.72,13.72,0,0,0-2.08,4.32c-.06.25-.13.5-.18.75a13.38,13.38,0,0,0-.3,2.85A14.52,14.52,0,0,0,38,44.56a13.18,13.18,0,0,0,.23,1.4,13.52,13.52,0,1,0,13.21-16.4Zm0,24.45a10.94,10.94,0,0,1-10.55-8,11.19,11.19,0,0,1-.28-1.4,10.41,10.41,0,0,1-.1-1.48,10.71,10.71,0,0,1,.38-2.85,7.16,7.16,0,0,1,.23-.75A10.79,10.79,0,0,1,42,37.65a10.2,10.2,0,0,1,1.11-1.58,9.15,9.15,0,0,1,.85-.91c.28-.26.57-.52.87-.75a11,11,0,0,1,4.51-2,8.85,8.85,0,0,1,1.05-.15,9.87,9.87,0,0,1,1.1-.06,10.93,10.93,0,0,1,0,21.86Z"/><polygon class="cls-4" points="59.13 48.33 50.93 43.39 50.93 37.86 52.02 37.86 52.02 42.77 59.7 47.39 59.13 48.33"/><path class="cls-4" d="M11.74,56.64a33.2,33.2,0,1,1,51.8,0h3.34a35.87,35.87,0,1,0-58.48,0Z"/></g></g></svg>