<svg xmlns="http://www.w3.org/2000/svg" viewBox="0 0 172.14 34.27"><defs><style>.cls-1{fill:#002c55;}.cls-2{fill:#969798;}</style></defs><title>logo-habitta</title><g id="Capa_2" data-name="Capa 2"><g id="Capa_1-2" data-name="Capa 1"><polygon class="cls-1" points="21.45 9.15 10.25 9.15 10.25 0.54 0 0.54 0 33.71 10.25 33.71 10.25 17.3 21.45 17.3 21.45 33.71 31.74 33.71 31.74 0.54 21.45 0.54 21.45 9.15"/><path class="cls-1" d="M81.33,9.14a10.12,10.12,0,0,0-3.88.72A9.17,9.17,0,0,0,74.31,12V.54H65V33.71h8.61V30.16a11.76,11.76,0,0,0,3.31,3.05,9.55,9.55,0,0,0,4.43,1,9.35,9.35,0,0,0,5.15-1.48,9.84,9.84,0,0,0,3.63-4.48,17.24,17.24,0,0,0,1.31-6.93q0-5.91-2.87-9.06A9.39,9.39,0,0,0,81.33,9.14Zm-.2,17a3.45,3.45,0,0,1-2.77,1.37,3.68,3.68,0,0,1-3-1.39,7,7,0,0,1-1.16-4.49,6.38,6.38,0,0,1,1.18-4.22A3.86,3.86,0,0,1,78.5,16a3.33,3.33,0,0,1,2.66,1.33,6.57,6.57,0,0,1,1.09,4.19C82.25,23.69,81.88,25.23,81.13,26.14Z"/><rect class="cls-1" x="94.26" y="0.54" width="9.21" height="6.34"/><rect class="cls-1" x="94.26" y="9.15" width="9.21" height="24.56"/><path class="cls-1" d="M171.2,31.25a13.12,13.12,0,0,1-.21-2.66V18a10.45,10.45,0,0,0-.68-3.56,6.8,6.8,0,0,0-1.86-2.89,8.53,8.53,0,0,0-4.18-1.93,38,38,0,0,0-6.65-.47,27.77,27.77,0,0,0-4.8.39,11.55,11.55,0,0,0-3.48,1.08,8,8,0,0,0-2.71,2.3,9.92,9.92,0,0,0-1.43,3.63l8.8.93a4,4,0,0,1,1.42-2.13,6.44,6.44,0,0,1,3.4-.72,3.53,3.53,0,0,1,2.46.68,3.21,3.21,0,0,1,.7,2.37,29.13,29.13,0,0,1-3.26,1.1q-1.53.42-6.71,1.46c-2.89.57-4.86,1.45-5.93,2.62a6.45,6.45,0,0,0-1.61,4.51,6.29,6.29,0,0,0,2.23,4.9c1.49,1.33,3.66,2,6.53,2a15.08,15.08,0,0,0,5.68-1,11.91,11.91,0,0,0,3.59-2.49,10.44,10.44,0,0,0,.32,1.53,8.35,8.35,0,0,0,.68,1.41h8.64A11.79,11.79,0,0,1,171.2,31.25ZM162,23.77a6.12,6.12,0,0,1-.55,2.8,4.59,4.59,0,0,1-1.88,1.82,5.81,5.81,0,0,1-2.86.74,3.22,3.22,0,0,1-2.23-.69,2.27,2.27,0,0,1-.76-1.77,2.32,2.32,0,0,1,.77-1.7A9.24,9.24,0,0,1,158,23.5q2.07-.53,4-1.2Z"/><path class="cls-1" d="M44.07,17.48l-8.8-.93a9.74,9.74,0,0,1,1.44-3.63,7.87,7.87,0,0,1,2.7-2.3,11,11,0,0,1,3.48-1.08,27.77,27.77,0,0,1,4.8-.39,39.05,39.05,0,0,1,6.65.46,8.62,8.62,0,0,1,4.19,1.94,6.81,6.81,0,0,1,1.85,2.88A10.55,10.55,0,0,1,61.06,18V28.61a13,13,0,0,0,.21,2.65,12.44,12.44,0,0,0,.94,2.46H53.57a9.22,9.22,0,0,1-.68-1.41,11.05,11.05,0,0,1-.31-1.53A12.06,12.06,0,0,1,49,33.27a15,15,0,0,1-5.68,1c-2.87,0-5-.66-6.53-2a6.33,6.33,0,0,1-2.22-4.91,6.44,6.44,0,0,1,1.6-4.5q1.6-1.77,5.93-2.62c3.45-.7,5.69-1.18,6.72-1.46a33,33,0,0,0,3.26-1.1,3.25,3.25,0,0,0-.71-2.38,3.52,3.52,0,0,0-2.46-.67,6.44,6.44,0,0,0-3.4.72A4,4,0,0,0,44.07,17.48Zm8,4.84q-1.91.67-4,1.2A9,9,0,0,0,44.54,25a2.37,2.37,0,0,0,0,3.47,3.22,3.22,0,0,0,2.23.69,5.68,5.68,0,0,0,2.86-.75,4.47,4.47,0,0,0,1.88-1.82,6.07,6.07,0,0,0,.56-2.79ZM48.1.54H56L49,6.88H44.54Z"/><path class="cls-2" d="M120.77,27.76a1.69,1.69,0,0,1-1.58-.77,4.53,4.53,0,0,1-.29-2V15.89H124V9.15H118.9V.56l-9.23,4.73V9.15h-3.4v6.74h3.4v9a15.67,15.67,0,0,0,.78,5.81,5.36,5.36,0,0,0,2.41,2.68,11,11,0,0,0,5.06.88,30.37,30.37,0,0,0,6.38-.74l-.68-6.36A10.16,10.16,0,0,1,120.77,27.76Z"/><path class="cls-2" d="M127.17,6.52a1.7,1.7,0,0,1,1.59.76,4.68,4.68,0,0,1,.29,2v9.07H124v6.74h5.07v8.59L138.28,29V25.12h3.39V18.38h-3.39v-9a15.77,15.77,0,0,0-.78-5.82A5.36,5.36,0,0,0,135.09.88,11.1,11.1,0,0,0,130,0a29.91,29.91,0,0,0-6.38.75l.68,6.35A10.08,10.08,0,0,1,127.17,6.52Z"/></g></g></svg>