<svg xmlns="http://www.w3.org/2000/svg" viewBox="0 0 480.45 293.07"><defs><style>.cls-1{fill:#094f59;}.cls-2{fill:#008894;}</style></defs><title>logo</title><g id="Capa_2" data-name="Capa 2"><g id="Capa_1-2" data-name="Capa 1"><path class="cls-1" d="M0,249.82H4.59l14,32.6,14.21-32.6h4.59L19,292H18.1Z"/><path class="cls-1" d="M44.48,249.82H68.66V254h-20v13.22H68.49v4.13H48.7v16.58H68.49V292h-24Z"/><path class="cls-1" d="M76.18,249.82h8.4a50,50,0,0,1,9.52.58,10.78,10.78,0,0,1,6.11,3.69,10.5,10.5,0,0,1,2.36,7,11.26,11.26,0,0,1-1.63,6.06,10.11,10.11,0,0,1-4.63,3.95A21.33,21.33,0,0,1,88,272.42L103.17,292H98L82.78,272.42H80.39V292H76.18ZM80.39,254v14.34l7.27.06a18.21,18.21,0,0,0,6.25-.8A6.53,6.53,0,0,0,97.07,265,7.12,7.12,0,0,0,98.21,261a6.89,6.89,0,0,0-1.15-3.86,6.39,6.39,0,0,0-3-2.48,18.21,18.21,0,0,0-6.21-.75Z"/><path class="cls-1" d="M111.63,249.82h24.18V254h-20v13.22h19.8v4.13h-19.8v16.58h19.8V292h-24Z"/><path class="cls-1" d="M143.09,292V249.82h8.75q9.47,0,13.74,1.52a18.37,18.37,0,0,1,9.59,7.46,22.61,22.61,0,0,1,3.46,12.65,22.13,22.13,0,0,1-2.74,11.15,17.58,17.58,0,0,1-7.11,7.12Q164.4,292,156.52,292Zm4-4H152q8.75,0,12.13-1.09a14,14,0,0,0,7.49-5.58,17.1,17.1,0,0,0,2.72-9.84,18,18,0,0,0-2.95-10.43,14.84,14.84,0,0,0-8.23-5.93q-4-1.22-13-1.21h-3Z"/><path class="cls-1" d="M204,249.82,223.72,292h-4.56l-6.63-13.88H194.35L187.78,292h-4.71L203,249.82Zm-.53,9-7.23,15.27H210.7Z"/><path class="cls-1" d="M225.9,284.15l3.58-2.15q3.79,7,8.75,7a8.42,8.42,0,0,0,4-1,7.07,7.07,0,0,0,2.84-2.65,6.88,6.88,0,0,0,1-3.53,7.21,7.21,0,0,0-1.43-4.16,34.52,34.52,0,0,0-7.23-6.77c-3.52-2.65-5.71-4.58-6.57-5.76a10.55,10.55,0,0,1-2.24-6.45,9.78,9.78,0,0,1,1.32-5,9.41,9.41,0,0,1,3.72-3.57,10.68,10.68,0,0,1,5.2-1.31,11,11,0,0,1,5.58,1.48,19,19,0,0,1,5.49,5.43l-3.44,2.61a16.62,16.62,0,0,0-4.06-4.16,6.94,6.94,0,0,0-3.65-1,5.81,5.81,0,0,0-4.18,1.55,5.06,5.06,0,0,0-1.62,3.81,6.39,6.39,0,0,0,.58,2.67,9.8,9.8,0,0,0,2.09,2.81c.55.54,2.37,1.94,5.45,4.22q5.47,4,7.51,7.2a11.56,11.56,0,0,1,2,6.34,10.78,10.78,0,0,1-3.48,8,11.71,11.71,0,0,1-8.48,3.38,12.41,12.41,0,0,1-7-2.05A18.59,18.59,0,0,1,225.9,284.15Z"/><path class="cls-1" d="M275.77,292V249.82h8.75q9.47,0,13.74,1.52a18.37,18.37,0,0,1,9.59,7.46,22.61,22.61,0,0,1,3.46,12.65,22.13,22.13,0,0,1-2.74,11.15,17.58,17.58,0,0,1-7.11,7.12Q297.08,292,289.2,292Zm4.05-4h4.87q8.74,0,12.14-1.09a14,14,0,0,0,7.48-5.58,17.11,17.11,0,0,0,2.73-9.84,18,18,0,0,0-3-10.43,14.84,14.84,0,0,0-8.23-5.93q-4-1.22-13.05-1.21h-3Z"/><path class="cls-1" d="M319.51,249.82h24.18V254h-20v13.22h19.79v4.13H323.73v16.58h19.79V292h-24Z"/><path class="cls-1" d="M367.24,249.82h4.21v38.12h16.24V292H367.24Z"/><path class="cls-1" d="M393.77,249.82H398V292h-4.22Z"/><path class="cls-1" d="M407.88,249.82h8.4a50.25,50.25,0,0,1,9.53.58,10.84,10.84,0,0,1,6.11,3.69,10.54,10.54,0,0,1,2.35,7,11.25,11.25,0,0,1-1.62,6.06,10.13,10.13,0,0,1-4.64,3.95,21.27,21.27,0,0,1-8.31,1.36L434.87,292h-5.22l-15.17-19.59H412.1V292h-4.22ZM412.1,254v14.34l7.26.06a18.21,18.21,0,0,0,6.25-.8,6.48,6.48,0,0,0,3.16-2.57,7.12,7.12,0,0,0,1.14-3.94,6.89,6.89,0,0,0-1.15-3.86,6.34,6.34,0,0,0-3-2.48,18.19,18.19,0,0,0-6.2-.75Z"/><path class="cls-1" d="M460.54,249.82,480.22,292h-4.56L469,278.13H450.85L444.28,292h-4.71l19.94-42.19Zm-.53,9-7.23,15.27H467.2Z"/><path class="cls-2" d="M212.46,221l-1.12-1.51-10.08-13.4-4.28-5.7-3.08-4.14-4.44-5.88-3.83,6.37-13.7,22.75-4.1,6.85h41.76A3.43,3.43,0,0,0,213,223,3.48,3.48,0,0,0,212.46,221Zm-32.53-1.51,10.14-16.87,2.59,3.47,4.32,5.74,5.76,7.66Z"/><path class="cls-2" d="M133.88,116.39,109.5,83.92c-.15-.21-.3-.39-.45-.57a3.5,3.5,0,0,0-2.42-1h0a3.46,3.46,0,0,0-2.84,1.51L1.89,219.53.77,221A3.48,3.48,0,0,0,.2,223a3.43,3.43,0,0,0,3.44,3.41H56.93l4.14-6.85,19-31.53,26.52-44.06,0,.06,2.9,4.8,3.8,6.36,4.41-5.85,16.14-21.45,4.32-5.74Zm-19.95,26.55L109.77,136l-.09-.18-.3-.51a3.43,3.43,0,0,0-2.75-1.39h0a3.46,3.46,0,0,0-2.84,1.51L53.1,219.53H10.49l96.11-128,0,0,22.94,30.57Z"/><path class="cls-2" d="M408.15,221l-.09-.12L407,219.53l-33.13-44.09-10.5-13.94L359,155.62l-16.62-22.15-4.32-5.7L299.12,76l-4.31-5.73-5.13-6.82L243.09,1.51A3.45,3.45,0,0,0,237.81,1a4.75,4.75,0,0,0-.49.6L190.76,63.46l-5.61,7.45-4.32,5.74-38.44,51.08-4.32,5.74-16.59,22.06-4.41,5.85v0l-10.44,13.85L73.32,219.53,72.23,221a.23.23,0,0,1-.06.12A3.42,3.42,0,0,0,75,226.38h84.73l.57-1a.42.42,0,0,1,.1-.12l.66-1.08.78-1.3,2-3.35,17.3-28.76,3.83-6.36,31.65-52.66,2.51-4.2,3.83-6.36L232.13,106l4-6.64,4.13-6.88,4,6.73,4,6.64,8.81,14.66,3.83,6.37,3,4.92,31.59,52.59,3.84,6.37,17.32,28.82,2,3.26.51.87,1.12,1.88.51.84h84.58a3.41,3.41,0,0,0,3.41-3.41A3.48,3.48,0,0,0,408.15,221Zm-83.56-1.51-2-3.38-18.86-31.32-3.8-6.37L265.33,121l-1.45-2.45-2.36-3.92-9.26-15.42-4-6.61-5.19-8.63a3.46,3.46,0,0,0-2.84-1.51,3.53,3.53,0,0,0-2.81,1.42,4.64,4.64,0,0,0-.36.66l-5,8.21-4,6.61-9.63,16-1.9,3.2-1.9,3.17-34.19,56.85-3.83,6.37-18.83,31.35-2,3.29h-74l24.71-32.83,14.24-18.92,4.44-5.89,17.08-22.72,4.32-5.7,38.44-51.09,4.31-5.73,9.93-13.19L240.25,9.17l40.83,54.29L290.52,76l4.29,5.74,38.9,51.72L338,139.2,355.13,162l4.44,5.89,14.3,19,24.53,32.65Z"/><path class="cls-2" d="M308.39,219.53l-13.67-22.72-3.83-6.37-4.44,5.91L283,201l-4.32,5.74L269,219.53l-.73.94s0,.06-.06.06l-.54.75a3.24,3.24,0,0,0-.45,1.69,3.43,3.43,0,0,0,3.44,3.41h41.79Zm-30.75,0,5.31-7.09,4.32-5.73,3-4,10.11,16.81Z"/><path class="cls-2" d="M480.21,221.73a4.88,4.88,0,0,0-.33-.69l-.09-.12-1.06-1.39-102-135.64a.53.53,0,0,1-.12-.15,3.45,3.45,0,0,0-5.62.12L346.41,116.6l-4.32,5.73,4.32,5.71,16.17,21.51,4.44,5.92,3.8-6.37,3.05-5.07.06-.09,27.61,45.93.06.09,0,.06.06.09,0,.06,17.66,29.36,4.1,6.85H477a3.44,3.44,0,0,0,3.2-2.17,3.5,3.5,0,0,0,.24-1.24A3.3,3.3,0,0,0,480.21,221.73Zm-52.87-2.2L377.1,136a2.82,2.82,0,0,0-.36-.66,3.44,3.44,0,0,0-2.81-1.42h-.06a3.54,3.54,0,0,0-2.75,1.42,2.82,2.82,0,0,0-.36.66l-4.34,7.22-15.73-20.89,23.18-30.81,96.26,128Z"/></g></g></svg>