<?xml version="1.0"?>
<svg xmlns="http://www.w3.org/2000/svg" xmlns:xlink="http://www.w3.org/1999/xlink" xmlns:svgjs="http://svgjs.com/svgjs" version="1.1" width="512" height="512" x="0" y="0" viewBox="0 0 511.984 511.984" style="enable-background:new 0 0 512 512" xml:space="preserve" class=""><g>
<g xmlns="http://www.w3.org/2000/svg">
	<g>
		<g>
			<path d="M238.733,150.149c-3.968-1.685-8.576-0.747-11.627,2.304l-35.115,35.115l-35.115-35.136     c-3.051-3.029-7.659-3.968-11.627-2.304c-3.989,1.643-6.592,5.547-6.592,9.856v341.333c0,5.888,4.779,10.667,10.667,10.667     h85.333c5.888,0,10.667-4.779,10.667-10.667V159.984C245.325,155.675,242.723,151.771,238.733,150.149z M223.992,490.651h-64     V185.733l24.469,24.469c4.16,4.16,10.923,4.16,15.083,0l24.448-24.469V490.651z" fill="#0e2c56" data-original="#000000" style="" class=""/>
			<path d="M71.523,67.099c-4.16-4.16-10.923-4.16-15.083,0l-42.667,42.667c-1.984,2.005-3.115,4.715-3.115,7.552v384     c0,5.888,4.779,10.667,10.667,10.667h85.333c5.888,0,10.667-4.779,10.667-10.667v-384c0-2.837-1.131-5.547-3.136-7.552     L71.523,67.099z M95.992,490.651h-64V121.733l32-32l32,32V490.651z" fill="#0e2c56" data-original="#000000" style="" class=""/>
			<path d="M494.733,192.795c-3.968-1.664-8.555-0.747-11.627,2.304l-24.469,24.469l-88.448-88.448c-4.16-4.16-10.923-4.16-15.083,0     l-35.115,35.115l-77.803-77.781c-4.16-4.16-10.923-4.16-15.083,0l-35.115,35.115L71.544,3.12c-4.16-4.16-10.923-4.16-15.083,0     L13.795,45.787c-4.16,4.16-4.16,10.923,0,15.083c4.16,4.16,10.923,4.16,15.083,0l35.115-35.136l120.469,120.469     c4.16,4.16,10.923,4.16,15.083,0l35.115-35.136l77.803,77.781c4.16,4.16,10.923,4.16,15.083,0l35.115-35.115l80.896,80.917     l-24.448,24.448c-3.029,3.051-3.947,7.637-2.304,11.627c1.643,3.989,5.547,6.592,9.856,6.592h64     c5.888,0,10.667-4.779,10.667-10.667v-64C501.325,198.341,498.723,194.437,494.733,192.795z M479.992,255.984h-27.584     l13.781-13.781l13.803-13.803V255.984z" fill="#0e2c56" data-original="#000000" style="" class=""/>
			<path d="M490.659,298.651h-85.333c-5.888,0-10.667,4.779-10.667,10.667v192c0,5.888,4.779,10.667,10.667,10.667h85.333     c5.888,0,10.667-4.779,10.667-10.667v-192C501.325,303.429,496.547,298.651,490.659,298.651z M479.992,490.651h-64V319.984h64     V490.651z" fill="#0e2c56" data-original="#000000" style="" class=""/>
			<path d="M366.733,192.816c-3.968-1.664-8.555-0.747-11.627,2.304l-35.115,35.115l-35.115-35.136     c-3.051-3.029-7.659-3.947-11.627-2.304c-3.989,1.643-6.592,5.547-6.592,9.856v298.667c0,5.888,4.779,10.667,10.667,10.667     h85.333c5.888,0,10.667-4.779,10.667-10.667V202.651C373.325,198.341,370.723,194.437,366.733,192.816z M351.992,490.651h-64     V228.4l24.469,24.448c4.16,4.16,10.923,4.16,15.083,0l24.448-24.448V490.651z" fill="#0e2c56" data-original="#000000" style="" class=""/>
		</g>
	</g>
</g>
<g xmlns="http://www.w3.org/2000/svg">
</g>
<g xmlns="http://www.w3.org/2000/svg">
</g>
<g xmlns="http://www.w3.org/2000/svg">
</g>
<g xmlns="http://www.w3.org/2000/svg">
</g>
<g xmlns="http://www.w3.org/2000/svg">
</g>
<g xmlns="http://www.w3.org/2000/svg">
</g>
<g xmlns="http://www.w3.org/2000/svg">
</g>
<g xmlns="http://www.w3.org/2000/svg">
</g>
<g xmlns="http://www.w3.org/2000/svg">
</g>
<g xmlns="http://www.w3.org/2000/svg">
</g>
<g xmlns="http://www.w3.org/2000/svg">
</g>
<g xmlns="http://www.w3.org/2000/svg">
</g>
<g xmlns="http://www.w3.org/2000/svg">
</g>
<g xmlns="http://www.w3.org/2000/svg">
</g>
<g xmlns="http://www.w3.org/2000/svg">
</g>
</g></svg>
