<?xml version="1.0" encoding="utf-8"?>
<!-- Generator: Adobe Illustrator 23.0.0, SVG Export Plug-In . SVG Version: 6.00 Build 0)  -->
<svg version="1.1" id="Capa_1" xmlns="http://www.w3.org/2000/svg" xmlns:xlink="http://www.w3.org/1999/xlink" x="0px" y="0px"
	 viewBox="0 0 793.7 609.4" style="enable-background:new 0 0 793.7 609.4;" xml:space="preserve">
<style type="text/css">
	.st0{fill:#001E43;}
	.st1{fill:#9F9D9E;}
	.st2{fill:#AE2F32;}
</style>
<g>
	<g>
		<g>
			<g>
				<path class="st0" d="M36.4,574.8h13.5c0,2.9-0.6,7.2-3.3,10.6c-2.8,3.6-7.2,5.4-12.1,5.4c-9.5,0-16.7-7-16.7-16.6
					c0-9.6,7.4-16.6,16.8-16.6c4.5,0,7.6,1.5,10.1,3.5c1.4,1.1,2.6,2.2,3.9,4.1l-1.7,1.4c-0.9-1.5-2.2-2.9-3.1-3.6
					c-2-1.7-5.2-3.4-9.2-3.4c-8.3,0-14.5,6.6-14.5,14.8c0,8.1,6.1,14.5,14.4,14.5c5.5,0,9.5-2.8,11.2-5.5c1.3-1.9,2-4.6,2.1-6.7
					H36.4V574.8z"/>
				<path class="st0" d="M86.9,559.9H73.6v11.7h13v1.9h-13v14.7h13.3v1.9H71.5V558h15.4V559.9z"/>
				<path class="st0" d="M108.5,590.2v-32.5l27,28.3V558h2.1v33l-27-28.3v27.5H108.5z"/>
				<path class="st0" d="M176.5,559.9h-13.3v11.7h13v1.9h-13v14.7h13.3v1.9H161V558h15.4V559.9z"/>
				<path class="st0" d="M211.6,590.2L201.1,575h-1v15.2H198V558h4.6c2.5,0,4.7,0.2,6.8,1.6c2.5,1.7,3.3,4.4,3.3,6.9
					c0,3.2-1.4,6.5-5.4,7.8c-1.7,0.6-3.2,0.6-4,0.6l10.5,15.2H211.6z M200.2,573.1h3.1c4.6,0,7.3-2.4,7.3-6.6c0-3.2-1.6-4.9-2.9-5.6
					c-1.4-0.8-3.7-1-4.9-1h-2.7V573.1z"/>
				<path class="st0" d="M250.4,579.6h-13.7l-4.3,10.6h-2.3l13.6-33.2l13.4,33.2h-2.3L250.4,579.6z M249.7,577.7l-6-15.3l-6.1,15.3
					H249.7z"/>
				<path class="st0" d="M276.7,590.2v-32.5l27,28.3V558h2.1v33l-27-28.3v27.5H276.7z"/>
				<path class="st0" d="M329.2,590.2V558h6.4c2.8,0,7.8,0.4,11.9,4.5c3.4,3.4,4.6,8.1,4.6,11.6s-1.2,8.2-4.6,11.6
					c-4.1,4.1-9,4.5-11.9,4.5H329.2z M331.3,588.3h4.2c8.5,0,14.3-5.8,14.3-14.1c0-8.3-5.9-14.2-14.3-14.2h-4.2V588.3z"/>
				<path class="st0" d="M405.3,574.2c0,9.3-7.3,16.6-16.7,16.6c-9.5,0-16.7-7.3-16.7-16.6c0-9.3,7.3-16.6,16.7-16.6
					C398,557.6,405.3,564.9,405.3,574.2z M403.1,574.2c0-8.3-6.2-14.7-14.5-14.7c-8.3,0-14.5,6.4-14.5,14.7
					c0,8.2,6.2,14.6,14.5,14.6C396.9,588.8,403.1,582.4,403.1,574.2z"/>
				<path class="st0" d="M454.9,574.9v15.3h-2.1V558h6.2c5.3,0,9.4,2.9,9.4,8.4c0,5.4-3.8,8.5-9.4,8.5H454.9z M454.9,573h4.3
					c4.2,0,7-2.5,7-6.5c0-4-2.7-6.5-7.4-6.5h-3.9V573z"/>
				<path class="st0" d="M502.5,590.2L492.1,575h-1v15.2H489V558h4.6c2.5,0,4.7,0.2,6.8,1.6c2.5,1.7,3.3,4.4,3.3,6.9
					c0,3.2-1.4,6.5-5.4,7.8c-1.7,0.6-3.2,0.6-4,0.6l10.5,15.2H502.5z M491.1,573.1h3.1c4.6,0,7.3-2.4,7.3-6.6c0-3.2-1.6-4.9-2.9-5.6
					c-1.4-0.8-3.7-1-4.9-1h-2.7V573.1z"/>
				<path class="st0" d="M557.4,574.2c0,9.3-7.3,16.6-16.7,16.6c-9.5,0-16.7-7.3-16.7-16.6c0-9.3,7.3-16.6,16.7-16.6
					S557.4,564.9,557.4,574.2z M555.1,574.2c0-8.3-6.2-14.7-14.5-14.7s-14.5,6.4-14.5,14.7c0,8.2,6.2,14.6,14.5,14.6
					S555.1,582.4,555.1,574.2z"/>
				<path class="st0" d="M595.7,574.8h13.5c0,2.9-0.6,7.2-3.3,10.6c-2.8,3.6-7.2,5.4-12.1,5.4c-9.5,0-16.7-7-16.7-16.6
					c0-9.6,7.4-16.6,16.8-16.6c4.5,0,7.6,1.5,10.1,3.5c1.4,1.1,2.6,2.2,3.9,4.1l-1.7,1.4c-0.9-1.5-2.2-2.9-3.1-3.6
					c-2-1.7-5.2-3.4-9.2-3.4c-8.3,0-14.5,6.6-14.5,14.8c0,8.1,6.1,14.5,14.4,14.5c5.5,0,9.5-2.8,11.2-5.5c1.3-1.9,2-4.6,2.1-6.7
					h-11.4V574.8z"/>
				<path class="st0" d="M644.4,590.2L633.9,575h-1v15.2h-2.1V558h4.6c2.5,0,4.7,0.2,6.8,1.6c2.5,1.7,3.3,4.4,3.3,6.9
					c0,3.2-1.4,6.5-5.4,7.8c-1.7,0.6-3.2,0.6-4,0.6l10.5,15.2H644.4z M633,573.1h3.1c4.6,0,7.3-2.4,7.3-6.6c0-3.2-1.6-4.9-2.9-5.6
					c-1.4-0.8-3.7-1-4.9-1H633V573.1z"/>
				<path class="st0" d="M683.5,559.9h-13.3v11.7h13v1.9h-13v14.7h13.3v1.9h-15.4V558h15.4V559.9z"/>
				<path class="st0" d="M719.8,563.5c-2-3.9-5.5-4-6.3-4c-3.8,0-6,2.8-6,6c0,3.5,2.4,4.6,5.6,6.2c3.2,1.5,4.8,2.2,6.4,3.4
					c1.4,1,3.4,2.7,3.4,6.2c0,5.4-4.5,9.4-10,9.4c-4.2,0-6.3-2-7.5-3.4c-1.3-1.4-1.8-2.7-2.1-3.5l1.8-0.9c0.4,1.3,1.3,2.5,1.7,3.1
					c1.5,1.8,3.8,2.8,6,2.8c4.3,0,7.8-3.2,7.8-7.4c0-1.7-0.7-3.6-3.1-5.1c-0.9-0.5-2.8-1.5-5.5-2.8c-3.2-1.5-4.8-2.4-5.9-4.2
					c-0.7-1.2-1-2.4-1-3.7c0-3.7,2.5-8,8.3-8c3.2,0,6.2,1.5,7.8,4.6L719.8,563.5z"/>
				<path class="st0" d="M775.8,574.2c0,9.3-7.3,16.6-16.7,16.6c-9.5,0-16.7-7.3-16.7-16.6c0-9.3,7.3-16.6,16.7-16.6
					C768.5,557.6,775.8,564.9,775.8,574.2z M773.5,574.2c0-8.3-6.2-14.7-14.5-14.7s-14.5,6.4-14.5,14.7c0,8.2,6.2,14.6,14.5,14.6
					S773.5,582.4,773.5,574.2z"/>
			</g>
		</g>
	</g>
	<g>
		<g>
			<g>
				<path class="st1" d="M602.6,337c-6,0.9-10.3-1.4-10.8-1.7l-98.4-51.8c-0.1-0.1-3.8-2.1-9.2-2.2c-3.4-0.1-7.5,1.5-8.8,2.2
					l-17.9,9.6c-0.4,0.2-3.8,1.9-7.6,1.9c-5.1,0-9-2.8-9.4-3.1l-54.8-39.7c-0.2-0.2-4.3-3.4-10.9-3.5h-0.2c-6.1,0-11.3,3.9-11.3,4
					l-36.7,27.8c-0.2,0.2-3.2,2.6-7.7,3.1c-4,0.4-7.5-0.9-7.8-1l-16.6-6.9c-0.2-0.1-4.1-2-9.9-1.4c-4.7,0.5-8.9,3.7-9,3.8
					l-44.9,34.4c-0.3,0.2-3.2,2.4-6.8,2.9c-4.6,0.8-8-0.6-8.4-0.7L159.8,296c-0.2-0.1-3.1-1.2-6.9-1c-3.8,0.1-6.9,1.6-7,1.6
					L18,353.6v-7.9l125-55.7c0.1,0,4.3-2,9.6-2.2c5.3-0.2,9.3,1.3,9.7,1.4l55.7,18.7c0.2,0.1,2.2,0.8,4.6,0.4
					c1.6-0.2,3.3-1.3,3.6-1.6l44.9-34.4c0.2-0.2,5.9-4.5,12.6-5.2c8-0.9,13.5,1.9,13.7,2l16.3,6.8c0,0,1.6,0.6,3.5,0.6
					c0.3,0,0.5,0,0.8,0c2.4-0.3,4-1.6,4-1.6l36.7-27.8c0.2-0.2,7.1-5.6,16.1-5.5c9.2,0.2,15,4.8,15.2,5l54.7,39.6
					c0,0,2.4,1.7,5.1,1.7c1.7,0,3.6-0.8,4.2-1.1l18-9.6c0.7-0.4,6.5-3.2,12.3-3c7.2,0.2,12.2,3,12.4,3.1l98.5,51.9
					c0.2,0.2,2,1.2,4.8,1c0.5,1.5,1,3.1,1.5,4.6C602.1,335.4,602.3,336.2,602.6,337z"/>
			</g>
		</g>
		<g>
			<path class="st0" d="M650.5,322.8L602.6,337c-0.2-0.8-0.5-1.6-0.8-2.4c-0.5-1.5-1-3.1-1.5-4.6c-2.1-6.1-4.3-12.2-6.8-18.2
				C541.4,183.2,415.2,92.4,267.9,92.4c-97,0-184.8,39.3-248.4,102.9l-0.1,0.1c-0.1,0.1-0.3,0.2-0.5,0.2c-0.5,0-0.9-0.4-0.9-0.9
				c0-0.2,0.1-0.4,0.2-0.6c0,0,0.1-0.1,0.1-0.1C86.2,115.9,186.3,66.5,298,66.5C462.7,66.5,602.4,174,650.5,322.8z"/>
		</g>
		<path class="st2" d="M775.8,363v3.7L692,310.5l-35.2,10.4C607.3,169.1,464.5,59.4,296.2,59.4c-98.9,0-188.8,37.8-256.4,99.7
			c-0.2,0.2-0.5,0.3-0.8,0.3c-0.6,0-1.1-0.5-1.1-1.2c0-0.3,0.1-0.6,0.3-0.8C116.7,71.6,229.6,17.7,355.1,17.7
			c182.3,0,338,113.7,400.1,274C764,314.6,771,338.4,775.8,363z"/>
	</g>
	<g>
		<g>
			<path class="st0" d="M114.9,502.5v14.1c-26.7,0-49.5-5.5-68.4-16.5c-18.9-11-28.3-24.3-28.3-39.8c0-15.5,9.4-28.8,28.3-39.8
				c18.9-11,41.7-16.5,68.4-16.5V418c-19.1,0-35.4,4.1-48.9,12.4c-13.5,8.2-20.3,18.2-20.3,29.9c0,11.7,6.8,21.7,20.3,29.9
				C79.6,498.4,95.9,502.5,114.9,502.5z"/>
		</g>
		<g>
			<path class="st0" d="M287,502.5v14.1c-26.7,0-49.5-5.5-68.4-16.5c-18.9-11-28.3-24.3-28.3-39.8c0-15.5,9.4-28.8,28.3-39.8
				c18.9-11,41.7-16.5,68.4-16.5V418c-19.1,0-35.4,4.1-48.9,12.4c-13.5,8.2-20.3,18.2-20.3,29.9c0,11.7,6.8,21.7,20.3,29.9
				C251.6,498.4,267.9,502.5,287,502.5z"/>
		</g>
		<g>
			<path class="st0" d="M362.3,403.9H390v112.7h-27.7V403.9z"/>
		</g>
		<g>
			<path class="st0" d="M534.3,432.1l41.5-28.2h27.7v112.7h-27.7V425l-41.5,28.2L492.9,425v91.6h-27.7V403.9h27.7L534.3,432.1z"/>
		</g>
		<g>
			<path class="st0" d="M761.8,425v49.3h13.8v14.1h-13.8v28.2h-27.7v-28.2h-27.7v28.2h-27.7v-28.2H665v-14.1h13.8V425
				c0-5.8,4.1-10.8,12.2-14.9c8.1-4.1,17.9-6.2,29.3-6.2c11.4,0,21.2,2.1,29.3,6.2C757.7,414.2,761.8,419.2,761.8,425z M706.5,425
				v49.3h27.7V425c0-1.9-1.4-3.6-4.1-5c-2.7-1.4-6-2.1-9.7-2.1c-3.8,0-7,0.7-9.8,2.1C707.8,421.5,706.5,423.1,706.5,425z"/>
		</g>
	</g>
</g>
</svg>
