<svg id="Capa_1" enable-background="new 0 0 512 512" height="512" viewBox="0 0 512 512" width="512" xmlns="http://www.w3.org/2000/svg"><g><path d="m64.321 359.791c0 5.981 2.33 11.605 6.559 15.835 4.229 4.229 9.853 6.559 15.834 6.559s11.605-2.33 15.834-6.559l55.909-55.909 25.189 25.189c8.731 8.73 22.938 8.73 31.669 0l72.593-72.595 9.995 9.995c3.779 3.778 9.412 4.9 14.348 2.854 4.937-2.045 8.128-6.82 8.128-12.165v-51.073c0-7.259-5.907-13.166-13.166-13.166h-51.073c-5.344 0-10.118 3.19-12.164 8.127-2.045 4.937-.925 10.57 2.854 14.35l9.409 9.408-56.759 56.76-25.189-25.189c-8.731-8.73-22.938-8.73-31.669 0l-71.742 71.744c-4.229 4.23-6.559 9.854-6.559 15.835zm17.115-5.277 71.743-71.743c1.455-1.456 3.367-2.183 5.278-2.183s3.823.727 5.278 2.183l30.467 30.467c2.915 2.914 7.641 2.914 10.556 0l67.316-67.316c2.915-2.916 2.915-7.641 0-10.557l-11.679-11.678h45.055v45.055l-12.263-12.264c-1.401-1.4-3.299-2.186-5.279-2.186s-3.878.786-5.279 2.186l-77.871 77.872c-2.911 2.912-7.646 2.912-10.556 0l-30.467-30.467c-2.915-2.914-7.641-2.914-10.556 0l-61.187 61.187c-8.817 7.051-16.485-4.935-10.556-10.556z"/><path d="m492.729 179.508c10.626 0 19.271-8.644 19.271-19.271v-41.951c0-10.626-8.645-19.271-19.271-19.271h-50.862c-4.123 0-7.465 3.342-7.465 7.465s3.342 7.465 7.465 7.465h50.862c2.394 0 4.342 1.948 4.342 4.342v41.951c0 2.394-1.948 4.342-4.342 4.342h-473.458c-2.394 0-4.342-1.948-4.342-4.342v-41.951c0-2.394 1.948-4.342 4.342-4.342h387.638c4.123 0 7.465-3.342 7.465-7.465s-3.342-7.465-7.465-7.465h-58.172l-60.304-44.894c.572-2.443.885-4.984.885-7.599 0-18.372-14.946-33.317-33.317-33.317s-33.317 14.946-33.317 33.317c0 2.615.312 5.157.885 7.599l-59.749 44.481c-.176.131-.34.271-.5.413h-144.049c-10.626 0-19.271 8.645-19.271 19.271v41.951c0 10.626 8.645 19.271 19.271 19.271h15.642v19.603c0 4.123 3.342 7.465 7.465 7.465s7.465-3.342 7.465-7.465v-19.603h412.317v238.796h-412.318v-182.948c0-4.123-3.342-7.465-7.465-7.465s-7.465 3.342-7.465 7.465v182.948h-15.641c-10.626-.001-19.271 8.644-19.271 19.269v41.951c0 10.626 8.645 19.271 19.271 19.271h131.044c4.123 0 7.465-3.342 7.465-7.465s-3.342-7.465-7.465-7.465h-131.044c-2.394 0-4.342-1.948-4.342-4.342v-41.951c0-2.394 1.948-4.341 4.342-4.341h473.458c2.394 0 4.342 1.947 4.342 4.341v41.951c0 2.394-1.948 4.342-4.342 4.342h-306.754c-4.122 0-7.465 3.342-7.465 7.465s3.342 7.465 7.465 7.465h306.755c10.626 0 19.271-8.645 19.271-19.271v-41.951c0-10.625-8.645-19.27-19.271-19.27h-15.642v-238.795zm-236.729-151.374c10.139 0 18.388 8.249 18.388 18.388s-8.249 18.388-18.388 18.388-18.388-8.249-18.388-18.388 8.249-18.388 18.388-18.388zm-25.691 39.58c6.116 7.401 15.362 12.126 25.691 12.126s19.575-4.725 25.691-12.126l42.046 31.302h-135.474z"/><path d="m390.914 391.181c22.16 0 40.19-18.03 40.19-40.19s-18.03-40.19-40.19-40.19-40.19 18.03-40.19 40.19 18.03 40.19 40.19 40.19zm0-65.451c13.929 0 25.261 11.332 25.261 25.261s-11.332 25.261-25.261 25.261-25.261-11.332-25.261-25.261 11.332-25.261 25.261-25.261z"/><path d="m390.914 289.593c22.16 0 40.19-18.03 40.19-40.19s-18.03-40.19-40.19-40.19-40.19 18.03-40.19 40.19 18.03 40.19 40.19 40.19zm0-65.45c13.929 0 25.261 11.332 25.261 25.261s-11.332 25.261-25.261 25.261-25.261-11.332-25.261-25.261c0-13.93 11.332-25.261 25.261-25.261z"/><path d="m128.915 379.753c-4.123 0-7.465 3.342-7.465 7.465s3.342 7.465 7.465 7.465h70.54c4.123 0 7.465-3.342 7.465-7.465s-3.342-7.465-7.465-7.465z"/><path d="m128.915 224.143h70.54c4.123 0 7.465-3.342 7.465-7.465s-3.342-7.465-7.465-7.465h-70.54c-4.123 0-7.465 3.342-7.465 7.465s3.342 7.465 7.465 7.465z"/><path d="m128.915 253.317h70.54c4.123 0 7.465-3.342 7.465-7.465s-3.342-7.465-7.465-7.465h-70.54c-4.123 0-7.465 3.342-7.465 7.465 0 4.124 3.342 7.465 7.465 7.465z"/><path d="m236.945 379.753c-4.123 0-7.465 3.342-7.465 7.465s3.342 7.465 7.465 7.465h23.39c4.123 0 7.465-3.342 7.465-7.465s-3.342-7.465-7.465-7.465z"/></g></svg>