<?xml version="1.0" encoding="iso-8859-1"?>
<!-- Generator: Adobe Illustrator 19.0.0, SVG Export Plug-In . SVG Version: 6.00 Build 0)  -->
<svg version="1.1" id="Capa_1" xmlns="http://www.w3.org/2000/svg" xmlns:xlink="http://www.w3.org/1999/xlink" x="0px" y="0px"
	 viewBox="0 0 512 512" style="enable-background:new 0 0 512 512;" xml:space="preserve">
<circle style="fill:#FFD54F;" cx="144" cy="160" r="144"/>
<path style="fill:#FAFAFA;" d="M192,184c0-22.048-21.536-40-48-40c-9.792,0-16-5.248-16-8s6.208-8,16-8
	c4.864,0,9.216,1.184,12.544,3.392c7.392,4.864,17.312,2.912,22.208-4.416c4.896-7.36,2.944-17.312-4.416-22.208
	c-4.352-2.88-9.184-5.088-14.336-6.56V80c0-8.832-7.168-16-16-16s-16,7.168-16,16v18.464c-18.592,5.504-32,20.16-32,37.536
	c0,22.048,21.536,40,48,40c9.792,0,16,5.248,16,8s-6.208,8-16,8c-4.864,0-9.216-1.184-12.544-3.392
	c-7.36-4.832-17.28-2.912-22.208,4.416c-4.896,7.36-2.944,17.312,4.416,22.208c4.352,2.88,9.184,5.088,14.336,6.56V240
	c0,8.832,7.168,16,16,16s16-7.168,16-16v-18.464C178.592,216.032,192,201.376,192,184z"/>
<path style="fill:#455A64;" d="M368,496L224,336h96V146.272c0-42.432-16.864-83.136-46.848-113.12L256,16
	c88.352,0,160,71.648,160,160v160h96L368,496z"/>
<g>
</g>
<g>
</g>
<g>
</g>
<g>
</g>
<g>
</g>
<g>
</g>
<g>
</g>
<g>
</g>
<g>
</g>
<g>
</g>
<g>
</g>
<g>
</g>
<g>
</g>
<g>
</g>
<g>
</g>
</svg>
